G04 Layer_Color=128*
%FSLAX25Y25*%
%MOIN*%
G70*
G01*
G75*
%ADD24C,0.00500*%
D24*
X316578Y310237D02*
X320578D01*
X318578Y308237D02*
Y312237D01*
X316578Y302363D02*
X320578D01*
X318578Y300363D02*
Y304363D01*
X324452Y310237D02*
X328452D01*
X326452Y308237D02*
Y312237D01*
X324452Y302363D02*
X328452D01*
X326452Y300363D02*
Y304363D01*
X332326Y310237D02*
X336326D01*
X334326Y308237D02*
Y312237D01*
X332326Y302363D02*
X336326D01*
X334326Y300363D02*
Y304363D01*
X340200Y310237D02*
X344200D01*
X342200Y308237D02*
Y312237D01*
X340200Y302363D02*
X344200D01*
X342200Y300363D02*
Y304363D01*
X348074Y310237D02*
X352074D01*
X350074Y308237D02*
Y312237D01*
X348074Y302363D02*
X352074D01*
X350074Y300363D02*
Y304363D01*
X355948Y310237D02*
X359948D01*
X357948Y308237D02*
Y312237D01*
X355948Y302363D02*
X359948D01*
X357948Y300363D02*
Y304363D01*
X363822Y310237D02*
X367822D01*
X365822Y308237D02*
Y312237D01*
X363822Y302363D02*
X367822D01*
X365822Y300363D02*
Y304363D01*
X302000Y312600D02*
X303200D01*
X302600Y312000D02*
Y313200D01*
X302300Y308400D02*
X303500D01*
X302900Y307800D02*
Y309000D01*
M02*
