G04 Layer_Color=16777215*
%FSLAX25Y25*%
%MOIN*%
G70*
G01*
G75*
%ADD16C,0.01000*%
%ADD23C,0.00787*%
D16*
X306800Y295400D02*
Y298399D01*
X305300D01*
X304801Y297899D01*
Y296900D01*
X305300Y296400D01*
X306800D01*
X303801Y295400D02*
X302801D01*
X303301D01*
Y298399D01*
X303801Y297899D01*
X362600Y294200D02*
Y296199D01*
X361600Y297199D01*
X360601Y296199D01*
Y294200D01*
Y295700D01*
X362600D01*
X357602Y296699D02*
X358102Y297199D01*
X359101D01*
X359601Y296699D01*
Y294700D01*
X359101Y294200D01*
X358102D01*
X357602Y294700D01*
Y295700D01*
X358601D01*
X356602D02*
X354603D01*
X353603Y294200D02*
X352603D01*
X353103D01*
Y297199D01*
X353603Y296699D01*
X346105Y297199D02*
X347105D01*
X346605D01*
Y294700D01*
X347105Y294200D01*
X347605D01*
X348105Y294700D01*
X345106Y297199D02*
X343106D01*
X344106D01*
Y294200D01*
X342107D02*
Y296199D01*
X341107Y297199D01*
X340107Y296199D01*
Y294200D01*
Y295700D01*
X342107D01*
X337108Y296699D02*
X337608Y297199D01*
X338608D01*
X339108Y296699D01*
Y294700D01*
X338608Y294200D01*
X337608D01*
X337108Y294700D01*
Y295700D01*
X338108D01*
D23*
X285244Y315905D02*
X300598D01*
Y294252D02*
Y315905D01*
X285244Y294252D02*
X300598D01*
X285244D02*
Y315905D01*
M02*
