G04 Layer_Physical_Order=1*
G04 Layer_Color=255*
%FSLAX25Y25*%
%MOIN*%
G70*
G01*
G75*
%ADD10R,0.01969X0.02362*%
%ADD11C,0.00600*%
%ADD12C,0.06000*%
%ADD13C,0.02400*%
G36*
X374675Y294126D02*
X285326D01*
Y316074D01*
X374675D01*
Y294126D01*
D02*
G37*
%LPC*%
G36*
X308684Y314950D02*
X305116D01*
Y314290D01*
X303671D01*
X303380Y314484D01*
X302600Y314639D01*
X301820Y314484D01*
X301158Y314042D01*
X300716Y313380D01*
X300561Y312600D01*
X300716Y311820D01*
X301158Y311158D01*
X301820Y310716D01*
X301872Y310706D01*
X301961Y310178D01*
X301458Y309842D01*
X301016Y309180D01*
X300861Y308400D01*
X301016Y307620D01*
X301458Y306958D01*
X302120Y306516D01*
X302900Y306361D01*
X303680Y306516D01*
X304342Y306958D01*
X304556Y307278D01*
X305116D01*
Y307050D01*
X308684D01*
Y308110D01*
X309304D01*
X311279Y306135D01*
Y301100D01*
X311278Y301100D01*
X311364Y300671D01*
X311607Y300307D01*
X314244Y297670D01*
X314244Y297670D01*
X314608Y297427D01*
X315037Y297341D01*
X315037Y297341D01*
X321200D01*
X321200Y297341D01*
X321629Y297427D01*
X321993Y297670D01*
X323874Y299551D01*
X324536Y299044D01*
X325460Y298661D01*
X326452Y298530D01*
X327444Y298661D01*
X328368Y299044D01*
X329162Y299653D01*
X329771Y300447D01*
X330128Y301308D01*
X330382Y301371D01*
X330396D01*
X330650Y301308D01*
X331007Y300447D01*
X331616Y299653D01*
X332410Y299044D01*
X333334Y298661D01*
X334326Y298530D01*
X335318Y298661D01*
X336242Y299044D01*
X337036Y299653D01*
X337645Y300447D01*
X338002Y301308D01*
X338256Y301371D01*
X338270D01*
X338524Y301308D01*
X338881Y300447D01*
X339490Y299653D01*
X340284Y299044D01*
X341208Y298661D01*
X342200Y298530D01*
X343192Y298661D01*
X344116Y299044D01*
X344910Y299653D01*
X345519Y300447D01*
X345876Y301308D01*
X346130Y301371D01*
X346144D01*
X346398Y301308D01*
X346755Y300447D01*
X347364Y299653D01*
X348158Y299044D01*
X349082Y298661D01*
X350074Y298530D01*
X351066Y298661D01*
X351990Y299044D01*
X352784Y299653D01*
X353393Y300447D01*
X353750Y301308D01*
X354004Y301371D01*
X354018D01*
X354272Y301308D01*
X354629Y300447D01*
X355238Y299653D01*
X356032Y299044D01*
X356956Y298661D01*
X357948Y298530D01*
X358940Y298661D01*
X359864Y299044D01*
X360658Y299653D01*
X361267Y300447D01*
X361624Y301308D01*
X361878Y301371D01*
X361892D01*
X362146Y301308D01*
X362503Y300447D01*
X363112Y299653D01*
X363906Y299044D01*
X364830Y298661D01*
X365822Y298530D01*
X366814Y298661D01*
X367738Y299044D01*
X368532Y299653D01*
X369141Y300447D01*
X369524Y301371D01*
X369655Y302363D01*
X369524Y303355D01*
X369141Y304279D01*
X368532Y305073D01*
X367738Y305682D01*
X366814Y306065D01*
X365822Y306196D01*
X364830Y306065D01*
X363906Y305682D01*
X363112Y305073D01*
X362503Y304279D01*
X362146Y303418D01*
X361892Y303355D01*
X361878D01*
X361624Y303418D01*
X361267Y304279D01*
X360658Y305073D01*
X359864Y305682D01*
X358940Y306065D01*
X357948Y306196D01*
X356956Y306065D01*
X356032Y305682D01*
X355238Y305073D01*
X354629Y304279D01*
X354272Y303418D01*
X354018Y303355D01*
X354004D01*
X353750Y303418D01*
X353393Y304279D01*
X352784Y305073D01*
X351990Y305682D01*
X351066Y306065D01*
X350074Y306196D01*
X349082Y306065D01*
X348158Y305682D01*
X347364Y305073D01*
X346755Y304279D01*
X346398Y303418D01*
X346144Y303355D01*
X346130D01*
X345876Y303418D01*
X345519Y304279D01*
X344910Y305073D01*
X344116Y305682D01*
X343192Y306065D01*
X342200Y306196D01*
X341208Y306065D01*
X340284Y305682D01*
X339490Y305073D01*
X338881Y304279D01*
X338524Y303418D01*
X338270Y303355D01*
X338256D01*
X338002Y303418D01*
X337645Y304279D01*
X337036Y305073D01*
X336242Y305682D01*
X335318Y306065D01*
X334326Y306196D01*
X333334Y306065D01*
X332410Y305682D01*
X331616Y305073D01*
X331007Y304279D01*
X330650Y303418D01*
X330396Y303355D01*
X330382D01*
X330128Y303418D01*
X329771Y304279D01*
X329162Y305073D01*
X328368Y305682D01*
X327444Y306065D01*
X326452Y306196D01*
X325460Y306065D01*
X324536Y305682D01*
X323742Y305073D01*
X323133Y304279D01*
X322776Y303418D01*
X322522Y303355D01*
X322508D01*
X322254Y303418D01*
X321897Y304279D01*
X321288Y305073D01*
X320494Y305682D01*
X319570Y306065D01*
X318578Y306196D01*
X317586Y306065D01*
X316662Y305682D01*
X315868Y305073D01*
X315422Y304492D01*
X314921Y304661D01*
Y311200D01*
X314922Y311200D01*
X314836Y311629D01*
X314593Y311993D01*
X312625Y313962D01*
X312261Y314205D01*
X311831Y314290D01*
X311831Y314290D01*
X308684D01*
Y314950D01*
D02*
G37*
%LPD*%
D10*
X306900Y312968D02*
D03*
Y309032D02*
D03*
D11*
X302600Y312600D02*
X303169Y313169D01*
X306000D01*
X311831D01*
X313800Y311200D01*
Y303200D02*
Y311200D01*
Y303200D02*
X314637Y302363D01*
X318578D01*
X306000Y309231D02*
X309769D01*
X312400Y306600D01*
Y301100D02*
Y306600D01*
X305169Y308400D02*
X306000Y309231D01*
X302900Y308400D02*
X305169D01*
X325100Y302363D02*
X326452D01*
X321200Y298463D02*
X325100Y302363D01*
X315037Y298463D02*
X321200D01*
X312400Y301100D02*
X315037Y298463D01*
D12*
X318578Y310237D02*
D03*
Y302363D02*
D03*
X326452Y310237D02*
D03*
Y302363D02*
D03*
X334326Y310237D02*
D03*
Y302363D02*
D03*
X342200Y310237D02*
D03*
Y302363D02*
D03*
X350074Y310237D02*
D03*
Y302363D02*
D03*
X357948Y310237D02*
D03*
Y302363D02*
D03*
X365822Y310237D02*
D03*
Y302363D02*
D03*
D13*
X302600Y312600D02*
D03*
X302900Y308400D02*
D03*
M02*
