G04 Layer_Color=65535*
%FSLAX25Y25*%
%MOIN*%
G70*
G01*
G75*
%ADD16C,0.01000*%
%ADD17C,0.00394*%
D16*
X314641Y314174D02*
X369759D01*
Y298426D02*
Y314174D01*
X314641Y298426D02*
X369759D01*
X314641D02*
Y314174D01*
X306500Y295600D02*
Y298399D01*
X307899D01*
X308366Y297933D01*
Y297000D01*
X307899Y296533D01*
X306500D01*
X311165Y295600D02*
X309299D01*
X311165Y297466D01*
Y297933D01*
X310699Y298399D01*
X309766D01*
X309299Y297933D01*
X304400Y305800D02*
X307199D01*
Y304400D01*
X306733Y303934D01*
X305800D01*
X305333Y304400D01*
Y305800D01*
Y304867D02*
X304400Y303934D01*
Y303001D02*
Y302068D01*
Y302534D01*
X307199D01*
X306733Y303001D01*
X374600Y310100D02*
Y311100D01*
Y310600D01*
X371601D01*
X372101Y310100D01*
X374500Y302299D02*
Y300300D01*
X372501Y302299D01*
X372001D01*
X371501Y301800D01*
Y300800D01*
X372001Y300300D01*
X312700Y308400D02*
Y309400D01*
Y308900D01*
X309701D01*
X310201Y308400D01*
Y310899D02*
X309701Y311399D01*
Y312399D01*
X310201Y312898D01*
X310701D01*
X311200Y312399D01*
Y311899D01*
Y312399D01*
X311700Y312898D01*
X312200D01*
X312700Y312399D01*
Y311399D01*
X312200Y310899D01*
X312800Y300100D02*
Y301100D01*
Y300600D01*
X309801D01*
X310301Y300100D01*
X312800Y304099D02*
X309801D01*
X311300Y302599D01*
Y304598D01*
D17*
X305522Y307457D02*
X308278D01*
X305522D02*
Y314543D01*
X308278D01*
Y307457D02*
Y314543D01*
M02*
