G04 Layer_Color=65535*
%FSLAX25Y25*%
%MOIN*%
G70*
G01*
G75*
%ADD11C,0.01000*%
%ADD50C,0.00984*%
%ADD51C,0.00394*%
%ADD52C,0.02362*%
%ADD53C,0.00787*%
G36*
X33478Y-177016D02*
X29541D01*
Y-173080D01*
X33478Y-177016D01*
D02*
G37*
G36*
X103276Y-49261D02*
X99339Y-45324D01*
X103276D01*
Y-49261D01*
D02*
G37*
G36*
X33878Y-38816D02*
X29941D01*
Y-34879D01*
X33878Y-38816D01*
D02*
G37*
D11*
X109731Y-128324D02*
G03*
X109731Y-128324I-394J0D01*
G01*
X82300Y-185200D02*
Y-182867D01*
X83466Y-181701D01*
X84633Y-182867D01*
Y-185200D01*
Y-183451D01*
X82300D01*
X88131Y-182284D02*
X87548Y-181701D01*
X86382D01*
X85799Y-182284D01*
Y-184617D01*
X86382Y-185200D01*
X87548D01*
X88131Y-184617D01*
Y-183451D01*
X86965D01*
X89298D02*
X91630D01*
X92797Y-185200D02*
X93963D01*
X93380D01*
Y-181701D01*
X92797Y-182284D01*
D50*
X99831Y-42765D02*
G03*
X99831Y-42765I-492J0D01*
G01*
D51*
X100635Y-139701D02*
G03*
X100635Y-139701I-440J0D01*
G01*
X98560Y-40637D02*
G03*
X98560Y-40637I-197J0D01*
G01*
X105934Y-24363D02*
G03*
X105934Y-24363I-197J0D01*
G01*
X89060Y-168563D02*
G03*
X89060Y-168563I-197J0D01*
G01*
X87360Y-157363D02*
G03*
X87360Y-157363I-197J0D01*
G01*
X87760Y-146463D02*
G03*
X87760Y-146463I-197J0D01*
G01*
X10918Y-97563D02*
G03*
X10918Y-97563I-197J0D01*
G01*
X109478Y-48443D02*
Y-41357D01*
X106722D02*
X109478D01*
X106722Y-48443D02*
Y-41357D01*
Y-48443D02*
X109478D01*
X25578Y-30443D02*
Y-23357D01*
X22822D02*
X25578D01*
X22822Y-30443D02*
Y-23357D01*
Y-30443D02*
X25578D01*
X18157Y-33978D02*
X25243D01*
Y-31222D01*
X18157D02*
X25243D01*
X18157Y-33978D02*
Y-31222D01*
X19322Y-23357D02*
X22078D01*
Y-30443D02*
Y-23357D01*
X19322Y-30443D02*
X22078D01*
X19322D02*
Y-23357D01*
X1457Y-29278D02*
X8543D01*
Y-26522D01*
X1457D02*
X8543D01*
X1457Y-29278D02*
Y-26522D01*
X25243Y-37378D02*
Y-34622D01*
X18157Y-37378D02*
X25243D01*
X18157D02*
Y-34622D01*
X25243D01*
X18624Y-27665D02*
Y-23335D01*
X9176Y-27665D02*
X18624D01*
X9176D02*
Y-23335D01*
X18624D01*
X7776Y-39965D02*
Y-35635D01*
X17224D01*
Y-39965D02*
Y-35635D01*
X7776Y-39965D02*
X17224D01*
X935Y-43324D02*
Y-33876D01*
Y-43324D02*
X5265D01*
Y-33876D01*
X935D02*
X5265D01*
X8543Y-32978D02*
Y-30222D01*
X1457Y-32978D02*
X8543D01*
X1457D02*
Y-30222D01*
X8543D01*
X23835Y-19624D02*
X28165D01*
X23835D02*
Y-10176D01*
X28165D01*
Y-19624D02*
Y-10176D01*
X1176Y-76835D02*
X10624D01*
X1176Y-81165D02*
Y-76835D01*
Y-81165D02*
X10624D01*
Y-76835D01*
X108057Y-114778D02*
X115143D01*
Y-112022D01*
X108057D02*
X115143D01*
X108057Y-114778D02*
Y-112022D01*
X88522Y-37043D02*
X91278D01*
X88522D02*
Y-29957D01*
X91278D01*
Y-37043D02*
Y-29957D01*
X110257Y-43978D02*
X117343D01*
Y-41222D01*
X110257D02*
X117343D01*
X110257Y-43978D02*
Y-41222D01*
X35557Y-43778D02*
X42643D01*
Y-41022D01*
X35557D02*
X42643D01*
X35557Y-43778D02*
Y-41022D01*
X2057Y-54922D02*
X9143D01*
X2057Y-57678D02*
Y-54922D01*
Y-57678D02*
X9143D01*
Y-54922D01*
X54921Y-43504D02*
Y-40748D01*
X47835Y-43504D02*
X54921D01*
X47835D02*
Y-40748D01*
X54921D01*
X56778Y-185843D02*
Y-178757D01*
X54022D02*
X56778D01*
X54022Y-185843D02*
Y-178757D01*
Y-185843D02*
X56778D01*
X110257Y-51278D02*
Y-48522D01*
X117343D01*
Y-51278D02*
Y-48522D01*
X110257Y-51278D02*
X117343D01*
X27278Y-9443D02*
Y-2357D01*
X24522D02*
X27278D01*
X24522Y-9443D02*
Y-2357D01*
Y-9443D02*
X27278D01*
X113422Y-143957D02*
X116178D01*
Y-151043D02*
Y-143957D01*
X113422Y-151043D02*
X116178D01*
X113422D02*
Y-143957D01*
X107435Y-62576D02*
X111765D01*
Y-72024D02*
Y-62576D01*
X107435Y-72024D02*
X111765D01*
X107435D02*
Y-62576D01*
X116365Y-101124D02*
Y-91676D01*
X112035D02*
X116365D01*
X112035Y-101124D02*
Y-91676D01*
Y-101124D02*
X116365D01*
X112722Y-70743D02*
Y-63657D01*
Y-70743D02*
X115478D01*
Y-63657D01*
X112722D02*
X115478D01*
X110157Y-54878D02*
Y-52122D01*
X117243D01*
Y-54878D02*
Y-52122D01*
X110157Y-54878D02*
X117243D01*
X1957Y-62222D02*
X9043D01*
X1957Y-64978D02*
Y-62222D01*
Y-64978D02*
X9043D01*
Y-62222D01*
X107576Y-59965D02*
X117024D01*
Y-55635D01*
X107576D02*
X117024D01*
X107576Y-59965D02*
Y-55635D01*
X10724Y-86365D02*
Y-82035D01*
X1276Y-86365D02*
X10724D01*
X1276D02*
Y-82035D01*
X10724D01*
X27557Y-43478D02*
Y-40722D01*
X34643D01*
Y-43478D02*
Y-40722D01*
X27557Y-43478D02*
X34643D01*
X59557Y-183222D02*
X66643D01*
X59557Y-185978D02*
Y-183222D01*
Y-185978D02*
X66643D01*
Y-183222D01*
X66143Y-181478D02*
Y-178722D01*
X59057Y-181478D02*
X66143D01*
X59057D02*
Y-178722D01*
X66143D01*
X30622Y-185343D02*
Y-178257D01*
Y-185343D02*
X33378D01*
Y-178257D01*
X30622D02*
X33378D01*
X26922Y-178357D02*
X29678D01*
Y-185443D02*
Y-178357D01*
X26922Y-185443D02*
X29678D01*
X26922D02*
Y-178357D01*
X102357Y-184378D02*
Y-181622D01*
X109443D01*
Y-184378D02*
Y-181622D01*
X102357Y-184378D02*
X109443D01*
X11424Y-129265D02*
Y-124935D01*
X1976Y-129265D02*
X11424D01*
X1976D02*
Y-124935D01*
X11424D01*
X116643Y-29978D02*
Y-27222D01*
X109557Y-29978D02*
X116643D01*
X109557D02*
Y-27222D01*
X116643D01*
X109557Y-30722D02*
X116643D01*
X109557Y-33478D02*
Y-30722D01*
Y-33478D02*
X116643D01*
Y-30722D01*
X110257Y-40378D02*
X117343D01*
Y-37622D01*
X110257D02*
X117343D01*
X110257Y-40378D02*
Y-37622D01*
X91622Y-11143D02*
Y-4057D01*
Y-11143D02*
X94378D01*
Y-4057D01*
X91622D02*
X94378D01*
X90122Y-28143D02*
Y-21057D01*
Y-28143D02*
X92878D01*
Y-21057D01*
X90122D02*
X92878D01*
X2257Y-47078D02*
X9343D01*
Y-44322D01*
X2257D02*
X9343D01*
X2257Y-47078D02*
Y-44322D01*
X22343Y-142678D02*
Y-139922D01*
X15257Y-142678D02*
X22343D01*
X15257D02*
Y-139922D01*
X22343D01*
X4457Y-136822D02*
X11543D01*
X4457Y-139578D02*
Y-136822D01*
Y-139578D02*
X11543D01*
Y-136822D01*
X2457Y-120878D02*
X9543D01*
Y-118122D01*
X2457D02*
X9543D01*
X2457Y-120878D02*
Y-118122D01*
X11643Y-143078D02*
Y-140322D01*
X4557Y-143078D02*
X11643D01*
X4557D02*
Y-140322D01*
X11643D01*
X2657Y-132578D02*
X9743D01*
Y-129822D01*
X2657D02*
X9743D01*
X2657Y-132578D02*
Y-129822D01*
X2557Y-114078D02*
Y-111322D01*
X9643D01*
Y-114078D02*
Y-111322D01*
X2557Y-114078D02*
X9643D01*
X2557Y-124278D02*
X9643D01*
Y-121522D01*
X2557D02*
X9643D01*
X2557Y-124278D02*
Y-121522D01*
X9243Y-50578D02*
Y-47822D01*
X2157Y-50578D02*
X9243D01*
X2157D02*
Y-47822D01*
X9243D01*
X2157Y-51422D02*
X9243D01*
X2157Y-54178D02*
Y-51422D01*
Y-54178D02*
X9243D01*
Y-51422D01*
X110257Y-47578D02*
X117343D01*
Y-44822D01*
X110257D02*
X117343D01*
X110257Y-47578D02*
Y-44822D01*
X9943Y-136078D02*
Y-133322D01*
X2857Y-136078D02*
X9943D01*
X2857D02*
Y-133322D01*
X9943D01*
X2457Y-117478D02*
Y-114722D01*
X9543D01*
Y-117478D02*
Y-114722D01*
X2457Y-117478D02*
X9543D01*
X1957Y-68678D02*
X9043D01*
Y-65922D01*
X1957D02*
X9043D01*
X1957Y-68678D02*
Y-65922D01*
X99801Y-151512D02*
Y-140488D01*
Y-151512D02*
X112399D01*
Y-140488D01*
X99801D02*
X112399D01*
X98100Y-40200D02*
X106800D01*
Y-33100D01*
X97600D02*
X106800D01*
X97600Y-39700D02*
Y-33100D01*
Y-39700D02*
X98100Y-40200D01*
X98800D01*
X105300Y-24800D02*
X106000D01*
X106500Y-25300D01*
Y-31900D02*
Y-25300D01*
X97300Y-31900D02*
X106500D01*
X97300D02*
Y-24800D01*
X106000D01*
X89300Y-169000D02*
Y-168300D01*
X89800Y-167800D01*
X96400D01*
Y-177000D02*
Y-167800D01*
X89300Y-177000D02*
X96400D01*
X89300D02*
Y-168300D01*
X87600Y-165800D02*
Y-157100D01*
Y-165800D02*
X94700D01*
Y-156600D01*
X88100D02*
X94700D01*
X87600Y-157100D02*
X88100Y-156600D01*
X87600Y-157800D02*
Y-157100D01*
X88000Y-146900D02*
Y-146200D01*
X88500Y-145700D01*
X95100D01*
Y-154900D02*
Y-145700D01*
X88000Y-154900D02*
X95100D01*
X88000D02*
Y-146200D01*
X104822Y-81843D02*
Y-74757D01*
Y-81843D02*
X107578D01*
Y-74757D01*
X104822D02*
X107578D01*
X1957Y-61278D02*
Y-58522D01*
X9043D01*
Y-61278D02*
Y-58522D01*
X1957Y-61278D02*
X9043D01*
X1857Y-72278D02*
X8943D01*
Y-69522D01*
X1857D02*
X8943D01*
X1857Y-72278D02*
Y-69522D01*
X1957Y-75778D02*
Y-73022D01*
X9043D01*
Y-75778D02*
Y-73022D01*
X1957Y-75778D02*
X9043D01*
X6922Y-95043D02*
Y-87957D01*
Y-95043D02*
X9678D01*
Y-87957D01*
X6922D02*
X9678D01*
X9643Y-110578D02*
Y-107822D01*
X2557Y-110578D02*
X9643D01*
X2557D02*
Y-107822D01*
X9643D01*
X2522Y-95043D02*
Y-87957D01*
Y-95043D02*
X5278D01*
Y-87957D01*
X2522D02*
X5278D01*
X9934Y-98350D02*
Y-95988D01*
X1666D02*
X9934D01*
X1666Y-107012D02*
Y-95988D01*
Y-107012D02*
X9934D01*
Y-98350D01*
X106188Y-126356D02*
Y-118088D01*
X117212D01*
Y-129112D02*
Y-118088D01*
X106188Y-129112D02*
X117212D01*
X106188D02*
Y-126356D01*
X93943Y-143878D02*
Y-141122D01*
X86857Y-143878D02*
X93943D01*
X86857D02*
Y-141122D01*
X93943D01*
X115443Y-109278D02*
Y-106522D01*
X108357Y-109278D02*
X115443D01*
X108357D02*
Y-106522D01*
X115443D01*
X108757Y-135178D02*
Y-132422D01*
X115843D01*
Y-135178D02*
Y-132422D01*
X108757Y-135178D02*
X115843D01*
X108657Y-138578D02*
Y-135822D01*
X115743D01*
Y-138578D02*
Y-135822D01*
X108657Y-138578D02*
X115743D01*
D52*
X21371Y-157963D02*
G03*
X21371Y-157963I-1181J0D01*
G01*
D53*
X109347Y-83775D02*
Y-80625D01*
X115253Y-83775D02*
Y-80625D01*
X98032Y-176706D02*
Y-155052D01*
X111811D01*
Y-176706D02*
Y-155052D01*
X98032Y-176706D02*
X111811D01*
X12724Y-135876D02*
Y-45324D01*
X103276Y-135876D02*
Y-45324D01*
X12724Y-135876D02*
X103276D01*
X12724Y-45324D02*
X103276D01*
X99339D02*
X103276Y-49261D01*
X2473Y-169774D02*
Y-154026D01*
X24127Y-169774D02*
Y-154026D01*
X2473Y-169774D02*
X24127D01*
X2473Y-154026D02*
X24127D01*
X29941Y-34879D02*
X33878Y-38816D01*
X29941D02*
X85059D01*
X29941Y-3384D02*
X85059D01*
X29941Y-38816D02*
Y-3384D01*
X85059Y-38816D02*
Y-3384D01*
X84659Y-177016D02*
Y-141584D01*
X29541Y-177016D02*
Y-141584D01*
X84659D01*
X29541Y-177016D02*
X84659D01*
X29541Y-173080D02*
X33478Y-177016D01*
M02*
