G04 Layer_Color=2752767*
%FSLAX25Y25*%
%MOIN*%
G70*
G01*
G75*
%ADD10C,0.00500*%
%ADD86C,0.00667*%
D10*
X9520Y-13427D02*
Y-9427D01*
X13520D01*
Y-13427D01*
X9520D01*
X104795D02*
Y-9427D01*
X108795D01*
Y-13427D01*
X104795D01*
D86*
X63900Y-106800D02*
G03*
X63900Y-106800I-2000J0D01*
G01*
X28500Y-109800D02*
G03*
X28500Y-109800I-2000J0D01*
G01*
X56000Y-110400D02*
G03*
X56000Y-110400I-2000J0D01*
G01*
X16700Y-109900D02*
G03*
X16700Y-109900I-2000J0D01*
G01*
X14100Y-114200D02*
G03*
X14100Y-114200I-2000J0D01*
G01*
X28300Y-121600D02*
G03*
X28300Y-121600I-2000J0D01*
G01*
X96800Y-151300D02*
G03*
X96800Y-151300I-2000J0D01*
G01*
X105000Y-175800D02*
G03*
X105000Y-175800I-2000J0D01*
G01*
X106900Y-177800D02*
G03*
X106900Y-177800I-2000J0D01*
G01*
X4500Y-69200D02*
G03*
X4500Y-69200I-2000J0D01*
G01*
X87400Y-148500D02*
G03*
X87400Y-148500I-2000J0D01*
G01*
X87500Y-126100D02*
G03*
X87500Y-126100I-2000J0D01*
G01*
X100600Y-143800D02*
G03*
X100600Y-143800I-2000J0D01*
G01*
X99700Y-146600D02*
G03*
X99700Y-146600I-2000J0D01*
G01*
X98364Y-148564D02*
G03*
X98364Y-148564I-2000J0D01*
G01*
X102300Y-146800D02*
G03*
X102300Y-146800I-2000J0D01*
G01*
X107500Y-143300D02*
G03*
X107500Y-143300I-2000J0D01*
G01*
X76700Y-179900D02*
G03*
X76700Y-179900I-2000J0D01*
G01*
X75100Y-176500D02*
G03*
X75100Y-176500I-2000J0D01*
G01*
X17300Y-48000D02*
G03*
X17300Y-48000I-2000J0D01*
G01*
X28176Y-64076D02*
G03*
X28176Y-64076I-2000J0D01*
G01*
X28600Y-66400D02*
G03*
X28600Y-66400I-2000J0D01*
G01*
X23700Y-45500D02*
G03*
X23700Y-45500I-2000J0D01*
G01*
X68200Y-54800D02*
G03*
X68200Y-54800I-2000J0D01*
G01*
X60000Y-51230D02*
G03*
X60000Y-51230I-2000J0D01*
G01*
X59400Y-40600D02*
G03*
X59400Y-40600I-2000J0D01*
G01*
X63367Y-35966D02*
G03*
X63367Y-35966I-2000J0D01*
G01*
X65900Y-38100D02*
G03*
X65900Y-38100I-2000J0D01*
G01*
X71200Y-39900D02*
G03*
X71200Y-39900I-2000J0D01*
G01*
X71800Y-54700D02*
G03*
X71800Y-54700I-2000J0D01*
G01*
X71529Y-63323D02*
G03*
X71529Y-63323I-2000J0D01*
G01*
X79400Y-70900D02*
G03*
X79400Y-70900I-2000J0D01*
G01*
X76000Y-70800D02*
G03*
X76000Y-70800I-2000J0D01*
G01*
X83600Y-66900D02*
G03*
X83600Y-66900I-2000J0D01*
G01*
X67592Y-75134D02*
G03*
X67592Y-75134I-2000J0D01*
G01*
X67500Y-59300D02*
G03*
X67500Y-59300I-2000J0D01*
G01*
X79600Y-63500D02*
G03*
X79600Y-63500I-2000J0D01*
G01*
X83500Y-59700D02*
G03*
X83500Y-59700I-2000J0D01*
G01*
X87277Y-67260D02*
G03*
X87277Y-67260I-2000J0D01*
G01*
X83400Y-71700D02*
G03*
X83400Y-71700I-2000J0D01*
G01*
X83340Y-75134D02*
G03*
X83340Y-75134I-2000J0D01*
G01*
X60315Y-70600D02*
G03*
X60315Y-70600I-2000J0D01*
G01*
X56200Y-70800D02*
G03*
X56200Y-70800I-2000J0D01*
G01*
X52100Y-70300D02*
G03*
X52100Y-70300I-2000J0D01*
G01*
X52408Y-83008D02*
G03*
X52408Y-83008I-2000J0D01*
G01*
X56000Y-82800D02*
G03*
X56000Y-82800I-2000J0D01*
G01*
X44300D02*
G03*
X44300Y-82800I-2000J0D01*
G01*
X91180Y-64064D02*
G03*
X91180Y-64064I-2000J0D01*
G01*
X94600Y-59400D02*
G03*
X94600Y-59400I-2000J0D01*
G01*
X104100Y-56700D02*
G03*
X104100Y-56700I-2000J0D01*
G01*
X104600Y-53300D02*
G03*
X104600Y-53300I-2000J0D01*
G01*
X106000Y-48700D02*
G03*
X106000Y-48700I-2000J0D01*
G01*
X105400Y-45400D02*
G03*
X105400Y-45400I-2000J0D01*
G01*
X79403Y-75134D02*
G03*
X79403Y-75134I-2000J0D01*
G01*
X90600Y-59300D02*
G03*
X90600Y-59300I-2000J0D01*
G01*
X91700Y-66700D02*
G03*
X91700Y-66700I-2000J0D01*
G01*
X106200Y-55000D02*
G03*
X106200Y-55000I-2000J0D01*
G01*
X103400Y-62500D02*
G03*
X103400Y-62500I-2000J0D01*
G01*
X55700Y-63200D02*
G03*
X55700Y-63200I-2000J0D01*
G01*
X51400Y-62600D02*
G03*
X51400Y-62600I-2000J0D01*
G01*
X91214Y-75134D02*
G03*
X91214Y-75134I-2000J0D01*
G01*
X87277D02*
G03*
X87277Y-75134I-2000J0D01*
G01*
X48000Y-47600D02*
G03*
X48000Y-47600I-2000J0D01*
G01*
X79403Y-79071D02*
G03*
X79403Y-79071I-2000J0D01*
G01*
X67956Y-78000D02*
G03*
X67956Y-78000I-2000J0D01*
G01*
X68500Y-82672D02*
G03*
X68500Y-82672I-2000J0D01*
G01*
X63655Y-86380D02*
G03*
X63655Y-86380I-2000J0D01*
G01*
X63800Y-82800D02*
G03*
X63800Y-82800I-2000J0D01*
G01*
X40100Y-54900D02*
G03*
X40100Y-54900I-2000J0D01*
G01*
X40800Y-59200D02*
G03*
X40800Y-59200I-2000J0D01*
G01*
X36000Y-59000D02*
G03*
X36000Y-59000I-2000J0D01*
G01*
X32400Y-59100D02*
G03*
X32400Y-59100I-2000J0D01*
G01*
X32700Y-63500D02*
G03*
X32700Y-63500I-2000J0D01*
G01*
X36800Y-67400D02*
G03*
X36800Y-67400I-2000J0D01*
G01*
Y-70900D02*
G03*
X36800Y-70900I-2000J0D01*
G01*
X45300Y-37500D02*
G03*
X45300Y-37500I-2000J0D01*
G01*
X44500Y-55000D02*
G03*
X44500Y-55000I-2000J0D01*
G01*
X44300Y-59300D02*
G03*
X44300Y-59300I-2000J0D01*
G01*
X40100Y-51200D02*
G03*
X40100Y-51200I-2000J0D01*
G01*
X33100Y-55200D02*
G03*
X33100Y-55200I-2000J0D01*
G01*
X32500Y-71300D02*
G03*
X32500Y-71300I-2000J0D01*
G01*
X48472Y-86945D02*
G03*
X48472Y-86945I-2000J0D01*
G01*
X40100Y-74700D02*
G03*
X40100Y-74700I-2000J0D01*
G01*
X52100Y-86500D02*
G03*
X52100Y-86500I-2000J0D01*
G01*
X56181Y-78200D02*
G03*
X56181Y-78200I-2000J0D01*
G01*
X53783Y-78408D02*
G03*
X53783Y-78408I-2000J0D01*
G01*
X48505Y-93500D02*
G03*
X48505Y-93500I-2000J0D01*
G01*
X52500Y-101900D02*
G03*
X52500Y-101900I-2000J0D01*
G01*
X44700Y-93400D02*
G03*
X44700Y-93400I-2000J0D01*
G01*
X36550Y-51317D02*
G03*
X36550Y-51317I-2000J0D01*
G01*
X52300Y-67000D02*
G03*
X52300Y-67000I-2000J0D01*
G01*
X48200D02*
G03*
X48200Y-67000I-2000J0D01*
G01*
X40500Y-101800D02*
G03*
X40500Y-101800I-2000J0D01*
G01*
X36100Y-106400D02*
G03*
X36100Y-106400I-2000J0D01*
G01*
X28700Y-79200D02*
G03*
X28700Y-79200I-2000J0D01*
G01*
X28800Y-58700D02*
G03*
X28800Y-58700I-2000J0D01*
G01*
X28700Y-83100D02*
G03*
X28700Y-83100I-2000J0D01*
G01*
X75800Y-87000D02*
G03*
X75800Y-87000I-2000J0D01*
G01*
X12757Y-99252D02*
G03*
X12757Y-99252I-2000J0D01*
G01*
Y-104790D02*
G03*
X12757Y-104790I-2000J0D01*
G01*
X13700Y-110900D02*
G03*
X13700Y-110900I-2000J0D01*
G01*
X14900Y-117500D02*
G03*
X14900Y-117500I-2000J0D01*
G01*
X15200Y-120800D02*
G03*
X15200Y-120800I-2000J0D01*
G01*
X16000Y-124200D02*
G03*
X16000Y-124200I-2000J0D01*
G01*
X14000Y-102800D02*
G03*
X14000Y-102800I-2000J0D01*
G01*
X15000Y-105800D02*
G03*
X15000Y-105800I-2000J0D01*
G01*
X16375Y-102858D02*
G03*
X16375Y-102858I-2000J0D01*
G01*
X17300Y-106300D02*
G03*
X17300Y-106300I-2000J0D01*
G01*
X11500Y-95950D02*
G03*
X11500Y-95950I-2000J0D01*
G01*
X15000Y-98100D02*
G03*
X15000Y-98100I-2000J0D01*
G01*
X13800Y-95500D02*
G03*
X13800Y-95500I-2000J0D01*
G01*
X12700Y-116300D02*
G03*
X12700Y-116300I-2000J0D01*
G01*
X13100Y-119600D02*
G03*
X13100Y-119600I-2000J0D01*
G01*
X17300Y-118200D02*
G03*
X17300Y-118200I-2000J0D01*
G01*
X56200Y-106200D02*
G03*
X56200Y-106200I-2000J0D01*
G01*
X14900Y-73100D02*
G03*
X14900Y-73100I-2000J0D01*
G01*
X20329Y-74446D02*
G03*
X20329Y-74446I-2000J0D01*
G01*
X12600Y-73900D02*
G03*
X12600Y-73900I-2000J0D01*
G01*
X28400Y-91200D02*
G03*
X28400Y-91200I-2000J0D01*
G01*
X28200Y-98600D02*
G03*
X28200Y-98600I-2000J0D01*
G01*
X40200Y-114500D02*
G03*
X40200Y-114500I-2000J0D01*
G01*
X72100Y-109700D02*
G03*
X72100Y-109700I-2000J0D01*
G01*
X79800Y-102300D02*
G03*
X79800Y-102300I-2000J0D01*
G01*
X72192Y-98800D02*
G03*
X72192Y-98800I-2000J0D01*
G01*
X67737Y-109716D02*
G03*
X67737Y-109716I-2000J0D01*
G01*
X17100Y-71100D02*
G03*
X17100Y-71100I-2000J0D01*
G01*
X16100Y-78900D02*
G03*
X16100Y-78900I-2000J0D01*
G01*
X15200Y-81400D02*
G03*
X15200Y-81400I-2000J0D01*
G01*
X16200Y-84900D02*
G03*
X16200Y-84900I-2000J0D01*
G01*
X13900Y-85200D02*
G03*
X13900Y-85200I-2000J0D01*
G01*
X12800Y-71500D02*
G03*
X12800Y-71500I-2000J0D01*
G01*
X12600Y-67400D02*
G03*
X12600Y-67400I-2000J0D01*
G01*
X14000Y-69400D02*
G03*
X14000Y-69400I-2000J0D01*
G01*
X16200Y-66600D02*
G03*
X16200Y-66600I-2000J0D01*
G01*
X76000Y-82700D02*
G03*
X76000Y-82700I-2000J0D01*
G01*
X67592Y-86945D02*
G03*
X67592Y-86945I-2000J0D01*
G01*
X75730Y-78100D02*
G03*
X75730Y-78100I-2000J0D01*
G01*
X63700Y-90300D02*
G03*
X63700Y-90300I-2000J0D01*
G01*
X75900Y-90400D02*
G03*
X75900Y-90400I-2000J0D01*
G01*
X79500Y-90700D02*
G03*
X79500Y-90700I-2000J0D01*
G01*
Y-94400D02*
G03*
X79500Y-94400I-2000J0D01*
G01*
X13900Y-88700D02*
G03*
X13900Y-88700I-2000J0D01*
G01*
X13100Y-79000D02*
G03*
X13100Y-79000I-2000J0D01*
G01*
X16700Y-90600D02*
G03*
X16700Y-90600I-2000J0D01*
G01*
X4200Y-116100D02*
G03*
X4200Y-116100I-2000J0D01*
G01*
X24700Y-133700D02*
G03*
X24700Y-133700I-2000J0D01*
G01*
X21500Y-139000D02*
G03*
X21500Y-139000I-2000J0D01*
G01*
X4100Y-112700D02*
G03*
X4100Y-112700I-2000J0D01*
G01*
X36100Y-118400D02*
G03*
X36100Y-118400I-2000J0D01*
G01*
X39700Y-118200D02*
G03*
X39700Y-118200I-2000J0D01*
G01*
X36200Y-122000D02*
G03*
X36200Y-122000I-2000J0D01*
G01*
X36400Y-129900D02*
G03*
X36400Y-129900I-2000J0D01*
G01*
X44500Y-114483D02*
G03*
X44500Y-114483I-2000J0D01*
G01*
X75900Y-110200D02*
G03*
X75900Y-110200I-2000J0D01*
G01*
X106500Y-114500D02*
G03*
X106500Y-114500I-2000J0D01*
G01*
X75700Y-102200D02*
G03*
X75700Y-102200I-2000J0D01*
G01*
X63700Y-110100D02*
G03*
X63700Y-110100I-2000J0D01*
G01*
X68000Y-102500D02*
G03*
X68000Y-102500I-2000J0D01*
G01*
X95000Y-102600D02*
G03*
X95000Y-102600I-2000J0D01*
G01*
X95100Y-106000D02*
G03*
X95100Y-106000I-2000J0D01*
G01*
X87600Y-106200D02*
G03*
X87600Y-106200I-2000J0D01*
G01*
X107000Y-116900D02*
G03*
X107000Y-116900I-2000J0D01*
G01*
X105916Y-80101D02*
G03*
X105916Y-80101I-2000J0D01*
G01*
X105900Y-76800D02*
G03*
X105900Y-76800I-2000J0D01*
G01*
X106100Y-109600D02*
G03*
X106100Y-109600I-2000J0D01*
G01*
X105100Y-106300D02*
G03*
X105100Y-106300I-2000J0D01*
G01*
X107500Y-103900D02*
G03*
X107500Y-103900I-2000J0D01*
G01*
X87277Y-98191D02*
G03*
X87277Y-98191I-2000J0D01*
G01*
X91214D02*
G03*
X91214Y-98191I-2000J0D01*
G01*
X79900Y-181400D02*
G03*
X79900Y-181400I-2000J0D01*
G01*
X94600Y-98100D02*
G03*
X94600Y-98100I-2000J0D01*
G01*
X79900Y-179100D02*
G03*
X79900Y-179100I-2000J0D01*
G01*
X71300Y-184700D02*
G03*
X71300Y-184700I-2000J0D01*
G01*
X39100Y-179400D02*
G03*
X39100Y-179400I-2000J0D01*
G01*
Y-177000D02*
G03*
X39100Y-177000I-2000J0D01*
G01*
X71300Y-182400D02*
G03*
X71300Y-182400I-2000J0D01*
G01*
X55500Y-182600D02*
G03*
X55500Y-182600I-2000J0D01*
G01*
X37800Y-175000D02*
G03*
X37800Y-175000I-2000J0D01*
G01*
X32700Y-173300D02*
G03*
X32700Y-173300I-2000J0D01*
G01*
X67809Y-99116D02*
G03*
X67809Y-99116I-2000J0D01*
G01*
X64257Y-94150D02*
G03*
X64257Y-94150I-2000J0D01*
G01*
X67600Y-94300D02*
G03*
X67600Y-94300I-2000J0D01*
G01*
X79600Y-98700D02*
G03*
X79600Y-98700I-2000J0D01*
G01*
X106300Y-58200D02*
G03*
X106300Y-58200I-2000J0D01*
G01*
X108600Y-58300D02*
G03*
X108600Y-58300I-2000J0D01*
G01*
X112800Y-61200D02*
G03*
X112800Y-61200I-2000J0D01*
G01*
X115400D02*
G03*
X115400Y-61200I-2000J0D01*
G01*
X109300Y-50700D02*
G03*
X109300Y-50700I-2000J0D01*
G01*
X111800Y-51700D02*
G03*
X111800Y-51700I-2000J0D01*
G01*
X110900Y-54300D02*
G03*
X110900Y-54300I-2000J0D01*
G01*
X53300Y-3900D02*
G03*
X53300Y-3900I-2000J0D01*
G01*
X55900Y-2600D02*
G03*
X55900Y-2600I-2000J0D01*
G01*
X66200Y-5900D02*
G03*
X66200Y-5900I-2000J0D01*
G01*
X66900Y-3600D02*
G03*
X66900Y-3600I-2000J0D01*
G01*
X70700Y-4400D02*
G03*
X70700Y-4400I-2000J0D01*
G01*
X55600Y-5400D02*
G03*
X55600Y-5400I-2000J0D01*
G01*
X50500Y-4200D02*
G03*
X50500Y-4200I-2000J0D01*
G01*
X46400Y-16800D02*
G03*
X46400Y-16800I-2000J0D01*
G01*
X53200Y-17700D02*
G03*
X53200Y-17700I-2000J0D01*
G01*
X87500Y-55300D02*
G03*
X87500Y-55300I-2000J0D01*
G01*
X90800Y-55167D02*
G03*
X90800Y-55167I-2000J0D01*
G01*
X97100Y-44500D02*
G03*
X97100Y-44500I-2000J0D01*
G01*
X91214Y-94254D02*
G03*
X91214Y-94254I-2000J0D01*
G01*
X48200Y-114200D02*
G03*
X48200Y-114200I-2000J0D01*
G01*
X45000Y-125992D02*
G03*
X45000Y-125992I-2000J0D01*
G01*
X29600Y-156500D02*
G03*
X29600Y-156500I-2000J0D01*
G01*
X80900Y-166900D02*
G03*
X80900Y-166900I-2000J0D01*
G01*
X64600Y-182200D02*
G03*
X64600Y-182200I-2000J0D01*
G01*
X15400Y-93300D02*
G03*
X15400Y-93300I-2000J0D01*
G01*
X16400Y-62050D02*
G03*
X16400Y-62050I-2000J0D01*
G01*
X15300Y-58600D02*
G03*
X15300Y-58600I-2000J0D01*
G01*
X16000Y-51300D02*
G03*
X16000Y-51300I-2000J0D01*
G01*
X32300Y-18400D02*
G03*
X32300Y-18400I-2000J0D01*
G01*
X18400Y-44700D02*
G03*
X18400Y-44700I-2000J0D01*
G01*
X16700Y-43000D02*
G03*
X16700Y-43000I-2000J0D01*
G01*
X15200Y-38100D02*
G03*
X15200Y-38100I-2000J0D01*
G01*
X68000Y-114300D02*
G03*
X68000Y-114300I-2000J0D01*
G01*
X63900Y-101900D02*
G03*
X63900Y-101900I-2000J0D01*
G01*
X28500Y-126800D02*
G03*
X28500Y-126800I-2000J0D01*
G01*
X56345Y-86945D02*
G03*
X56345Y-86945I-2000J0D01*
G01*
X63800Y-74800D02*
G03*
X63800Y-74800I-2000J0D01*
G01*
X63900Y-78100D02*
G03*
X63900Y-78100I-2000J0D01*
G01*
X48200Y-55100D02*
G03*
X48200Y-55100I-2000J0D01*
G01*
X83486Y-54324D02*
G03*
X83486Y-54324I-2000J0D01*
G01*
X20900Y-24900D02*
G03*
X20900Y-24900I-2000J0D01*
G01*
X24800Y-13400D02*
G03*
X24800Y-13400I-2000J0D01*
G01*
X29600Y-38100D02*
G03*
X29600Y-38100I-2000J0D01*
G01*
X91300Y-50400D02*
G03*
X91300Y-50400I-2000J0D01*
G01*
X103300Y-79300D02*
G03*
X103300Y-79300I-2000J0D01*
G01*
X67900Y-118000D02*
G03*
X67900Y-118000I-2000J0D01*
G01*
X59700Y-119100D02*
G03*
X59700Y-119100I-2000J0D01*
G01*
X48300Y-118200D02*
G03*
X48300Y-118200I-2000J0D01*
G01*
X41022Y-129970D02*
G03*
X41022Y-129970I-2000J0D01*
G01*
X36100Y-125900D02*
G03*
X36100Y-125900I-2000J0D01*
G01*
X79933Y-158700D02*
G03*
X79933Y-158700I-2000J0D01*
G01*
X74848Y-170438D02*
G03*
X74848Y-170438I-2000J0D01*
G01*
X83400Y-79100D02*
G03*
X83400Y-79100I-2000J0D01*
G01*
X87277Y-83008D02*
G03*
X87277Y-83008I-2000J0D01*
G01*
X95400Y-47900D02*
G03*
X95400Y-47900I-2000J0D01*
G01*
X98200Y-39000D02*
G03*
X98200Y-39000I-2000J0D01*
G01*
X98900Y-35700D02*
G03*
X98900Y-35700I-2000J0D01*
G01*
X96500Y-30400D02*
G03*
X96500Y-30400I-2000J0D01*
G01*
X97300Y-27000D02*
G03*
X97300Y-27000I-2000J0D01*
G01*
X94500Y-40200D02*
G03*
X94500Y-40200I-2000J0D01*
G01*
X71300Y-141300D02*
G03*
X71300Y-141300I-2000J0D01*
G01*
X77300Y-5900D02*
G03*
X77300Y-5900I-2000J0D01*
G01*
X27700Y-188000D02*
G03*
X27700Y-188000I-2000J0D01*
G01*
X52500Y-94000D02*
G03*
X52500Y-94000I-2000J0D01*
G01*
X29100Y-162100D02*
G03*
X29100Y-162100I-2000J0D01*
G01*
X26600Y-164300D02*
G03*
X26600Y-164300I-2000J0D01*
G01*
X29200Y-167700D02*
G03*
X29200Y-167700I-2000J0D01*
G01*
X22700Y-157200D02*
G03*
X22700Y-157200I-2000J0D01*
G01*
X21200Y-153900D02*
G03*
X21200Y-153900I-2000J0D01*
G01*
X28600Y-171000D02*
G03*
X28600Y-171000I-2000J0D01*
G01*
X27400Y-178672D02*
G03*
X27400Y-178672I-2000J0D01*
G01*
X25100Y-178900D02*
G03*
X25100Y-178900I-2000J0D01*
G01*
X22800Y-180100D02*
G03*
X22800Y-180100I-2000J0D01*
G01*
X38628Y-162772D02*
G03*
X38628Y-162772I-2000J0D01*
G01*
X11600Y-62700D02*
G03*
X11600Y-62700I-2000J0D01*
G01*
X76100Y-98600D02*
G03*
X76100Y-98600I-2000J0D01*
G01*
X56400Y-97300D02*
G03*
X56400Y-97300I-2000J0D01*
G01*
X44800Y-98000D02*
G03*
X44800Y-98000I-2000J0D01*
G01*
X71600Y-94200D02*
G03*
X71600Y-94200I-2000J0D01*
G01*
X48472Y-106065D02*
G03*
X48472Y-106065I-2000J0D01*
G01*
X49700Y-170300D02*
G03*
X49700Y-170300I-2000J0D01*
G01*
X87700Y-176800D02*
G03*
X87700Y-176800I-2000J0D01*
G01*
X87200Y-173400D02*
G03*
X87200Y-173400I-2000J0D01*
G01*
X90100Y-167300D02*
G03*
X90100Y-167300I-2000J0D01*
G01*
X115500Y-24600D02*
G03*
X115500Y-24600I-2000J0D01*
G01*
X45327Y-5527D02*
G03*
X45327Y-5527I-2000J0D01*
G01*
X98800Y-188400D02*
G03*
X98800Y-188400I-2000J0D01*
G01*
X115300Y-171900D02*
G03*
X115300Y-171900I-2000J0D01*
G01*
X52000Y-175000D02*
G03*
X52000Y-175000I-2000J0D01*
G01*
X82700Y-5100D02*
G03*
X82700Y-5100I-2000J0D01*
G01*
X74000Y-4300D02*
G03*
X74000Y-4300I-2000J0D01*
G01*
X46800Y-13100D02*
G03*
X46800Y-13100I-2000J0D01*
G01*
X87243Y-64064D02*
G03*
X87243Y-64064I-2000J0D01*
G01*
X71200Y-36600D02*
G03*
X71200Y-36600I-2000J0D01*
G01*
X118100Y-24800D02*
G03*
X118100Y-24800I-2000J0D01*
G01*
X49000Y-140300D02*
G03*
X49000Y-140300I-2000J0D01*
G01*
X46500Y-148300D02*
G03*
X46500Y-148300I-2000J0D01*
G01*
X47200Y-143700D02*
G03*
X47200Y-143700I-2000J0D01*
G01*
X53630Y-141663D02*
G03*
X53630Y-141663I-2000J0D01*
G01*
X75400Y-94400D02*
G03*
X75400Y-94400I-2000J0D01*
G01*
X102900Y-75100D02*
G03*
X102900Y-75100I-2000J0D01*
G01*
X13900Y-185800D02*
G03*
X13900Y-185800I-2000J0D01*
G01*
X22600Y-187400D02*
G03*
X22600Y-187400I-2000J0D01*
G01*
X92600Y-20868D02*
G03*
X92600Y-20868I-2000J0D01*
G01*
X57925Y-5425D02*
G03*
X57925Y-5425I-2000J0D01*
G01*
X112300Y-24700D02*
G03*
X112300Y-24700I-2000J0D01*
G01*
X75700Y-55100D02*
G03*
X75700Y-55100I-2000J0D01*
G01*
X56236Y-13226D02*
G03*
X56236Y-13226I-2000J0D01*
G01*
X62700Y-6200D02*
G03*
X62700Y-6200I-2000J0D01*
G01*
X60800Y-46600D02*
G03*
X60800Y-46600I-2000J0D01*
G01*
X60000Y-62396D02*
G03*
X60000Y-62396I-2000J0D01*
G01*
X54776Y-45924D02*
G03*
X54776Y-45924I-2000J0D01*
G01*
X59933Y-55100D02*
G03*
X59933Y-55100I-2000J0D01*
G01*
X65800Y-32100D02*
G03*
X65800Y-32100I-2000J0D01*
G01*
X59400Y-28874D02*
G03*
X59400Y-28874I-2000J0D01*
G01*
X57600Y-17300D02*
G03*
X57600Y-17300I-2000J0D01*
G01*
X72212Y-32124D02*
G03*
X72212Y-32124I-2000J0D01*
G01*
X72900Y-23500D02*
G03*
X72900Y-23500I-2000J0D01*
G01*
X67900Y-71500D02*
G03*
X67900Y-71500I-2000J0D01*
G01*
X67700Y-47400D02*
G03*
X67700Y-47400I-2000J0D01*
G01*
X78400Y-13200D02*
G03*
X78400Y-13200I-2000J0D01*
G01*
X72000Y-13210D02*
G03*
X72000Y-13210I-2000J0D01*
G01*
X53275Y-28900D02*
G03*
X53275Y-28900I-2000J0D01*
G01*
X52034Y-55266D02*
G03*
X52034Y-55266I-2000J0D01*
G01*
X28600Y-55200D02*
G03*
X28600Y-55200I-2000J0D01*
G01*
Y-51200D02*
G03*
X28600Y-51200I-2000J0D01*
G01*
X52100Y-59000D02*
G03*
X52100Y-59000I-2000J0D01*
G01*
X43900Y-17800D02*
G03*
X43900Y-17800I-2000J0D01*
G01*
X56100Y-51300D02*
G03*
X56100Y-51300I-2000J0D01*
G01*
X58300Y-45300D02*
G03*
X58300Y-45300I-2000J0D01*
G01*
X56400Y-159000D02*
G03*
X56400Y-159000I-2000J0D01*
G01*
X59214Y-167174D02*
G03*
X59214Y-167174I-2000J0D01*
G01*
X62582Y-148495D02*
G03*
X62582Y-148495I-2000J0D01*
G01*
X74200Y-155200D02*
G03*
X74200Y-155200I-2000J0D01*
G01*
X89700Y-138500D02*
G03*
X89700Y-138500I-2000J0D01*
G01*
X92400Y-137600D02*
G03*
X92400Y-137600I-2000J0D01*
G01*
X85700Y-138300D02*
G03*
X85700Y-138300I-2000J0D01*
G01*
X78172Y-148336D02*
G03*
X78172Y-148336I-2000J0D01*
G01*
X74900Y-151400D02*
G03*
X74900Y-151400I-2000J0D01*
G01*
X84300Y-161800D02*
G03*
X84300Y-161800I-2000J0D01*
G01*
X86200Y-167400D02*
G03*
X86200Y-167400I-2000J0D01*
G01*
X86800Y-153000D02*
G03*
X86800Y-153000I-2000J0D01*
G01*
X98900Y-141700D02*
G03*
X98900Y-141700I-2000J0D01*
G01*
X74800Y-148300D02*
G03*
X74800Y-148300I-2000J0D01*
G01*
X76200Y-126100D02*
G03*
X76200Y-126100I-2000J0D01*
G01*
X80000Y-121800D02*
G03*
X80000Y-121800I-2000J0D01*
G01*
X66300Y-136300D02*
G03*
X66300Y-136300I-2000J0D01*
G01*
X75400Y-129900D02*
G03*
X75400Y-129900I-2000J0D01*
G01*
X81200Y-170300D02*
G03*
X81200Y-170300I-2000J0D01*
G01*
X82300Y-157100D02*
G03*
X82300Y-157100I-2000J0D01*
G01*
X74900Y-167122D02*
G03*
X74900Y-167122I-2000J0D01*
G01*
X62100Y-155500D02*
G03*
X62100Y-155500I-2000J0D01*
G01*
X62042Y-151747D02*
G03*
X62042Y-151747I-2000J0D01*
G01*
X71900Y-126000D02*
G03*
X71900Y-126000I-2000J0D01*
G01*
X66600Y-125700D02*
G03*
X66600Y-125700I-2000J0D01*
G01*
X79500Y-126100D02*
G03*
X79500Y-126100I-2000J0D01*
G01*
X72500Y-122100D02*
G03*
X72500Y-122100I-2000J0D01*
G01*
X75700Y-122500D02*
G03*
X75700Y-122500I-2000J0D01*
G01*
X67900Y-122000D02*
G03*
X67900Y-122000I-2000J0D01*
G01*
X27400Y-134600D02*
G03*
X27400Y-134600I-2000J0D01*
G01*
X25200Y-136400D02*
G03*
X25200Y-136400I-2000J0D01*
G01*
X37564Y-156398D02*
G03*
X37564Y-156398I-2000J0D01*
G01*
X32400Y-130000D02*
G03*
X32400Y-130000I-2000J0D01*
G01*
X31300Y-134700D02*
G03*
X31300Y-134700I-2000J0D01*
G01*
X33600Y-156500D02*
G03*
X33600Y-156500I-2000J0D01*
G01*
X34400Y-138800D02*
G03*
X34400Y-138800I-2000J0D01*
G01*
X40450Y-151292D02*
G03*
X40450Y-151292I-2000J0D01*
G01*
X39700Y-126100D02*
G03*
X39700Y-126100I-2000J0D01*
G01*
X49700Y-151300D02*
G03*
X49700Y-151300I-2000J0D01*
G01*
X54000Y-162800D02*
G03*
X54000Y-162800I-2000J0D01*
G01*
X52500Y-134500D02*
G03*
X52500Y-134500I-2000J0D01*
G01*
X52050Y-126100D02*
G03*
X52050Y-126100I-2000J0D01*
G01*
X51300Y-162800D02*
G03*
X51300Y-162800I-2000J0D01*
G01*
X47500Y-134500D02*
G03*
X47500Y-134500I-2000J0D01*
G01*
X46900Y-137200D02*
G03*
X46900Y-137200I-2000J0D01*
G01*
X55700Y-167400D02*
G03*
X55700Y-167400I-2000J0D01*
G01*
X51600Y-155700D02*
G03*
X51600Y-155700I-2000J0D01*
G01*
X58100Y-155800D02*
G03*
X58100Y-155800I-2000J0D01*
G01*
X55300Y-137600D02*
G03*
X55300Y-137600I-2000J0D01*
G01*
X49200Y-125700D02*
G03*
X49200Y-125700I-2000J0D01*
G01*
X55836Y-151426D02*
G03*
X55836Y-151426I-2000J0D01*
G01*
X37121Y-151244D02*
G03*
X37121Y-151244I-2000J0D01*
G01*
X42100Y-157500D02*
G03*
X42100Y-157500I-2000J0D01*
G01*
X44800Y-156000D02*
G03*
X44800Y-156000I-2000J0D01*
G01*
X56100Y-126000D02*
G03*
X56100Y-126000I-2000J0D01*
G01*
X57300Y-162800D02*
G03*
X57300Y-162800I-2000J0D01*
G01*
X63900Y-114300D02*
G03*
X63900Y-114300I-2000J0D01*
G01*
X36154Y-135400D02*
G03*
X36154Y-135400I-2000J0D01*
G01*
X28500Y-129900D02*
G03*
X28500Y-129900I-2000J0D01*
G01*
X40400Y-122100D02*
G03*
X40400Y-122100I-2000J0D01*
G01*
X45100Y-162800D02*
G03*
X45100Y-162800I-2000J0D01*
G01*
X52200Y-122225D02*
G03*
X52200Y-122225I-2000J0D01*
G01*
X48300Y-129967D02*
G03*
X48300Y-129967I-2000J0D01*
G01*
X47800Y-162800D02*
G03*
X47800Y-162800I-2000J0D01*
G01*
X56100Y-134400D02*
G03*
X56100Y-134400I-2000J0D01*
G01*
Y-130000D02*
G03*
X56100Y-130000I-2000J0D01*
G01*
X60004Y-122100D02*
G03*
X60004Y-122100I-2000J0D01*
G01*
X37000Y-167227D02*
G03*
X37000Y-167227I-2000J0D01*
G01*
X43400Y-167200D02*
G03*
X43400Y-167200I-2000J0D01*
G01*
X52800D02*
G03*
X52800Y-167200I-2000J0D01*
G01*
X35478Y-162678D02*
G03*
X35478Y-162678I-2000J0D01*
G01*
X41777Y-162723D02*
G03*
X41777Y-162723I-2000J0D01*
G01*
X63655Y-121814D02*
G03*
X63655Y-121814I-2000J0D01*
G01*
X87277Y-79071D02*
G03*
X87277Y-79071I-2000J0D01*
G01*
X77400Y-155700D02*
G03*
X77400Y-155700I-2000J0D01*
G01*
X71672Y-167200D02*
G03*
X71672Y-167200I-2000J0D01*
G01*
X63600Y-137900D02*
G03*
X63600Y-137900I-2000J0D01*
G01*
X63700Y-134200D02*
G03*
X63700Y-134200I-2000J0D01*
G01*
X66900Y-159600D02*
G03*
X66900Y-159600I-2000J0D01*
G01*
X60675Y-162825D02*
G03*
X60675Y-162825I-2000J0D01*
G01*
X67200Y-162900D02*
G03*
X67200Y-162900I-2000J0D01*
G01*
X68822Y-166787D02*
G03*
X68822Y-166787I-2000J0D01*
G01*
X63900Y-162700D02*
G03*
X63900Y-162700I-2000J0D01*
G01*
X62700Y-144300D02*
G03*
X62700Y-144300I-2000J0D01*
G01*
X74400Y-162300D02*
G03*
X74400Y-162300I-2000J0D01*
G01*
X68700Y-13400D02*
G03*
X68700Y-13400I-2000J0D01*
G01*
X59614Y-13226D02*
G03*
X59614Y-13226I-2000J0D01*
G01*
X53000Y-13100D02*
G03*
X53000Y-13100I-2000J0D01*
G01*
X48200Y-51200D02*
G03*
X48200Y-51200I-2000J0D01*
G01*
X50100Y-44800D02*
G03*
X50100Y-44800I-2000J0D01*
G01*
X46900Y-32200D02*
G03*
X46900Y-32200I-2000J0D01*
G01*
X50025Y-29000D02*
G03*
X50025Y-29000I-2000J0D01*
G01*
X47700Y-36500D02*
G03*
X47700Y-36500I-2000J0D01*
G01*
X45400Y-46600D02*
G03*
X45400Y-46600I-2000J0D01*
G01*
X49900Y-17100D02*
G03*
X49900Y-17100I-2000J0D01*
G01*
X38400Y-46100D02*
G03*
X38400Y-46100I-2000J0D01*
G01*
X48100Y-59400D02*
G03*
X48100Y-59400I-2000J0D01*
G01*
X40500Y-28986D02*
G03*
X40500Y-28986I-2000J0D01*
G01*
X43800Y-28900D02*
G03*
X43800Y-28900I-2000J0D01*
G01*
X40700Y-13200D02*
G03*
X40700Y-13200I-2000J0D01*
G01*
X36400Y-55189D02*
G03*
X36400Y-55189I-2000J0D01*
G01*
X32600Y-37700D02*
G03*
X32600Y-37700I-2000J0D01*
G01*
X33800Y-46400D02*
G03*
X33800Y-46400I-2000J0D01*
G01*
X27200Y-44500D02*
G03*
X27200Y-44500I-2000J0D01*
G01*
X29000Y-46700D02*
G03*
X29000Y-46700I-2000J0D01*
G01*
X29500Y-26100D02*
G03*
X29500Y-26100I-2000J0D01*
G01*
X39600Y-17500D02*
G03*
X39600Y-17500I-2000J0D01*
G01*
X35927Y-18499D02*
G03*
X35927Y-18499I-2000J0D01*
G01*
X33100Y-20600D02*
G03*
X33100Y-20600I-2000J0D01*
G01*
X73021Y-51546D02*
G03*
X73021Y-51546I-2000J0D01*
G01*
X79800Y-59200D02*
G03*
X79800Y-59200I-2000J0D01*
G01*
X60100Y-59000D02*
G03*
X60100Y-59000I-2000J0D01*
G01*
X56100Y-59100D02*
G03*
X56100Y-59100I-2000J0D01*
G01*
X56000Y-55200D02*
G03*
X56000Y-55200I-2000J0D01*
G01*
X51500Y-37000D02*
G03*
X51500Y-37000I-2000J0D01*
G01*
X78500Y-10179D02*
G03*
X78500Y-10179I-2000J0D01*
G01*
X76700Y-22400D02*
G03*
X76700Y-22400I-2000J0D01*
G01*
X75293Y-13295D02*
G03*
X75293Y-13295I-2000J0D01*
G01*
X71800Y-43300D02*
G03*
X71800Y-43300I-2000J0D01*
G01*
X74500Y-46200D02*
G03*
X74500Y-46200I-2000J0D01*
G01*
X81700Y-37900D02*
G03*
X81700Y-37900I-2000J0D01*
G01*
X84600Y-25100D02*
G03*
X84600Y-25100I-2000J0D01*
G01*
X80900Y-22700D02*
G03*
X80900Y-22700I-2000J0D01*
G01*
X77900Y-24900D02*
G03*
X77900Y-24900I-2000J0D01*
G01*
X71872Y-67623D02*
G03*
X71872Y-67623I-2000J0D01*
G01*
X64000Y-71200D02*
G03*
X64000Y-71200I-2000J0D01*
G01*
X81573Y-13200D02*
G03*
X81573Y-13200I-2000J0D01*
G01*
X88100Y-17800D02*
G03*
X88100Y-17800I-2000J0D01*
G01*
X86800Y-21700D02*
G03*
X86800Y-21700I-2000J0D01*
G01*
X89300Y-13000D02*
G03*
X89300Y-13000I-2000J0D01*
G01*
X91000Y-26500D02*
G03*
X91000Y-26500I-2000J0D01*
G01*
X56100Y-67015D02*
G03*
X56100Y-67015I-2000J0D01*
G01*
X80800Y-41300D02*
G03*
X80800Y-41300I-2000J0D01*
G01*
X89700Y-44000D02*
G03*
X89700Y-44000I-2000J0D01*
G01*
X87700Y-45800D02*
G03*
X87700Y-45800I-2000J0D01*
G01*
X87600Y-41900D02*
G03*
X87600Y-41900I-2000J0D01*
G01*
X86100Y-32100D02*
G03*
X86100Y-32100I-2000J0D01*
G01*
X109800Y-30500D02*
G03*
X109800Y-30500I-2000J0D01*
G01*
X69000Y-29000D02*
G03*
X69000Y-29000I-2000J0D01*
G01*
X64000Y-59167D02*
G03*
X64000Y-59167I-2000J0D01*
G01*
X63900Y-55100D02*
G03*
X63900Y-55100I-2000J0D01*
G01*
X64200Y-17500D02*
G03*
X64200Y-17500I-2000J0D01*
G01*
X61000Y-17400D02*
G03*
X61000Y-17400I-2000J0D01*
G01*
X57525Y-174425D02*
G03*
X57525Y-174425I-2000J0D01*
G01*
X4000Y-139900D02*
G03*
X4000Y-139900I-2000J0D01*
G01*
X30900Y-141433D02*
G03*
X30900Y-141433I-2000J0D01*
G01*
X12800Y-60400D02*
G03*
X12800Y-60400I-2000J0D01*
G01*
X114700Y-36100D02*
G03*
X114700Y-36100I-2000J0D01*
G01*
X82800Y-175100D02*
G03*
X82800Y-175100I-2000J0D01*
G01*
X68400Y-148500D02*
G03*
X68400Y-148500I-2000J0D01*
G01*
X77700Y-162100D02*
G03*
X77700Y-162100I-2000J0D01*
G01*
X4700Y-43400D02*
G03*
X4700Y-43400I-2000J0D01*
G01*
X7000Y-25600D02*
G03*
X7000Y-25600I-2000J0D01*
G01*
X9500Y-25200D02*
G03*
X9500Y-25200I-2000J0D01*
G01*
X31100Y-4000D02*
G03*
X31100Y-4000I-2000J0D01*
G01*
X111200Y-40900D02*
G03*
X111200Y-40900I-2000J0D01*
G01*
X94700Y-3100D02*
G03*
X94700Y-3100I-2000J0D01*
G01*
X8800Y-37300D02*
G03*
X8800Y-37300I-2000J0D01*
G01*
X13000Y-56200D02*
G03*
X13000Y-56200I-2000J0D01*
G01*
X39300Y-5600D02*
G03*
X39300Y-5600I-2000J0D01*
G01*
X34500Y-5700D02*
G03*
X34500Y-5700I-2000J0D01*
G01*
X92900Y-15800D02*
G03*
X92900Y-15800I-2000J0D01*
G01*
X4400Y-86800D02*
G03*
X4400Y-86800I-2000J0D01*
G01*
X4000Y-142200D02*
G03*
X4000Y-142200I-2000J0D01*
G01*
X9000Y-181400D02*
G03*
X9000Y-181400I-2000J0D01*
G01*
X17300Y-170000D02*
G03*
X17300Y-170000I-2000J0D01*
G01*
X11500Y-52800D02*
G03*
X11500Y-52800I-2000J0D01*
G01*
X10847Y-55100D02*
G03*
X10847Y-55100I-2000J0D01*
G01*
X21100Y-50700D02*
G03*
X21100Y-50700I-2000J0D01*
G01*
X109900Y-28000D02*
G03*
X109900Y-28000I-2000J0D01*
G01*
X31400Y-30500D02*
G03*
X31400Y-30500I-2000J0D01*
G01*
X28800Y-30600D02*
G03*
X28800Y-30600I-2000J0D01*
G01*
X60000Y-125900D02*
G03*
X60000Y-125900I-2000J0D01*
G01*
X75077Y-145050D02*
G03*
X75077Y-145050I-2000J0D01*
G01*
X16200Y-188400D02*
G03*
X16200Y-188400I-2000J0D01*
G01*
X19300Y-187900D02*
G03*
X19300Y-187900I-2000J0D01*
G01*
X36700Y-188200D02*
G03*
X36700Y-188200I-2000J0D01*
G01*
X65600Y-170200D02*
G03*
X65600Y-170200I-2000J0D01*
G01*
X49500Y-175700D02*
G03*
X49500Y-175700I-2000J0D01*
G01*
X71900Y-175000D02*
G03*
X71900Y-175000I-2000J0D01*
G01*
X62300Y-170300D02*
G03*
X62300Y-170300I-2000J0D01*
G01*
X68000Y-175200D02*
G03*
X68000Y-175200I-2000J0D01*
G01*
X63824Y-174376D02*
G03*
X63824Y-174376I-2000J0D01*
G01*
X74200Y-180600D02*
G03*
X74200Y-180600I-2000J0D01*
G01*
X42800Y-174800D02*
G03*
X42800Y-174800I-2000J0D01*
G01*
X46400Y-170300D02*
G03*
X46400Y-170300I-2000J0D01*
G01*
X20400Y-144600D02*
G03*
X20400Y-144600I-2000J0D01*
G01*
X25600Y-185900D02*
G03*
X25600Y-185900I-2000J0D01*
G01*
X32300Y-167800D02*
G03*
X32300Y-167800I-2000J0D01*
G01*
X91500Y-82800D02*
G03*
X91500Y-82800I-2000J0D01*
G01*
X11700Y-40000D02*
G03*
X11700Y-40000I-2000J0D01*
G01*
X12900Y-64700D02*
G03*
X12900Y-64700I-2000J0D01*
G01*
X5200Y-179400D02*
G03*
X5200Y-179400I-2000J0D01*
G01*
X18400Y-180300D02*
G03*
X18400Y-180300I-2000J0D01*
G01*
X104200Y-67000D02*
G03*
X104200Y-67000I-2000J0D01*
G01*
X111100Y-80400D02*
G03*
X111100Y-80400I-2000J0D01*
G01*
X113153Y-81600D02*
G03*
X113153Y-81600I-2000J0D01*
G01*
X91750Y-86900D02*
G03*
X91750Y-86900I-2000J0D01*
G01*
X110700Y-110700D02*
G03*
X110700Y-110700I-2000J0D01*
G01*
X103200Y-113700D02*
G03*
X103200Y-113700I-2000J0D01*
G01*
X36700Y-63100D02*
G03*
X36700Y-63100I-2000J0D01*
G01*
X48000Y-63200D02*
G03*
X48000Y-63200I-2000J0D01*
G01*
X44600Y-63000D02*
G03*
X44600Y-63000I-2000J0D01*
G01*
X44535Y-71197D02*
G03*
X44535Y-71197I-2000J0D01*
G01*
X48300Y-98100D02*
G03*
X48300Y-98100I-2000J0D01*
G01*
X32400Y-98400D02*
G03*
X32400Y-98400I-2000J0D01*
G01*
X41100Y-70900D02*
G03*
X41100Y-70900I-2000J0D01*
G01*
X14546Y-77154D02*
G03*
X14546Y-77154I-2000J0D01*
G01*
X43900Y-73700D02*
G03*
X43900Y-73700I-2000J0D01*
G01*
X48472Y-75134D02*
G03*
X48472Y-75134I-2000J0D01*
G01*
X56345D02*
G03*
X56345Y-75134I-2000J0D01*
G01*
X52200Y-74900D02*
G03*
X52200Y-74900I-2000J0D01*
G01*
X48000Y-70300D02*
G03*
X48000Y-70300I-2000J0D01*
G01*
X16300Y-128600D02*
G03*
X16300Y-128600I-2000J0D01*
G01*
X16000Y-131900D02*
G03*
X16000Y-131900I-2000J0D01*
G01*
X32400Y-122200D02*
G03*
X32400Y-122200I-2000J0D01*
G01*
X28500Y-114400D02*
G03*
X28500Y-114400I-2000J0D01*
G01*
Y-106500D02*
G03*
X28500Y-106500I-2000J0D01*
G01*
X17400Y-94600D02*
G03*
X17400Y-94600I-2000J0D01*
G01*
X71800Y-87400D02*
G03*
X71800Y-87400I-2000J0D01*
G01*
X36300Y-86500D02*
G03*
X36300Y-86500I-2000J0D01*
G01*
X36400Y-90600D02*
G03*
X36400Y-90600I-2000J0D01*
G01*
X16368Y-29331D02*
G03*
X16368Y-29331I-2000J0D01*
G01*
X12432D02*
G03*
X12432Y-29331I-2000J0D01*
G01*
X16368Y-33268D02*
G03*
X16368Y-33268I-2000J0D01*
G01*
X12432D02*
G03*
X12432Y-33268I-2000J0D01*
G01*
X12468Y-164868D02*
G03*
X12468Y-164868I-2000J0D01*
G01*
Y-160932D02*
G03*
X12468Y-160932I-2000J0D01*
G01*
X8531Y-164868D02*
G03*
X8531Y-164868I-2000J0D01*
G01*
Y-160932D02*
G03*
X8531Y-160932I-2000J0D01*
G01*
X110100Y-76700D02*
G03*
X110100Y-76700I-2000J0D01*
G01*
X114000Y-73300D02*
G03*
X114000Y-73300I-2000J0D01*
G01*
X82850Y-86016D02*
G03*
X82850Y-86016I-2000J0D01*
G01*
X110500Y-116100D02*
G03*
X110500Y-116100I-2000J0D01*
G01*
X104900Y-159500D02*
G03*
X104900Y-159500I-2000J0D01*
G01*
X109783Y-159541D02*
G03*
X109783Y-159541I-2000J0D01*
G01*
X117300Y-180200D02*
G03*
X117300Y-180200I-2000J0D01*
G01*
X105982Y-184282D02*
G03*
X105982Y-184282I-2000J0D01*
G01*
X112800Y-157500D02*
G03*
X112800Y-157500I-2000J0D01*
G01*
X26000Y-3700D02*
G03*
X26000Y-3700I-2000J0D01*
G01*
X79900Y-3800D02*
G03*
X79900Y-3800I-2000J0D01*
G01*
X3900Y-56300D02*
G03*
X3900Y-56300I-2000J0D01*
G01*
Y-24000D02*
G03*
X3900Y-24000I-2000J0D01*
G01*
X6900Y-62200D02*
G03*
X6900Y-62200I-2000J0D01*
G01*
X7200Y-51000D02*
G03*
X7200Y-51000I-2000J0D01*
G01*
X51100Y-188200D02*
G03*
X51100Y-188200I-2000J0D01*
G01*
X112500Y-159900D02*
G03*
X112500Y-159900I-2000J0D01*
G01*
X94300Y-36700D02*
G03*
X94300Y-36700I-2000J0D01*
G01*
X114331Y-69169D02*
G03*
X114331Y-69169I-2000J0D01*
G01*
X7600Y-31500D02*
G03*
X7600Y-31500I-2000J0D01*
G01*
X4196Y-158100D02*
G03*
X4196Y-158100I-2000J0D01*
G01*
X109000Y-64600D02*
G03*
X109000Y-64600I-2000J0D01*
G01*
X7531Y-155168D02*
G03*
X7531Y-155168I-2000J0D01*
G01*
X7000Y-33968D02*
G03*
X7000Y-33968I-2000J0D01*
G01*
X6487Y-29316D02*
G03*
X6487Y-29316I-2000J0D01*
G01*
X3896Y-32245D02*
G03*
X3896Y-32245I-2000J0D01*
G01*
X104931Y-170069D02*
G03*
X104931Y-170069I-2000J0D01*
G01*
X109739Y-179014D02*
G03*
X109739Y-179014I-2000J0D01*
G01*
X108869Y-166131D02*
G03*
X108869Y-166131I-2000J0D01*
G01*
Y-170069D02*
G03*
X108869Y-170069I-2000J0D01*
G01*
X104931Y-166131D02*
G03*
X104931Y-166131I-2000J0D01*
G01*
X113900Y-180400D02*
G03*
X113900Y-180400I-2000J0D01*
G01*
X107800Y-187400D02*
G03*
X107800Y-187400I-2000J0D01*
G01*
X5200Y-155637D02*
G03*
X5200Y-155637I-2000J0D01*
G01*
X10563Y-154429D02*
G03*
X10563Y-154429I-2000J0D01*
G01*
X20308Y-148236D02*
G03*
X20308Y-148236I-2000J0D01*
G01*
Y-150598D02*
G03*
X20308Y-150598I-2000J0D01*
G01*
X59978Y-67000D02*
G03*
X59978Y-67000I-2000J0D01*
G01*
X117800Y-36200D02*
G03*
X117800Y-36200I-2000J0D01*
G01*
X52500Y-117400D02*
G03*
X52500Y-117400I-2000J0D01*
G01*
X52600Y-114000D02*
G03*
X52600Y-114000I-2000J0D01*
G01*
X36400Y-97900D02*
G03*
X36400Y-97900I-2000J0D01*
G01*
X16100Y-24900D02*
G03*
X16100Y-24900I-2000J0D01*
G01*
X17300Y-23100D02*
G03*
X17300Y-23100I-2000J0D01*
G01*
X46900Y-10100D02*
G03*
X46900Y-10100I-2000J0D01*
G01*
X43842Y-10100D02*
G03*
X43842Y-10100I-2000J0D01*
G01*
X50100Y-6500D02*
G03*
X50100Y-6500I-2000J0D01*
G01*
X27400Y-21900D02*
G03*
X27400Y-21900I-2000J0D01*
G01*
X104100Y-85100D02*
G03*
X104100Y-85100I-2000J0D01*
G01*
X103900Y-90400D02*
G03*
X103900Y-90400I-2000J0D01*
G01*
X106600Y-90900D02*
G03*
X106600Y-90900I-2000J0D01*
G01*
X112900Y-94900D02*
G03*
X112900Y-94900I-2000J0D01*
G01*
X114200Y-84000D02*
G03*
X114200Y-84000I-2000J0D01*
G01*
X110600Y-95700D02*
G03*
X110600Y-95700I-2000J0D01*
G01*
X110300Y-91100D02*
G03*
X110300Y-91100I-2000J0D01*
G01*
X105800Y-139600D02*
G03*
X105800Y-139600I-2000J0D01*
G01*
X71529Y-117877D02*
G03*
X71529Y-117877I-2000J0D01*
G01*
Y-102129D02*
G03*
X71529Y-102129I-2000J0D01*
G01*
X71700Y-114300D02*
G03*
X71700Y-114300I-2000J0D01*
G01*
X75800Y-106400D02*
G03*
X75800Y-106400I-2000J0D01*
G01*
X71836Y-106728D02*
G03*
X71836Y-106728I-2000J0D01*
G01*
X75850Y-117684D02*
G03*
X75850Y-117684I-2000J0D01*
G01*
X103400Y-139600D02*
G03*
X103400Y-139600I-2000J0D01*
G01*
X108200Y-129647D02*
G03*
X108200Y-129647I-2000J0D01*
G01*
X110100Y-127300D02*
G03*
X110100Y-127300I-2000J0D01*
G01*
X91300Y-118100D02*
G03*
X91300Y-118100I-2000J0D01*
G01*
X87300Y-121800D02*
G03*
X87300Y-121800I-2000J0D01*
G01*
X91600Y-121500D02*
G03*
X91600Y-121500I-2000J0D01*
G01*
X95043Y-113905D02*
G03*
X95043Y-113905I-2000J0D01*
G01*
X83100Y-102400D02*
G03*
X83100Y-102400I-2000J0D01*
G01*
X83340Y-106065D02*
G03*
X83340Y-106065I-2000J0D01*
G01*
X87000Y-110400D02*
G03*
X87000Y-110400I-2000J0D01*
G01*
X91214Y-102129D02*
G03*
X91214Y-102129I-2000J0D01*
G01*
X91200Y-130200D02*
G03*
X91200Y-130200I-2000J0D01*
G01*
X107800Y-127347D02*
G03*
X107800Y-127347I-2000J0D01*
G01*
X107100Y-123000D02*
G03*
X107100Y-123000I-2000J0D01*
G01*
X95100Y-122900D02*
G03*
X95100Y-122900I-2000J0D01*
G01*
X94800Y-118300D02*
G03*
X94800Y-118300I-2000J0D01*
G01*
X87500Y-129900D02*
G03*
X87500Y-129900I-2000J0D01*
G01*
X107200Y-119200D02*
G03*
X107200Y-119200I-2000J0D01*
G01*
X103700Y-117500D02*
G03*
X103700Y-117500I-2000J0D01*
G01*
X91600Y-125800D02*
G03*
X91600Y-125800I-2000J0D01*
G01*
X83500Y-126300D02*
G03*
X83500Y-126300I-2000J0D01*
G01*
X80100Y-129900D02*
G03*
X80100Y-129900I-2000J0D01*
G01*
X83340Y-121814D02*
G03*
X83340Y-121814I-2000J0D01*
G01*
X79500Y-117700D02*
G03*
X79500Y-117700I-2000J0D01*
G01*
X83300Y-117400D02*
G03*
X83300Y-117400I-2000J0D01*
G01*
X91400Y-110500D02*
G03*
X91400Y-110500I-2000J0D01*
G01*
X91700Y-113900D02*
G03*
X91700Y-113900I-2000J0D01*
G01*
X76300Y-114100D02*
G03*
X76300Y-114100I-2000J0D01*
G01*
X79490Y-107250D02*
G03*
X79490Y-107250I-2000J0D01*
G01*
X79500Y-110200D02*
G03*
X79500Y-110200I-2000J0D01*
G01*
X89271Y-114538D02*
G03*
X89271Y-114538I-2000J0D01*
G01*
X106950Y-72900D02*
G03*
X106950Y-72900I-2000J0D01*
G01*
X108000Y-69600D02*
G03*
X108000Y-69600I-2000J0D01*
G01*
X116300Y-91000D02*
G03*
X116300Y-91000I-2000J0D01*
G01*
X106900Y-96700D02*
G03*
X106900Y-96700I-2000J0D01*
G01*
X111600Y-98000D02*
G03*
X111600Y-98000I-2000J0D01*
G01*
X108900Y-88000D02*
G03*
X108900Y-88000I-2000J0D01*
G01*
X107200Y-86400D02*
G03*
X107200Y-86400I-2000J0D01*
G01*
X113000Y-91400D02*
G03*
X113000Y-91400I-2000J0D01*
G01*
X116100Y-102900D02*
G03*
X116100Y-102900I-2000J0D01*
G01*
X113500Y-102800D02*
G03*
X113500Y-102800I-2000J0D01*
G01*
X104753Y-123000D02*
G03*
X104753Y-123000I-2000J0D01*
G01*
X101000Y-139400D02*
G03*
X101000Y-139400I-2000J0D01*
G01*
X101600Y-133900D02*
G03*
X101600Y-133900I-2000J0D01*
G01*
X104200Y-130300D02*
G03*
X104200Y-130300I-2000J0D01*
G01*
X105800Y-128600D02*
G03*
X105800Y-128600I-2000J0D01*
G01*
X106800Y-131500D02*
G03*
X106800Y-131500I-2000J0D01*
G01*
X110500Y-131100D02*
G03*
X110500Y-131100I-2000J0D01*
G01*
X115400Y-169400D02*
G03*
X115400Y-169400I-2000J0D01*
G01*
X116800Y-160200D02*
G03*
X116800Y-160200I-2000J0D01*
G01*
X117100Y-157500D02*
G03*
X117100Y-157500I-2000J0D01*
G01*
X116200Y-154400D02*
G03*
X116200Y-154400I-2000J0D01*
G01*
X118400Y-151900D02*
G03*
X118400Y-151900I-2000J0D01*
G01*
X87100Y-117400D02*
G03*
X87100Y-117400I-2000J0D01*
G01*
X83400Y-110500D02*
G03*
X83400Y-110500I-2000J0D01*
G01*
X83500Y-114100D02*
G03*
X83500Y-114100I-2000J0D01*
G01*
M02*
