G04 Layer_Color=8388736*
%FSLAX25Y25*%
%MOIN*%
G70*
G01*
G75*
%ADD54R,0.02569X0.02962*%
%ADD55R,0.02962X0.02569*%
%ADD56R,0.03750X0.04143*%
%ADD57R,0.04143X0.03750*%
%ADD58R,0.07293X0.04931*%
%ADD59R,0.02470X0.01466*%
%ADD60R,0.02962X0.01860*%
%ADD61C,0.02569*%
%ADD62R,0.05128X0.04537*%
%ADD63R,0.01978X0.01978*%
%ADD64R,0.01978X0.01978*%
%ADD65O,0.02962X0.08080*%
%ADD66C,0.02293*%
%ADD67R,0.02962X0.10443*%
%ADD68R,0.03553X0.04734*%
%ADD69R,0.02569X0.02569*%
%ADD70R,0.02569X0.03159*%
%ADD71R,0.02962X0.05324*%
%ADD72R,0.20285X0.20285*%
%ADD73C,0.02400*%
D54*
X108100Y-46869D02*
D03*
Y-42932D02*
D03*
X24200Y-28868D02*
D03*
Y-24931D02*
D03*
X20700Y-28868D02*
D03*
Y-24931D02*
D03*
X89900Y-31532D02*
D03*
Y-35469D02*
D03*
X55400Y-184268D02*
D03*
Y-180332D02*
D03*
X25900Y-7869D02*
D03*
Y-3932D02*
D03*
X114800Y-149469D02*
D03*
Y-145531D02*
D03*
X114100Y-65232D02*
D03*
Y-69169D02*
D03*
X32000Y-179832D02*
D03*
Y-183768D02*
D03*
X28300Y-183869D02*
D03*
Y-179931D02*
D03*
X93000Y-5632D02*
D03*
Y-9568D02*
D03*
X91500Y-22632D02*
D03*
Y-26568D02*
D03*
X106200Y-76332D02*
D03*
Y-80269D02*
D03*
X8300Y-89531D02*
D03*
Y-93468D02*
D03*
X3900Y-89531D02*
D03*
Y-93468D02*
D03*
D55*
X19732Y-32600D02*
D03*
X23668D02*
D03*
X3032Y-27900D02*
D03*
X6968D02*
D03*
X19732Y-36000D02*
D03*
X23668D02*
D03*
X3032Y-31600D02*
D03*
X6968D02*
D03*
X109632Y-113400D02*
D03*
X113568D02*
D03*
X111831Y-42600D02*
D03*
X115769D02*
D03*
X37132Y-42400D02*
D03*
X41069D02*
D03*
X7569Y-56300D02*
D03*
X3632D02*
D03*
X49409Y-42126D02*
D03*
X53347D02*
D03*
X115769Y-49900D02*
D03*
X111831D02*
D03*
X115668Y-53500D02*
D03*
X111732D02*
D03*
X7468Y-63600D02*
D03*
X3531D02*
D03*
X33068Y-42100D02*
D03*
X29131D02*
D03*
X65069Y-184600D02*
D03*
X61132D02*
D03*
X60632Y-180100D02*
D03*
X64569D02*
D03*
X107869Y-183000D02*
D03*
X103931D02*
D03*
X111132Y-28600D02*
D03*
X115068D02*
D03*
Y-32100D02*
D03*
X111132D02*
D03*
X111831Y-39000D02*
D03*
X115769D02*
D03*
X3831Y-45700D02*
D03*
X7768D02*
D03*
X16831Y-141300D02*
D03*
X20768D02*
D03*
X9968Y-138200D02*
D03*
X6032D02*
D03*
X4031Y-119500D02*
D03*
X7969D02*
D03*
X6132Y-141700D02*
D03*
X10069D02*
D03*
X4231Y-131200D02*
D03*
X8168D02*
D03*
X8068Y-112700D02*
D03*
X4132D02*
D03*
Y-122900D02*
D03*
X8068D02*
D03*
X3731Y-49200D02*
D03*
X7668D02*
D03*
Y-52800D02*
D03*
X3731D02*
D03*
X111831Y-46200D02*
D03*
X115769D02*
D03*
X4431Y-134700D02*
D03*
X8369D02*
D03*
X7969Y-116100D02*
D03*
X4031D02*
D03*
X3531Y-67300D02*
D03*
X7468D02*
D03*
Y-59900D02*
D03*
X3531D02*
D03*
X3432Y-70900D02*
D03*
X7368D02*
D03*
X7468Y-74400D02*
D03*
X3531D02*
D03*
X4132Y-109200D02*
D03*
X8068D02*
D03*
X88432Y-142500D02*
D03*
X92369D02*
D03*
X109932Y-107900D02*
D03*
X113868D02*
D03*
X114269Y-133800D02*
D03*
X110331D02*
D03*
X114169Y-137200D02*
D03*
X110231D02*
D03*
D56*
X11144Y-25500D02*
D03*
X16656D02*
D03*
X15256Y-37800D02*
D03*
X9744D02*
D03*
X8656Y-79000D02*
D03*
X3144D02*
D03*
X109544Y-57800D02*
D03*
X115056D02*
D03*
X3244Y-84200D02*
D03*
X8756D02*
D03*
X3944Y-127100D02*
D03*
X9456D02*
D03*
D57*
X3100Y-35844D02*
D03*
Y-41356D02*
D03*
X26000Y-12144D02*
D03*
Y-17656D02*
D03*
X109600Y-70056D02*
D03*
Y-64544D02*
D03*
X114200Y-99156D02*
D03*
Y-93644D02*
D03*
D58*
X112300Y-87515D02*
D03*
Y-76885D02*
D03*
D59*
X100000Y-170800D02*
D03*
Y-169225D02*
D03*
Y-167650D02*
D03*
Y-166076D02*
D03*
Y-164501D02*
D03*
Y-162926D02*
D03*
Y-161351D02*
D03*
X109547Y-169225D02*
D03*
Y-167650D02*
D03*
Y-166076D02*
D03*
Y-162926D02*
D03*
Y-170800D02*
D03*
Y-161351D02*
D03*
Y-164501D02*
D03*
D60*
X100504Y-174540D02*
D03*
X109047D02*
D03*
X100504Y-157611D02*
D03*
X109047D02*
D03*
D61*
X16661Y-131939D02*
D03*
Y-128002D02*
D03*
Y-124065D02*
D03*
Y-120128D02*
D03*
Y-116191D02*
D03*
Y-112253D02*
D03*
Y-108317D02*
D03*
Y-104379D02*
D03*
Y-100443D02*
D03*
Y-96505D02*
D03*
Y-92568D02*
D03*
Y-88631D02*
D03*
Y-84694D02*
D03*
Y-80757D02*
D03*
Y-76820D02*
D03*
Y-72883D02*
D03*
Y-68946D02*
D03*
Y-65009D02*
D03*
Y-61072D02*
D03*
Y-57135D02*
D03*
Y-53198D02*
D03*
Y-49261D02*
D03*
X20598Y-131939D02*
D03*
Y-128002D02*
D03*
Y-124065D02*
D03*
Y-120128D02*
D03*
Y-116191D02*
D03*
Y-112253D02*
D03*
Y-108317D02*
D03*
Y-104379D02*
D03*
Y-100443D02*
D03*
Y-96505D02*
D03*
Y-92568D02*
D03*
Y-88631D02*
D03*
Y-84694D02*
D03*
Y-80757D02*
D03*
Y-76820D02*
D03*
Y-72883D02*
D03*
Y-68946D02*
D03*
Y-65009D02*
D03*
Y-61072D02*
D03*
Y-57135D02*
D03*
Y-53198D02*
D03*
Y-49261D02*
D03*
X24535Y-131939D02*
D03*
Y-128002D02*
D03*
Y-124065D02*
D03*
Y-120128D02*
D03*
Y-116191D02*
D03*
Y-112253D02*
D03*
Y-108317D02*
D03*
Y-104379D02*
D03*
Y-100443D02*
D03*
Y-96505D02*
D03*
Y-92568D02*
D03*
Y-88631D02*
D03*
Y-84694D02*
D03*
Y-80757D02*
D03*
Y-76820D02*
D03*
Y-72883D02*
D03*
Y-68946D02*
D03*
Y-65009D02*
D03*
Y-61072D02*
D03*
Y-57135D02*
D03*
Y-53198D02*
D03*
Y-49261D02*
D03*
X28472Y-131939D02*
D03*
Y-128002D02*
D03*
Y-124065D02*
D03*
Y-120128D02*
D03*
Y-116191D02*
D03*
Y-112253D02*
D03*
Y-108317D02*
D03*
Y-104379D02*
D03*
Y-100443D02*
D03*
Y-96505D02*
D03*
Y-92568D02*
D03*
Y-88631D02*
D03*
Y-84694D02*
D03*
Y-80757D02*
D03*
Y-76820D02*
D03*
Y-72883D02*
D03*
Y-68946D02*
D03*
Y-65009D02*
D03*
Y-61072D02*
D03*
Y-57135D02*
D03*
Y-53198D02*
D03*
Y-49261D02*
D03*
X32410Y-131939D02*
D03*
Y-128002D02*
D03*
Y-124065D02*
D03*
Y-120128D02*
D03*
Y-116191D02*
D03*
Y-112253D02*
D03*
Y-108317D02*
D03*
Y-104379D02*
D03*
Y-100443D02*
D03*
Y-96505D02*
D03*
Y-92568D02*
D03*
Y-88631D02*
D03*
Y-84694D02*
D03*
Y-80757D02*
D03*
Y-76820D02*
D03*
Y-72883D02*
D03*
Y-68946D02*
D03*
Y-65009D02*
D03*
Y-61072D02*
D03*
Y-57135D02*
D03*
Y-53198D02*
D03*
Y-49261D02*
D03*
X36347Y-131939D02*
D03*
Y-128002D02*
D03*
Y-124065D02*
D03*
Y-120128D02*
D03*
Y-116191D02*
D03*
Y-112253D02*
D03*
Y-108317D02*
D03*
Y-104379D02*
D03*
Y-100443D02*
D03*
Y-96505D02*
D03*
Y-92568D02*
D03*
Y-88631D02*
D03*
Y-84694D02*
D03*
Y-80757D02*
D03*
Y-76820D02*
D03*
Y-72883D02*
D03*
Y-68946D02*
D03*
Y-65009D02*
D03*
Y-61072D02*
D03*
Y-57135D02*
D03*
Y-53198D02*
D03*
Y-49261D02*
D03*
X40284Y-131939D02*
D03*
Y-128002D02*
D03*
Y-124065D02*
D03*
Y-120128D02*
D03*
Y-116191D02*
D03*
Y-112253D02*
D03*
Y-108317D02*
D03*
Y-104379D02*
D03*
Y-100443D02*
D03*
Y-96505D02*
D03*
Y-92568D02*
D03*
Y-88631D02*
D03*
Y-84694D02*
D03*
Y-80757D02*
D03*
Y-76820D02*
D03*
Y-72883D02*
D03*
Y-68946D02*
D03*
Y-65009D02*
D03*
Y-61072D02*
D03*
Y-57135D02*
D03*
Y-53198D02*
D03*
Y-49261D02*
D03*
X44221Y-131939D02*
D03*
Y-128002D02*
D03*
Y-124065D02*
D03*
Y-120128D02*
D03*
Y-116191D02*
D03*
Y-112253D02*
D03*
Y-108317D02*
D03*
Y-104379D02*
D03*
Y-100443D02*
D03*
Y-96505D02*
D03*
Y-92568D02*
D03*
Y-88631D02*
D03*
Y-84694D02*
D03*
Y-80757D02*
D03*
Y-76820D02*
D03*
Y-72883D02*
D03*
Y-68946D02*
D03*
Y-65009D02*
D03*
Y-61072D02*
D03*
Y-57135D02*
D03*
Y-53198D02*
D03*
Y-49261D02*
D03*
X48158Y-131939D02*
D03*
Y-128002D02*
D03*
Y-124065D02*
D03*
Y-120128D02*
D03*
Y-116191D02*
D03*
Y-112253D02*
D03*
Y-108317D02*
D03*
Y-104379D02*
D03*
Y-100443D02*
D03*
Y-96505D02*
D03*
Y-92568D02*
D03*
Y-88631D02*
D03*
Y-84694D02*
D03*
Y-80757D02*
D03*
Y-76820D02*
D03*
Y-72883D02*
D03*
Y-68946D02*
D03*
Y-65009D02*
D03*
Y-61072D02*
D03*
Y-57135D02*
D03*
Y-53198D02*
D03*
Y-49261D02*
D03*
X52095Y-131939D02*
D03*
Y-128002D02*
D03*
Y-124065D02*
D03*
Y-120128D02*
D03*
Y-116191D02*
D03*
Y-112253D02*
D03*
Y-108317D02*
D03*
Y-104379D02*
D03*
Y-100443D02*
D03*
Y-96505D02*
D03*
Y-92568D02*
D03*
Y-88631D02*
D03*
Y-84694D02*
D03*
Y-80757D02*
D03*
Y-76820D02*
D03*
Y-72883D02*
D03*
Y-68946D02*
D03*
Y-65009D02*
D03*
Y-61072D02*
D03*
Y-57135D02*
D03*
Y-53198D02*
D03*
Y-49261D02*
D03*
X56032Y-131939D02*
D03*
Y-128002D02*
D03*
Y-124065D02*
D03*
Y-120128D02*
D03*
Y-116191D02*
D03*
Y-112253D02*
D03*
Y-108317D02*
D03*
Y-104379D02*
D03*
Y-100443D02*
D03*
Y-96505D02*
D03*
Y-92568D02*
D03*
Y-88631D02*
D03*
Y-84694D02*
D03*
Y-80757D02*
D03*
Y-76820D02*
D03*
Y-72883D02*
D03*
Y-68946D02*
D03*
Y-65009D02*
D03*
Y-61072D02*
D03*
Y-57135D02*
D03*
Y-53198D02*
D03*
Y-49261D02*
D03*
X59969Y-131939D02*
D03*
Y-128002D02*
D03*
Y-124065D02*
D03*
Y-120128D02*
D03*
Y-116191D02*
D03*
Y-112253D02*
D03*
Y-108317D02*
D03*
Y-104379D02*
D03*
Y-100443D02*
D03*
Y-96505D02*
D03*
Y-92568D02*
D03*
Y-88631D02*
D03*
Y-84694D02*
D03*
Y-80757D02*
D03*
Y-76820D02*
D03*
Y-72883D02*
D03*
Y-68946D02*
D03*
Y-65009D02*
D03*
Y-61072D02*
D03*
Y-57135D02*
D03*
Y-53198D02*
D03*
Y-49261D02*
D03*
X63906Y-131939D02*
D03*
Y-128002D02*
D03*
Y-124065D02*
D03*
Y-120128D02*
D03*
Y-116191D02*
D03*
Y-112253D02*
D03*
Y-108317D02*
D03*
Y-104379D02*
D03*
Y-100443D02*
D03*
Y-96505D02*
D03*
Y-92568D02*
D03*
Y-88631D02*
D03*
Y-84694D02*
D03*
Y-80757D02*
D03*
Y-76820D02*
D03*
Y-72883D02*
D03*
Y-68946D02*
D03*
Y-65009D02*
D03*
Y-61072D02*
D03*
Y-57135D02*
D03*
Y-53198D02*
D03*
Y-49261D02*
D03*
X67843Y-131939D02*
D03*
Y-128002D02*
D03*
Y-124065D02*
D03*
Y-120128D02*
D03*
Y-116191D02*
D03*
Y-112253D02*
D03*
Y-108317D02*
D03*
Y-104379D02*
D03*
Y-100443D02*
D03*
Y-96505D02*
D03*
Y-92568D02*
D03*
Y-88631D02*
D03*
Y-84694D02*
D03*
Y-80757D02*
D03*
Y-76820D02*
D03*
Y-72883D02*
D03*
Y-68946D02*
D03*
Y-65009D02*
D03*
Y-61072D02*
D03*
Y-57135D02*
D03*
Y-53198D02*
D03*
Y-49261D02*
D03*
X71780Y-131939D02*
D03*
Y-128002D02*
D03*
Y-124065D02*
D03*
Y-120128D02*
D03*
Y-116191D02*
D03*
Y-112253D02*
D03*
Y-108317D02*
D03*
Y-104379D02*
D03*
Y-100443D02*
D03*
Y-96505D02*
D03*
Y-92568D02*
D03*
Y-88631D02*
D03*
Y-84694D02*
D03*
Y-80757D02*
D03*
Y-76820D02*
D03*
Y-72883D02*
D03*
Y-68946D02*
D03*
Y-65009D02*
D03*
Y-61072D02*
D03*
Y-57135D02*
D03*
Y-53198D02*
D03*
Y-49261D02*
D03*
X75717Y-131939D02*
D03*
Y-128002D02*
D03*
Y-124065D02*
D03*
Y-120128D02*
D03*
Y-116191D02*
D03*
Y-112253D02*
D03*
Y-108317D02*
D03*
Y-104379D02*
D03*
Y-100443D02*
D03*
Y-96505D02*
D03*
Y-92568D02*
D03*
Y-88631D02*
D03*
Y-84694D02*
D03*
Y-80757D02*
D03*
Y-76820D02*
D03*
Y-72883D02*
D03*
Y-68946D02*
D03*
Y-65009D02*
D03*
Y-61072D02*
D03*
Y-57135D02*
D03*
Y-53198D02*
D03*
Y-49261D02*
D03*
X79654Y-131939D02*
D03*
Y-128002D02*
D03*
Y-124065D02*
D03*
Y-120128D02*
D03*
Y-116191D02*
D03*
Y-112253D02*
D03*
Y-108317D02*
D03*
Y-104379D02*
D03*
Y-100443D02*
D03*
Y-96505D02*
D03*
Y-92568D02*
D03*
Y-88631D02*
D03*
Y-84694D02*
D03*
Y-80757D02*
D03*
Y-76820D02*
D03*
Y-72883D02*
D03*
Y-68946D02*
D03*
Y-65009D02*
D03*
Y-61072D02*
D03*
Y-57135D02*
D03*
Y-53198D02*
D03*
Y-49261D02*
D03*
X83591Y-131939D02*
D03*
Y-128002D02*
D03*
Y-124065D02*
D03*
Y-120128D02*
D03*
Y-116191D02*
D03*
Y-112253D02*
D03*
Y-108317D02*
D03*
Y-104379D02*
D03*
Y-100443D02*
D03*
Y-96505D02*
D03*
Y-92568D02*
D03*
Y-88631D02*
D03*
Y-84694D02*
D03*
Y-80757D02*
D03*
Y-76820D02*
D03*
Y-72883D02*
D03*
Y-68946D02*
D03*
Y-65009D02*
D03*
Y-61072D02*
D03*
Y-57135D02*
D03*
Y-53198D02*
D03*
Y-49261D02*
D03*
X87528Y-131939D02*
D03*
Y-128002D02*
D03*
Y-124065D02*
D03*
Y-120128D02*
D03*
Y-116191D02*
D03*
Y-112253D02*
D03*
Y-108317D02*
D03*
Y-104379D02*
D03*
Y-100443D02*
D03*
Y-96505D02*
D03*
Y-92568D02*
D03*
Y-88631D02*
D03*
Y-84694D02*
D03*
Y-80757D02*
D03*
Y-76820D02*
D03*
Y-72883D02*
D03*
Y-68946D02*
D03*
Y-65009D02*
D03*
Y-61072D02*
D03*
Y-57135D02*
D03*
Y-53198D02*
D03*
Y-49261D02*
D03*
X91465Y-131939D02*
D03*
Y-128002D02*
D03*
Y-124065D02*
D03*
Y-120128D02*
D03*
Y-116191D02*
D03*
Y-112253D02*
D03*
Y-108317D02*
D03*
Y-104379D02*
D03*
Y-100443D02*
D03*
Y-96505D02*
D03*
Y-92568D02*
D03*
Y-88631D02*
D03*
Y-84694D02*
D03*
Y-80757D02*
D03*
Y-76820D02*
D03*
Y-72883D02*
D03*
Y-68946D02*
D03*
Y-65009D02*
D03*
Y-61072D02*
D03*
Y-57135D02*
D03*
Y-53198D02*
D03*
Y-49261D02*
D03*
X95402Y-131939D02*
D03*
Y-128002D02*
D03*
Y-124065D02*
D03*
Y-120128D02*
D03*
Y-116191D02*
D03*
Y-112253D02*
D03*
Y-108317D02*
D03*
Y-104379D02*
D03*
Y-100443D02*
D03*
Y-96505D02*
D03*
Y-92568D02*
D03*
Y-88631D02*
D03*
Y-84694D02*
D03*
Y-80757D02*
D03*
Y-76820D02*
D03*
Y-72883D02*
D03*
Y-68946D02*
D03*
Y-65009D02*
D03*
Y-61072D02*
D03*
Y-57135D02*
D03*
Y-53198D02*
D03*
Y-49261D02*
D03*
X99339Y-131939D02*
D03*
Y-128002D02*
D03*
Y-124065D02*
D03*
Y-120128D02*
D03*
Y-116191D02*
D03*
Y-112253D02*
D03*
Y-108317D02*
D03*
Y-104379D02*
D03*
Y-100443D02*
D03*
Y-96505D02*
D03*
Y-92568D02*
D03*
Y-88631D02*
D03*
Y-84694D02*
D03*
Y-80757D02*
D03*
Y-76820D02*
D03*
Y-72883D02*
D03*
Y-68946D02*
D03*
Y-65009D02*
D03*
Y-61072D02*
D03*
Y-57135D02*
D03*
Y-53198D02*
D03*
Y-49261D02*
D03*
D62*
X102753Y-148658D02*
D03*
Y-143342D02*
D03*
X109447Y-148658D02*
D03*
Y-143342D02*
D03*
D63*
X105253Y-34928D02*
D03*
X103284D02*
D03*
X101316D02*
D03*
X99347D02*
D03*
X105253Y-38472D02*
D03*
X103284D02*
D03*
X101316D02*
D03*
X99347D02*
D03*
X104753Y-26528D02*
D03*
X102784D02*
D03*
X100816D02*
D03*
X98847D02*
D03*
X104753Y-30072D02*
D03*
X102784D02*
D03*
X100816D02*
D03*
X98847D02*
D03*
D64*
X91028Y-169547D02*
D03*
Y-171516D02*
D03*
Y-173484D02*
D03*
Y-175453D02*
D03*
X94572Y-169547D02*
D03*
Y-171516D02*
D03*
Y-173484D02*
D03*
Y-175453D02*
D03*
X92872Y-164253D02*
D03*
Y-162284D02*
D03*
Y-160316D02*
D03*
Y-158347D02*
D03*
X89328Y-164253D02*
D03*
Y-162284D02*
D03*
Y-160316D02*
D03*
Y-158347D02*
D03*
X89728Y-147447D02*
D03*
Y-149416D02*
D03*
Y-151384D02*
D03*
Y-153353D02*
D03*
X93272Y-147447D02*
D03*
Y-149416D02*
D03*
Y-151384D02*
D03*
Y-153353D02*
D03*
D65*
X5800Y-175089D02*
D03*
X10800D02*
D03*
X15800D02*
D03*
X20800D02*
D03*
X5800Y-148711D02*
D03*
X10800D02*
D03*
X15800D02*
D03*
X20800D02*
D03*
D66*
X33878Y-33698D02*
D03*
Y-30549D02*
D03*
Y-27399D02*
D03*
Y-14801D02*
D03*
Y-11651D02*
D03*
Y-8502D02*
D03*
X37028Y-33698D02*
D03*
Y-30549D02*
D03*
Y-27399D02*
D03*
Y-14801D02*
D03*
Y-11651D02*
D03*
Y-8502D02*
D03*
X40177Y-33698D02*
D03*
Y-30549D02*
D03*
Y-27399D02*
D03*
Y-14801D02*
D03*
Y-11651D02*
D03*
Y-8502D02*
D03*
X43327Y-33698D02*
D03*
Y-30549D02*
D03*
Y-27399D02*
D03*
Y-14801D02*
D03*
Y-11651D02*
D03*
Y-8502D02*
D03*
X46476Y-33698D02*
D03*
Y-30549D02*
D03*
Y-27399D02*
D03*
Y-14801D02*
D03*
Y-11651D02*
D03*
Y-8502D02*
D03*
X49626Y-33698D02*
D03*
Y-30549D02*
D03*
Y-27399D02*
D03*
Y-14801D02*
D03*
Y-11651D02*
D03*
Y-8502D02*
D03*
X52776Y-33698D02*
D03*
Y-30549D02*
D03*
Y-27399D02*
D03*
Y-14801D02*
D03*
Y-11651D02*
D03*
Y-8502D02*
D03*
X55925Y-33698D02*
D03*
Y-30549D02*
D03*
Y-27399D02*
D03*
Y-14801D02*
D03*
Y-11651D02*
D03*
Y-8502D02*
D03*
X59075Y-33698D02*
D03*
Y-30549D02*
D03*
Y-27399D02*
D03*
Y-14801D02*
D03*
Y-11651D02*
D03*
Y-8502D02*
D03*
X62224Y-33698D02*
D03*
Y-30549D02*
D03*
Y-27399D02*
D03*
Y-14801D02*
D03*
Y-11651D02*
D03*
Y-8502D02*
D03*
X65374Y-33698D02*
D03*
Y-30549D02*
D03*
Y-27399D02*
D03*
Y-14801D02*
D03*
Y-11651D02*
D03*
Y-8502D02*
D03*
X68524Y-33698D02*
D03*
Y-30549D02*
D03*
Y-27399D02*
D03*
Y-14801D02*
D03*
Y-11651D02*
D03*
Y-8502D02*
D03*
X71673Y-33698D02*
D03*
Y-30549D02*
D03*
Y-27399D02*
D03*
Y-14801D02*
D03*
Y-11651D02*
D03*
Y-8502D02*
D03*
X74823Y-33698D02*
D03*
Y-30549D02*
D03*
Y-27399D02*
D03*
Y-14801D02*
D03*
Y-11651D02*
D03*
Y-8502D02*
D03*
X77972Y-33698D02*
D03*
Y-30549D02*
D03*
Y-27399D02*
D03*
Y-14801D02*
D03*
Y-11651D02*
D03*
Y-8502D02*
D03*
X81122Y-33698D02*
D03*
Y-30549D02*
D03*
Y-27399D02*
D03*
Y-14801D02*
D03*
Y-11651D02*
D03*
Y-8502D02*
D03*
X80722Y-146702D02*
D03*
Y-149851D02*
D03*
Y-153001D02*
D03*
Y-165599D02*
D03*
Y-168749D02*
D03*
Y-171898D02*
D03*
X77572Y-146702D02*
D03*
Y-149851D02*
D03*
Y-153001D02*
D03*
Y-165599D02*
D03*
Y-168749D02*
D03*
Y-171898D02*
D03*
X74423Y-146702D02*
D03*
Y-149851D02*
D03*
Y-153001D02*
D03*
Y-165599D02*
D03*
Y-168749D02*
D03*
Y-171898D02*
D03*
X71273Y-146702D02*
D03*
Y-149851D02*
D03*
Y-153001D02*
D03*
Y-165599D02*
D03*
Y-168749D02*
D03*
Y-171898D02*
D03*
X68124Y-146702D02*
D03*
Y-149851D02*
D03*
Y-153001D02*
D03*
Y-165599D02*
D03*
Y-168749D02*
D03*
Y-171898D02*
D03*
X64974Y-146702D02*
D03*
Y-149851D02*
D03*
Y-153001D02*
D03*
Y-165599D02*
D03*
Y-168749D02*
D03*
Y-171898D02*
D03*
X61824Y-146702D02*
D03*
Y-149851D02*
D03*
Y-153001D02*
D03*
Y-165599D02*
D03*
Y-168749D02*
D03*
Y-171898D02*
D03*
X58675Y-146702D02*
D03*
Y-149851D02*
D03*
Y-153001D02*
D03*
Y-165599D02*
D03*
Y-168749D02*
D03*
Y-171898D02*
D03*
X55525Y-146702D02*
D03*
Y-149851D02*
D03*
Y-153001D02*
D03*
Y-165599D02*
D03*
Y-168749D02*
D03*
Y-171898D02*
D03*
X52376Y-146702D02*
D03*
Y-149851D02*
D03*
Y-153001D02*
D03*
Y-165599D02*
D03*
Y-168749D02*
D03*
Y-171898D02*
D03*
X49226Y-146702D02*
D03*
Y-149851D02*
D03*
Y-153001D02*
D03*
Y-165599D02*
D03*
Y-168749D02*
D03*
Y-171898D02*
D03*
X46076Y-146702D02*
D03*
Y-149851D02*
D03*
Y-153001D02*
D03*
Y-165599D02*
D03*
Y-168749D02*
D03*
Y-171898D02*
D03*
X42927Y-146702D02*
D03*
Y-149851D02*
D03*
Y-153001D02*
D03*
Y-165599D02*
D03*
Y-168749D02*
D03*
Y-171898D02*
D03*
X39777Y-146702D02*
D03*
Y-149851D02*
D03*
Y-153001D02*
D03*
Y-165599D02*
D03*
Y-168749D02*
D03*
Y-171898D02*
D03*
X36628Y-146702D02*
D03*
Y-149851D02*
D03*
Y-153001D02*
D03*
Y-165599D02*
D03*
Y-168749D02*
D03*
Y-171898D02*
D03*
X33478Y-146702D02*
D03*
Y-149851D02*
D03*
Y-153001D02*
D03*
Y-165599D02*
D03*
Y-168749D02*
D03*
Y-171898D02*
D03*
D67*
X12702Y-194694D02*
D03*
X15852D02*
D03*
X19001D02*
D03*
X22151D02*
D03*
X25300D02*
D03*
X28450D02*
D03*
X31600D02*
D03*
X34749D02*
D03*
X50497Y-194694D02*
D03*
X53647D02*
D03*
X56796D02*
D03*
X59946D02*
D03*
X63096D02*
D03*
X66245D02*
D03*
X69395D02*
D03*
X72544D02*
D03*
X75694D02*
D03*
X78844D02*
D03*
X81993D02*
D03*
X85143D02*
D03*
X88292D02*
D03*
X91442D02*
D03*
X94592D02*
D03*
X97741D02*
D03*
X100891D02*
D03*
X104041D02*
D03*
D68*
X3635Y-104453D02*
D03*
Y-98547D02*
D03*
X7965Y-104453D02*
D03*
Y-98547D02*
D03*
D69*
X111700Y-119466D02*
D03*
D70*
Y-127439D02*
D03*
D71*
X107763Y-123600D02*
D03*
X115637D02*
D03*
D72*
X11520Y-11427D02*
D03*
X106795D02*
D03*
D73*
X61900Y-106800D02*
D03*
X26500Y-109800D02*
D03*
X54000Y-110400D02*
D03*
X14700Y-109900D02*
D03*
X12100Y-114200D02*
D03*
X26300Y-121600D02*
D03*
X94800Y-151300D02*
D03*
X103000Y-175800D02*
D03*
X104900Y-177800D02*
D03*
X2500Y-69200D02*
D03*
X85400Y-148500D02*
D03*
X85500Y-126100D02*
D03*
X98600Y-143800D02*
D03*
X97700Y-146600D02*
D03*
X96364Y-148564D02*
D03*
X100300Y-146800D02*
D03*
X105500Y-143300D02*
D03*
X74700Y-179900D02*
D03*
X73100Y-176500D02*
D03*
X15300Y-48000D02*
D03*
X26176Y-64076D02*
D03*
X26600Y-66400D02*
D03*
X21700Y-45500D02*
D03*
X66200Y-54800D02*
D03*
X58000Y-51230D02*
D03*
X57400Y-40600D02*
D03*
X61367Y-35966D02*
D03*
X63900Y-38100D02*
D03*
X69200Y-39900D02*
D03*
X69800Y-54700D02*
D03*
X69529Y-63323D02*
D03*
X77400Y-70900D02*
D03*
X74000Y-70800D02*
D03*
X81600Y-66900D02*
D03*
X65592Y-75134D02*
D03*
X65500Y-59300D02*
D03*
X77600Y-63500D02*
D03*
X81500Y-59700D02*
D03*
X85277Y-67260D02*
D03*
X81400Y-71700D02*
D03*
X81340Y-75134D02*
D03*
X58315Y-70600D02*
D03*
X54200Y-70800D02*
D03*
X50100Y-70300D02*
D03*
X50409Y-83008D02*
D03*
X54000Y-82800D02*
D03*
X42300D02*
D03*
X89180Y-64064D02*
D03*
X92600Y-59400D02*
D03*
X102100Y-56700D02*
D03*
X102600Y-53300D02*
D03*
X104000Y-48700D02*
D03*
X103400Y-45400D02*
D03*
X77403Y-75134D02*
D03*
X88600Y-59300D02*
D03*
X89700Y-66700D02*
D03*
X104200Y-55000D02*
D03*
X101400Y-62500D02*
D03*
X53700Y-63200D02*
D03*
X49400Y-62600D02*
D03*
X89214Y-75134D02*
D03*
X85277D02*
D03*
X46000Y-47600D02*
D03*
X77403Y-79071D02*
D03*
X65956Y-78000D02*
D03*
X66500Y-82672D02*
D03*
X61655Y-86380D02*
D03*
X61800Y-82800D02*
D03*
X38100Y-54900D02*
D03*
X38800Y-59200D02*
D03*
X34000Y-59000D02*
D03*
X30400Y-59100D02*
D03*
X30700Y-63500D02*
D03*
X34800Y-67400D02*
D03*
Y-70900D02*
D03*
X43300Y-37500D02*
D03*
X42500Y-55000D02*
D03*
X42300Y-59300D02*
D03*
X38100Y-51200D02*
D03*
X31100Y-55200D02*
D03*
X30500Y-71300D02*
D03*
X46472Y-86945D02*
D03*
X38100Y-74700D02*
D03*
X50100Y-86500D02*
D03*
X54181Y-78200D02*
D03*
X51783Y-78408D02*
D03*
X46505Y-93500D02*
D03*
X50500Y-101900D02*
D03*
X42700Y-93400D02*
D03*
X34550Y-51317D02*
D03*
X50300Y-67000D02*
D03*
X46200D02*
D03*
X38500Y-101800D02*
D03*
X34100Y-106400D02*
D03*
X26700Y-79200D02*
D03*
X26800Y-58700D02*
D03*
X26700Y-83100D02*
D03*
X73800Y-87000D02*
D03*
X10757Y-99252D02*
D03*
Y-104790D02*
D03*
X11700Y-110900D02*
D03*
X12900Y-117500D02*
D03*
X13200Y-120800D02*
D03*
X14000Y-124200D02*
D03*
X12000Y-102800D02*
D03*
X13000Y-105800D02*
D03*
X14375Y-102858D02*
D03*
X15300Y-106300D02*
D03*
X9500Y-95950D02*
D03*
X13000Y-98100D02*
D03*
X11800Y-95500D02*
D03*
X10700Y-116300D02*
D03*
X11100Y-119600D02*
D03*
X15300Y-118200D02*
D03*
X54200Y-106200D02*
D03*
X12900Y-73100D02*
D03*
X18329Y-74446D02*
D03*
X10600Y-73900D02*
D03*
X26400Y-91200D02*
D03*
X26200Y-98600D02*
D03*
X38200Y-114500D02*
D03*
X70100Y-109700D02*
D03*
X77800Y-102300D02*
D03*
X70192Y-98800D02*
D03*
X65737Y-109716D02*
D03*
X15100Y-71100D02*
D03*
X14100Y-78900D02*
D03*
X13200Y-81400D02*
D03*
X14200Y-84900D02*
D03*
X11900Y-85200D02*
D03*
X10800Y-71500D02*
D03*
X10600Y-67400D02*
D03*
X12000Y-69400D02*
D03*
X14200Y-66600D02*
D03*
X74000Y-82700D02*
D03*
X65592Y-86945D02*
D03*
X73730Y-78100D02*
D03*
X61700Y-90300D02*
D03*
X73900Y-90400D02*
D03*
X77500Y-90700D02*
D03*
Y-94400D02*
D03*
X11900Y-88700D02*
D03*
X11100Y-79000D02*
D03*
X14700Y-90600D02*
D03*
X2200Y-116100D02*
D03*
X22700Y-133700D02*
D03*
X19500Y-139000D02*
D03*
X2100Y-112700D02*
D03*
X34100Y-118400D02*
D03*
X37700Y-118200D02*
D03*
X34200Y-122000D02*
D03*
X34400Y-129900D02*
D03*
X42500Y-114483D02*
D03*
X73900Y-110200D02*
D03*
X104500Y-114500D02*
D03*
X73700Y-102200D02*
D03*
X61700Y-110100D02*
D03*
X66000Y-102500D02*
D03*
X93000Y-102600D02*
D03*
X93100Y-106000D02*
D03*
X85600Y-106200D02*
D03*
X105000Y-116900D02*
D03*
X103916Y-80101D02*
D03*
X103900Y-76800D02*
D03*
X104100Y-109600D02*
D03*
X103100Y-106300D02*
D03*
X105500Y-103900D02*
D03*
X85277Y-98191D02*
D03*
X89214D02*
D03*
X77900Y-181400D02*
D03*
X92600Y-98100D02*
D03*
X77900Y-179100D02*
D03*
X69300Y-184700D02*
D03*
X37100Y-179400D02*
D03*
Y-177000D02*
D03*
X69300Y-182400D02*
D03*
X53500Y-182600D02*
D03*
X35800Y-175000D02*
D03*
X30700Y-173300D02*
D03*
X65810Y-99116D02*
D03*
X62257Y-94150D02*
D03*
X65600Y-94300D02*
D03*
X77600Y-98700D02*
D03*
X104300Y-58200D02*
D03*
X106600Y-58300D02*
D03*
X110800Y-61200D02*
D03*
X113400D02*
D03*
X107300Y-50700D02*
D03*
X109800Y-51700D02*
D03*
X108900Y-54300D02*
D03*
X51300Y-3900D02*
D03*
X53900Y-2600D02*
D03*
X64200Y-5900D02*
D03*
X64900Y-3600D02*
D03*
X68700Y-4400D02*
D03*
X53600Y-5400D02*
D03*
X48500Y-4200D02*
D03*
X44400Y-16800D02*
D03*
X51200Y-17700D02*
D03*
X85500Y-55300D02*
D03*
X88800Y-55167D02*
D03*
X95100Y-44500D02*
D03*
X89214Y-94254D02*
D03*
X46200Y-114200D02*
D03*
X43000Y-125992D02*
D03*
X27600Y-156500D02*
D03*
X78900Y-166900D02*
D03*
X62600Y-182200D02*
D03*
X13400Y-93300D02*
D03*
X14400Y-62050D02*
D03*
X13300Y-58600D02*
D03*
X14000Y-51300D02*
D03*
X30300Y-18400D02*
D03*
X16400Y-44700D02*
D03*
X14700Y-43000D02*
D03*
X13200Y-38100D02*
D03*
X66000Y-114300D02*
D03*
X61900Y-101900D02*
D03*
X26500Y-126800D02*
D03*
X54346Y-86945D02*
D03*
X61800Y-74800D02*
D03*
X61900Y-78100D02*
D03*
X46200Y-55100D02*
D03*
X81486Y-54324D02*
D03*
X18900Y-24900D02*
D03*
X22800Y-13400D02*
D03*
X27600Y-38100D02*
D03*
X89300Y-50400D02*
D03*
X101300Y-79300D02*
D03*
X65900Y-118000D02*
D03*
X57700Y-119100D02*
D03*
X46300Y-118200D02*
D03*
X39022Y-129970D02*
D03*
X34100Y-125900D02*
D03*
X77933Y-158700D02*
D03*
X72848Y-170438D02*
D03*
X81400Y-79100D02*
D03*
X85277Y-83008D02*
D03*
X93400Y-47900D02*
D03*
X96200Y-39000D02*
D03*
X96900Y-35700D02*
D03*
X94500Y-30400D02*
D03*
X95300Y-27000D02*
D03*
X92500Y-40200D02*
D03*
X69300Y-141300D02*
D03*
X75300Y-5900D02*
D03*
X25700Y-188000D02*
D03*
X50500Y-94000D02*
D03*
X27100Y-162100D02*
D03*
X24600Y-164300D02*
D03*
X27200Y-167700D02*
D03*
X20700Y-157200D02*
D03*
X19200Y-153900D02*
D03*
X26600Y-171000D02*
D03*
X25400Y-178672D02*
D03*
X23100Y-178900D02*
D03*
X20800Y-180100D02*
D03*
X36628Y-162772D02*
D03*
X9600Y-62700D02*
D03*
X74100Y-98600D02*
D03*
X54400Y-97300D02*
D03*
X42800Y-98000D02*
D03*
X69600Y-94200D02*
D03*
X46472Y-106065D02*
D03*
X47700Y-170300D02*
D03*
X85700Y-176800D02*
D03*
X85200Y-173400D02*
D03*
X88100Y-167300D02*
D03*
X113500Y-24600D02*
D03*
X43327Y-5527D02*
D03*
X96800Y-188400D02*
D03*
X113300Y-171900D02*
D03*
X50000Y-175000D02*
D03*
X80700Y-5100D02*
D03*
X72000Y-4300D02*
D03*
X44800Y-13100D02*
D03*
X85243Y-64064D02*
D03*
X69200Y-36600D02*
D03*
X116100Y-24800D02*
D03*
X47000Y-140300D02*
D03*
X44500Y-148300D02*
D03*
X45200Y-143700D02*
D03*
X51630Y-141663D02*
D03*
X73400Y-94400D02*
D03*
X100900Y-75100D02*
D03*
X11900Y-185800D02*
D03*
X20600Y-187400D02*
D03*
X90600Y-20868D02*
D03*
X55925Y-5425D02*
D03*
X110300Y-24700D02*
D03*
X73700Y-55100D02*
D03*
X54236Y-13226D02*
D03*
X60700Y-6200D02*
D03*
X58800Y-46600D02*
D03*
X58000Y-62396D02*
D03*
X52776Y-45924D02*
D03*
X57933Y-55100D02*
D03*
X63800Y-32100D02*
D03*
X57400Y-28874D02*
D03*
X55600Y-17300D02*
D03*
X70213Y-32124D02*
D03*
X70900Y-23500D02*
D03*
X65900Y-71500D02*
D03*
X65700Y-47400D02*
D03*
X76400Y-13200D02*
D03*
X70000Y-13210D02*
D03*
X51275Y-28900D02*
D03*
X50033Y-55266D02*
D03*
X26600Y-55200D02*
D03*
Y-51200D02*
D03*
X50100Y-59000D02*
D03*
X41900Y-17800D02*
D03*
X54100Y-51300D02*
D03*
X56300Y-45300D02*
D03*
X54400Y-159000D02*
D03*
X57214Y-167174D02*
D03*
X60582Y-148495D02*
D03*
X72200Y-155200D02*
D03*
X87700Y-138500D02*
D03*
X90400Y-137600D02*
D03*
X83700Y-138300D02*
D03*
X76172Y-148336D02*
D03*
X72900Y-151400D02*
D03*
X82300Y-161800D02*
D03*
X84200Y-167400D02*
D03*
X84800Y-153000D02*
D03*
X96900Y-141700D02*
D03*
X72800Y-148300D02*
D03*
X74200Y-126100D02*
D03*
X78000Y-121800D02*
D03*
X64300Y-136300D02*
D03*
X73400Y-129900D02*
D03*
X79200Y-170300D02*
D03*
X80300Y-157100D02*
D03*
X72900Y-167122D02*
D03*
X60100Y-155500D02*
D03*
X60043Y-151747D02*
D03*
X69900Y-126000D02*
D03*
X64600Y-125700D02*
D03*
X77500Y-126100D02*
D03*
X70500Y-122100D02*
D03*
X73700Y-122500D02*
D03*
X65900Y-122000D02*
D03*
X25400Y-134600D02*
D03*
X23200Y-136400D02*
D03*
X35564Y-156398D02*
D03*
X30400Y-130000D02*
D03*
X29300Y-134700D02*
D03*
X31600Y-156500D02*
D03*
X32400Y-138800D02*
D03*
X38450Y-151292D02*
D03*
X37700Y-126100D02*
D03*
X47700Y-151300D02*
D03*
X52000Y-162800D02*
D03*
X50500Y-134500D02*
D03*
X50050Y-126100D02*
D03*
X49300Y-162800D02*
D03*
X45500Y-134500D02*
D03*
X44900Y-137200D02*
D03*
X53700Y-167400D02*
D03*
X49600Y-155700D02*
D03*
X56100Y-155800D02*
D03*
X53300Y-137600D02*
D03*
X47200Y-125700D02*
D03*
X53836Y-151426D02*
D03*
X35121Y-151244D02*
D03*
X40100Y-157500D02*
D03*
X42800Y-156000D02*
D03*
X54100Y-126000D02*
D03*
X55300Y-162800D02*
D03*
X61900Y-114300D02*
D03*
X34154Y-135400D02*
D03*
X26500Y-129900D02*
D03*
X38400Y-122100D02*
D03*
X43100Y-162800D02*
D03*
X50200Y-122225D02*
D03*
X46300Y-129967D02*
D03*
X45800Y-162800D02*
D03*
X54100Y-134400D02*
D03*
Y-130000D02*
D03*
X58004Y-122100D02*
D03*
X35000Y-167227D02*
D03*
X41400Y-167200D02*
D03*
X50800D02*
D03*
X33478Y-162678D02*
D03*
X39777Y-162723D02*
D03*
X61655Y-121814D02*
D03*
X85277Y-79071D02*
D03*
X75400Y-155700D02*
D03*
X69672Y-167200D02*
D03*
X61600Y-137900D02*
D03*
X61700Y-134200D02*
D03*
X64900Y-159600D02*
D03*
X58675Y-162825D02*
D03*
X65200Y-162900D02*
D03*
X66822Y-166787D02*
D03*
X61900Y-162700D02*
D03*
X60700Y-144300D02*
D03*
X72400Y-162300D02*
D03*
X66700Y-13400D02*
D03*
X57614Y-13226D02*
D03*
X51000Y-13100D02*
D03*
X46200Y-51200D02*
D03*
X48100Y-44800D02*
D03*
X44900Y-32200D02*
D03*
X48025Y-29000D02*
D03*
X45700Y-36500D02*
D03*
X43400Y-46600D02*
D03*
X47900Y-17100D02*
D03*
X36400Y-46100D02*
D03*
X46100Y-59400D02*
D03*
X38500Y-28986D02*
D03*
X41800Y-28900D02*
D03*
X38700Y-13200D02*
D03*
X34400Y-55189D02*
D03*
X30600Y-37700D02*
D03*
X31800Y-46400D02*
D03*
X25200Y-44500D02*
D03*
X27000Y-46700D02*
D03*
X27500Y-26100D02*
D03*
X37600Y-17500D02*
D03*
X33927Y-18499D02*
D03*
X31100Y-20600D02*
D03*
X71021Y-51546D02*
D03*
X77800Y-59200D02*
D03*
X58100Y-59000D02*
D03*
X54100Y-59100D02*
D03*
X54000Y-55200D02*
D03*
X49500Y-37000D02*
D03*
X76500Y-10179D02*
D03*
X74700Y-22400D02*
D03*
X73293Y-13295D02*
D03*
X69800Y-43300D02*
D03*
X72500Y-46200D02*
D03*
X79700Y-37900D02*
D03*
X82600Y-25100D02*
D03*
X78900Y-22700D02*
D03*
X75900Y-24900D02*
D03*
X69872Y-67623D02*
D03*
X62000Y-71200D02*
D03*
X79573Y-13200D02*
D03*
X86100Y-17800D02*
D03*
X84800Y-21700D02*
D03*
X87300Y-13000D02*
D03*
X89000Y-26500D02*
D03*
X54100Y-67015D02*
D03*
X78800Y-41300D02*
D03*
X87700Y-44000D02*
D03*
X85700Y-45800D02*
D03*
X85600Y-41900D02*
D03*
X84100Y-32100D02*
D03*
X107800Y-30500D02*
D03*
X67000Y-29000D02*
D03*
X62000Y-59167D02*
D03*
X61900Y-55100D02*
D03*
X62200Y-17500D02*
D03*
X59000Y-17400D02*
D03*
X55525Y-174425D02*
D03*
X2000Y-139900D02*
D03*
X28900Y-141433D02*
D03*
X10800Y-60400D02*
D03*
X112700Y-36100D02*
D03*
X80800Y-175100D02*
D03*
X66400Y-148500D02*
D03*
X75700Y-162100D02*
D03*
X2700Y-43400D02*
D03*
X5000Y-25600D02*
D03*
X7500Y-25200D02*
D03*
X29100Y-4000D02*
D03*
X109200Y-40900D02*
D03*
X92700Y-3100D02*
D03*
X6800Y-37300D02*
D03*
X11000Y-56200D02*
D03*
X37300Y-5600D02*
D03*
X32500Y-5700D02*
D03*
X90900Y-15800D02*
D03*
X2400Y-86800D02*
D03*
X2000Y-142200D02*
D03*
X7000Y-181400D02*
D03*
X15300Y-170000D02*
D03*
X9500Y-52800D02*
D03*
X8847Y-55100D02*
D03*
X19100Y-50700D02*
D03*
X107900Y-28000D02*
D03*
X29400Y-30500D02*
D03*
X26800Y-30600D02*
D03*
X58000Y-125900D02*
D03*
X73077Y-145050D02*
D03*
X14200Y-188400D02*
D03*
X17300Y-187900D02*
D03*
X34700Y-188200D02*
D03*
X63600Y-170200D02*
D03*
X47500Y-175700D02*
D03*
X69900Y-175000D02*
D03*
X60300Y-170300D02*
D03*
X66000Y-175200D02*
D03*
X61824Y-174376D02*
D03*
X72200Y-180600D02*
D03*
X40800Y-174800D02*
D03*
X44400Y-170300D02*
D03*
X18400Y-144600D02*
D03*
X23600Y-185900D02*
D03*
X30300Y-167800D02*
D03*
X89500Y-82800D02*
D03*
X9700Y-40000D02*
D03*
X10900Y-64700D02*
D03*
X3200Y-179400D02*
D03*
X16400Y-180300D02*
D03*
X102200Y-67000D02*
D03*
X109100Y-80400D02*
D03*
X111153Y-81600D02*
D03*
X89750Y-86900D02*
D03*
X108700Y-110700D02*
D03*
X101200Y-113700D02*
D03*
X34700Y-63100D02*
D03*
X46000Y-63200D02*
D03*
X42600Y-63000D02*
D03*
X42535Y-71197D02*
D03*
X46300Y-98100D02*
D03*
X30400Y-98400D02*
D03*
X39100Y-70900D02*
D03*
X12546Y-77154D02*
D03*
X41900Y-73700D02*
D03*
X46472Y-75134D02*
D03*
X54346D02*
D03*
X50200Y-74900D02*
D03*
X46000Y-70300D02*
D03*
X14300Y-128600D02*
D03*
X14000Y-131900D02*
D03*
X30400Y-122200D02*
D03*
X26500Y-114400D02*
D03*
Y-106500D02*
D03*
X15400Y-94600D02*
D03*
X69800Y-87400D02*
D03*
X34300Y-86500D02*
D03*
X34400Y-90600D02*
D03*
X14368Y-29331D02*
D03*
X10431D02*
D03*
X14368Y-33268D02*
D03*
X10431D02*
D03*
X10469Y-164868D02*
D03*
Y-160932D02*
D03*
X6532Y-164868D02*
D03*
Y-160932D02*
D03*
X108100Y-76700D02*
D03*
X112000Y-73300D02*
D03*
X80850Y-86016D02*
D03*
X108500Y-116100D02*
D03*
X102900Y-159500D02*
D03*
X107783Y-159541D02*
D03*
X115300Y-180200D02*
D03*
X103982Y-184282D02*
D03*
X110800Y-157500D02*
D03*
X24000Y-3700D02*
D03*
X77900Y-3800D02*
D03*
X1900Y-56300D02*
D03*
Y-24000D02*
D03*
X4900Y-62200D02*
D03*
X5200Y-51000D02*
D03*
X49100Y-188200D02*
D03*
X110500Y-159900D02*
D03*
X92300Y-36700D02*
D03*
X112331Y-69169D02*
D03*
X5600Y-31500D02*
D03*
X2196Y-158100D02*
D03*
X107000Y-64600D02*
D03*
X5531Y-155168D02*
D03*
X5000Y-33968D02*
D03*
X4487Y-29316D02*
D03*
X1896Y-32245D02*
D03*
X102931Y-170069D02*
D03*
X107739Y-179014D02*
D03*
X106869Y-166131D02*
D03*
Y-170069D02*
D03*
X102931Y-166131D02*
D03*
X111900Y-180400D02*
D03*
X105800Y-187400D02*
D03*
X3200Y-155637D02*
D03*
X8563Y-154429D02*
D03*
X18308Y-148236D02*
D03*
Y-150598D02*
D03*
X57978Y-67000D02*
D03*
X115800Y-36200D02*
D03*
X50500Y-117400D02*
D03*
X50600Y-114000D02*
D03*
X34400Y-97900D02*
D03*
X14100Y-24900D02*
D03*
X15300Y-23100D02*
D03*
X44900Y-10100D02*
D03*
X41842Y-10100D02*
D03*
X48100Y-6500D02*
D03*
X25400Y-21900D02*
D03*
X102100Y-85100D02*
D03*
X101900Y-90400D02*
D03*
X104600Y-90900D02*
D03*
X110900Y-94900D02*
D03*
X112200Y-84000D02*
D03*
X108600Y-95700D02*
D03*
X108300Y-91100D02*
D03*
X103800Y-139600D02*
D03*
X69529Y-117877D02*
D03*
Y-102129D02*
D03*
X69700Y-114300D02*
D03*
X73800Y-106400D02*
D03*
X69836Y-106728D02*
D03*
X73850Y-117684D02*
D03*
X101400Y-139600D02*
D03*
X106200Y-129647D02*
D03*
X108100Y-127300D02*
D03*
X89300Y-118100D02*
D03*
X85300Y-121800D02*
D03*
X89600Y-121500D02*
D03*
X93043Y-113905D02*
D03*
X81100Y-102400D02*
D03*
X81340Y-106065D02*
D03*
X85000Y-110400D02*
D03*
X89214Y-102129D02*
D03*
X89200Y-130200D02*
D03*
X105800Y-127347D02*
D03*
X105100Y-123000D02*
D03*
X93100Y-122900D02*
D03*
X92800Y-118300D02*
D03*
X85500Y-129900D02*
D03*
X105200Y-119200D02*
D03*
X101700Y-117500D02*
D03*
X89600Y-125800D02*
D03*
X81500Y-126300D02*
D03*
X78100Y-129900D02*
D03*
X81340Y-121814D02*
D03*
X77500Y-117700D02*
D03*
X81300Y-117400D02*
D03*
X89400Y-110500D02*
D03*
X89700Y-113900D02*
D03*
X74300Y-114100D02*
D03*
X77490Y-107250D02*
D03*
X77500Y-110200D02*
D03*
X87271Y-114538D02*
D03*
X104950Y-72900D02*
D03*
X106000Y-69600D02*
D03*
X114300Y-91000D02*
D03*
X104900Y-96700D02*
D03*
X109600Y-98000D02*
D03*
X106900Y-88000D02*
D03*
X105200Y-86400D02*
D03*
X111000Y-91400D02*
D03*
X114100Y-102900D02*
D03*
X111500Y-102800D02*
D03*
X102753Y-123000D02*
D03*
X99000Y-139400D02*
D03*
X99600Y-133900D02*
D03*
X102200Y-130300D02*
D03*
X103800Y-128600D02*
D03*
X104800Y-131500D02*
D03*
X108500Y-131100D02*
D03*
X113400Y-169400D02*
D03*
X114800Y-160200D02*
D03*
X115100Y-157500D02*
D03*
X114200Y-154400D02*
D03*
X116400Y-151900D02*
D03*
X85100Y-117400D02*
D03*
X81400Y-110500D02*
D03*
X81500Y-114100D02*
D03*
M02*
