G04 Layer_Physical_Order=2*
G04 Layer_Color=16776960*
%FSLAX25Y25*%
%MOIN*%
G70*
G01*
G75*
%ADD10C,0.00500*%
%ADD11C,0.01000*%
%ADD31C,0.00800*%
%ADD32C,0.01200*%
%ADD33C,0.02000*%
%ADD35C,0.01800*%
G36*
X109584Y-60500D02*
X109481Y-60654D01*
X109373Y-61200D01*
X109481Y-61746D01*
X109791Y-62209D01*
X110254Y-62519D01*
X110800Y-62627D01*
X111346Y-62519D01*
X111795Y-62219D01*
X111921Y-62148D01*
X112279D01*
X112405Y-62219D01*
X112854Y-62519D01*
X113400Y-62627D01*
X113946Y-62519D01*
X114409Y-62209D01*
X114412Y-62206D01*
X115078Y-62109D01*
X115178Y-62192D01*
Y-89348D01*
X114678Y-89648D01*
X114300Y-89573D01*
X113754Y-89681D01*
X113291Y-89991D01*
X112981Y-90454D01*
X112873Y-91000D01*
X112981Y-91546D01*
X113291Y-92009D01*
X113754Y-92319D01*
X114300Y-92427D01*
X114678Y-92352D01*
X115178Y-92652D01*
Y-101336D01*
X114678Y-101603D01*
X114646Y-101581D01*
X114100Y-101473D01*
X113554Y-101581D01*
X113119Y-101872D01*
X113091Y-101891D01*
X112533Y-101826D01*
X112509Y-101791D01*
X112046Y-101481D01*
X111500Y-101373D01*
X110954Y-101481D01*
X110491Y-101791D01*
X110181Y-102254D01*
X110073Y-102800D01*
X110181Y-103346D01*
X110491Y-103809D01*
X110954Y-104119D01*
X111500Y-104227D01*
X112046Y-104119D01*
X112481Y-103828D01*
X112509Y-103809D01*
X113067Y-103874D01*
X113091Y-103909D01*
X113554Y-104219D01*
X114100Y-104327D01*
X114646Y-104219D01*
X114678Y-104197D01*
X115178Y-104464D01*
Y-106035D01*
X113214Y-108000D01*
X103976D01*
X103824Y-107500D01*
X104109Y-107309D01*
X104419Y-106846D01*
X104527Y-106300D01*
X104419Y-105754D01*
X104109Y-105291D01*
X103646Y-104981D01*
X103100Y-104873D01*
X102554Y-104981D01*
X102091Y-105291D01*
X101781Y-105754D01*
X101673Y-106300D01*
X101781Y-106846D01*
X102091Y-107309D01*
X102376Y-107500D01*
X102224Y-108000D01*
X92457D01*
X92021Y-107564D01*
X92340Y-107176D01*
X92554Y-107319D01*
X93100Y-107427D01*
X93646Y-107319D01*
X94109Y-107009D01*
X94419Y-106546D01*
X94527Y-106000D01*
X94419Y-105454D01*
X94109Y-104991D01*
X93646Y-104681D01*
X93100Y-104573D01*
X92554Y-104681D01*
X92091Y-104991D01*
X91781Y-105454D01*
X91673Y-106000D01*
X91781Y-106546D01*
X91924Y-106760D01*
X91536Y-107079D01*
X91475Y-107019D01*
X90979Y-106687D01*
X90394Y-106571D01*
X87463D01*
X87027Y-106200D01*
X86919Y-105654D01*
X86609Y-105191D01*
X86146Y-104881D01*
X85600Y-104773D01*
X85054Y-104881D01*
X84591Y-105191D01*
X84281Y-105654D01*
X84173Y-106200D01*
X84281Y-106746D01*
X84591Y-107209D01*
X85026Y-107500D01*
X85031Y-107537D01*
X84796Y-108000D01*
X79228D01*
X78867Y-107500D01*
X78917Y-107250D01*
X78808Y-106704D01*
X78499Y-106241D01*
X78036Y-105931D01*
X77490Y-105823D01*
X76943Y-105931D01*
X76480Y-106241D01*
X76171Y-106704D01*
X76062Y-107250D01*
X76112Y-107500D01*
X75752Y-108000D01*
X74825D01*
X74674Y-107500D01*
X74809Y-107409D01*
X75119Y-106946D01*
X75227Y-106400D01*
X75119Y-105854D01*
X74809Y-105391D01*
X74346Y-105081D01*
X73800Y-104973D01*
X73254Y-105081D01*
X72791Y-105391D01*
X72481Y-105854D01*
X72373Y-106400D01*
X72481Y-106946D01*
X72791Y-107409D01*
X72926Y-107500D01*
X72775Y-108000D01*
X71272D01*
X71004Y-107500D01*
X71155Y-107275D01*
X71264Y-106728D01*
X71155Y-106182D01*
X70846Y-105719D01*
X70382Y-105410D01*
X69836Y-105301D01*
X69290Y-105410D01*
X68827Y-105719D01*
X68517Y-106182D01*
X68409Y-106728D01*
X68517Y-107275D01*
X68668Y-107500D01*
X68401Y-108000D01*
X63383D01*
X63116Y-107500D01*
X63219Y-107346D01*
X63327Y-106800D01*
X63219Y-106254D01*
X62909Y-105791D01*
X62446Y-105481D01*
X61900Y-105373D01*
X61354Y-105481D01*
X60891Y-105791D01*
X60581Y-106254D01*
X60473Y-106800D01*
X60581Y-107346D01*
X60684Y-107500D01*
X60417Y-108000D01*
X55004D01*
X54769Y-107537D01*
X54774Y-107500D01*
X55209Y-107209D01*
X55519Y-106746D01*
X55627Y-106200D01*
X55519Y-105654D01*
X55209Y-105191D01*
X54746Y-104881D01*
X54200Y-104773D01*
X53654Y-104881D01*
X53191Y-105191D01*
X52881Y-105654D01*
X52773Y-106200D01*
X52881Y-106746D01*
X53191Y-107209D01*
X53626Y-107500D01*
X53632Y-107537D01*
X53396Y-108000D01*
X35125D01*
X34974Y-107500D01*
X35109Y-107409D01*
X35419Y-106946D01*
X35527Y-106400D01*
X35419Y-105854D01*
X35109Y-105391D01*
X34646Y-105081D01*
X34100Y-104973D01*
X33554Y-105081D01*
X33091Y-105391D01*
X32781Y-105854D01*
X32673Y-106400D01*
X32781Y-106946D01*
X33091Y-107409D01*
X33226Y-107500D01*
X33075Y-108000D01*
X27675D01*
X27509Y-107509D01*
X27819Y-107046D01*
X27927Y-106500D01*
X27819Y-105954D01*
X27509Y-105491D01*
X27046Y-105181D01*
X26500Y-105073D01*
X25954Y-105181D01*
X25491Y-105491D01*
X25181Y-105954D01*
X25073Y-106500D01*
X25181Y-107046D01*
X25491Y-107509D01*
X25677Y-107634D01*
X25968Y-107963D01*
X26000Y-108299D01*
Y-108472D01*
X25954Y-108481D01*
X25491Y-108791D01*
X25181Y-109254D01*
X25073Y-109800D01*
X25181Y-110346D01*
X25491Y-110809D01*
X25954Y-111119D01*
X26000Y-111128D01*
Y-113072D01*
X25954Y-113081D01*
X25491Y-113391D01*
X25181Y-113854D01*
X25073Y-114400D01*
X25181Y-114946D01*
X25491Y-115409D01*
X25954Y-115719D01*
X26000Y-115728D01*
Y-120232D01*
X25754Y-120281D01*
X25291Y-120591D01*
X24981Y-121054D01*
X24873Y-121600D01*
X24981Y-122146D01*
X25291Y-122609D01*
X25754Y-122919D01*
X26000Y-122968D01*
Y-125472D01*
X25954Y-125481D01*
X25491Y-125791D01*
X25181Y-126254D01*
X25073Y-126800D01*
X25181Y-127346D01*
X25491Y-127809D01*
X25899Y-128082D01*
X25928Y-128350D01*
X25899Y-128618D01*
X25491Y-128891D01*
X25181Y-129354D01*
X25073Y-129900D01*
X25181Y-130446D01*
X25491Y-130909D01*
X25954Y-131219D01*
X26000Y-131228D01*
Y-132782D01*
X25500Y-133193D01*
X25400Y-133173D01*
X24854Y-133281D01*
X24589Y-133458D01*
X24058Y-133283D01*
X24042Y-133268D01*
X24019Y-133154D01*
X23709Y-132691D01*
X23246Y-132381D01*
X22700Y-132273D01*
X22154Y-132381D01*
X21691Y-132691D01*
X21381Y-133154D01*
X21273Y-133700D01*
X21381Y-134246D01*
X21691Y-134709D01*
X22001Y-134916D01*
X22132Y-135244D01*
X22105Y-135519D01*
X21881Y-135854D01*
X21773Y-136400D01*
X21881Y-136946D01*
X22191Y-137409D01*
X22654Y-137719D01*
X23200Y-137827D01*
X23746Y-137719D01*
X24209Y-137409D01*
X24519Y-136946D01*
X24627Y-136400D01*
X24616Y-136343D01*
X24653Y-136277D01*
X25049Y-135958D01*
X25400Y-136027D01*
X25500Y-136007D01*
X26000Y-136418D01*
Y-160000D01*
X11530D01*
X11478Y-159922D01*
X11015Y-159613D01*
X10469Y-159504D01*
X9922Y-159613D01*
X9459Y-159922D01*
X9407Y-160000D01*
X7593D01*
X7541Y-159922D01*
X7078Y-159613D01*
X6532Y-159504D01*
X5985Y-159613D01*
X5522Y-159922D01*
X5470Y-160000D01*
X1014D01*
Y-143754D01*
X1337Y-143581D01*
X1514Y-143531D01*
X2000Y-143627D01*
X2546Y-143519D01*
X3009Y-143209D01*
X3319Y-142746D01*
X3427Y-142200D01*
X3319Y-141654D01*
X3009Y-141191D01*
Y-140909D01*
X3319Y-140446D01*
X3427Y-139900D01*
X3319Y-139354D01*
X3009Y-138891D01*
X2546Y-138581D01*
X2000Y-138473D01*
X1514Y-138569D01*
X1337Y-138519D01*
X1014Y-138346D01*
Y-117592D01*
X1514Y-117325D01*
X1654Y-117419D01*
X2200Y-117527D01*
X2746Y-117419D01*
X3209Y-117109D01*
X3519Y-116646D01*
X3627Y-116100D01*
X3519Y-115554D01*
X3209Y-115091D01*
X2746Y-114781D01*
X2200Y-114673D01*
X1654Y-114781D01*
X1196Y-114518D01*
Y-114349D01*
X1247Y-114302D01*
X1645Y-114037D01*
X2100Y-114127D01*
X2646Y-114019D01*
X3109Y-113709D01*
X3419Y-113246D01*
X3527Y-112700D01*
X3419Y-112154D01*
X3109Y-111691D01*
X2646Y-111381D01*
X2100Y-111273D01*
X1554Y-111381D01*
X1514Y-111408D01*
X1014Y-111141D01*
Y-88113D01*
X1097Y-88045D01*
X1514Y-87892D01*
X1854Y-88119D01*
X2400Y-88227D01*
X2946Y-88119D01*
X3409Y-87809D01*
X3719Y-87346D01*
X3827Y-86800D01*
X3719Y-86254D01*
X3409Y-85791D01*
X2946Y-85481D01*
X2400Y-85373D01*
X1854Y-85481D01*
X1514Y-85708D01*
X1097Y-85555D01*
X1014Y-85487D01*
Y-82000D01*
X11917D01*
X12191Y-82409D01*
X12654Y-82719D01*
X13200Y-82827D01*
X13746Y-82719D01*
X14209Y-82409D01*
X14483Y-82000D01*
X25150D01*
X25417Y-82500D01*
X25381Y-82554D01*
X25273Y-83100D01*
X25381Y-83646D01*
X25691Y-84109D01*
X26154Y-84419D01*
X26700Y-84527D01*
X27246Y-84419D01*
X27709Y-84109D01*
X28019Y-83646D01*
X28127Y-83100D01*
X28019Y-82554D01*
X27983Y-82500D01*
X28250Y-82000D01*
X40595D01*
X40932Y-82500D01*
X40873Y-82800D01*
X40981Y-83346D01*
X41291Y-83809D01*
X41754Y-84119D01*
X42300Y-84227D01*
X42846Y-84119D01*
X43309Y-83809D01*
X43619Y-83346D01*
X43727Y-82800D01*
X43619Y-82254D01*
X43309Y-81791D01*
X42846Y-81481D01*
X42300Y-81373D01*
X42000Y-81126D01*
Y-75108D01*
X42446Y-75019D01*
X42909Y-74709D01*
X43219Y-74246D01*
X43327Y-73700D01*
X43219Y-73154D01*
X43127Y-73017D01*
X43083Y-72545D01*
X43266Y-72393D01*
X43544Y-72207D01*
X43853Y-71744D01*
X43962Y-71197D01*
X43859Y-70681D01*
X43876Y-70613D01*
X44127Y-70195D01*
X44467Y-70171D01*
X44573Y-70300D01*
X44681Y-70846D01*
X44991Y-71309D01*
X45454Y-71619D01*
X46000Y-71727D01*
X46546Y-71619D01*
X47009Y-71309D01*
X47319Y-70846D01*
X47427Y-70300D01*
X47674Y-70000D01*
X48426D01*
X48673Y-70300D01*
X48781Y-70846D01*
X49091Y-71309D01*
X49554Y-71619D01*
X50100Y-71727D01*
X50646Y-71619D01*
X51109Y-71309D01*
X51419Y-70846D01*
X51527Y-70300D01*
X51774Y-70000D01*
X52495D01*
X52832Y-70500D01*
X52773Y-70800D01*
X52881Y-71346D01*
X53191Y-71809D01*
X53654Y-72119D01*
X54200Y-72227D01*
X54746Y-72119D01*
X55209Y-71809D01*
X55519Y-71346D01*
X55627Y-70800D01*
X55568Y-70500D01*
X55905Y-70000D01*
X56497D01*
X56907Y-70500D01*
X56888Y-70600D01*
X56996Y-71146D01*
X57306Y-71609D01*
X57769Y-71919D01*
X58315Y-72027D01*
X58861Y-71919D01*
X59324Y-71609D01*
X59634Y-71146D01*
X59742Y-70600D01*
X59723Y-70500D01*
X60061Y-70087D01*
X60529Y-70115D01*
X60752Y-70547D01*
X60681Y-70654D01*
X60573Y-71200D01*
X60681Y-71746D01*
X60991Y-72209D01*
X61454Y-72519D01*
X62000Y-72627D01*
X62546Y-72519D01*
X63009Y-72209D01*
X63319Y-71746D01*
X63427Y-71200D01*
X63319Y-70654D01*
X63216Y-70500D01*
X63483Y-70000D01*
X64725D01*
X64891Y-70491D01*
X64581Y-70954D01*
X64473Y-71500D01*
X64581Y-72046D01*
X64891Y-72509D01*
X65354Y-72819D01*
X65900Y-72927D01*
X66446Y-72819D01*
X66909Y-72509D01*
X67219Y-72046D01*
X67327Y-71500D01*
X67219Y-70954D01*
X66909Y-70491D01*
X67075Y-70000D01*
X72295D01*
X72632Y-70500D01*
X72573Y-70800D01*
X72681Y-71346D01*
X72991Y-71809D01*
X73454Y-72119D01*
X74000Y-72227D01*
X74546Y-72119D01*
X75009Y-71809D01*
X75319Y-71346D01*
X75427Y-70800D01*
X75692Y-70575D01*
X75973Y-70900D01*
X76081Y-71446D01*
X76391Y-71909D01*
X76854Y-72219D01*
X77400Y-72327D01*
X77946Y-72219D01*
X78409Y-71909D01*
X78719Y-71446D01*
X78827Y-70900D01*
X78748Y-70500D01*
X79038Y-70000D01*
X80524D01*
X80676Y-70500D01*
X80391Y-70691D01*
X80081Y-71154D01*
X79973Y-71700D01*
X80081Y-72246D01*
X80391Y-72709D01*
X80854Y-73019D01*
X81400Y-73127D01*
X81946Y-73019D01*
X82409Y-72709D01*
X82719Y-72246D01*
X82827Y-71700D01*
X82719Y-71154D01*
X82409Y-70691D01*
X82124Y-70500D01*
X82276Y-70000D01*
X96000D01*
Y-60000D01*
X109317D01*
X109584Y-60500D01*
D02*
G37*
G36*
X117301Y-150263D02*
X116801Y-150552D01*
X116400Y-150473D01*
X115854Y-150581D01*
X115391Y-150891D01*
X115081Y-151354D01*
X114973Y-151900D01*
X115081Y-152446D01*
X115391Y-152909D01*
X115854Y-153219D01*
X116400Y-153327D01*
X116801Y-153248D01*
X117301Y-153537D01*
Y-183941D01*
X112898D01*
Y-183923D01*
X111842Y-184062D01*
X110859Y-184470D01*
X110014Y-185118D01*
X109366Y-185962D01*
X108958Y-186946D01*
X108819Y-188002D01*
X108837D01*
Y-199689D01*
X48061D01*
Y-189791D01*
X48554Y-189519D01*
X49100Y-189627D01*
X49646Y-189519D01*
X50109Y-189209D01*
X50419Y-188746D01*
X50527Y-188200D01*
X50419Y-187654D01*
X50109Y-187191D01*
X49646Y-186881D01*
X49100Y-186773D01*
X48554Y-186881D01*
X48061Y-186609D01*
Y-184852D01*
X48078D01*
X47939Y-183796D01*
X47532Y-182813D01*
X46884Y-181968D01*
X46039Y-181320D01*
X45055Y-180913D01*
X44000Y-180774D01*
X42944Y-180913D01*
X41961Y-181320D01*
X41116Y-181968D01*
X40468Y-182813D01*
X40061Y-183796D01*
X39922Y-184852D01*
X39939D01*
Y-199689D01*
X9478D01*
Y-188002D01*
X9495D01*
X9357Y-186946D01*
X8949Y-185962D01*
X8301Y-185118D01*
X7456Y-184470D01*
X6473Y-184062D01*
X5417Y-183923D01*
Y-183941D01*
X1763D01*
X1014Y-183753D01*
Y-162000D01*
X5611D01*
X5985Y-162250D01*
X6532Y-162359D01*
X7078Y-162250D01*
X7452Y-162000D01*
X9548D01*
X9922Y-162250D01*
X10469Y-162359D01*
X11015Y-162250D01*
X11389Y-162000D01*
X28000Y-162000D01*
Y-157848D01*
X28146Y-157819D01*
X28609Y-157509D01*
X28919Y-157046D01*
X29027Y-156500D01*
X28919Y-155954D01*
X28609Y-155491D01*
X28146Y-155181D01*
X28000Y-155152D01*
Y-143071D01*
X28500Y-142781D01*
X28900Y-142861D01*
X29446Y-142752D01*
X29909Y-142443D01*
X30219Y-141980D01*
X30327Y-141433D01*
X30219Y-140887D01*
X29909Y-140424D01*
X29446Y-140115D01*
X28900Y-140006D01*
X28500Y-140086D01*
X28000Y-139795D01*
Y-136106D01*
X28500Y-135849D01*
X28754Y-136019D01*
X29300Y-136127D01*
X29846Y-136019D01*
X30309Y-135709D01*
X30619Y-135246D01*
X30727Y-134700D01*
X30619Y-134154D01*
X30309Y-133691D01*
X29846Y-133381D01*
X29300Y-133273D01*
X28754Y-133381D01*
X28500Y-133551D01*
X28000Y-133294D01*
Y-110000D01*
X52258D01*
X52575Y-110387D01*
X52573Y-110400D01*
X52681Y-110946D01*
X52991Y-111409D01*
X53454Y-111719D01*
X54000Y-111827D01*
X54546Y-111719D01*
X55009Y-111409D01*
X55319Y-110946D01*
X55427Y-110400D01*
X55425Y-110387D01*
X55742Y-110000D01*
X64366D01*
X64418Y-110262D01*
X64727Y-110725D01*
X65191Y-111035D01*
X65737Y-111143D01*
X66283Y-111035D01*
X66746Y-110725D01*
X67055Y-110262D01*
X67108Y-110000D01*
X68732D01*
X68781Y-110246D01*
X69091Y-110709D01*
X69554Y-111019D01*
X70100Y-111127D01*
X70646Y-111019D01*
X71109Y-110709D01*
X71419Y-110246D01*
X71468Y-110000D01*
X72308D01*
X72473Y-110200D01*
X72581Y-110746D01*
X72891Y-111209D01*
X73354Y-111519D01*
X73900Y-111627D01*
X74446Y-111519D01*
X74909Y-111209D01*
X75219Y-110746D01*
X75327Y-110200D01*
X75444Y-110059D01*
X75956D01*
X76073Y-110200D01*
X76181Y-110746D01*
X76491Y-111209D01*
X76954Y-111519D01*
X77500Y-111627D01*
X78046Y-111519D01*
X78509Y-111209D01*
X78819Y-110746D01*
X78927Y-110200D01*
X79092Y-110000D01*
X79678D01*
X79995Y-110387D01*
X79973Y-110500D01*
X80081Y-111046D01*
X80391Y-111509D01*
X80854Y-111819D01*
X81400Y-111927D01*
X81946Y-111819D01*
X82409Y-111509D01*
X82719Y-111046D01*
X82827Y-110500D01*
X83256Y-110388D01*
X83471Y-110400D01*
X83587Y-110985D01*
X83919Y-111481D01*
X84415Y-111813D01*
X85000Y-111929D01*
X85585Y-111813D01*
X86081Y-111481D01*
X87281Y-110282D01*
X87504Y-110292D01*
X87973Y-110500D01*
X88081Y-111046D01*
X88391Y-111509D01*
X88854Y-111819D01*
X89400Y-111927D01*
X89946Y-111819D01*
X90409Y-111509D01*
X90619Y-111195D01*
X91188Y-111056D01*
X91413Y-111281D01*
X91909Y-111613D01*
X92494Y-111729D01*
X100205D01*
X100446Y-112021D01*
X100351Y-112583D01*
X100191Y-112691D01*
X99881Y-113154D01*
X99773Y-113700D01*
X99881Y-114246D01*
X100191Y-114709D01*
X100654Y-115019D01*
X101200Y-115127D01*
X101746Y-115019D01*
X102209Y-114709D01*
X102519Y-114246D01*
X102580Y-113938D01*
X102679Y-113927D01*
X103095Y-114385D01*
X103073Y-114500D01*
X103181Y-115046D01*
X103491Y-115509D01*
X103628Y-115601D01*
X103939Y-115850D01*
X103756Y-116242D01*
X103681Y-116354D01*
X103573Y-116900D01*
X103681Y-117446D01*
X103991Y-117909D01*
X104191Y-118043D01*
Y-118191D01*
X103881Y-118654D01*
X103773Y-119200D01*
X103881Y-119746D01*
X104191Y-120209D01*
X104654Y-120519D01*
X105200Y-120627D01*
X105746Y-120519D01*
X106209Y-120209D01*
X106519Y-119746D01*
X106627Y-119200D01*
X106519Y-118654D01*
X106209Y-118191D01*
X106009Y-118057D01*
Y-117909D01*
X106319Y-117446D01*
X106427Y-116900D01*
X106319Y-116354D01*
X106009Y-115891D01*
X105872Y-115799D01*
X105561Y-115550D01*
X105744Y-115158D01*
X105819Y-115046D01*
X105911Y-114581D01*
X106164Y-114439D01*
X106412Y-114375D01*
X106971Y-114934D01*
Y-116100D01*
X107087Y-116685D01*
X107419Y-117181D01*
X107915Y-117513D01*
X108500Y-117629D01*
X109085Y-117513D01*
X109581Y-117181D01*
X109913Y-116685D01*
X110029Y-116100D01*
Y-114357D01*
X114386Y-110000D01*
X117301D01*
Y-150263D01*
D02*
G37*
G36*
X95953Y-22269D02*
X117301D01*
Y-23318D01*
X116801Y-23585D01*
X116646Y-23481D01*
X116100Y-23373D01*
X115554Y-23481D01*
X115091Y-23791D01*
X114566Y-23676D01*
X114509Y-23591D01*
X114046Y-23281D01*
X113500Y-23173D01*
X112954Y-23281D01*
X112491Y-23591D01*
X112181Y-24054D01*
X112145Y-24236D01*
X111635D01*
X111619Y-24154D01*
X111309Y-23691D01*
X110846Y-23381D01*
X110300Y-23273D01*
X109754Y-23381D01*
X109291Y-23691D01*
X108981Y-24154D01*
X108873Y-24700D01*
X108981Y-25246D01*
X109291Y-25709D01*
X109754Y-26019D01*
X110300Y-26127D01*
X110846Y-26019D01*
X111309Y-25709D01*
X111619Y-25246D01*
X111655Y-25064D01*
X112165D01*
X112181Y-25146D01*
X112491Y-25609D01*
X112954Y-25919D01*
X113500Y-26027D01*
X114046Y-25919D01*
X114509Y-25609D01*
X115034Y-25724D01*
X115091Y-25809D01*
X115554Y-26119D01*
X116100Y-26227D01*
X116646Y-26119D01*
X116801Y-26015D01*
X117301Y-26282D01*
Y-35027D01*
X116809Y-35191D01*
X116346Y-34881D01*
X115800Y-34773D01*
X115254Y-34881D01*
X114791Y-35191D01*
X114533Y-35576D01*
X114190Y-35580D01*
X114006Y-35534D01*
X113709Y-35091D01*
X113246Y-34781D01*
X112700Y-34673D01*
X112154Y-34781D01*
X111691Y-35091D01*
X111381Y-35554D01*
X111273Y-36100D01*
X111381Y-36646D01*
X111691Y-37109D01*
X112154Y-37419D01*
X112700Y-37527D01*
X113246Y-37419D01*
X113709Y-37109D01*
X113967Y-36724D01*
X114311Y-36720D01*
X114494Y-36766D01*
X114791Y-37209D01*
X115254Y-37519D01*
X115800Y-37627D01*
X116346Y-37519D01*
X116809Y-37209D01*
X117301Y-37373D01*
Y-58000D01*
X107968D01*
X107919Y-57754D01*
X107609Y-57291D01*
X107146Y-56981D01*
X106600Y-56873D01*
X106054Y-56981D01*
X105858Y-57112D01*
X105309Y-57191D01*
X104846Y-56881D01*
X104664Y-56845D01*
Y-56335D01*
X104746Y-56319D01*
X105209Y-56009D01*
X105519Y-55546D01*
X105627Y-55000D01*
X105519Y-54454D01*
X105209Y-53991D01*
X104746Y-53681D01*
X104472Y-53627D01*
X104027Y-53300D01*
X103919Y-52754D01*
X103609Y-52291D01*
X103146Y-51981D01*
X102600Y-51873D01*
X102054Y-51981D01*
X101591Y-52291D01*
X101281Y-52754D01*
X101173Y-53300D01*
X101281Y-53846D01*
X101591Y-54309D01*
X102054Y-54619D01*
X102328Y-54673D01*
X102348Y-54688D01*
X102347Y-54812D01*
X102100Y-55273D01*
X101554Y-55381D01*
X101091Y-55691D01*
X100781Y-56154D01*
X100673Y-56700D01*
X100781Y-57246D01*
X100951Y-57500D01*
X100694Y-58000D01*
X94000D01*
Y-58096D01*
X93883Y-58185D01*
X93500Y-58318D01*
X93146Y-58081D01*
X92600Y-57973D01*
X92054Y-58081D01*
X91591Y-58391D01*
X91281Y-58854D01*
X91173Y-59400D01*
X91281Y-59946D01*
X91591Y-60409D01*
X92054Y-60719D01*
X92600Y-60827D01*
X93146Y-60719D01*
X93500Y-60482D01*
X93883Y-60615D01*
X94000Y-60704D01*
Y-68000D01*
X91106D01*
X90849Y-67500D01*
X91019Y-67246D01*
X91127Y-66700D01*
X91019Y-66154D01*
X90709Y-65691D01*
X90438Y-65509D01*
X90270Y-65214D01*
X90316Y-64885D01*
X90499Y-64610D01*
X90608Y-64064D01*
X90499Y-63518D01*
X90190Y-63055D01*
X89727Y-62745D01*
X89180Y-62637D01*
X88634Y-62745D01*
X88171Y-63055D01*
X87862Y-63518D01*
X87753Y-64064D01*
X87862Y-64610D01*
X88171Y-65074D01*
X88443Y-65255D01*
X88611Y-65550D01*
X88565Y-65879D01*
X88381Y-66154D01*
X88273Y-66700D01*
X88381Y-67246D01*
X88551Y-67500D01*
X88294Y-68000D01*
X87022D01*
X86656Y-67500D01*
X86704Y-67260D01*
X86595Y-66714D01*
X86286Y-66251D01*
X85823Y-65942D01*
X85683Y-65914D01*
Y-65404D01*
X85790Y-65383D01*
X86253Y-65074D01*
X86562Y-64610D01*
X86671Y-64064D01*
X86562Y-63518D01*
X86253Y-63055D01*
X85790Y-62745D01*
X85243Y-62637D01*
X84697Y-62745D01*
X84234Y-63055D01*
X83925Y-63518D01*
X83816Y-64064D01*
X83925Y-64610D01*
X84234Y-65074D01*
X84697Y-65383D01*
X84837Y-65411D01*
Y-65921D01*
X84730Y-65942D01*
X84267Y-66251D01*
X83958Y-66714D01*
X83849Y-67260D01*
X83897Y-67500D01*
X83531Y-68000D01*
X71609D01*
X71300Y-67623D01*
X71191Y-67077D01*
X70881Y-66614D01*
X70418Y-66305D01*
X69872Y-66196D01*
X69326Y-66305D01*
X68863Y-66614D01*
X68553Y-67077D01*
X68445Y-67623D01*
X68136Y-68000D01*
X59524D01*
X59326Y-67630D01*
X59306Y-67500D01*
X59405Y-67000D01*
X59297Y-66454D01*
X58987Y-65991D01*
X58524Y-65681D01*
X57978Y-65573D01*
X57432Y-65681D01*
X56969Y-65991D01*
X56659Y-66454D01*
X56551Y-67000D01*
X56650Y-67500D01*
X56630Y-67630D01*
X56432Y-68000D01*
X55653D01*
X55488Y-67691D01*
X55431Y-67500D01*
X55527Y-67015D01*
X55419Y-66469D01*
X55109Y-66006D01*
X54646Y-65696D01*
X54100Y-65588D01*
X53554Y-65696D01*
X53091Y-66006D01*
X52781Y-66469D01*
X52673Y-67015D01*
X52769Y-67500D01*
X52712Y-67691D01*
X52547Y-68000D01*
X51846D01*
X51648Y-67630D01*
X51628Y-67500D01*
X51727Y-67000D01*
X51619Y-66454D01*
X51309Y-65991D01*
X50846Y-65681D01*
X50300Y-65573D01*
X49754Y-65681D01*
X49291Y-65991D01*
X48981Y-66454D01*
X48873Y-67000D01*
X48972Y-67500D01*
X48952Y-67630D01*
X48754Y-68000D01*
X47746D01*
X47548Y-67630D01*
X47528Y-67500D01*
X47627Y-67000D01*
X47519Y-66454D01*
X47209Y-65991D01*
X46746Y-65681D01*
X46200Y-65573D01*
X45654Y-65681D01*
X45191Y-65991D01*
X44881Y-66454D01*
X44773Y-67000D01*
X44872Y-67500D01*
X44852Y-67630D01*
X44654Y-68000D01*
X40000D01*
Y-69262D01*
X39500Y-69552D01*
X39100Y-69473D01*
X38554Y-69581D01*
X38091Y-69891D01*
X37781Y-70354D01*
X37673Y-70900D01*
X37781Y-71446D01*
X38091Y-71909D01*
X38554Y-72219D01*
X39100Y-72327D01*
X39500Y-72248D01*
X40000Y-72538D01*
Y-74513D01*
X39500Y-74562D01*
X39419Y-74154D01*
X39109Y-73691D01*
X38646Y-73381D01*
X38100Y-73273D01*
X37554Y-73381D01*
X37091Y-73691D01*
X36781Y-74154D01*
X36673Y-74700D01*
X36781Y-75246D01*
X37091Y-75709D01*
X37554Y-76019D01*
X38100Y-76127D01*
X38646Y-76019D01*
X39109Y-75709D01*
X39419Y-75246D01*
X39500Y-74838D01*
X40000Y-74887D01*
Y-80000D01*
X28405D01*
X28068Y-79500D01*
X28127Y-79200D01*
X28019Y-78654D01*
X27709Y-78191D01*
X27246Y-77881D01*
X26700Y-77773D01*
X26154Y-77881D01*
X25691Y-78191D01*
X25381Y-78654D01*
X25273Y-79200D01*
X25332Y-79500D01*
X24995Y-80000D01*
X15650D01*
X15383Y-79500D01*
X15419Y-79446D01*
X15527Y-78900D01*
X15419Y-78354D01*
X15109Y-77891D01*
X14646Y-77581D01*
X14100Y-77473D01*
X13941Y-76994D01*
X13865Y-76608D01*
X13555Y-76145D01*
X13092Y-75835D01*
X12546Y-75727D01*
X12000Y-75835D01*
X11536Y-76145D01*
X11227Y-76608D01*
X11118Y-77154D01*
X11185Y-77488D01*
X11100Y-77573D01*
X10554Y-77681D01*
X10091Y-77991D01*
X9781Y-78454D01*
X9673Y-79000D01*
X9772Y-79500D01*
X9752Y-79630D01*
X9554Y-80000D01*
X1014D01*
Y-70395D01*
X1383Y-70251D01*
X1514Y-70225D01*
X1954Y-70519D01*
X2500Y-70627D01*
X3046Y-70519D01*
X3509Y-70209D01*
X3819Y-69746D01*
X3927Y-69200D01*
X3819Y-68654D01*
X3509Y-68191D01*
X3046Y-67881D01*
X2500Y-67773D01*
X1954Y-67881D01*
X1514Y-68175D01*
X1383Y-68149D01*
X1014Y-68005D01*
Y-57947D01*
X1514Y-57651D01*
X1900Y-57727D01*
X2446Y-57619D01*
X2909Y-57309D01*
X3219Y-56846D01*
X3327Y-56300D01*
X3219Y-55754D01*
X2909Y-55291D01*
X2446Y-54981D01*
X1900Y-54873D01*
X1514Y-54949D01*
X1014Y-54653D01*
Y-44296D01*
X1514Y-44144D01*
X1691Y-44409D01*
X2154Y-44719D01*
X2700Y-44827D01*
X3246Y-44719D01*
X3709Y-44409D01*
X4019Y-43946D01*
X4127Y-43400D01*
X4019Y-42854D01*
X3709Y-42391D01*
X3246Y-42081D01*
X2700Y-41973D01*
X2154Y-42081D01*
X1691Y-42391D01*
X1514Y-42656D01*
X1014Y-42504D01*
Y-33895D01*
X1514Y-33596D01*
X1896Y-33672D01*
X2442Y-33564D01*
X2905Y-33254D01*
X3215Y-32791D01*
X3323Y-32245D01*
X3215Y-31699D01*
X2905Y-31235D01*
X2442Y-30926D01*
X1896Y-30817D01*
X1514Y-30893D01*
X1014Y-30595D01*
Y-25647D01*
X1514Y-25351D01*
X1900Y-25427D01*
X2446Y-25319D01*
X2909Y-25009D01*
X3219Y-24546D01*
X3327Y-24000D01*
X3219Y-23454D01*
X2909Y-22991D01*
X2578Y-22769D01*
X2730Y-22269D01*
X22362D01*
Y-15134D01*
X22749Y-14817D01*
X22800Y-14827D01*
X23346Y-14719D01*
X23809Y-14409D01*
X24119Y-13946D01*
X24227Y-13400D01*
X24119Y-12854D01*
X23809Y-12391D01*
X23346Y-12081D01*
X22800Y-11973D01*
X22749Y-11983D01*
X22362Y-11666D01*
Y-4669D01*
X22862Y-4517D01*
X22991Y-4709D01*
X23454Y-5019D01*
X24000Y-5127D01*
X24546Y-5019D01*
X25009Y-4709D01*
X25319Y-4246D01*
X25427Y-3700D01*
X25319Y-3154D01*
X25009Y-2691D01*
X24546Y-2381D01*
X24000Y-2273D01*
X23454Y-2381D01*
X22991Y-2691D01*
X22862Y-2883D01*
X22362Y-2731D01*
Y-999D01*
X52876D01*
X53027Y-1499D01*
X52891Y-1591D01*
X52581Y-2054D01*
X52508Y-2422D01*
X52090Y-2659D01*
X51987Y-2675D01*
X51846Y-2581D01*
X51300Y-2473D01*
X50754Y-2581D01*
X50291Y-2891D01*
X50100Y-3175D01*
X49573Y-3226D01*
X49522Y-3210D01*
X49509Y-3191D01*
X49046Y-2881D01*
X48500Y-2773D01*
X47954Y-2881D01*
X47491Y-3191D01*
X47181Y-3654D01*
X47073Y-4200D01*
X47181Y-4746D01*
X47219Y-4803D01*
X47091Y-5491D01*
X46781Y-5954D01*
X46673Y-6500D01*
X46781Y-7046D01*
X47091Y-7509D01*
X47554Y-7819D01*
X48100Y-7927D01*
X48646Y-7819D01*
X49109Y-7509D01*
X49419Y-7046D01*
X49527Y-6500D01*
X49419Y-5954D01*
X49381Y-5897D01*
X49509Y-5209D01*
X49700Y-4925D01*
X50227Y-4874D01*
X50278Y-4890D01*
X50291Y-4909D01*
X50754Y-5219D01*
X51300Y-5327D01*
X51693Y-5249D01*
X51962Y-5334D01*
X52208Y-5578D01*
X52281Y-5946D01*
X52591Y-6409D01*
X53054Y-6719D01*
X53600Y-6827D01*
X54146Y-6719D01*
X54609Y-6409D01*
X54919Y-5946D01*
X55027Y-5400D01*
X54919Y-4854D01*
X54609Y-4391D01*
X54590Y-4378D01*
X54575Y-4327D01*
X54625Y-3799D01*
X54909Y-3609D01*
X55219Y-3146D01*
X55327Y-2600D01*
X55219Y-2054D01*
X54909Y-1591D01*
X54773Y-1499D01*
X54924Y-999D01*
X95953D01*
Y-22269D01*
D02*
G37*
G36*
X44861Y-182774D02*
X45590Y-183262D01*
X46078Y-183991D01*
X46244Y-184825D01*
X46238Y-184852D01*
Y-200000D01*
X41762D01*
Y-184852D01*
X41756Y-184825D01*
X41922Y-183991D01*
X42410Y-183262D01*
X43139Y-182774D01*
X44000Y-182603D01*
X44861Y-182774D01*
D02*
G37*
%LPC*%
G36*
X70500Y-120673D02*
X69954Y-120781D01*
X69491Y-121091D01*
X69181Y-121554D01*
X69073Y-122100D01*
X69181Y-122646D01*
X69491Y-123109D01*
X69954Y-123419D01*
X70500Y-123527D01*
X71046Y-123419D01*
X71509Y-123109D01*
X71798Y-122677D01*
X71929Y-122661D01*
X72315Y-122714D01*
X72381Y-123046D01*
X72691Y-123509D01*
X73154Y-123819D01*
X73700Y-123927D01*
X74246Y-123819D01*
X74709Y-123509D01*
X75019Y-123046D01*
X75127Y-122500D01*
X75019Y-121954D01*
X74709Y-121491D01*
X74246Y-121181D01*
X73700Y-121073D01*
X73154Y-121181D01*
X72691Y-121491D01*
X72402Y-121923D01*
X72271Y-121939D01*
X71885Y-121886D01*
X71819Y-121554D01*
X71509Y-121091D01*
X71046Y-120781D01*
X70500Y-120673D01*
D02*
G37*
G36*
X50200Y-120798D02*
X49654Y-120906D01*
X49191Y-121216D01*
X48881Y-121679D01*
X48773Y-122225D01*
X48881Y-122771D01*
X49191Y-123234D01*
X49654Y-123544D01*
X50200Y-123652D01*
X50746Y-123544D01*
X51209Y-123234D01*
X51519Y-122771D01*
X51627Y-122225D01*
X51519Y-121679D01*
X51209Y-121216D01*
X50746Y-120906D01*
X50200Y-120798D01*
D02*
G37*
G36*
X57700Y-117673D02*
X57154Y-117781D01*
X56691Y-118091D01*
X56381Y-118554D01*
X56273Y-119100D01*
X56381Y-119646D01*
X56691Y-120109D01*
X57154Y-120419D01*
X57218Y-120941D01*
X56995Y-121091D01*
X56685Y-121554D01*
X56577Y-122100D01*
X56685Y-122646D01*
X56995Y-123109D01*
X57458Y-123419D01*
X58004Y-123527D01*
X58550Y-123419D01*
X59013Y-123109D01*
X59323Y-122646D01*
X59431Y-122100D01*
X59323Y-121554D01*
X59013Y-121091D01*
X58550Y-120781D01*
X58486Y-120259D01*
X58709Y-120109D01*
X59019Y-119646D01*
X59127Y-119100D01*
X59019Y-118554D01*
X58709Y-118091D01*
X58246Y-117781D01*
X57700Y-117673D01*
D02*
G37*
G36*
X38400Y-120673D02*
X37854Y-120781D01*
X37391Y-121091D01*
X37081Y-121554D01*
X36973Y-122100D01*
X37081Y-122646D01*
X37391Y-123109D01*
X37854Y-123419D01*
X38400Y-123527D01*
X38946Y-123419D01*
X39409Y-123109D01*
X39719Y-122646D01*
X39827Y-122100D01*
X39719Y-121554D01*
X39409Y-121091D01*
X38946Y-120781D01*
X38400Y-120673D01*
D02*
G37*
G36*
X108100Y-125873D02*
X107554Y-125981D01*
X107091Y-126291D01*
X107059Y-126338D01*
X106809D01*
X106346Y-126029D01*
X105800Y-125920D01*
X105254Y-126029D01*
X104791Y-126338D01*
X104481Y-126801D01*
X104479Y-126814D01*
X103904Y-127193D01*
X103800Y-127173D01*
X103254Y-127281D01*
X102791Y-127591D01*
X102481Y-128054D01*
X102411Y-128405D01*
X102299Y-128654D01*
X101928Y-128927D01*
X101654Y-128981D01*
X101191Y-129291D01*
X100881Y-129754D01*
X100773Y-130300D01*
X100881Y-130846D01*
X101191Y-131309D01*
X101654Y-131619D01*
X102200Y-131727D01*
X102746Y-131619D01*
X102898Y-131517D01*
X103426Y-131766D01*
X103481Y-132046D01*
X103791Y-132509D01*
X104254Y-132819D01*
X104800Y-132927D01*
X105346Y-132819D01*
X105809Y-132509D01*
X106119Y-132046D01*
X106227Y-131500D01*
X106185Y-131287D01*
X106632Y-131009D01*
X106835Y-131051D01*
X107116Y-131320D01*
X107181Y-131646D01*
X107491Y-132109D01*
X107954Y-132419D01*
X108500Y-132527D01*
X109046Y-132419D01*
X109509Y-132109D01*
X109819Y-131646D01*
X109927Y-131100D01*
X109819Y-130554D01*
X109509Y-130091D01*
X109046Y-129781D01*
X108500Y-129673D01*
X108117Y-129749D01*
X107865Y-129697D01*
X107584Y-129427D01*
X107519Y-129101D01*
X107835Y-128675D01*
X108100Y-128727D01*
X108646Y-128619D01*
X109109Y-128309D01*
X109419Y-127846D01*
X109527Y-127300D01*
X109419Y-126754D01*
X109109Y-126291D01*
X108646Y-125981D01*
X108100Y-125873D01*
D02*
G37*
G36*
X64600Y-124273D02*
X64054Y-124381D01*
X63591Y-124691D01*
X63281Y-125154D01*
X63173Y-125700D01*
X63281Y-126246D01*
X63591Y-126709D01*
X64054Y-127019D01*
X64600Y-127127D01*
X65146Y-127019D01*
X65609Y-126709D01*
X65919Y-126246D01*
X66027Y-125700D01*
X65919Y-125154D01*
X65609Y-124691D01*
X65146Y-124381D01*
X64600Y-124273D01*
D02*
G37*
G36*
X89600Y-124373D02*
X89054Y-124481D01*
X88591Y-124791D01*
X88281Y-125254D01*
X88173Y-125800D01*
X88281Y-126346D01*
X88591Y-126809D01*
X89054Y-127119D01*
X89600Y-127227D01*
X90146Y-127119D01*
X90609Y-126809D01*
X90919Y-126346D01*
X91027Y-125800D01*
X90919Y-125254D01*
X90609Y-124791D01*
X90146Y-124481D01*
X89600Y-124373D01*
D02*
G37*
G36*
X93100Y-121473D02*
X92554Y-121581D01*
X92091Y-121891D01*
X91781Y-122354D01*
X91673Y-122900D01*
X91781Y-123446D01*
X92091Y-123909D01*
X92554Y-124219D01*
X93100Y-124327D01*
X93646Y-124219D01*
X94109Y-123909D01*
X94419Y-123446D01*
X94527Y-122900D01*
X94419Y-122354D01*
X94109Y-121891D01*
X93646Y-121581D01*
X93100Y-121473D01*
D02*
G37*
G36*
X14000Y-122773D02*
X13454Y-122881D01*
X12991Y-123191D01*
X12681Y-123654D01*
X12573Y-124200D01*
X12681Y-124746D01*
X12991Y-125209D01*
X13454Y-125519D01*
X14000Y-125627D01*
X14546Y-125519D01*
X15009Y-125209D01*
X15319Y-124746D01*
X15427Y-124200D01*
X15319Y-123654D01*
X15009Y-123191D01*
X14546Y-122881D01*
X14000Y-122773D01*
D02*
G37*
G36*
X77500Y-124673D02*
X76954Y-124781D01*
X76491Y-125091D01*
X76181Y-125554D01*
X76105Y-125937D01*
X75595D01*
X75563Y-125776D01*
X75519Y-125554D01*
X75209Y-125091D01*
X74746Y-124781D01*
X74200Y-124673D01*
X73654Y-124781D01*
X73191Y-125091D01*
X72881Y-125554D01*
X72773Y-126100D01*
X72881Y-126646D01*
X73191Y-127109D01*
X73654Y-127419D01*
X74200Y-127527D01*
X74746Y-127419D01*
X75209Y-127109D01*
X75519Y-126646D01*
X75595Y-126262D01*
X76105D01*
X76137Y-126424D01*
X76181Y-126646D01*
X76491Y-127109D01*
X76954Y-127419D01*
X77500Y-127527D01*
X78046Y-127419D01*
X78509Y-127109D01*
X78819Y-126646D01*
X78927Y-126100D01*
X78819Y-125554D01*
X78509Y-125091D01*
X78046Y-124781D01*
X77500Y-124673D01*
D02*
G37*
G36*
X105100Y-121573D02*
X104554Y-121681D01*
X104279Y-121865D01*
X103926Y-121951D01*
X103574Y-121865D01*
X103299Y-121681D01*
X102753Y-121573D01*
X102206Y-121681D01*
X101743Y-121991D01*
X101434Y-122454D01*
X101325Y-123000D01*
X101434Y-123546D01*
X101743Y-124009D01*
X102206Y-124319D01*
X102753Y-124427D01*
X103299Y-124319D01*
X103574Y-124135D01*
X103926Y-124049D01*
X104279Y-124135D01*
X104554Y-124319D01*
X105100Y-124427D01*
X105646Y-124319D01*
X106109Y-124009D01*
X106419Y-123546D01*
X106527Y-123000D01*
X106419Y-122454D01*
X106109Y-121991D01*
X105646Y-121681D01*
X105100Y-121573D01*
D02*
G37*
G36*
X89600Y-120073D02*
X89054Y-120181D01*
X88591Y-120491D01*
X88281Y-120954D01*
X88173Y-121500D01*
X88281Y-122046D01*
X88591Y-122509D01*
X89054Y-122819D01*
X89600Y-122927D01*
X90146Y-122819D01*
X90609Y-122509D01*
X90919Y-122046D01*
X91027Y-121500D01*
X90919Y-120954D01*
X90609Y-120491D01*
X90146Y-120181D01*
X89600Y-120073D01*
D02*
G37*
G36*
X92800Y-116873D02*
X92254Y-116981D01*
X91791Y-117291D01*
X91481Y-117754D01*
X91373Y-118300D01*
X91481Y-118846D01*
X91791Y-119309D01*
X92254Y-119619D01*
X92800Y-119727D01*
X93346Y-119619D01*
X93809Y-119309D01*
X94119Y-118846D01*
X94227Y-118300D01*
X94119Y-117754D01*
X93809Y-117291D01*
X93346Y-116981D01*
X92800Y-116873D01*
D02*
G37*
G36*
X37700Y-116773D02*
X37154Y-116881D01*
X36691Y-117191D01*
X36381Y-117654D01*
X36273Y-118200D01*
X36381Y-118746D01*
X36691Y-119209D01*
X37154Y-119519D01*
X37700Y-119627D01*
X38246Y-119519D01*
X38709Y-119209D01*
X39019Y-118746D01*
X39127Y-118200D01*
X39019Y-117654D01*
X38709Y-117191D01*
X38246Y-116881D01*
X37700Y-116773D01*
D02*
G37*
G36*
X12100Y-112773D02*
X11554Y-112881D01*
X11091Y-113191D01*
X10781Y-113654D01*
X10673Y-114200D01*
X10712Y-114399D01*
X10702Y-114782D01*
X10349Y-114942D01*
X10154Y-114981D01*
X9691Y-115291D01*
X9381Y-115754D01*
X9273Y-116300D01*
X9381Y-116846D01*
X9691Y-117309D01*
X10154Y-117619D01*
X10700Y-117727D01*
X10883Y-117691D01*
X10890Y-117704D01*
X10632Y-118266D01*
X10554Y-118281D01*
X10091Y-118591D01*
X9781Y-119054D01*
X9673Y-119600D01*
X9781Y-120146D01*
X10091Y-120609D01*
X10554Y-120919D01*
X11100Y-121027D01*
X11646Y-120919D01*
X11810Y-120986D01*
X11881Y-121346D01*
X12191Y-121809D01*
X12654Y-122119D01*
X13200Y-122227D01*
X13746Y-122119D01*
X14209Y-121809D01*
X14519Y-121346D01*
X14627Y-120800D01*
X14519Y-120254D01*
X14209Y-119791D01*
X13746Y-119481D01*
X13610Y-119454D01*
X13457Y-118914D01*
X13530Y-118847D01*
X14066Y-118873D01*
X14291Y-119209D01*
X14754Y-119519D01*
X15300Y-119627D01*
X15846Y-119519D01*
X16309Y-119209D01*
X16619Y-118746D01*
X16727Y-118200D01*
X16619Y-117654D01*
X16309Y-117191D01*
X15846Y-116881D01*
X15300Y-116773D01*
X14754Y-116881D01*
X14719Y-116905D01*
X14219Y-116954D01*
X14094Y-116767D01*
X13909Y-116491D01*
X13446Y-116181D01*
X12900Y-116073D01*
X12859Y-116081D01*
X12432Y-115656D01*
X12443Y-115599D01*
X12476Y-115553D01*
X12646Y-115519D01*
X13109Y-115209D01*
X13419Y-114746D01*
X13527Y-114200D01*
X13419Y-113654D01*
X13109Y-113191D01*
X12646Y-112881D01*
X12100Y-112773D01*
D02*
G37*
G36*
X65900Y-120573D02*
X65354Y-120681D01*
X64891Y-120991D01*
X64581Y-121454D01*
X64473Y-122000D01*
X64581Y-122546D01*
X64891Y-123009D01*
X65354Y-123319D01*
X65900Y-123427D01*
X66446Y-123319D01*
X66909Y-123009D01*
X67219Y-122546D01*
X67327Y-122000D01*
X67219Y-121454D01*
X66909Y-120991D01*
X66446Y-120681D01*
X65900Y-120573D01*
D02*
G37*
G36*
X34200D02*
X33654Y-120681D01*
X33191Y-120991D01*
X32881Y-121454D01*
X32773Y-122000D01*
X32881Y-122546D01*
X33191Y-123009D01*
X33654Y-123319D01*
X34200Y-123427D01*
X34746Y-123319D01*
X35209Y-123009D01*
X35519Y-122546D01*
X35627Y-122000D01*
X35519Y-121454D01*
X35209Y-120991D01*
X34746Y-120681D01*
X34200Y-120573D01*
D02*
G37*
G36*
X61655Y-120386D02*
X61108Y-120495D01*
X60645Y-120804D01*
X60336Y-121267D01*
X60227Y-121814D01*
X60336Y-122360D01*
X60645Y-122823D01*
X61108Y-123132D01*
X61655Y-123241D01*
X62201Y-123132D01*
X62664Y-122823D01*
X62973Y-122360D01*
X63082Y-121814D01*
X62973Y-121267D01*
X62664Y-120804D01*
X62201Y-120495D01*
X61655Y-120386D01*
D02*
G37*
G36*
X78000Y-120373D02*
X77454Y-120481D01*
X76991Y-120791D01*
X76681Y-121254D01*
X76573Y-121800D01*
X76681Y-122346D01*
X76991Y-122809D01*
X77454Y-123119D01*
X78000Y-123227D01*
X78546Y-123119D01*
X79009Y-122809D01*
X79319Y-122346D01*
X79427Y-121800D01*
X79319Y-121254D01*
X79009Y-120791D01*
X78546Y-120481D01*
X78000Y-120373D01*
D02*
G37*
G36*
X81340Y-120386D02*
X80793Y-120495D01*
X80330Y-120804D01*
X80021Y-121267D01*
X79912Y-121814D01*
X80021Y-122360D01*
X80330Y-122823D01*
X80793Y-123132D01*
X81340Y-123241D01*
X81886Y-123132D01*
X82349Y-122823D01*
X82658Y-122360D01*
X82767Y-121814D01*
X82658Y-121267D01*
X82349Y-120804D01*
X81886Y-120495D01*
X81340Y-120386D01*
D02*
G37*
G36*
X89200Y-128773D02*
X88654Y-128881D01*
X88191Y-129191D01*
X87881Y-129654D01*
X87773Y-130200D01*
X87881Y-130746D01*
X88191Y-131209D01*
X88654Y-131519D01*
X89200Y-131627D01*
X89746Y-131519D01*
X90209Y-131209D01*
X90519Y-130746D01*
X90627Y-130200D01*
X90519Y-129654D01*
X90209Y-129191D01*
X89746Y-128881D01*
X89200Y-128773D01*
D02*
G37*
G36*
X14300Y-127173D02*
X13754Y-127281D01*
X13291Y-127591D01*
X12981Y-128054D01*
X12873Y-128600D01*
X12981Y-129146D01*
X13291Y-129609D01*
X13754Y-129919D01*
X14085Y-129985D01*
X14000Y-130473D01*
X13454Y-130581D01*
X12991Y-130891D01*
X12681Y-131354D01*
X12573Y-131900D01*
X12681Y-132446D01*
X12991Y-132909D01*
X13454Y-133219D01*
X14000Y-133327D01*
X14546Y-133219D01*
X15009Y-132909D01*
X15319Y-132446D01*
X15427Y-131900D01*
X15319Y-131354D01*
X15009Y-130891D01*
X14546Y-130581D01*
X14215Y-130515D01*
X14300Y-130027D01*
X14846Y-129919D01*
X15309Y-129609D01*
X15619Y-129146D01*
X15727Y-128600D01*
X15619Y-128054D01*
X15309Y-127591D01*
X14846Y-127281D01*
X14300Y-127173D01*
D02*
G37*
G36*
X30400Y-128573D02*
X29854Y-128681D01*
X29391Y-128991D01*
X29081Y-129454D01*
X28973Y-130000D01*
X29081Y-130546D01*
X29391Y-131009D01*
X29854Y-131319D01*
X30400Y-131427D01*
X30946Y-131319D01*
X31409Y-131009D01*
X31719Y-130546D01*
X31827Y-130000D01*
X31719Y-129454D01*
X31409Y-128991D01*
X30946Y-128681D01*
X30400Y-128573D01*
D02*
G37*
G36*
X46300Y-128539D02*
X45754Y-128648D01*
X45291Y-128957D01*
X44981Y-129420D01*
X44873Y-129967D01*
X44981Y-130513D01*
X45291Y-130976D01*
X45754Y-131285D01*
X46300Y-131394D01*
X46846Y-131285D01*
X47309Y-130976D01*
X47619Y-130513D01*
X47727Y-129967D01*
X47619Y-129420D01*
X47309Y-128957D01*
X46846Y-128648D01*
X46300Y-128539D01*
D02*
G37*
G36*
X54100Y-128573D02*
X53554Y-128681D01*
X53091Y-128991D01*
X52781Y-129454D01*
X52673Y-130000D01*
X52781Y-130546D01*
X53091Y-131009D01*
X53554Y-131319D01*
X54100Y-131427D01*
X54646Y-131319D01*
X55109Y-131009D01*
X55419Y-130546D01*
X55527Y-130000D01*
X55419Y-129454D01*
X55109Y-128991D01*
X54646Y-128681D01*
X54100Y-128573D01*
D02*
G37*
G36*
X99600Y-132473D02*
X99054Y-132581D01*
X98591Y-132891D01*
X98281Y-133354D01*
X98173Y-133900D01*
X98281Y-134446D01*
X98591Y-134909D01*
X99054Y-135219D01*
X99600Y-135327D01*
X100146Y-135219D01*
X100609Y-134909D01*
X100919Y-134446D01*
X101027Y-133900D01*
X100919Y-133354D01*
X100609Y-132891D01*
X100146Y-132581D01*
X99600Y-132473D01*
D02*
G37*
G36*
X64300Y-134873D02*
X63754Y-134981D01*
X63291Y-135291D01*
X62981Y-135754D01*
X62873Y-136300D01*
X62916Y-136518D01*
X62461Y-136791D01*
X62146Y-136581D01*
X61600Y-136473D01*
X61054Y-136581D01*
X60591Y-136891D01*
X60281Y-137354D01*
X60173Y-137900D01*
X60281Y-138446D01*
X60591Y-138909D01*
X61054Y-139219D01*
X61600Y-139327D01*
X62146Y-139219D01*
X62609Y-138909D01*
X62919Y-138446D01*
X63027Y-137900D01*
X62984Y-137682D01*
X63440Y-137409D01*
X63754Y-137619D01*
X64300Y-137727D01*
X64846Y-137619D01*
X65309Y-137309D01*
X65619Y-136846D01*
X65727Y-136300D01*
X65619Y-135754D01*
X65309Y-135291D01*
X64846Y-134981D01*
X64300Y-134873D01*
D02*
G37*
G36*
X34154Y-133973D02*
X33608Y-134081D01*
X33145Y-134391D01*
X32836Y-134854D01*
X32727Y-135400D01*
X32836Y-135946D01*
X33145Y-136409D01*
X33608Y-136719D01*
X34154Y-136827D01*
X34701Y-136719D01*
X35164Y-136409D01*
X35473Y-135946D01*
X35582Y-135400D01*
X35473Y-134854D01*
X35164Y-134391D01*
X34701Y-134081D01*
X34154Y-133973D01*
D02*
G37*
G36*
X50500Y-133073D02*
X49954Y-133181D01*
X49491Y-133491D01*
X49181Y-133954D01*
X49073Y-134500D01*
X49181Y-135046D01*
X49491Y-135509D01*
X49954Y-135819D01*
X50500Y-135927D01*
X51046Y-135819D01*
X51509Y-135509D01*
X51819Y-135046D01*
X51927Y-134500D01*
X51819Y-133954D01*
X51509Y-133491D01*
X51046Y-133181D01*
X50500Y-133073D01*
D02*
G37*
G36*
X61700Y-132773D02*
X61154Y-132881D01*
X60691Y-133191D01*
X60381Y-133654D01*
X60273Y-134200D01*
X60381Y-134746D01*
X60691Y-135209D01*
X61154Y-135519D01*
X61700Y-135627D01*
X62246Y-135519D01*
X62709Y-135209D01*
X63019Y-134746D01*
X63127Y-134200D01*
X63019Y-133654D01*
X62709Y-133191D01*
X62246Y-132881D01*
X61700Y-132773D01*
D02*
G37*
G36*
X54100Y-132973D02*
X53554Y-133081D01*
X53091Y-133391D01*
X52781Y-133854D01*
X52673Y-134400D01*
X52781Y-134946D01*
X53091Y-135409D01*
X53481Y-135670D01*
X53554Y-135719D01*
X53444Y-136201D01*
X53300Y-136173D01*
X52754Y-136281D01*
X52291Y-136591D01*
X51981Y-137054D01*
X51873Y-137600D01*
X51981Y-138146D01*
X52291Y-138609D01*
X52754Y-138919D01*
X53300Y-139027D01*
X53846Y-138919D01*
X54309Y-138609D01*
X54619Y-138146D01*
X54727Y-137600D01*
X54619Y-137054D01*
X54309Y-136591D01*
X53919Y-136330D01*
X53846Y-136281D01*
X53956Y-135799D01*
X54100Y-135827D01*
X54646Y-135719D01*
X55109Y-135409D01*
X55419Y-134946D01*
X55527Y-134400D01*
X55419Y-133854D01*
X55109Y-133391D01*
X54646Y-133081D01*
X54100Y-132973D01*
D02*
G37*
G36*
Y-124573D02*
X53554Y-124681D01*
X53091Y-124991D01*
X52781Y-125454D01*
X52673Y-126000D01*
X52781Y-126546D01*
X53091Y-127009D01*
X53554Y-127319D01*
X54100Y-127427D01*
X54646Y-127319D01*
X55109Y-127009D01*
X55419Y-126546D01*
X55527Y-126000D01*
X55419Y-125454D01*
X55109Y-124991D01*
X54646Y-124681D01*
X54100Y-124573D01*
D02*
G37*
G36*
X85500Y-124673D02*
X84954Y-124781D01*
X84491Y-125091D01*
X84181Y-125554D01*
X84073Y-126100D01*
X84181Y-126646D01*
X84491Y-127109D01*
X84954Y-127419D01*
X85500Y-127527D01*
X86046Y-127419D01*
X86509Y-127109D01*
X86819Y-126646D01*
X86927Y-126100D01*
X86819Y-125554D01*
X86509Y-125091D01*
X86046Y-124781D01*
X85500Y-124673D01*
D02*
G37*
G36*
X69900Y-124573D02*
X69354Y-124681D01*
X68891Y-124991D01*
X68581Y-125454D01*
X68473Y-126000D01*
X68581Y-126546D01*
X68891Y-127009D01*
X69354Y-127319D01*
X69900Y-127427D01*
X70446Y-127319D01*
X70909Y-127009D01*
X71219Y-126546D01*
X71327Y-126000D01*
X71219Y-125454D01*
X70909Y-124991D01*
X70446Y-124681D01*
X69900Y-124573D01*
D02*
G37*
G36*
X34100Y-124473D02*
X33554Y-124581D01*
X33091Y-124891D01*
X32781Y-125354D01*
X32673Y-125900D01*
X32781Y-126446D01*
X33091Y-126909D01*
X33554Y-127219D01*
X34100Y-127327D01*
X34646Y-127219D01*
X35109Y-126909D01*
X35419Y-126446D01*
X35527Y-125900D01*
X35419Y-125354D01*
X35109Y-124891D01*
X34646Y-124581D01*
X34100Y-124473D01*
D02*
G37*
G36*
X43000Y-124564D02*
X42454Y-124673D01*
X41991Y-124982D01*
X41681Y-125445D01*
X41573Y-125992D01*
X41681Y-126538D01*
X41991Y-127001D01*
X42454Y-127310D01*
X43000Y-127419D01*
X43546Y-127310D01*
X44009Y-127001D01*
X44319Y-126538D01*
X44427Y-125992D01*
X44319Y-125445D01*
X44009Y-124982D01*
X43546Y-124673D01*
X43000Y-124564D01*
D02*
G37*
G36*
X47200Y-124273D02*
X46654Y-124381D01*
X46191Y-124691D01*
X45881Y-125154D01*
X45773Y-125700D01*
X45881Y-126246D01*
X46191Y-126709D01*
X46654Y-127019D01*
X47200Y-127127D01*
X47746Y-127019D01*
X48209Y-126709D01*
X48228Y-126681D01*
X48423Y-126667D01*
X48792Y-126737D01*
X49041Y-127109D01*
X49504Y-127419D01*
X50050Y-127527D01*
X50596Y-127419D01*
X51059Y-127109D01*
X51369Y-126646D01*
X51477Y-126100D01*
X51369Y-125554D01*
X51059Y-125091D01*
X50596Y-124781D01*
X50050Y-124673D01*
X49504Y-124781D01*
X49041Y-125091D01*
X49022Y-125119D01*
X48827Y-125133D01*
X48458Y-125063D01*
X48209Y-124691D01*
X47746Y-124381D01*
X47200Y-124273D01*
D02*
G37*
G36*
X73400Y-128473D02*
X72854Y-128581D01*
X72391Y-128891D01*
X72081Y-129354D01*
X71973Y-129900D01*
X72081Y-130446D01*
X72391Y-130909D01*
X72854Y-131219D01*
X73400Y-131327D01*
X73946Y-131219D01*
X74409Y-130909D01*
X74719Y-130446D01*
X74827Y-129900D01*
X74719Y-129354D01*
X74409Y-128891D01*
X73946Y-128581D01*
X73400Y-128473D01*
D02*
G37*
G36*
X34400D02*
X33854Y-128581D01*
X33391Y-128891D01*
X33081Y-129354D01*
X32973Y-129900D01*
X33081Y-130446D01*
X33391Y-130909D01*
X33854Y-131219D01*
X34400Y-131327D01*
X34946Y-131219D01*
X35409Y-130909D01*
X35719Y-130446D01*
X35827Y-129900D01*
X35719Y-129354D01*
X35409Y-128891D01*
X34946Y-128581D01*
X34400Y-128473D01*
D02*
G37*
G36*
X85500D02*
X84954Y-128581D01*
X84491Y-128891D01*
X84181Y-129354D01*
X84073Y-129900D01*
X84181Y-130446D01*
X84491Y-130909D01*
X84954Y-131219D01*
X85500Y-131327D01*
X86046Y-131219D01*
X86509Y-130909D01*
X86819Y-130446D01*
X86927Y-129900D01*
X86819Y-129354D01*
X86509Y-128891D01*
X86046Y-128581D01*
X85500Y-128473D01*
D02*
G37*
G36*
X37700Y-124673D02*
X37154Y-124781D01*
X36691Y-125091D01*
X36381Y-125554D01*
X36273Y-126100D01*
X36381Y-126646D01*
X36691Y-127109D01*
X37154Y-127419D01*
X37700Y-127527D01*
X38246Y-127419D01*
X38709Y-127109D01*
X39019Y-126646D01*
X39127Y-126100D01*
X39019Y-125554D01*
X38709Y-125091D01*
X38246Y-124781D01*
X37700Y-124673D01*
D02*
G37*
G36*
X81500Y-124873D02*
X80954Y-124981D01*
X80491Y-125291D01*
X80181Y-125754D01*
X80073Y-126300D01*
X80181Y-126846D01*
X80491Y-127309D01*
X80954Y-127619D01*
X81500Y-127727D01*
X82046Y-127619D01*
X82509Y-127309D01*
X82819Y-126846D01*
X82927Y-126300D01*
X82819Y-125754D01*
X82509Y-125291D01*
X82046Y-124981D01*
X81500Y-124873D01*
D02*
G37*
G36*
X38500Y-100373D02*
X37954Y-100481D01*
X37491Y-100791D01*
X37181Y-101254D01*
X37073Y-101800D01*
X37181Y-102346D01*
X37491Y-102809D01*
X37954Y-103119D01*
X38500Y-103227D01*
X39046Y-103119D01*
X39509Y-102809D01*
X39819Y-102346D01*
X39927Y-101800D01*
X39819Y-101254D01*
X39509Y-100791D01*
X39046Y-100481D01*
X38500Y-100373D01*
D02*
G37*
G36*
X73700Y-100773D02*
X73154Y-100881D01*
X72691Y-101191D01*
X72381Y-101654D01*
X72273Y-102200D01*
X72381Y-102746D01*
X72691Y-103209D01*
X73154Y-103519D01*
X73700Y-103627D01*
X74246Y-103519D01*
X74709Y-103209D01*
X75019Y-102746D01*
X75127Y-102200D01*
X75019Y-101654D01*
X74709Y-101191D01*
X74246Y-100881D01*
X73700Y-100773D01*
D02*
G37*
G36*
X70192Y-97373D02*
X69645Y-97481D01*
X69182Y-97791D01*
X68873Y-98254D01*
X68764Y-98800D01*
X68873Y-99346D01*
X69182Y-99809D01*
X69645Y-100119D01*
X70192Y-100227D01*
X70738Y-100119D01*
X71201Y-99809D01*
X71510Y-99346D01*
X71619Y-98800D01*
X71510Y-98254D01*
X71201Y-97791D01*
X70738Y-97481D01*
X70192Y-97373D01*
D02*
G37*
G36*
X26200Y-97173D02*
X25654Y-97281D01*
X25191Y-97591D01*
X24881Y-98054D01*
X24773Y-98600D01*
X24881Y-99146D01*
X25191Y-99609D01*
X25654Y-99919D01*
X26200Y-100027D01*
X26746Y-99919D01*
X27209Y-99609D01*
X27519Y-99146D01*
X27627Y-98600D01*
X27519Y-98054D01*
X27209Y-97591D01*
X26746Y-97281D01*
X26200Y-97173D01*
D02*
G37*
G36*
X77600Y-97273D02*
X77054Y-97381D01*
X76591Y-97691D01*
X76281Y-98154D01*
X76173Y-98700D01*
X76281Y-99246D01*
X76591Y-99709D01*
X77054Y-100019D01*
X77600Y-100127D01*
X78146Y-100019D01*
X78609Y-99709D01*
X78919Y-99246D01*
X79027Y-98700D01*
X78919Y-98154D01*
X78609Y-97691D01*
X78146Y-97381D01*
X77600Y-97273D01*
D02*
G37*
G36*
X12000Y-101373D02*
X11454Y-101481D01*
X10991Y-101791D01*
X10681Y-102254D01*
X10573Y-102800D01*
X10681Y-103346D01*
X10667Y-103380D01*
X10211Y-103471D01*
X9748Y-103780D01*
X9439Y-104244D01*
X9330Y-104790D01*
X9439Y-105336D01*
X9748Y-105799D01*
X10211Y-106109D01*
X10757Y-106217D01*
X11304Y-106109D01*
X11733Y-106423D01*
X11991Y-106809D01*
X12454Y-107119D01*
X13000Y-107227D01*
X13546Y-107119D01*
X13964Y-106839D01*
X13981Y-106846D01*
X14291Y-107309D01*
X14754Y-107619D01*
X15300Y-107727D01*
X15846Y-107619D01*
X16309Y-107309D01*
X16619Y-106846D01*
X16727Y-106300D01*
X16619Y-105754D01*
X16309Y-105291D01*
X15846Y-104981D01*
X15300Y-104873D01*
X14754Y-104981D01*
X14335Y-105261D01*
X14319Y-105254D01*
X14009Y-104791D01*
X13865Y-104694D01*
X14060Y-104223D01*
X14375Y-104286D01*
X14921Y-104177D01*
X15384Y-103868D01*
X15694Y-103405D01*
X15802Y-102858D01*
X15694Y-102312D01*
X15384Y-101849D01*
X14921Y-101540D01*
X14375Y-101431D01*
X13829Y-101540D01*
X13562Y-101718D01*
X13009Y-101791D01*
X12546Y-101481D01*
X12000Y-101373D01*
D02*
G37*
G36*
X105500Y-102473D02*
X104954Y-102581D01*
X104491Y-102891D01*
X104181Y-103354D01*
X104073Y-103900D01*
X104181Y-104446D01*
X104491Y-104909D01*
X104954Y-105219D01*
X105500Y-105327D01*
X106046Y-105219D01*
X106509Y-104909D01*
X106819Y-104446D01*
X106927Y-103900D01*
X106819Y-103354D01*
X106509Y-102891D01*
X106046Y-102581D01*
X105500Y-102473D01*
D02*
G37*
G36*
X93000Y-101173D02*
X92454Y-101281D01*
X91991Y-101591D01*
X91681Y-102054D01*
X91573Y-102600D01*
X91681Y-103146D01*
X91991Y-103609D01*
X92454Y-103919D01*
X93000Y-104027D01*
X93546Y-103919D01*
X94009Y-103609D01*
X94319Y-103146D01*
X94427Y-102600D01*
X94319Y-102054D01*
X94009Y-101591D01*
X93546Y-101281D01*
X93000Y-101173D01*
D02*
G37*
G36*
X77800Y-100873D02*
X77254Y-100981D01*
X76791Y-101291D01*
X76481Y-101754D01*
X76373Y-102300D01*
X76481Y-102846D01*
X76791Y-103309D01*
X77254Y-103619D01*
X77800Y-103727D01*
X78346Y-103619D01*
X78809Y-103309D01*
X79119Y-102846D01*
X79185Y-102513D01*
X79695D01*
X79729Y-102682D01*
X79781Y-102946D01*
X80091Y-103409D01*
X80554Y-103719D01*
X81100Y-103827D01*
X81646Y-103719D01*
X82109Y-103409D01*
X82419Y-102946D01*
X82527Y-102400D01*
X82419Y-101854D01*
X82109Y-101391D01*
X81646Y-101081D01*
X81100Y-100973D01*
X80554Y-101081D01*
X80091Y-101391D01*
X79781Y-101854D01*
X79715Y-102188D01*
X79205D01*
X79171Y-102018D01*
X79119Y-101754D01*
X78809Y-101291D01*
X78346Y-100981D01*
X77800Y-100873D01*
D02*
G37*
G36*
X66000Y-101073D02*
X65454Y-101181D01*
X64991Y-101491D01*
X64681Y-101954D01*
X64573Y-102500D01*
X64681Y-103046D01*
X64991Y-103509D01*
X65454Y-103819D01*
X66000Y-103927D01*
X66546Y-103819D01*
X67009Y-103509D01*
X67319Y-103046D01*
X67427Y-102500D01*
X67319Y-101954D01*
X67009Y-101491D01*
X66546Y-101181D01*
X66000Y-101073D01*
D02*
G37*
G36*
X74100Y-97173D02*
X73554Y-97281D01*
X73091Y-97591D01*
X72781Y-98054D01*
X72673Y-98600D01*
X72781Y-99146D01*
X73091Y-99609D01*
X73554Y-99919D01*
X74100Y-100027D01*
X74646Y-99919D01*
X75109Y-99609D01*
X75419Y-99146D01*
X75527Y-98600D01*
X75419Y-98054D01*
X75109Y-97591D01*
X74646Y-97281D01*
X74100Y-97173D01*
D02*
G37*
G36*
X73400Y-92973D02*
X72854Y-93081D01*
X72391Y-93391D01*
X72081Y-93854D01*
X71973Y-94400D01*
X72081Y-94946D01*
X72391Y-95409D01*
X72854Y-95719D01*
X73400Y-95827D01*
X73946Y-95719D01*
X74409Y-95409D01*
X74719Y-94946D01*
X74827Y-94400D01*
X74719Y-93854D01*
X74409Y-93391D01*
X73946Y-93081D01*
X73400Y-92973D01*
D02*
G37*
G36*
X104900Y-95273D02*
X104354Y-95381D01*
X103891Y-95691D01*
X103581Y-96154D01*
X103473Y-96700D01*
X103581Y-97246D01*
X103891Y-97709D01*
X104354Y-98019D01*
X104900Y-98127D01*
X105446Y-98019D01*
X105909Y-97709D01*
X106219Y-97246D01*
X106327Y-96700D01*
X106219Y-96154D01*
X105909Y-95691D01*
X105446Y-95381D01*
X104900Y-95273D01*
D02*
G37*
G36*
X77500Y-92973D02*
X76954Y-93081D01*
X76491Y-93391D01*
X76181Y-93854D01*
X76073Y-94400D01*
X76181Y-94946D01*
X76491Y-95409D01*
X76954Y-95719D01*
X77500Y-95827D01*
X78046Y-95719D01*
X78509Y-95409D01*
X78819Y-94946D01*
X78927Y-94400D01*
X78819Y-93854D01*
X78509Y-93391D01*
X78046Y-93081D01*
X77500Y-92973D01*
D02*
G37*
G36*
X14700Y-89173D02*
X14154Y-89281D01*
X13691Y-89591D01*
X13381Y-90054D01*
X13273Y-90600D01*
X13381Y-91146D01*
X13545Y-91392D01*
X13492Y-91569D01*
X13287Y-91895D01*
X12854Y-91981D01*
X12391Y-92291D01*
X12081Y-92754D01*
X11973Y-93300D01*
X12034Y-93609D01*
X11841Y-93991D01*
X11661Y-94100D01*
X11254Y-94181D01*
X10791Y-94491D01*
X10496Y-94931D01*
X10046Y-94631D01*
X9500Y-94522D01*
X8954Y-94631D01*
X8491Y-94940D01*
X8181Y-95403D01*
X8073Y-95950D01*
X8181Y-96496D01*
X8491Y-96959D01*
X8954Y-97268D01*
X9500Y-97377D01*
X10046Y-97268D01*
X10509Y-96959D01*
X10804Y-96518D01*
X11254Y-96819D01*
X11534Y-96874D01*
X11783Y-97402D01*
X11681Y-97554D01*
X11676Y-97580D01*
X11304Y-97933D01*
X11141Y-97900D01*
X10757Y-97824D01*
X10211Y-97933D01*
X9748Y-98242D01*
X9439Y-98705D01*
X9330Y-99252D01*
X9439Y-99798D01*
X9748Y-100261D01*
X10211Y-100570D01*
X10757Y-100679D01*
X11304Y-100570D01*
X11767Y-100261D01*
X12076Y-99798D01*
X12082Y-99771D01*
X12454Y-99419D01*
X12616Y-99451D01*
X13000Y-99527D01*
X13546Y-99419D01*
X14009Y-99109D01*
X14319Y-98646D01*
X14427Y-98100D01*
X14319Y-97554D01*
X14009Y-97091D01*
X13546Y-96781D01*
X13266Y-96725D01*
X13017Y-96198D01*
X13119Y-96046D01*
X13227Y-95500D01*
X13166Y-95191D01*
X13359Y-94809D01*
X13489Y-94730D01*
X14018Y-94829D01*
X14081Y-95146D01*
X14391Y-95609D01*
X14854Y-95919D01*
X15400Y-96027D01*
X15946Y-95919D01*
X16409Y-95609D01*
X16719Y-95146D01*
X16827Y-94600D01*
X16719Y-94054D01*
X16409Y-93591D01*
X15946Y-93281D01*
X15400Y-93173D01*
X14854Y-93281D01*
X14821Y-93268D01*
X14719Y-92754D01*
X14555Y-92508D01*
X14608Y-92331D01*
X14813Y-92005D01*
X15246Y-91919D01*
X15709Y-91609D01*
X16019Y-91146D01*
X16127Y-90600D01*
X16019Y-90054D01*
X15709Y-89591D01*
X15246Y-89281D01*
X14700Y-89173D01*
D02*
G37*
G36*
X65600Y-92873D02*
X65054Y-92981D01*
X64591Y-93291D01*
X64281Y-93754D01*
X64173Y-94300D01*
X64281Y-94846D01*
X64591Y-95309D01*
X65054Y-95619D01*
X65600Y-95727D01*
X66146Y-95619D01*
X66609Y-95309D01*
X66919Y-94846D01*
X67027Y-94300D01*
X66919Y-93754D01*
X66609Y-93291D01*
X66146Y-92981D01*
X65600Y-92873D01*
D02*
G37*
G36*
X89214Y-96764D02*
X88667Y-96873D01*
X88204Y-97182D01*
X87895Y-97645D01*
X87786Y-98191D01*
X87895Y-98738D01*
X88204Y-99201D01*
X88667Y-99510D01*
X89214Y-99619D01*
X89760Y-99510D01*
X90223Y-99201D01*
X90532Y-98738D01*
X90641Y-98191D01*
X90532Y-97645D01*
X90223Y-97182D01*
X89760Y-96873D01*
X89214Y-96764D01*
D02*
G37*
G36*
X30400Y-96973D02*
X29854Y-97081D01*
X29391Y-97391D01*
X29081Y-97854D01*
X28973Y-98400D01*
X29081Y-98946D01*
X29391Y-99409D01*
X29854Y-99719D01*
X30400Y-99827D01*
X30946Y-99719D01*
X31409Y-99409D01*
X31719Y-98946D01*
X31827Y-98400D01*
X31719Y-97854D01*
X31409Y-97391D01*
X30946Y-97081D01*
X30400Y-96973D01*
D02*
G37*
G36*
X92600Y-96673D02*
X92054Y-96781D01*
X91591Y-97091D01*
X91281Y-97554D01*
X91173Y-98100D01*
X91281Y-98646D01*
X91591Y-99109D01*
X92054Y-99419D01*
X92600Y-99527D01*
X93146Y-99419D01*
X93609Y-99109D01*
X93919Y-98646D01*
X94027Y-98100D01*
X93919Y-97554D01*
X93609Y-97091D01*
X93146Y-96781D01*
X92600Y-96673D01*
D02*
G37*
G36*
X34400Y-96473D02*
X33854Y-96581D01*
X33391Y-96891D01*
X33081Y-97354D01*
X32973Y-97900D01*
X33081Y-98446D01*
X33391Y-98909D01*
X33854Y-99219D01*
X34400Y-99327D01*
X34946Y-99219D01*
X35409Y-98909D01*
X35719Y-98446D01*
X35827Y-97900D01*
X35719Y-97354D01*
X35409Y-96891D01*
X34946Y-96581D01*
X34400Y-96473D01*
D02*
G37*
G36*
X42800Y-96573D02*
X42254Y-96681D01*
X41791Y-96991D01*
X41481Y-97454D01*
X41373Y-98000D01*
X41481Y-98546D01*
X41791Y-99009D01*
X42254Y-99319D01*
X42800Y-99427D01*
X43346Y-99319D01*
X43809Y-99009D01*
X44119Y-98546D01*
X44227Y-98000D01*
X44119Y-97454D01*
X43809Y-96991D01*
X43346Y-96681D01*
X42800Y-96573D01*
D02*
G37*
G36*
X81500Y-112673D02*
X80954Y-112781D01*
X80491Y-113091D01*
X80181Y-113554D01*
X80073Y-114100D01*
X80181Y-114646D01*
X80491Y-115109D01*
X80954Y-115419D01*
X81335Y-115495D01*
X81300Y-115973D01*
X80754Y-116081D01*
X80291Y-116391D01*
X79981Y-116854D01*
X79873Y-117400D01*
X79981Y-117946D01*
X80291Y-118409D01*
X80754Y-118719D01*
X81300Y-118827D01*
X81846Y-118719D01*
X82309Y-118409D01*
X82619Y-117946D01*
X82727Y-117400D01*
X82619Y-116854D01*
X82309Y-116391D01*
X81846Y-116081D01*
X81465Y-116005D01*
X81500Y-115527D01*
X82046Y-115419D01*
X82509Y-115109D01*
X82819Y-114646D01*
X82927Y-114100D01*
X82819Y-113554D01*
X82509Y-113091D01*
X82046Y-112781D01*
X81500Y-112673D01*
D02*
G37*
G36*
X101700Y-116073D02*
X101154Y-116181D01*
X100691Y-116491D01*
X100381Y-116954D01*
X100273Y-117500D01*
X100381Y-118046D01*
X100691Y-118509D01*
X101154Y-118819D01*
X101700Y-118927D01*
X102246Y-118819D01*
X102709Y-118509D01*
X103019Y-118046D01*
X103127Y-117500D01*
X103019Y-116954D01*
X102709Y-116491D01*
X102246Y-116181D01*
X101700Y-116073D01*
D02*
G37*
G36*
X85100Y-115973D02*
X84554Y-116081D01*
X84091Y-116391D01*
X83781Y-116854D01*
X83673Y-117400D01*
X83781Y-117946D01*
X84091Y-118409D01*
X84554Y-118719D01*
X85100Y-118827D01*
X85646Y-118719D01*
X86109Y-118409D01*
X86419Y-117946D01*
X86527Y-117400D01*
X86419Y-116854D01*
X86109Y-116391D01*
X85646Y-116081D01*
X85100Y-115973D01*
D02*
G37*
G36*
X42500Y-113055D02*
X41954Y-113164D01*
X41491Y-113473D01*
X41181Y-113937D01*
X41073Y-114483D01*
X41181Y-115029D01*
X41491Y-115492D01*
X41954Y-115802D01*
X42500Y-115910D01*
X43046Y-115802D01*
X43509Y-115492D01*
X43819Y-115029D01*
X43927Y-114483D01*
X43819Y-113937D01*
X43509Y-113473D01*
X43046Y-113164D01*
X42500Y-113055D01*
D02*
G37*
G36*
X38200Y-113073D02*
X37654Y-113181D01*
X37191Y-113491D01*
X36881Y-113954D01*
X36773Y-114500D01*
X36881Y-115046D01*
X37191Y-115509D01*
X37654Y-115819D01*
X38200Y-115927D01*
X38746Y-115819D01*
X39209Y-115509D01*
X39519Y-115046D01*
X39627Y-114500D01*
X39519Y-113954D01*
X39209Y-113491D01*
X38746Y-113181D01*
X38200Y-113073D01*
D02*
G37*
G36*
X89300Y-116673D02*
X88754Y-116781D01*
X88291Y-117091D01*
X87981Y-117554D01*
X87873Y-118100D01*
X87981Y-118646D01*
X88291Y-119109D01*
X88754Y-119419D01*
X89300Y-119527D01*
X89846Y-119419D01*
X90309Y-119109D01*
X90619Y-118646D01*
X90727Y-118100D01*
X90619Y-117554D01*
X90309Y-117091D01*
X89846Y-116781D01*
X89300Y-116673D01*
D02*
G37*
G36*
X46300Y-116773D02*
X45754Y-116881D01*
X45291Y-117191D01*
X44981Y-117654D01*
X44873Y-118200D01*
X44981Y-118746D01*
X45291Y-119209D01*
X45754Y-119519D01*
X46300Y-119627D01*
X46846Y-119519D01*
X47309Y-119209D01*
X47619Y-118746D01*
X47727Y-118200D01*
X47619Y-117654D01*
X47309Y-117191D01*
X46846Y-116881D01*
X46300Y-116773D01*
D02*
G37*
G36*
X65900Y-116573D02*
X65354Y-116681D01*
X64891Y-116991D01*
X64581Y-117454D01*
X64473Y-118000D01*
X64581Y-118546D01*
X64891Y-119009D01*
X65354Y-119319D01*
X65900Y-119427D01*
X66446Y-119319D01*
X66909Y-119009D01*
X67219Y-118546D01*
X67327Y-118000D01*
X67219Y-117454D01*
X66909Y-116991D01*
X66446Y-116681D01*
X65900Y-116573D01*
D02*
G37*
G36*
X73850Y-116257D02*
X73304Y-116366D01*
X72841Y-116675D01*
X72531Y-117138D01*
X72423Y-117684D01*
X72531Y-118230D01*
X72841Y-118694D01*
X73304Y-119003D01*
X73850Y-119112D01*
X74396Y-119003D01*
X74859Y-118694D01*
X75169Y-118230D01*
X75277Y-117684D01*
X75169Y-117138D01*
X74859Y-116675D01*
X74396Y-116366D01*
X73850Y-116257D01*
D02*
G37*
G36*
X77500Y-116273D02*
X76954Y-116381D01*
X76491Y-116691D01*
X76181Y-117154D01*
X76073Y-117700D01*
X76181Y-118246D01*
X76491Y-118709D01*
X76954Y-119019D01*
X77500Y-119127D01*
X78046Y-119019D01*
X78509Y-118709D01*
X78819Y-118246D01*
X78927Y-117700D01*
X78819Y-117154D01*
X78509Y-116691D01*
X78046Y-116381D01*
X77500Y-116273D01*
D02*
G37*
G36*
X61900Y-112873D02*
X61354Y-112981D01*
X60891Y-113291D01*
X60581Y-113754D01*
X60473Y-114300D01*
X60581Y-114846D01*
X60891Y-115309D01*
X61354Y-115619D01*
X61900Y-115727D01*
X62446Y-115619D01*
X62909Y-115309D01*
X63219Y-114846D01*
X63327Y-114300D01*
X63219Y-113754D01*
X62909Y-113291D01*
X62446Y-112981D01*
X61900Y-112873D01*
D02*
G37*
G36*
X89700Y-112473D02*
X89154Y-112581D01*
X88691Y-112891D01*
X88381Y-113354D01*
X87889Y-113267D01*
X87818Y-113219D01*
X87271Y-113110D01*
X86725Y-113219D01*
X86262Y-113528D01*
X85952Y-113991D01*
X85844Y-114538D01*
X85952Y-115084D01*
X86262Y-115547D01*
X86725Y-115857D01*
X87271Y-115965D01*
X87818Y-115857D01*
X88281Y-115547D01*
X88590Y-115084D01*
X89082Y-115171D01*
X89154Y-115219D01*
X89700Y-115327D01*
X90246Y-115219D01*
X90709Y-114909D01*
X91019Y-114446D01*
X91127Y-113900D01*
X91019Y-113354D01*
X90709Y-112891D01*
X90246Y-112581D01*
X89700Y-112473D01*
D02*
G37*
G36*
X93043Y-112478D02*
X92497Y-112586D01*
X92034Y-112896D01*
X91724Y-113359D01*
X91616Y-113905D01*
X91724Y-114452D01*
X92034Y-114915D01*
X92497Y-115224D01*
X93043Y-115333D01*
X93590Y-115224D01*
X94053Y-114915D01*
X94362Y-114452D01*
X94471Y-113905D01*
X94362Y-113359D01*
X94053Y-112896D01*
X93590Y-112586D01*
X93043Y-112478D01*
D02*
G37*
G36*
X14700Y-108473D02*
X14154Y-108581D01*
X13691Y-108891D01*
X13381Y-109354D01*
X13283Y-109849D01*
X13130Y-109929D01*
X12783Y-110001D01*
X12709Y-109891D01*
X12246Y-109581D01*
X11700Y-109473D01*
X11154Y-109581D01*
X10691Y-109891D01*
X10381Y-110354D01*
X10273Y-110900D01*
X10381Y-111446D01*
X10691Y-111909D01*
X11154Y-112219D01*
X11700Y-112327D01*
X12246Y-112219D01*
X12709Y-111909D01*
X13019Y-111446D01*
X13117Y-110951D01*
X13270Y-110871D01*
X13617Y-110800D01*
X13691Y-110909D01*
X14154Y-111219D01*
X14700Y-111327D01*
X15246Y-111219D01*
X15709Y-110909D01*
X16019Y-110446D01*
X16127Y-109900D01*
X16019Y-109354D01*
X15709Y-108891D01*
X15246Y-108581D01*
X14700Y-108473D01*
D02*
G37*
G36*
X81340Y-104638D02*
X80793Y-104747D01*
X80330Y-105056D01*
X80021Y-105519D01*
X79912Y-106065D01*
X80021Y-106612D01*
X80330Y-107075D01*
X80793Y-107384D01*
X81340Y-107493D01*
X81886Y-107384D01*
X82349Y-107075D01*
X82658Y-106612D01*
X82767Y-106065D01*
X82658Y-105519D01*
X82349Y-105056D01*
X81886Y-104747D01*
X81340Y-104638D01*
D02*
G37*
G36*
X46472D02*
X45925Y-104747D01*
X45462Y-105056D01*
X45153Y-105519D01*
X45044Y-106065D01*
X45153Y-106612D01*
X45462Y-107075D01*
X45925Y-107384D01*
X46472Y-107493D01*
X47018Y-107384D01*
X47481Y-107075D01*
X47790Y-106612D01*
X47899Y-106065D01*
X47790Y-105519D01*
X47481Y-105056D01*
X47018Y-104747D01*
X46472Y-104638D01*
D02*
G37*
G36*
X69700Y-112873D02*
X69154Y-112981D01*
X68691Y-113291D01*
X68381Y-113754D01*
X68273Y-114300D01*
X68381Y-114846D01*
X68691Y-115309D01*
X69154Y-115619D01*
X69700Y-115727D01*
X70246Y-115619D01*
X70709Y-115309D01*
X71019Y-114846D01*
X71127Y-114300D01*
X71019Y-113754D01*
X70709Y-113291D01*
X70246Y-112981D01*
X69700Y-112873D01*
D02*
G37*
G36*
X66000D02*
X65454Y-112981D01*
X64991Y-113291D01*
X64681Y-113754D01*
X64573Y-114300D01*
X64681Y-114846D01*
X64991Y-115309D01*
X65454Y-115619D01*
X66000Y-115727D01*
X66546Y-115619D01*
X67009Y-115309D01*
X67319Y-114846D01*
X67427Y-114300D01*
X67319Y-113754D01*
X67009Y-113291D01*
X66546Y-112981D01*
X66000Y-112873D01*
D02*
G37*
G36*
X46200Y-112773D02*
X45654Y-112881D01*
X45191Y-113191D01*
X44881Y-113654D01*
X44773Y-114200D01*
X44881Y-114746D01*
X45191Y-115209D01*
X45654Y-115519D01*
X46200Y-115627D01*
X46746Y-115519D01*
X47209Y-115209D01*
X47519Y-114746D01*
X47627Y-114200D01*
X47519Y-113654D01*
X47209Y-113191D01*
X46746Y-112881D01*
X46200Y-112773D01*
D02*
G37*
G36*
X50600Y-112573D02*
X50054Y-112681D01*
X49591Y-112991D01*
X49281Y-113454D01*
X49173Y-114000D01*
X49281Y-114546D01*
X49591Y-115009D01*
X50054Y-115319D01*
X50600Y-115427D01*
X51146Y-115319D01*
X51609Y-115009D01*
X51919Y-114546D01*
X52027Y-114000D01*
X51919Y-113454D01*
X51609Y-112991D01*
X51146Y-112681D01*
X50600Y-112573D01*
D02*
G37*
G36*
X74300Y-112673D02*
X73754Y-112781D01*
X73291Y-113091D01*
X72981Y-113554D01*
X72873Y-114100D01*
X72981Y-114646D01*
X73291Y-115109D01*
X73754Y-115419D01*
X74300Y-115527D01*
X74846Y-115419D01*
X75309Y-115109D01*
X75619Y-114646D01*
X75727Y-114100D01*
X75619Y-113554D01*
X75309Y-113091D01*
X74846Y-112781D01*
X74300Y-112673D01*
D02*
G37*
G36*
X90400Y-136173D02*
X89854Y-136281D01*
X89391Y-136591D01*
X89081Y-137054D01*
X89058Y-137168D01*
X89042Y-137183D01*
X88511Y-137358D01*
X88246Y-137181D01*
X87700Y-137073D01*
X87154Y-137181D01*
X86691Y-137491D01*
X86381Y-137954D01*
X86273Y-138500D01*
X86381Y-139046D01*
X86691Y-139509D01*
X87154Y-139819D01*
X87700Y-139927D01*
X88246Y-139819D01*
X88709Y-139509D01*
X89019Y-139046D01*
X89042Y-138932D01*
X89058Y-138917D01*
X89589Y-138742D01*
X89854Y-138919D01*
X90400Y-139027D01*
X90946Y-138919D01*
X91409Y-138609D01*
X91719Y-138146D01*
X91827Y-137600D01*
X91719Y-137054D01*
X91409Y-136591D01*
X90946Y-136281D01*
X90400Y-136173D01*
D02*
G37*
G36*
X66822Y-165359D02*
X66276Y-165468D01*
X65813Y-165777D01*
X65503Y-166240D01*
X65395Y-166787D01*
X65503Y-167333D01*
X65813Y-167796D01*
X66276Y-168105D01*
X66822Y-168214D01*
X67369Y-168105D01*
X67832Y-167796D01*
X67849Y-167770D01*
X68055Y-167761D01*
X68410Y-167830D01*
X68663Y-168209D01*
X69126Y-168519D01*
X69672Y-168627D01*
X70219Y-168519D01*
X70682Y-168209D01*
X70991Y-167746D01*
X71039Y-167506D01*
X71549D01*
X71581Y-167668D01*
X71891Y-168131D01*
X72354Y-168441D01*
X72848Y-168539D01*
X72848Y-169010D01*
X72302Y-169119D01*
X71839Y-169428D01*
X71529Y-169892D01*
X71421Y-170438D01*
X71529Y-170984D01*
X71839Y-171447D01*
X72302Y-171756D01*
X72848Y-171865D01*
X73394Y-171756D01*
X73857Y-171447D01*
X74167Y-170984D01*
X74275Y-170438D01*
X74167Y-169892D01*
X73857Y-169428D01*
X73394Y-169119D01*
X72900Y-169020D01*
X72900Y-168550D01*
X73446Y-168441D01*
X73909Y-168131D01*
X74219Y-167668D01*
X74327Y-167122D01*
X74219Y-166576D01*
X73909Y-166113D01*
X73446Y-165803D01*
X72900Y-165695D01*
X72354Y-165803D01*
X71891Y-166113D01*
X71581Y-166576D01*
X71533Y-166816D01*
X71024D01*
X70991Y-166654D01*
X70682Y-166191D01*
X70219Y-165881D01*
X69672Y-165773D01*
X69126Y-165881D01*
X68663Y-166191D01*
X68646Y-166216D01*
X68439Y-166226D01*
X68085Y-166156D01*
X67832Y-165777D01*
X67369Y-165468D01*
X66822Y-165359D01*
D02*
G37*
G36*
X26600Y-169573D02*
X26054Y-169681D01*
X25591Y-169991D01*
X25281Y-170454D01*
X25173Y-171000D01*
X25281Y-171546D01*
X25591Y-172009D01*
X26054Y-172319D01*
X26600Y-172427D01*
X27146Y-172319D01*
X27609Y-172009D01*
X27919Y-171546D01*
X28027Y-171000D01*
X27919Y-170454D01*
X27609Y-169991D01*
X27146Y-169681D01*
X26600Y-169573D01*
D02*
G37*
G36*
X79200Y-168873D02*
X78654Y-168981D01*
X78191Y-169291D01*
X77881Y-169754D01*
X77773Y-170300D01*
X77881Y-170846D01*
X78191Y-171309D01*
X78654Y-171619D01*
X79200Y-171727D01*
X79746Y-171619D01*
X80209Y-171309D01*
X80519Y-170846D01*
X80627Y-170300D01*
X80519Y-169754D01*
X80209Y-169291D01*
X79746Y-168981D01*
X79200Y-168873D01*
D02*
G37*
G36*
X102931Y-168641D02*
X102385Y-168750D01*
X101922Y-169059D01*
X101613Y-169522D01*
X101504Y-170069D01*
X101613Y-170615D01*
X101922Y-171078D01*
X102385Y-171387D01*
X102931Y-171496D01*
X103478Y-171387D01*
X103941Y-171078D01*
X104250Y-170615D01*
X104359Y-170069D01*
X104250Y-169522D01*
X103941Y-169059D01*
X103478Y-168750D01*
X102931Y-168641D01*
D02*
G37*
G36*
X63600Y-168773D02*
X63054Y-168881D01*
X62591Y-169191D01*
X62281Y-169654D01*
X62173Y-170200D01*
X62281Y-170746D01*
X62591Y-171209D01*
X63054Y-171519D01*
X63600Y-171627D01*
X64146Y-171519D01*
X64609Y-171209D01*
X64919Y-170746D01*
X65027Y-170200D01*
X64919Y-169654D01*
X64609Y-169191D01*
X64146Y-168881D01*
X63600Y-168773D01*
D02*
G37*
G36*
X61824Y-172948D02*
X61278Y-173057D01*
X60815Y-173366D01*
X60506Y-173829D01*
X60397Y-174376D01*
X60506Y-174922D01*
X60815Y-175385D01*
X61278Y-175694D01*
X61824Y-175803D01*
X62371Y-175694D01*
X62834Y-175385D01*
X63143Y-174922D01*
X63252Y-174376D01*
X63143Y-173829D01*
X62834Y-173366D01*
X62371Y-173057D01*
X61824Y-172948D01*
D02*
G37*
G36*
X55525Y-172998D02*
X54979Y-173106D01*
X54516Y-173416D01*
X54206Y-173879D01*
X54098Y-174425D01*
X54206Y-174971D01*
X54516Y-175435D01*
X54979Y-175744D01*
X55525Y-175853D01*
X56071Y-175744D01*
X56534Y-175435D01*
X56844Y-174971D01*
X56953Y-174425D01*
X56844Y-173879D01*
X56534Y-173416D01*
X56071Y-173106D01*
X55525Y-172998D01*
D02*
G37*
G36*
X85200Y-171973D02*
X84654Y-172081D01*
X84191Y-172391D01*
X83881Y-172854D01*
X83773Y-173400D01*
X83881Y-173946D01*
X84191Y-174409D01*
X84654Y-174719D01*
X85200Y-174827D01*
X85746Y-174719D01*
X86209Y-174409D01*
X86519Y-173946D01*
X86627Y-173400D01*
X86519Y-172854D01*
X86209Y-172391D01*
X85746Y-172081D01*
X85200Y-171973D01*
D02*
G37*
G36*
X113400Y-167973D02*
X112854Y-168081D01*
X112391Y-168391D01*
X112081Y-168854D01*
X111973Y-169400D01*
X112081Y-169946D01*
X112357Y-170360D01*
X112291Y-170891D01*
X111981Y-171354D01*
X111873Y-171900D01*
X111981Y-172446D01*
X112291Y-172909D01*
X112754Y-173219D01*
X113300Y-173327D01*
X113846Y-173219D01*
X114309Y-172909D01*
X114619Y-172446D01*
X114727Y-171900D01*
X114619Y-171354D01*
X114343Y-170940D01*
X114409Y-170409D01*
X114719Y-169946D01*
X114827Y-169400D01*
X114719Y-168854D01*
X114409Y-168391D01*
X113946Y-168081D01*
X113400Y-167973D01*
D02*
G37*
G36*
X50000Y-173573D02*
X49454Y-173681D01*
X48991Y-173991D01*
X48775Y-174313D01*
X48676Y-174454D01*
X48169Y-174464D01*
X48046Y-174381D01*
X47500Y-174273D01*
X46954Y-174381D01*
X46491Y-174691D01*
X46181Y-175154D01*
X46073Y-175700D01*
X46181Y-176246D01*
X46491Y-176709D01*
X46954Y-177019D01*
X47500Y-177127D01*
X48046Y-177019D01*
X48509Y-176709D01*
X48725Y-176387D01*
X48824Y-176246D01*
X49330Y-176236D01*
X49454Y-176319D01*
X50000Y-176427D01*
X50546Y-176319D01*
X51009Y-176009D01*
X51319Y-175546D01*
X51427Y-175000D01*
X51319Y-174454D01*
X51009Y-173991D01*
X50546Y-173681D01*
X50000Y-173573D01*
D02*
G37*
G36*
X106869Y-168641D02*
X106322Y-168750D01*
X105859Y-169059D01*
X105550Y-169522D01*
X105441Y-170069D01*
X105550Y-170615D01*
X105859Y-171078D01*
X106322Y-171387D01*
X106869Y-171496D01*
X107415Y-171387D01*
X107878Y-171078D01*
X108187Y-170615D01*
X108296Y-170069D01*
X108187Y-169522D01*
X107878Y-169059D01*
X107415Y-168750D01*
X106869Y-168641D01*
D02*
G37*
G36*
X41400Y-165773D02*
X40854Y-165881D01*
X40391Y-166191D01*
X40081Y-166654D01*
X39973Y-167200D01*
X40081Y-167746D01*
X40391Y-168209D01*
X40854Y-168519D01*
X41400Y-168627D01*
X41946Y-168519D01*
X42409Y-168209D01*
X42719Y-167746D01*
X42827Y-167200D01*
X42719Y-166654D01*
X42409Y-166191D01*
X41946Y-165881D01*
X41400Y-165773D01*
D02*
G37*
G36*
X35000Y-165799D02*
X34454Y-165908D01*
X33991Y-166217D01*
X33681Y-166681D01*
X33573Y-167227D01*
X33681Y-167773D01*
X33991Y-168236D01*
X34454Y-168545D01*
X35000Y-168654D01*
X35546Y-168545D01*
X36009Y-168236D01*
X36319Y-167773D01*
X36427Y-167227D01*
X36319Y-166681D01*
X36009Y-166217D01*
X35546Y-165908D01*
X35000Y-165799D01*
D02*
G37*
G36*
X78900Y-165473D02*
X78354Y-165581D01*
X77891Y-165891D01*
X77581Y-166354D01*
X77473Y-166900D01*
X77581Y-167446D01*
X77891Y-167909D01*
X78354Y-168219D01*
X78900Y-168327D01*
X79446Y-168219D01*
X79909Y-167909D01*
X80219Y-167446D01*
X80327Y-166900D01*
X80219Y-166354D01*
X79909Y-165891D01*
X79446Y-165581D01*
X78900Y-165473D01*
D02*
G37*
G36*
X106869Y-164704D02*
X106322Y-164813D01*
X105859Y-165122D01*
X105550Y-165585D01*
X105441Y-166131D01*
X105550Y-166678D01*
X105859Y-167141D01*
X106322Y-167450D01*
X106869Y-167559D01*
X107415Y-167450D01*
X107878Y-167141D01*
X108187Y-166678D01*
X108296Y-166131D01*
X108187Y-165585D01*
X107878Y-165122D01*
X107415Y-164813D01*
X106869Y-164704D01*
D02*
G37*
G36*
X102931D02*
X102385Y-164813D01*
X101922Y-165122D01*
X101613Y-165585D01*
X101504Y-166131D01*
X101613Y-166678D01*
X101922Y-167141D01*
X102385Y-167450D01*
X102931Y-167559D01*
X103478Y-167450D01*
X103941Y-167141D01*
X104250Y-166678D01*
X104359Y-166131D01*
X104250Y-165585D01*
X103941Y-165122D01*
X103478Y-164813D01*
X102931Y-164704D01*
D02*
G37*
G36*
X27200Y-166273D02*
X26654Y-166381D01*
X26191Y-166691D01*
X25881Y-167154D01*
X25773Y-167700D01*
X25881Y-168246D01*
X26191Y-168709D01*
X26654Y-169019D01*
X27200Y-169127D01*
X27746Y-169019D01*
X28209Y-168709D01*
X28467Y-168324D01*
X28811Y-168320D01*
X28994Y-168366D01*
X29291Y-168809D01*
X29754Y-169119D01*
X30300Y-169227D01*
X30846Y-169119D01*
X31309Y-168809D01*
X31619Y-168346D01*
X31727Y-167800D01*
X31619Y-167254D01*
X31309Y-166791D01*
X30846Y-166481D01*
X30300Y-166373D01*
X29754Y-166481D01*
X29291Y-166791D01*
X29033Y-167176D01*
X28690Y-167180D01*
X28506Y-167134D01*
X28209Y-166691D01*
X27746Y-166381D01*
X27200Y-166273D01*
D02*
G37*
G36*
X15300Y-168573D02*
X14754Y-168681D01*
X14291Y-168991D01*
X13981Y-169454D01*
X13873Y-170000D01*
X13981Y-170546D01*
X14291Y-171009D01*
X14754Y-171319D01*
X15300Y-171427D01*
X15846Y-171319D01*
X16309Y-171009D01*
X16619Y-170546D01*
X16727Y-170000D01*
X16619Y-169454D01*
X16309Y-168991D01*
X15846Y-168681D01*
X15300Y-168573D01*
D02*
G37*
G36*
X50800Y-165773D02*
X50254Y-165881D01*
X49791Y-166191D01*
X49481Y-166654D01*
X49373Y-167200D01*
X49481Y-167746D01*
X49791Y-168209D01*
X50254Y-168519D01*
X50800Y-168627D01*
X51346Y-168519D01*
X51809Y-168209D01*
X51905Y-168066D01*
X52001Y-168042D01*
X52484Y-168100D01*
X52691Y-168409D01*
X53154Y-168719D01*
X53700Y-168827D01*
X54246Y-168719D01*
X54709Y-168409D01*
X55019Y-167946D01*
X55127Y-167400D01*
X55019Y-166854D01*
X54709Y-166391D01*
X54246Y-166081D01*
X53700Y-165973D01*
X53154Y-166081D01*
X52691Y-166391D01*
X52595Y-166534D01*
X52499Y-166558D01*
X52016Y-166500D01*
X51809Y-166191D01*
X51346Y-165881D01*
X50800Y-165773D01*
D02*
G37*
G36*
X88100Y-165873D02*
X87554Y-165981D01*
X87091Y-166291D01*
X86781Y-166754D01*
X86673Y-167300D01*
X86781Y-167846D01*
X87091Y-168309D01*
X87554Y-168619D01*
X88100Y-168727D01*
X88646Y-168619D01*
X89109Y-168309D01*
X89419Y-167846D01*
X89527Y-167300D01*
X89419Y-166754D01*
X89109Y-166291D01*
X88646Y-165981D01*
X88100Y-165873D01*
D02*
G37*
G36*
X84200Y-165973D02*
X83654Y-166081D01*
X83191Y-166391D01*
X82881Y-166854D01*
X82773Y-167400D01*
X82881Y-167946D01*
X83191Y-168409D01*
X83654Y-168719D01*
X84200Y-168827D01*
X84746Y-168719D01*
X85209Y-168409D01*
X85519Y-167946D01*
X85627Y-167400D01*
X85519Y-166854D01*
X85209Y-166391D01*
X84746Y-166081D01*
X84200Y-165973D01*
D02*
G37*
G36*
X40800Y-173373D02*
X40254Y-173481D01*
X39791Y-173791D01*
X39481Y-174254D01*
X39373Y-174800D01*
X39481Y-175346D01*
X39791Y-175809D01*
X40254Y-176119D01*
X40800Y-176227D01*
X41346Y-176119D01*
X41809Y-175809D01*
X42119Y-175346D01*
X42227Y-174800D01*
X42119Y-174254D01*
X41809Y-173791D01*
X41346Y-173481D01*
X40800Y-173373D01*
D02*
G37*
G36*
X103982Y-182855D02*
X103436Y-182964D01*
X102973Y-183273D01*
X102664Y-183736D01*
X102555Y-184282D01*
X102664Y-184828D01*
X102973Y-185292D01*
X103436Y-185601D01*
X103982Y-185710D01*
X104528Y-185601D01*
X104992Y-185292D01*
X105301Y-184828D01*
X105410Y-184282D01*
X105301Y-183736D01*
X104992Y-183273D01*
X104528Y-182964D01*
X103982Y-182855D01*
D02*
G37*
G36*
X69300Y-180973D02*
X68754Y-181081D01*
X68291Y-181391D01*
X67981Y-181854D01*
X67873Y-182400D01*
X67981Y-182946D01*
X68291Y-183409D01*
Y-183691D01*
X67981Y-184154D01*
X67873Y-184700D01*
X67981Y-185246D01*
X68291Y-185709D01*
X68754Y-186019D01*
X69300Y-186127D01*
X69846Y-186019D01*
X70309Y-185709D01*
X70619Y-185246D01*
X70727Y-184700D01*
X70619Y-184154D01*
X70309Y-183691D01*
Y-183409D01*
X70619Y-182946D01*
X70727Y-182400D01*
X70619Y-181854D01*
X70309Y-181391D01*
X69846Y-181081D01*
X69300Y-180973D01*
D02*
G37*
G36*
X53500Y-181173D02*
X52954Y-181281D01*
X52491Y-181591D01*
X52181Y-182054D01*
X52073Y-182600D01*
X52181Y-183146D01*
X52491Y-183609D01*
X52954Y-183919D01*
X53500Y-184027D01*
X54046Y-183919D01*
X54509Y-183609D01*
X54819Y-183146D01*
X54927Y-182600D01*
X54819Y-182054D01*
X54509Y-181591D01*
X54046Y-181281D01*
X53500Y-181173D01*
D02*
G37*
G36*
X7000Y-179973D02*
X6454Y-180081D01*
X5991Y-180391D01*
X5681Y-180854D01*
X5573Y-181400D01*
X5681Y-181946D01*
X5991Y-182409D01*
X6454Y-182719D01*
X7000Y-182827D01*
X7546Y-182719D01*
X8009Y-182409D01*
X8319Y-181946D01*
X8427Y-181400D01*
X8319Y-180854D01*
X8009Y-180391D01*
X7546Y-180081D01*
X7000Y-179973D01*
D02*
G37*
G36*
X62600Y-180773D02*
X62054Y-180881D01*
X61591Y-181191D01*
X61281Y-181654D01*
X61173Y-182200D01*
X61281Y-182746D01*
X61591Y-183209D01*
X62054Y-183519D01*
X62600Y-183627D01*
X63146Y-183519D01*
X63609Y-183209D01*
X63919Y-182746D01*
X64027Y-182200D01*
X63919Y-181654D01*
X63609Y-181191D01*
X63146Y-180881D01*
X62600Y-180773D01*
D02*
G37*
G36*
X23600Y-184473D02*
X23054Y-184581D01*
X22591Y-184891D01*
X22281Y-185354D01*
X22173Y-185900D01*
X22281Y-186446D01*
X22591Y-186909D01*
X23054Y-187219D01*
X23600Y-187327D01*
X23949Y-187258D01*
X23968Y-187266D01*
X24334Y-187632D01*
X24342Y-187651D01*
X24273Y-188000D01*
X24381Y-188546D01*
X24691Y-189009D01*
X25154Y-189319D01*
X25700Y-189427D01*
X26246Y-189319D01*
X26709Y-189009D01*
X27019Y-188546D01*
X27127Y-188000D01*
X27019Y-187454D01*
X26709Y-186991D01*
X26246Y-186681D01*
X25700Y-186573D01*
X25351Y-186642D01*
X25332Y-186634D01*
X24966Y-186268D01*
X24958Y-186249D01*
X25027Y-185900D01*
X24919Y-185354D01*
X24609Y-184891D01*
X24146Y-184581D01*
X23600Y-184473D01*
D02*
G37*
G36*
X34700Y-186773D02*
X34154Y-186881D01*
X33691Y-187191D01*
X33381Y-187654D01*
X33273Y-188200D01*
X33381Y-188746D01*
X33691Y-189209D01*
X34154Y-189519D01*
X34700Y-189627D01*
X35246Y-189519D01*
X35709Y-189209D01*
X36019Y-188746D01*
X36127Y-188200D01*
X36019Y-187654D01*
X35709Y-187191D01*
X35246Y-186881D01*
X34700Y-186773D01*
D02*
G37*
G36*
X105800Y-185973D02*
X105254Y-186081D01*
X104791Y-186391D01*
X104481Y-186854D01*
X104373Y-187400D01*
X104481Y-187946D01*
X104791Y-188409D01*
X105254Y-188719D01*
X105800Y-188827D01*
X106346Y-188719D01*
X106809Y-188409D01*
X107119Y-187946D01*
X107227Y-187400D01*
X107119Y-186854D01*
X106809Y-186391D01*
X106346Y-186081D01*
X105800Y-185973D01*
D02*
G37*
G36*
X11900Y-184373D02*
X11354Y-184481D01*
X10891Y-184791D01*
X10581Y-185254D01*
X10473Y-185800D01*
X10581Y-186346D01*
X10891Y-186809D01*
X11354Y-187119D01*
X11900Y-187227D01*
X12446Y-187119D01*
X12909Y-186809D01*
X13219Y-186346D01*
X13327Y-185800D01*
X13219Y-185254D01*
X12909Y-184791D01*
X12446Y-184481D01*
X11900Y-184373D01*
D02*
G37*
G36*
X17300Y-186473D02*
X16754Y-186581D01*
X16291Y-186891D01*
X15981Y-187354D01*
X15936Y-187582D01*
X15406Y-187684D01*
X15209Y-187391D01*
X14746Y-187081D01*
X14200Y-186973D01*
X13654Y-187081D01*
X13191Y-187391D01*
X12881Y-187854D01*
X12773Y-188400D01*
X12881Y-188946D01*
X13191Y-189409D01*
X13654Y-189719D01*
X14200Y-189827D01*
X14746Y-189719D01*
X15209Y-189409D01*
X15519Y-188946D01*
X15564Y-188718D01*
X16094Y-188616D01*
X16291Y-188909D01*
X16754Y-189219D01*
X17300Y-189327D01*
X17846Y-189219D01*
X18309Y-188909D01*
X18619Y-188446D01*
X18727Y-187900D01*
X18619Y-187354D01*
X18309Y-186891D01*
X17846Y-186581D01*
X17300Y-186473D01*
D02*
G37*
G36*
X111900Y-178973D02*
X111354Y-179081D01*
X110891Y-179391D01*
X110581Y-179854D01*
X110473Y-180400D01*
X110581Y-180946D01*
X110891Y-181409D01*
X111354Y-181719D01*
X111900Y-181827D01*
X112446Y-181719D01*
X112909Y-181409D01*
X113219Y-180946D01*
X113327Y-180400D01*
X113219Y-179854D01*
X112909Y-179391D01*
X112446Y-179081D01*
X111900Y-178973D01*
D02*
G37*
G36*
X85700Y-175373D02*
X85154Y-175481D01*
X84691Y-175791D01*
X84381Y-176254D01*
X84273Y-176800D01*
X84381Y-177346D01*
X84691Y-177809D01*
X85154Y-178119D01*
X85700Y-178227D01*
X86246Y-178119D01*
X86709Y-177809D01*
X87019Y-177346D01*
X87127Y-176800D01*
X87019Y-176254D01*
X86709Y-175791D01*
X86246Y-175481D01*
X85700Y-175373D01*
D02*
G37*
G36*
X103000Y-174373D02*
X102454Y-174481D01*
X101991Y-174791D01*
X101681Y-175254D01*
X101573Y-175800D01*
X101681Y-176346D01*
X101991Y-176809D01*
X102454Y-177119D01*
X103000Y-177227D01*
X103080Y-177212D01*
X103505Y-177637D01*
X103473Y-177800D01*
X103581Y-178346D01*
X103891Y-178809D01*
X104354Y-179119D01*
X104900Y-179227D01*
X105446Y-179119D01*
X105909Y-178809D01*
X106219Y-178346D01*
X106327Y-177800D01*
X106219Y-177254D01*
X105909Y-176791D01*
X105446Y-176481D01*
X104900Y-176373D01*
X104820Y-176388D01*
X104395Y-175963D01*
X104427Y-175800D01*
X104319Y-175254D01*
X104009Y-174791D01*
X103546Y-174481D01*
X103000Y-174373D01*
D02*
G37*
G36*
X73100Y-175073D02*
X72554Y-175181D01*
X72091Y-175491D01*
X71781Y-175954D01*
X71673Y-176500D01*
X71781Y-177046D01*
X72091Y-177509D01*
X72554Y-177819D01*
X73100Y-177927D01*
X73646Y-177819D01*
X74109Y-177509D01*
X74419Y-177046D01*
X74527Y-176500D01*
X74419Y-175954D01*
X74109Y-175491D01*
X73646Y-175181D01*
X73100Y-175073D01*
D02*
G37*
G36*
X66000Y-173773D02*
X65454Y-173881D01*
X64991Y-174191D01*
X64681Y-174654D01*
X64573Y-175200D01*
X64681Y-175746D01*
X64991Y-176209D01*
X65454Y-176519D01*
X66000Y-176627D01*
X66546Y-176519D01*
X67009Y-176209D01*
X67319Y-175746D01*
X67427Y-175200D01*
X67319Y-174654D01*
X67009Y-174191D01*
X66546Y-173881D01*
X66000Y-173773D01*
D02*
G37*
G36*
X25400Y-177245D02*
X24854Y-177354D01*
X24391Y-177663D01*
X23783Y-177673D01*
X23646Y-177581D01*
X23100Y-177473D01*
X22554Y-177581D01*
X22091Y-177891D01*
X21781Y-178354D01*
X21761Y-178457D01*
X21346Y-178781D01*
X20800Y-178673D01*
X20254Y-178781D01*
X19791Y-179091D01*
X19481Y-179554D01*
X19373Y-180100D01*
X19481Y-180646D01*
X19791Y-181109D01*
X20254Y-181419D01*
X20800Y-181527D01*
X21346Y-181419D01*
X21809Y-181109D01*
X22119Y-180646D01*
X22139Y-180543D01*
X22554Y-180219D01*
X23100Y-180327D01*
X23646Y-180219D01*
X24109Y-179909D01*
X24717Y-179900D01*
X24854Y-179991D01*
X25400Y-180100D01*
X25946Y-179991D01*
X26409Y-179682D01*
X26719Y-179219D01*
X26827Y-178672D01*
X26719Y-178126D01*
X26409Y-177663D01*
X25946Y-177354D01*
X25400Y-177245D01*
D02*
G37*
G36*
X115300Y-178773D02*
X114754Y-178881D01*
X114291Y-179191D01*
X113981Y-179654D01*
X113873Y-180200D01*
X113981Y-180746D01*
X114291Y-181209D01*
X114754Y-181519D01*
X115300Y-181627D01*
X115846Y-181519D01*
X116309Y-181209D01*
X116619Y-180746D01*
X116727Y-180200D01*
X116619Y-179654D01*
X116309Y-179191D01*
X115846Y-178881D01*
X115300Y-178773D01*
D02*
G37*
G36*
X16400Y-178873D02*
X15854Y-178981D01*
X15391Y-179291D01*
X15081Y-179754D01*
X14973Y-180300D01*
X15081Y-180846D01*
X15391Y-181309D01*
X15854Y-181619D01*
X16400Y-181727D01*
X16946Y-181619D01*
X17409Y-181309D01*
X17719Y-180846D01*
X17827Y-180300D01*
X17719Y-179754D01*
X17409Y-179291D01*
X16946Y-178981D01*
X16400Y-178873D01*
D02*
G37*
G36*
X3200Y-177973D02*
X2654Y-178081D01*
X2191Y-178391D01*
X1881Y-178854D01*
X1773Y-179400D01*
X1881Y-179946D01*
X2191Y-180409D01*
X2654Y-180719D01*
X3200Y-180827D01*
X3746Y-180719D01*
X4209Y-180409D01*
X4519Y-179946D01*
X4627Y-179400D01*
X4519Y-178854D01*
X4209Y-178391D01*
X3746Y-178081D01*
X3200Y-177973D01*
D02*
G37*
G36*
X77900Y-177673D02*
X77354Y-177781D01*
X76891Y-178091D01*
X76581Y-178554D01*
X76473Y-179100D01*
X76501Y-179244D01*
X76019Y-179354D01*
X75970Y-179281D01*
X75709Y-178891D01*
X75246Y-178581D01*
X74700Y-178473D01*
X74154Y-178581D01*
X73691Y-178891D01*
X73475Y-179213D01*
X73376Y-179354D01*
X72869Y-179364D01*
X72746Y-179281D01*
X72200Y-179173D01*
X71654Y-179281D01*
X71191Y-179591D01*
X70881Y-180054D01*
X70773Y-180600D01*
X70881Y-181146D01*
X71191Y-181609D01*
X71654Y-181919D01*
X72200Y-182027D01*
X72746Y-181919D01*
X73209Y-181609D01*
X73425Y-181287D01*
X73524Y-181146D01*
X74031Y-181136D01*
X74154Y-181219D01*
X74700Y-181327D01*
X75246Y-181219D01*
X75709Y-180909D01*
X76019Y-180446D01*
X76127Y-179900D01*
X76099Y-179756D01*
X76581Y-179646D01*
X76630Y-179719D01*
X76891Y-180109D01*
Y-180391D01*
X76581Y-180854D01*
X76473Y-181400D01*
X76581Y-181946D01*
X76891Y-182409D01*
X77354Y-182719D01*
X77900Y-182827D01*
X78446Y-182719D01*
X78909Y-182409D01*
X79219Y-181946D01*
X79327Y-181400D01*
X79219Y-180854D01*
X78909Y-180391D01*
Y-180109D01*
X79219Y-179646D01*
X79327Y-179100D01*
X79219Y-178554D01*
X78909Y-178091D01*
X78446Y-177781D01*
X77900Y-177673D01*
D02*
G37*
G36*
X35800Y-173573D02*
X35254Y-173681D01*
X34791Y-173991D01*
X34481Y-174454D01*
X34373Y-175000D01*
X34481Y-175546D01*
X34791Y-176009D01*
X35254Y-176319D01*
X35309Y-176330D01*
X35689Y-176915D01*
X35673Y-177000D01*
X35781Y-177546D01*
X35989Y-177857D01*
X36054Y-178200D01*
X35989Y-178543D01*
X35781Y-178854D01*
X35673Y-179400D01*
X35781Y-179946D01*
X36091Y-180409D01*
X36554Y-180719D01*
X37100Y-180827D01*
X37646Y-180719D01*
X38109Y-180409D01*
X38419Y-179946D01*
X38527Y-179400D01*
X38419Y-178854D01*
X38211Y-178543D01*
X38146Y-178200D01*
X38211Y-177857D01*
X38419Y-177546D01*
X38527Y-177000D01*
X38419Y-176454D01*
X38109Y-175991D01*
X37646Y-175681D01*
X37591Y-175670D01*
X37211Y-175085D01*
X37227Y-175000D01*
X37119Y-174454D01*
X36809Y-173991D01*
X36346Y-173681D01*
X35800Y-173573D01*
D02*
G37*
G36*
X76172Y-146909D02*
X75625Y-147018D01*
X75162Y-147327D01*
X74853Y-147790D01*
X74744Y-148336D01*
X74853Y-148882D01*
X75162Y-149346D01*
X75625Y-149655D01*
X76172Y-149764D01*
X76718Y-149655D01*
X77181Y-149346D01*
X77490Y-148882D01*
X77599Y-148336D01*
X77490Y-147790D01*
X77181Y-147327D01*
X76718Y-147018D01*
X76172Y-146909D01*
D02*
G37*
G36*
X85400Y-147073D02*
X84854Y-147181D01*
X84391Y-147491D01*
X84081Y-147954D01*
X83973Y-148500D01*
X84081Y-149046D01*
X84391Y-149509D01*
X84854Y-149819D01*
X85400Y-149927D01*
X85946Y-149819D01*
X86409Y-149509D01*
X86719Y-149046D01*
X86827Y-148500D01*
X86719Y-147954D01*
X86409Y-147491D01*
X85946Y-147181D01*
X85400Y-147073D01*
D02*
G37*
G36*
X44500Y-146873D02*
X43954Y-146981D01*
X43491Y-147291D01*
X43181Y-147754D01*
X43073Y-148300D01*
X43181Y-148846D01*
X43491Y-149309D01*
X43954Y-149619D01*
X44500Y-149727D01*
X45046Y-149619D01*
X45509Y-149309D01*
X45819Y-148846D01*
X45927Y-148300D01*
X45819Y-147754D01*
X45509Y-147291D01*
X45046Y-146981D01*
X44500Y-146873D01*
D02*
G37*
G36*
X18400Y-143173D02*
X17854Y-143281D01*
X17391Y-143591D01*
X17081Y-144054D01*
X16973Y-144600D01*
X17081Y-145146D01*
X17391Y-145609D01*
X17854Y-145919D01*
X18400Y-146027D01*
X18946Y-145919D01*
X19409Y-145609D01*
X19719Y-145146D01*
X19827Y-144600D01*
X19719Y-144054D01*
X19409Y-143591D01*
X18946Y-143281D01*
X18400Y-143173D01*
D02*
G37*
G36*
X97700Y-145173D02*
X97154Y-145281D01*
X96691Y-145591D01*
X96381Y-146054D01*
X96273Y-146600D01*
X96377Y-147124D01*
X96364Y-147136D01*
X95818Y-147245D01*
X95354Y-147555D01*
X95045Y-148018D01*
X94936Y-148564D01*
X95045Y-149110D01*
X95277Y-149458D01*
X95063Y-149883D01*
X95029Y-149918D01*
X94800Y-149873D01*
X94254Y-149981D01*
X93791Y-150291D01*
X93481Y-150754D01*
X93373Y-151300D01*
X93481Y-151846D01*
X93791Y-152309D01*
X94254Y-152619D01*
X94800Y-152727D01*
X95346Y-152619D01*
X95809Y-152309D01*
X96119Y-151846D01*
X96227Y-151300D01*
X96119Y-150754D01*
X95886Y-150406D01*
X96101Y-149981D01*
X96134Y-149946D01*
X96364Y-149991D01*
X96910Y-149883D01*
X97373Y-149573D01*
X97683Y-149110D01*
X97791Y-148564D01*
X97687Y-148040D01*
X97700Y-148027D01*
X98246Y-147919D01*
X98709Y-147609D01*
X99234Y-147724D01*
X99291Y-147809D01*
X99754Y-148119D01*
X100300Y-148227D01*
X100846Y-148119D01*
X101309Y-147809D01*
X101619Y-147346D01*
X101727Y-146800D01*
X101619Y-146254D01*
X101309Y-145791D01*
X100846Y-145481D01*
X100300Y-145373D01*
X99754Y-145481D01*
X99291Y-145791D01*
X98766Y-145676D01*
X98709Y-145591D01*
X98246Y-145281D01*
X97700Y-145173D01*
D02*
G37*
G36*
X73077Y-143623D02*
X72530Y-143731D01*
X72067Y-144041D01*
X71758Y-144504D01*
X71649Y-145050D01*
X71758Y-145596D01*
X72067Y-146059D01*
X72530Y-146369D01*
X72650Y-146393D01*
Y-146902D01*
X72254Y-146981D01*
X71791Y-147291D01*
X71481Y-147754D01*
X71373Y-148300D01*
X71481Y-148846D01*
X71791Y-149309D01*
X72234Y-149606D01*
X72280Y-149790D01*
X72276Y-150133D01*
X71891Y-150391D01*
X71581Y-150854D01*
X71473Y-151400D01*
X71581Y-151946D01*
X71891Y-152409D01*
X72354Y-152719D01*
X72900Y-152827D01*
X73446Y-152719D01*
X73909Y-152409D01*
X74219Y-151946D01*
X74327Y-151400D01*
X74219Y-150854D01*
X73909Y-150391D01*
X73466Y-150094D01*
X73420Y-149910D01*
X73424Y-149567D01*
X73809Y-149309D01*
X74119Y-148846D01*
X74227Y-148300D01*
X74119Y-147754D01*
X73809Y-147291D01*
X73346Y-146981D01*
X73226Y-146957D01*
Y-146448D01*
X73623Y-146369D01*
X74086Y-146059D01*
X74395Y-145596D01*
X74504Y-145050D01*
X74395Y-144504D01*
X74086Y-144041D01*
X73623Y-143731D01*
X73077Y-143623D01*
D02*
G37*
G36*
X53836Y-149999D02*
X53290Y-150107D01*
X52827Y-150417D01*
X52518Y-150880D01*
X52409Y-151426D01*
X52518Y-151972D01*
X52827Y-152435D01*
X53290Y-152745D01*
X53836Y-152853D01*
X54383Y-152745D01*
X54846Y-152435D01*
X55155Y-151972D01*
X55264Y-151426D01*
X55155Y-150880D01*
X54846Y-150417D01*
X54383Y-150107D01*
X53836Y-149999D01*
D02*
G37*
G36*
X47700Y-149873D02*
X47154Y-149981D01*
X46691Y-150291D01*
X46381Y-150754D01*
X46273Y-151300D01*
X46381Y-151846D01*
X46691Y-152309D01*
X47154Y-152619D01*
X47700Y-152727D01*
X48246Y-152619D01*
X48709Y-152309D01*
X49019Y-151846D01*
X49127Y-151300D01*
X49019Y-150754D01*
X48709Y-150291D01*
X48246Y-149981D01*
X47700Y-149873D01*
D02*
G37*
G36*
X66400Y-147073D02*
X65854Y-147181D01*
X65391Y-147491D01*
X65081Y-147954D01*
X64973Y-148500D01*
X65081Y-149046D01*
X65391Y-149509D01*
X65854Y-149819D01*
X66400Y-149927D01*
X66946Y-149819D01*
X67409Y-149509D01*
X67719Y-149046D01*
X67827Y-148500D01*
X67719Y-147954D01*
X67409Y-147491D01*
X66946Y-147181D01*
X66400Y-147073D01*
D02*
G37*
G36*
X35121Y-149817D02*
X34574Y-149925D01*
X34111Y-150235D01*
X33802Y-150698D01*
X33693Y-151244D01*
X33802Y-151790D01*
X34111Y-152253D01*
X34574Y-152563D01*
X35121Y-152672D01*
X35667Y-152563D01*
X36130Y-152253D01*
X36439Y-151790D01*
X36545Y-151259D01*
X37023Y-151293D01*
X37131Y-151839D01*
X37441Y-152302D01*
X37904Y-152611D01*
X38450Y-152720D01*
X38996Y-152611D01*
X39459Y-152302D01*
X39769Y-151839D01*
X39877Y-151292D01*
X39769Y-150746D01*
X39459Y-150283D01*
X38996Y-149974D01*
X38450Y-149865D01*
X37904Y-149974D01*
X37441Y-150283D01*
X37131Y-150746D01*
X37026Y-151277D01*
X36548Y-151244D01*
X36439Y-150698D01*
X36130Y-150235D01*
X35667Y-149925D01*
X35121Y-149817D01*
D02*
G37*
G36*
X60700Y-142873D02*
X60154Y-142981D01*
X59691Y-143291D01*
X59381Y-143754D01*
X59273Y-144300D01*
X59381Y-144846D01*
X59691Y-145309D01*
X60154Y-145619D01*
X60700Y-145727D01*
X61246Y-145619D01*
X61709Y-145309D01*
X62019Y-144846D01*
X62127Y-144300D01*
X62019Y-143754D01*
X61709Y-143291D01*
X61246Y-142981D01*
X60700Y-142873D01*
D02*
G37*
G36*
X99000Y-137973D02*
X98454Y-138081D01*
X97991Y-138391D01*
X97681Y-138854D01*
X97573Y-139400D01*
X97681Y-139946D01*
X97689Y-139959D01*
X97577Y-140155D01*
X97359Y-140364D01*
X96900Y-140273D01*
X96354Y-140381D01*
X95891Y-140691D01*
X95581Y-141154D01*
X95473Y-141700D01*
X95581Y-142246D01*
X95891Y-142709D01*
X96354Y-143019D01*
X96900Y-143127D01*
X97446Y-143019D01*
X97909Y-142709D01*
X98219Y-142246D01*
X98327Y-141700D01*
X98219Y-141154D01*
X98211Y-141141D01*
X98323Y-140945D01*
X98541Y-140736D01*
X99000Y-140827D01*
X99546Y-140719D01*
X100009Y-140409D01*
X100319Y-139946D01*
X100427Y-139400D01*
X100319Y-138854D01*
X100009Y-138391D01*
X99546Y-138081D01*
X99000Y-137973D01*
D02*
G37*
G36*
X19500Y-137573D02*
X18954Y-137681D01*
X18491Y-137991D01*
X18181Y-138454D01*
X18073Y-139000D01*
X18181Y-139546D01*
X18491Y-140009D01*
X18954Y-140319D01*
X19500Y-140427D01*
X20046Y-140319D01*
X20509Y-140009D01*
X20819Y-139546D01*
X20927Y-139000D01*
X20819Y-138454D01*
X20509Y-137991D01*
X20046Y-137681D01*
X19500Y-137573D01*
D02*
G37*
G36*
X32400Y-137373D02*
X31854Y-137481D01*
X31391Y-137791D01*
X31081Y-138254D01*
X30973Y-138800D01*
X31081Y-139346D01*
X31391Y-139809D01*
X31854Y-140119D01*
X32400Y-140227D01*
X32946Y-140119D01*
X33409Y-139809D01*
X33719Y-139346D01*
X33827Y-138800D01*
X33719Y-138254D01*
X33409Y-137791D01*
X32946Y-137481D01*
X32400Y-137373D01*
D02*
G37*
G36*
X45500Y-133073D02*
X44954Y-133181D01*
X44491Y-133491D01*
X44181Y-133954D01*
X44073Y-134500D01*
X44181Y-135046D01*
X44393Y-135364D01*
X44364Y-135741D01*
X44251Y-135950D01*
X43891Y-136191D01*
X43581Y-136654D01*
X43473Y-137200D01*
X43581Y-137746D01*
X43891Y-138209D01*
X44354Y-138519D01*
X44900Y-138627D01*
X45446Y-138519D01*
X45909Y-138209D01*
X46219Y-137746D01*
X46327Y-137200D01*
X46219Y-136654D01*
X46007Y-136336D01*
X46036Y-135959D01*
X46150Y-135750D01*
X46509Y-135509D01*
X46819Y-135046D01*
X46927Y-134500D01*
X46819Y-133954D01*
X46509Y-133491D01*
X46046Y-133181D01*
X45500Y-133073D01*
D02*
G37*
G36*
X83700Y-136873D02*
X83154Y-136981D01*
X82691Y-137291D01*
X82381Y-137754D01*
X82273Y-138300D01*
X82381Y-138846D01*
X82691Y-139309D01*
X83154Y-139619D01*
X83700Y-139727D01*
X84246Y-139619D01*
X84709Y-139309D01*
X85019Y-138846D01*
X85127Y-138300D01*
X85019Y-137754D01*
X84709Y-137291D01*
X84246Y-136981D01*
X83700Y-136873D01*
D02*
G37*
G36*
X51630Y-140236D02*
X51084Y-140345D01*
X50621Y-140654D01*
X50311Y-141117D01*
X50202Y-141663D01*
X50311Y-142209D01*
X50621Y-142673D01*
X51084Y-142982D01*
X51630Y-143091D01*
X52176Y-142982D01*
X52639Y-142673D01*
X52949Y-142209D01*
X53057Y-141663D01*
X52949Y-141117D01*
X52639Y-140654D01*
X52176Y-140345D01*
X51630Y-140236D01*
D02*
G37*
G36*
X105500Y-141873D02*
X104954Y-141981D01*
X104491Y-142291D01*
X104181Y-142754D01*
X104073Y-143300D01*
X104181Y-143846D01*
X104491Y-144309D01*
X104954Y-144619D01*
X105500Y-144727D01*
X106046Y-144619D01*
X106509Y-144309D01*
X106819Y-143846D01*
X106927Y-143300D01*
X106819Y-142754D01*
X106509Y-142291D01*
X106046Y-141981D01*
X105500Y-141873D01*
D02*
G37*
G36*
X69300Y-139873D02*
X68754Y-139981D01*
X68291Y-140291D01*
X67981Y-140754D01*
X67873Y-141300D01*
X67981Y-141846D01*
X68291Y-142309D01*
X68754Y-142619D01*
X69300Y-142727D01*
X69846Y-142619D01*
X70309Y-142309D01*
X70619Y-141846D01*
X70727Y-141300D01*
X70619Y-140754D01*
X70309Y-140291D01*
X69846Y-139981D01*
X69300Y-139873D01*
D02*
G37*
G36*
X103800Y-138173D02*
X103254Y-138281D01*
X102791Y-138591D01*
X102481Y-139054D01*
X102373Y-139600D01*
X102481Y-140146D01*
X102791Y-140609D01*
X103254Y-140919D01*
X103800Y-141027D01*
X104346Y-140919D01*
X104809Y-140609D01*
X105119Y-140146D01*
X105227Y-139600D01*
X105119Y-139054D01*
X104809Y-138591D01*
X104346Y-138281D01*
X103800Y-138173D01*
D02*
G37*
G36*
X47000Y-138873D02*
X46454Y-138981D01*
X45991Y-139291D01*
X45681Y-139754D01*
X45573Y-140300D01*
X45681Y-140846D01*
X45991Y-141309D01*
X46454Y-141619D01*
X47000Y-141727D01*
X47546Y-141619D01*
X48009Y-141309D01*
X48319Y-140846D01*
X48427Y-140300D01*
X48319Y-139754D01*
X48009Y-139291D01*
X47546Y-138981D01*
X47000Y-138873D01*
D02*
G37*
G36*
X60043Y-150320D02*
X59496Y-150428D01*
X59033Y-150738D01*
X58724Y-151201D01*
X58615Y-151747D01*
X58724Y-152293D01*
X59033Y-152757D01*
X59496Y-153066D01*
X60043Y-153175D01*
X60589Y-153066D01*
X61052Y-152757D01*
X61361Y-152293D01*
X61470Y-151747D01*
X61361Y-151201D01*
X61052Y-150738D01*
X60589Y-150428D01*
X60043Y-150320D01*
D02*
G37*
G36*
X55300Y-161373D02*
X54754Y-161481D01*
X54291Y-161791D01*
X53981Y-162254D01*
X53905Y-162637D01*
X53395D01*
X53363Y-162476D01*
X53319Y-162254D01*
X53009Y-161791D01*
X52546Y-161481D01*
X52000Y-161373D01*
X51454Y-161481D01*
X50991Y-161791D01*
X50951Y-161851D01*
X50349D01*
X50309Y-161791D01*
X49846Y-161481D01*
X49300Y-161373D01*
X48754Y-161481D01*
X48291Y-161791D01*
X47981Y-162254D01*
X47873Y-162800D01*
X47981Y-163346D01*
X48291Y-163809D01*
X48754Y-164119D01*
X49300Y-164227D01*
X49846Y-164119D01*
X50309Y-163809D01*
X50349Y-163750D01*
X50951D01*
X50991Y-163809D01*
X51454Y-164119D01*
X52000Y-164227D01*
X52546Y-164119D01*
X53009Y-163809D01*
X53319Y-163346D01*
X53395Y-162962D01*
X53905D01*
X53937Y-163124D01*
X53981Y-163346D01*
X54291Y-163809D01*
X54754Y-164119D01*
X55300Y-164227D01*
X55846Y-164119D01*
X56309Y-163809D01*
X56619Y-163346D01*
X56727Y-162800D01*
X56619Y-162254D01*
X56309Y-161791D01*
X55846Y-161481D01*
X55300Y-161373D01*
D02*
G37*
G36*
X64900Y-158173D02*
X64354Y-158281D01*
X63891Y-158591D01*
X63581Y-159054D01*
X63473Y-159600D01*
X63581Y-160146D01*
X63891Y-160609D01*
X64354Y-160919D01*
X64900Y-161027D01*
X64985Y-161515D01*
X64654Y-161581D01*
X64191Y-161891D01*
X63881Y-162354D01*
X63805Y-162735D01*
X63327Y-162700D01*
X63219Y-162154D01*
X62909Y-161691D01*
X62446Y-161381D01*
X61900Y-161273D01*
X61354Y-161381D01*
X60891Y-161691D01*
X60581Y-162154D01*
X60530Y-162412D01*
X60020D01*
X59994Y-162279D01*
X59684Y-161816D01*
X59221Y-161506D01*
X58675Y-161398D01*
X58128Y-161506D01*
X57665Y-161816D01*
X57356Y-162279D01*
X57247Y-162825D01*
X57356Y-163372D01*
X57665Y-163835D01*
X58128Y-164144D01*
X58675Y-164253D01*
X59221Y-164144D01*
X59684Y-163835D01*
X59994Y-163372D01*
X60045Y-163113D01*
X60555D01*
X60581Y-163246D01*
X60891Y-163709D01*
X61354Y-164019D01*
X61900Y-164127D01*
X62446Y-164019D01*
X62909Y-163709D01*
X63219Y-163246D01*
X63295Y-162865D01*
X63773Y-162900D01*
X63881Y-163446D01*
X64191Y-163909D01*
X64654Y-164219D01*
X65200Y-164327D01*
X65746Y-164219D01*
X66209Y-163909D01*
X66519Y-163446D01*
X66627Y-162900D01*
X66519Y-162354D01*
X66209Y-161891D01*
X65746Y-161581D01*
X65200Y-161473D01*
X65115Y-160985D01*
X65446Y-160919D01*
X65909Y-160609D01*
X66219Y-160146D01*
X66327Y-159600D01*
X66219Y-159054D01*
X65909Y-158591D01*
X65446Y-158281D01*
X64900Y-158173D01*
D02*
G37*
G36*
X75700Y-160673D02*
X75154Y-160781D01*
X74691Y-161091D01*
X74381Y-161554D01*
X74273Y-162100D01*
X73795Y-162135D01*
X73719Y-161754D01*
X73409Y-161291D01*
X72946Y-160981D01*
X72400Y-160873D01*
X71854Y-160981D01*
X71391Y-161291D01*
X71081Y-161754D01*
X70973Y-162300D01*
X71081Y-162846D01*
X71391Y-163309D01*
X71854Y-163619D01*
X72400Y-163727D01*
X72946Y-163619D01*
X73409Y-163309D01*
X73719Y-162846D01*
X73827Y-162300D01*
X74305Y-162265D01*
X74381Y-162646D01*
X74691Y-163109D01*
X75154Y-163419D01*
X75700Y-163527D01*
X76246Y-163419D01*
X76709Y-163109D01*
X77019Y-162646D01*
X77127Y-162100D01*
X77019Y-161554D01*
X76709Y-161091D01*
X76246Y-160781D01*
X75700Y-160673D01*
D02*
G37*
G36*
X102900Y-158073D02*
X102354Y-158181D01*
X101891Y-158491D01*
X101581Y-158954D01*
X101473Y-159500D01*
X101581Y-160046D01*
X101891Y-160509D01*
X102354Y-160819D01*
X102900Y-160927D01*
X103446Y-160819D01*
X103909Y-160509D01*
X104219Y-160046D01*
X104327Y-159500D01*
X104219Y-158954D01*
X103909Y-158491D01*
X103446Y-158181D01*
X102900Y-158073D01*
D02*
G37*
G36*
X114200Y-152973D02*
X113654Y-153081D01*
X113191Y-153391D01*
X112881Y-153854D01*
X112773Y-154400D01*
X112881Y-154946D01*
X113191Y-155409D01*
X113654Y-155719D01*
X114187Y-155825D01*
X114215Y-155869D01*
X114371Y-156303D01*
X114091Y-156491D01*
X113781Y-156954D01*
X113673Y-157500D01*
X113781Y-158046D01*
X114056Y-158458D01*
X114088Y-158526D01*
X114000Y-159051D01*
X113791Y-159191D01*
X113481Y-159654D01*
X113373Y-160200D01*
X113481Y-160746D01*
X113791Y-161209D01*
X114254Y-161519D01*
X114800Y-161627D01*
X115346Y-161519D01*
X115809Y-161209D01*
X116119Y-160746D01*
X116227Y-160200D01*
X116119Y-159654D01*
X115844Y-159242D01*
X115812Y-159174D01*
X115900Y-158650D01*
X116109Y-158509D01*
X116419Y-158046D01*
X116527Y-157500D01*
X116419Y-156954D01*
X116109Y-156491D01*
X115646Y-156181D01*
X115113Y-156075D01*
X115085Y-156031D01*
X114929Y-155597D01*
X115209Y-155409D01*
X115519Y-154946D01*
X115627Y-154400D01*
X115519Y-153854D01*
X115209Y-153391D01*
X114746Y-153081D01*
X114200Y-152973D01*
D02*
G37*
G36*
X10469Y-163441D02*
X9922Y-163550D01*
X9459Y-163859D01*
X9150Y-164322D01*
X9041Y-164868D01*
X9150Y-165415D01*
X9459Y-165878D01*
X9922Y-166187D01*
X10469Y-166296D01*
X11015Y-166187D01*
X11478Y-165878D01*
X11787Y-165415D01*
X11896Y-164868D01*
X11787Y-164322D01*
X11478Y-163859D01*
X11015Y-163550D01*
X10469Y-163441D01*
D02*
G37*
G36*
X6532D02*
X5985Y-163550D01*
X5522Y-163859D01*
X5213Y-164322D01*
X5104Y-164868D01*
X5213Y-165415D01*
X5522Y-165878D01*
X5985Y-166187D01*
X6532Y-166296D01*
X7078Y-166187D01*
X7541Y-165878D01*
X7850Y-165415D01*
X7959Y-164868D01*
X7850Y-164322D01*
X7541Y-163859D01*
X7078Y-163550D01*
X6532Y-163441D01*
D02*
G37*
G36*
X24600Y-162873D02*
X24054Y-162981D01*
X23591Y-163291D01*
X23281Y-163754D01*
X23173Y-164300D01*
X23281Y-164846D01*
X23591Y-165309D01*
X24054Y-165619D01*
X24600Y-165727D01*
X25146Y-165619D01*
X25609Y-165309D01*
X25919Y-164846D01*
X26027Y-164300D01*
X25919Y-163754D01*
X25609Y-163291D01*
X25146Y-162981D01*
X24600Y-162873D01*
D02*
G37*
G36*
X82300Y-160373D02*
X81754Y-160481D01*
X81291Y-160791D01*
X80981Y-161254D01*
X80873Y-161800D01*
X80981Y-162346D01*
X81291Y-162809D01*
X81754Y-163119D01*
X82300Y-163227D01*
X82846Y-163119D01*
X83309Y-162809D01*
X83619Y-162346D01*
X83727Y-161800D01*
X83619Y-161254D01*
X83309Y-160791D01*
X82846Y-160481D01*
X82300Y-160373D01*
D02*
G37*
G36*
X33478Y-161250D02*
X32932Y-161359D01*
X32469Y-161669D01*
X32159Y-162132D01*
X32050Y-162678D01*
X32159Y-163224D01*
X32469Y-163687D01*
X32932Y-163997D01*
X33478Y-164105D01*
X34024Y-163997D01*
X34487Y-163687D01*
X34784Y-163243D01*
X34870Y-163230D01*
X35298Y-163266D01*
X35309Y-163319D01*
X35618Y-163782D01*
X36081Y-164091D01*
X36628Y-164200D01*
X37174Y-164091D01*
X37637Y-163782D01*
X37946Y-163319D01*
X37952Y-163288D01*
X38422Y-163270D01*
X38464Y-163278D01*
X38768Y-163732D01*
X39231Y-164042D01*
X39777Y-164150D01*
X40323Y-164042D01*
X40786Y-163732D01*
X41096Y-163269D01*
X41195Y-162769D01*
X41673Y-162800D01*
X41781Y-163346D01*
X42091Y-163809D01*
X42554Y-164119D01*
X43100Y-164227D01*
X43646Y-164119D01*
X44109Y-163809D01*
X44149Y-163750D01*
X44751D01*
X44791Y-163809D01*
X45254Y-164119D01*
X45800Y-164227D01*
X46346Y-164119D01*
X46809Y-163809D01*
X47119Y-163346D01*
X47227Y-162800D01*
X47119Y-162254D01*
X46809Y-161791D01*
X46346Y-161481D01*
X45800Y-161373D01*
X45254Y-161481D01*
X44791Y-161791D01*
X44751Y-161851D01*
X44149D01*
X44109Y-161791D01*
X43646Y-161481D01*
X43100Y-161373D01*
X42554Y-161481D01*
X42091Y-161791D01*
X41781Y-162254D01*
X41682Y-162754D01*
X41205Y-162723D01*
X41096Y-162177D01*
X40786Y-161714D01*
X40323Y-161404D01*
X39777Y-161295D01*
X39231Y-161404D01*
X38768Y-161714D01*
X38458Y-162177D01*
X38452Y-162207D01*
X37982Y-162225D01*
X37940Y-162217D01*
X37637Y-161763D01*
X37174Y-161454D01*
X36628Y-161345D01*
X36081Y-161454D01*
X35618Y-161763D01*
X35322Y-162207D01*
X35236Y-162220D01*
X34807Y-162185D01*
X34797Y-162132D01*
X34487Y-161669D01*
X34024Y-161359D01*
X33478Y-161250D01*
D02*
G37*
G36*
X110800Y-156073D02*
X110254Y-156181D01*
X109791Y-156491D01*
X109481Y-156954D01*
X109373Y-157500D01*
X109481Y-158046D01*
X109596Y-158219D01*
X109572Y-158409D01*
X109383Y-158540D01*
X108792Y-158532D01*
X108329Y-158222D01*
X107783Y-158114D01*
X107237Y-158222D01*
X106774Y-158532D01*
X106464Y-158995D01*
X106356Y-159541D01*
X106464Y-160087D01*
X106774Y-160550D01*
X107237Y-160860D01*
X107783Y-160968D01*
X108329Y-160860D01*
X108725Y-160595D01*
X108836Y-160559D01*
X109322Y-160657D01*
X109491Y-160909D01*
X109954Y-161219D01*
X110500Y-161327D01*
X111046Y-161219D01*
X111509Y-160909D01*
X111819Y-160446D01*
X111927Y-159900D01*
X111819Y-159354D01*
X111704Y-159181D01*
X111730Y-158979D01*
X111802Y-158519D01*
X111809Y-158509D01*
X112119Y-158046D01*
X112227Y-157500D01*
X112119Y-156954D01*
X111809Y-156491D01*
X111346Y-156181D01*
X110800Y-156073D01*
D02*
G37*
G36*
X60100Y-154073D02*
X59554Y-154181D01*
X59091Y-154491D01*
X58781Y-154954D01*
X58673Y-155500D01*
X58781Y-156046D01*
X59091Y-156509D01*
X59554Y-156819D01*
X60100Y-156927D01*
X60646Y-156819D01*
X61109Y-156509D01*
X61419Y-156046D01*
X61527Y-155500D01*
X61419Y-154954D01*
X61109Y-154491D01*
X60646Y-154181D01*
X60100Y-154073D01*
D02*
G37*
G36*
X72200Y-153773D02*
X71654Y-153881D01*
X71191Y-154191D01*
X70881Y-154654D01*
X70773Y-155200D01*
X70881Y-155746D01*
X71191Y-156209D01*
X71654Y-156519D01*
X72200Y-156627D01*
X72746Y-156519D01*
X73209Y-156209D01*
X73483Y-155800D01*
X73698Y-155786D01*
X74003Y-155853D01*
X74081Y-156246D01*
X74391Y-156709D01*
X74854Y-157019D01*
X75400Y-157127D01*
X75946Y-157019D01*
X76409Y-156709D01*
X76719Y-156246D01*
X76827Y-155700D01*
X76719Y-155154D01*
X76409Y-154691D01*
X75946Y-154381D01*
X75400Y-154273D01*
X74854Y-154381D01*
X74391Y-154691D01*
X74117Y-155100D01*
X73902Y-155114D01*
X73597Y-155047D01*
X73519Y-154654D01*
X73209Y-154191D01*
X72746Y-153881D01*
X72200Y-153773D01*
D02*
G37*
G36*
X42800Y-154573D02*
X42254Y-154681D01*
X41791Y-154991D01*
X41481Y-155454D01*
X41373Y-156000D01*
X41388Y-156076D01*
X40938Y-156376D01*
X40646Y-156181D01*
X40100Y-156073D01*
X39554Y-156181D01*
X39091Y-156491D01*
X38781Y-156954D01*
X38673Y-157500D01*
X38781Y-158046D01*
X39091Y-158509D01*
X39554Y-158819D01*
X40100Y-158927D01*
X40646Y-158819D01*
X41109Y-158509D01*
X41419Y-158046D01*
X41527Y-157500D01*
X41512Y-157424D01*
X41963Y-157124D01*
X42254Y-157319D01*
X42800Y-157427D01*
X43346Y-157319D01*
X43809Y-157009D01*
X44119Y-156546D01*
X44227Y-156000D01*
X44119Y-155454D01*
X43809Y-154991D01*
X43346Y-154681D01*
X42800Y-154573D01*
D02*
G37*
G36*
X84800Y-151573D02*
X84254Y-151681D01*
X83791Y-151991D01*
X83481Y-152454D01*
X83373Y-153000D01*
X83481Y-153546D01*
X83791Y-154009D01*
X84254Y-154319D01*
X84800Y-154427D01*
X85346Y-154319D01*
X85809Y-154009D01*
X86119Y-153546D01*
X86227Y-153000D01*
X86119Y-152454D01*
X85809Y-151991D01*
X85346Y-151681D01*
X84800Y-151573D01*
D02*
G37*
G36*
X19200Y-152473D02*
X18654Y-152581D01*
X18191Y-152891D01*
X17881Y-153354D01*
X17773Y-153900D01*
X17881Y-154446D01*
X18191Y-154909D01*
X18654Y-155219D01*
X19200Y-155327D01*
X19746Y-155219D01*
X20209Y-154909D01*
X20519Y-154446D01*
X20627Y-153900D01*
X20519Y-153354D01*
X20209Y-152891D01*
X19746Y-152581D01*
X19200Y-152473D01*
D02*
G37*
G36*
X35564Y-154970D02*
X35018Y-155079D01*
X34555Y-155388D01*
X34245Y-155851D01*
X34137Y-156398D01*
X34245Y-156944D01*
X34555Y-157407D01*
X35018Y-157716D01*
X35564Y-157825D01*
X36110Y-157716D01*
X36573Y-157407D01*
X36883Y-156944D01*
X36992Y-156398D01*
X36883Y-155851D01*
X36573Y-155388D01*
X36110Y-155079D01*
X35564Y-154970D01*
D02*
G37*
G36*
X31600Y-155073D02*
X31054Y-155181D01*
X30591Y-155491D01*
X30281Y-155954D01*
X30173Y-156500D01*
X30281Y-157046D01*
X30591Y-157509D01*
X31054Y-157819D01*
X31600Y-157927D01*
X32146Y-157819D01*
X32609Y-157509D01*
X32919Y-157046D01*
X33027Y-156500D01*
X32919Y-155954D01*
X32609Y-155491D01*
X32146Y-155181D01*
X31600Y-155073D01*
D02*
G37*
G36*
X80300Y-155673D02*
X79754Y-155781D01*
X79291Y-156091D01*
X78981Y-156554D01*
X78883Y-157049D01*
X78692Y-157206D01*
X78416Y-157369D01*
X77933Y-157273D01*
X77387Y-157381D01*
X76924Y-157691D01*
X76615Y-158154D01*
X76506Y-158700D01*
X76615Y-159246D01*
X76924Y-159709D01*
X77387Y-160019D01*
X77933Y-160127D01*
X78480Y-160019D01*
X78943Y-159709D01*
X79252Y-159246D01*
X79351Y-158751D01*
X79541Y-158594D01*
X79817Y-158431D01*
X80300Y-158527D01*
X80846Y-158419D01*
X81309Y-158109D01*
X81619Y-157646D01*
X81727Y-157100D01*
X81619Y-156554D01*
X81309Y-156091D01*
X80846Y-155781D01*
X80300Y-155673D01*
D02*
G37*
G36*
X49600Y-154273D02*
X49054Y-154381D01*
X48591Y-154691D01*
X48281Y-155154D01*
X48173Y-155700D01*
X48281Y-156246D01*
X48591Y-156709D01*
X49054Y-157019D01*
X49600Y-157127D01*
X50146Y-157019D01*
X50609Y-156709D01*
X50919Y-156246D01*
X51027Y-155700D01*
X50919Y-155154D01*
X50609Y-154691D01*
X50146Y-154381D01*
X49600Y-154273D01*
D02*
G37*
G36*
X56100Y-154373D02*
X55554Y-154481D01*
X55091Y-154791D01*
X54781Y-155254D01*
X54673Y-155800D01*
X54781Y-156346D01*
X55091Y-156809D01*
X55554Y-157119D01*
X56100Y-157227D01*
X56646Y-157119D01*
X57109Y-156809D01*
X57419Y-156346D01*
X57527Y-155800D01*
X57419Y-155254D01*
X57109Y-154791D01*
X56646Y-154481D01*
X56100Y-154373D01*
D02*
G37*
G36*
X63900Y-36673D02*
X63354Y-36781D01*
X62891Y-37091D01*
X62581Y-37554D01*
X62473Y-38100D01*
X62581Y-38646D01*
X62891Y-39109D01*
X63354Y-39419D01*
X63900Y-39527D01*
X64446Y-39419D01*
X64909Y-39109D01*
X65219Y-38646D01*
X65327Y-38100D01*
X65219Y-37554D01*
X64909Y-37091D01*
X64446Y-36781D01*
X63900Y-36673D01*
D02*
G37*
G36*
X13200D02*
X12654Y-36781D01*
X12191Y-37091D01*
X11881Y-37554D01*
X11773Y-38100D01*
X11881Y-38646D01*
X12191Y-39109D01*
X12654Y-39419D01*
X13200Y-39527D01*
X13746Y-39419D01*
X14209Y-39109D01*
X14519Y-38646D01*
X14627Y-38100D01*
X14519Y-37554D01*
X14209Y-37091D01*
X13746Y-36781D01*
X13200Y-36673D01*
D02*
G37*
G36*
X79700Y-36473D02*
X79154Y-36581D01*
X78691Y-36891D01*
X78381Y-37354D01*
X78273Y-37900D01*
X78381Y-38446D01*
X78691Y-38909D01*
X79154Y-39219D01*
X79700Y-39327D01*
X80246Y-39219D01*
X80709Y-38909D01*
X81019Y-38446D01*
X81127Y-37900D01*
X81019Y-37354D01*
X80709Y-36891D01*
X80246Y-36581D01*
X79700Y-36473D01*
D02*
G37*
G36*
X49500Y-35573D02*
X48954Y-35681D01*
X48491Y-35991D01*
X48181Y-36454D01*
X48073Y-37000D01*
X48181Y-37546D01*
X48491Y-38009D01*
X48954Y-38319D01*
X49500Y-38427D01*
X50046Y-38319D01*
X50509Y-38009D01*
X50819Y-37546D01*
X50927Y-37000D01*
X50819Y-36454D01*
X50509Y-35991D01*
X50046Y-35681D01*
X49500Y-35573D01*
D02*
G37*
G36*
X6800Y-35873D02*
X6254Y-35981D01*
X5791Y-36291D01*
X5481Y-36754D01*
X5373Y-37300D01*
X5481Y-37846D01*
X5791Y-38309D01*
X6254Y-38619D01*
X6800Y-38727D01*
X7346Y-38619D01*
X7809Y-38309D01*
X8119Y-37846D01*
X8227Y-37300D01*
X8119Y-36754D01*
X7809Y-36291D01*
X7346Y-35981D01*
X6800Y-35873D01*
D02*
G37*
G36*
X57400Y-39173D02*
X56854Y-39281D01*
X56391Y-39591D01*
X56081Y-40054D01*
X55973Y-40600D01*
X56081Y-41146D01*
X56391Y-41609D01*
X56854Y-41919D01*
X57400Y-42027D01*
X57946Y-41919D01*
X58409Y-41609D01*
X58719Y-41146D01*
X58827Y-40600D01*
X58719Y-40054D01*
X58409Y-39591D01*
X57946Y-39281D01*
X57400Y-39173D01*
D02*
G37*
G36*
X109200Y-39473D02*
X108654Y-39581D01*
X108191Y-39891D01*
X107881Y-40354D01*
X107773Y-40900D01*
X107881Y-41446D01*
X108191Y-41909D01*
X108654Y-42219D01*
X109200Y-42327D01*
X109746Y-42219D01*
X110209Y-41909D01*
X110519Y-41446D01*
X110627Y-40900D01*
X110519Y-40354D01*
X110209Y-39891D01*
X109746Y-39581D01*
X109200Y-39473D01*
D02*
G37*
G36*
X92500Y-38773D02*
X91954Y-38881D01*
X91491Y-39191D01*
X91181Y-39654D01*
X91073Y-40200D01*
X91181Y-40746D01*
X91491Y-41209D01*
X91954Y-41519D01*
X92500Y-41627D01*
X93046Y-41519D01*
X93509Y-41209D01*
X93819Y-40746D01*
X93927Y-40200D01*
X93819Y-39654D01*
X93509Y-39191D01*
X93046Y-38881D01*
X92500Y-38773D01*
D02*
G37*
G36*
X96200Y-37573D02*
X95654Y-37681D01*
X95191Y-37991D01*
X94881Y-38454D01*
X94773Y-39000D01*
X94881Y-39546D01*
X95191Y-40009D01*
X95654Y-40319D01*
X96200Y-40427D01*
X96746Y-40319D01*
X97209Y-40009D01*
X97519Y-39546D01*
X97627Y-39000D01*
X97519Y-38454D01*
X97209Y-37991D01*
X96746Y-37681D01*
X96200Y-37573D01*
D02*
G37*
G36*
X9700Y-38573D02*
X9154Y-38681D01*
X8691Y-38991D01*
X8381Y-39454D01*
X8273Y-40000D01*
X8381Y-40546D01*
X8691Y-41009D01*
X9154Y-41319D01*
X9700Y-41427D01*
X10246Y-41319D01*
X10709Y-41009D01*
X11019Y-40546D01*
X11127Y-40000D01*
X11019Y-39454D01*
X10709Y-38991D01*
X10246Y-38681D01*
X9700Y-38573D01*
D02*
G37*
G36*
X69200Y-35173D02*
X68654Y-35281D01*
X68191Y-35591D01*
X67881Y-36054D01*
X67773Y-36600D01*
X67881Y-37146D01*
X68191Y-37609D01*
X68654Y-37919D01*
X69200Y-38027D01*
X69746Y-37919D01*
X70209Y-37609D01*
X70519Y-37146D01*
X70627Y-36600D01*
X70519Y-36054D01*
X70209Y-35591D01*
X69746Y-35281D01*
X69200Y-35173D01*
D02*
G37*
G36*
X44900Y-30773D02*
X44354Y-30881D01*
X43891Y-31191D01*
X43581Y-31654D01*
X43473Y-32200D01*
X43581Y-32746D01*
X43891Y-33209D01*
X44354Y-33519D01*
X44900Y-33627D01*
X45446Y-33519D01*
X45909Y-33209D01*
X46219Y-32746D01*
X46327Y-32200D01*
X46219Y-31654D01*
X45909Y-31191D01*
X45446Y-30881D01*
X44900Y-30773D01*
D02*
G37*
G36*
X14368Y-31841D02*
X13822Y-31950D01*
X13359Y-32259D01*
X13050Y-32722D01*
X12941Y-33268D01*
X13050Y-33815D01*
X13359Y-34278D01*
X13822Y-34587D01*
X14368Y-34696D01*
X14915Y-34587D01*
X15378Y-34278D01*
X15687Y-33815D01*
X15796Y-33268D01*
X15687Y-32722D01*
X15378Y-32259D01*
X14915Y-31950D01*
X14368Y-31841D01*
D02*
G37*
G36*
X70213Y-30696D02*
X69666Y-30805D01*
X69203Y-31114D01*
X68894Y-31577D01*
X68785Y-32124D01*
X68894Y-32670D01*
X69203Y-33133D01*
X69666Y-33442D01*
X70213Y-33551D01*
X70759Y-33442D01*
X71222Y-33133D01*
X71531Y-32670D01*
X71640Y-32124D01*
X71531Y-31577D01*
X71222Y-31114D01*
X70759Y-30805D01*
X70213Y-30696D01*
D02*
G37*
G36*
X84100Y-30673D02*
X83554Y-30781D01*
X83091Y-31091D01*
X82781Y-31554D01*
X82673Y-32100D01*
X82781Y-32646D01*
X83091Y-33109D01*
X83554Y-33419D01*
X84100Y-33527D01*
X84646Y-33419D01*
X85109Y-33109D01*
X85419Y-32646D01*
X85527Y-32100D01*
X85419Y-31554D01*
X85109Y-31091D01*
X84646Y-30781D01*
X84100Y-30673D01*
D02*
G37*
G36*
X63800D02*
X63254Y-30781D01*
X62791Y-31091D01*
X62481Y-31554D01*
X62373Y-32100D01*
X62481Y-32646D01*
X62791Y-33109D01*
X63254Y-33419D01*
X63800Y-33527D01*
X64346Y-33419D01*
X64809Y-33109D01*
X65119Y-32646D01*
X65227Y-32100D01*
X65119Y-31554D01*
X64809Y-31091D01*
X64346Y-30781D01*
X63800Y-30673D01*
D02*
G37*
G36*
X96900Y-34273D02*
X96354Y-34381D01*
X95891Y-34691D01*
X95581Y-35154D01*
X95473Y-35700D01*
X95581Y-36246D01*
X95891Y-36709D01*
X96354Y-37019D01*
X96900Y-37127D01*
X97446Y-37019D01*
X97909Y-36709D01*
X98219Y-36246D01*
X98327Y-35700D01*
X98219Y-35154D01*
X97909Y-34691D01*
X97446Y-34381D01*
X96900Y-34273D01*
D02*
G37*
G36*
X30600Y-36273D02*
X30054Y-36381D01*
X29591Y-36691D01*
X29281Y-37154D01*
X29275Y-37187D01*
X28744Y-37292D01*
X28609Y-37091D01*
X28146Y-36781D01*
X27600Y-36673D01*
X27054Y-36781D01*
X26591Y-37091D01*
X26281Y-37554D01*
X26173Y-38100D01*
X26281Y-38646D01*
X26591Y-39109D01*
X27054Y-39419D01*
X27600Y-39527D01*
X28146Y-39419D01*
X28609Y-39109D01*
X28919Y-38646D01*
X28925Y-38614D01*
X29456Y-38508D01*
X29591Y-38709D01*
X30054Y-39019D01*
X30600Y-39127D01*
X31146Y-39019D01*
X31609Y-38709D01*
X31919Y-38246D01*
X32027Y-37700D01*
X31919Y-37154D01*
X31609Y-36691D01*
X31146Y-36381D01*
X30600Y-36273D01*
D02*
G37*
G36*
X45700Y-35073D02*
X45154Y-35181D01*
X44691Y-35491D01*
X44389Y-35942D01*
X44302Y-36055D01*
X43904Y-36220D01*
X43846Y-36181D01*
X43300Y-36073D01*
X42754Y-36181D01*
X42291Y-36491D01*
X41981Y-36954D01*
X41873Y-37500D01*
X41981Y-38046D01*
X42291Y-38509D01*
X42754Y-38819D01*
X43300Y-38927D01*
X43846Y-38819D01*
X44309Y-38509D01*
X44611Y-38058D01*
X44698Y-37945D01*
X45096Y-37780D01*
X45154Y-37819D01*
X45700Y-37927D01*
X46246Y-37819D01*
X46709Y-37509D01*
X47019Y-37046D01*
X47127Y-36500D01*
X47019Y-35954D01*
X46709Y-35491D01*
X46246Y-35181D01*
X45700Y-35073D01*
D02*
G37*
G36*
X10431Y-31841D02*
X9885Y-31950D01*
X9422Y-32259D01*
X9113Y-32722D01*
X9004Y-33268D01*
X9113Y-33815D01*
X9422Y-34278D01*
X9885Y-34587D01*
X10431Y-34696D01*
X10978Y-34587D01*
X11441Y-34278D01*
X11750Y-33815D01*
X11859Y-33268D01*
X11750Y-32722D01*
X11441Y-32259D01*
X10978Y-31950D01*
X10431Y-31841D01*
D02*
G37*
G36*
X4487Y-27888D02*
X3941Y-27997D01*
X3478Y-28306D01*
X3169Y-28769D01*
X3060Y-29316D01*
X3169Y-29862D01*
X3478Y-30325D01*
X3941Y-30634D01*
X4232Y-31202D01*
X4173Y-31500D01*
X4281Y-32046D01*
X4356Y-32159D01*
X4449Y-32623D01*
X4229Y-32799D01*
X3991Y-32958D01*
X3681Y-33422D01*
X3573Y-33968D01*
X3681Y-34514D01*
X3991Y-34977D01*
X4454Y-35287D01*
X5000Y-35395D01*
X5546Y-35287D01*
X6009Y-34977D01*
X6319Y-34514D01*
X6427Y-33968D01*
X6319Y-33422D01*
X6244Y-33309D01*
X6151Y-32845D01*
X6371Y-32669D01*
X6609Y-32509D01*
X6919Y-32046D01*
X7027Y-31500D01*
X6919Y-30954D01*
X6609Y-30491D01*
X6146Y-30181D01*
X5856Y-29614D01*
X5915Y-29316D01*
X5806Y-28769D01*
X5497Y-28306D01*
X5034Y-27997D01*
X4487Y-27888D01*
D02*
G37*
G36*
X78800Y-39873D02*
X78254Y-39981D01*
X77791Y-40291D01*
X77481Y-40754D01*
X77373Y-41300D01*
X77481Y-41846D01*
X77791Y-42309D01*
X78254Y-42619D01*
X78800Y-42727D01*
X79346Y-42619D01*
X79809Y-42309D01*
X80119Y-41846D01*
X80227Y-41300D01*
X80119Y-40754D01*
X79809Y-40291D01*
X79346Y-39981D01*
X78800Y-39873D01*
D02*
G37*
G36*
X43400Y-45173D02*
X42854Y-45281D01*
X42391Y-45591D01*
X42081Y-46054D01*
X41973Y-46600D01*
X42081Y-47146D01*
X42391Y-47609D01*
X42854Y-47919D01*
X43400Y-48027D01*
X43946Y-47919D01*
X44105Y-47813D01*
X44661Y-48043D01*
X44681Y-48146D01*
X44991Y-48609D01*
X45454Y-48919D01*
X46000Y-49027D01*
X46546Y-48919D01*
X47009Y-48609D01*
X47319Y-48146D01*
X47427Y-47600D01*
X47319Y-47054D01*
X47009Y-46591D01*
X46546Y-46281D01*
X46000Y-46173D01*
X45454Y-46281D01*
X45295Y-46387D01*
X44739Y-46157D01*
X44719Y-46054D01*
X44409Y-45591D01*
X43946Y-45281D01*
X43400Y-45173D01*
D02*
G37*
G36*
X93400Y-46473D02*
X92854Y-46581D01*
X92391Y-46891D01*
X92081Y-47354D01*
X91973Y-47900D01*
X92081Y-48446D01*
X92391Y-48909D01*
X92854Y-49219D01*
X93400Y-49327D01*
X93946Y-49219D01*
X94409Y-48909D01*
X94719Y-48446D01*
X94827Y-47900D01*
X94719Y-47354D01*
X94409Y-46891D01*
X93946Y-46581D01*
X93400Y-46473D01*
D02*
G37*
G36*
X65700Y-45973D02*
X65154Y-46081D01*
X64691Y-46391D01*
X64381Y-46854D01*
X64273Y-47400D01*
X64381Y-47946D01*
X64691Y-48409D01*
X65154Y-48719D01*
X65700Y-48827D01*
X66246Y-48719D01*
X66709Y-48409D01*
X67019Y-47946D01*
X67127Y-47400D01*
X67019Y-46854D01*
X66709Y-46391D01*
X66246Y-46081D01*
X65700Y-45973D01*
D02*
G37*
G36*
X56300Y-43873D02*
X55754Y-43981D01*
X55291Y-44291D01*
X54981Y-44754D01*
X54873Y-45300D01*
X54981Y-45846D01*
X55291Y-46309D01*
X55754Y-46619D01*
X56300Y-46727D01*
X56846Y-46619D01*
X56898Y-46584D01*
X56917Y-46585D01*
X57420Y-46837D01*
X57481Y-47146D01*
X57791Y-47609D01*
X58254Y-47919D01*
X58800Y-48027D01*
X59346Y-47919D01*
X59809Y-47609D01*
X60119Y-47146D01*
X60227Y-46600D01*
X60119Y-46054D01*
X59809Y-45591D01*
X59346Y-45281D01*
X58800Y-45173D01*
X58254Y-45281D01*
X58202Y-45316D01*
X58183Y-45315D01*
X57680Y-45063D01*
X57619Y-44754D01*
X57309Y-44291D01*
X56846Y-43981D01*
X56300Y-43873D01*
D02*
G37*
G36*
X25200Y-43073D02*
X24654Y-43181D01*
X24191Y-43491D01*
X23881Y-43954D01*
X23773Y-44500D01*
X23881Y-45046D01*
X24191Y-45509D01*
X24654Y-45819D01*
X25200Y-45927D01*
X25258Y-45916D01*
X25323Y-45953D01*
X25642Y-46349D01*
X25573Y-46700D01*
X25681Y-47246D01*
X25991Y-47709D01*
X26454Y-48019D01*
X27000Y-48127D01*
X27546Y-48019D01*
X28009Y-47709D01*
X28319Y-47246D01*
X28427Y-46700D01*
X28319Y-46154D01*
X28009Y-45691D01*
X27546Y-45381D01*
X27000Y-45273D01*
X26943Y-45284D01*
X26877Y-45247D01*
X26558Y-44851D01*
X26627Y-44500D01*
X26519Y-43954D01*
X26209Y-43491D01*
X25746Y-43181D01*
X25200Y-43073D01*
D02*
G37*
G36*
X107300Y-49273D02*
X106754Y-49381D01*
X106291Y-49691D01*
X105981Y-50154D01*
X105873Y-50700D01*
X105981Y-51246D01*
X106291Y-51709D01*
X106754Y-52019D01*
X107300Y-52127D01*
X107846Y-52019D01*
X108309Y-51709D01*
X108619Y-51246D01*
X108727Y-50700D01*
X108619Y-50154D01*
X108309Y-49691D01*
X107846Y-49381D01*
X107300Y-49273D01*
D02*
G37*
G36*
X19100D02*
X18554Y-49381D01*
X18091Y-49691D01*
X17781Y-50154D01*
X17673Y-50700D01*
X17781Y-51246D01*
X18091Y-51709D01*
X18554Y-52019D01*
X19100Y-52127D01*
X19646Y-52019D01*
X20109Y-51709D01*
X20419Y-51246D01*
X20527Y-50700D01*
X20419Y-50154D01*
X20109Y-49691D01*
X19646Y-49381D01*
X19100Y-49273D01*
D02*
G37*
G36*
X89300Y-48973D02*
X88754Y-49081D01*
X88291Y-49391D01*
X87981Y-49854D01*
X87873Y-50400D01*
X87981Y-50946D01*
X88291Y-51409D01*
X88754Y-51719D01*
X89300Y-51827D01*
X89846Y-51719D01*
X90309Y-51409D01*
X90619Y-50946D01*
X90727Y-50400D01*
X90619Y-49854D01*
X90309Y-49391D01*
X89846Y-49081D01*
X89300Y-48973D01*
D02*
G37*
G36*
X15300Y-46573D02*
X14754Y-46681D01*
X14291Y-46991D01*
X13981Y-47454D01*
X13873Y-48000D01*
X13981Y-48546D01*
X14291Y-49009D01*
X14754Y-49319D01*
X15300Y-49427D01*
X15846Y-49319D01*
X16309Y-49009D01*
X16619Y-48546D01*
X16727Y-48000D01*
X16619Y-47454D01*
X16309Y-46991D01*
X15846Y-46681D01*
X15300Y-46573D01*
D02*
G37*
G36*
X104000Y-47273D02*
X103454Y-47381D01*
X102991Y-47691D01*
X102681Y-48154D01*
X102573Y-48700D01*
X102681Y-49246D01*
X102991Y-49709D01*
X103454Y-50019D01*
X104000Y-50127D01*
X104546Y-50019D01*
X105009Y-49709D01*
X105319Y-49246D01*
X105427Y-48700D01*
X105319Y-48154D01*
X105009Y-47691D01*
X104546Y-47381D01*
X104000Y-47273D01*
D02*
G37*
G36*
X31800Y-44973D02*
X31254Y-45081D01*
X30791Y-45391D01*
X30481Y-45854D01*
X30373Y-46400D01*
X30481Y-46946D01*
X30791Y-47409D01*
X31254Y-47719D01*
X31800Y-47827D01*
X32346Y-47719D01*
X32809Y-47409D01*
X33119Y-46946D01*
X33227Y-46400D01*
X33119Y-45854D01*
X32809Y-45391D01*
X32346Y-45081D01*
X31800Y-44973D01*
D02*
G37*
G36*
X14700Y-41573D02*
X14154Y-41681D01*
X13691Y-41991D01*
X13381Y-42454D01*
X13273Y-43000D01*
X13381Y-43546D01*
X13691Y-44009D01*
X14154Y-44319D01*
X14524Y-44392D01*
X14973Y-44700D01*
X15081Y-45246D01*
X15391Y-45709D01*
X15854Y-46019D01*
X16400Y-46127D01*
X16946Y-46019D01*
X17409Y-45709D01*
X17719Y-45246D01*
X17827Y-44700D01*
X17719Y-44154D01*
X17409Y-43691D01*
X16946Y-43381D01*
X16576Y-43308D01*
X16127Y-43000D01*
X16019Y-42454D01*
X15709Y-41991D01*
X15246Y-41681D01*
X14700Y-41573D01*
D02*
G37*
G36*
X48100Y-43373D02*
X47554Y-43481D01*
X47091Y-43791D01*
X46781Y-44254D01*
X46673Y-44800D01*
X46781Y-45346D01*
X47091Y-45809D01*
X47554Y-46119D01*
X48100Y-46227D01*
X48646Y-46119D01*
X49109Y-45809D01*
X49419Y-45346D01*
X49527Y-44800D01*
X49419Y-44254D01*
X49109Y-43791D01*
X48646Y-43481D01*
X48100Y-43373D01*
D02*
G37*
G36*
X95100Y-43073D02*
X94554Y-43181D01*
X94091Y-43491D01*
X93781Y-43954D01*
X93673Y-44500D01*
X93781Y-45046D01*
X94091Y-45509D01*
X94554Y-45819D01*
X95100Y-45927D01*
X95646Y-45819D01*
X96109Y-45509D01*
X96419Y-45046D01*
X96527Y-44500D01*
X96419Y-43954D01*
X96109Y-43491D01*
X95646Y-43181D01*
X95100Y-43073D01*
D02*
G37*
G36*
X85600Y-40473D02*
X85054Y-40581D01*
X84591Y-40891D01*
X84281Y-41354D01*
X84173Y-41900D01*
X84281Y-42446D01*
X84591Y-42909D01*
X85054Y-43219D01*
X85600Y-43327D01*
X85830Y-43282D01*
X86219Y-43633D01*
X86193Y-44074D01*
X85843Y-44401D01*
X85700Y-44373D01*
X85154Y-44481D01*
X84691Y-44791D01*
X84381Y-45254D01*
X84273Y-45800D01*
X84381Y-46346D01*
X84691Y-46809D01*
X85154Y-47119D01*
X85700Y-47227D01*
X86246Y-47119D01*
X86709Y-46809D01*
X87019Y-46346D01*
X87127Y-45800D01*
X87558Y-45399D01*
X87700Y-45427D01*
X88246Y-45319D01*
X88709Y-45009D01*
X89019Y-44546D01*
X89127Y-44000D01*
X89019Y-43454D01*
X88709Y-42991D01*
X88246Y-42681D01*
X87700Y-42573D01*
X87351Y-42642D01*
X87332Y-42634D01*
X86966Y-42268D01*
X86958Y-42249D01*
X87027Y-41900D01*
X86919Y-41354D01*
X86609Y-40891D01*
X86146Y-40581D01*
X85600Y-40473D01*
D02*
G37*
G36*
X69800Y-41873D02*
X69254Y-41981D01*
X68791Y-42291D01*
X68481Y-42754D01*
X68373Y-43300D01*
X68481Y-43846D01*
X68791Y-44309D01*
X69254Y-44619D01*
X69800Y-44727D01*
X70346Y-44619D01*
X70809Y-44309D01*
X71119Y-43846D01*
X71227Y-43300D01*
X71119Y-42754D01*
X70809Y-42291D01*
X70346Y-41981D01*
X69800Y-41873D01*
D02*
G37*
G36*
X36400Y-44673D02*
X35854Y-44781D01*
X35391Y-45091D01*
X35081Y-45554D01*
X34973Y-46100D01*
X35081Y-46646D01*
X35391Y-47109D01*
X35854Y-47419D01*
X36400Y-47527D01*
X36946Y-47419D01*
X37409Y-47109D01*
X37719Y-46646D01*
X37827Y-46100D01*
X37719Y-45554D01*
X37409Y-45091D01*
X36946Y-44781D01*
X36400Y-44673D01*
D02*
G37*
G36*
X72500Y-44773D02*
X71954Y-44881D01*
X71491Y-45191D01*
X71181Y-45654D01*
X71073Y-46200D01*
X71181Y-46746D01*
X71491Y-47209D01*
X71954Y-47519D01*
X72500Y-47627D01*
X73046Y-47519D01*
X73509Y-47209D01*
X73819Y-46746D01*
X73927Y-46200D01*
X73819Y-45654D01*
X73509Y-45191D01*
X73046Y-44881D01*
X72500Y-44773D01*
D02*
G37*
G36*
X52776Y-44497D02*
X52229Y-44606D01*
X51766Y-44915D01*
X51457Y-45378D01*
X51348Y-45924D01*
X51457Y-46471D01*
X51766Y-46934D01*
X52229Y-47243D01*
X52776Y-47352D01*
X53322Y-47243D01*
X53785Y-46934D01*
X54094Y-46471D01*
X54203Y-45924D01*
X54094Y-45378D01*
X53785Y-44915D01*
X53322Y-44606D01*
X52776Y-44497D01*
D02*
G37*
G36*
X103400Y-43973D02*
X102854Y-44081D01*
X102391Y-44391D01*
X102081Y-44854D01*
X101973Y-45400D01*
X102081Y-45946D01*
X102391Y-46409D01*
X102854Y-46719D01*
X103400Y-46827D01*
X103946Y-46719D01*
X104409Y-46409D01*
X104719Y-45946D01*
X104827Y-45400D01*
X104719Y-44854D01*
X104409Y-44391D01*
X103946Y-44081D01*
X103400Y-43973D01*
D02*
G37*
G36*
X21700Y-44073D02*
X21154Y-44181D01*
X20691Y-44491D01*
X20381Y-44954D01*
X20273Y-45500D01*
X20381Y-46046D01*
X20691Y-46509D01*
X21154Y-46819D01*
X21700Y-46927D01*
X22246Y-46819D01*
X22709Y-46509D01*
X23019Y-46046D01*
X23127Y-45500D01*
X23019Y-44954D01*
X22709Y-44491D01*
X22246Y-44181D01*
X21700Y-44073D01*
D02*
G37*
G36*
X44400Y-15373D02*
X43854Y-15481D01*
X43391Y-15791D01*
X43081Y-16254D01*
X43072Y-16298D01*
X42517Y-16528D01*
X42446Y-16481D01*
X41900Y-16373D01*
X41354Y-16481D01*
X40891Y-16791D01*
X40581Y-17254D01*
X40473Y-17800D01*
X40581Y-18346D01*
X40891Y-18809D01*
X41354Y-19119D01*
X41900Y-19227D01*
X42446Y-19119D01*
X42909Y-18809D01*
X43219Y-18346D01*
X43228Y-18302D01*
X43783Y-18072D01*
X43854Y-18119D01*
X44400Y-18227D01*
X44946Y-18119D01*
X45409Y-17809D01*
X45719Y-17346D01*
X45827Y-16800D01*
X45719Y-16254D01*
X45409Y-15791D01*
X44946Y-15481D01*
X44400Y-15373D01*
D02*
G37*
G36*
X90900Y-14373D02*
X90354Y-14481D01*
X89891Y-14791D01*
X89581Y-15254D01*
X89473Y-15800D01*
X89581Y-16346D01*
X89891Y-16809D01*
X90354Y-17119D01*
X90900Y-17227D01*
X91446Y-17119D01*
X91909Y-16809D01*
X92219Y-16346D01*
X92327Y-15800D01*
X92219Y-15254D01*
X91909Y-14791D01*
X91446Y-14481D01*
X90900Y-14373D01*
D02*
G37*
G36*
X51000Y-11673D02*
X50454Y-11781D01*
X49991Y-12091D01*
X49681Y-12554D01*
X49573Y-13100D01*
X49681Y-13646D01*
X49991Y-14109D01*
X50454Y-14419D01*
X51000Y-14527D01*
X51546Y-14419D01*
X52009Y-14109D01*
X52319Y-13646D01*
X52351Y-13486D01*
X52860D01*
X52918Y-13772D01*
X53227Y-14235D01*
X53690Y-14545D01*
X54236Y-14653D01*
X54783Y-14545D01*
X55246Y-14235D01*
X55555Y-13772D01*
X55664Y-13226D01*
X55555Y-12680D01*
X55246Y-12217D01*
X54783Y-11907D01*
X54236Y-11799D01*
X53690Y-11907D01*
X53227Y-12217D01*
X52918Y-12680D01*
X52886Y-12840D01*
X52376D01*
X52319Y-12554D01*
X52009Y-12091D01*
X51546Y-11781D01*
X51000Y-11673D01*
D02*
G37*
G36*
X38700Y-11773D02*
X38154Y-11881D01*
X37691Y-12191D01*
X37381Y-12654D01*
X37273Y-13200D01*
X37381Y-13746D01*
X37691Y-14209D01*
X38154Y-14519D01*
X38700Y-14627D01*
X39246Y-14519D01*
X39709Y-14209D01*
X40019Y-13746D01*
X40127Y-13200D01*
X40019Y-12654D01*
X39709Y-12191D01*
X39246Y-11881D01*
X38700Y-11773D01*
D02*
G37*
G36*
X57614Y-11799D02*
X57068Y-11907D01*
X56605Y-12217D01*
X56295Y-12680D01*
X56187Y-13226D01*
X56295Y-13772D01*
X56605Y-14235D01*
X57068Y-14545D01*
X57614Y-14653D01*
X58160Y-14545D01*
X58623Y-14235D01*
X58933Y-13772D01*
X59042Y-13226D01*
X58933Y-12680D01*
X58623Y-12217D01*
X58160Y-11907D01*
X57614Y-11799D01*
D02*
G37*
G36*
X37600Y-16073D02*
X37054Y-16181D01*
X36591Y-16491D01*
X36281Y-16954D01*
X36173Y-17500D01*
X36281Y-18046D01*
X36591Y-18509D01*
X37054Y-18819D01*
X37600Y-18927D01*
X38146Y-18819D01*
X38609Y-18509D01*
X38919Y-18046D01*
X39027Y-17500D01*
X38919Y-16954D01*
X38609Y-16491D01*
X38146Y-16181D01*
X37600Y-16073D01*
D02*
G37*
G36*
X86100Y-16373D02*
X85554Y-16481D01*
X85091Y-16791D01*
X84781Y-17254D01*
X84673Y-17800D01*
X84781Y-18346D01*
X85091Y-18809D01*
X85554Y-19119D01*
X86100Y-19227D01*
X86646Y-19119D01*
X87109Y-18809D01*
X87419Y-18346D01*
X87527Y-17800D01*
X87419Y-17254D01*
X87109Y-16791D01*
X86646Y-16481D01*
X86100Y-16373D01*
D02*
G37*
G36*
X59000Y-15973D02*
X58454Y-16081D01*
X57991Y-16391D01*
X57681Y-16854D01*
X57573Y-17400D01*
X57681Y-17946D01*
X57991Y-18409D01*
X58454Y-18719D01*
X59000Y-18827D01*
X59546Y-18719D01*
X60009Y-18409D01*
X60319Y-17946D01*
X60335Y-17864D01*
X60845D01*
X60881Y-18046D01*
X61191Y-18509D01*
X61654Y-18819D01*
X62200Y-18927D01*
X62746Y-18819D01*
X63209Y-18509D01*
X63519Y-18046D01*
X63627Y-17500D01*
X63519Y-16954D01*
X63209Y-16491D01*
X62746Y-16181D01*
X62200Y-16073D01*
X61654Y-16181D01*
X61191Y-16491D01*
X60881Y-16954D01*
X60865Y-17036D01*
X60355D01*
X60319Y-16854D01*
X60009Y-16391D01*
X59546Y-16081D01*
X59000Y-15973D01*
D02*
G37*
G36*
X47900Y-15673D02*
X47354Y-15781D01*
X46891Y-16091D01*
X46581Y-16554D01*
X46473Y-17100D01*
X46581Y-17646D01*
X46891Y-18109D01*
X47354Y-18419D01*
X47900Y-18527D01*
X48446Y-18419D01*
X48909Y-18109D01*
X49219Y-17646D01*
X49327Y-17100D01*
X49219Y-16554D01*
X48909Y-16091D01*
X48446Y-15781D01*
X47900Y-15673D01*
D02*
G37*
G36*
X55600Y-15873D02*
X55054Y-15981D01*
X54591Y-16291D01*
X54281Y-16754D01*
X54173Y-17300D01*
X54281Y-17846D01*
X54591Y-18309D01*
X55054Y-18619D01*
X55600Y-18727D01*
X56146Y-18619D01*
X56609Y-18309D01*
X56919Y-17846D01*
X57027Y-17300D01*
X56919Y-16754D01*
X56609Y-16291D01*
X56146Y-15981D01*
X55600Y-15873D01*
D02*
G37*
G36*
X41842Y-8673D02*
X41296Y-8781D01*
X40833Y-9091D01*
X40524Y-9554D01*
X40415Y-10100D01*
X40524Y-10646D01*
X40833Y-11109D01*
X41296Y-11419D01*
X41842Y-11527D01*
X42389Y-11419D01*
X42852Y-11109D01*
X43093Y-10748D01*
X43299Y-10705D01*
X43444D01*
X43649Y-10748D01*
X43891Y-11109D01*
X44161Y-11290D01*
X44192Y-11454D01*
X44151Y-11850D01*
X43791Y-12091D01*
X43481Y-12554D01*
X43373Y-13100D01*
X43481Y-13646D01*
X43791Y-14109D01*
X44254Y-14419D01*
X44800Y-14527D01*
X45346Y-14419D01*
X45809Y-14109D01*
X46119Y-13646D01*
X46227Y-13100D01*
X46119Y-12554D01*
X45809Y-12091D01*
X45539Y-11910D01*
X45508Y-11746D01*
X45548Y-11350D01*
X45909Y-11109D01*
X46219Y-10646D01*
X46327Y-10100D01*
X46219Y-9554D01*
X45909Y-9091D01*
X45446Y-8781D01*
X44900Y-8673D01*
X44354Y-8781D01*
X43891Y-9091D01*
X43649Y-9452D01*
X43444Y-9495D01*
X43299D01*
X43093Y-9452D01*
X42852Y-9091D01*
X42389Y-8781D01*
X41842Y-8673D01*
D02*
G37*
G36*
X37300Y-4173D02*
X36754Y-4281D01*
X36291Y-4591D01*
X35981Y-5054D01*
X35873Y-5600D01*
X35981Y-6146D01*
X36291Y-6609D01*
X36754Y-6919D01*
X37300Y-7027D01*
X37846Y-6919D01*
X38309Y-6609D01*
X38619Y-6146D01*
X38727Y-5600D01*
X38619Y-5054D01*
X38309Y-4591D01*
X37846Y-4281D01*
X37300Y-4173D01*
D02*
G37*
G36*
X32500Y-4273D02*
X31954Y-4381D01*
X31491Y-4691D01*
X31181Y-5154D01*
X31073Y-5700D01*
X31181Y-6246D01*
X31491Y-6709D01*
X31954Y-7019D01*
X32500Y-7127D01*
X33046Y-7019D01*
X33509Y-6709D01*
X33819Y-6246D01*
X33927Y-5700D01*
X33819Y-5154D01*
X33509Y-4691D01*
X33046Y-4381D01*
X32500Y-4273D01*
D02*
G37*
G36*
X80700Y-3673D02*
X80154Y-3781D01*
X79691Y-4091D01*
X79381Y-4554D01*
X79273Y-5100D01*
X79381Y-5646D01*
X79691Y-6109D01*
X80154Y-6419D01*
X80700Y-6527D01*
X81246Y-6419D01*
X81709Y-6109D01*
X82019Y-5646D01*
X82127Y-5100D01*
X82019Y-4554D01*
X81709Y-4091D01*
X81246Y-3781D01*
X80700Y-3673D01*
D02*
G37*
G36*
X72000Y-2873D02*
X71454Y-2981D01*
X70991Y-3291D01*
X70681Y-3754D01*
X70629Y-4018D01*
X70595Y-4188D01*
X70085D01*
X70055Y-4033D01*
X70019Y-3854D01*
X69709Y-3391D01*
X69246Y-3081D01*
X68700Y-2973D01*
X68154Y-3081D01*
X67691Y-3391D01*
X67381Y-3854D01*
X67273Y-4400D01*
X67381Y-4946D01*
X67691Y-5409D01*
X68154Y-5719D01*
X68700Y-5827D01*
X69246Y-5719D01*
X69709Y-5409D01*
X70019Y-4946D01*
X70071Y-4682D01*
X70105Y-4513D01*
X70615D01*
X70645Y-4667D01*
X70681Y-4846D01*
X70991Y-5309D01*
X71454Y-5619D01*
X72000Y-5727D01*
X72546Y-5619D01*
X73009Y-5309D01*
X73319Y-4846D01*
X73427Y-4300D01*
X73319Y-3754D01*
X73009Y-3291D01*
X72546Y-2981D01*
X72000Y-2873D01*
D02*
G37*
G36*
X92700Y-1673D02*
X92154Y-1781D01*
X91691Y-2091D01*
X91381Y-2554D01*
X91273Y-3100D01*
X91381Y-3646D01*
X91691Y-4109D01*
X92154Y-4419D01*
X92700Y-4527D01*
X93246Y-4419D01*
X93709Y-4109D01*
X94019Y-3646D01*
X94127Y-3100D01*
X94019Y-2554D01*
X93709Y-2091D01*
X93246Y-1781D01*
X92700Y-1673D01*
D02*
G37*
G36*
X76500Y-8751D02*
X75954Y-8860D01*
X75491Y-9169D01*
X75181Y-9633D01*
X75073Y-10179D01*
X75181Y-10725D01*
X75491Y-11188D01*
X75785Y-11385D01*
X75813Y-11583D01*
X75776Y-11931D01*
X75775Y-11934D01*
X75391Y-12191D01*
X75092Y-12637D01*
X74861Y-12691D01*
X74566Y-12681D01*
X74302Y-12286D01*
X73839Y-11976D01*
X73293Y-11868D01*
X72747Y-11976D01*
X72284Y-12286D01*
X71974Y-12749D01*
X71934Y-12950D01*
X71910Y-13072D01*
X71400D01*
X71373Y-12937D01*
X71319Y-12664D01*
X71009Y-12201D01*
X70546Y-11892D01*
X70000Y-11783D01*
X69454Y-11892D01*
X68991Y-12201D01*
X68681Y-12664D01*
X68573Y-13210D01*
X68096Y-13240D01*
X68019Y-12854D01*
X67709Y-12391D01*
X67246Y-12081D01*
X66700Y-11973D01*
X66154Y-12081D01*
X65691Y-12391D01*
X65381Y-12854D01*
X65273Y-13400D01*
X65381Y-13946D01*
X65691Y-14409D01*
X66154Y-14719D01*
X66700Y-14827D01*
X67246Y-14719D01*
X67709Y-14409D01*
X68019Y-13946D01*
X68127Y-13400D01*
X68604Y-13370D01*
X68681Y-13757D01*
X68991Y-14220D01*
X69454Y-14529D01*
X70000Y-14638D01*
X70546Y-14529D01*
X71009Y-14220D01*
X71319Y-13757D01*
X71359Y-13555D01*
X71383Y-13433D01*
X71893D01*
X71920Y-13568D01*
X71974Y-13841D01*
X72284Y-14305D01*
X72747Y-14614D01*
X73293Y-14723D01*
X73839Y-14614D01*
X74302Y-14305D01*
X74600Y-13858D01*
X74831Y-13804D01*
X75127Y-13814D01*
X75391Y-14209D01*
X75854Y-14519D01*
X76400Y-14627D01*
X76946Y-14519D01*
X77409Y-14209D01*
X77719Y-13746D01*
X77732Y-13681D01*
X78241D01*
X78254Y-13746D01*
X78564Y-14209D01*
X79027Y-14519D01*
X79573Y-14627D01*
X80120Y-14519D01*
X80583Y-14209D01*
X80892Y-13746D01*
X81001Y-13200D01*
X80892Y-12654D01*
X80583Y-12191D01*
X80120Y-11881D01*
X79573Y-11773D01*
X79027Y-11881D01*
X78564Y-12191D01*
X78254Y-12654D01*
X78241Y-12719D01*
X77732D01*
X77719Y-12654D01*
X77409Y-12191D01*
X77115Y-11994D01*
X77087Y-11796D01*
X77124Y-11448D01*
X77125Y-11445D01*
X77509Y-11188D01*
X77819Y-10725D01*
X77927Y-10179D01*
X77819Y-9633D01*
X77509Y-9169D01*
X77046Y-8860D01*
X76500Y-8751D01*
D02*
G37*
G36*
X87300Y-11573D02*
X86754Y-11681D01*
X86291Y-11991D01*
X85981Y-12454D01*
X85873Y-13000D01*
X85981Y-13546D01*
X86291Y-14009D01*
X86754Y-14319D01*
X87300Y-14427D01*
X87846Y-14319D01*
X88309Y-14009D01*
X88619Y-13546D01*
X88727Y-13000D01*
X88619Y-12454D01*
X88309Y-11991D01*
X87846Y-11681D01*
X87300Y-11573D01*
D02*
G37*
G36*
X60700Y-4773D02*
X60154Y-4881D01*
X59691Y-5191D01*
X59381Y-5654D01*
X59273Y-6200D01*
X59381Y-6746D01*
X59691Y-7209D01*
X60154Y-7519D01*
X60700Y-7627D01*
X61246Y-7519D01*
X61709Y-7209D01*
X62019Y-6746D01*
X62127Y-6200D01*
X62019Y-5654D01*
X61709Y-5191D01*
X61246Y-4881D01*
X60700Y-4773D01*
D02*
G37*
G36*
X75300Y-4473D02*
X74754Y-4581D01*
X74291Y-4891D01*
X73981Y-5354D01*
X73873Y-5900D01*
X73981Y-6446D01*
X74291Y-6909D01*
X74754Y-7219D01*
X75300Y-7327D01*
X75846Y-7219D01*
X76309Y-6909D01*
X76619Y-6446D01*
X76727Y-5900D01*
X76619Y-5354D01*
X76309Y-4891D01*
X75846Y-4581D01*
X75300Y-4473D01*
D02*
G37*
G36*
X64900Y-2173D02*
X64354Y-2281D01*
X63891Y-2591D01*
X63581Y-3054D01*
X63473Y-3600D01*
X63570Y-4088D01*
X63580Y-4150D01*
X63389Y-4758D01*
X63191Y-4891D01*
X62881Y-5354D01*
X62773Y-5900D01*
X62881Y-6446D01*
X63191Y-6909D01*
X63654Y-7219D01*
X64200Y-7327D01*
X64746Y-7219D01*
X65209Y-6909D01*
X65519Y-6446D01*
X65627Y-5900D01*
X65519Y-5354D01*
X65670Y-4770D01*
X65909Y-4609D01*
X66219Y-4146D01*
X66327Y-3600D01*
X66219Y-3054D01*
X65909Y-2591D01*
X65446Y-2281D01*
X64900Y-2173D01*
D02*
G37*
G36*
X33927Y-17072D02*
X33381Y-17180D01*
X32918Y-17490D01*
X32609Y-17953D01*
X32500Y-18499D01*
X32609Y-19045D01*
X32918Y-19508D01*
X33381Y-19818D01*
X33927Y-19926D01*
X34474Y-19818D01*
X34937Y-19508D01*
X35246Y-19045D01*
X35355Y-18499D01*
X35246Y-17953D01*
X34937Y-17490D01*
X34474Y-17180D01*
X33927Y-17072D01*
D02*
G37*
G36*
X29400Y-29073D02*
X28854Y-29181D01*
X28391Y-29491D01*
X28367Y-29526D01*
X27809Y-29591D01*
X27781Y-29572D01*
X27346Y-29281D01*
X26800Y-29173D01*
X26254Y-29281D01*
X25791Y-29591D01*
X25481Y-30054D01*
X25373Y-30600D01*
X25481Y-31146D01*
X25791Y-31609D01*
X26254Y-31919D01*
X26800Y-32027D01*
X27346Y-31919D01*
X27809Y-31609D01*
X27833Y-31574D01*
X28391Y-31509D01*
X28419Y-31528D01*
X28854Y-31819D01*
X29400Y-31927D01*
X29946Y-31819D01*
X30409Y-31509D01*
X30719Y-31046D01*
X30827Y-30500D01*
X30719Y-29954D01*
X30409Y-29491D01*
X29946Y-29181D01*
X29400Y-29073D01*
D02*
G37*
G36*
X57400Y-27447D02*
X56854Y-27555D01*
X56391Y-27865D01*
X56081Y-28328D01*
X55973Y-28874D01*
X56081Y-29420D01*
X56391Y-29883D01*
X56854Y-30193D01*
X57400Y-30301D01*
X57946Y-30193D01*
X58409Y-29883D01*
X58719Y-29420D01*
X58827Y-28874D01*
X58719Y-28328D01*
X58409Y-27865D01*
X57946Y-27555D01*
X57400Y-27447D01*
D02*
G37*
G36*
X41800Y-27473D02*
X41254Y-27581D01*
X40791Y-27891D01*
X40481Y-28354D01*
X40430Y-28612D01*
X40396Y-28780D01*
X39887D01*
X39856Y-28625D01*
X39819Y-28440D01*
X39509Y-27976D01*
X39046Y-27667D01*
X38500Y-27558D01*
X37954Y-27667D01*
X37491Y-27976D01*
X37181Y-28440D01*
X37073Y-28986D01*
X37181Y-29532D01*
X37491Y-29995D01*
X37954Y-30305D01*
X38500Y-30413D01*
X39046Y-30305D01*
X39509Y-29995D01*
X39819Y-29532D01*
X39870Y-29274D01*
X39904Y-29105D01*
X40413D01*
X40444Y-29261D01*
X40481Y-29446D01*
X40791Y-29909D01*
X41254Y-30219D01*
X41800Y-30327D01*
X42346Y-30219D01*
X42809Y-29909D01*
X43119Y-29446D01*
X43227Y-28900D01*
X43119Y-28354D01*
X42809Y-27891D01*
X42346Y-27581D01*
X41800Y-27473D01*
D02*
G37*
G36*
X95300Y-25573D02*
X94754Y-25681D01*
X94291Y-25991D01*
X93981Y-26454D01*
X93873Y-27000D01*
X93981Y-27546D01*
X94291Y-28009D01*
X94754Y-28319D01*
X95300Y-28427D01*
X95846Y-28319D01*
X96309Y-28009D01*
X96619Y-27546D01*
X96727Y-27000D01*
X96619Y-26454D01*
X96309Y-25991D01*
X95846Y-25681D01*
X95300Y-25573D01*
D02*
G37*
G36*
X51275Y-27473D02*
X50729Y-27581D01*
X50266Y-27891D01*
X49956Y-28354D01*
X49895Y-28661D01*
X49385D01*
X49344Y-28454D01*
X49035Y-27991D01*
X48571Y-27681D01*
X48025Y-27573D01*
X47479Y-27681D01*
X47016Y-27991D01*
X46706Y-28454D01*
X46598Y-29000D01*
X46706Y-29546D01*
X47016Y-30009D01*
X47479Y-30319D01*
X48025Y-30427D01*
X48571Y-30319D01*
X49035Y-30009D01*
X49344Y-29546D01*
X49405Y-29239D01*
X49915D01*
X49956Y-29446D01*
X50266Y-29909D01*
X50729Y-30219D01*
X51275Y-30327D01*
X51821Y-30219D01*
X52284Y-29909D01*
X52594Y-29446D01*
X52702Y-28900D01*
X52594Y-28354D01*
X52284Y-27891D01*
X51821Y-27581D01*
X51275Y-27473D01*
D02*
G37*
G36*
X94500Y-28973D02*
X93954Y-29081D01*
X93491Y-29391D01*
X93181Y-29854D01*
X93073Y-30400D01*
X93181Y-30946D01*
X93491Y-31409D01*
X93954Y-31719D01*
X94500Y-31827D01*
X95046Y-31719D01*
X95509Y-31409D01*
X95819Y-30946D01*
X95927Y-30400D01*
X95819Y-29854D01*
X95509Y-29391D01*
X95046Y-29081D01*
X94500Y-28973D01*
D02*
G37*
G36*
X107900Y-26573D02*
X107354Y-26681D01*
X106891Y-26991D01*
X106581Y-27454D01*
X106473Y-28000D01*
X106581Y-28546D01*
X106891Y-29009D01*
Y-29214D01*
X106766Y-29527D01*
X106481Y-29954D01*
X106373Y-30500D01*
X106481Y-31046D01*
X106791Y-31509D01*
X107254Y-31819D01*
X107800Y-31927D01*
X108346Y-31819D01*
X108809Y-31509D01*
X109119Y-31046D01*
X109227Y-30500D01*
X109119Y-29954D01*
X108809Y-29491D01*
Y-29286D01*
X108934Y-28973D01*
X109219Y-28546D01*
X109327Y-28000D01*
X109219Y-27454D01*
X108909Y-26991D01*
X108446Y-26681D01*
X107900Y-26573D01*
D02*
G37*
G36*
X10431Y-27904D02*
X9885Y-28013D01*
X9422Y-28322D01*
X9113Y-28785D01*
X9004Y-29331D01*
X9113Y-29878D01*
X9422Y-30341D01*
X9885Y-30650D01*
X10431Y-30759D01*
X10978Y-30650D01*
X11441Y-30341D01*
X11750Y-29878D01*
X11859Y-29331D01*
X11750Y-28785D01*
X11441Y-28322D01*
X10978Y-28013D01*
X10431Y-27904D01*
D02*
G37*
G36*
X67000Y-27573D02*
X66454Y-27681D01*
X65991Y-27991D01*
X65681Y-28454D01*
X65573Y-29000D01*
X65681Y-29546D01*
X65991Y-30009D01*
X66454Y-30319D01*
X67000Y-30427D01*
X67546Y-30319D01*
X68009Y-30009D01*
X68319Y-29546D01*
X68427Y-29000D01*
X68319Y-28454D01*
X68009Y-27991D01*
X67546Y-27681D01*
X67000Y-27573D01*
D02*
G37*
G36*
X14368Y-27904D02*
X13822Y-28013D01*
X13359Y-28322D01*
X13050Y-28785D01*
X12941Y-29331D01*
X13050Y-29878D01*
X13359Y-30341D01*
X13822Y-30650D01*
X14368Y-30759D01*
X14915Y-30650D01*
X15378Y-30341D01*
X15687Y-29878D01*
X15796Y-29331D01*
X15687Y-28785D01*
X15378Y-28322D01*
X14915Y-28013D01*
X14368Y-27904D01*
D02*
G37*
G36*
X89000Y-25073D02*
X88454Y-25181D01*
X87991Y-25491D01*
X87681Y-25954D01*
X87573Y-26500D01*
X87681Y-27046D01*
X87991Y-27509D01*
X88454Y-27819D01*
X89000Y-27927D01*
X89546Y-27819D01*
X90009Y-27509D01*
X90319Y-27046D01*
X90427Y-26500D01*
X90319Y-25954D01*
X90009Y-25491D01*
X89546Y-25181D01*
X89000Y-25073D01*
D02*
G37*
G36*
X25400Y-20473D02*
X24854Y-20581D01*
X24391Y-20891D01*
X24081Y-21354D01*
X23973Y-21900D01*
X24081Y-22446D01*
X24391Y-22909D01*
X24854Y-23219D01*
X25400Y-23327D01*
X25946Y-23219D01*
X26409Y-22909D01*
X26719Y-22446D01*
X26827Y-21900D01*
X26719Y-21354D01*
X26409Y-20891D01*
X25946Y-20581D01*
X25400Y-20473D01*
D02*
G37*
G36*
X78900Y-21273D02*
X78354Y-21381D01*
X77891Y-21691D01*
X77581Y-22154D01*
X77473Y-22700D01*
X77581Y-23246D01*
X77891Y-23709D01*
X78354Y-24019D01*
X78900Y-24127D01*
X79446Y-24019D01*
X79909Y-23709D01*
X80219Y-23246D01*
X80327Y-22700D01*
X80219Y-22154D01*
X79909Y-21691D01*
X79446Y-21381D01*
X78900Y-21273D01*
D02*
G37*
G36*
X84800Y-20273D02*
X84254Y-20381D01*
X83791Y-20691D01*
X83481Y-21154D01*
X83373Y-21700D01*
X83481Y-22246D01*
X83791Y-22709D01*
X84254Y-23019D01*
X84800Y-23127D01*
X85346Y-23019D01*
X85809Y-22709D01*
X86119Y-22246D01*
X86227Y-21700D01*
X86119Y-21154D01*
X85809Y-20691D01*
X85346Y-20381D01*
X84800Y-20273D01*
D02*
G37*
G36*
X30300Y-16973D02*
X29754Y-17081D01*
X29291Y-17391D01*
X28981Y-17854D01*
X28873Y-18400D01*
X28981Y-18946D01*
X29291Y-19409D01*
X29754Y-19719D01*
X29747Y-20227D01*
X29673Y-20600D01*
X29781Y-21146D01*
X30091Y-21609D01*
X30554Y-21919D01*
X31100Y-22027D01*
X31646Y-21919D01*
X32109Y-21609D01*
X32419Y-21146D01*
X32527Y-20600D01*
X32419Y-20054D01*
X32109Y-19591D01*
X31646Y-19281D01*
X31653Y-18773D01*
X31727Y-18400D01*
X31619Y-17854D01*
X31309Y-17391D01*
X30846Y-17081D01*
X30300Y-16973D01*
D02*
G37*
G36*
X90600Y-19441D02*
X90054Y-19550D01*
X89591Y-19859D01*
X89281Y-20322D01*
X89173Y-20868D01*
X89281Y-21415D01*
X89591Y-21878D01*
X90054Y-22187D01*
X90600Y-22296D01*
X91146Y-22187D01*
X91609Y-21878D01*
X91919Y-21415D01*
X92027Y-20868D01*
X91919Y-20322D01*
X91609Y-19859D01*
X91146Y-19550D01*
X90600Y-19441D01*
D02*
G37*
G36*
X82600Y-23673D02*
X82054Y-23781D01*
X81591Y-24091D01*
X81281Y-24554D01*
X81173Y-25100D01*
X81281Y-25646D01*
X81591Y-26109D01*
X82054Y-26419D01*
X82600Y-26527D01*
X83146Y-26419D01*
X83609Y-26109D01*
X83919Y-25646D01*
X84027Y-25100D01*
X83919Y-24554D01*
X83609Y-24091D01*
X83146Y-23781D01*
X82600Y-23673D01*
D02*
G37*
G36*
X27500Y-24673D02*
X26954Y-24781D01*
X26491Y-25091D01*
X26181Y-25554D01*
X26073Y-26100D01*
X26181Y-26646D01*
X26491Y-27109D01*
X26954Y-27419D01*
X27500Y-27527D01*
X28046Y-27419D01*
X28509Y-27109D01*
X28819Y-26646D01*
X28927Y-26100D01*
X28819Y-25554D01*
X28509Y-25091D01*
X28046Y-24781D01*
X27500Y-24673D01*
D02*
G37*
G36*
X74700Y-20973D02*
X74154Y-21081D01*
X73691Y-21391D01*
X73381Y-21854D01*
X73273Y-22400D01*
X73381Y-22946D01*
X73691Y-23409D01*
X74154Y-23719D01*
X74375Y-23763D01*
X74606Y-24317D01*
X74581Y-24354D01*
X74473Y-24900D01*
X74581Y-25446D01*
X74891Y-25909D01*
X75354Y-26219D01*
X75900Y-26327D01*
X76446Y-26219D01*
X76909Y-25909D01*
X77219Y-25446D01*
X77327Y-24900D01*
X77219Y-24354D01*
X76909Y-23891D01*
X76446Y-23581D01*
X76225Y-23537D01*
X75994Y-22983D01*
X76019Y-22946D01*
X76127Y-22400D01*
X76019Y-21854D01*
X75709Y-21391D01*
X75246Y-21081D01*
X74700Y-20973D01*
D02*
G37*
G36*
X7500Y-23773D02*
X6954Y-23881D01*
X6491Y-24191D01*
X6414Y-24305D01*
X6033Y-24574D01*
X5773Y-24433D01*
X5546Y-24281D01*
X5000Y-24173D01*
X4454Y-24281D01*
X3991Y-24591D01*
X3681Y-25054D01*
X3573Y-25600D01*
X3681Y-26146D01*
X3991Y-26609D01*
X4454Y-26919D01*
X5000Y-27027D01*
X5546Y-26919D01*
X6009Y-26609D01*
X6086Y-26495D01*
X6467Y-26226D01*
X6727Y-26367D01*
X6954Y-26519D01*
X7500Y-26627D01*
X8046Y-26519D01*
X8509Y-26209D01*
X8819Y-25746D01*
X8927Y-25200D01*
X8819Y-24654D01*
X8509Y-24191D01*
X8046Y-23881D01*
X7500Y-23773D01*
D02*
G37*
G36*
X70900Y-22073D02*
X70354Y-22181D01*
X69891Y-22491D01*
X69581Y-22954D01*
X69473Y-23500D01*
X69581Y-24046D01*
X69891Y-24509D01*
X70354Y-24819D01*
X70900Y-24927D01*
X71446Y-24819D01*
X71909Y-24509D01*
X72219Y-24046D01*
X72327Y-23500D01*
X72219Y-22954D01*
X71909Y-22491D01*
X71446Y-22181D01*
X70900Y-22073D01*
D02*
G37*
G36*
X5200Y-49573D02*
X4654Y-49681D01*
X4191Y-49991D01*
X3881Y-50454D01*
X3773Y-51000D01*
X3881Y-51546D01*
X4191Y-52009D01*
X4654Y-52319D01*
X5200Y-52427D01*
X5746Y-52319D01*
X6209Y-52009D01*
X6519Y-51546D01*
X6627Y-51000D01*
X6519Y-50454D01*
X6209Y-49991D01*
X5746Y-49681D01*
X5200Y-49573D01*
D02*
G37*
G36*
X61800Y-73373D02*
X61254Y-73481D01*
X60791Y-73791D01*
X60481Y-74254D01*
X60373Y-74800D01*
X60481Y-75346D01*
X60791Y-75809D01*
X61254Y-76119D01*
X61329Y-76276D01*
X61354Y-76781D01*
X60891Y-77091D01*
X60581Y-77554D01*
X60473Y-78100D01*
X60581Y-78646D01*
X60891Y-79109D01*
X61354Y-79419D01*
X61900Y-79527D01*
X62446Y-79419D01*
X62636Y-79292D01*
X63017Y-79201D01*
X63276Y-79420D01*
X63335Y-79508D01*
X64448Y-80621D01*
X64779Y-80842D01*
X65169Y-80920D01*
X65768D01*
X65855Y-81420D01*
X65491Y-81663D01*
X65181Y-82126D01*
X65073Y-82672D01*
X65181Y-83219D01*
X65491Y-83682D01*
X65954Y-83991D01*
X66500Y-84100D01*
X67046Y-83991D01*
X67509Y-83682D01*
X67819Y-83219D01*
X67927Y-82672D01*
X67819Y-82126D01*
X67509Y-81663D01*
X67145Y-81420D01*
X67233Y-80920D01*
X68465D01*
X70966Y-83421D01*
X71297Y-83642D01*
X71687Y-83720D01*
X73006D01*
X73454Y-84019D01*
X74000Y-84127D01*
X74546Y-84019D01*
X75009Y-83709D01*
X75319Y-83246D01*
X75427Y-82700D01*
X75319Y-82154D01*
X75009Y-81691D01*
X74546Y-81381D01*
X74000Y-81273D01*
X73454Y-81381D01*
X73006Y-81680D01*
X72109D01*
X69608Y-79179D01*
X69277Y-78958D01*
X68887Y-78880D01*
X65592D01*
X65076Y-78365D01*
Y-77156D01*
X65037Y-76961D01*
X65356Y-76565D01*
X65422Y-76528D01*
X65592Y-76562D01*
X66138Y-76453D01*
X66601Y-76144D01*
X66910Y-75681D01*
X67019Y-75134D01*
X66910Y-74588D01*
X66601Y-74125D01*
X66138Y-73816D01*
X65592Y-73707D01*
X65045Y-73816D01*
X64582Y-74125D01*
X64273Y-74588D01*
X64167Y-75118D01*
X64096Y-75167D01*
X63699Y-75357D01*
X63213Y-74871D01*
X63227Y-74800D01*
X63119Y-74254D01*
X62809Y-73791D01*
X62346Y-73481D01*
X61800Y-73373D01*
D02*
G37*
G36*
X54346Y-73707D02*
X53799Y-73816D01*
X53336Y-74125D01*
X53027Y-74588D01*
X52918Y-75134D01*
X53027Y-75681D01*
X53336Y-76144D01*
X53799Y-76453D01*
X54346Y-76562D01*
X54892Y-76453D01*
X55355Y-76144D01*
X55664Y-75681D01*
X55773Y-75134D01*
X55664Y-74588D01*
X55355Y-74125D01*
X54892Y-73816D01*
X54346Y-73707D01*
D02*
G37*
G36*
X50200Y-73473D02*
X49654Y-73581D01*
X49191Y-73891D01*
X48881Y-74354D01*
X48773Y-74900D01*
X48881Y-75446D01*
X49191Y-75909D01*
X49654Y-76219D01*
X50200Y-76327D01*
X50746Y-76219D01*
X51209Y-75909D01*
X51519Y-75446D01*
X51627Y-74900D01*
X51519Y-74354D01*
X51209Y-73891D01*
X50746Y-73581D01*
X50200Y-73473D01*
D02*
G37*
G36*
X112000Y-71873D02*
X111454Y-71981D01*
X110991Y-72291D01*
X110681Y-72754D01*
X110573Y-73300D01*
X110681Y-73846D01*
X110991Y-74309D01*
X111454Y-74619D01*
X112000Y-74727D01*
X112546Y-74619D01*
X113009Y-74309D01*
X113319Y-73846D01*
X113427Y-73300D01*
X113319Y-72754D01*
X113009Y-72291D01*
X112546Y-71981D01*
X112000Y-71873D01*
D02*
G37*
G36*
X18329Y-73018D02*
X17783Y-73127D01*
X17320Y-73436D01*
X17011Y-73900D01*
X16902Y-74446D01*
X17011Y-74992D01*
X17320Y-75455D01*
X17783Y-75765D01*
X18329Y-75873D01*
X18876Y-75765D01*
X19339Y-75455D01*
X19648Y-74992D01*
X19757Y-74446D01*
X19648Y-73900D01*
X19339Y-73436D01*
X18876Y-73127D01*
X18329Y-73018D01*
D02*
G37*
G36*
X51783Y-76981D02*
X51236Y-77090D01*
X50773Y-77399D01*
X50464Y-77862D01*
X50355Y-78408D01*
X50464Y-78955D01*
X50773Y-79418D01*
X51236Y-79727D01*
X51783Y-79836D01*
X52329Y-79727D01*
X52792Y-79418D01*
X53101Y-78955D01*
X53210Y-78408D01*
X53101Y-77862D01*
X52792Y-77399D01*
X52329Y-77090D01*
X51783Y-76981D01*
D02*
G37*
G36*
X14200Y-83473D02*
X13654Y-83581D01*
X13191Y-83891D01*
X12550Y-83950D01*
X12446Y-83881D01*
X11900Y-83773D01*
X11354Y-83881D01*
X10891Y-84191D01*
X10581Y-84654D01*
X10473Y-85200D01*
X10581Y-85746D01*
X10891Y-86209D01*
X11354Y-86519D01*
X11900Y-86627D01*
X12446Y-86519D01*
X12909Y-86209D01*
X13551Y-86150D01*
X13654Y-86219D01*
X14200Y-86327D01*
X14746Y-86219D01*
X15209Y-85909D01*
X15519Y-85446D01*
X15627Y-84900D01*
X15519Y-84354D01*
X15209Y-83891D01*
X14746Y-83581D01*
X14200Y-83473D01*
D02*
G37*
G36*
X108100Y-75273D02*
X107554Y-75381D01*
X107091Y-75691D01*
X106781Y-76154D01*
X106673Y-76700D01*
X106781Y-77246D01*
X107091Y-77709D01*
X107554Y-78019D01*
X108100Y-78127D01*
X108646Y-78019D01*
X109109Y-77709D01*
X109419Y-77246D01*
X109527Y-76700D01*
X109419Y-76154D01*
X109109Y-75691D01*
X108646Y-75381D01*
X108100Y-75273D01*
D02*
G37*
G36*
X46472Y-73707D02*
X45925Y-73816D01*
X45462Y-74125D01*
X45153Y-74588D01*
X45044Y-75134D01*
X45153Y-75681D01*
X45462Y-76144D01*
X45925Y-76453D01*
X46472Y-76562D01*
X47018Y-76453D01*
X47481Y-76144D01*
X47790Y-75681D01*
X47899Y-75134D01*
X47790Y-74588D01*
X47481Y-74125D01*
X47018Y-73816D01*
X46472Y-73707D01*
D02*
G37*
G36*
X100900Y-73673D02*
X100354Y-73781D01*
X99891Y-74091D01*
X99581Y-74554D01*
X99473Y-75100D01*
X99581Y-75646D01*
X99891Y-76109D01*
X99962Y-76157D01*
X99810Y-76657D01*
X82481D01*
X82329Y-76157D01*
X82349Y-76144D01*
X82658Y-75681D01*
X82767Y-75134D01*
X82658Y-74588D01*
X82349Y-74125D01*
X81886Y-73816D01*
X81340Y-73707D01*
X80793Y-73816D01*
X80330Y-74125D01*
X80021Y-74588D01*
X79912Y-75134D01*
X80021Y-75681D01*
X80330Y-76144D01*
X80350Y-76157D01*
X80198Y-76657D01*
X78544D01*
X78392Y-76157D01*
X78412Y-76144D01*
X78721Y-75681D01*
X78830Y-75134D01*
X78721Y-74588D01*
X78412Y-74125D01*
X77949Y-73816D01*
X77403Y-73707D01*
X76856Y-73816D01*
X76393Y-74125D01*
X76084Y-74588D01*
X75975Y-75134D01*
X76084Y-75681D01*
X76393Y-76144D01*
X76472Y-76196D01*
X76444Y-76516D01*
X76387Y-76741D01*
X76178Y-76881D01*
X75724Y-77335D01*
X74903D01*
X74740Y-77091D01*
X74277Y-76781D01*
X73730Y-76673D01*
X73184Y-76781D01*
X72721Y-77091D01*
X72412Y-77554D01*
X72303Y-78100D01*
X72412Y-78646D01*
X72721Y-79109D01*
X73184Y-79419D01*
X73730Y-79527D01*
X74277Y-79419D01*
X74740Y-79109D01*
X74903Y-78865D01*
X75805D01*
X75975Y-79071D01*
X76084Y-79618D01*
X76393Y-80081D01*
X76856Y-80390D01*
X77403Y-80499D01*
X77949Y-80390D01*
X78412Y-80081D01*
X78721Y-79618D01*
X78830Y-79071D01*
X78753Y-78686D01*
X79050Y-78186D01*
X79771D01*
X80055Y-78686D01*
X79973Y-79100D01*
X80081Y-79646D01*
X80391Y-80109D01*
X80854Y-80419D01*
X81400Y-80527D01*
X81946Y-80419D01*
X82409Y-80109D01*
X82719Y-79646D01*
X82827Y-79100D01*
X82745Y-78686D01*
X83029Y-78186D01*
X99759D01*
X100026Y-78686D01*
X99981Y-78754D01*
X99873Y-79300D01*
X99981Y-79846D01*
X100291Y-80309D01*
X100754Y-80619D01*
X101300Y-80727D01*
X101846Y-80619D01*
X102054Y-80480D01*
X102593Y-80646D01*
X102609Y-80665D01*
X102906Y-81110D01*
X103369Y-81420D01*
X103916Y-81528D01*
X104462Y-81420D01*
X104925Y-81110D01*
X105235Y-80647D01*
X105775Y-80490D01*
X109826Y-84541D01*
X109826Y-84541D01*
X110074Y-84706D01*
X110367Y-84765D01*
X110367Y-84765D01*
X111027D01*
X111191Y-85009D01*
X111654Y-85319D01*
X112200Y-85427D01*
X112746Y-85319D01*
X113209Y-85009D01*
X113519Y-84546D01*
X113627Y-84000D01*
X113519Y-83454D01*
X113209Y-82991D01*
X112746Y-82681D01*
X112719Y-82676D01*
X112471Y-82146D01*
X112580Y-81600D01*
X112471Y-81054D01*
X112162Y-80591D01*
X111699Y-80281D01*
X111153Y-80173D01*
X110606Y-80281D01*
X110495Y-80235D01*
X110419Y-79854D01*
X110109Y-79391D01*
X109646Y-79081D01*
X109100Y-78973D01*
X108554Y-79081D01*
X108091Y-79391D01*
X107872Y-79717D01*
X107309Y-79861D01*
X105357Y-77909D01*
X105109Y-77744D01*
X105211Y-77358D01*
X105219Y-77346D01*
X105327Y-76800D01*
X105219Y-76254D01*
X104909Y-75791D01*
X104446Y-75481D01*
X103900Y-75373D01*
X103354Y-75481D01*
X102891Y-75791D01*
X102581Y-76254D01*
X102213Y-76329D01*
X102095Y-75832D01*
X102219Y-75646D01*
X102327Y-75100D01*
X102219Y-74554D01*
X101909Y-74091D01*
X101446Y-73781D01*
X100900Y-73673D01*
D02*
G37*
G36*
X104950Y-71473D02*
X104404Y-71581D01*
X103941Y-71891D01*
X103631Y-72354D01*
X103523Y-72900D01*
X103631Y-73446D01*
X103941Y-73909D01*
X104404Y-74219D01*
X104950Y-74327D01*
X105496Y-74219D01*
X105959Y-73909D01*
X106269Y-73446D01*
X106377Y-72900D01*
X106269Y-72354D01*
X105959Y-71891D01*
X105496Y-71581D01*
X104950Y-71473D01*
D02*
G37*
G36*
X14200Y-65173D02*
X13654Y-65281D01*
X13191Y-65591D01*
X12881Y-66054D01*
X12773Y-66600D01*
X12881Y-67146D01*
X13191Y-67609D01*
X13654Y-67919D01*
X14200Y-68027D01*
X14746Y-67919D01*
X15209Y-67609D01*
X15519Y-67146D01*
X15627Y-66600D01*
X15519Y-66054D01*
X15209Y-65591D01*
X14746Y-65281D01*
X14200Y-65173D01*
D02*
G37*
G36*
X102200Y-65573D02*
X101654Y-65681D01*
X101191Y-65991D01*
X100881Y-66454D01*
X100773Y-67000D01*
X100881Y-67546D01*
X101191Y-68009D01*
X101654Y-68319D01*
X102200Y-68427D01*
X102746Y-68319D01*
X103209Y-68009D01*
X103519Y-67546D01*
X103627Y-67000D01*
X103519Y-66454D01*
X103209Y-65991D01*
X102746Y-65681D01*
X102200Y-65573D01*
D02*
G37*
G36*
X26176Y-62649D02*
X25630Y-62757D01*
X25167Y-63067D01*
X24858Y-63530D01*
X24749Y-64076D01*
X24858Y-64622D01*
X25167Y-65086D01*
X25591Y-65369D01*
Y-65391D01*
X25281Y-65854D01*
X25173Y-66400D01*
X25281Y-66946D01*
X25591Y-67409D01*
X26054Y-67719D01*
X26600Y-67827D01*
X27146Y-67719D01*
X27609Y-67409D01*
X27919Y-66946D01*
X28027Y-66400D01*
X27919Y-65854D01*
X27609Y-65391D01*
X27186Y-65108D01*
Y-65086D01*
X27495Y-64622D01*
X27604Y-64076D01*
X27495Y-63530D01*
X27186Y-63067D01*
X26722Y-62757D01*
X26176Y-62649D01*
D02*
G37*
G36*
X77600Y-62073D02*
X77054Y-62181D01*
X76591Y-62491D01*
X76281Y-62954D01*
X76173Y-63500D01*
X76281Y-64046D01*
X76591Y-64509D01*
X77054Y-64819D01*
X77600Y-64927D01*
X78146Y-64819D01*
X78609Y-64509D01*
X78919Y-64046D01*
X79027Y-63500D01*
X78919Y-62954D01*
X78609Y-62491D01*
X78146Y-62181D01*
X77600Y-62073D01*
D02*
G37*
G36*
X30700D02*
X30154Y-62181D01*
X29691Y-62491D01*
X29381Y-62954D01*
X29273Y-63500D01*
X29381Y-64046D01*
X29691Y-64509D01*
X30154Y-64819D01*
X30700Y-64927D01*
X31246Y-64819D01*
X31709Y-64509D01*
X32019Y-64046D01*
X32127Y-63500D01*
X32019Y-62954D01*
X31709Y-62491D01*
X31246Y-62181D01*
X30700Y-62073D01*
D02*
G37*
G36*
X34800Y-69473D02*
X34254Y-69581D01*
X33791Y-69891D01*
X33481Y-70354D01*
X33373Y-70900D01*
X33481Y-71446D01*
X33791Y-71909D01*
X34254Y-72219D01*
X34800Y-72327D01*
X35346Y-72219D01*
X35809Y-71909D01*
X36119Y-71446D01*
X36227Y-70900D01*
X36119Y-70354D01*
X35809Y-69891D01*
X35346Y-69581D01*
X34800Y-69473D01*
D02*
G37*
G36*
X30500Y-69873D02*
X29954Y-69981D01*
X29491Y-70291D01*
X29181Y-70754D01*
X29073Y-71300D01*
X29181Y-71846D01*
X29491Y-72309D01*
X29954Y-72619D01*
X30500Y-72727D01*
X31046Y-72619D01*
X31509Y-72309D01*
X31819Y-71846D01*
X31927Y-71300D01*
X31819Y-70754D01*
X31509Y-70291D01*
X31046Y-69981D01*
X30500Y-69873D01*
D02*
G37*
G36*
X106000Y-68173D02*
X105454Y-68281D01*
X104991Y-68591D01*
X104681Y-69054D01*
X104573Y-69600D01*
X104681Y-70146D01*
X104991Y-70609D01*
X105454Y-70919D01*
X106000Y-71027D01*
X106546Y-70919D01*
X107009Y-70609D01*
X107319Y-70146D01*
X107427Y-69600D01*
X107319Y-69054D01*
X107009Y-68591D01*
X106546Y-68281D01*
X106000Y-68173D01*
D02*
G37*
G36*
X34800Y-65973D02*
X34254Y-66081D01*
X33791Y-66391D01*
X33481Y-66854D01*
X33373Y-67400D01*
X33481Y-67946D01*
X33791Y-68409D01*
X34254Y-68719D01*
X34800Y-68827D01*
X35346Y-68719D01*
X35809Y-68409D01*
X36119Y-67946D01*
X36227Y-67400D01*
X36119Y-66854D01*
X35809Y-66391D01*
X35346Y-66081D01*
X34800Y-65973D01*
D02*
G37*
G36*
X112331Y-67741D02*
X111785Y-67850D01*
X111322Y-68159D01*
X111013Y-68622D01*
X110904Y-69169D01*
X111013Y-69715D01*
X111322Y-70178D01*
X111785Y-70487D01*
X112331Y-70596D01*
X112878Y-70487D01*
X113341Y-70178D01*
X113650Y-69715D01*
X113759Y-69169D01*
X113650Y-68622D01*
X113341Y-68159D01*
X112878Y-67850D01*
X112331Y-67741D01*
D02*
G37*
G36*
X89500Y-81373D02*
X88954Y-81481D01*
X88491Y-81791D01*
X88181Y-82254D01*
X88073Y-82800D01*
X88181Y-83346D01*
X88491Y-83809D01*
X88954Y-84119D01*
X89500Y-84227D01*
X90046Y-84119D01*
X90509Y-83809D01*
X90819Y-83346D01*
X90927Y-82800D01*
X90819Y-82254D01*
X90509Y-81791D01*
X90046Y-81481D01*
X89500Y-81373D01*
D02*
G37*
G36*
X77500Y-89273D02*
X76954Y-89381D01*
X76491Y-89691D01*
X76181Y-90154D01*
X76073Y-90700D01*
X76181Y-91246D01*
X76491Y-91709D01*
X76954Y-92019D01*
X77500Y-92127D01*
X78046Y-92019D01*
X78509Y-91709D01*
X78819Y-91246D01*
X78927Y-90700D01*
X78819Y-90154D01*
X78509Y-89691D01*
X78046Y-89381D01*
X77500Y-89273D01*
D02*
G37*
G36*
X101900Y-88973D02*
X101354Y-89081D01*
X100891Y-89391D01*
X100581Y-89854D01*
X100473Y-90400D01*
X100581Y-90946D01*
X100891Y-91409D01*
X101354Y-91719D01*
X101900Y-91827D01*
X102446Y-91719D01*
X102781Y-91495D01*
X103056Y-91468D01*
X103384Y-91600D01*
X103591Y-91909D01*
X104054Y-92219D01*
X104600Y-92327D01*
X105146Y-92219D01*
X105609Y-91909D01*
X105919Y-91446D01*
X106027Y-90900D01*
X105919Y-90354D01*
X105609Y-89891D01*
X105146Y-89581D01*
X104600Y-89473D01*
X104054Y-89581D01*
X103719Y-89805D01*
X103444Y-89832D01*
X103116Y-89701D01*
X102909Y-89391D01*
X102446Y-89081D01*
X101900Y-88973D01*
D02*
G37*
G36*
X34400Y-89173D02*
X33854Y-89281D01*
X33391Y-89591D01*
X33081Y-90054D01*
X32973Y-90600D01*
X33081Y-91146D01*
X33391Y-91609D01*
X33854Y-91919D01*
X34400Y-92027D01*
X34946Y-91919D01*
X35409Y-91609D01*
X35719Y-91146D01*
X35827Y-90600D01*
X35719Y-90054D01*
X35409Y-89591D01*
X34946Y-89281D01*
X34400Y-89173D01*
D02*
G37*
G36*
X61700Y-88873D02*
X61154Y-88981D01*
X60691Y-89291D01*
X60381Y-89754D01*
X60273Y-90300D01*
X60381Y-90846D01*
X60691Y-91309D01*
X61154Y-91619D01*
X61700Y-91727D01*
X62246Y-91619D01*
X62709Y-91309D01*
X63019Y-90846D01*
X63127Y-90300D01*
X63019Y-89754D01*
X62709Y-89291D01*
X62246Y-88981D01*
X61700Y-88873D01*
D02*
G37*
G36*
X73900Y-88973D02*
X73354Y-89081D01*
X72891Y-89391D01*
X72581Y-89854D01*
X72473Y-90400D01*
X72581Y-90946D01*
X72891Y-91409D01*
X73354Y-91719D01*
X73900Y-91827D01*
X74446Y-91719D01*
X74909Y-91409D01*
X75219Y-90946D01*
X75327Y-90400D01*
X75219Y-89854D01*
X74909Y-89391D01*
X74446Y-89081D01*
X73900Y-88973D01*
D02*
G37*
G36*
X42700Y-91973D02*
X42154Y-92081D01*
X41691Y-92391D01*
X41381Y-92854D01*
X41273Y-93400D01*
X41381Y-93946D01*
X41691Y-94409D01*
X42154Y-94719D01*
X42700Y-94827D01*
X43246Y-94719D01*
X43709Y-94409D01*
X44019Y-93946D01*
X44127Y-93400D01*
X44019Y-92854D01*
X43709Y-92391D01*
X43246Y-92081D01*
X42700Y-91973D01*
D02*
G37*
G36*
X46505Y-92073D02*
X45959Y-92181D01*
X45495Y-92491D01*
X45186Y-92954D01*
X45077Y-93500D01*
X45186Y-94046D01*
X45495Y-94509D01*
X45959Y-94819D01*
X46505Y-94927D01*
X47051Y-94819D01*
X47514Y-94509D01*
X47824Y-94046D01*
X47932Y-93500D01*
X47824Y-92954D01*
X47514Y-92491D01*
X47051Y-92181D01*
X46505Y-92073D01*
D02*
G37*
G36*
X110900Y-93473D02*
X110354Y-93581D01*
X109891Y-93891D01*
X109581Y-94354D01*
X109069Y-94366D01*
X108600Y-94273D01*
X108054Y-94381D01*
X107591Y-94691D01*
X107281Y-95154D01*
X107173Y-95700D01*
X107281Y-96246D01*
X107591Y-96709D01*
X107996Y-96980D01*
X108187Y-97227D01*
X108281Y-97454D01*
X108173Y-98000D01*
X108281Y-98546D01*
X108591Y-99009D01*
X109054Y-99319D01*
X109600Y-99427D01*
X110146Y-99319D01*
X110609Y-99009D01*
X110919Y-98546D01*
X111027Y-98000D01*
X110919Y-97454D01*
X110609Y-96991D01*
X110233Y-96739D01*
X110224Y-96677D01*
X110406Y-96288D01*
X110465Y-96241D01*
X110900Y-96327D01*
X111446Y-96219D01*
X111909Y-95909D01*
X112219Y-95446D01*
X112327Y-94900D01*
X112219Y-94354D01*
X111909Y-93891D01*
X111446Y-93581D01*
X110900Y-93473D01*
D02*
G37*
G36*
X26400Y-89773D02*
X25854Y-89881D01*
X25391Y-90191D01*
X25081Y-90654D01*
X24973Y-91200D01*
X25081Y-91746D01*
X25391Y-92209D01*
X25854Y-92519D01*
X26400Y-92627D01*
X26946Y-92519D01*
X27409Y-92209D01*
X27719Y-91746D01*
X27827Y-91200D01*
X27719Y-90654D01*
X27409Y-90191D01*
X26946Y-89881D01*
X26400Y-89773D01*
D02*
G37*
G36*
X108300Y-89673D02*
X107754Y-89781D01*
X107291Y-90091D01*
X106981Y-90554D01*
X106873Y-91100D01*
X106981Y-91646D01*
X107291Y-92109D01*
X107754Y-92419D01*
X108300Y-92527D01*
X108846Y-92419D01*
X109258Y-92144D01*
X109326Y-92112D01*
X109851Y-92199D01*
X109991Y-92409D01*
X110454Y-92719D01*
X111000Y-92827D01*
X111546Y-92719D01*
X112009Y-92409D01*
X112319Y-91946D01*
X112427Y-91400D01*
X112319Y-90854D01*
X112009Y-90391D01*
X111546Y-90081D01*
X111000Y-89973D01*
X110454Y-90081D01*
X110042Y-90356D01*
X109974Y-90388D01*
X109450Y-90301D01*
X109309Y-90091D01*
X108846Y-89781D01*
X108300Y-89673D01*
D02*
G37*
G36*
X11900Y-87273D02*
X11354Y-87381D01*
X10891Y-87691D01*
X10581Y-88154D01*
X10473Y-88700D01*
X10581Y-89246D01*
X10891Y-89709D01*
X11354Y-90019D01*
X11900Y-90127D01*
X12446Y-90019D01*
X12909Y-89709D01*
X13219Y-89246D01*
X13327Y-88700D01*
X13219Y-88154D01*
X12909Y-87691D01*
X12446Y-87381D01*
X11900Y-87273D01*
D02*
G37*
G36*
X80850Y-84588D02*
X80304Y-84697D01*
X79841Y-85006D01*
X79532Y-85470D01*
X79423Y-86016D01*
X79532Y-86562D01*
X79841Y-87025D01*
X80304Y-87335D01*
X80850Y-87443D01*
X81397Y-87335D01*
X81860Y-87025D01*
X82169Y-86562D01*
X82278Y-86016D01*
X82169Y-85470D01*
X81860Y-85006D01*
X81397Y-84697D01*
X80850Y-84588D01*
D02*
G37*
G36*
X50100Y-85073D02*
X49554Y-85181D01*
X49091Y-85491D01*
X48781Y-85954D01*
X48673Y-86500D01*
X48781Y-87046D01*
X49091Y-87509D01*
X49554Y-87819D01*
X50100Y-87927D01*
X50646Y-87819D01*
X51109Y-87509D01*
X51419Y-87046D01*
X51527Y-86500D01*
X51419Y-85954D01*
X51109Y-85491D01*
X50646Y-85181D01*
X50100Y-85073D01*
D02*
G37*
G36*
X102100Y-83673D02*
X101554Y-83781D01*
X101091Y-84091D01*
X100781Y-84554D01*
X100673Y-85100D01*
X100781Y-85646D01*
X101091Y-86109D01*
X101554Y-86419D01*
X102100Y-86527D01*
X102646Y-86419D01*
X103109Y-86109D01*
X103419Y-85646D01*
X103527Y-85100D01*
X103419Y-84554D01*
X103109Y-84091D01*
X102646Y-83781D01*
X102100Y-83673D01*
D02*
G37*
G36*
X61800Y-81373D02*
X61254Y-81481D01*
X60791Y-81791D01*
X60481Y-82254D01*
X60373Y-82800D01*
X60481Y-83346D01*
X60791Y-83809D01*
X61254Y-84119D01*
X61800Y-84227D01*
X62346Y-84119D01*
X62809Y-83809D01*
X63119Y-83346D01*
X63227Y-82800D01*
X63119Y-82254D01*
X62809Y-81791D01*
X62346Y-81481D01*
X61800Y-81373D01*
D02*
G37*
G36*
X54000D02*
X53454Y-81481D01*
X52991Y-81791D01*
X52681Y-82254D01*
X52573Y-82800D01*
X52681Y-83346D01*
X52991Y-83809D01*
X53454Y-84119D01*
X54000Y-84227D01*
X54546Y-84119D01*
X55009Y-83809D01*
X55319Y-83346D01*
X55427Y-82800D01*
X55319Y-82254D01*
X55009Y-81791D01*
X54546Y-81481D01*
X54000Y-81373D01*
D02*
G37*
G36*
X69800Y-85973D02*
X69254Y-86081D01*
X68791Y-86391D01*
X68481Y-86854D01*
X68373Y-87400D01*
X68481Y-87946D01*
X68791Y-88409D01*
X69254Y-88719D01*
X69800Y-88827D01*
X70346Y-88719D01*
X70809Y-88409D01*
X71119Y-87946D01*
X71227Y-87400D01*
X71119Y-86854D01*
X70809Y-86391D01*
X70346Y-86081D01*
X69800Y-85973D01*
D02*
G37*
G36*
X105200Y-84973D02*
X104654Y-85081D01*
X104191Y-85391D01*
X103881Y-85854D01*
X103773Y-86400D01*
X103881Y-86946D01*
X104191Y-87409D01*
X104654Y-87719D01*
X105200Y-87827D01*
X105527Y-88272D01*
X105581Y-88546D01*
X105891Y-89009D01*
X106354Y-89319D01*
X106900Y-89427D01*
X107446Y-89319D01*
X107909Y-89009D01*
X108219Y-88546D01*
X108327Y-88000D01*
X108219Y-87454D01*
X107909Y-86991D01*
X107446Y-86681D01*
X106900Y-86573D01*
X106573Y-86128D01*
X106519Y-85854D01*
X106209Y-85391D01*
X105746Y-85081D01*
X105200Y-84973D01*
D02*
G37*
G36*
X73800Y-85573D02*
X73254Y-85681D01*
X72791Y-85991D01*
X72481Y-86454D01*
X72373Y-87000D01*
X72481Y-87546D01*
X72791Y-88009D01*
X73254Y-88319D01*
X73800Y-88427D01*
X74346Y-88319D01*
X74809Y-88009D01*
X75119Y-87546D01*
X75227Y-87000D01*
X75119Y-86454D01*
X74809Y-85991D01*
X74346Y-85681D01*
X73800Y-85573D01*
D02*
G37*
G36*
X34300Y-85073D02*
X33754Y-85181D01*
X33291Y-85491D01*
X32981Y-85954D01*
X32873Y-86500D01*
X32981Y-87046D01*
X33291Y-87509D01*
X33754Y-87819D01*
X34300Y-87927D01*
X34846Y-87819D01*
X35309Y-87509D01*
X35619Y-87046D01*
X35727Y-86500D01*
X35619Y-85954D01*
X35309Y-85491D01*
X34846Y-85181D01*
X34300Y-85073D01*
D02*
G37*
G36*
X89750Y-85473D02*
X89203Y-85581D01*
X88740Y-85891D01*
X88431Y-86354D01*
X88322Y-86900D01*
X88431Y-87446D01*
X88740Y-87909D01*
X89203Y-88219D01*
X89750Y-88327D01*
X90296Y-88219D01*
X90759Y-87909D01*
X91068Y-87446D01*
X91177Y-86900D01*
X91068Y-86354D01*
X90759Y-85891D01*
X90296Y-85581D01*
X89750Y-85473D01*
D02*
G37*
G36*
X73700Y-53673D02*
X73154Y-53781D01*
X72691Y-54091D01*
X72381Y-54554D01*
X72273Y-55100D01*
X72381Y-55646D01*
X72691Y-56109D01*
X73154Y-56419D01*
X73700Y-56527D01*
X74246Y-56419D01*
X74709Y-56109D01*
X75019Y-55646D01*
X75127Y-55100D01*
X75019Y-54554D01*
X74709Y-54091D01*
X74246Y-53781D01*
X73700Y-53673D01*
D02*
G37*
G36*
X61900D02*
X61354Y-53781D01*
X60891Y-54091D01*
X60581Y-54554D01*
X60473Y-55100D01*
X60581Y-55646D01*
X60891Y-56109D01*
X61354Y-56419D01*
X61900Y-56527D01*
X62446Y-56419D01*
X62909Y-56109D01*
X63219Y-55646D01*
X63327Y-55100D01*
X63219Y-54554D01*
X62909Y-54091D01*
X62446Y-53781D01*
X61900Y-53673D01*
D02*
G37*
G36*
X42500Y-53573D02*
X41954Y-53681D01*
X41491Y-53991D01*
X41181Y-54454D01*
X41073Y-55000D01*
X41181Y-55546D01*
X41491Y-56009D01*
X41954Y-56319D01*
X42500Y-56427D01*
X43046Y-56319D01*
X43509Y-56009D01*
X43819Y-55546D01*
X43927Y-55000D01*
X43819Y-54454D01*
X43509Y-53991D01*
X43046Y-53681D01*
X42500Y-53573D01*
D02*
G37*
G36*
X66200Y-53373D02*
X65654Y-53481D01*
X65191Y-53791D01*
X64881Y-54254D01*
X64773Y-54800D01*
X64881Y-55346D01*
X65191Y-55809D01*
X65654Y-56119D01*
X66200Y-56227D01*
X66746Y-56119D01*
X67209Y-55809D01*
X67519Y-55346D01*
X67627Y-54800D01*
X67519Y-54254D01*
X67209Y-53791D01*
X66746Y-53481D01*
X66200Y-53373D01*
D02*
G37*
G36*
X38100Y-53473D02*
X37554Y-53581D01*
X37091Y-53891D01*
X36781Y-54354D01*
X36673Y-54900D01*
X36781Y-55446D01*
X37091Y-55909D01*
X37554Y-56219D01*
X38100Y-56327D01*
X38646Y-56219D01*
X39109Y-55909D01*
X39419Y-55446D01*
X39527Y-54900D01*
X39419Y-54354D01*
X39109Y-53891D01*
X38646Y-53581D01*
X38100Y-53473D01*
D02*
G37*
G36*
X26600Y-53773D02*
X26054Y-53881D01*
X25591Y-54191D01*
X25281Y-54654D01*
X25173Y-55200D01*
X25281Y-55746D01*
X25591Y-56209D01*
X26054Y-56519D01*
X26600Y-56627D01*
X27146Y-56519D01*
X27609Y-56209D01*
X27919Y-55746D01*
X28027Y-55200D01*
X27919Y-54654D01*
X27609Y-54191D01*
X27146Y-53881D01*
X26600Y-53773D01*
D02*
G37*
G36*
X50033Y-53839D02*
X49487Y-53948D01*
X49024Y-54257D01*
X48715Y-54720D01*
X48606Y-55266D01*
X48715Y-55813D01*
X49024Y-56276D01*
X49487Y-56585D01*
X50033Y-56694D01*
X50580Y-56585D01*
X51043Y-56276D01*
X51352Y-55813D01*
X51461Y-55266D01*
X51352Y-54720D01*
X51043Y-54257D01*
X50580Y-53948D01*
X50033Y-53839D01*
D02*
G37*
G36*
X54000Y-53773D02*
X53454Y-53881D01*
X52991Y-54191D01*
X52681Y-54654D01*
X52573Y-55200D01*
X52681Y-55746D01*
X52991Y-56209D01*
X53454Y-56519D01*
X54000Y-56627D01*
X54546Y-56519D01*
X55009Y-56209D01*
X55319Y-55746D01*
X55427Y-55200D01*
X55319Y-54654D01*
X55009Y-54191D01*
X54546Y-53881D01*
X54000Y-53773D01*
D02*
G37*
G36*
X57933Y-53673D02*
X57387Y-53781D01*
X56924Y-54091D01*
X56614Y-54554D01*
X56506Y-55100D01*
X56614Y-55646D01*
X56924Y-56109D01*
X57387Y-56419D01*
X57933Y-56527D01*
X58479Y-56419D01*
X58942Y-56109D01*
X59252Y-55646D01*
X59360Y-55100D01*
X59252Y-54554D01*
X58942Y-54091D01*
X58479Y-53781D01*
X57933Y-53673D01*
D02*
G37*
G36*
X34400Y-53762D02*
X33854Y-53870D01*
X33391Y-54180D01*
X33081Y-54643D01*
X32973Y-55189D01*
X33081Y-55735D01*
X33391Y-56198D01*
X33854Y-56508D01*
X34400Y-56616D01*
X34946Y-56508D01*
X35409Y-56198D01*
X35719Y-55735D01*
X35827Y-55189D01*
X35719Y-54643D01*
X35409Y-54180D01*
X34946Y-53870D01*
X34400Y-53762D01*
D02*
G37*
G36*
X69800Y-53273D02*
X69254Y-53381D01*
X68791Y-53691D01*
X68481Y-54154D01*
X68373Y-54700D01*
X68481Y-55246D01*
X68791Y-55709D01*
X69254Y-56019D01*
X69800Y-56127D01*
X70346Y-56019D01*
X70809Y-55709D01*
X71119Y-55246D01*
X71227Y-54700D01*
X71119Y-54154D01*
X70809Y-53691D01*
X70346Y-53381D01*
X69800Y-53273D01*
D02*
G37*
G36*
X54100Y-49873D02*
X53554Y-49981D01*
X53091Y-50291D01*
X52781Y-50754D01*
X52673Y-51300D01*
X52781Y-51846D01*
X53091Y-52309D01*
X53554Y-52619D01*
X54100Y-52727D01*
X54646Y-52619D01*
X55109Y-52309D01*
X55419Y-51846D01*
X55527Y-51300D01*
X55419Y-50754D01*
X55109Y-50291D01*
X54646Y-49981D01*
X54100Y-49873D01*
D02*
G37*
G36*
X14000D02*
X13454Y-49981D01*
X12991Y-50291D01*
X12681Y-50754D01*
X12573Y-51300D01*
X12681Y-51846D01*
X12991Y-52309D01*
X13454Y-52619D01*
X14000Y-52727D01*
X14546Y-52619D01*
X15009Y-52309D01*
X15319Y-51846D01*
X15427Y-51300D01*
X15319Y-50754D01*
X15009Y-50291D01*
X14546Y-49981D01*
X14000Y-49873D01*
D02*
G37*
G36*
X26600Y-49773D02*
X26054Y-49881D01*
X25591Y-50191D01*
X25281Y-50654D01*
X25173Y-51200D01*
X25281Y-51746D01*
X25591Y-52209D01*
X26054Y-52519D01*
X26600Y-52627D01*
X27146Y-52519D01*
X27609Y-52209D01*
X27919Y-51746D01*
X28027Y-51200D01*
X27919Y-50654D01*
X27609Y-50191D01*
X27146Y-49881D01*
X26600Y-49773D01*
D02*
G37*
G36*
X46200D02*
X45654Y-49881D01*
X45191Y-50191D01*
X44881Y-50654D01*
X44773Y-51200D01*
X44881Y-51746D01*
X45191Y-52209D01*
X45654Y-52519D01*
X46200Y-52627D01*
X46746Y-52519D01*
X47209Y-52209D01*
X47519Y-51746D01*
X47627Y-51200D01*
X47519Y-50654D01*
X47209Y-50191D01*
X46746Y-49881D01*
X46200Y-49773D01*
D02*
G37*
G36*
X38100D02*
X37554Y-49881D01*
X37091Y-50191D01*
X36781Y-50654D01*
X36673Y-51200D01*
X36781Y-51746D01*
X37091Y-52209D01*
X37554Y-52519D01*
X38100Y-52627D01*
X38646Y-52519D01*
X39109Y-52209D01*
X39419Y-51746D01*
X39527Y-51200D01*
X39419Y-50654D01*
X39109Y-50191D01*
X38646Y-49881D01*
X38100Y-49773D01*
D02*
G37*
G36*
X108900Y-52873D02*
X108354Y-52981D01*
X107891Y-53291D01*
X107581Y-53754D01*
X107473Y-54300D01*
X107581Y-54846D01*
X107891Y-55309D01*
X108354Y-55619D01*
X108900Y-55727D01*
X109446Y-55619D01*
X109909Y-55309D01*
X110219Y-54846D01*
X110327Y-54300D01*
X110219Y-53754D01*
X109909Y-53291D01*
X109446Y-52981D01*
X108900Y-52873D01*
D02*
G37*
G36*
X81486Y-52897D02*
X80940Y-53005D01*
X80476Y-53315D01*
X80167Y-53778D01*
X80058Y-54324D01*
X80167Y-54870D01*
X80476Y-55333D01*
X80940Y-55643D01*
X81486Y-55752D01*
X82032Y-55643D01*
X82495Y-55333D01*
X82805Y-54870D01*
X82913Y-54324D01*
X82805Y-53778D01*
X82495Y-53315D01*
X82032Y-53005D01*
X81486Y-52897D01*
D02*
G37*
G36*
X9500Y-51373D02*
X8954Y-51481D01*
X8491Y-51791D01*
X8181Y-52254D01*
X8073Y-52800D01*
X8181Y-53346D01*
X8491Y-53809D01*
X8954Y-54119D01*
X9500Y-54227D01*
X10046Y-54119D01*
X10509Y-53809D01*
X10819Y-53346D01*
X10927Y-52800D01*
X10819Y-52254D01*
X10509Y-51791D01*
X10046Y-51481D01*
X9500Y-51373D01*
D02*
G37*
G36*
X34550Y-49889D02*
X34004Y-49998D01*
X33541Y-50307D01*
X33231Y-50770D01*
X33123Y-51317D01*
X33231Y-51863D01*
X33541Y-52326D01*
X34004Y-52635D01*
X34550Y-52744D01*
X35096Y-52635D01*
X35559Y-52326D01*
X35869Y-51863D01*
X35977Y-51317D01*
X35869Y-50770D01*
X35559Y-50307D01*
X35096Y-49998D01*
X34550Y-49889D01*
D02*
G37*
G36*
X71021Y-50118D02*
X70475Y-50227D01*
X70012Y-50536D01*
X69702Y-50999D01*
X69594Y-51546D01*
X69702Y-52092D01*
X70012Y-52555D01*
X70475Y-52864D01*
X71021Y-52973D01*
X71567Y-52864D01*
X72030Y-52555D01*
X72340Y-52092D01*
X72448Y-51546D01*
X72340Y-50999D01*
X72030Y-50536D01*
X71567Y-50227D01*
X71021Y-50118D01*
D02*
G37*
G36*
X85500Y-53873D02*
X84954Y-53981D01*
X84491Y-54291D01*
X84181Y-54754D01*
X84073Y-55300D01*
X84181Y-55846D01*
X84491Y-56309D01*
X84954Y-56619D01*
X85500Y-56727D01*
X86046Y-56619D01*
X86509Y-56309D01*
X86819Y-55846D01*
X86927Y-55300D01*
X86819Y-54754D01*
X86509Y-54291D01*
X86046Y-53981D01*
X85500Y-53873D01*
D02*
G37*
G36*
X14400Y-60623D02*
X13854Y-60731D01*
X13391Y-61041D01*
X13081Y-61504D01*
X12973Y-62050D01*
X13081Y-62596D01*
X13391Y-63059D01*
X13854Y-63369D01*
X14400Y-63477D01*
X14946Y-63369D01*
X15409Y-63059D01*
X15719Y-62596D01*
X15827Y-62050D01*
X15719Y-61504D01*
X15409Y-61041D01*
X14946Y-60731D01*
X14400Y-60623D01*
D02*
G37*
G36*
X4900Y-60773D02*
X4354Y-60881D01*
X3891Y-61191D01*
X3581Y-61654D01*
X3473Y-62200D01*
X3581Y-62746D01*
X3891Y-63209D01*
X4354Y-63519D01*
X4900Y-63627D01*
X5446Y-63519D01*
X5909Y-63209D01*
X6219Y-62746D01*
X6327Y-62200D01*
X6219Y-61654D01*
X5909Y-61191D01*
X5446Y-60881D01*
X4900Y-60773D01*
D02*
G37*
G36*
X46100Y-57973D02*
X45554Y-58081D01*
X45091Y-58391D01*
X44781Y-58854D01*
X44673Y-59400D01*
X44781Y-59946D01*
X45091Y-60409D01*
X45554Y-60719D01*
X46100Y-60827D01*
X46646Y-60719D01*
X47109Y-60409D01*
X47419Y-59946D01*
X47527Y-59400D01*
X47419Y-58854D01*
X47109Y-58391D01*
X46646Y-58081D01*
X46100Y-57973D01*
D02*
G37*
G36*
X65500Y-57873D02*
X64954Y-57981D01*
X64491Y-58291D01*
X64181Y-58754D01*
X64073Y-59300D01*
X64181Y-59846D01*
X64491Y-60309D01*
X64954Y-60619D01*
X65500Y-60727D01*
X66046Y-60619D01*
X66509Y-60309D01*
X66819Y-59846D01*
X66927Y-59300D01*
X66819Y-58754D01*
X66509Y-58291D01*
X66046Y-57981D01*
X65500Y-57873D01*
D02*
G37*
G36*
X42300D02*
X41754Y-57981D01*
X41291Y-58291D01*
X40981Y-58754D01*
X40873Y-59300D01*
X40981Y-59846D01*
X41291Y-60309D01*
X41754Y-60619D01*
X42300Y-60727D01*
X42846Y-60619D01*
X43309Y-60309D01*
X43619Y-59846D01*
X43727Y-59300D01*
X43619Y-58754D01*
X43309Y-58291D01*
X42846Y-57981D01*
X42300Y-57873D01*
D02*
G37*
G36*
X42600Y-61573D02*
X42054Y-61681D01*
X41591Y-61991D01*
X41281Y-62454D01*
X41173Y-63000D01*
X41281Y-63546D01*
X41591Y-64009D01*
X42054Y-64319D01*
X42600Y-64427D01*
X43146Y-64319D01*
X43609Y-64009D01*
X43919Y-63546D01*
X44027Y-63000D01*
X43919Y-62454D01*
X43609Y-61991D01*
X43146Y-61681D01*
X42600Y-61573D01*
D02*
G37*
G36*
X46000Y-61773D02*
X45454Y-61881D01*
X44991Y-62191D01*
X44681Y-62654D01*
X44573Y-63200D01*
X44681Y-63746D01*
X44991Y-64209D01*
X45454Y-64519D01*
X46000Y-64627D01*
X46546Y-64519D01*
X47009Y-64209D01*
X47319Y-63746D01*
X47427Y-63200D01*
X47319Y-62654D01*
X47009Y-62191D01*
X46546Y-61881D01*
X46000Y-61773D01*
D02*
G37*
G36*
X49400Y-61173D02*
X48854Y-61281D01*
X48391Y-61591D01*
X48081Y-62054D01*
X47973Y-62600D01*
X48081Y-63146D01*
X48391Y-63609D01*
X48854Y-63919D01*
X49400Y-64027D01*
X49946Y-63919D01*
X50409Y-63609D01*
X50719Y-63146D01*
X50827Y-62600D01*
X50719Y-62054D01*
X50409Y-61591D01*
X49946Y-61281D01*
X49400Y-61173D01*
D02*
G37*
G36*
X58000Y-60968D02*
X57454Y-61077D01*
X56991Y-61386D01*
X56681Y-61849D01*
X56573Y-62396D01*
X56681Y-62942D01*
X56991Y-63405D01*
X57454Y-63714D01*
X58000Y-63823D01*
X58546Y-63714D01*
X59009Y-63405D01*
X59319Y-62942D01*
X59427Y-62396D01*
X59319Y-61849D01*
X59009Y-61386D01*
X58546Y-61077D01*
X58000Y-60968D01*
D02*
G37*
G36*
X101400Y-61073D02*
X100854Y-61181D01*
X100391Y-61491D01*
X100081Y-61954D01*
X99973Y-62500D01*
X100081Y-63046D01*
X100391Y-63509D01*
X100854Y-63819D01*
X101400Y-63927D01*
X101946Y-63819D01*
X102409Y-63509D01*
X102719Y-63046D01*
X102827Y-62500D01*
X102719Y-61954D01*
X102409Y-61491D01*
X101946Y-61181D01*
X101400Y-61073D01*
D02*
G37*
G36*
X88600Y-57873D02*
X88054Y-57981D01*
X87591Y-58291D01*
X87281Y-58754D01*
X87173Y-59300D01*
X87281Y-59846D01*
X87591Y-60309D01*
X88054Y-60619D01*
X88600Y-60727D01*
X89146Y-60619D01*
X89609Y-60309D01*
X89919Y-59846D01*
X90027Y-59300D01*
X89919Y-58754D01*
X89609Y-58291D01*
X89146Y-57981D01*
X88600Y-57873D01*
D02*
G37*
G36*
X50100Y-57573D02*
X49554Y-57681D01*
X49091Y-57991D01*
X48781Y-58454D01*
X48673Y-59000D01*
X48781Y-59546D01*
X49091Y-60009D01*
X49554Y-60319D01*
X50100Y-60427D01*
X50646Y-60319D01*
X51109Y-60009D01*
X51419Y-59546D01*
X51527Y-59000D01*
X51419Y-58454D01*
X51109Y-57991D01*
X50646Y-57681D01*
X50100Y-57573D01*
D02*
G37*
G36*
X34000D02*
X33454Y-57681D01*
X32991Y-57991D01*
X32681Y-58454D01*
X32573Y-59000D01*
X32681Y-59546D01*
X32991Y-60009D01*
X33454Y-60319D01*
X34000Y-60427D01*
X34546Y-60319D01*
X35009Y-60009D01*
X35319Y-59546D01*
X35427Y-59000D01*
X35319Y-58454D01*
X35009Y-57991D01*
X34546Y-57681D01*
X34000Y-57573D01*
D02*
G37*
G36*
X58100D02*
X57554Y-57681D01*
X57091Y-57991D01*
X56781Y-58454D01*
X56673Y-59000D01*
X56781Y-59546D01*
X57091Y-60009D01*
X57554Y-60319D01*
X58100Y-60427D01*
X58646Y-60319D01*
X59109Y-60009D01*
X59419Y-59546D01*
X59527Y-59000D01*
X59419Y-58454D01*
X59109Y-57991D01*
X58646Y-57681D01*
X58100Y-57573D01*
D02*
G37*
G36*
X11000Y-54773D02*
X10454Y-54881D01*
X9991Y-55191D01*
X9681Y-55654D01*
X9573Y-56200D01*
X9681Y-56746D01*
X9991Y-57209D01*
X10454Y-57519D01*
X11000Y-57627D01*
X11546Y-57519D01*
X11974Y-57233D01*
X12291Y-57591D01*
X11981Y-58054D01*
X11873Y-58600D01*
X11926Y-58867D01*
X11476Y-59168D01*
X11346Y-59081D01*
X10800Y-58973D01*
X10254Y-59081D01*
X9791Y-59391D01*
X9481Y-59854D01*
X9373Y-60400D01*
X9481Y-60946D01*
X9157Y-61361D01*
X9054Y-61381D01*
X8591Y-61691D01*
X8281Y-62154D01*
X8173Y-62700D01*
X8281Y-63246D01*
X8591Y-63709D01*
X9054Y-64019D01*
X9568Y-64121D01*
X9581Y-64154D01*
X9473Y-64700D01*
X9581Y-65246D01*
X9856Y-65658D01*
X9888Y-65726D01*
X9800Y-66250D01*
X9591Y-66391D01*
X9281Y-66854D01*
X9173Y-67400D01*
X9281Y-67946D01*
X9591Y-68409D01*
X10054Y-68719D01*
X10230Y-68754D01*
X10600Y-68836D01*
X10593Y-69297D01*
X10573Y-69400D01*
X10612Y-69600D01*
X10279Y-70176D01*
X10254Y-70181D01*
X9791Y-70491D01*
X9481Y-70954D01*
X9373Y-71500D01*
X9481Y-72046D01*
X9791Y-72509D01*
Y-72757D01*
X9591Y-72891D01*
X9281Y-73354D01*
X9173Y-73900D01*
X9281Y-74446D01*
X9591Y-74909D01*
X10054Y-75219D01*
X10600Y-75327D01*
X11146Y-75219D01*
X11609Y-74909D01*
X11788Y-74642D01*
X12354Y-74419D01*
X12900Y-74527D01*
X13446Y-74419D01*
X13909Y-74109D01*
X14219Y-73646D01*
X14327Y-73100D01*
X14274Y-72834D01*
X14357Y-72710D01*
X14704Y-72449D01*
X15100Y-72527D01*
X15646Y-72419D01*
X16109Y-72109D01*
X16419Y-71646D01*
X16527Y-71100D01*
X16419Y-70554D01*
X16109Y-70091D01*
X15646Y-69781D01*
X15100Y-69673D01*
X14554Y-69781D01*
X14091Y-70091D01*
X13781Y-70554D01*
X13673Y-71100D01*
X13726Y-71367D01*
X13643Y-71490D01*
X13296Y-71751D01*
X12900Y-71673D01*
X12695Y-71713D01*
X12515Y-71631D01*
X12365Y-71164D01*
X12546Y-70719D01*
X13009Y-70409D01*
X13319Y-69946D01*
X13427Y-69400D01*
X13319Y-68854D01*
X13009Y-68391D01*
X12546Y-68081D01*
X12370Y-68046D01*
X12000Y-67964D01*
X12007Y-67503D01*
X12027Y-67400D01*
X11919Y-66854D01*
X11644Y-66442D01*
X11612Y-66374D01*
X11699Y-65850D01*
X11909Y-65709D01*
X12219Y-65246D01*
X12327Y-64700D01*
X12219Y-64154D01*
X11909Y-63691D01*
X11446Y-63381D01*
X10932Y-63279D01*
X10919Y-63246D01*
X11027Y-62700D01*
X10919Y-62154D01*
X11243Y-61739D01*
X11346Y-61719D01*
X11809Y-61409D01*
X12119Y-60946D01*
X12227Y-60400D01*
X12174Y-60133D01*
X12624Y-59832D01*
X12754Y-59919D01*
X13300Y-60027D01*
X13846Y-59919D01*
X14309Y-59609D01*
X14619Y-59146D01*
X14727Y-58600D01*
X14619Y-58054D01*
X14309Y-57591D01*
X13846Y-57281D01*
X13300Y-57173D01*
X12754Y-57281D01*
X12326Y-57567D01*
X12009Y-57209D01*
X12319Y-56746D01*
X12427Y-56200D01*
X12319Y-55654D01*
X12009Y-55191D01*
X11546Y-54881D01*
X11000Y-54773D01*
D02*
G37*
G36*
X26800Y-57273D02*
X26254Y-57381D01*
X25791Y-57691D01*
X25481Y-58154D01*
X25373Y-58700D01*
X25481Y-59246D01*
X25791Y-59709D01*
X26254Y-60019D01*
X26800Y-60127D01*
X27346Y-60019D01*
X27809Y-59709D01*
X28119Y-59246D01*
X28227Y-58700D01*
X28119Y-58154D01*
X27809Y-57691D01*
X27346Y-57381D01*
X26800Y-57273D01*
D02*
G37*
G36*
X77800Y-57773D02*
X77254Y-57881D01*
X76791Y-58191D01*
X76481Y-58654D01*
X76373Y-59200D01*
X76481Y-59746D01*
X76791Y-60209D01*
X77254Y-60519D01*
X77800Y-60627D01*
X78346Y-60519D01*
X78809Y-60209D01*
X79119Y-59746D01*
X79227Y-59200D01*
X79119Y-58654D01*
X78809Y-58191D01*
X78346Y-57881D01*
X77800Y-57773D01*
D02*
G37*
G36*
X38800D02*
X38254Y-57881D01*
X37791Y-58191D01*
X37481Y-58654D01*
X37373Y-59200D01*
X37481Y-59746D01*
X37791Y-60209D01*
X38254Y-60519D01*
X38800Y-60627D01*
X39346Y-60519D01*
X39809Y-60209D01*
X40119Y-59746D01*
X40227Y-59200D01*
X40119Y-58654D01*
X39809Y-58191D01*
X39346Y-57881D01*
X38800Y-57773D01*
D02*
G37*
G36*
X62000Y-57740D02*
X61454Y-57848D01*
X60991Y-58158D01*
X60681Y-58621D01*
X60573Y-59167D01*
X60681Y-59713D01*
X60991Y-60176D01*
X61454Y-60486D01*
X62000Y-60594D01*
X62546Y-60486D01*
X63009Y-60176D01*
X63319Y-59713D01*
X63427Y-59167D01*
X63319Y-58621D01*
X63009Y-58158D01*
X62546Y-57848D01*
X62000Y-57740D01*
D02*
G37*
G36*
X54100Y-57673D02*
X53554Y-57781D01*
X53091Y-58091D01*
X52781Y-58554D01*
X52673Y-59100D01*
X52781Y-59646D01*
X53091Y-60109D01*
X53554Y-60419D01*
X54100Y-60527D01*
X54646Y-60419D01*
X55109Y-60109D01*
X55419Y-59646D01*
X55527Y-59100D01*
X55419Y-58554D01*
X55109Y-58091D01*
X54646Y-57781D01*
X54100Y-57673D01*
D02*
G37*
G36*
X30400D02*
X29854Y-57781D01*
X29391Y-58091D01*
X29081Y-58554D01*
X28973Y-59100D01*
X29081Y-59646D01*
X29391Y-60109D01*
X29854Y-60419D01*
X30400Y-60527D01*
X30946Y-60419D01*
X31409Y-60109D01*
X31719Y-59646D01*
X31827Y-59100D01*
X31719Y-58554D01*
X31409Y-58091D01*
X30946Y-57781D01*
X30400Y-57673D01*
D02*
G37*
%LPD*%
D10*
X73900Y-78100D02*
X76041D01*
X76719Y-77421D01*
X101755D01*
X102783Y-78450D01*
X104817D01*
X110367Y-84000D01*
X112200D01*
D11*
X61900Y-75000D02*
X64056Y-77156D01*
Y-78787D02*
Y-77156D01*
Y-78787D02*
X65169Y-79900D01*
X68887D01*
X71687Y-82700D01*
X74000D01*
X110300Y-51500D02*
X116100Y-57300D01*
X109800Y-51500D02*
X110300D01*
D31*
X51200Y-17700D02*
Y-17500D01*
X52800Y-15900D01*
X92100Y-36500D02*
X92300Y-36700D01*
D32*
X28000Y-176000D02*
X30700Y-173300D01*
X27528Y-176000D02*
X28000D01*
X21800Y-170272D02*
X27528Y-176000D01*
X21800Y-170272D02*
X26600Y-165472D01*
Y-162600D01*
X27100Y-162100D01*
X108400Y-116200D02*
X108500Y-116100D01*
Y-114300D02*
X116300Y-106500D01*
Y-57500D01*
D33*
X102894Y-112000D02*
X106200D01*
X108500Y-116100D02*
Y-114300D01*
X106200Y-112000D02*
X108500Y-114300D01*
X101094Y-110200D02*
X102894Y-112000D01*
X92494Y-110200D02*
X101094D01*
X90394Y-108100D02*
X92494Y-110200D01*
X87300Y-108100D02*
X90394D01*
X85000Y-110400D02*
X87300Y-108100D01*
D35*
X98600Y-143800D02*
D03*
X58000Y-51230D02*
D03*
X61367Y-35966D02*
D03*
X69200Y-39900D02*
D03*
X69529Y-63323D02*
D03*
X81600Y-66900D02*
D03*
X81500Y-59700D02*
D03*
X50409Y-83008D02*
D03*
X53700Y-63200D02*
D03*
X89214Y-75134D02*
D03*
X85277D02*
D03*
X65956Y-78000D02*
D03*
X61655Y-86380D02*
D03*
X31100Y-55200D02*
D03*
X46472Y-86945D02*
D03*
X54181Y-78200D02*
D03*
X50500Y-101900D02*
D03*
X74000Y-82700D02*
D03*
X65592Y-86945D02*
D03*
X73730Y-78100D02*
D03*
X34100Y-118400D02*
D03*
X61700Y-110100D02*
D03*
X85277Y-98191D02*
D03*
X30700Y-173300D02*
D03*
X65810Y-99116D02*
D03*
X62257Y-94150D02*
D03*
X109800Y-51700D02*
D03*
X51200Y-17700D02*
D03*
X88800Y-55167D02*
D03*
X89214Y-94254D02*
D03*
X61900Y-101900D02*
D03*
X54346Y-86945D02*
D03*
X61800Y-74800D02*
D03*
X46200Y-55100D02*
D03*
X18900Y-24900D02*
D03*
X39022Y-129970D02*
D03*
X85277Y-83008D02*
D03*
X50500Y-94000D02*
D03*
X27100Y-162100D02*
D03*
X20700Y-157200D02*
D03*
X54400Y-97300D02*
D03*
X69600Y-94200D02*
D03*
X47700Y-170300D02*
D03*
X43327Y-5527D02*
D03*
X96800Y-188400D02*
D03*
X45200Y-143700D02*
D03*
X20600Y-187400D02*
D03*
X55925Y-5425D02*
D03*
X54400Y-159000D02*
D03*
X57214Y-167174D02*
D03*
X60582Y-148495D02*
D03*
X85277Y-79071D02*
D03*
X80800Y-175100D02*
D03*
X29100Y-4000D02*
D03*
X8847Y-55100D02*
D03*
X58000Y-125900D02*
D03*
X69900Y-175000D02*
D03*
X60300Y-170300D02*
D03*
X44400D02*
D03*
X34700Y-63100D02*
D03*
X46300Y-98100D02*
D03*
X30400Y-122200D02*
D03*
X108500Y-116100D02*
D03*
X77900Y-3800D02*
D03*
X92300Y-36700D02*
D03*
X2196Y-158100D02*
D03*
X107000Y-64600D02*
D03*
X5531Y-155168D02*
D03*
X107739Y-179014D02*
D03*
X3200Y-155637D02*
D03*
X8563Y-154429D02*
D03*
X18308Y-148236D02*
D03*
Y-150598D02*
D03*
X50500Y-117400D02*
D03*
X14100Y-24900D02*
D03*
X15300Y-23100D02*
D03*
X112200Y-84000D02*
D03*
X69529Y-117877D02*
D03*
Y-102129D02*
D03*
X101400Y-139600D02*
D03*
X85300Y-121800D02*
D03*
X85000Y-110400D02*
D03*
X89214Y-102129D02*
D03*
X78100Y-129900D02*
D03*
M02*
