G04 Layer_Color=255*
%FSLAX25Y25*%
%MOIN*%
G70*
G01*
G75*
%ADD12R,0.01969X0.02362*%
%ADD13R,0.02362X0.01969*%
%ADD14R,0.03150X0.03543*%
%ADD15R,0.03543X0.03150*%
%ADD16R,0.06693X0.04331*%
%ADD17R,0.01870X0.00866*%
%ADD18R,0.02362X0.01260*%
%ADD19C,0.01969*%
%ADD20R,0.04528X0.03937*%
%ADD21R,0.01378X0.01378*%
%ADD22R,0.01378X0.01378*%
%ADD23O,0.02362X0.07480*%
%ADD24C,0.01693*%
%ADD25R,0.02362X0.09843*%
%ADD26R,0.02953X0.04134*%
%ADD27R,0.01969X0.01969*%
%ADD28R,0.01969X0.02559*%
%ADD29R,0.02362X0.04724*%
%ADD34R,0.19685X0.19685*%
D12*
X108100Y-46869D02*
D03*
Y-42932D02*
D03*
X24200Y-28868D02*
D03*
Y-24931D02*
D03*
X20700Y-28868D02*
D03*
Y-24931D02*
D03*
X89900Y-31532D02*
D03*
Y-35469D02*
D03*
X55400Y-184268D02*
D03*
Y-180332D02*
D03*
X25900Y-7869D02*
D03*
Y-3932D02*
D03*
X114800Y-149469D02*
D03*
Y-145531D02*
D03*
X114100Y-65232D02*
D03*
Y-69169D02*
D03*
X32000Y-179832D02*
D03*
Y-183768D02*
D03*
X28300Y-183869D02*
D03*
Y-179931D02*
D03*
X93000Y-5632D02*
D03*
Y-9568D02*
D03*
X91500Y-22632D02*
D03*
Y-26568D02*
D03*
X106200Y-76332D02*
D03*
Y-80269D02*
D03*
X8300Y-89531D02*
D03*
Y-93468D02*
D03*
X3900Y-89531D02*
D03*
Y-93468D02*
D03*
D13*
X19732Y-32600D02*
D03*
X23668D02*
D03*
X3032Y-27900D02*
D03*
X6968D02*
D03*
X19732Y-36000D02*
D03*
X23668D02*
D03*
X3032Y-31600D02*
D03*
X6968D02*
D03*
X109632Y-113400D02*
D03*
X113568D02*
D03*
X111831Y-42600D02*
D03*
X115769D02*
D03*
X37132Y-42400D02*
D03*
X41069D02*
D03*
X7569Y-56300D02*
D03*
X3632D02*
D03*
X49409Y-42126D02*
D03*
X53347D02*
D03*
X115769Y-49900D02*
D03*
X111831D02*
D03*
X115668Y-53500D02*
D03*
X111732D02*
D03*
X7468Y-63600D02*
D03*
X3531D02*
D03*
X33068Y-42100D02*
D03*
X29131D02*
D03*
X65069Y-184600D02*
D03*
X61132D02*
D03*
X60632Y-180100D02*
D03*
X64569D02*
D03*
X107869Y-183000D02*
D03*
X103931D02*
D03*
X111132Y-28600D02*
D03*
X115068D02*
D03*
Y-32100D02*
D03*
X111132D02*
D03*
X111831Y-39000D02*
D03*
X115769D02*
D03*
X3831Y-45700D02*
D03*
X7768D02*
D03*
X16831Y-141300D02*
D03*
X20768D02*
D03*
X9968Y-138200D02*
D03*
X6032D02*
D03*
X4031Y-119500D02*
D03*
X7969D02*
D03*
X6132Y-141700D02*
D03*
X10069D02*
D03*
X4231Y-131200D02*
D03*
X8168D02*
D03*
X8068Y-112700D02*
D03*
X4132D02*
D03*
Y-122900D02*
D03*
X8068D02*
D03*
X3731Y-49200D02*
D03*
X7668D02*
D03*
Y-52800D02*
D03*
X3731D02*
D03*
X111831Y-46200D02*
D03*
X115769D02*
D03*
X4431Y-134700D02*
D03*
X8369D02*
D03*
X7969Y-116100D02*
D03*
X4031D02*
D03*
X3531Y-67300D02*
D03*
X7468D02*
D03*
Y-59900D02*
D03*
X3531D02*
D03*
X3432Y-70900D02*
D03*
X7368D02*
D03*
X7468Y-74400D02*
D03*
X3531D02*
D03*
X4132Y-109200D02*
D03*
X8068D02*
D03*
X88432Y-142500D02*
D03*
X92369D02*
D03*
X109932Y-107900D02*
D03*
X113868D02*
D03*
X114269Y-133800D02*
D03*
X110331D02*
D03*
X114169Y-137200D02*
D03*
X110231D02*
D03*
D14*
X11144Y-25500D02*
D03*
X16656D02*
D03*
X15256Y-37800D02*
D03*
X9744D02*
D03*
X8656Y-79000D02*
D03*
X3144D02*
D03*
X109544Y-57800D02*
D03*
X115056D02*
D03*
X3244Y-84200D02*
D03*
X8756D02*
D03*
X3944Y-127100D02*
D03*
X9456D02*
D03*
D15*
X3100Y-35844D02*
D03*
Y-41356D02*
D03*
X26000Y-12144D02*
D03*
Y-17656D02*
D03*
X109600Y-70056D02*
D03*
Y-64544D02*
D03*
X114200Y-99156D02*
D03*
Y-93644D02*
D03*
D16*
X112300Y-87515D02*
D03*
Y-76885D02*
D03*
D17*
X100000Y-170800D02*
D03*
Y-169225D02*
D03*
Y-167650D02*
D03*
Y-166076D02*
D03*
Y-164501D02*
D03*
Y-162926D02*
D03*
Y-161351D02*
D03*
X109547Y-169225D02*
D03*
Y-167650D02*
D03*
Y-166076D02*
D03*
Y-162926D02*
D03*
Y-170800D02*
D03*
Y-161351D02*
D03*
Y-164501D02*
D03*
D18*
X100504Y-174540D02*
D03*
X109047D02*
D03*
X100504Y-157611D02*
D03*
X109047D02*
D03*
D19*
X16661Y-131939D02*
D03*
Y-128002D02*
D03*
Y-124065D02*
D03*
Y-120128D02*
D03*
Y-116191D02*
D03*
Y-112253D02*
D03*
Y-108317D02*
D03*
Y-104379D02*
D03*
Y-100443D02*
D03*
Y-96505D02*
D03*
Y-92568D02*
D03*
Y-88631D02*
D03*
Y-84694D02*
D03*
Y-80757D02*
D03*
Y-76820D02*
D03*
Y-72883D02*
D03*
Y-68946D02*
D03*
Y-65009D02*
D03*
Y-61072D02*
D03*
Y-57135D02*
D03*
Y-53198D02*
D03*
Y-49261D02*
D03*
X20598Y-131939D02*
D03*
Y-128002D02*
D03*
Y-124065D02*
D03*
Y-120128D02*
D03*
Y-116191D02*
D03*
Y-112253D02*
D03*
Y-108317D02*
D03*
Y-104379D02*
D03*
Y-100443D02*
D03*
Y-96505D02*
D03*
Y-92568D02*
D03*
Y-88631D02*
D03*
Y-84694D02*
D03*
Y-80757D02*
D03*
Y-76820D02*
D03*
Y-72883D02*
D03*
Y-68946D02*
D03*
Y-65009D02*
D03*
Y-61072D02*
D03*
Y-57135D02*
D03*
Y-53198D02*
D03*
Y-49261D02*
D03*
X24535Y-131939D02*
D03*
Y-128002D02*
D03*
Y-124065D02*
D03*
Y-120128D02*
D03*
Y-116191D02*
D03*
Y-112253D02*
D03*
Y-108317D02*
D03*
Y-104379D02*
D03*
Y-100443D02*
D03*
Y-96505D02*
D03*
Y-92568D02*
D03*
Y-88631D02*
D03*
Y-84694D02*
D03*
Y-80757D02*
D03*
Y-76820D02*
D03*
Y-72883D02*
D03*
Y-68946D02*
D03*
Y-65009D02*
D03*
Y-61072D02*
D03*
Y-57135D02*
D03*
Y-53198D02*
D03*
Y-49261D02*
D03*
X28472Y-131939D02*
D03*
Y-128002D02*
D03*
Y-124065D02*
D03*
Y-120128D02*
D03*
Y-116191D02*
D03*
Y-112253D02*
D03*
Y-108317D02*
D03*
Y-104379D02*
D03*
Y-100443D02*
D03*
Y-96505D02*
D03*
Y-92568D02*
D03*
Y-88631D02*
D03*
Y-84694D02*
D03*
Y-80757D02*
D03*
Y-76820D02*
D03*
Y-72883D02*
D03*
Y-68946D02*
D03*
Y-65009D02*
D03*
Y-61072D02*
D03*
Y-57135D02*
D03*
Y-53198D02*
D03*
Y-49261D02*
D03*
X32410Y-131939D02*
D03*
Y-128002D02*
D03*
Y-124065D02*
D03*
Y-120128D02*
D03*
Y-116191D02*
D03*
Y-112253D02*
D03*
Y-108317D02*
D03*
Y-104379D02*
D03*
Y-100443D02*
D03*
Y-96505D02*
D03*
Y-92568D02*
D03*
Y-88631D02*
D03*
Y-84694D02*
D03*
Y-80757D02*
D03*
Y-76820D02*
D03*
Y-72883D02*
D03*
Y-68946D02*
D03*
Y-65009D02*
D03*
Y-61072D02*
D03*
Y-57135D02*
D03*
Y-53198D02*
D03*
Y-49261D02*
D03*
X36347Y-131939D02*
D03*
Y-128002D02*
D03*
Y-124065D02*
D03*
Y-120128D02*
D03*
Y-116191D02*
D03*
Y-112253D02*
D03*
Y-108317D02*
D03*
Y-104379D02*
D03*
Y-100443D02*
D03*
Y-96505D02*
D03*
Y-92568D02*
D03*
Y-88631D02*
D03*
Y-84694D02*
D03*
Y-80757D02*
D03*
Y-76820D02*
D03*
Y-72883D02*
D03*
Y-68946D02*
D03*
Y-65009D02*
D03*
Y-61072D02*
D03*
Y-57135D02*
D03*
Y-53198D02*
D03*
Y-49261D02*
D03*
X40284Y-131939D02*
D03*
Y-128002D02*
D03*
Y-124065D02*
D03*
Y-120128D02*
D03*
Y-116191D02*
D03*
Y-112253D02*
D03*
Y-108317D02*
D03*
Y-104379D02*
D03*
Y-100443D02*
D03*
Y-96505D02*
D03*
Y-92568D02*
D03*
Y-88631D02*
D03*
Y-84694D02*
D03*
Y-80757D02*
D03*
Y-76820D02*
D03*
Y-72883D02*
D03*
Y-68946D02*
D03*
Y-65009D02*
D03*
Y-61072D02*
D03*
Y-57135D02*
D03*
Y-53198D02*
D03*
Y-49261D02*
D03*
X44221Y-131939D02*
D03*
Y-128002D02*
D03*
Y-124065D02*
D03*
Y-120128D02*
D03*
Y-116191D02*
D03*
Y-112253D02*
D03*
Y-108317D02*
D03*
Y-104379D02*
D03*
Y-100443D02*
D03*
Y-96505D02*
D03*
Y-92568D02*
D03*
Y-88631D02*
D03*
Y-84694D02*
D03*
Y-80757D02*
D03*
Y-76820D02*
D03*
Y-72883D02*
D03*
Y-68946D02*
D03*
Y-65009D02*
D03*
Y-61072D02*
D03*
Y-57135D02*
D03*
Y-53198D02*
D03*
Y-49261D02*
D03*
X48158Y-131939D02*
D03*
Y-128002D02*
D03*
Y-124065D02*
D03*
Y-120128D02*
D03*
Y-116191D02*
D03*
Y-112253D02*
D03*
Y-108317D02*
D03*
Y-104379D02*
D03*
Y-100443D02*
D03*
Y-96505D02*
D03*
Y-92568D02*
D03*
Y-88631D02*
D03*
Y-84694D02*
D03*
Y-80757D02*
D03*
Y-76820D02*
D03*
Y-72883D02*
D03*
Y-68946D02*
D03*
Y-65009D02*
D03*
Y-61072D02*
D03*
Y-57135D02*
D03*
Y-53198D02*
D03*
Y-49261D02*
D03*
X52095Y-131939D02*
D03*
Y-128002D02*
D03*
Y-124065D02*
D03*
Y-120128D02*
D03*
Y-116191D02*
D03*
Y-112253D02*
D03*
Y-108317D02*
D03*
Y-104379D02*
D03*
Y-100443D02*
D03*
Y-96505D02*
D03*
Y-92568D02*
D03*
Y-88631D02*
D03*
Y-84694D02*
D03*
Y-80757D02*
D03*
Y-76820D02*
D03*
Y-72883D02*
D03*
Y-68946D02*
D03*
Y-65009D02*
D03*
Y-61072D02*
D03*
Y-57135D02*
D03*
Y-53198D02*
D03*
Y-49261D02*
D03*
X56032Y-131939D02*
D03*
Y-128002D02*
D03*
Y-124065D02*
D03*
Y-120128D02*
D03*
Y-116191D02*
D03*
Y-112253D02*
D03*
Y-108317D02*
D03*
Y-104379D02*
D03*
Y-100443D02*
D03*
Y-96505D02*
D03*
Y-92568D02*
D03*
Y-88631D02*
D03*
Y-84694D02*
D03*
Y-80757D02*
D03*
Y-76820D02*
D03*
Y-72883D02*
D03*
Y-68946D02*
D03*
Y-65009D02*
D03*
Y-61072D02*
D03*
Y-57135D02*
D03*
Y-53198D02*
D03*
Y-49261D02*
D03*
X59969Y-131939D02*
D03*
Y-128002D02*
D03*
Y-124065D02*
D03*
Y-120128D02*
D03*
Y-116191D02*
D03*
Y-112253D02*
D03*
Y-108317D02*
D03*
Y-104379D02*
D03*
Y-100443D02*
D03*
Y-96505D02*
D03*
Y-92568D02*
D03*
Y-88631D02*
D03*
Y-84694D02*
D03*
Y-80757D02*
D03*
Y-76820D02*
D03*
Y-72883D02*
D03*
Y-68946D02*
D03*
Y-65009D02*
D03*
Y-61072D02*
D03*
Y-57135D02*
D03*
Y-53198D02*
D03*
Y-49261D02*
D03*
X63906Y-131939D02*
D03*
Y-128002D02*
D03*
Y-124065D02*
D03*
Y-120128D02*
D03*
Y-116191D02*
D03*
Y-112253D02*
D03*
Y-108317D02*
D03*
Y-104379D02*
D03*
Y-100443D02*
D03*
Y-96505D02*
D03*
Y-92568D02*
D03*
Y-88631D02*
D03*
Y-84694D02*
D03*
Y-80757D02*
D03*
Y-76820D02*
D03*
Y-72883D02*
D03*
Y-68946D02*
D03*
Y-65009D02*
D03*
Y-61072D02*
D03*
Y-57135D02*
D03*
Y-53198D02*
D03*
Y-49261D02*
D03*
X67843Y-131939D02*
D03*
Y-128002D02*
D03*
Y-124065D02*
D03*
Y-120128D02*
D03*
Y-116191D02*
D03*
Y-112253D02*
D03*
Y-108317D02*
D03*
Y-104379D02*
D03*
Y-100443D02*
D03*
Y-96505D02*
D03*
Y-92568D02*
D03*
Y-88631D02*
D03*
Y-84694D02*
D03*
Y-80757D02*
D03*
Y-76820D02*
D03*
Y-72883D02*
D03*
Y-68946D02*
D03*
Y-65009D02*
D03*
Y-61072D02*
D03*
Y-57135D02*
D03*
Y-53198D02*
D03*
Y-49261D02*
D03*
X71780Y-131939D02*
D03*
Y-128002D02*
D03*
Y-124065D02*
D03*
Y-120128D02*
D03*
Y-116191D02*
D03*
Y-112253D02*
D03*
Y-108317D02*
D03*
Y-104379D02*
D03*
Y-100443D02*
D03*
Y-96505D02*
D03*
Y-92568D02*
D03*
Y-88631D02*
D03*
Y-84694D02*
D03*
Y-80757D02*
D03*
Y-76820D02*
D03*
Y-72883D02*
D03*
Y-68946D02*
D03*
Y-65009D02*
D03*
Y-61072D02*
D03*
Y-57135D02*
D03*
Y-53198D02*
D03*
Y-49261D02*
D03*
X75717Y-131939D02*
D03*
Y-128002D02*
D03*
Y-124065D02*
D03*
Y-120128D02*
D03*
Y-116191D02*
D03*
Y-112253D02*
D03*
Y-108317D02*
D03*
Y-104379D02*
D03*
Y-100443D02*
D03*
Y-96505D02*
D03*
Y-92568D02*
D03*
Y-88631D02*
D03*
Y-84694D02*
D03*
Y-80757D02*
D03*
Y-76820D02*
D03*
Y-72883D02*
D03*
Y-68946D02*
D03*
Y-65009D02*
D03*
Y-61072D02*
D03*
Y-57135D02*
D03*
Y-53198D02*
D03*
Y-49261D02*
D03*
X79654Y-131939D02*
D03*
Y-128002D02*
D03*
Y-124065D02*
D03*
Y-120128D02*
D03*
Y-116191D02*
D03*
Y-112253D02*
D03*
Y-108317D02*
D03*
Y-104379D02*
D03*
Y-100443D02*
D03*
Y-96505D02*
D03*
Y-92568D02*
D03*
Y-88631D02*
D03*
Y-84694D02*
D03*
Y-80757D02*
D03*
Y-76820D02*
D03*
Y-72883D02*
D03*
Y-68946D02*
D03*
Y-65009D02*
D03*
Y-61072D02*
D03*
Y-57135D02*
D03*
Y-53198D02*
D03*
Y-49261D02*
D03*
X83591Y-131939D02*
D03*
Y-128002D02*
D03*
Y-124065D02*
D03*
Y-120128D02*
D03*
Y-116191D02*
D03*
Y-112253D02*
D03*
Y-108317D02*
D03*
Y-104379D02*
D03*
Y-100443D02*
D03*
Y-96505D02*
D03*
Y-92568D02*
D03*
Y-88631D02*
D03*
Y-84694D02*
D03*
Y-80757D02*
D03*
Y-76820D02*
D03*
Y-72883D02*
D03*
Y-68946D02*
D03*
Y-65009D02*
D03*
Y-61072D02*
D03*
Y-57135D02*
D03*
Y-53198D02*
D03*
Y-49261D02*
D03*
X87528Y-131939D02*
D03*
Y-128002D02*
D03*
Y-124065D02*
D03*
Y-120128D02*
D03*
Y-116191D02*
D03*
Y-112253D02*
D03*
Y-108317D02*
D03*
Y-104379D02*
D03*
Y-100443D02*
D03*
Y-96505D02*
D03*
Y-92568D02*
D03*
Y-88631D02*
D03*
Y-84694D02*
D03*
Y-80757D02*
D03*
Y-76820D02*
D03*
Y-72883D02*
D03*
Y-68946D02*
D03*
Y-65009D02*
D03*
Y-61072D02*
D03*
Y-57135D02*
D03*
Y-53198D02*
D03*
Y-49261D02*
D03*
X91465Y-131939D02*
D03*
Y-128002D02*
D03*
Y-124065D02*
D03*
Y-120128D02*
D03*
Y-116191D02*
D03*
Y-112253D02*
D03*
Y-108317D02*
D03*
Y-104379D02*
D03*
Y-100443D02*
D03*
Y-96505D02*
D03*
Y-92568D02*
D03*
Y-88631D02*
D03*
Y-84694D02*
D03*
Y-80757D02*
D03*
Y-76820D02*
D03*
Y-72883D02*
D03*
Y-68946D02*
D03*
Y-65009D02*
D03*
Y-61072D02*
D03*
Y-57135D02*
D03*
Y-53198D02*
D03*
Y-49261D02*
D03*
X95402Y-131939D02*
D03*
Y-128002D02*
D03*
Y-124065D02*
D03*
Y-120128D02*
D03*
Y-116191D02*
D03*
Y-112253D02*
D03*
Y-108317D02*
D03*
Y-104379D02*
D03*
Y-100443D02*
D03*
Y-96505D02*
D03*
Y-92568D02*
D03*
Y-88631D02*
D03*
Y-84694D02*
D03*
Y-80757D02*
D03*
Y-76820D02*
D03*
Y-72883D02*
D03*
Y-68946D02*
D03*
Y-65009D02*
D03*
Y-61072D02*
D03*
Y-57135D02*
D03*
Y-53198D02*
D03*
Y-49261D02*
D03*
X99339Y-131939D02*
D03*
Y-128002D02*
D03*
Y-124065D02*
D03*
Y-120128D02*
D03*
Y-116191D02*
D03*
Y-112253D02*
D03*
Y-108317D02*
D03*
Y-104379D02*
D03*
Y-100443D02*
D03*
Y-96505D02*
D03*
Y-92568D02*
D03*
Y-88631D02*
D03*
Y-84694D02*
D03*
Y-80757D02*
D03*
Y-76820D02*
D03*
Y-72883D02*
D03*
Y-68946D02*
D03*
Y-65009D02*
D03*
Y-61072D02*
D03*
Y-57135D02*
D03*
Y-53198D02*
D03*
Y-49261D02*
D03*
D20*
X102753Y-148658D02*
D03*
Y-143342D02*
D03*
X109447Y-148658D02*
D03*
Y-143342D02*
D03*
D21*
X105253Y-34928D02*
D03*
X103284D02*
D03*
X101316D02*
D03*
X99347D02*
D03*
X105253Y-38472D02*
D03*
X103284D02*
D03*
X101316D02*
D03*
X99347D02*
D03*
X104753Y-26528D02*
D03*
X102784D02*
D03*
X100816D02*
D03*
X98847D02*
D03*
X104753Y-30072D02*
D03*
X102784D02*
D03*
X100816D02*
D03*
X98847D02*
D03*
D22*
X91028Y-169547D02*
D03*
Y-171516D02*
D03*
Y-173484D02*
D03*
Y-175453D02*
D03*
X94572Y-169547D02*
D03*
Y-171516D02*
D03*
Y-173484D02*
D03*
Y-175453D02*
D03*
X92872Y-164253D02*
D03*
Y-162284D02*
D03*
Y-160316D02*
D03*
Y-158347D02*
D03*
X89328Y-164253D02*
D03*
Y-162284D02*
D03*
Y-160316D02*
D03*
Y-158347D02*
D03*
X89728Y-147447D02*
D03*
Y-149416D02*
D03*
Y-151384D02*
D03*
Y-153353D02*
D03*
X93272Y-147447D02*
D03*
Y-149416D02*
D03*
Y-151384D02*
D03*
Y-153353D02*
D03*
D23*
X5800Y-175089D02*
D03*
X10800D02*
D03*
X15800D02*
D03*
X20800D02*
D03*
X5800Y-148711D02*
D03*
X10800D02*
D03*
X15800D02*
D03*
X20800D02*
D03*
D24*
X33878Y-33698D02*
D03*
Y-30549D02*
D03*
Y-27399D02*
D03*
Y-14801D02*
D03*
Y-11651D02*
D03*
Y-8502D02*
D03*
X37028Y-33698D02*
D03*
Y-30549D02*
D03*
Y-27399D02*
D03*
Y-14801D02*
D03*
Y-11651D02*
D03*
Y-8502D02*
D03*
X40177Y-33698D02*
D03*
Y-30549D02*
D03*
Y-27399D02*
D03*
Y-14801D02*
D03*
Y-11651D02*
D03*
Y-8502D02*
D03*
X43327Y-33698D02*
D03*
Y-30549D02*
D03*
Y-27399D02*
D03*
Y-14801D02*
D03*
Y-11651D02*
D03*
Y-8502D02*
D03*
X46476Y-33698D02*
D03*
Y-30549D02*
D03*
Y-27399D02*
D03*
Y-14801D02*
D03*
Y-11651D02*
D03*
Y-8502D02*
D03*
X49626Y-33698D02*
D03*
Y-30549D02*
D03*
Y-27399D02*
D03*
Y-14801D02*
D03*
Y-11651D02*
D03*
Y-8502D02*
D03*
X52776Y-33698D02*
D03*
Y-30549D02*
D03*
Y-27399D02*
D03*
Y-14801D02*
D03*
Y-11651D02*
D03*
Y-8502D02*
D03*
X55925Y-33698D02*
D03*
Y-30549D02*
D03*
Y-27399D02*
D03*
Y-14801D02*
D03*
Y-11651D02*
D03*
Y-8502D02*
D03*
X59075Y-33698D02*
D03*
Y-30549D02*
D03*
Y-27399D02*
D03*
Y-14801D02*
D03*
Y-11651D02*
D03*
Y-8502D02*
D03*
X62224Y-33698D02*
D03*
Y-30549D02*
D03*
Y-27399D02*
D03*
Y-14801D02*
D03*
Y-11651D02*
D03*
Y-8502D02*
D03*
X65374Y-33698D02*
D03*
Y-30549D02*
D03*
Y-27399D02*
D03*
Y-14801D02*
D03*
Y-11651D02*
D03*
Y-8502D02*
D03*
X68524Y-33698D02*
D03*
Y-30549D02*
D03*
Y-27399D02*
D03*
Y-14801D02*
D03*
Y-11651D02*
D03*
Y-8502D02*
D03*
X71673Y-33698D02*
D03*
Y-30549D02*
D03*
Y-27399D02*
D03*
Y-14801D02*
D03*
Y-11651D02*
D03*
Y-8502D02*
D03*
X74823Y-33698D02*
D03*
Y-30549D02*
D03*
Y-27399D02*
D03*
Y-14801D02*
D03*
Y-11651D02*
D03*
Y-8502D02*
D03*
X77972Y-33698D02*
D03*
Y-30549D02*
D03*
Y-27399D02*
D03*
Y-14801D02*
D03*
Y-11651D02*
D03*
Y-8502D02*
D03*
X81122Y-33698D02*
D03*
Y-30549D02*
D03*
Y-27399D02*
D03*
Y-14801D02*
D03*
Y-11651D02*
D03*
Y-8502D02*
D03*
X80722Y-146702D02*
D03*
Y-149851D02*
D03*
Y-153001D02*
D03*
Y-165599D02*
D03*
Y-168749D02*
D03*
Y-171898D02*
D03*
X77572Y-146702D02*
D03*
Y-149851D02*
D03*
Y-153001D02*
D03*
Y-165599D02*
D03*
Y-168749D02*
D03*
Y-171898D02*
D03*
X74423Y-146702D02*
D03*
Y-149851D02*
D03*
Y-153001D02*
D03*
Y-165599D02*
D03*
Y-168749D02*
D03*
Y-171898D02*
D03*
X71273Y-146702D02*
D03*
Y-149851D02*
D03*
Y-153001D02*
D03*
Y-165599D02*
D03*
Y-168749D02*
D03*
Y-171898D02*
D03*
X68124Y-146702D02*
D03*
Y-149851D02*
D03*
Y-153001D02*
D03*
Y-165599D02*
D03*
Y-168749D02*
D03*
Y-171898D02*
D03*
X64974Y-146702D02*
D03*
Y-149851D02*
D03*
Y-153001D02*
D03*
Y-165599D02*
D03*
Y-168749D02*
D03*
Y-171898D02*
D03*
X61824Y-146702D02*
D03*
Y-149851D02*
D03*
Y-153001D02*
D03*
Y-165599D02*
D03*
Y-168749D02*
D03*
Y-171898D02*
D03*
X58675Y-146702D02*
D03*
Y-149851D02*
D03*
Y-153001D02*
D03*
Y-165599D02*
D03*
Y-168749D02*
D03*
Y-171898D02*
D03*
X55525Y-146702D02*
D03*
Y-149851D02*
D03*
Y-153001D02*
D03*
Y-165599D02*
D03*
Y-168749D02*
D03*
Y-171898D02*
D03*
X52376Y-146702D02*
D03*
Y-149851D02*
D03*
Y-153001D02*
D03*
Y-165599D02*
D03*
Y-168749D02*
D03*
Y-171898D02*
D03*
X49226Y-146702D02*
D03*
Y-149851D02*
D03*
Y-153001D02*
D03*
Y-165599D02*
D03*
Y-168749D02*
D03*
Y-171898D02*
D03*
X46076Y-146702D02*
D03*
Y-149851D02*
D03*
Y-153001D02*
D03*
Y-165599D02*
D03*
Y-168749D02*
D03*
Y-171898D02*
D03*
X42927Y-146702D02*
D03*
Y-149851D02*
D03*
Y-153001D02*
D03*
Y-165599D02*
D03*
Y-168749D02*
D03*
Y-171898D02*
D03*
X39777Y-146702D02*
D03*
Y-149851D02*
D03*
Y-153001D02*
D03*
Y-165599D02*
D03*
Y-168749D02*
D03*
Y-171898D02*
D03*
X36628Y-146702D02*
D03*
Y-149851D02*
D03*
Y-153001D02*
D03*
Y-165599D02*
D03*
Y-168749D02*
D03*
Y-171898D02*
D03*
X33478Y-146702D02*
D03*
Y-149851D02*
D03*
Y-153001D02*
D03*
Y-165599D02*
D03*
Y-168749D02*
D03*
Y-171898D02*
D03*
D25*
X12702Y-194694D02*
D03*
X15852D02*
D03*
X19001D02*
D03*
X22151D02*
D03*
X25300D02*
D03*
X28450D02*
D03*
X31600D02*
D03*
X34749D02*
D03*
X50497Y-194694D02*
D03*
X53647D02*
D03*
X56796D02*
D03*
X59946D02*
D03*
X63096D02*
D03*
X66245D02*
D03*
X69395D02*
D03*
X72544D02*
D03*
X75694D02*
D03*
X78844D02*
D03*
X81993D02*
D03*
X85143D02*
D03*
X88292D02*
D03*
X91442D02*
D03*
X94592D02*
D03*
X97741D02*
D03*
X100891D02*
D03*
X104041D02*
D03*
D26*
X3635Y-104453D02*
D03*
Y-98547D02*
D03*
X7965Y-104453D02*
D03*
Y-98547D02*
D03*
D27*
X111700Y-119466D02*
D03*
D28*
Y-127439D02*
D03*
D29*
X107763Y-123600D02*
D03*
X115637D02*
D03*
D34*
X11520Y-11427D02*
D03*
X106795D02*
D03*
M02*
