G04 Layer_Color=128*
%FSLAX25Y25*%
%MOIN*%
G70*
G01*
G75*
%ADD10C,0.00500*%
D10*
X6402Y-11427D02*
X16638D01*
X11520Y-16545D02*
Y-6309D01*
X101677Y-11427D02*
X111913D01*
X106795Y-16545D02*
Y-6309D01*
X61400Y-106800D02*
X62400D01*
X61900Y-107300D02*
Y-106300D01*
X26000Y-109800D02*
X27000D01*
X26500Y-110300D02*
Y-109300D01*
X53500Y-110400D02*
X54500D01*
X54000Y-110900D02*
Y-109900D01*
X14200D02*
X15200D01*
X14700Y-110400D02*
Y-109400D01*
X11600Y-114200D02*
X12600D01*
X12100Y-114700D02*
Y-113700D01*
X25800Y-121600D02*
X26800D01*
X26300Y-122100D02*
Y-121100D01*
X94300Y-151300D02*
X95300D01*
X94800Y-151800D02*
Y-150800D01*
X102500Y-175800D02*
X103500D01*
X103000Y-176300D02*
Y-175300D01*
X104400Y-177800D02*
X105400D01*
X104900Y-178300D02*
Y-177300D01*
X2000Y-69200D02*
X3000D01*
X2500Y-69700D02*
Y-68700D01*
X84900Y-148500D02*
X85900D01*
X85400Y-149000D02*
Y-148000D01*
X85000Y-126100D02*
X86000D01*
X85500Y-126600D02*
Y-125600D01*
X98100Y-143800D02*
X99100D01*
X98600Y-144300D02*
Y-143300D01*
X97200Y-146600D02*
X98200D01*
X97700Y-147100D02*
Y-146100D01*
X95864Y-148564D02*
X96864D01*
X96364Y-149064D02*
Y-148064D01*
X99800Y-146800D02*
X100800D01*
X100300Y-147300D02*
Y-146300D01*
X105000Y-143300D02*
X106000D01*
X105500Y-143800D02*
Y-142800D01*
X74200Y-179900D02*
X75200D01*
X74700Y-180400D02*
Y-179400D01*
X72600Y-176500D02*
X73600D01*
X73100Y-177000D02*
Y-176000D01*
X14800Y-48000D02*
X15800D01*
X15300Y-48500D02*
Y-47500D01*
X25676Y-64076D02*
X26676D01*
X26176Y-64576D02*
Y-63576D01*
X26100Y-66400D02*
X27100D01*
X26600Y-66900D02*
Y-65900D01*
X21200Y-45500D02*
X22200D01*
X21700Y-46000D02*
Y-45000D01*
X65700Y-54800D02*
X66700D01*
X66200Y-55300D02*
Y-54300D01*
X57500Y-51230D02*
X58500D01*
X58000Y-51730D02*
Y-50730D01*
X56900Y-40600D02*
X57900D01*
X57400Y-41100D02*
Y-40100D01*
X60867Y-35966D02*
X61867D01*
X61367Y-36466D02*
Y-35466D01*
X63400Y-38100D02*
X64400D01*
X63900Y-38600D02*
Y-37600D01*
X68700Y-39900D02*
X69700D01*
X69200Y-40400D02*
Y-39400D01*
X69300Y-54700D02*
X70300D01*
X69800Y-55200D02*
Y-54200D01*
X69029Y-63323D02*
X70029D01*
X69529Y-63823D02*
Y-62823D01*
X76900Y-70900D02*
X77900D01*
X77400Y-71400D02*
Y-70400D01*
X73500Y-70800D02*
X74500D01*
X74000Y-71300D02*
Y-70300D01*
X81100Y-66900D02*
X82100D01*
X81600Y-67400D02*
Y-66400D01*
X65092Y-75134D02*
X66092D01*
X65592Y-75634D02*
Y-74634D01*
X65000Y-59300D02*
X66000D01*
X65500Y-59800D02*
Y-58800D01*
X77100Y-63500D02*
X78100D01*
X77600Y-64000D02*
Y-63000D01*
X81000Y-59700D02*
X82000D01*
X81500Y-60200D02*
Y-59200D01*
X84777Y-67260D02*
X85777D01*
X85277Y-67760D02*
Y-66760D01*
X80900Y-71700D02*
X81900D01*
X81400Y-72200D02*
Y-71200D01*
X80840Y-75134D02*
X81840D01*
X81340Y-75634D02*
Y-74634D01*
X57815Y-70600D02*
X58815D01*
X58315Y-71100D02*
Y-70100D01*
X53700Y-70800D02*
X54700D01*
X54200Y-71300D02*
Y-70300D01*
X49600D02*
X50600D01*
X50100Y-70800D02*
Y-69800D01*
X49909Y-83008D02*
X50908D01*
X50409Y-83508D02*
Y-82508D01*
X53500Y-82800D02*
X54500D01*
X54000Y-83300D02*
Y-82300D01*
X41800Y-82800D02*
X42800D01*
X42300Y-83300D02*
Y-82300D01*
X88680Y-64064D02*
X89680D01*
X89180Y-64564D02*
Y-63564D01*
X92100Y-59400D02*
X93100D01*
X92600Y-59900D02*
Y-58900D01*
X101600Y-56700D02*
X102600D01*
X102100Y-57200D02*
Y-56200D01*
Y-53300D02*
X103100D01*
X102600Y-53800D02*
Y-52800D01*
X103500Y-48700D02*
X104500D01*
X104000Y-49200D02*
Y-48200D01*
X102900Y-45400D02*
X103900D01*
X103400Y-45900D02*
Y-44900D01*
X76903Y-75134D02*
X77903D01*
X77403Y-75634D02*
Y-74634D01*
X88100Y-59300D02*
X89100D01*
X88600Y-59800D02*
Y-58800D01*
X89200Y-66700D02*
X90200D01*
X89700Y-67200D02*
Y-66200D01*
X103700Y-55000D02*
X104700D01*
X104200Y-55500D02*
Y-54500D01*
X100900Y-62500D02*
X101900D01*
X101400Y-63000D02*
Y-62000D01*
X53200Y-63200D02*
X54200D01*
X53700Y-63700D02*
Y-62700D01*
X48900Y-62600D02*
X49900D01*
X49400Y-63100D02*
Y-62100D01*
X88714Y-75134D02*
X89714D01*
X89214Y-75634D02*
Y-74634D01*
X84777Y-75134D02*
X85777D01*
X85277Y-75634D02*
Y-74634D01*
X45500Y-47600D02*
X46500D01*
X46000Y-48100D02*
Y-47100D01*
X76903Y-79071D02*
X77903D01*
X77403Y-79571D02*
Y-78571D01*
X65456Y-78000D02*
X66456D01*
X65956Y-78500D02*
Y-77500D01*
X66000Y-82672D02*
X67000D01*
X66500Y-83172D02*
Y-82172D01*
X61155Y-86380D02*
X62155D01*
X61655Y-86880D02*
Y-85881D01*
X61300Y-82800D02*
X62300D01*
X61800Y-83300D02*
Y-82300D01*
X37600Y-54900D02*
X38600D01*
X38100Y-55400D02*
Y-54400D01*
X38300Y-59200D02*
X39300D01*
X38800Y-59700D02*
Y-58700D01*
X33500Y-59000D02*
X34500D01*
X34000Y-59500D02*
Y-58500D01*
X29900Y-59100D02*
X30900D01*
X30400Y-59600D02*
Y-58600D01*
X30200Y-63500D02*
X31200D01*
X30700Y-64000D02*
Y-63000D01*
X34300Y-67400D02*
X35300D01*
X34800Y-67900D02*
Y-66900D01*
X34300Y-70900D02*
X35300D01*
X34800Y-71400D02*
Y-70400D01*
X42800Y-37500D02*
X43800D01*
X43300Y-38000D02*
Y-37000D01*
X42000Y-55000D02*
X43000D01*
X42500Y-55500D02*
Y-54500D01*
X41800Y-59300D02*
X42800D01*
X42300Y-59800D02*
Y-58800D01*
X37600Y-51200D02*
X38600D01*
X38100Y-51700D02*
Y-50700D01*
X30600Y-55200D02*
X31600D01*
X31100Y-55700D02*
Y-54700D01*
X30000Y-71300D02*
X31000D01*
X30500Y-71800D02*
Y-70800D01*
X45972Y-86945D02*
X46971D01*
X46472Y-87445D02*
Y-86445D01*
X37600Y-74700D02*
X38600D01*
X38100Y-75200D02*
Y-74200D01*
X49600Y-86500D02*
X50600D01*
X50100Y-87000D02*
Y-86000D01*
X53681Y-78200D02*
X54681D01*
X54181Y-78700D02*
Y-77700D01*
X51283Y-78408D02*
X52283D01*
X51783Y-78908D02*
Y-77908D01*
X46005Y-93500D02*
X47005D01*
X46505Y-94000D02*
Y-93000D01*
X50000Y-101900D02*
X51000D01*
X50500Y-102400D02*
Y-101400D01*
X42200Y-93400D02*
X43200D01*
X42700Y-93900D02*
Y-92900D01*
X34050Y-51317D02*
X35050D01*
X34550Y-51817D02*
Y-50817D01*
X49800Y-67000D02*
X50800D01*
X50300Y-67500D02*
Y-66500D01*
X45700Y-67000D02*
X46700D01*
X46200Y-67500D02*
Y-66500D01*
X38000Y-101800D02*
X39000D01*
X38500Y-102300D02*
Y-101300D01*
X33600Y-106400D02*
X34600D01*
X34100Y-106900D02*
Y-105900D01*
X26200Y-79200D02*
X27200D01*
X26700Y-79700D02*
Y-78700D01*
X26300Y-58700D02*
X27300D01*
X26800Y-59200D02*
Y-58200D01*
X26200Y-83100D02*
X27200D01*
X26700Y-83600D02*
Y-82600D01*
X73300Y-87000D02*
X74300D01*
X73800Y-87500D02*
Y-86500D01*
X10257Y-99252D02*
X11258D01*
X10757Y-99752D02*
Y-98752D01*
X10257Y-104790D02*
X11258D01*
X10757Y-105290D02*
Y-104290D01*
X11200Y-110900D02*
X12200D01*
X11700Y-111400D02*
Y-110400D01*
X12400Y-117500D02*
X13400D01*
X12900Y-118000D02*
Y-117000D01*
X12700Y-120800D02*
X13700D01*
X13200Y-121300D02*
Y-120300D01*
X13500Y-124200D02*
X14500D01*
X14000Y-124700D02*
Y-123700D01*
X11500Y-102800D02*
X12500D01*
X12000Y-103300D02*
Y-102300D01*
X12500Y-105800D02*
X13500D01*
X13000Y-106300D02*
Y-105300D01*
X13875Y-102858D02*
X14875D01*
X14375Y-103358D02*
Y-102358D01*
X14800Y-106300D02*
X15800D01*
X15300Y-106800D02*
Y-105800D01*
X9000Y-95950D02*
X10000D01*
X9500Y-96450D02*
Y-95450D01*
X12500Y-98100D02*
X13500D01*
X13000Y-98600D02*
Y-97600D01*
X11300Y-95500D02*
X12300D01*
X11800Y-96000D02*
Y-95000D01*
X10200Y-116300D02*
X11200D01*
X10700Y-116800D02*
Y-115800D01*
X10600Y-119600D02*
X11600D01*
X11100Y-120100D02*
Y-119100D01*
X14800Y-118200D02*
X15800D01*
X15300Y-118700D02*
Y-117700D01*
X53700Y-106200D02*
X54700D01*
X54200Y-106700D02*
Y-105700D01*
X12400Y-73100D02*
X13400D01*
X12900Y-73600D02*
Y-72600D01*
X17829Y-74446D02*
X18829D01*
X18329Y-74946D02*
Y-73946D01*
X10100Y-73900D02*
X11100D01*
X10600Y-74400D02*
Y-73400D01*
X25900Y-91200D02*
X26900D01*
X26400Y-91700D02*
Y-90700D01*
X25700Y-98600D02*
X26700D01*
X26200Y-99100D02*
Y-98100D01*
X37700Y-114500D02*
X38700D01*
X38200Y-115000D02*
Y-114000D01*
X69600Y-109700D02*
X70600D01*
X70100Y-110200D02*
Y-109200D01*
X77300Y-102300D02*
X78300D01*
X77800Y-102800D02*
Y-101800D01*
X69692Y-98800D02*
X70692D01*
X70192Y-99300D02*
Y-98300D01*
X65237Y-109716D02*
X66237D01*
X65737Y-110216D02*
Y-109216D01*
X14600Y-71100D02*
X15600D01*
X15100Y-71600D02*
Y-70600D01*
X13600Y-78900D02*
X14600D01*
X14100Y-79400D02*
Y-78400D01*
X12700Y-81400D02*
X13700D01*
X13200Y-81900D02*
Y-80900D01*
X13700Y-84900D02*
X14700D01*
X14200Y-85400D02*
Y-84400D01*
X11400Y-85200D02*
X12400D01*
X11900Y-85700D02*
Y-84700D01*
X10300Y-71500D02*
X11300D01*
X10800Y-72000D02*
Y-71000D01*
X10100Y-67400D02*
X11100D01*
X10600Y-67900D02*
Y-66900D01*
X11500Y-69400D02*
X12500D01*
X12000Y-69900D02*
Y-68900D01*
X13700Y-66600D02*
X14700D01*
X14200Y-67100D02*
Y-66100D01*
X73500Y-82700D02*
X74500D01*
X74000Y-83200D02*
Y-82200D01*
X65092Y-86945D02*
X66092D01*
X65592Y-87445D02*
Y-86445D01*
X73230Y-78100D02*
X74230D01*
X73730Y-78600D02*
Y-77600D01*
X61200Y-90300D02*
X62200D01*
X61700Y-90800D02*
Y-89800D01*
X73400Y-90400D02*
X74400D01*
X73900Y-90900D02*
Y-89900D01*
X77000Y-90700D02*
X78000D01*
X77500Y-91200D02*
Y-90200D01*
X77000Y-94400D02*
X78000D01*
X77500Y-94900D02*
Y-93900D01*
X11400Y-88700D02*
X12400D01*
X11900Y-89200D02*
Y-88200D01*
X10600Y-79000D02*
X11600D01*
X11100Y-79500D02*
Y-78500D01*
X14200Y-90600D02*
X15200D01*
X14700Y-91100D02*
Y-90100D01*
X1700Y-116100D02*
X2700D01*
X2200Y-116600D02*
Y-115600D01*
X22200Y-133700D02*
X23200D01*
X22700Y-134200D02*
Y-133200D01*
X19000Y-139000D02*
X20000D01*
X19500Y-139500D02*
Y-138500D01*
X1600Y-112700D02*
X2600D01*
X2100Y-113200D02*
Y-112200D01*
X33600Y-118400D02*
X34600D01*
X34100Y-118900D02*
Y-117900D01*
X37200Y-118200D02*
X38200D01*
X37700Y-118700D02*
Y-117700D01*
X33700Y-122000D02*
X34700D01*
X34200Y-122500D02*
Y-121500D01*
X33900Y-129900D02*
X34900D01*
X34400Y-130400D02*
Y-129400D01*
X42000Y-114483D02*
X43000D01*
X42500Y-114983D02*
Y-113983D01*
X73400Y-110200D02*
X74400D01*
X73900Y-110700D02*
Y-109700D01*
X104000Y-114500D02*
X105000D01*
X104500Y-115000D02*
Y-114000D01*
X73200Y-102200D02*
X74200D01*
X73700Y-102700D02*
Y-101700D01*
X61200Y-110100D02*
X62200D01*
X61700Y-110600D02*
Y-109600D01*
X65500Y-102500D02*
X66500D01*
X66000Y-103000D02*
Y-102000D01*
X92500Y-102600D02*
X93500D01*
X93000Y-103100D02*
Y-102100D01*
X92600Y-106000D02*
X93600D01*
X93100Y-106500D02*
Y-105500D01*
X85100Y-106200D02*
X86100D01*
X85600Y-106700D02*
Y-105700D01*
X104500Y-116900D02*
X105500D01*
X105000Y-117400D02*
Y-116400D01*
X103416Y-80101D02*
X104416D01*
X103916Y-80601D02*
Y-79601D01*
X103400Y-76800D02*
X104400D01*
X103900Y-77300D02*
Y-76300D01*
X103600Y-109600D02*
X104600D01*
X104100Y-110100D02*
Y-109100D01*
X102600Y-106300D02*
X103600D01*
X103100Y-106800D02*
Y-105800D01*
X105000Y-103900D02*
X106000D01*
X105500Y-104400D02*
Y-103400D01*
X84777Y-98191D02*
X85777D01*
X85277Y-98691D02*
Y-97692D01*
X88714Y-98191D02*
X89714D01*
X89214Y-98691D02*
Y-97692D01*
X77400Y-181400D02*
X78400D01*
X77900Y-181900D02*
Y-180900D01*
X92100Y-98100D02*
X93100D01*
X92600Y-98600D02*
Y-97600D01*
X77400Y-179100D02*
X78400D01*
X77900Y-179600D02*
Y-178600D01*
X68800Y-184700D02*
X69800D01*
X69300Y-185200D02*
Y-184200D01*
X36600Y-179400D02*
X37600D01*
X37100Y-179900D02*
Y-178900D01*
X36600Y-177000D02*
X37600D01*
X37100Y-177500D02*
Y-176500D01*
X68800Y-182400D02*
X69800D01*
X69300Y-182900D02*
Y-181900D01*
X53000Y-182600D02*
X54000D01*
X53500Y-183100D02*
Y-182100D01*
X35300Y-175000D02*
X36300D01*
X35800Y-175500D02*
Y-174500D01*
X30200Y-173300D02*
X31200D01*
X30700Y-173800D02*
Y-172800D01*
X65310Y-99116D02*
X66309D01*
X65810Y-99616D02*
Y-98616D01*
X61757Y-94150D02*
X62757D01*
X62257Y-94650D02*
Y-93650D01*
X65100Y-94300D02*
X66100D01*
X65600Y-94800D02*
Y-93800D01*
X77100Y-98700D02*
X78100D01*
X77600Y-99200D02*
Y-98200D01*
X103800Y-58200D02*
X104800D01*
X104300Y-58700D02*
Y-57700D01*
X106100Y-58300D02*
X107100D01*
X106600Y-58800D02*
Y-57800D01*
X110300Y-61200D02*
X111300D01*
X110800Y-61700D02*
Y-60700D01*
X112900Y-61200D02*
X113900D01*
X113400Y-61700D02*
Y-60700D01*
X106800Y-50700D02*
X107800D01*
X107300Y-51200D02*
Y-50200D01*
X109300Y-51700D02*
X110300D01*
X109800Y-52200D02*
Y-51200D01*
X108400Y-54300D02*
X109400D01*
X108900Y-54800D02*
Y-53800D01*
X50800Y-3900D02*
X51800D01*
X51300Y-4400D02*
Y-3400D01*
X53400Y-2600D02*
X54400D01*
X53900Y-3100D02*
Y-2100D01*
X63700Y-5900D02*
X64700D01*
X64200Y-6400D02*
Y-5400D01*
X64400Y-3600D02*
X65400D01*
X64900Y-4100D02*
Y-3100D01*
X68200Y-4400D02*
X69200D01*
X68700Y-4900D02*
Y-3900D01*
X53100Y-5400D02*
X54100D01*
X53600Y-5900D02*
Y-4900D01*
X48000Y-4200D02*
X49000D01*
X48500Y-4700D02*
Y-3700D01*
X43900Y-16800D02*
X44900D01*
X44400Y-17300D02*
Y-16300D01*
X50700Y-17700D02*
X51700D01*
X51200Y-18200D02*
Y-17200D01*
X85000Y-55300D02*
X86000D01*
X85500Y-55800D02*
Y-54800D01*
X88300Y-55167D02*
X89300D01*
X88800Y-55667D02*
Y-54667D01*
X94600Y-44500D02*
X95600D01*
X95100Y-45000D02*
Y-44000D01*
X88714Y-94254D02*
X89714D01*
X89214Y-94754D02*
Y-93755D01*
X45700Y-114200D02*
X46700D01*
X46200Y-114700D02*
Y-113700D01*
X42500Y-125992D02*
X43500D01*
X43000Y-126492D02*
Y-125492D01*
X27100Y-156500D02*
X28100D01*
X27600Y-157000D02*
Y-156000D01*
X78400Y-166900D02*
X79400D01*
X78900Y-167400D02*
Y-166400D01*
X62100Y-182200D02*
X63100D01*
X62600Y-182700D02*
Y-181700D01*
X12900Y-93300D02*
X13900D01*
X13400Y-93800D02*
Y-92800D01*
X13900Y-62050D02*
X14900D01*
X14400Y-62550D02*
Y-61550D01*
X12800Y-58600D02*
X13800D01*
X13300Y-59100D02*
Y-58100D01*
X13500Y-51300D02*
X14500D01*
X14000Y-51800D02*
Y-50800D01*
X29800Y-18400D02*
X30800D01*
X30300Y-18900D02*
Y-17900D01*
X15900Y-44700D02*
X16900D01*
X16400Y-45200D02*
Y-44200D01*
X14200Y-43000D02*
X15200D01*
X14700Y-43500D02*
Y-42500D01*
X12700Y-38100D02*
X13700D01*
X13200Y-38600D02*
Y-37600D01*
X65500Y-114300D02*
X66500D01*
X66000Y-114800D02*
Y-113800D01*
X61400Y-101900D02*
X62400D01*
X61900Y-102400D02*
Y-101400D01*
X26000Y-126800D02*
X27000D01*
X26500Y-127300D02*
Y-126300D01*
X53846Y-86945D02*
X54845D01*
X54346Y-87445D02*
Y-86445D01*
X61300Y-74800D02*
X62300D01*
X61800Y-75300D02*
Y-74300D01*
X61400Y-78100D02*
X62400D01*
X61900Y-78600D02*
Y-77600D01*
X45700Y-55100D02*
X46700D01*
X46200Y-55600D02*
Y-54600D01*
X80986Y-54324D02*
X81986D01*
X81486Y-54824D02*
Y-53824D01*
X18400Y-24900D02*
X19400D01*
X18900Y-25400D02*
Y-24400D01*
X22300Y-13400D02*
X23300D01*
X22800Y-13900D02*
Y-12900D01*
X27100Y-38100D02*
X28100D01*
X27600Y-38600D02*
Y-37600D01*
X88800Y-50400D02*
X89800D01*
X89300Y-50900D02*
Y-49900D01*
X100800Y-79300D02*
X101800D01*
X101300Y-79800D02*
Y-78800D01*
X65400Y-118000D02*
X66400D01*
X65900Y-118500D02*
Y-117500D01*
X57200Y-119100D02*
X58200D01*
X57700Y-119600D02*
Y-118600D01*
X45800Y-118200D02*
X46800D01*
X46300Y-118700D02*
Y-117700D01*
X38522Y-129970D02*
X39522D01*
X39022Y-130470D02*
Y-129470D01*
X33600Y-125900D02*
X34600D01*
X34100Y-126400D02*
Y-125400D01*
X77433Y-158700D02*
X78433D01*
X77933Y-159200D02*
Y-158200D01*
X72348Y-170438D02*
X73348D01*
X72848Y-170938D02*
Y-169938D01*
X80900Y-79100D02*
X81900D01*
X81400Y-79600D02*
Y-78600D01*
X84777Y-83008D02*
X85777D01*
X85277Y-83508D02*
Y-82508D01*
X92900Y-47900D02*
X93900D01*
X93400Y-48400D02*
Y-47400D01*
X95700Y-39000D02*
X96700D01*
X96200Y-39500D02*
Y-38500D01*
X96400Y-35700D02*
X97400D01*
X96900Y-36200D02*
Y-35200D01*
X94000Y-30400D02*
X95000D01*
X94500Y-30900D02*
Y-29900D01*
X94800Y-27000D02*
X95800D01*
X95300Y-27500D02*
Y-26500D01*
X92000Y-40200D02*
X93000D01*
X92500Y-40700D02*
Y-39700D01*
X68800Y-141300D02*
X69800D01*
X69300Y-141800D02*
Y-140800D01*
X74800Y-5900D02*
X75800D01*
X75300Y-6400D02*
Y-5400D01*
X25200Y-188000D02*
X26200D01*
X25700Y-188500D02*
Y-187500D01*
X50000Y-94000D02*
X51000D01*
X50500Y-94500D02*
Y-93500D01*
X26600Y-162100D02*
X27600D01*
X27100Y-162600D02*
Y-161600D01*
X24100Y-164300D02*
X25100D01*
X24600Y-164800D02*
Y-163800D01*
X26700Y-167700D02*
X27700D01*
X27200Y-168200D02*
Y-167200D01*
X20200Y-157200D02*
X21200D01*
X20700Y-157700D02*
Y-156700D01*
X18700Y-153900D02*
X19700D01*
X19200Y-154400D02*
Y-153400D01*
X26100Y-171000D02*
X27100D01*
X26600Y-171500D02*
Y-170500D01*
X24900Y-178672D02*
X25900D01*
X25400Y-179172D02*
Y-178172D01*
X22600Y-178900D02*
X23600D01*
X23100Y-179400D02*
Y-178400D01*
X20300Y-180100D02*
X21300D01*
X20800Y-180600D02*
Y-179600D01*
X36128Y-162772D02*
X37128D01*
X36628Y-163272D02*
Y-162272D01*
X9100Y-62700D02*
X10100D01*
X9600Y-63200D02*
Y-62200D01*
X73600Y-98600D02*
X74600D01*
X74100Y-99100D02*
Y-98100D01*
X53900Y-97300D02*
X54900D01*
X54400Y-97800D02*
Y-96800D01*
X42300Y-98000D02*
X43300D01*
X42800Y-98500D02*
Y-97500D01*
X69100Y-94200D02*
X70100D01*
X69600Y-94700D02*
Y-93700D01*
X45972Y-106065D02*
X46971D01*
X46472Y-106565D02*
Y-105566D01*
X47200Y-170300D02*
X48200D01*
X47700Y-170800D02*
Y-169800D01*
X85200Y-176800D02*
X86200D01*
X85700Y-177300D02*
Y-176300D01*
X84700Y-173400D02*
X85700D01*
X85200Y-173900D02*
Y-172900D01*
X87600Y-167300D02*
X88600D01*
X88100Y-167800D02*
Y-166800D01*
X113000Y-24600D02*
X114000D01*
X113500Y-25100D02*
Y-24100D01*
X42827Y-5527D02*
X43827D01*
X43327Y-6027D02*
Y-5027D01*
X96300Y-188400D02*
X97300D01*
X96800Y-188900D02*
Y-187900D01*
X112800Y-171900D02*
X113800D01*
X113300Y-172400D02*
Y-171400D01*
X49500Y-175000D02*
X50500D01*
X50000Y-175500D02*
Y-174500D01*
X80200Y-5100D02*
X81200D01*
X80700Y-5600D02*
Y-4600D01*
X71500Y-4300D02*
X72500D01*
X72000Y-4800D02*
Y-3800D01*
X44300Y-13100D02*
X45300D01*
X44800Y-13600D02*
Y-12600D01*
X84743Y-64064D02*
X85743D01*
X85243Y-64564D02*
Y-63564D01*
X68700Y-36600D02*
X69700D01*
X69200Y-37100D02*
Y-36100D01*
X115600Y-24800D02*
X116600D01*
X116100Y-25300D02*
Y-24300D01*
X46500Y-140300D02*
X47500D01*
X47000Y-140800D02*
Y-139800D01*
X44000Y-148300D02*
X45000D01*
X44500Y-148800D02*
Y-147800D01*
X44700Y-143700D02*
X45700D01*
X45200Y-144200D02*
Y-143200D01*
X51130Y-141663D02*
X52130D01*
X51630Y-142163D02*
Y-141163D01*
X72900Y-94400D02*
X73900D01*
X73400Y-94900D02*
Y-93900D01*
X100400Y-75100D02*
X101400D01*
X100900Y-75600D02*
Y-74600D01*
X11400Y-185800D02*
X12400D01*
X11900Y-186300D02*
Y-185300D01*
X20100Y-187400D02*
X21100D01*
X20600Y-187900D02*
Y-186900D01*
X90100Y-20868D02*
X91100D01*
X90600Y-21369D02*
Y-20369D01*
X55425Y-5425D02*
X56425D01*
X55925Y-5925D02*
Y-4925D01*
X109800Y-24700D02*
X110800D01*
X110300Y-25200D02*
Y-24200D01*
X73200Y-55100D02*
X74200D01*
X73700Y-55600D02*
Y-54600D01*
X53736Y-13226D02*
X54736D01*
X54236Y-13726D02*
Y-12726D01*
X60200Y-6200D02*
X61200D01*
X60700Y-6700D02*
Y-5700D01*
X58300Y-46600D02*
X59300D01*
X58800Y-47100D02*
Y-46100D01*
X57500Y-62396D02*
X58500D01*
X58000Y-62896D02*
Y-61896D01*
X52276Y-45924D02*
X53276D01*
X52776Y-46424D02*
Y-45424D01*
X57433Y-55100D02*
X58433D01*
X57933Y-55600D02*
Y-54600D01*
X63300Y-32100D02*
X64300D01*
X63800Y-32600D02*
Y-31600D01*
X56900Y-28874D02*
X57900D01*
X57400Y-29374D02*
Y-28374D01*
X55100Y-17300D02*
X56100D01*
X55600Y-17800D02*
Y-16800D01*
X69713Y-32124D02*
X70713D01*
X70213Y-32624D02*
Y-31624D01*
X70400Y-23500D02*
X71400D01*
X70900Y-24000D02*
Y-23000D01*
X65400Y-71500D02*
X66400D01*
X65900Y-72000D02*
Y-71000D01*
X65200Y-47400D02*
X66200D01*
X65700Y-47900D02*
Y-46900D01*
X75900Y-13200D02*
X76900D01*
X76400Y-13700D02*
Y-12700D01*
X69500Y-13210D02*
X70500D01*
X70000Y-13710D02*
Y-12710D01*
X50775Y-28900D02*
X51775D01*
X51275Y-29400D02*
Y-28400D01*
X49533Y-55266D02*
X50533D01*
X50033Y-55766D02*
Y-54766D01*
X26100Y-55200D02*
X27100D01*
X26600Y-55700D02*
Y-54700D01*
X26100Y-51200D02*
X27100D01*
X26600Y-51700D02*
Y-50700D01*
X49600Y-59000D02*
X50600D01*
X50100Y-59500D02*
Y-58500D01*
X41400Y-17800D02*
X42400D01*
X41900Y-18300D02*
Y-17300D01*
X53600Y-51300D02*
X54600D01*
X54100Y-51800D02*
Y-50800D01*
X55800Y-45300D02*
X56800D01*
X56300Y-45800D02*
Y-44800D01*
X53900Y-159000D02*
X54900D01*
X54400Y-159500D02*
Y-158500D01*
X56714Y-167174D02*
X57714D01*
X57214Y-167674D02*
Y-166674D01*
X60082Y-148495D02*
X61082D01*
X60582Y-148995D02*
Y-147995D01*
X71700Y-155200D02*
X72700D01*
X72200Y-155700D02*
Y-154700D01*
X87200Y-138500D02*
X88200D01*
X87700Y-139000D02*
Y-138000D01*
X89900Y-137600D02*
X90900D01*
X90400Y-138100D02*
Y-137100D01*
X83200Y-138300D02*
X84200D01*
X83700Y-138800D02*
Y-137800D01*
X75672Y-148336D02*
X76672D01*
X76172Y-148836D02*
Y-147836D01*
X72400Y-151400D02*
X73400D01*
X72900Y-151900D02*
Y-150900D01*
X81800Y-161800D02*
X82800D01*
X82300Y-162300D02*
Y-161300D01*
X83700Y-167400D02*
X84700D01*
X84200Y-167900D02*
Y-166900D01*
X84300Y-153000D02*
X85300D01*
X84800Y-153500D02*
Y-152500D01*
X96400Y-141700D02*
X97400D01*
X96900Y-142200D02*
Y-141200D01*
X72300Y-148300D02*
X73300D01*
X72800Y-148800D02*
Y-147800D01*
X73700Y-126100D02*
X74700D01*
X74200Y-126600D02*
Y-125600D01*
X77500Y-121800D02*
X78500D01*
X78000Y-122300D02*
Y-121300D01*
X63800Y-136300D02*
X64800D01*
X64300Y-136800D02*
Y-135800D01*
X72900Y-129900D02*
X73900D01*
X73400Y-130400D02*
Y-129400D01*
X78700Y-170300D02*
X79700D01*
X79200Y-170800D02*
Y-169800D01*
X79800Y-157100D02*
X80800D01*
X80300Y-157600D02*
Y-156600D01*
X72400Y-167122D02*
X73400D01*
X72900Y-167622D02*
Y-166622D01*
X59600Y-155500D02*
X60600D01*
X60100Y-156000D02*
Y-155000D01*
X59543Y-151747D02*
X60543D01*
X60043Y-152247D02*
Y-151247D01*
X69400Y-126000D02*
X70400D01*
X69900Y-126500D02*
Y-125500D01*
X64100Y-125700D02*
X65100D01*
X64600Y-126200D02*
Y-125200D01*
X77000Y-126100D02*
X78000D01*
X77500Y-126600D02*
Y-125600D01*
X70000Y-122100D02*
X71000D01*
X70500Y-122600D02*
Y-121600D01*
X73200Y-122500D02*
X74200D01*
X73700Y-123000D02*
Y-122000D01*
X65400D02*
X66400D01*
X65900Y-122500D02*
Y-121500D01*
X24900Y-134600D02*
X25900D01*
X25400Y-135100D02*
Y-134100D01*
X22700Y-136400D02*
X23700D01*
X23200Y-136900D02*
Y-135900D01*
X35064Y-156398D02*
X36064D01*
X35564Y-156898D02*
Y-155898D01*
X29900Y-130000D02*
X30900D01*
X30400Y-130500D02*
Y-129500D01*
X28800Y-134700D02*
X29800D01*
X29300Y-135200D02*
Y-134200D01*
X31100Y-156500D02*
X32100D01*
X31600Y-157000D02*
Y-156000D01*
X31900Y-138800D02*
X32900D01*
X32400Y-139300D02*
Y-138300D01*
X37950Y-151292D02*
X38950D01*
X38450Y-151792D02*
Y-150792D01*
X37200Y-126100D02*
X38200D01*
X37700Y-126600D02*
Y-125600D01*
X47200Y-151300D02*
X48200D01*
X47700Y-151800D02*
Y-150800D01*
X51500Y-162800D02*
X52500D01*
X52000Y-163300D02*
Y-162300D01*
X50000Y-134500D02*
X51000D01*
X50500Y-135000D02*
Y-134000D01*
X49550Y-126100D02*
X50550D01*
X50050Y-126600D02*
Y-125600D01*
X48800Y-162800D02*
X49800D01*
X49300Y-163300D02*
Y-162300D01*
X45000Y-134500D02*
X46000D01*
X45500Y-135000D02*
Y-134000D01*
X44400Y-137200D02*
X45400D01*
X44900Y-137700D02*
Y-136700D01*
X53200Y-167400D02*
X54200D01*
X53700Y-167900D02*
Y-166900D01*
X49100Y-155700D02*
X50100D01*
X49600Y-156200D02*
Y-155200D01*
X55600Y-155800D02*
X56600D01*
X56100Y-156300D02*
Y-155300D01*
X52800Y-137600D02*
X53800D01*
X53300Y-138100D02*
Y-137100D01*
X46700Y-125700D02*
X47700D01*
X47200Y-126200D02*
Y-125200D01*
X53336Y-151426D02*
X54336D01*
X53836Y-151926D02*
Y-150926D01*
X34621Y-151244D02*
X35621D01*
X35121Y-151744D02*
Y-150744D01*
X39600Y-157500D02*
X40600D01*
X40100Y-158000D02*
Y-157000D01*
X42300Y-156000D02*
X43300D01*
X42800Y-156500D02*
Y-155500D01*
X53600Y-126000D02*
X54600D01*
X54100Y-126500D02*
Y-125500D01*
X54800Y-162800D02*
X55800D01*
X55300Y-163300D02*
Y-162300D01*
X61400Y-114300D02*
X62400D01*
X61900Y-114800D02*
Y-113800D01*
X33654Y-135400D02*
X34654D01*
X34154Y-135900D02*
Y-134900D01*
X26000Y-129900D02*
X27000D01*
X26500Y-130400D02*
Y-129400D01*
X37900Y-122100D02*
X38900D01*
X38400Y-122600D02*
Y-121600D01*
X42600Y-162800D02*
X43600D01*
X43100Y-163300D02*
Y-162300D01*
X49700Y-122225D02*
X50700D01*
X50200Y-122725D02*
Y-121725D01*
X45800Y-129967D02*
X46800D01*
X46300Y-130467D02*
Y-129467D01*
X45300Y-162800D02*
X46300D01*
X45800Y-163300D02*
Y-162300D01*
X53600Y-134400D02*
X54600D01*
X54100Y-134900D02*
Y-133900D01*
X53600Y-130000D02*
X54600D01*
X54100Y-130500D02*
Y-129500D01*
X57504Y-122100D02*
X58504D01*
X58004Y-122600D02*
Y-121600D01*
X34500Y-167227D02*
X35500D01*
X35000Y-167727D02*
Y-166727D01*
X40900Y-167200D02*
X41900D01*
X41400Y-167700D02*
Y-166700D01*
X50300Y-167200D02*
X51300D01*
X50800Y-167700D02*
Y-166700D01*
X32978Y-162678D02*
X33978D01*
X33478Y-163178D02*
Y-162178D01*
X39277Y-162723D02*
X40277D01*
X39777Y-163223D02*
Y-162223D01*
X61155Y-121814D02*
X62155D01*
X61655Y-122314D02*
Y-121314D01*
X84777Y-79071D02*
X85777D01*
X85277Y-79571D02*
Y-78571D01*
X74900Y-155700D02*
X75900D01*
X75400Y-156200D02*
Y-155200D01*
X69172Y-167200D02*
X70172D01*
X69672Y-167700D02*
Y-166700D01*
X61100Y-137900D02*
X62100D01*
X61600Y-138400D02*
Y-137400D01*
X61200Y-134200D02*
X62200D01*
X61700Y-134700D02*
Y-133700D01*
X64400Y-159600D02*
X65400D01*
X64900Y-160100D02*
Y-159100D01*
X58175Y-162825D02*
X59175D01*
X58675Y-163325D02*
Y-162325D01*
X64700Y-162900D02*
X65700D01*
X65200Y-163400D02*
Y-162400D01*
X66322Y-166787D02*
X67322D01*
X66822Y-167287D02*
Y-166287D01*
X61400Y-162700D02*
X62400D01*
X61900Y-163200D02*
Y-162200D01*
X60200Y-144300D02*
X61200D01*
X60700Y-144800D02*
Y-143800D01*
X71900Y-162300D02*
X72900D01*
X72400Y-162800D02*
Y-161800D01*
X66200Y-13400D02*
X67200D01*
X66700Y-13900D02*
Y-12900D01*
X57114Y-13226D02*
X58114D01*
X57614Y-13726D02*
Y-12726D01*
X50500Y-13100D02*
X51500D01*
X51000Y-13600D02*
Y-12600D01*
X45700Y-51200D02*
X46700D01*
X46200Y-51700D02*
Y-50700D01*
X47600Y-44800D02*
X48600D01*
X48100Y-45300D02*
Y-44300D01*
X44400Y-32200D02*
X45400D01*
X44900Y-32700D02*
Y-31700D01*
X47525Y-29000D02*
X48525D01*
X48025Y-29500D02*
Y-28500D01*
X45200Y-36500D02*
X46200D01*
X45700Y-37000D02*
Y-36000D01*
X42900Y-46600D02*
X43900D01*
X43400Y-47100D02*
Y-46100D01*
X47400Y-17100D02*
X48400D01*
X47900Y-17600D02*
Y-16600D01*
X35900Y-46100D02*
X36900D01*
X36400Y-46600D02*
Y-45600D01*
X45600Y-59400D02*
X46600D01*
X46100Y-59900D02*
Y-58900D01*
X38000Y-28986D02*
X39000D01*
X38500Y-29486D02*
Y-28486D01*
X41300Y-28900D02*
X42300D01*
X41800Y-29400D02*
Y-28400D01*
X38200Y-13200D02*
X39200D01*
X38700Y-13700D02*
Y-12700D01*
X33900Y-55189D02*
X34900D01*
X34400Y-55689D02*
Y-54689D01*
X30100Y-37700D02*
X31100D01*
X30600Y-38200D02*
Y-37200D01*
X31300Y-46400D02*
X32300D01*
X31800Y-46900D02*
Y-45900D01*
X24700Y-44500D02*
X25700D01*
X25200Y-45000D02*
Y-44000D01*
X26500Y-46700D02*
X27500D01*
X27000Y-47200D02*
Y-46200D01*
Y-26100D02*
X28000D01*
X27500Y-26600D02*
Y-25600D01*
X37100Y-17500D02*
X38100D01*
X37600Y-18000D02*
Y-17000D01*
X33427Y-18499D02*
X34427D01*
X33927Y-18999D02*
Y-17999D01*
X30600Y-20600D02*
X31600D01*
X31100Y-21100D02*
Y-20100D01*
X70521Y-51546D02*
X71521D01*
X71021Y-52046D02*
Y-51046D01*
X77300Y-59200D02*
X78300D01*
X77800Y-59700D02*
Y-58700D01*
X57600Y-59000D02*
X58600D01*
X58100Y-59500D02*
Y-58500D01*
X53600Y-59100D02*
X54600D01*
X54100Y-59600D02*
Y-58600D01*
X53500Y-55200D02*
X54500D01*
X54000Y-55700D02*
Y-54700D01*
X49000Y-37000D02*
X50000D01*
X49500Y-37500D02*
Y-36500D01*
X76000Y-10179D02*
X77000D01*
X76500Y-10679D02*
Y-9679D01*
X74200Y-22400D02*
X75200D01*
X74700Y-22900D02*
Y-21900D01*
X72793Y-13295D02*
X73793D01*
X73293Y-13795D02*
Y-12795D01*
X69300Y-43300D02*
X70300D01*
X69800Y-43800D02*
Y-42800D01*
X72000Y-46200D02*
X73000D01*
X72500Y-46700D02*
Y-45700D01*
X79200Y-37900D02*
X80200D01*
X79700Y-38400D02*
Y-37400D01*
X82100Y-25100D02*
X83100D01*
X82600Y-25600D02*
Y-24600D01*
X78400Y-22700D02*
X79400D01*
X78900Y-23200D02*
Y-22200D01*
X75400Y-24900D02*
X76400D01*
X75900Y-25400D02*
Y-24400D01*
X69372Y-67623D02*
X70372D01*
X69872Y-68123D02*
Y-67123D01*
X61500Y-71200D02*
X62500D01*
X62000Y-71700D02*
Y-70700D01*
X79073Y-13200D02*
X80073D01*
X79573Y-13700D02*
Y-12700D01*
X85600Y-17800D02*
X86600D01*
X86100Y-18300D02*
Y-17300D01*
X84300Y-21700D02*
X85300D01*
X84800Y-22200D02*
Y-21200D01*
X86800Y-13000D02*
X87800D01*
X87300Y-13500D02*
Y-12500D01*
X88500Y-26500D02*
X89500D01*
X89000Y-27000D02*
Y-26000D01*
X53600Y-67015D02*
X54600D01*
X54100Y-67515D02*
Y-66515D01*
X78300Y-41300D02*
X79300D01*
X78800Y-41800D02*
Y-40800D01*
X87200Y-44000D02*
X88200D01*
X87700Y-44500D02*
Y-43500D01*
X85200Y-45800D02*
X86200D01*
X85700Y-46300D02*
Y-45300D01*
X85100Y-41900D02*
X86100D01*
X85600Y-42400D02*
Y-41400D01*
X83600Y-32100D02*
X84600D01*
X84100Y-32600D02*
Y-31600D01*
X107300Y-30500D02*
X108300D01*
X107800Y-31000D02*
Y-30000D01*
X66500Y-29000D02*
X67500D01*
X67000Y-29500D02*
Y-28500D01*
X61500Y-59167D02*
X62500D01*
X62000Y-59667D02*
Y-58667D01*
X61400Y-55100D02*
X62400D01*
X61900Y-55600D02*
Y-54600D01*
X61700Y-17500D02*
X62700D01*
X62200Y-18000D02*
Y-17000D01*
X58500Y-17400D02*
X59500D01*
X59000Y-17900D02*
Y-16900D01*
X55025Y-174425D02*
X56025D01*
X55525Y-174925D02*
Y-173925D01*
X1500Y-139900D02*
X2500D01*
X2000Y-140400D02*
Y-139400D01*
X28400Y-141433D02*
X29400D01*
X28900Y-141933D02*
Y-140933D01*
X10300Y-60400D02*
X11300D01*
X10800Y-60900D02*
Y-59900D01*
X112200Y-36100D02*
X113200D01*
X112700Y-36600D02*
Y-35600D01*
X80300Y-175100D02*
X81300D01*
X80800Y-175600D02*
Y-174600D01*
X65900Y-148500D02*
X66900D01*
X66400Y-149000D02*
Y-148000D01*
X75200Y-162100D02*
X76200D01*
X75700Y-162600D02*
Y-161600D01*
X2200Y-43400D02*
X3200D01*
X2700Y-43900D02*
Y-42900D01*
X4500Y-25600D02*
X5500D01*
X5000Y-26100D02*
Y-25100D01*
X7000Y-25200D02*
X8000D01*
X7500Y-25700D02*
Y-24700D01*
X28600Y-4000D02*
X29600D01*
X29100Y-4500D02*
Y-3500D01*
X108700Y-40900D02*
X109700D01*
X109200Y-41400D02*
Y-40400D01*
X92200Y-3100D02*
X93200D01*
X92700Y-3600D02*
Y-2600D01*
X6300Y-37300D02*
X7300D01*
X6800Y-37800D02*
Y-36800D01*
X10500Y-56200D02*
X11500D01*
X11000Y-56700D02*
Y-55700D01*
X36800Y-5600D02*
X37800D01*
X37300Y-6100D02*
Y-5100D01*
X32000Y-5700D02*
X33000D01*
X32500Y-6200D02*
Y-5200D01*
X90400Y-15800D02*
X91400D01*
X90900Y-16300D02*
Y-15300D01*
X1900Y-86800D02*
X2900D01*
X2400Y-87300D02*
Y-86300D01*
X1500Y-142200D02*
X2500D01*
X2000Y-142700D02*
Y-141700D01*
X6500Y-181400D02*
X7500D01*
X7000Y-181900D02*
Y-180900D01*
X14800Y-170000D02*
X15800D01*
X15300Y-170500D02*
Y-169500D01*
X9000Y-52800D02*
X10000D01*
X9500Y-53300D02*
Y-52300D01*
X8347Y-55100D02*
X9347D01*
X8847Y-55600D02*
Y-54600D01*
X18600Y-50700D02*
X19600D01*
X19100Y-51200D02*
Y-50200D01*
X107400Y-28000D02*
X108400D01*
X107900Y-28500D02*
Y-27500D01*
X28900Y-30500D02*
X29900D01*
X29400Y-31000D02*
Y-30000D01*
X26300Y-30600D02*
X27300D01*
X26800Y-31100D02*
Y-30100D01*
X57500Y-125900D02*
X58500D01*
X58000Y-126400D02*
Y-125400D01*
X72577Y-145050D02*
X73577D01*
X73077Y-145550D02*
Y-144550D01*
X13700Y-188400D02*
X14700D01*
X14200Y-188900D02*
Y-187900D01*
X16800D02*
X17800D01*
X17300Y-188400D02*
Y-187400D01*
X34200Y-188200D02*
X35200D01*
X34700Y-188700D02*
Y-187700D01*
X63100Y-170200D02*
X64100D01*
X63600Y-170700D02*
Y-169700D01*
X47000Y-175700D02*
X48000D01*
X47500Y-176200D02*
Y-175200D01*
X69400Y-175000D02*
X70400D01*
X69900Y-175500D02*
Y-174500D01*
X59800Y-170300D02*
X60800D01*
X60300Y-170800D02*
Y-169800D01*
X65500Y-175200D02*
X66500D01*
X66000Y-175700D02*
Y-174700D01*
X61324Y-174376D02*
X62324D01*
X61824Y-174876D02*
Y-173876D01*
X71700Y-180600D02*
X72700D01*
X72200Y-181100D02*
Y-180100D01*
X40300Y-174800D02*
X41300D01*
X40800Y-175300D02*
Y-174300D01*
X43900Y-170300D02*
X44900D01*
X44400Y-170800D02*
Y-169800D01*
X17900Y-144600D02*
X18900D01*
X18400Y-145100D02*
Y-144100D01*
X23100Y-185900D02*
X24100D01*
X23600Y-186400D02*
Y-185400D01*
X29800Y-167800D02*
X30800D01*
X30300Y-168300D02*
Y-167300D01*
X89000Y-82800D02*
X90000D01*
X89500Y-83300D02*
Y-82300D01*
X9200Y-40000D02*
X10200D01*
X9700Y-40500D02*
Y-39500D01*
X10400Y-64700D02*
X11400D01*
X10900Y-65200D02*
Y-64200D01*
X2700Y-179400D02*
X3700D01*
X3200Y-179900D02*
Y-178900D01*
X15900Y-180300D02*
X16900D01*
X16400Y-180800D02*
Y-179800D01*
X101700Y-67000D02*
X102700D01*
X102200Y-67500D02*
Y-66500D01*
X108600Y-80400D02*
X109600D01*
X109100Y-80900D02*
Y-79900D01*
X110653Y-81600D02*
X111653D01*
X111153Y-82100D02*
Y-81100D01*
X89250Y-86900D02*
X90250D01*
X89750Y-87400D02*
Y-86400D01*
X108200Y-110700D02*
X109200D01*
X108700Y-111200D02*
Y-110200D01*
X100700Y-113700D02*
X101700D01*
X101200Y-114200D02*
Y-113200D01*
X34200Y-63100D02*
X35200D01*
X34700Y-63600D02*
Y-62600D01*
X45500Y-63200D02*
X46500D01*
X46000Y-63700D02*
Y-62700D01*
X42100Y-63000D02*
X43100D01*
X42600Y-63500D02*
Y-62500D01*
X42035Y-71197D02*
X43034D01*
X42535Y-71697D02*
Y-70697D01*
X45800Y-98100D02*
X46800D01*
X46300Y-98600D02*
Y-97600D01*
X29900Y-98400D02*
X30900D01*
X30400Y-98900D02*
Y-97900D01*
X38600Y-70900D02*
X39600D01*
X39100Y-71400D02*
Y-70400D01*
X12046Y-77154D02*
X13046D01*
X12546Y-77654D02*
Y-76654D01*
X41400Y-73700D02*
X42400D01*
X41900Y-74200D02*
Y-73200D01*
X45972Y-75134D02*
X46971D01*
X46472Y-75634D02*
Y-74634D01*
X53846Y-75134D02*
X54845D01*
X54346Y-75634D02*
Y-74634D01*
X49700Y-74900D02*
X50700D01*
X50200Y-75400D02*
Y-74400D01*
X45500Y-70300D02*
X46500D01*
X46000Y-70800D02*
Y-69800D01*
X13800Y-128600D02*
X14800D01*
X14300Y-129100D02*
Y-128100D01*
X13500Y-131900D02*
X14500D01*
X14000Y-132400D02*
Y-131400D01*
X29900Y-122200D02*
X30900D01*
X30400Y-122700D02*
Y-121700D01*
X26000Y-114400D02*
X27000D01*
X26500Y-114900D02*
Y-113900D01*
X26000Y-106500D02*
X27000D01*
X26500Y-107000D02*
Y-106000D01*
X14900Y-94600D02*
X15900D01*
X15400Y-95100D02*
Y-94100D01*
X69300Y-87400D02*
X70300D01*
X69800Y-87900D02*
Y-86900D01*
X33800Y-86500D02*
X34800D01*
X34300Y-87000D02*
Y-86000D01*
X33900Y-90600D02*
X34900D01*
X34400Y-91100D02*
Y-90100D01*
X13869Y-29331D02*
X14868D01*
X14368Y-29831D02*
Y-28831D01*
X9932Y-29331D02*
X10932D01*
X10431Y-29831D02*
Y-28831D01*
X13869Y-33268D02*
X14868D01*
X14368Y-33768D02*
Y-32768D01*
X9932Y-33268D02*
X10932D01*
X10431Y-33768D02*
Y-32768D01*
X9968Y-164868D02*
X10968D01*
X10469Y-165368D02*
Y-164368D01*
X9968Y-160932D02*
X10968D01*
X10469Y-161432D02*
Y-160432D01*
X6032Y-164868D02*
X7032D01*
X6532Y-165368D02*
Y-164368D01*
X6032Y-160932D02*
X7032D01*
X6532Y-161432D02*
Y-160432D01*
X107600Y-76700D02*
X108600D01*
X108100Y-77200D02*
Y-76200D01*
X111500Y-73300D02*
X112500D01*
X112000Y-73800D02*
Y-72800D01*
X80350Y-86016D02*
X81350D01*
X80850Y-86516D02*
Y-85516D01*
X108000Y-116100D02*
X109000D01*
X108500Y-116600D02*
Y-115600D01*
X102400Y-159500D02*
X103400D01*
X102900Y-160000D02*
Y-159000D01*
X107283Y-159541D02*
X108283D01*
X107783Y-160041D02*
Y-159041D01*
X114800Y-180200D02*
X115800D01*
X115300Y-180700D02*
Y-179700D01*
X103482Y-184282D02*
X104482D01*
X103982Y-184782D02*
Y-183782D01*
X110300Y-157500D02*
X111300D01*
X110800Y-158000D02*
Y-157000D01*
X23500Y-3700D02*
X24500D01*
X24000Y-4200D02*
Y-3200D01*
X77400Y-3800D02*
X78400D01*
X77900Y-4300D02*
Y-3300D01*
X1400Y-56300D02*
X2400D01*
X1900Y-56800D02*
Y-55800D01*
X1400Y-24000D02*
X2400D01*
X1900Y-24500D02*
Y-23500D01*
X4400Y-62200D02*
X5400D01*
X4900Y-62700D02*
Y-61700D01*
X4700Y-51000D02*
X5700D01*
X5200Y-51500D02*
Y-50500D01*
X48600Y-188200D02*
X49600D01*
X49100Y-188700D02*
Y-187700D01*
X110000Y-159900D02*
X111000D01*
X110500Y-160400D02*
Y-159400D01*
X91800Y-36700D02*
X92800D01*
X92300Y-37200D02*
Y-36200D01*
X111831Y-69169D02*
X112831D01*
X112331Y-69669D02*
Y-68669D01*
X5100Y-31500D02*
X6100D01*
X5600Y-32000D02*
Y-31000D01*
X1696Y-158100D02*
X2696D01*
X2196Y-158600D02*
Y-157600D01*
X106500Y-64600D02*
X107500D01*
X107000Y-65100D02*
Y-64100D01*
X5032Y-155168D02*
X6032D01*
X5531Y-155668D02*
Y-154668D01*
X4500Y-33968D02*
X5500D01*
X5000Y-34468D02*
Y-33468D01*
X3987Y-29316D02*
X4987D01*
X4487Y-29816D02*
Y-28816D01*
X1396Y-32245D02*
X2396D01*
X1896Y-32745D02*
Y-31745D01*
X102431Y-170069D02*
X103431D01*
X102931Y-170569D02*
Y-169569D01*
X107239Y-179014D02*
X108239D01*
X107739Y-179514D02*
Y-178514D01*
X106369Y-166131D02*
X107369D01*
X106869Y-166631D02*
Y-165631D01*
X106369Y-170069D02*
X107369D01*
X106869Y-170569D02*
Y-169569D01*
X102431Y-166131D02*
X103431D01*
X102931Y-166631D02*
Y-165631D01*
X111400Y-180400D02*
X112400D01*
X111900Y-180900D02*
Y-179900D01*
X105300Y-187400D02*
X106300D01*
X105800Y-187900D02*
Y-186900D01*
X2700Y-155637D02*
X3700D01*
X3200Y-156137D02*
Y-155137D01*
X8063Y-154429D02*
X9063D01*
X8563Y-154929D02*
Y-153929D01*
X17808Y-148236D02*
X18808D01*
X18308Y-148736D02*
Y-147736D01*
X17808Y-150598D02*
X18808D01*
X18308Y-151098D02*
Y-150098D01*
X57478Y-67000D02*
X58478D01*
X57978Y-67500D02*
Y-66500D01*
X115300Y-36200D02*
X116300D01*
X115800Y-36700D02*
Y-35700D01*
X50000Y-117400D02*
X51000D01*
X50500Y-117900D02*
Y-116900D01*
X50100Y-114000D02*
X51100D01*
X50600Y-114500D02*
Y-113500D01*
X33900Y-97900D02*
X34900D01*
X34400Y-98400D02*
Y-97400D01*
X13600Y-24900D02*
X14600D01*
X14100Y-25400D02*
Y-24400D01*
X14800Y-23100D02*
X15800D01*
X15300Y-23600D02*
Y-22600D01*
X44400Y-10100D02*
X45400D01*
X44900Y-10600D02*
Y-9600D01*
X41342Y-10100D02*
X42342D01*
X41842Y-10600D02*
Y-9600D01*
X47600Y-6500D02*
X48600D01*
X48100Y-7000D02*
Y-6000D01*
X24900Y-21900D02*
X25900D01*
X25400Y-22400D02*
Y-21400D01*
X101600Y-85100D02*
X102600D01*
X102100Y-85600D02*
Y-84600D01*
X101400Y-90400D02*
X102400D01*
X101900Y-90900D02*
Y-89900D01*
X104100Y-90900D02*
X105100D01*
X104600Y-91400D02*
Y-90400D01*
X110400Y-94900D02*
X111400D01*
X110900Y-95400D02*
Y-94400D01*
X111700Y-84000D02*
X112700D01*
X112200Y-84500D02*
Y-83500D01*
X108100Y-95700D02*
X109100D01*
X108600Y-96200D02*
Y-95200D01*
X107800Y-91100D02*
X108800D01*
X108300Y-91600D02*
Y-90600D01*
X103300Y-139600D02*
X104300D01*
X103800Y-140100D02*
Y-139100D01*
X69029Y-117877D02*
X70029D01*
X69529Y-118377D02*
Y-117376D01*
X69029Y-102129D02*
X70029D01*
X69529Y-102629D02*
Y-101628D01*
X69200Y-114300D02*
X70200D01*
X69700Y-114800D02*
Y-113800D01*
X73300Y-106400D02*
X74300D01*
X73800Y-106900D02*
Y-105900D01*
X69336Y-106728D02*
X70336D01*
X69836Y-107229D02*
Y-106228D01*
X73350Y-117684D02*
X74350D01*
X73850Y-118184D02*
Y-117184D01*
X100900Y-139600D02*
X101900D01*
X101400Y-140100D02*
Y-139100D01*
X105700Y-129647D02*
X106700D01*
X106200Y-130147D02*
Y-129147D01*
X107600Y-127300D02*
X108600D01*
X108100Y-127800D02*
Y-126800D01*
X88800Y-118100D02*
X89800D01*
X89300Y-118600D02*
Y-117600D01*
X84800Y-121800D02*
X85800D01*
X85300Y-122300D02*
Y-121300D01*
X89100Y-121500D02*
X90100D01*
X89600Y-122000D02*
Y-121000D01*
X92543Y-113905D02*
X93543D01*
X93043Y-114405D02*
Y-113405D01*
X80600Y-102400D02*
X81600D01*
X81100Y-102900D02*
Y-101900D01*
X80840Y-106065D02*
X81840D01*
X81340Y-106565D02*
Y-105566D01*
X84500Y-110400D02*
X85500D01*
X85000Y-110900D02*
Y-109900D01*
X88714Y-102129D02*
X89714D01*
X89214Y-102629D02*
Y-101628D01*
X88700Y-130200D02*
X89700D01*
X89200Y-130700D02*
Y-129700D01*
X105300Y-127347D02*
X106300D01*
X105800Y-127847D02*
Y-126847D01*
X104600Y-123000D02*
X105600D01*
X105100Y-123500D02*
Y-122500D01*
X92600Y-122900D02*
X93600D01*
X93100Y-123400D02*
Y-122400D01*
X92300Y-118300D02*
X93300D01*
X92800Y-118800D02*
Y-117800D01*
X85000Y-129900D02*
X86000D01*
X85500Y-130400D02*
Y-129400D01*
X104700Y-119200D02*
X105700D01*
X105200Y-119700D02*
Y-118700D01*
X101200Y-117500D02*
X102200D01*
X101700Y-118000D02*
Y-117000D01*
X89100Y-125800D02*
X90100D01*
X89600Y-126300D02*
Y-125300D01*
X81000Y-126300D02*
X82000D01*
X81500Y-126800D02*
Y-125800D01*
X77600Y-129900D02*
X78600D01*
X78100Y-130400D02*
Y-129400D01*
X80840Y-121814D02*
X81840D01*
X81340Y-122314D02*
Y-121314D01*
X77000Y-117700D02*
X78000D01*
X77500Y-118200D02*
Y-117200D01*
X80800Y-117400D02*
X81800D01*
X81300Y-117900D02*
Y-116900D01*
X88900Y-110500D02*
X89900D01*
X89400Y-111000D02*
Y-110000D01*
X89200Y-113900D02*
X90200D01*
X89700Y-114400D02*
Y-113400D01*
X73800Y-114100D02*
X74800D01*
X74300Y-114600D02*
Y-113600D01*
X76990Y-107250D02*
X77990D01*
X77490Y-107750D02*
Y-106750D01*
X77000Y-110200D02*
X78000D01*
X77500Y-110700D02*
Y-109700D01*
X86771Y-114538D02*
X87771D01*
X87271Y-115038D02*
Y-114038D01*
X104450Y-72900D02*
X105450D01*
X104950Y-73400D02*
Y-72400D01*
X105500Y-69600D02*
X106500D01*
X106000Y-70100D02*
Y-69100D01*
X113800Y-91000D02*
X114800D01*
X114300Y-91500D02*
Y-90500D01*
X104400Y-96700D02*
X105400D01*
X104900Y-97200D02*
Y-96200D01*
X109100Y-98000D02*
X110100D01*
X109600Y-98500D02*
Y-97500D01*
X106400Y-88000D02*
X107400D01*
X106900Y-88500D02*
Y-87500D01*
X104700Y-86400D02*
X105700D01*
X105200Y-86900D02*
Y-85900D01*
X110500Y-91400D02*
X111500D01*
X111000Y-91900D02*
Y-90900D01*
X113600Y-102900D02*
X114600D01*
X114100Y-103400D02*
Y-102400D01*
X111000Y-102800D02*
X112000D01*
X111500Y-103300D02*
Y-102300D01*
X102253Y-123000D02*
X103253D01*
X102753Y-123500D02*
Y-122500D01*
X98500Y-139400D02*
X99500D01*
X99000Y-139900D02*
Y-138900D01*
X99100Y-133900D02*
X100100D01*
X99600Y-134400D02*
Y-133400D01*
X101700Y-130300D02*
X102700D01*
X102200Y-130800D02*
Y-129800D01*
X103300Y-128600D02*
X104300D01*
X103800Y-129100D02*
Y-128100D01*
X104300Y-131500D02*
X105300D01*
X104800Y-132000D02*
Y-131000D01*
X108000Y-131100D02*
X109000D01*
X108500Y-131600D02*
Y-130600D01*
X112900Y-169400D02*
X113900D01*
X113400Y-169900D02*
Y-168900D01*
X114300Y-160200D02*
X115300D01*
X114800Y-160700D02*
Y-159700D01*
X114600Y-157500D02*
X115600D01*
X115100Y-158000D02*
Y-157000D01*
X113700Y-154400D02*
X114700D01*
X114200Y-154900D02*
Y-153900D01*
X115900Y-151900D02*
X116900D01*
X116400Y-152400D02*
Y-151400D01*
X84600Y-117400D02*
X85600D01*
X85100Y-117900D02*
Y-116900D01*
X80900Y-110500D02*
X81900D01*
X81400Y-111000D02*
Y-110000D01*
X81000Y-114100D02*
X82000D01*
X81500Y-114600D02*
Y-113600D01*
M02*
