G04 Layer_Physical_Order=8*
G04 Layer_Color=16711680*
%FSLAX25Y25*%
%MOIN*%
G70*
G01*
G75*
%ADD10C,0.00500*%
%ADD11C,0.01000*%
%ADD12R,0.01969X0.02362*%
%ADD13R,0.02362X0.01969*%
%ADD14R,0.03150X0.03543*%
%ADD15R,0.03543X0.03150*%
%ADD21R,0.01378X0.01378*%
%ADD22R,0.01378X0.01378*%
%ADD25R,0.02362X0.09843*%
%ADD30C,0.00600*%
%ADD31C,0.00800*%
%ADD32C,0.01200*%
%ADD33C,0.02000*%
%ADD34R,0.19685X0.19685*%
%ADD35C,0.01800*%
%ADD37R,0.02165X0.01378*%
%ADD38R,0.06378X0.09646*%
%ADD39R,0.05512X0.04331*%
%ADD40R,0.05512X0.07480*%
%ADD41R,0.05276X0.07874*%
%ADD42R,0.05510X0.07480*%
%ADD43R,0.03150X0.05906*%
%ADD44R,0.03937X0.04528*%
%ADD45R,0.09646X0.06378*%
%ADD46R,0.01378X0.02165*%
%ADD47R,0.05118X0.01181*%
%ADD48R,0.08661X0.07087*%
%ADD49C,0.02400*%
G36*
X13935Y-161300D02*
X13994Y-161593D01*
X14159Y-161841D01*
X14959Y-162641D01*
X15207Y-162806D01*
X15500Y-162865D01*
X16616D01*
Y-163813D01*
X19584D01*
Y-163466D01*
X20071Y-163169D01*
X20316Y-163311D01*
Y-163813D01*
X22875D01*
X23193Y-164199D01*
X23173Y-164300D01*
X23281Y-164846D01*
X23591Y-165309D01*
X24054Y-165619D01*
X24600Y-165727D01*
X24803Y-165894D01*
Y-169843D01*
X24353Y-170236D01*
X23349D01*
X19584Y-166471D01*
Y-164387D01*
X16616D01*
Y-167185D01*
X13626D01*
Y-166376D01*
X9191D01*
X9163Y-166358D01*
X8500Y-166226D01*
X7837Y-166358D01*
X7809Y-166376D01*
X3374D01*
Y-167194D01*
X3041D01*
X2748Y-167253D01*
X2500Y-167418D01*
X1659Y-168259D01*
X1514Y-168477D01*
X1477Y-168483D01*
X1014Y-168226D01*
Y-160531D01*
X13935D01*
Y-161300D01*
D02*
G37*
G36*
X18535Y-169283D02*
Y-169600D01*
X18535Y-169600D01*
Y-171150D01*
X17816D01*
Y-174513D01*
X20784D01*
Y-173596D01*
X21616D01*
Y-174513D01*
X24584D01*
X24635Y-174992D01*
Y-177499D01*
X24391Y-177663D01*
X24081Y-178126D01*
X23973Y-178672D01*
X24081Y-179219D01*
X24391Y-179682D01*
X24803Y-179957D01*
Y-182662D01*
X22173D01*
X22096Y-182677D01*
X1014D01*
Y-178250D01*
X1680D01*
Y-178900D01*
X1758Y-179290D01*
X1786Y-179332D01*
X1773Y-179400D01*
X1881Y-179946D01*
X2191Y-180409D01*
X2654Y-180719D01*
X3200Y-180827D01*
X3746Y-180719D01*
X4209Y-180409D01*
X4519Y-179946D01*
X4627Y-179400D01*
X4519Y-178854D01*
X4209Y-178391D01*
X3746Y-178081D01*
X3720Y-178076D01*
Y-176069D01*
X3856Y-175932D01*
X4584D01*
X4974Y-175855D01*
X5028Y-175819D01*
X8572D01*
Y-175819D01*
X8628Y-175810D01*
X9128Y-175819D01*
Y-175819D01*
X13672D01*
Y-171669D01*
X12783D01*
X12481Y-171219D01*
X11841Y-170578D01*
X11877Y-170395D01*
Y-169542D01*
X13626D01*
Y-168715D01*
X17967D01*
X18535Y-169283D01*
D02*
G37*
G36*
X24391Y-22909D02*
X24854Y-23219D01*
X24938Y-23235D01*
X26151Y-24449D01*
X26351Y-24582D01*
X26447Y-24933D01*
X26446Y-25157D01*
X26181Y-25554D01*
X26073Y-26100D01*
X26151Y-26495D01*
X25857Y-26892D01*
X25800Y-26935D01*
X20700D01*
X20407Y-26994D01*
X20159Y-27159D01*
X19459Y-27859D01*
X19294Y-28107D01*
X19235Y-28400D01*
Y-31660D01*
X19042Y-32079D01*
X16089D01*
Y-25977D01*
X16000D01*
Y-22741D01*
X16100Y-22700D01*
X24251D01*
X24391Y-22909D01*
D02*
G37*
G36*
X25008Y-148300D02*
X24425Y-148883D01*
X20274D01*
Y-152332D01*
X19774Y-152600D01*
X19746Y-152581D01*
X19200Y-152473D01*
X18654Y-152581D01*
X18191Y-152891D01*
X17881Y-153354D01*
X17773Y-153900D01*
X17881Y-154446D01*
X18191Y-154909D01*
X18654Y-155219D01*
X19200Y-155327D01*
X19746Y-155219D01*
X20209Y-154909D01*
X20519Y-154446D01*
X20526Y-154410D01*
X24685D01*
Y-160200D01*
X20499D01*
Y-158734D01*
X20441Y-158442D01*
X20275Y-158194D01*
X19941Y-157859D01*
X19713Y-157707D01*
Y-156916D01*
X17564D01*
X16921Y-156273D01*
X16791Y-156078D01*
X15572Y-154859D01*
X15324Y-154693D01*
X15032Y-154635D01*
X11000D01*
X10707Y-154693D01*
X10459Y-154859D01*
X9759Y-155559D01*
X9594Y-155807D01*
X9535Y-156100D01*
Y-156258D01*
X9279D01*
Y-159211D01*
X3177D01*
Y-159716D01*
X1014D01*
Y-147800D01*
X24800D01*
X25008Y-148300D01*
D02*
G37*
%LPC*%
G36*
X20784Y-175087D02*
X17816D01*
Y-175422D01*
X17384Y-175587D01*
X17316Y-175587D01*
X14416D01*
Y-178950D01*
X14479D01*
Y-179500D01*
X14479Y-179500D01*
X14564Y-179929D01*
X14807Y-180293D01*
X15012Y-180498D01*
X15081Y-180846D01*
X15391Y-181309D01*
X15854Y-181619D01*
X16400Y-181727D01*
X16946Y-181619D01*
X17409Y-181309D01*
X17719Y-180846D01*
X17827Y-180300D01*
X17719Y-179754D01*
X17487Y-179407D01*
X17394Y-178993D01*
X17685Y-178575D01*
X18149Y-178771D01*
X18178Y-178900D01*
X18264Y-179329D01*
X18507Y-179693D01*
X19524Y-180710D01*
X19791Y-181109D01*
X20254Y-181419D01*
X20800Y-181527D01*
X21346Y-181419D01*
X21809Y-181109D01*
X22119Y-180646D01*
X22227Y-180100D01*
X22119Y-179554D01*
X21809Y-179091D01*
X21346Y-178781D01*
X21162Y-178745D01*
X20793Y-178456D01*
X20784Y-178198D01*
Y-175087D01*
D02*
G37*
%LPD*%
D10*
X94774Y-98794D02*
G03*
X94566Y-98819I0J-890D01*
G01*
X47168Y-120575D02*
X53475D01*
X98000Y-151000D02*
X98769Y-150232D01*
X98000Y-151000D02*
Y-150932D01*
X112169Y-174400D02*
Y-173568D01*
Y-177400D02*
Y-174400D01*
X112268Y-174300D01*
X111759Y-173159D02*
X112169Y-173568D01*
X115300Y-174531D02*
Y-167500D01*
X108837Y-173159D02*
X111759D01*
X112268Y-174300D02*
X115000D01*
X88468Y-171416D02*
X89228D01*
X87002Y-169950D02*
X88468Y-171416D01*
X87889Y-172575D02*
Y-172342D01*
X84598Y-169050D02*
X87889Y-172342D01*
X82600Y-169050D02*
X84598D01*
X86450Y-167983D02*
X87950Y-169484D01*
X89192D02*
X89228Y-169447D01*
X87950Y-169484D02*
X89192D01*
X77855Y-164500D02*
X84281D01*
X86450Y-166669D01*
X86889Y-173723D02*
Y-172756D01*
X85633Y-171500D02*
X86889Y-172756D01*
X82900Y-171500D02*
X85633D01*
X86889Y-173723D02*
X88366Y-175200D01*
X84452Y-167400D02*
X85450Y-168398D01*
X84200Y-167400D02*
X84628D01*
X84200D02*
X84452D01*
X106700Y-58500D02*
X107000Y-58800D01*
X101867Y-59220D02*
X103900Y-61252D01*
X106800Y-59000D02*
X107000Y-58800D01*
X106800Y-60600D02*
Y-59000D01*
X106148Y-61252D02*
X106800Y-60600D01*
X103900Y-61252D02*
X106148D01*
X109114Y-61300D02*
X110800D01*
X107514Y-62900D02*
X109114Y-61300D01*
X103800Y-62900D02*
X107514D01*
X106700Y-58500D02*
Y-58400D01*
X106600D02*
X106700Y-58500D01*
X103050Y-62150D02*
X103800Y-62900D01*
X103050Y-62150D02*
Y-61817D01*
X102084Y-60850D02*
X103050Y-61817D01*
X100716Y-60850D02*
X102084D01*
X96902Y-59220D02*
X101867D01*
X100378Y-61188D02*
X100716Y-60850D01*
X26400Y-109400D02*
X26500Y-109500D01*
X25999Y-109801D02*
X26400Y-109400D01*
X26500Y-109800D02*
Y-109500D01*
X21398Y-109801D02*
X25999D01*
X14700Y-109900D02*
X16569Y-111769D01*
X21398D01*
X98000Y-152437D02*
Y-151000D01*
X93311Y-157137D02*
Y-155300D01*
X94111Y-154500D01*
X95284D01*
X96746Y-153037D01*
X97400D01*
X98000Y-152437D01*
X88400Y-150784D02*
X88428D01*
X88450Y-47450D02*
X91400Y-44500D01*
X95100D01*
X70884Y-44550D02*
X81150D01*
X68064Y-44950D02*
X70483D01*
X70884Y-44550D01*
X63900Y-40786D02*
X68064Y-44950D01*
X63900Y-40786D02*
Y-38100D01*
X62250Y-40550D02*
X70450Y-48750D01*
X90216D01*
X44822Y-80100D02*
Y-74768D01*
Y-80100D02*
X45232D01*
X44287Y-74234D02*
X44822Y-74768D01*
X42434Y-74234D02*
X44287D01*
X41900Y-73700D02*
X42434Y-74234D01*
X102466Y-194694D02*
Y-191066D01*
X83548Y-16150D02*
X86783D01*
X80498Y-13100D02*
X83548Y-16150D01*
X75083Y-181617D02*
X75937Y-182472D01*
X74700Y-179900D02*
X75083Y-180283D01*
X74600Y-179800D02*
X74700Y-179900D01*
X75083Y-181617D02*
Y-180283D01*
X14100Y-86100D02*
Y-84900D01*
X21398Y-82242D02*
X24542D01*
X24600Y-82300D01*
X24800Y-84400D02*
Y-82500D01*
X25300Y-84900D02*
X27700D01*
X23000Y-82400D02*
X23100Y-82300D01*
X24600D01*
X24800Y-82500D01*
Y-84400D02*
X25300Y-84900D01*
X27700D02*
X28100Y-85300D01*
Y-86700D02*
Y-85300D01*
X27700Y-87100D02*
X28100Y-86700D01*
X25300Y-87100D02*
X27700D01*
X24900Y-87500D02*
X25300Y-87100D01*
X24900Y-88500D02*
Y-87500D01*
Y-88500D02*
X25500Y-89100D01*
X28700D01*
X29366Y-88434D01*
Y-83700D01*
X28766Y-83100D02*
X29366Y-83700D01*
X26700Y-83100D02*
X28766D01*
X96902Y-122212D02*
X99040D01*
X96902Y-124180D02*
X99594D01*
X103550Y-131950D02*
X104200Y-131300D01*
X16350Y-50750D02*
X17250D01*
X14617Y-46350D02*
X19250D01*
X13650Y-47317D02*
X14617Y-46350D01*
X13650Y-49317D02*
Y-47317D01*
X16700Y-49100D02*
X18500D01*
X16000Y-49800D02*
X16700Y-49100D01*
X16000Y-50400D02*
Y-49800D01*
Y-50400D02*
X16350Y-50750D01*
X17250D02*
X17600Y-51100D01*
Y-51800D02*
Y-51100D01*
X17300Y-52100D02*
X17600Y-51800D01*
X16500Y-52100D02*
X17300D01*
X15900Y-52700D02*
X16500Y-52100D01*
X15900Y-53500D02*
Y-52700D01*
X15500Y-48100D02*
X18914D01*
X15400Y-48000D02*
X15500Y-48100D01*
X18914D02*
X21398Y-50583D01*
X18500Y-49100D02*
X19000Y-49600D01*
X21398Y-52714D02*
Y-50583D01*
X19000Y-50600D02*
Y-49600D01*
Y-50600D02*
X19100Y-50700D01*
X20700Y-47800D02*
X22000D01*
X19250Y-46350D02*
X20700Y-47800D01*
X15900Y-53500D02*
X17083Y-54683D01*
X21398D01*
X22700Y-66400D02*
X26600D01*
X18200Y-64900D02*
X18600Y-64500D01*
X17100Y-64900D02*
X18200D01*
X16000Y-63800D02*
X17100Y-64900D01*
X18600Y-64500D02*
X21200D01*
X15100Y-63800D02*
X16000D01*
X14200Y-64700D02*
X15100Y-63800D01*
X14200Y-66600D02*
Y-64700D01*
X26350Y-60750D02*
X28150D01*
X25500Y-59900D02*
X26350Y-60750D01*
X24600Y-59900D02*
X25500D01*
X23912Y-60588D02*
X24600Y-59900D01*
X21398Y-60588D02*
X23912D01*
X29200Y-56700D02*
X30100D01*
X28700Y-57200D02*
X29200Y-56700D01*
X28700Y-60200D02*
Y-57200D01*
X28800Y-55386D02*
Y-50500D01*
X26900Y-57286D02*
X28800Y-55386D01*
X30100Y-56700D02*
X30400Y-57000D01*
X26900Y-58800D02*
Y-57286D01*
X30400Y-59100D02*
Y-57000D01*
X28150Y-60750D02*
X28700Y-60200D01*
X26650Y-48350D02*
X28800Y-50500D01*
X22550Y-48350D02*
X26650D01*
X22000Y-47800D02*
X22550Y-48350D01*
X62000Y-55000D02*
X63500Y-56500D01*
X70800D02*
X72650Y-58350D01*
X64617Y-57650D02*
X70350D01*
X63500Y-56500D02*
X70800D01*
X70350Y-57650D02*
X71500Y-58800D01*
X72650Y-69816D02*
Y-58350D01*
X71522Y-69530D02*
Y-65122D01*
X71350Y-69702D02*
X71522Y-69530D01*
X71350Y-71898D02*
Y-69702D01*
X72350Y-71483D02*
X73317Y-72450D01*
X72350Y-71483D02*
Y-70117D01*
X72650Y-69816D01*
X77400Y-70900D02*
X77585D01*
X73417Y-72450D02*
X74700Y-73734D01*
X73317Y-72450D02*
X73417D01*
X71350Y-71898D02*
X71450Y-71998D01*
Y-73350D02*
Y-71998D01*
X63999Y-75134D02*
X65592D01*
X63266Y-59000D02*
X64617Y-57650D01*
X71522Y-65122D02*
Y-58800D01*
X61900Y-55100D02*
X62000Y-55000D01*
Y-59167D02*
Y-59100D01*
X71500Y-65100D02*
X71522Y-65122D01*
X80169Y-73484D02*
X83247D01*
X50409Y-83209D02*
Y-83008D01*
X41100Y-84000D02*
X42300Y-82800D01*
X92500Y-63200D02*
X95500D01*
X90900Y-61600D02*
X92500Y-63200D01*
X93200Y-64200D02*
X94125Y-65125D01*
X92086Y-64200D02*
X93200D01*
X90486Y-62600D02*
X92086Y-64200D01*
X89180Y-64064D02*
Y-63020D01*
X96902Y-61188D02*
X100378D01*
X101200Y-55000D02*
X104200D01*
X101400Y-53300D02*
X102600D01*
X103283Y-51650D02*
X111183Y-59550D01*
X98838Y-51650D02*
X103283D01*
X89500Y-61600D02*
X90900D01*
X88600Y-60700D02*
X89500Y-61600D01*
X77585Y-70900D02*
X80169Y-73484D01*
X88600Y-60700D02*
Y-59300D01*
X85900Y-68014D02*
X87686Y-69800D01*
X85300Y-64951D02*
X89149Y-68800D01*
X61900Y-78100D02*
X63450Y-79650D01*
Y-87137D02*
Y-79650D01*
X61800Y-82800D02*
Y-82600D01*
X46472Y-86945D02*
X47676Y-88150D01*
X50500Y-102037D02*
Y-101900D01*
X42500Y-71100D02*
Y-70200D01*
X41487Y-69187D02*
X42500Y-70200D01*
Y-62800D02*
X44350Y-64650D01*
X31000Y-83300D02*
X32400Y-81900D01*
X47676Y-88150D02*
X50050D01*
X23500Y-78400D02*
Y-78300D01*
X70969Y-85300D02*
X71100D01*
X76631Y-85268D02*
X77332Y-84569D01*
X71100Y-85100D02*
X71500Y-84700D01*
X76100D01*
X10757Y-99252D02*
X11464Y-99958D01*
X11150Y-115850D02*
X13350D01*
X12517Y-119150D02*
X13917D01*
X12167Y-119500D02*
X12517Y-119150D01*
X13650Y-115550D02*
X16398D01*
X13350Y-115850D02*
X13650Y-115550D01*
X13917Y-119150D02*
X14617Y-119850D01*
X11200Y-119500D02*
X12167D01*
X13914Y-116700D02*
X14467D01*
X13614Y-117000D02*
X13914Y-116700D01*
X13500Y-117000D02*
X13614D01*
X14400Y-102700D02*
X16100D01*
X17295Y-103895D01*
X21398D01*
X15267Y-96800D02*
X18200D01*
X13450Y-94984D02*
X15267Y-96800D01*
X12900Y-98100D02*
X13000D01*
X13400Y-94766D02*
Y-93300D01*
Y-94766D02*
X13450Y-94816D01*
Y-94984D02*
Y-94816D01*
X14750Y-119850D02*
X16500Y-121600D01*
X14617Y-119850D02*
X14750D01*
X11100Y-119600D02*
X11200D01*
X16500Y-121600D02*
X18076D01*
X15300Y-118500D02*
Y-118200D01*
X18200Y-96800D02*
X19000Y-96000D01*
X14617Y-116550D02*
X15983D01*
X14467Y-116700D02*
X14617Y-116550D01*
X54200Y-106800D02*
Y-106200D01*
X65000Y-106700D02*
X69800D01*
X63250Y-108450D02*
X65000Y-106700D01*
X18550Y-69150D02*
X19200Y-68500D01*
X12550Y-69150D02*
X18550D01*
X17400Y-72300D02*
X21300D01*
X16600Y-73100D02*
X17400Y-72300D01*
X12900Y-73100D02*
X16600D01*
X21700Y-105900D02*
X24600D01*
X25200Y-106500D01*
X31300Y-101734D02*
X32700Y-100333D01*
X31300Y-105731D02*
Y-101734D01*
X17750Y-106650D02*
X19000Y-107900D01*
X15450Y-106650D02*
X17750D01*
X35265Y-113250D02*
X37050D01*
X16548Y-115700D02*
X21100D01*
X16133Y-116700D02*
X16600D01*
X15983Y-116550D02*
X16133Y-116700D01*
X16600D02*
X17575Y-117675D01*
X16398Y-115550D02*
X16548Y-115700D01*
X15300Y-118500D02*
X16443Y-119643D01*
X71874Y-30474D02*
X77650Y-36250D01*
X67800Y-121733D02*
Y-121567D01*
Y-121733D02*
X69867Y-123800D01*
X66584Y-120350D02*
X67800Y-121567D01*
X65719Y-120350D02*
X66584D01*
X62600Y-117232D02*
X65719Y-120350D01*
X17575Y-117675D02*
X21398D01*
X19000Y-107900D02*
X19900D01*
X13200Y-81400D02*
X13700D01*
X11900Y-85200D02*
Y-84866D01*
X13517Y-83250D01*
X14750Y-80550D02*
X21121D01*
X13800Y-81500D02*
X14750Y-80550D01*
X15838Y-78305D02*
X21398D01*
X14633Y-77100D02*
X15838Y-78305D01*
X12600Y-77100D02*
X14633D01*
X21398Y-70431D02*
Y-70250D01*
X22600Y-66500D02*
X22700Y-66400D01*
X71000Y-85500D02*
X71800Y-86300D01*
Y-89169D02*
Y-86300D01*
X63450Y-87137D02*
X65713Y-89400D01*
X71000Y-85500D02*
Y-85400D01*
X70969Y-90000D02*
X71800Y-89169D01*
X77600Y-94300D02*
X78600Y-95300D01*
X75600Y-89000D02*
X76300Y-88300D01*
X75600Y-92500D02*
Y-89000D01*
Y-92500D02*
X77500Y-94400D01*
X77400Y-90700D02*
X77500D01*
X76631Y-85268D02*
Y-85232D01*
Y-88200D02*
Y-85268D01*
X76100Y-84700D02*
X76631Y-85232D01*
X80584Y-88216D02*
X80600Y-88200D01*
X100617Y-80950D02*
X102950D01*
X103800Y-80100D01*
X100540Y-80873D02*
X100617Y-80950D01*
X70200Y-32100D02*
X77750Y-39650D01*
X86900D01*
X89200Y-41950D01*
X84050Y-47450D02*
X88450D01*
X81150Y-44550D02*
X84050Y-47450D01*
X90216Y-48750D02*
X92817Y-46150D01*
X99750D01*
X67860Y-30474D02*
X71874D01*
X40369Y-84000D02*
X41100D01*
X39200Y-81900D02*
X40369Y-83069D01*
Y-84000D02*
Y-83069D01*
X11900Y-88700D02*
X12453Y-88147D01*
X21398D01*
X14700Y-90600D02*
X16900D01*
X21100Y-115706D02*
X21398D01*
X16443Y-119643D02*
X21398D01*
X18076Y-121600D02*
X18088Y-121612D01*
X37050Y-113250D02*
X38300Y-114500D01*
X93500Y-140200D02*
X94300Y-139400D01*
X83169Y-127469D02*
Y-124100D01*
Y-127469D02*
X85500Y-129800D01*
X69500Y-117877D02*
Y-117000D01*
X67900Y-115400D02*
Y-112768D01*
Y-115400D02*
X69500Y-117000D01*
X78969Y-115400D02*
X79300D01*
X69867Y-123800D02*
X70034D01*
X72550Y-126317D01*
Y-126783D02*
Y-126317D01*
Y-126783D02*
X73516Y-127750D01*
X73750D01*
X75300Y-129300D01*
X79232Y-124568D02*
Y-124100D01*
X77400Y-126400D02*
X79232Y-124568D01*
X100516Y-112050D02*
X102802D01*
X100197Y-112369D02*
X100516Y-112050D01*
X96902Y-112369D02*
X100197D01*
X69800Y-106700D02*
X69900Y-106800D01*
X102600Y-123200D02*
X102700Y-123100D01*
X104127Y-102527D02*
X105500Y-103900D01*
X96902Y-102527D02*
X104127D01*
X98100Y-104500D02*
X98400Y-104200D01*
X99900Y-157567D02*
Y-155384D01*
X72100Y-184000D02*
X73831D01*
X70970Y-185130D02*
X72100Y-184000D01*
X70970Y-194694D02*
Y-185130D01*
X34150Y-176603D02*
Y-171581D01*
X27327Y-183426D02*
X34150Y-176603D01*
X58832Y-92668D02*
X61600Y-89900D01*
X65600Y-95600D02*
Y-94300D01*
X94125Y-65125D02*
X96902D01*
X85300Y-64951D02*
Y-63900D01*
X85900Y-68014D02*
Y-67900D01*
X85200Y-67200D02*
X85900Y-67900D01*
X99003Y-57251D02*
X100727Y-55527D01*
X100700Y-55500D02*
X101200Y-55000D01*
X96902Y-57251D02*
X99003D01*
X100900Y-53800D02*
X101400Y-53300D01*
X100886Y-53800D02*
X100900D01*
X99886Y-54800D02*
X100886Y-53800D01*
X99403Y-55283D02*
X99886Y-54800D01*
X96902Y-55283D02*
X99403D01*
X97038Y-53450D02*
X98838Y-51650D01*
X112450Y-60817D02*
X112833Y-61200D01*
X112450Y-60817D02*
Y-60517D01*
X111483Y-59550D02*
X112450Y-60517D01*
X111183Y-59550D02*
X111483D01*
X112833Y-61200D02*
X113400D01*
X28267Y-165600D02*
X28600D01*
X25450Y-162783D02*
X28267Y-165600D01*
X25450Y-162783D02*
Y-154254D01*
X28058Y-151646D01*
X101900Y-156769D02*
X102269D01*
X101913Y-161300D02*
X102931Y-162319D01*
X63850Y-19550D02*
Y-16817D01*
X51300Y-5433D02*
Y-3900D01*
Y-5433D02*
X52917Y-7050D01*
X54084D01*
X63850Y-16817D01*
X48500Y-4214D02*
Y-4200D01*
X53900Y-2600D02*
X56100D01*
X44700Y-13100D02*
X46050Y-14450D01*
Y-21420D02*
Y-14450D01*
X45660Y-21810D02*
X46050Y-21420D01*
X48100Y-14300D02*
X49550Y-15750D01*
Y-22160D02*
Y-15750D01*
X51167Y-15600D02*
X55100D01*
X49350Y-13783D02*
X51167Y-15600D01*
X48100Y-14300D02*
Y-6500D01*
X74734Y-172166D02*
X78250Y-168650D01*
X82200D01*
X82600Y-169050D01*
X85000Y-163500D02*
X88400Y-166900D01*
X77036Y-163500D02*
X85000D01*
X73568Y-168788D02*
X77855Y-164500D01*
X70418Y-168788D02*
X73568D01*
X76159Y-164377D02*
X77036Y-163500D01*
X72923Y-164377D02*
X76159D01*
X70100Y-167200D02*
X72923Y-164377D01*
X79702Y-172450D02*
X81950D01*
X78987Y-173166D02*
X79702Y-172450D01*
X80116Y-173450D02*
X84950D01*
X78767Y-174800D02*
X80116Y-173450D01*
X38568Y-171100D02*
Y-171100D01*
X38600Y-172200D02*
Y-171100D01*
X19200Y-68500D02*
X21100D01*
X24636Y-76336D02*
X26700Y-78400D01*
X21398Y-76336D02*
X24636D01*
X22700Y-78300D02*
X23500D01*
X13400Y-93300D02*
Y-93200D01*
X13700Y-81400D02*
X13800Y-81500D01*
X21121Y-80550D02*
X21398Y-80273D01*
X14500Y-62000D02*
X15057Y-62557D01*
X21398D01*
X14000Y-53600D02*
Y-51300D01*
X13183Y-49783D02*
X13650Y-49317D01*
X10617Y-49783D02*
X13183D01*
X19000Y-96000D02*
X20800D01*
X18400Y-92100D02*
X20100D01*
X16900Y-90600D02*
X18400Y-92100D01*
X40250Y-17117D02*
X41800Y-15567D01*
X40250Y-18483D02*
Y-17117D01*
X18088Y-121612D02*
X21398D01*
X27400Y-124800D02*
X28200Y-125600D01*
X25400Y-124800D02*
X27400D01*
X24651Y-125549D02*
X25400Y-124800D01*
X49169Y-80100D02*
X49400D01*
X62683Y-76450D02*
X63999Y-75134D01*
X60917Y-76450D02*
X62683D01*
X59729Y-75263D02*
X60917Y-76450D01*
X54463Y-75263D02*
X59729D01*
X55100Y-15592D02*
X56225D01*
X58700Y-20300D02*
Y-19433D01*
X57350Y-18083D02*
X58700Y-19433D01*
X57350Y-18083D02*
Y-16717D01*
X56225Y-15592D02*
X57350Y-16717D01*
X17459Y-24900D02*
X18900D01*
X22800Y-13400D02*
X22900D01*
X27500Y-38200D02*
X27600Y-38100D01*
X26034Y-36534D02*
X27600Y-38100D01*
X30134Y-34900D02*
X32250Y-37017D01*
X101533Y-76800D02*
X102017Y-76317D01*
X103317D02*
X103800Y-76800D01*
X102017Y-76317D02*
X103317D01*
X96902Y-80873D02*
X100540D01*
X81300Y-117600D02*
Y-117500D01*
X65713Y-89400D02*
X67100D01*
X75300Y-131100D02*
X81400Y-137200D01*
X69500Y-117900D02*
X69505D01*
X67132Y-112000D02*
X67900Y-112768D01*
X53475Y-120575D02*
X54000Y-121100D01*
X47168Y-121400D02*
Y-120575D01*
X41500Y-112500D02*
Y-112300D01*
X41431Y-112500D02*
Y-110568D01*
X28058Y-142043D02*
X28800Y-141300D01*
X38500Y-148909D02*
Y-147500D01*
X36800Y-150609D02*
X38500Y-148909D01*
X36800Y-152084D02*
Y-150609D01*
X36337Y-152547D02*
X36800Y-152084D01*
X36337Y-152818D02*
Y-152547D01*
X35356Y-153800D02*
X36337Y-152818D01*
X22742Y-151646D02*
X26522Y-147867D01*
X34233D01*
X12700Y-185000D02*
X20600D01*
X22173Y-183426D01*
X27327D01*
X11900Y-185800D02*
X12700Y-185000D01*
X66822Y-167622D02*
X67550Y-168350D01*
X67950Y-168850D02*
X70356D01*
X67500Y-168400D02*
X67950Y-168850D01*
X70356D02*
X70418Y-168788D01*
X65172Y-167572D02*
X68000Y-170400D01*
X61900Y-165714D02*
X68207Y-172022D01*
X65172Y-167572D02*
Y-162928D01*
X68000Y-170400D02*
X70200D01*
X61900Y-165714D02*
Y-162700D01*
X68207Y-172022D02*
X70300D01*
X71466Y-173166D02*
X78987D01*
X70200Y-170400D02*
X71966Y-172166D01*
X74734D01*
X70300Y-172000D02*
X71466Y-173166D01*
X69750Y-177950D02*
X69800Y-177900D01*
X74119Y-188281D02*
X75937Y-186463D01*
X74119Y-194694D02*
Y-188281D01*
X80700Y-181900D02*
X85100D01*
X77800Y-183800D02*
X78800D01*
X80700Y-181900D01*
X75937Y-185850D02*
X81450D01*
X82100Y-185200D01*
Y-183800D01*
X99650Y-133550D02*
X99700Y-133600D01*
X83247Y-73484D02*
X83931Y-72800D01*
X85277Y-83008D02*
X85592D01*
X83900Y-85400D02*
X86900D01*
X83300Y-86000D02*
X83900Y-85400D01*
X102300Y-72600D02*
X102600Y-72900D01*
X100000Y-72600D02*
X102300D01*
X100600Y-45300D02*
X103300D01*
X99750Y-46150D02*
X100600Y-45300D01*
X92984Y-38350D02*
X95284Y-40650D01*
X91616Y-35050D02*
X93916D01*
X96216Y-37350D01*
X95284Y-40650D02*
X96883D01*
X96216Y-37350D02*
X97584D01*
X96883Y-40650D02*
X97723Y-39811D01*
X83716Y-34050D02*
X99050D01*
X88217Y-33050D02*
X102035D01*
X95234Y-28800D02*
X96300D01*
X95183Y-28750D02*
X95234Y-28800D01*
X88686Y-28750D02*
X95183D01*
X87700Y-24500D02*
X99700D01*
X91267Y-35400D02*
X91616Y-35050D01*
X83652Y-35400D02*
X91267D01*
X82600Y-25100D02*
X89550Y-32050D01*
X96300Y-28800D02*
X98400Y-26700D01*
X97584Y-37350D02*
X98666Y-36267D01*
X100986D01*
X99700Y-24500D02*
X101100Y-25900D01*
X99400Y-34700D02*
Y-34400D01*
Y-34800D02*
Y-34700D01*
X99600Y-34900D01*
X99050Y-34050D02*
X99400Y-34400D01*
X81600Y-31933D02*
X83716Y-34050D01*
X78900Y-23733D02*
X88217Y-33050D01*
X102035D02*
X103600Y-34615D01*
X74250Y-25998D02*
X83652Y-35400D01*
X74250Y-25998D02*
Y-23050D01*
X75900Y-24800D02*
X81600Y-30500D01*
Y-31933D02*
Y-30500D01*
X98400Y-26700D02*
X99000D01*
X73293Y-13357D02*
X88686Y-28750D01*
X76400Y-13200D02*
X82850Y-19650D01*
X85084D02*
X86450Y-21017D01*
X82850Y-19650D02*
X85084D01*
X73293Y-13357D02*
Y-13295D01*
X86783Y-16150D02*
X87898Y-17265D01*
Y-20500D02*
Y-17265D01*
X101000Y-26800D02*
X101016D01*
X101100Y-26700D02*
Y-25900D01*
X102984Y-26728D02*
Y-26019D01*
X85734Y-14650D02*
X86950D01*
X81263Y-10179D02*
X85734Y-14650D01*
X76500Y-10179D02*
X81263D01*
X100686Y-26389D02*
X101005D01*
X105553Y-34928D02*
Y-34219D01*
X103600Y-34900D02*
Y-34615D01*
X74250Y-23050D02*
X74800Y-22500D01*
X101500Y-34928D02*
Y-34900D01*
X100986Y-36267D02*
X101616Y-35638D01*
Y-34928D01*
X16250Y-156683D02*
Y-156618D01*
X15032Y-155400D02*
X16250Y-156618D01*
Y-156683D02*
X17967Y-158400D01*
X18032D01*
X27200Y-167900D02*
Y-167700D01*
X20700Y-157200D02*
Y-157166D01*
X19734Y-161634D02*
Y-158734D01*
X19400Y-158400D02*
X19734Y-158734D01*
X18032Y-158400D02*
X19400D01*
X23100Y-178900D02*
X23100Y-178900D01*
X54400Y-98000D02*
Y-97300D01*
X43731Y-101000D02*
X44450Y-100282D01*
X25416Y-90116D02*
X26200Y-90900D01*
X61600Y-138000D02*
X67831D01*
X85450Y-168398D02*
X87002Y-169950D01*
X88100Y-167300D02*
Y-167200D01*
X113500Y-24700D02*
Y-24600D01*
X100852Y-162800D02*
X101000D01*
X102931Y-163041D02*
Y-162319D01*
X89235Y-2940D02*
X89616Y-3321D01*
X52900Y-114000D02*
X53200Y-113700D01*
X88366Y-175200D02*
X89200D01*
X87889Y-172575D02*
X88699Y-173384D01*
X21398Y-90116D02*
X25416D01*
X23300Y-80100D02*
X23500Y-80300D01*
X13500Y-58600D02*
X13520Y-58620D01*
X21398D01*
X100900Y-75100D02*
X101032Y-74968D01*
X78900Y-22700D02*
Y-22600D01*
Y-23733D02*
Y-22700D01*
X20734Y-157166D02*
X21969Y-158400D01*
X12437Y-167959D02*
X12446Y-167950D01*
X57631Y-160831D02*
X58600Y-161800D01*
X57631Y-160831D02*
Y-159400D01*
X62250Y-40550D02*
Y-37417D01*
X63017Y-36650D01*
Y-35283D01*
X62100Y-34366D02*
X63017Y-35283D01*
X62100Y-34366D02*
Y-31467D01*
X64566Y-29000D01*
X67000D01*
X66233Y-32100D02*
X67860Y-30474D01*
X64000Y-32100D02*
X66233D01*
X90616Y-8816D02*
Y-2906D01*
X89616Y-11316D02*
Y-3321D01*
X91369Y-9568D02*
X93000D01*
X90616Y-8816D02*
X91300Y-9500D01*
X10300Y-156100D02*
X11000Y-155400D01*
X19300Y-172831D02*
Y-169600D01*
X19734Y-161634D02*
X20232Y-162132D01*
X21800D01*
X49550Y-22160D02*
X49990Y-22600D01*
X112500Y-25700D02*
X113500Y-24700D01*
X112500Y-30741D02*
Y-25700D01*
X111157Y-32084D02*
X112500Y-30741D01*
X110828Y-32084D02*
X111157D01*
X64000Y-142100D02*
X66600Y-144700D01*
Y-148200D02*
Y-144700D01*
X60582Y-148495D02*
X60600Y-148477D01*
X65172Y-162928D02*
X65200Y-162900D01*
X88281Y-152900D02*
X88428Y-152753D01*
X78600Y-150986D02*
X79236Y-150350D01*
X76514Y-150986D02*
X78600D01*
X74114Y-149986D02*
X77822D01*
X72300Y-155200D02*
X76514Y-150986D01*
X59931Y-128900D02*
X61600Y-127232D01*
X63868Y-128900D02*
Y-126331D01*
X64900Y-156200D02*
X66700Y-154400D01*
X68100D01*
X55350Y-166705D02*
X56531Y-165524D01*
X58924D01*
X110500Y-30116D02*
X110828D01*
X114400Y-28000D02*
X114500D01*
X109450Y-31165D02*
X110500Y-30116D01*
X91632Y-13331D02*
X92900D01*
X89616Y-11316D02*
X91632Y-13331D01*
X55968Y-96431D02*
X58300D01*
X59668D01*
X61600Y-94500D01*
X55350Y-172267D02*
Y-166705D01*
X28058Y-144954D02*
Y-142043D01*
X34233Y-147867D02*
X34400Y-147700D01*
X29300Y-143900D02*
X34431D01*
X58200Y-77600D02*
X58300Y-77500D01*
X20700Y-157166D02*
X20734D01*
X54400Y-98000D02*
X55968Y-96431D01*
X28100Y-145100D02*
X29300Y-143900D01*
X72700Y-151400D02*
X74114Y-149986D01*
X63868Y-126331D02*
X64600Y-125600D01*
X61600Y-127232D02*
Y-121700D01*
X75300Y-155700D02*
X79650Y-151350D01*
X66300Y-148500D02*
X66600Y-148200D01*
X34400Y-147700D02*
X34700D01*
X10300Y-157900D02*
Y-156100D01*
X17459Y-35237D02*
X17522Y-35300D01*
X17459Y-31300D02*
X17600Y-31159D01*
Y-29400D01*
X7341Y-36759D02*
Y-35237D01*
X7700Y-27400D02*
X7800Y-27300D01*
X22944Y-13444D02*
X25700D01*
X22900Y-13400D02*
X22944Y-13444D01*
X96902Y-53314D02*
X97038Y-53450D01*
X92700Y-5331D02*
X93000Y-5632D01*
X83230Y-7330D02*
X86210D01*
X80900Y-5000D02*
X83230Y-7330D01*
X6800Y-37300D02*
X7341Y-36759D01*
X4400Y-144847D02*
X4647Y-144600D01*
X4400Y-144847D02*
Y-144600D01*
X2000Y-142200D02*
X4400Y-144600D01*
X18754Y-144954D02*
X22742D01*
X26432Y-176769D02*
X26800Y-176400D01*
X23100Y-178900D02*
Y-176769D01*
X15600Y-172831D02*
Y-170300D01*
X6944Y-181344D02*
Y-178900D01*
Y-181344D02*
X7000Y-181400D01*
X15300Y-170000D02*
X15600Y-170300D01*
X14700Y-161300D02*
X15500Y-162100D01*
X17900D01*
X19732Y-164000D02*
X21800Y-166068D01*
X19331Y-176769D02*
X19400Y-176700D01*
X85500Y-83000D02*
X85500Y-83000D01*
X87269Y-91168D02*
Y-87400D01*
Y-91168D02*
X87300Y-91200D01*
X87300Y-91200D01*
X60300Y-64600D02*
X62610D01*
X58200Y-92668D02*
X58832D01*
X41431Y-110568D02*
X43000Y-109000D01*
X47631Y-109000D02*
Y-107132D01*
X46600Y-106100D02*
X47631Y-107132D01*
X38000Y-135400D02*
X38532Y-135932D01*
X78600Y-95300D02*
X80563D01*
X71768Y-140668D02*
Y-138000D01*
X57468Y-144500D02*
Y-143631D01*
X60031Y-140568D02*
X60934Y-139666D01*
X67366D01*
X68700Y-141000D01*
X69100D01*
X60031Y-141300D02*
Y-141068D01*
Y-140568D01*
X72200Y-141800D02*
X73077Y-142677D01*
X69700Y-141600D02*
X72531D01*
X71768Y-140668D02*
X72550Y-141450D01*
X73077Y-145050D02*
Y-142677D01*
X104900Y-165500D02*
X105200Y-165800D01*
X114068Y-162732D02*
X114700D01*
X108300Y-165900D02*
X108500Y-166100D01*
X58924Y-165524D02*
X63600Y-170200D01*
X53875Y-173742D02*
X55350Y-172267D01*
X52000Y-178732D02*
X53875Y-176856D01*
Y-173742D01*
X40800Y-176800D02*
X42800Y-178800D01*
X44300D01*
X12600Y-164000D02*
X19732D01*
X19300Y-169600D02*
Y-168967D01*
X32269Y-165700D02*
X33600D01*
X68200Y-158168D02*
X77469D01*
X78000Y-158700D01*
X72200Y-180700D02*
X73831Y-182332D01*
X72200Y-180700D02*
Y-180600D01*
X40800Y-176800D02*
Y-174800D01*
X18400Y-144600D02*
X18754Y-144954D01*
X11000Y-155400D02*
X15032D01*
X12437Y-157841D02*
X13741D01*
X14700Y-158800D01*
Y-161300D02*
Y-158800D01*
X89368Y-82669D02*
X89500Y-82800D01*
X75300Y-131100D02*
Y-129300D01*
X17522Y-35300D02*
X21500D01*
X22000Y-34800D01*
X23600Y-32884D02*
Y-30656D01*
Y-32884D02*
X24637Y-33921D01*
Y-36154D02*
Y-33921D01*
Y-36154D02*
X25018Y-36534D01*
X26034D01*
X5000Y-26600D02*
Y-25600D01*
Y-26600D02*
X5800Y-27400D01*
X7700D01*
X10500Y-40500D02*
X10750Y-40750D01*
X11117Y-38350D02*
X12517Y-39750D01*
X66822Y-167622D02*
Y-166787D01*
X66700Y-166800D02*
X66768Y-166732D01*
X69672Y-167200D02*
X70100D01*
X86450Y-167983D02*
Y-166669D01*
X88100Y-167200D02*
X88400Y-166900D01*
X3200Y-179400D02*
X3200Y-179400D01*
X77069Y-174800D02*
X78767D01*
X81950Y-172450D02*
X82900Y-171500D01*
X36600Y-162600D02*
Y-160900D01*
X33669Y-159500D02*
X35200D01*
X36600Y-160900D01*
X19300Y-172831D02*
X23168D01*
X61900Y-55100D02*
X62000Y-55200D01*
X87700Y-82669D02*
X89368D01*
X12446Y-167950D02*
X18283D01*
X19300Y-168967D01*
X23032Y-171000D02*
X24353D01*
X26400Y-176769D02*
X26432D01*
X26400Y-177339D02*
Y-176769D01*
Y-177339D02*
X27050Y-177989D01*
Y-179356D02*
Y-177989D01*
X26083Y-180322D02*
X27050Y-179356D01*
X24716Y-180322D02*
X26083D01*
X23750Y-179356D02*
X24716Y-180322D01*
X18100Y-166068D02*
X23032Y-171000D01*
X24353D02*
X24950Y-171597D01*
Y-173750D02*
Y-171597D01*
X25400Y-178700D02*
Y-174200D01*
X24950Y-173750D02*
X25400Y-174200D01*
X63100Y-20300D02*
X63850Y-19550D01*
X63100Y-23800D02*
Y-20300D01*
X67400Y-22400D02*
Y-17400D01*
X58100Y-8100D02*
X67400Y-17400D01*
X8950Y-23550D02*
X10300Y-24900D01*
X3350Y-36183D02*
X6117Y-38950D01*
X8416D02*
X9016Y-38350D01*
X11117D01*
X4717Y-23550D02*
X8950D01*
X6117Y-38950D02*
X8416D01*
X25800Y-27700D02*
X26800Y-28700D01*
X17700Y-33300D02*
X19400D01*
X26800Y-30600D02*
Y-28700D01*
X17459Y-33268D02*
X17700D01*
X9500Y-52800D02*
Y-50900D01*
X10617Y-49783D01*
X14000Y-53600D02*
X17100Y-56700D01*
X14000Y-51200D02*
X14050Y-51250D01*
X17100Y-56700D02*
X20600D01*
X21398Y-125549D02*
X24651D01*
X95500Y-63157D02*
X96902D01*
X89180Y-63020D02*
X89600Y-62600D01*
X90486D01*
X96902Y-65100D02*
X97000D01*
X88500Y-59200D02*
X88600D01*
X96902Y-71031D02*
X99431D01*
X100000Y-71600D01*
X98600Y-72900D02*
X99700D01*
X100000Y-72600D01*
X98500Y-73000D02*
X98600Y-72900D01*
X98400D02*
X98500Y-73000D01*
X98700Y-76800D02*
X101533D01*
X96902Y-90716D02*
X99616D01*
X102100Y-90700D02*
Y-90600D01*
X96902Y-92684D02*
X98600D01*
X96902Y-132802D02*
X97600Y-133500D01*
X99500D01*
X99600Y-133600D01*
X116400Y-162700D02*
X117000Y-163300D01*
X93000Y-157447D02*
X93311Y-157137D01*
X97916Y-151016D02*
X98000Y-150932D01*
X102931Y-170168D02*
X103000Y-170100D01*
X73831Y-184000D02*
X74500D01*
X73831D02*
Y-182332D01*
X75937Y-186463D02*
Y-185850D01*
Y-182472D01*
X85100Y-181900D02*
X85900Y-182700D01*
Y-183500D02*
X85969Y-183569D01*
X85900Y-183500D02*
Y-182700D01*
X85969Y-184000D02*
Y-183569D01*
X57400Y-186400D02*
X58400Y-187400D01*
Y-191100D02*
Y-187400D01*
Y-191100D02*
X58600Y-191300D01*
X35200Y-159500D02*
X37800D01*
X43231D02*
X43332Y-159400D01*
X43300Y-159500D02*
X43300Y-159500D01*
X43231Y-159500D02*
X43300D01*
X37800D02*
X43231D01*
X38168Y-159132D02*
Y-153800D01*
X37800Y-159500D02*
X38168Y-159132D01*
X33600Y-165700D02*
X36700Y-162600D01*
X34150Y-171581D02*
X34631Y-171100D01*
X38168Y-153800D02*
X42500D01*
X44500Y-151800D01*
Y-148300D01*
X38368Y-143900D02*
X42600D01*
X44500Y-145800D01*
Y-148200D02*
Y-145800D01*
X58300Y-100368D02*
Y-99300D01*
X59100Y-98500D01*
X60400D01*
X61000Y-97900D01*
Y-97400D01*
X61900Y-96500D01*
X63200D01*
X38250Y-114450D02*
X38300Y-114400D01*
X31000Y-84332D02*
Y-83300D01*
X86900Y-85400D02*
X87700Y-84600D01*
Y-82669D01*
X83300Y-87800D02*
Y-86000D01*
X83363Y-91200D02*
Y-87737D01*
X77332Y-84569D02*
Y-83000D01*
X64700Y-96500D02*
X65600Y-95600D01*
X63600Y-96500D02*
X64700D01*
X63300Y-96631D02*
X67900D01*
X8885Y-168035D02*
X8900Y-167959D01*
X17300Y-188000D02*
Y-187900D01*
X99700Y-133700D02*
Y-133600D01*
X4647Y-144600D02*
X5500D01*
X11600D02*
X12700D01*
X96902Y-78905D02*
X101300D01*
X101400Y-71600D02*
X101750Y-71250D01*
X104350D01*
X100000Y-71600D02*
X101400D01*
X96902Y-74968D02*
X101032D01*
X96902Y-86779D02*
X100321D01*
X102200Y-85000D02*
Y-84900D01*
X109350Y-83450D02*
X111000Y-81800D01*
X96902Y-84810D02*
X100056D01*
X109100Y-80950D02*
Y-80400D01*
X107600Y-82450D02*
X109100Y-80950D01*
X97700Y-82900D02*
X97776Y-82976D01*
X94347Y-88747D02*
X96902D01*
X90100Y-86800D02*
X92400D01*
X94347Y-88747D01*
X89966Y-86900D02*
X90100D01*
X89800Y-87100D02*
X89966D01*
X100321Y-86779D02*
X102200Y-84900D01*
X106250Y-91584D02*
Y-88450D01*
X96902Y-96621D02*
X99532D01*
X100500Y-95653D01*
X96902Y-98590D02*
X100710D01*
X103943Y-97757D02*
X104900Y-96800D01*
X105176Y-98757D02*
X106433Y-97500D01*
X96902Y-100558D02*
X100199D01*
X93100Y-106464D02*
X96902D01*
X102802Y-112050D02*
X103002Y-112250D01*
X96902Y-110401D02*
X99651D01*
X100300Y-111050D01*
X103217D01*
X103417Y-111250D01*
X101000Y-122000D02*
X101753D01*
X100600Y-121600D02*
X101000Y-122000D01*
X100600Y-121600D02*
Y-120300D01*
X101200Y-119700D01*
X102700D01*
X102800Y-123200D02*
Y-122967D01*
X101200Y-113700D02*
X101600D01*
X101800Y-113900D01*
X101362Y-114338D02*
X101800Y-113900D01*
X96902Y-114338D02*
X101362D01*
X96784Y-116188D02*
X96902Y-116306D01*
X91650Y-112250D02*
X93100Y-113700D01*
X92969Y-113831D02*
X93000Y-113800D01*
X96902Y-118275D02*
X100925D01*
X32400Y-81900D02*
X39200D01*
X12546Y-77246D02*
X12700Y-77400D01*
X12546Y-77246D02*
Y-77154D01*
X13517Y-83250D02*
X15550D01*
X44350Y-71918D02*
X45031Y-72600D01*
X44350Y-71918D02*
Y-64650D01*
X48968Y-72600D02*
X51700D01*
X54300Y-75200D01*
X16635Y-128600D02*
X17717Y-127517D01*
X21398D01*
X14300Y-128600D02*
X16635D01*
X13800Y-131900D02*
X14749D01*
X17163Y-129486D01*
X21398D01*
X28200Y-127700D02*
X28850Y-128350D01*
X32350D01*
X32800Y-127900D01*
Y-127400D01*
X32200Y-126800D02*
X32800Y-127400D01*
X29300Y-126300D02*
X29800Y-126800D01*
X29300Y-126300D02*
Y-125500D01*
X29800Y-126800D02*
X32200D01*
X28200Y-127700D02*
Y-125600D01*
X29300Y-125500D02*
X30700Y-124100D01*
X35500D01*
X34000Y-126000D02*
X35300D01*
X35900Y-125400D01*
Y-124500D01*
X35500Y-124100D02*
X35900Y-124500D01*
X13400Y-120700D02*
X16280Y-123580D01*
X21398D01*
X31600Y-118468D02*
X31732D01*
X32450Y-117750D01*
Y-117717D01*
X33700Y-114800D02*
X35200Y-113300D01*
X32450Y-117717D02*
X33700Y-116467D01*
Y-114800D01*
X35208Y-113307D02*
X35265Y-113250D01*
X12950Y-117550D02*
X13500Y-117000D01*
X24800D02*
Y-115040D01*
Y-117000D02*
X25600Y-117800D01*
X26600D01*
X27300Y-117100D01*
Y-115100D01*
X21398Y-113738D02*
X23498D01*
X24800Y-115040D01*
X26500Y-114300D02*
X27300Y-115100D01*
X25200Y-106500D02*
X26500D01*
X24827Y-101927D02*
X25900Y-103000D01*
X28000Y-96800D02*
X28500Y-96300D01*
X29800D01*
X30400Y-96900D01*
Y-98200D02*
Y-96900D01*
X21398Y-101927D02*
X24827D01*
X25900Y-104200D02*
Y-103000D01*
X27300Y-104800D02*
X28000Y-104100D01*
Y-96800D01*
X25900Y-104200D02*
X26500Y-104800D01*
X27300D01*
X11358Y-99958D02*
X11464D01*
X21398D01*
X10700Y-99300D02*
X11358Y-99958D01*
X13100Y-98100D02*
X13210Y-97990D01*
X21398D01*
X13000Y-98100D02*
X13100D01*
X16147Y-94053D02*
X21398D01*
X15600Y-94600D02*
X16147Y-94053D01*
X15550Y-83250D02*
X16510Y-84210D01*
X21398D01*
X17631Y-87147D02*
X18600Y-86179D01*
X15147Y-87147D02*
X17631D01*
X14100Y-86100D02*
X15147Y-87147D01*
X18600Y-86179D02*
X21398D01*
X10750Y-40750D02*
X15550D01*
X18000Y-43200D01*
X16150Y-39750D02*
X18300Y-41900D01*
X12517Y-39750D02*
X16150D01*
X13200Y-38100D02*
X13241D01*
X4563Y-168000D02*
Y-167959D01*
X15600Y-176769D02*
X16000D01*
X85650Y-177150D02*
X86000Y-176800D01*
X112000Y-120600D02*
Y-113700D01*
X110800Y-112500D02*
X112000Y-113700D01*
X107200Y-112500D02*
X110800D01*
X105950Y-111250D02*
X107200Y-112500D01*
X103417Y-111250D02*
X105950D01*
X105536Y-112250D02*
X106786Y-113500D01*
X110386D01*
X111000Y-114114D01*
Y-120186D02*
Y-114114D01*
X103002Y-112250D02*
X105536D01*
X47500Y-176500D02*
Y-175700D01*
Y-176500D02*
X50000Y-179000D01*
Y-184900D02*
Y-179000D01*
X51600Y-186500D02*
X53000D01*
X53100Y-186400D01*
X50000Y-184900D02*
X51600Y-186500D01*
X53100Y-186400D02*
X57400D01*
X116600Y-178600D02*
X117000Y-178200D01*
X101600Y-158100D02*
Y-156769D01*
Y-158100D02*
X103000Y-159500D01*
X107000Y-163000D02*
Y-161800D01*
X105200Y-156769D02*
Y-156700D01*
X106869Y-163041D02*
Y-163000D01*
X105300Y-160100D02*
X107000Y-161800D01*
X115300Y-180200D02*
X115300Y-180200D01*
X115300Y-180200D02*
Y-178600D01*
Y-178469D01*
Y-178600D02*
X116600D01*
X96678Y-183122D02*
Y-181312D01*
X97190Y-180800D01*
X95500Y-184300D02*
X96678Y-183122D01*
X86000Y-184300D02*
X95500D01*
X115000Y-174300D02*
X115100Y-174400D01*
X60700Y-6200D02*
Y-4600D01*
X77800Y-4000D02*
X78860Y-2940D01*
X89235D01*
X70000Y-1950D02*
X70010Y-1940D01*
X63350Y-1950D02*
X70000D01*
X60700Y-4600D02*
X63350Y-1950D01*
X89649Y-1940D02*
X90616Y-2906D01*
X70010Y-1940D02*
X89649D01*
X61900Y-82700D02*
X62000Y-82800D01*
X52700Y-106200D02*
X54100D01*
X80300Y-88468D02*
X80568Y-88200D01*
X49100Y-80400D02*
X49400Y-80100D01*
X34231Y-153800D02*
X35356D01*
X38300Y-172500D02*
X38600Y-172200D01*
X16200Y-180300D02*
X16400D01*
X109600Y-154800D02*
Y-154300D01*
X99800Y-157667D02*
X99900Y-157567D01*
X113300Y-151800D02*
X113300Y-151800D01*
Y-150568D01*
Y-152600D02*
Y-152400D01*
X104569Y-144032D02*
X105400Y-143200D01*
X71900Y-119334D02*
X71916Y-119350D01*
X82950D02*
X85300Y-121700D01*
X70986Y-119334D02*
X71900D01*
X85300Y-121700D02*
X85400Y-121800D01*
X65966Y-178234D02*
X66000Y-178200D01*
X81269Y-83000D02*
X85500D01*
X87700Y-78400D02*
X87900D01*
X2700Y-178800D02*
X3300Y-179400D01*
X15600Y-179300D02*
X16600Y-180300D01*
X4400Y-168692D02*
Y-168000D01*
X3350Y-36183D02*
Y-33124D01*
X3546Y-32928D01*
Y-30708D01*
X2837Y-29999D02*
X3546Y-30708D01*
X2837Y-29999D02*
Y-25429D01*
X4717Y-23550D01*
X17459Y-29331D02*
Y-27363D01*
Y-24900D01*
X19400Y-33300D02*
X20000Y-32700D01*
Y-28400D01*
X20700Y-27700D01*
X25800D01*
X24100Y-24900D02*
X24600Y-25400D01*
X18900Y-24900D02*
X24100D01*
X77822Y-149986D02*
X80961Y-146847D01*
X88428D01*
X79236Y-150350D02*
X85883D01*
X87418Y-148816D01*
X88428D01*
X79650Y-151350D02*
X86950D01*
X87600Y-150700D01*
X88400D01*
X84800Y-152900D02*
X88281D01*
X97190Y-180800D02*
X104250D01*
X104735Y-181285D01*
X108085D02*
X109300Y-182500D01*
X104735Y-181285D02*
X108085D01*
X98106Y-160054D02*
X100852Y-162800D01*
X98000Y-154868D02*
X98106Y-154974D01*
Y-160054D02*
Y-154974D01*
X105300Y-160100D02*
Y-156769D01*
X15100Y-71100D02*
X15769Y-70431D01*
X21398D01*
X96902Y-108432D02*
X102832D01*
X104050Y-109650D01*
X91369Y-108400D02*
Y-104232D01*
X92900Y-102700D01*
X93514Y-69800D02*
X94252Y-69062D01*
X96902D01*
X87686Y-69800D02*
X93514D01*
X89149Y-68800D02*
X93096D01*
X94802Y-67094D02*
X96902D01*
X93096Y-68800D02*
X94802Y-67094D01*
X96902Y-67200D02*
X97100D01*
X81550Y-36250D02*
X83650Y-38350D01*
X77650Y-36250D02*
X81550D01*
X83650Y-38350D02*
X92984D01*
X86450Y-23250D02*
X87700Y-24500D01*
X86450Y-23250D02*
Y-21017D01*
X3041Y-167959D02*
X4563D01*
X2200Y-168800D02*
X3041Y-167959D01*
X2200Y-172632D02*
Y-168800D01*
X75231Y-115800D02*
Y-114931D01*
X50500Y-102037D02*
X54300Y-98237D01*
X50050Y-88150D02*
X52084Y-90184D01*
X38500Y-101800D02*
X40400D01*
X41200Y-101000D01*
X43731D01*
X43731Y-101000D01*
X36100Y-23500D02*
X36800Y-22800D01*
X41330Y-22600D02*
Y-19564D01*
X40250Y-18483D02*
X41330Y-19564D01*
X110828Y-28147D02*
Y-25228D01*
X110300Y-24700D02*
X110828Y-25228D01*
X36450Y-71650D02*
Y-70916D01*
X34400Y-73700D02*
X36450Y-71650D01*
X34400Y-75832D02*
Y-73700D01*
X34300Y-75932D02*
X34400Y-75832D01*
X38179Y-69187D02*
X41487D01*
X36450Y-70916D02*
X38179Y-69187D01*
X104050Y-32050D02*
X105553Y-33553D01*
X95183Y-32050D02*
X103384D01*
X104050D01*
X89550D02*
X95183D01*
X105553Y-34219D02*
Y-33553D01*
X89200Y-41950D02*
X100561D01*
X97723Y-39811D02*
X99077D01*
X99088Y-39822D01*
X100561Y-41950D02*
X101689Y-40822D01*
X99088Y-39822D02*
X106500D01*
X101689Y-40822D02*
X106914D01*
X110900Y-36836D01*
X109450Y-36872D02*
Y-31165D01*
X106500Y-39822D02*
X109450Y-36872D01*
X105372Y-38472D02*
X105500Y-38600D01*
X110900Y-36836D02*
Y-34000D01*
X114500Y-28147D02*
Y-28000D01*
X18300Y-41900D02*
X23702D01*
X23752Y-41850D01*
X23936D01*
X24869Y-40917D01*
Y-39500D01*
X24000Y-43200D02*
X26066Y-41134D01*
X32250Y-39950D02*
Y-37017D01*
X18000Y-43200D02*
X24000D01*
X26066Y-41134D02*
X31066D01*
X32250Y-39950D01*
X56100Y-2600D02*
X58100Y-4600D01*
Y-8100D02*
Y-4600D01*
X49350Y-7583D02*
X49750Y-7183D01*
Y-5464D01*
X48500Y-4214D02*
X49750Y-5464D01*
X49350Y-13783D02*
Y-7583D01*
X63300Y-100568D02*
X63432D01*
X59200Y-109656D02*
X60406Y-108450D01*
X58400Y-109656D02*
X59200D01*
X58100Y-109356D02*
X58400Y-109656D01*
X60406Y-108450D02*
X63250D01*
X50600Y-114000D02*
X52900D01*
X51569Y-109000D02*
X51600Y-109031D01*
Y-110700D02*
Y-109031D01*
Y-110700D02*
X52966Y-112066D01*
X57566D02*
X58000Y-112500D01*
Y-113268D02*
Y-112500D01*
X57768Y-113500D02*
X57968Y-113700D01*
X52966Y-112066D02*
X57566D01*
X57768Y-113500D02*
X58000Y-113268D01*
X67900Y-92632D02*
X68000D01*
X48900Y-72706D02*
Y-72600D01*
X39100Y-76000D02*
Y-76000D01*
X34032Y-80068D02*
X34300Y-79800D01*
X31334Y-94834D02*
X32700Y-96200D01*
Y-100333D02*
Y-96200D01*
X28900Y-93800D02*
X29934Y-94834D01*
X28900Y-93800D02*
Y-91400D01*
X31000Y-89300D01*
X29934Y-94834D02*
X31334D01*
X31000Y-89300D02*
Y-88400D01*
Y-88269D01*
X30900Y-88300D02*
X31000Y-88400D01*
X59800Y-141300D02*
X60031Y-141068D01*
X61900Y-59000D02*
X63266D01*
X90898Y-23500D02*
X100465D01*
X87898Y-20500D02*
X90898Y-23500D01*
X100465D02*
X102984Y-26019D01*
X104953Y-26728D02*
Y-25953D01*
X101500Y-22500D02*
X104953Y-25953D01*
X94800Y-22500D02*
X101500D01*
X86950Y-14650D02*
X94800Y-22500D01*
X10300Y-24900D02*
X14100D01*
X17500Y-29300D02*
X17600Y-29400D01*
X25100Y-39500D02*
Y-39300D01*
X28800Y-34900D02*
X31600Y-32100D01*
Y-27000D01*
X26469Y-34900D02*
X28800D01*
X30134D01*
X41800Y-15567D02*
Y-13400D01*
X44900Y-10300D01*
Y-10100D01*
X36500Y-22800D02*
X36800D01*
X36500D02*
X36700Y-22600D01*
X37000D01*
Y-19550D01*
X37400Y-19150D01*
X38283D01*
X39250Y-18183D01*
Y-16702D01*
X40800Y-15152D01*
Y-11100D01*
X41900Y-10042D02*
Y-10000D01*
X41842Y-10100D02*
X41900Y-10042D01*
X40800Y-11100D02*
X41900Y-10000D01*
X93400Y-120200D02*
X95800D01*
X91369Y-108400D02*
X91500Y-108268D01*
X99616Y-90716D02*
X100400Y-91500D01*
X101300D01*
X102100Y-90700D01*
X98600Y-92500D02*
X102134D01*
X103733Y-90900D01*
X106433Y-97500D02*
X109000D01*
X109400Y-97900D01*
X97776Y-82976D02*
X100476D01*
X101002Y-82450D01*
X107600D01*
X100056Y-84810D02*
X101417Y-83450D01*
X109350D01*
X102100Y-85100D02*
X102200Y-85000D01*
X103733Y-90900D02*
X104600D01*
X98400Y-104200D02*
X102200D01*
X103100Y-105100D01*
Y-106300D02*
Y-105100D01*
X100199Y-100558D02*
X102000Y-98757D01*
X105176D01*
X100710Y-98590D02*
X101543Y-97757D01*
X103943D01*
X69529Y-117877D02*
X70986Y-119334D01*
X69505Y-117900D02*
X69529Y-117877D01*
X102700Y-119700D02*
X104350Y-121350D01*
X105850D01*
X106300Y-121800D01*
X109386D01*
X101800Y-129900D02*
Y-127800D01*
X110750Y-128598D02*
Y-126036D01*
X109750Y-128183D02*
Y-126617D01*
X108783Y-125650D02*
X109750Y-126617D01*
X101516Y-131950D02*
X103550D01*
X96902Y-132802D02*
Y-130086D01*
X92100D02*
X96902D01*
X85300Y-121800D02*
Y-121700D01*
X71916Y-119350D02*
X82950D01*
X104800Y-123000D02*
X105100D01*
X82800Y-123900D02*
X85633D01*
X109600Y-123000D02*
X112000Y-120600D01*
X109386Y-121800D02*
X111000Y-120186D01*
X96902Y-128117D02*
X99517D01*
X105164Y-125650D02*
X108783D01*
X104314Y-125086D02*
X104750Y-124650D01*
X105100Y-123000D02*
X109600D01*
X89600Y-121500D02*
X92100D01*
X93400Y-120200D01*
X100925Y-118275D02*
X101700Y-117500D01*
X97300Y-126000D02*
X100000D01*
X101800Y-127800D01*
X89514Y-127500D02*
X92100Y-130086D01*
X88400Y-127500D02*
X89514D01*
X87900Y-127000D02*
X88400Y-127500D01*
X87900Y-127000D02*
Y-126167D01*
X85633Y-123900D02*
X87900Y-126167D01*
X79300Y-115400D02*
X81300Y-117400D01*
X86950Y-112250D02*
X91650D01*
X74300Y-114700D02*
X74400Y-114800D01*
X74300Y-114700D02*
Y-114100D01*
X85621Y-115221D02*
Y-113579D01*
X86950Y-112250D01*
X86588Y-116188D02*
X96784D01*
X85621Y-115221D02*
X86588Y-116188D01*
X102600Y-72900D02*
X104950D01*
X104350Y-71250D02*
X106000Y-69600D01*
X96902Y-94653D02*
X103181D01*
X106250Y-91584D01*
X100500Y-95653D02*
X103595D01*
X108148Y-91100D01*
X101753Y-122000D02*
X102753Y-123000D01*
X101914Y-125086D02*
X104314D01*
X99040Y-122212D02*
X101914Y-125086D01*
X94300Y-139400D02*
X99000D01*
X100550Y-130983D02*
X101516Y-131950D01*
X100550Y-130983D02*
Y-129150D01*
X99517Y-128117D02*
X100550Y-129150D01*
X101800Y-129900D02*
X102200Y-130300D01*
X103871Y-126943D02*
X105164Y-125650D01*
X102357Y-126943D02*
X103871D01*
X99594Y-124180D02*
X102357Y-126943D01*
X117000Y-178200D02*
Y-163300D01*
X114700Y-166900D02*
X115300Y-167500D01*
X114900Y-162700D02*
X116400D01*
X114800Y-162600D02*
X114900Y-162700D01*
X104750Y-124650D02*
X109364D01*
X110750Y-126036D01*
X106897Y-128950D02*
X108983D01*
X106200Y-129647D02*
X106897Y-128950D01*
X108983D02*
X109750Y-128183D01*
X108500Y-131100D02*
Y-130848D01*
X110750Y-128598D01*
D11*
X62385Y-182415D02*
X62600Y-182200D01*
X100300Y-146900D02*
Y-146800D01*
Y-146900D02*
X101368Y-147968D01*
X102600D01*
X62487Y-88400D02*
X63600Y-89513D01*
X58531Y-88400D02*
X62487D01*
X63600Y-92800D02*
Y-89513D01*
X62200Y-94200D02*
X63600Y-92800D01*
X58200Y-88731D02*
X58531Y-88400D01*
X4584Y-173762D02*
X4646Y-173700D01*
X4584Y-174913D02*
Y-173762D01*
X2700Y-175646D02*
X3434Y-174913D01*
X4584D01*
X2700Y-178900D02*
X3200Y-179400D01*
X2700Y-178900D02*
Y-178800D01*
Y-175646D01*
X5400Y-33400D02*
Y-31500D01*
X7325Y-29316D02*
X7341Y-29331D01*
X4487Y-29316D02*
X7325D01*
X68000Y-93032D02*
X68432D01*
X69600Y-94200D01*
X4646Y-173700D02*
X6300D01*
D12*
X101600Y-152831D02*
D03*
Y-156769D02*
D03*
X19300Y-172831D02*
D03*
Y-176769D02*
D03*
X31000Y-84332D02*
D03*
Y-88269D02*
D03*
X31300Y-105731D02*
D03*
Y-109669D02*
D03*
X43500Y-109069D02*
D03*
Y-105131D02*
D03*
X44500Y-178969D02*
D03*
Y-175031D02*
D03*
X68200Y-158168D02*
D03*
Y-154232D02*
D03*
X54000Y-121168D02*
D03*
Y-117232D02*
D03*
X58100Y-73431D02*
D03*
Y-77368D02*
D03*
X30800Y-80068D02*
D03*
Y-76131D02*
D03*
X92900Y-17268D02*
D03*
Y-13331D02*
D03*
X113300Y-146632D02*
D03*
Y-150568D02*
D03*
X58200Y-92668D02*
D03*
Y-88731D02*
D03*
X68000Y-93032D02*
D03*
Y-96969D02*
D03*
X63300Y-96631D02*
D03*
Y-100568D02*
D03*
X58200Y-85069D02*
D03*
Y-81132D02*
D03*
X58300Y-100368D02*
D03*
Y-96431D02*
D03*
X15900Y-173331D02*
D03*
Y-177269D02*
D03*
X115300Y-178469D02*
D03*
Y-174531D02*
D03*
X98000Y-154868D02*
D03*
Y-150932D02*
D03*
X96600Y-168231D02*
D03*
Y-172169D02*
D03*
X109400Y-154168D02*
D03*
Y-150232D02*
D03*
X93000Y-5632D02*
D03*
Y-9568D02*
D03*
X52100Y-182768D02*
D03*
Y-178832D02*
D03*
X34300Y-75932D02*
D03*
Y-79869D02*
D03*
X102600Y-147968D02*
D03*
Y-144032D02*
D03*
X31600Y-114532D02*
D03*
Y-118468D02*
D03*
X2200Y-176568D02*
D03*
Y-172632D02*
D03*
X18100Y-162132D02*
D03*
Y-166068D02*
D03*
X105300Y-156769D02*
D03*
Y-152831D02*
D03*
X114700Y-166668D02*
D03*
Y-162732D02*
D03*
X87700Y-78732D02*
D03*
Y-82669D02*
D03*
X21800Y-166068D02*
D03*
Y-162132D02*
D03*
X23100Y-176769D02*
D03*
Y-172831D02*
D03*
D13*
X22532Y-34900D02*
D03*
X26469D02*
D03*
X40369Y-84000D02*
D03*
X36432D02*
D03*
X68831Y-104500D02*
D03*
X72768D02*
D03*
X31168Y-176500D02*
D03*
X27231D02*
D03*
X33669Y-159500D02*
D03*
X29732D02*
D03*
X42469Y-139800D02*
D03*
X38532D02*
D03*
X58131Y-177400D02*
D03*
X62068D02*
D03*
X65832Y-178100D02*
D03*
X69769D02*
D03*
X76468Y-141600D02*
D03*
X72531D02*
D03*
X57468Y-144500D02*
D03*
X53531D02*
D03*
X47269Y-159400D02*
D03*
X43332D02*
D03*
X87432Y-108400D02*
D03*
X91369D02*
D03*
X38032Y-135300D02*
D03*
X41969D02*
D03*
X20932Y-39500D02*
D03*
X24869D02*
D03*
X84768Y-179800D02*
D03*
X80831D02*
D03*
X48968Y-72600D02*
D03*
X45031D02*
D03*
X67132Y-112000D02*
D03*
X71069D02*
D03*
X43231Y-121400D02*
D03*
X47168D02*
D03*
X41431Y-111900D02*
D03*
X45368D02*
D03*
X28332Y-165700D02*
D03*
X32269D02*
D03*
X34431Y-143900D02*
D03*
X38368D02*
D03*
X38168Y-153800D02*
D03*
X34231D02*
D03*
X48131Y-90200D02*
D03*
X52069D02*
D03*
X67032Y-85100D02*
D03*
X70969D02*
D03*
Y-90000D02*
D03*
X67032D02*
D03*
X80269Y-88300D02*
D03*
X76332D02*
D03*
X39031Y-76000D02*
D03*
X42968D02*
D03*
X59931Y-128900D02*
D03*
X63868D02*
D03*
X70631Y-74200D02*
D03*
X74568D02*
D03*
X77069Y-174800D02*
D03*
X73132D02*
D03*
X71768Y-138000D02*
D03*
X67831D02*
D03*
X79232Y-124100D02*
D03*
X83169D02*
D03*
X60031Y-141300D02*
D03*
X63968D02*
D03*
X57631Y-159400D02*
D03*
X61568D02*
D03*
X75032Y-115400D02*
D03*
X78969D02*
D03*
X43731Y-101000D02*
D03*
X47668D02*
D03*
X38368Y-147500D02*
D03*
X34431D02*
D03*
X57968Y-113700D02*
D03*
X54031D02*
D03*
X47631Y-109000D02*
D03*
X51569D02*
D03*
X49169Y-80100D02*
D03*
X45232D02*
D03*
X82032Y-184000D02*
D03*
X85969D02*
D03*
X77768D02*
D03*
X73831D02*
D03*
X34631Y-171100D02*
D03*
X38568D02*
D03*
X21969Y-158400D02*
D03*
X18032D02*
D03*
X83232Y-100400D02*
D03*
X87169D02*
D03*
X87300Y-91200D02*
D03*
X83363D02*
D03*
X80563Y-95300D02*
D03*
X84500D02*
D03*
X83332Y-87400D02*
D03*
X87269D02*
D03*
X87868Y-72800D02*
D03*
X83931D02*
D03*
X81269Y-83000D02*
D03*
X77332D02*
D03*
X112169Y-177400D02*
D03*
X108231D02*
D03*
D14*
X88744Y-179800D02*
D03*
X94256D02*
D03*
D15*
X23600Y-25144D02*
D03*
Y-30656D02*
D03*
X25700Y-18956D02*
D03*
Y-13444D02*
D03*
X58100Y-109356D02*
D03*
Y-103844D02*
D03*
X6300Y-179256D02*
D03*
Y-173744D02*
D03*
X11400D02*
D03*
Y-179256D02*
D03*
X99100Y-183156D02*
D03*
Y-177644D02*
D03*
D21*
X99047Y-26728D02*
D03*
X101016D02*
D03*
X102984D02*
D03*
X104953D02*
D03*
X99047Y-30272D02*
D03*
X101016D02*
D03*
X102984D02*
D03*
X104953D02*
D03*
X105553Y-38472D02*
D03*
X103584D02*
D03*
X101616D02*
D03*
X99647D02*
D03*
X105553Y-34928D02*
D03*
X103584D02*
D03*
X101616D02*
D03*
X99647D02*
D03*
D22*
X114372Y-28147D02*
D03*
Y-30116D02*
D03*
Y-32084D02*
D03*
Y-34053D02*
D03*
X110828Y-28147D02*
D03*
Y-30116D02*
D03*
Y-32084D02*
D03*
Y-34053D02*
D03*
X91972Y-146847D02*
D03*
Y-148816D02*
D03*
Y-150784D02*
D03*
Y-152753D02*
D03*
X88428Y-146847D02*
D03*
Y-148816D02*
D03*
Y-150784D02*
D03*
Y-152753D02*
D03*
X89228Y-175353D02*
D03*
Y-173384D02*
D03*
Y-171416D02*
D03*
Y-169447D02*
D03*
X92772Y-175353D02*
D03*
Y-173384D02*
D03*
Y-171416D02*
D03*
Y-169447D02*
D03*
D25*
X14277Y-194694D02*
D03*
X17426D02*
D03*
X20576D02*
D03*
X23726D02*
D03*
X26875D02*
D03*
X30025D02*
D03*
X33174D02*
D03*
X36324D02*
D03*
X52072D02*
D03*
X55222D02*
D03*
X58371D02*
D03*
X61521D02*
D03*
X64670D02*
D03*
X67820D02*
D03*
X70970D02*
D03*
X74119D02*
D03*
X77269D02*
D03*
X80418D02*
D03*
X83568D02*
D03*
X86718D02*
D03*
X89867D02*
D03*
X93017D02*
D03*
X96166D02*
D03*
X99316D02*
D03*
X102466D02*
D03*
X105615D02*
D03*
D30*
X54000Y-121168D02*
X56077D01*
X56304Y-121396D01*
Y-122804D02*
Y-121396D01*
Y-122804D02*
X57500Y-124000D01*
X59000D01*
X59900Y-123100D01*
Y-120700D01*
X60600Y-120000D01*
X63100D01*
X63900Y-120800D01*
Y-122800D02*
Y-120800D01*
Y-122800D02*
X64800Y-123700D01*
X65800D01*
X67100Y-132300D02*
Y-125000D01*
X69713Y-140687D02*
Y-134913D01*
X65800Y-123700D02*
X67100Y-125000D01*
Y-132300D02*
X69713Y-134913D01*
X53700Y-63200D02*
X53800Y-63300D01*
X85000Y-110300D02*
X86900Y-108400D01*
X87432D01*
X52100Y-61600D02*
Y-58596D01*
X50604Y-57100D02*
X52100Y-58596D01*
X46200Y-55100D02*
X48200Y-57100D01*
X50604D01*
X52100Y-61600D02*
X53700Y-63200D01*
X37700Y-118200D02*
X39900Y-116000D01*
X86896Y-140100D02*
X86996Y-140200D01*
X83096Y-140100D02*
X86896D01*
X81400Y-138404D02*
X83096Y-140100D01*
X81400Y-138404D02*
Y-137200D01*
X39900Y-114000D02*
X41400Y-112500D01*
X39900Y-116000D02*
Y-114000D01*
X84696Y-157000D02*
X87536D01*
X64900Y-159600D02*
X65600Y-160300D01*
X81296Y-160400D02*
X84696Y-157000D01*
X65600Y-160300D02*
X77129D01*
X77229Y-160400D01*
X81296D01*
X47466Y-90866D02*
X48131Y-90200D01*
X86996Y-140200D02*
X93500D01*
D31*
X81340Y-59386D02*
X85314D01*
X81500Y-66800D02*
X81600Y-66900D01*
X81500Y-66800D02*
Y-59700D01*
X58100Y-73431D02*
X60808D01*
X61800Y-74424D01*
X56178Y-72778D02*
Y-65678D01*
X56832Y-73431D02*
X58100D01*
X56178Y-72778D02*
X56832Y-73431D01*
X53800Y-63300D02*
X56178Y-65678D01*
X94647Y-146847D02*
X96250Y-148450D01*
X96136Y-148564D02*
X96364D01*
X100963Y-174746D02*
Y-173159D01*
Y-174761D02*
Y-174746D01*
X100385Y-179635D02*
X105798D01*
X99100Y-178350D02*
X100385Y-179635D01*
X99100Y-178350D02*
Y-177644D01*
X67700Y-72421D02*
Y-70000D01*
X66966Y-73334D02*
X67650Y-72650D01*
Y-72470D01*
X67700Y-72421D01*
X67072Y-69372D02*
X67700Y-70000D01*
X67072Y-65780D02*
X69529Y-63323D01*
X62889Y-73334D02*
X66966D01*
X103760Y-50500D02*
X105760Y-52500D01*
X93467Y-50500D02*
X103760D01*
X105760Y-52500D02*
X109000D01*
X26800Y-23800D02*
X28400D01*
X54320Y-25480D02*
Y-21810D01*
X28400Y-23800D02*
X31600Y-27000D01*
X52800D01*
X54320Y-25480D01*
X60074Y-84800D02*
X61655Y-86380D01*
X64700Y-83418D02*
Y-79300D01*
Y-83418D02*
X65754Y-84472D01*
X67032D01*
X67072Y-69372D02*
Y-65780D01*
X32816Y-71792D02*
Y-65168D01*
X54181Y-78907D02*
Y-78200D01*
X56146Y-84746D02*
Y-80871D01*
X32816Y-65168D02*
X34661Y-63323D01*
X33165Y-120200D02*
X41835D01*
X67032Y-85100D02*
Y-84472D01*
Y-85505D02*
Y-85100D01*
X65592Y-86945D02*
X67032Y-85505D01*
X34100Y-118400D02*
X34800D01*
X69400Y-117900D02*
X69453Y-117953D01*
X61700Y-110100D02*
X63700Y-112100D01*
X67100Y-193974D02*
Y-180700D01*
X88800Y-55167D02*
X93467Y-50500D01*
X109000Y-52500D02*
X109800Y-51700D01*
X54346Y-86945D02*
X56132Y-88731D01*
X52100Y-84900D02*
X58000D01*
X63700Y-112100D02*
X67000D01*
X55204Y-124025D02*
X57079Y-125900D01*
X58000D01*
X47300Y-118200D02*
X48525Y-119425D01*
X46300Y-118200D02*
X47300D01*
X50316Y-117784D02*
X50500Y-117600D01*
X45100Y-112300D02*
X45200Y-112200D01*
X46900D01*
X39022Y-129970D02*
X42230D01*
X42100Y-120200D02*
X43400Y-121500D01*
X41835Y-120200D02*
X43035Y-121400D01*
X41835Y-120200D02*
X42100D01*
X61568Y-159400D02*
X64900D01*
X67100Y-180700D02*
X69800Y-178000D01*
X67100Y-193974D02*
X67820Y-194694D01*
X92400Y-143000D02*
X93500Y-144100D01*
X44500Y-170300D02*
X47700D01*
X54181Y-78907D02*
X56146Y-80871D01*
X50409Y-83209D02*
X52100Y-84900D01*
X56000Y-53100D02*
X57900Y-51200D01*
X48000Y-53100D02*
X56000D01*
X32600Y-3000D02*
X40746D01*
X42900Y-5154D01*
Y-5500D02*
Y-5154D01*
X42469Y-141168D02*
Y-141068D01*
Y-141168D02*
X45000Y-143700D01*
X42469Y-141068D02*
X42500Y-141100D01*
X42469Y-141068D02*
Y-139800D01*
X43035Y-121400D02*
X43231D01*
X44500Y-175031D02*
Y-170300D01*
X44500Y-170300D02*
X44500Y-170300D01*
X42230Y-129970D02*
X45400Y-126800D01*
Y-123659D01*
X53531Y-144500D02*
X57432Y-148400D01*
X58200Y-85069D02*
X58469Y-84800D01*
X60074D01*
X56132Y-88731D02*
X58200D01*
X58000Y-85069D02*
X58200D01*
X61800Y-74424D02*
X62889Y-73334D01*
X64900Y-159400D02*
Y-156200D01*
X46200Y-54900D02*
X48000Y-53100D01*
X42500Y-141100D02*
Y-139700D01*
X57432Y-148400D02*
X60600D01*
X85314Y-59386D02*
X88700Y-56000D01*
X29100Y-6500D02*
X32600Y-3000D01*
X34800Y-118400D02*
X36300Y-119900D01*
X50300Y-117800D02*
Y-117431D01*
X69900Y-177631D02*
Y-175000D01*
X44400Y-170300D02*
X44500D01*
X20600Y-56700D02*
X21500D01*
X31600Y-176100D02*
X31900Y-176400D01*
X67820Y-194694D02*
Y-194180D01*
X32200Y-60600D02*
X34700Y-63100D01*
X30800Y-76200D02*
Y-73808D01*
X32816Y-71792D01*
X31165Y-122200D02*
X33165Y-120200D01*
X30400Y-122200D02*
X31165D01*
X80800Y-179500D02*
Y-175100D01*
X80700Y-179600D02*
X80800Y-179500D01*
Y-175000D02*
X80850Y-175050D01*
X94256Y-179800D02*
Y-178544D01*
X95600Y-177200D01*
X98700D01*
X92200Y-188000D02*
X94300Y-185900D01*
X98500D01*
X99200Y-185200D01*
X89100Y-188000D02*
X92200D01*
X99200Y-185200D02*
Y-183100D01*
X64700Y-79300D02*
X65978Y-78022D01*
X99800Y-158946D02*
X102931Y-162077D01*
X99800Y-153700D02*
X100800Y-152700D01*
X102931Y-162319D02*
Y-162077D01*
X99800Y-158946D02*
Y-157667D01*
Y-153700D01*
X100800Y-152700D02*
X101900D01*
X31200Y-176500D02*
Y-176200D01*
X29732Y-159500D02*
X29800D01*
X91972Y-146847D02*
X94647D01*
X106419Y-179014D02*
X107739D01*
X105798Y-179635D02*
X106419Y-179014D01*
X31100Y-55200D02*
X32200Y-56300D01*
Y-60600D02*
Y-56300D01*
X47946Y-123900D02*
X48071Y-124025D01*
X45731Y-123900D02*
X47946D01*
X48071Y-124025D02*
X55204D01*
X43231Y-121400D02*
X45445Y-123614D01*
X45400Y-123659D02*
X45445Y-123614D01*
X45731Y-123900D01*
X50500Y-117600D02*
Y-117400D01*
X48525Y-119425D02*
X51575D01*
X53700Y-117300D01*
X54000Y-117232D02*
X62600D01*
X46900Y-112200D02*
X48184Y-113484D01*
Y-115316D02*
Y-113484D01*
Y-115316D02*
X50300Y-117431D01*
X106869Y-174109D02*
Y-173159D01*
X25400Y-22400D02*
X26800Y-23800D01*
X25400Y-22400D02*
Y-21900D01*
X76468Y-141600D02*
X84600D01*
X86000Y-143000D01*
X92400D01*
X98600Y-142800D02*
X101400Y-140000D01*
Y-139600D01*
X98300Y-144100D02*
X98600Y-143800D01*
X97300Y-144100D02*
X98300D01*
X98600Y-143800D02*
Y-142800D01*
X93500Y-144100D02*
X97300D01*
X98600Y-142800D01*
D32*
X98769Y-150232D02*
X109400D01*
X85431Y-110400D02*
X87432Y-108400D01*
X93000Y-157847D02*
X94658D01*
X104900Y-177800D02*
Y-173159D01*
X100963Y-174746D02*
X102017Y-175800D01*
X103000D01*
X102600Y-144032D02*
X104569D01*
X30800Y-80068D02*
X34032D01*
X67000Y-112100D02*
X67132D01*
X68831Y-105731D02*
X69800Y-106700D01*
X68831Y-105731D02*
Y-104500D01*
X64700Y-194665D02*
Y-183100D01*
X64670Y-194694D02*
Y-183130D01*
X67132Y-112100D02*
Y-112000D01*
X64700Y-183100D02*
Y-179300D01*
X60331Y-81132D02*
X61800Y-82600D01*
X87300Y-92400D02*
X89100Y-94200D01*
X84500Y-95300D02*
X85400Y-96200D01*
X92772Y-171416D02*
Y-169447D01*
X58200Y-81132D02*
Y-77600D01*
Y-81132D02*
X60331D01*
X85400Y-98200D02*
Y-96200D01*
X33460Y-11220D02*
Y-6660D01*
X92700Y-5331D02*
Y-3100D01*
X32500Y-5700D02*
X33460Y-6660D01*
X91431Y-15800D02*
X92900Y-17268D01*
X28332Y-166769D02*
Y-165700D01*
X27200Y-167900D02*
X28332Y-166769D01*
X87300Y-92400D02*
Y-91200D01*
X38532Y-143832D02*
Y-139800D01*
Y-135932D01*
X104900Y-165500D02*
Y-163041D01*
X64670Y-194694D02*
X64700Y-194665D01*
X66000Y-175200D02*
X66100Y-175300D01*
X23100Y-179600D02*
Y-178900D01*
Y-179600D02*
X24200Y-180700D01*
X26700D01*
X27400Y-180000D01*
Y-176800D01*
X27200Y-176600D02*
X27400Y-176800D01*
X102931Y-173159D02*
Y-170168D01*
X15600Y-179500D02*
Y-179300D01*
X99316Y-194694D02*
Y-189116D01*
X98400Y-188200D02*
X99316Y-189116D01*
X96800Y-188200D02*
X98400D01*
X64670Y-183130D02*
X64700Y-183100D01*
X66100Y-177700D02*
Y-175300D01*
X31600Y-114532D02*
Y-110300D01*
X31300Y-109669D02*
X32732D01*
X34000Y-108400D01*
X34100Y-108300D02*
Y-106400D01*
X34400Y-106300D02*
X35568Y-105131D01*
X43500D01*
X44368D01*
X47300Y-102200D01*
X47668Y-103368D02*
Y-101000D01*
Y-103368D02*
X50300Y-106000D01*
X51569Y-109000D02*
Y-107332D01*
X52700Y-106200D01*
X50300Y-106000D02*
X54200D01*
X72768Y-105368D02*
Y-104500D01*
Y-105368D02*
X73800Y-106400D01*
X79300Y-90700D02*
X80300Y-89700D01*
X77500Y-90700D02*
X79300D01*
X80300Y-89700D02*
Y-88468D01*
Y-88300D01*
X42300Y-76900D02*
X43100Y-76100D01*
X49169Y-80100D02*
X49400Y-79869D01*
Y-79300D01*
X50500Y-78200D01*
X51900D01*
X28058Y-151646D02*
X30147D01*
X32200Y-153700D01*
X34500D01*
X35800Y-175000D02*
X36200D01*
X38300Y-172900D01*
Y-172500D01*
Y-171000D01*
X19300Y-178900D02*
X20500Y-180100D01*
X20800D01*
X19300Y-178900D02*
Y-176769D01*
X15600Y-179500D02*
X16400Y-180300D01*
X15600Y-179300D02*
Y-176769D01*
X106800Y-153000D02*
X107900Y-154100D01*
X107783Y-159541D02*
Y-157617D01*
X109300Y-156100D02*
Y-154800D01*
X107783Y-157617D02*
X109300Y-156100D01*
X110541Y-163041D02*
X111400Y-163900D01*
X108837Y-163041D02*
X110541D01*
X107783Y-160383D02*
Y-159541D01*
Y-160383D02*
X108800Y-161400D01*
Y-162500D02*
Y-161400D01*
X113300Y-152100D02*
Y-151800D01*
X104569Y-144032D02*
X104868D01*
X105600Y-143300D01*
X7341Y-31300D02*
Y-29331D01*
Y-33268D02*
Y-31300D01*
X30700Y-175900D02*
X31000Y-176200D01*
X30700Y-175900D02*
Y-173300D01*
X57214Y-167414D02*
Y-167174D01*
X58131Y-177400D02*
Y-168332D01*
X57214Y-167414D02*
X58131Y-168332D01*
X60100Y-170300D01*
X27100Y-162100D02*
Y-159900D01*
X27500Y-159500D01*
X29732D01*
X47269Y-159400D02*
X53900D01*
X54300Y-159000D01*
X41969Y-135300D02*
Y-132917D01*
X39022Y-129970D02*
X41969Y-132917D01*
X62068Y-177400D02*
X65800D01*
X66100Y-177700D02*
X66200Y-177800D01*
X65800Y-177400D02*
X66100Y-177700D01*
X64700Y-179300D02*
X66200Y-177800D01*
X109400Y-150232D02*
Y-148000D01*
X110768Y-146632D02*
X113300D01*
X109400Y-148000D02*
X110768Y-146632D01*
X8500Y-157841D02*
Y-155600D01*
X25700Y-18956D02*
X29100Y-15556D01*
Y-6500D01*
X81277Y-83008D02*
X85277D01*
X81269Y-83000D02*
X81277Y-83008D01*
X85277Y-79071D02*
X87428D01*
X87700Y-78800D01*
X85277Y-75134D02*
X87711Y-72700D01*
X87900D01*
X89214Y-74014D01*
Y-75134D02*
Y-74014D01*
X87300Y-91200D02*
Y-87432D01*
X87269Y-87400D02*
X87300Y-87432D01*
X87169Y-100400D02*
X88769Y-102000D01*
X89300D01*
X80563Y-96163D02*
Y-95300D01*
Y-96163D02*
X83232Y-98831D01*
Y-100400D02*
Y-98831D01*
X5844Y-33548D02*
X7061D01*
X7341Y-33268D01*
X5258Y-34134D02*
X5844Y-33548D01*
X4400Y-151500D02*
X7946Y-155046D01*
X8500Y-155600D01*
X92772Y-175353D02*
X93364Y-174761D01*
X92772Y-175353D02*
Y-173384D01*
Y-171416D01*
X94516D01*
X95400Y-172300D01*
X96200D01*
X96500Y-172069D02*
Y-172000D01*
Y-172069D02*
X96600Y-172169D01*
X96200Y-172300D02*
X96500Y-172000D01*
X87500Y-160236D02*
X91017Y-163753D01*
X87500Y-160236D02*
Y-157036D01*
X87536Y-157000D01*
X88557Y-155979D01*
X96600Y-168231D02*
X96756Y-168076D01*
X96600Y-168231D02*
X104769D01*
X104900Y-168100D01*
X96756Y-168076D02*
Y-159945D01*
X94658Y-157847D02*
X96756Y-159945D01*
X101600Y-152831D02*
X105032D01*
X105300D01*
X105032D02*
X105200Y-153000D01*
X106800D01*
X109400Y-154168D02*
X111232D01*
X107900Y-154100D02*
X109700D01*
X111232Y-154168D02*
X113300Y-152100D01*
X71069Y-112200D02*
Y-112000D01*
X73100Y-112200D02*
X74300Y-113400D01*
X71069Y-112200D02*
X73100D01*
X46505Y-93500D02*
X47300D01*
X48300Y-92500D01*
Y-90368D01*
X48131Y-90200D02*
X48300Y-90368D01*
X46300Y-98100D02*
X46437D01*
X52069Y-92469D02*
Y-90200D01*
X46437Y-98100D02*
X52069Y-92469D01*
X107572Y-30272D02*
X107800Y-30500D01*
X99047Y-30272D02*
X101016D01*
X102984D01*
X104953D01*
X107572D01*
X99647Y-38472D02*
X101616D01*
X103584D01*
X105372D01*
X105553D01*
X105928D01*
X107800Y-36600D01*
Y-30500D01*
X112700Y-36100D02*
X114372Y-34428D01*
Y-34053D01*
Y-32084D01*
Y-30116D01*
Y-28147D01*
X57978Y-67000D02*
Y-65622D01*
X59100Y-64500D01*
X62510D01*
X62610Y-64600D01*
X93424Y-151300D02*
X94800D01*
X58100Y-103844D02*
X59939D01*
X61655Y-102129D01*
X63432Y-100568D02*
X64357D01*
X65810Y-99116D01*
X61655Y-102129D02*
X61740D01*
X63300Y-100568D01*
X48968Y-72637D02*
Y-72600D01*
X46472Y-75134D02*
X48900Y-72706D01*
X48968Y-72637D01*
X42300Y-82800D02*
Y-76900D01*
X37700Y-80100D02*
X39031Y-78768D01*
X34532Y-80100D02*
X37700D01*
X34300Y-79869D02*
X34532Y-80100D01*
X39031Y-78768D02*
Y-76000D01*
X31000Y-88269D02*
X33832D01*
X34300Y-87800D01*
Y-86500D01*
X36000D01*
X36432Y-86068D01*
Y-84000D01*
X57468Y-142131D02*
X58300Y-141300D01*
X57468Y-143631D02*
Y-142131D01*
X58300Y-141300D02*
X59800D01*
X60031D01*
X106869Y-175368D02*
Y-174109D01*
X107739Y-179014D02*
X108231Y-178521D01*
Y-177400D01*
Y-176732D01*
X106869Y-175368D02*
X108231Y-176732D01*
X93364Y-174761D02*
X100963D01*
X92772Y-169447D02*
Y-164828D01*
X93000Y-164600D01*
X91017Y-163753D02*
X93000D01*
Y-164600D02*
Y-163753D01*
X91065Y-152753D02*
X91972D01*
X90117Y-153700D02*
X91065Y-152753D01*
X90117Y-154394D02*
Y-153700D01*
X88557Y-155954D02*
X90117Y-154394D01*
X88557Y-155979D02*
Y-155954D01*
X91972Y-152753D02*
Y-150784D01*
Y-148816D01*
Y-146847D01*
Y-152753D02*
X93424Y-151300D01*
X14100Y-24900D02*
X17459D01*
X17000Y-24300D02*
X17400Y-23900D01*
X73800Y-106400D02*
X73900Y-106500D01*
X81200Y-129900D02*
X86400Y-135100D01*
X85000Y-110400D02*
X85431D01*
X74300Y-114100D02*
Y-113400D01*
X78100Y-129900D02*
X81200D01*
X86400Y-135100D02*
X97700D01*
X101500Y-138900D01*
X112800Y-172000D02*
X113300D01*
X111400Y-170600D02*
X112800Y-172000D01*
X111400Y-170600D02*
Y-163900D01*
D33*
X86000Y-188000D02*
X86800Y-188800D01*
Y-192500D02*
Y-188800D01*
X86600Y-192700D02*
X86800Y-192500D01*
X105615Y-194694D02*
X105900Y-194410D01*
X106400Y-137566D02*
Y-136206D01*
Y-137566D02*
X109698D01*
X14277Y-194694D02*
Y-188477D01*
X14200Y-188400D02*
X14277Y-188477D01*
X17400Y-188000D02*
X17426Y-188026D01*
Y-194694D02*
Y-188026D01*
X52072Y-194694D02*
Y-189572D01*
X109698Y-45834D02*
Y-41598D01*
X4634Y-45234D02*
X8602D01*
X4300Y-44900D02*
X4634Y-45234D01*
X4300Y-44900D02*
Y-43300D01*
X2700D02*
X4300D01*
X8602Y-144298D02*
Y-136966D01*
X8300Y-144600D02*
X8602Y-144298D01*
X5500Y-144600D02*
X8300D01*
X5500D02*
X5600Y-144700D01*
X11600D01*
X18375Y-39500D02*
X20932D01*
X13241Y-38000D02*
X16875D01*
X18375Y-39500D01*
X84768Y-179800D02*
Y-177732D01*
X85500Y-177000D01*
X88900Y-179800D02*
X89100Y-179600D01*
X84768Y-179800D02*
X88744D01*
X88900D01*
X106200Y-187300D02*
Y-185600D01*
X105900Y-194410D02*
Y-187500D01*
X106200Y-185600D02*
X109300Y-182500D01*
X109800D01*
X50700Y-188200D02*
X52072Y-189572D01*
X49100Y-188200D02*
X50700D01*
X77269Y-189331D02*
X78600Y-188000D01*
X77269Y-194694D02*
Y-189331D01*
X78600Y-188000D02*
X86000D01*
X89100D01*
X99100Y-183156D02*
Y-182800D01*
X3200Y-155637D02*
X4563Y-157000D01*
X109800Y-182500D02*
X111900Y-180400D01*
X8900Y-167959D02*
X10059D01*
X102466Y-191066D02*
Y-183031D01*
X99100Y-182800D02*
X102466D01*
X102697D02*
X103722Y-183825D01*
X6932Y-167959D02*
X7000D01*
X11356Y-173700D02*
X11400Y-173744D01*
X8800Y-173700D02*
X11356D01*
X9800Y-172200D02*
X9856D01*
X11356Y-173700D01*
X11400Y-173744D02*
Y-172300D01*
X9922Y-170822D02*
X11400Y-172300D01*
X9922Y-170822D02*
X10348Y-170395D01*
Y-169100D01*
X100394Y-133900D02*
X100594Y-133700D01*
X101694Y-134800D01*
X104994D01*
X106400Y-136206D01*
X99600Y-133900D02*
X100394D01*
D34*
X11520Y-11427D02*
D03*
X106795D02*
D03*
D35*
X61900Y-106800D02*
D03*
X26500Y-109800D02*
D03*
X54000Y-110400D02*
D03*
X14700Y-109900D02*
D03*
X12100Y-114200D02*
D03*
X26300Y-121600D02*
D03*
X94800Y-151300D02*
D03*
X103000Y-175800D02*
D03*
X104900Y-177800D02*
D03*
X2500Y-69200D02*
D03*
X85400Y-148500D02*
D03*
X85500Y-126100D02*
D03*
X98600Y-143800D02*
D03*
X97700Y-146600D02*
D03*
X96364Y-148564D02*
D03*
X100300Y-146800D02*
D03*
X105500Y-143300D02*
D03*
X74700Y-179900D02*
D03*
X73100Y-176500D02*
D03*
X15300Y-48000D02*
D03*
X26176Y-64076D02*
D03*
X26600Y-66400D02*
D03*
X21700Y-45500D02*
D03*
X66200Y-54800D02*
D03*
X58000Y-51230D02*
D03*
X57400Y-40600D02*
D03*
X61367Y-35966D02*
D03*
X63900Y-38100D02*
D03*
X69200Y-39900D02*
D03*
X69800Y-54700D02*
D03*
X69529Y-63323D02*
D03*
X77400Y-70900D02*
D03*
X74000Y-70800D02*
D03*
X81600Y-66900D02*
D03*
X65592Y-75134D02*
D03*
X65500Y-59300D02*
D03*
X77600Y-63500D02*
D03*
X81500Y-59700D02*
D03*
X85277Y-67260D02*
D03*
X81400Y-71700D02*
D03*
X81340Y-75134D02*
D03*
X58315Y-70600D02*
D03*
X54200Y-70800D02*
D03*
X50100Y-70300D02*
D03*
X50409Y-83008D02*
D03*
X54000Y-82800D02*
D03*
X42300D02*
D03*
X89180Y-64064D02*
D03*
X92600Y-59400D02*
D03*
X102100Y-56700D02*
D03*
X102600Y-53300D02*
D03*
X104000Y-48700D02*
D03*
X103400Y-45400D02*
D03*
X77403Y-75134D02*
D03*
X88600Y-59300D02*
D03*
X89700Y-66700D02*
D03*
X104200Y-55000D02*
D03*
X101400Y-62500D02*
D03*
X53700Y-63200D02*
D03*
X49400Y-62600D02*
D03*
X89214Y-75134D02*
D03*
X85277D02*
D03*
X46000Y-47600D02*
D03*
X77403Y-79071D02*
D03*
X65956Y-78000D02*
D03*
X66500Y-82672D02*
D03*
X61655Y-86380D02*
D03*
X61800Y-82800D02*
D03*
X38100Y-54900D02*
D03*
X38800Y-59200D02*
D03*
X34000Y-59000D02*
D03*
X30400Y-59100D02*
D03*
X30700Y-63500D02*
D03*
X34800Y-67400D02*
D03*
Y-70900D02*
D03*
X43300Y-37500D02*
D03*
X42500Y-55000D02*
D03*
X42300Y-59300D02*
D03*
X38100Y-51200D02*
D03*
X31100Y-55200D02*
D03*
X30500Y-71300D02*
D03*
X46472Y-86945D02*
D03*
X38100Y-74700D02*
D03*
X50100Y-86500D02*
D03*
X54181Y-78200D02*
D03*
X51783Y-78408D02*
D03*
X46505Y-93500D02*
D03*
X50500Y-101900D02*
D03*
X42700Y-93400D02*
D03*
X34550Y-51317D02*
D03*
X50300Y-67000D02*
D03*
X46200D02*
D03*
X38500Y-101800D02*
D03*
X34100Y-106400D02*
D03*
X26700Y-79200D02*
D03*
X26800Y-58700D02*
D03*
X26700Y-83100D02*
D03*
X73800Y-87000D02*
D03*
X10757Y-99252D02*
D03*
Y-104790D02*
D03*
X11700Y-110900D02*
D03*
X12900Y-117500D02*
D03*
X13200Y-120800D02*
D03*
X14000Y-124200D02*
D03*
X12000Y-102800D02*
D03*
X13000Y-105800D02*
D03*
X14375Y-102858D02*
D03*
X15300Y-106300D02*
D03*
X9500Y-95950D02*
D03*
X13000Y-98100D02*
D03*
X11800Y-95500D02*
D03*
X10700Y-116300D02*
D03*
X11100Y-119600D02*
D03*
X15300Y-118200D02*
D03*
X54200Y-106200D02*
D03*
X12900Y-73100D02*
D03*
X18329Y-74446D02*
D03*
X10600Y-73900D02*
D03*
X26400Y-91200D02*
D03*
X26200Y-98600D02*
D03*
X38200Y-114500D02*
D03*
X70100Y-109700D02*
D03*
X77800Y-102300D02*
D03*
X70192Y-98800D02*
D03*
X65737Y-109716D02*
D03*
X15100Y-71100D02*
D03*
X14100Y-78900D02*
D03*
X13200Y-81400D02*
D03*
X14200Y-84900D02*
D03*
X11900Y-85200D02*
D03*
X10800Y-71500D02*
D03*
X10600Y-67400D02*
D03*
X12000Y-69400D02*
D03*
X14200Y-66600D02*
D03*
X74000Y-82700D02*
D03*
X65592Y-86945D02*
D03*
X73730Y-78100D02*
D03*
X61700Y-90300D02*
D03*
X73900Y-90400D02*
D03*
X77500Y-90700D02*
D03*
Y-94400D02*
D03*
X11900Y-88700D02*
D03*
X11100Y-79000D02*
D03*
X14700Y-90600D02*
D03*
X2200Y-116100D02*
D03*
X22700Y-133700D02*
D03*
X19500Y-139000D02*
D03*
X2100Y-112700D02*
D03*
X34100Y-118400D02*
D03*
X37700Y-118200D02*
D03*
X34200Y-122000D02*
D03*
X34400Y-129900D02*
D03*
X42500Y-114483D02*
D03*
X73900Y-110200D02*
D03*
X104500Y-114500D02*
D03*
X73700Y-102200D02*
D03*
X61700Y-110100D02*
D03*
X66000Y-102500D02*
D03*
X93000Y-102600D02*
D03*
X93100Y-106000D02*
D03*
X85600Y-106200D02*
D03*
X105000Y-116900D02*
D03*
X103916Y-80101D02*
D03*
X103900Y-76800D02*
D03*
X104100Y-109600D02*
D03*
X103100Y-106300D02*
D03*
X105500Y-103900D02*
D03*
X85277Y-98191D02*
D03*
X89214D02*
D03*
X77900Y-181400D02*
D03*
X92600Y-98100D02*
D03*
X77900Y-179100D02*
D03*
X69300Y-184700D02*
D03*
X37100Y-179400D02*
D03*
Y-177000D02*
D03*
X69300Y-182400D02*
D03*
X53500Y-182600D02*
D03*
X35800Y-175000D02*
D03*
X30700Y-173300D02*
D03*
X65810Y-99116D02*
D03*
X62257Y-94150D02*
D03*
X65600Y-94300D02*
D03*
X77600Y-98700D02*
D03*
X104300Y-58200D02*
D03*
X106600Y-58300D02*
D03*
X110800Y-61200D02*
D03*
X113400D02*
D03*
X107300Y-50700D02*
D03*
X109800Y-51700D02*
D03*
X108900Y-54300D02*
D03*
X51300Y-3900D02*
D03*
X53900Y-2600D02*
D03*
X64200Y-5900D02*
D03*
X64900Y-3600D02*
D03*
X68700Y-4400D02*
D03*
X53600Y-5400D02*
D03*
X48500Y-4200D02*
D03*
X44400Y-16800D02*
D03*
X51200Y-17700D02*
D03*
X85500Y-55300D02*
D03*
X88800Y-55167D02*
D03*
X95100Y-44500D02*
D03*
X89214Y-94254D02*
D03*
X46200Y-114200D02*
D03*
X43000Y-125992D02*
D03*
X27600Y-156500D02*
D03*
X78900Y-166900D02*
D03*
X62600Y-182200D02*
D03*
X13400Y-93300D02*
D03*
X14400Y-62050D02*
D03*
X13300Y-58600D02*
D03*
X14000Y-51300D02*
D03*
X30300Y-18400D02*
D03*
X16400Y-44700D02*
D03*
X14700Y-43000D02*
D03*
X13200Y-38100D02*
D03*
X66000Y-114300D02*
D03*
X61900Y-101900D02*
D03*
X26500Y-126800D02*
D03*
X54346Y-86945D02*
D03*
X61800Y-74800D02*
D03*
X61900Y-78100D02*
D03*
X46200Y-55100D02*
D03*
X81486Y-54324D02*
D03*
X18900Y-24900D02*
D03*
X22800Y-13400D02*
D03*
X27600Y-38100D02*
D03*
X89300Y-50400D02*
D03*
X101300Y-79300D02*
D03*
X65900Y-118000D02*
D03*
X57700Y-119100D02*
D03*
X46300Y-118200D02*
D03*
X39022Y-129970D02*
D03*
X34100Y-125900D02*
D03*
X77933Y-158700D02*
D03*
X72848Y-170438D02*
D03*
X81400Y-79100D02*
D03*
X85277Y-83008D02*
D03*
X93400Y-47900D02*
D03*
X96200Y-39000D02*
D03*
X96900Y-35700D02*
D03*
X94500Y-30400D02*
D03*
X95300Y-27000D02*
D03*
X92500Y-40200D02*
D03*
X69300Y-141300D02*
D03*
X75300Y-5900D02*
D03*
X25700Y-188000D02*
D03*
X50500Y-94000D02*
D03*
X27100Y-162100D02*
D03*
X24600Y-164300D02*
D03*
X27200Y-167700D02*
D03*
X20700Y-157200D02*
D03*
X19200Y-153900D02*
D03*
X26600Y-171000D02*
D03*
X25400Y-178672D02*
D03*
X23100Y-178900D02*
D03*
X20800Y-180100D02*
D03*
X36628Y-162772D02*
D03*
X9600Y-62700D02*
D03*
X74100Y-98600D02*
D03*
X54400Y-97300D02*
D03*
X42800Y-98000D02*
D03*
X69600Y-94200D02*
D03*
X46472Y-106065D02*
D03*
X47700Y-170300D02*
D03*
X85700Y-176800D02*
D03*
X85200Y-173400D02*
D03*
X88100Y-167300D02*
D03*
X113500Y-24600D02*
D03*
X43327Y-5527D02*
D03*
X96800Y-188400D02*
D03*
X113300Y-171900D02*
D03*
X50000Y-175000D02*
D03*
X80700Y-5100D02*
D03*
X72000Y-4300D02*
D03*
X44800Y-13100D02*
D03*
X85243Y-64064D02*
D03*
X69200Y-36600D02*
D03*
X116100Y-24800D02*
D03*
X47000Y-140300D02*
D03*
X44500Y-148300D02*
D03*
X45200Y-143700D02*
D03*
X51630Y-141663D02*
D03*
X73400Y-94400D02*
D03*
X100900Y-75100D02*
D03*
X11900Y-185800D02*
D03*
X20600Y-187400D02*
D03*
X90600Y-20868D02*
D03*
X55925Y-5425D02*
D03*
X110300Y-24700D02*
D03*
X73700Y-55100D02*
D03*
X54236Y-13226D02*
D03*
X60700Y-6200D02*
D03*
X58800Y-46600D02*
D03*
X58000Y-62396D02*
D03*
X52776Y-45924D02*
D03*
X57933Y-55100D02*
D03*
X63800Y-32100D02*
D03*
X57400Y-28874D02*
D03*
X55600Y-17300D02*
D03*
X70213Y-32124D02*
D03*
X70900Y-23500D02*
D03*
X65900Y-71500D02*
D03*
X65700Y-47400D02*
D03*
X76400Y-13200D02*
D03*
X70000Y-13210D02*
D03*
X51275Y-28900D02*
D03*
X50033Y-55266D02*
D03*
X26600Y-55200D02*
D03*
Y-51200D02*
D03*
X50100Y-59000D02*
D03*
X41900Y-17800D02*
D03*
X54100Y-51300D02*
D03*
X56300Y-45300D02*
D03*
X54400Y-159000D02*
D03*
X57214Y-167174D02*
D03*
X60582Y-148495D02*
D03*
X72200Y-155200D02*
D03*
X87700Y-138500D02*
D03*
X90400Y-137600D02*
D03*
X83700Y-138300D02*
D03*
X76172Y-148336D02*
D03*
X72900Y-151400D02*
D03*
X82300Y-161800D02*
D03*
X84200Y-167400D02*
D03*
X84800Y-153000D02*
D03*
X96900Y-141700D02*
D03*
X72800Y-148300D02*
D03*
X74200Y-126100D02*
D03*
X78000Y-121800D02*
D03*
X64300Y-136300D02*
D03*
X73400Y-129900D02*
D03*
X79200Y-170300D02*
D03*
X80300Y-157100D02*
D03*
X72900Y-167122D02*
D03*
X60100Y-155500D02*
D03*
X60043Y-151747D02*
D03*
X69900Y-126000D02*
D03*
X64600Y-125700D02*
D03*
X77500Y-126100D02*
D03*
X70500Y-122100D02*
D03*
X73700Y-122500D02*
D03*
X65900Y-122000D02*
D03*
X25400Y-134600D02*
D03*
X23200Y-136400D02*
D03*
X35564Y-156398D02*
D03*
X30400Y-130000D02*
D03*
X29300Y-134700D02*
D03*
X31600Y-156500D02*
D03*
X32400Y-138800D02*
D03*
X38450Y-151292D02*
D03*
X37700Y-126100D02*
D03*
X47700Y-151300D02*
D03*
X52000Y-162800D02*
D03*
X50500Y-134500D02*
D03*
X50050Y-126100D02*
D03*
X49300Y-162800D02*
D03*
X45500Y-134500D02*
D03*
X44900Y-137200D02*
D03*
X53700Y-167400D02*
D03*
X49600Y-155700D02*
D03*
X56100Y-155800D02*
D03*
X53300Y-137600D02*
D03*
X47200Y-125700D02*
D03*
X53836Y-151426D02*
D03*
X35121Y-151244D02*
D03*
X40100Y-157500D02*
D03*
X42800Y-156000D02*
D03*
X54100Y-126000D02*
D03*
X55300Y-162800D02*
D03*
X61900Y-114300D02*
D03*
X34154Y-135400D02*
D03*
X26500Y-129900D02*
D03*
X38400Y-122100D02*
D03*
X43100Y-162800D02*
D03*
X50200Y-122225D02*
D03*
X46300Y-129967D02*
D03*
X45800Y-162800D02*
D03*
X54100Y-134400D02*
D03*
Y-130000D02*
D03*
X58004Y-122100D02*
D03*
X35000Y-167227D02*
D03*
X41400Y-167200D02*
D03*
X50800D02*
D03*
X33478Y-162678D02*
D03*
X39777Y-162723D02*
D03*
X61655Y-121814D02*
D03*
X85277Y-79071D02*
D03*
X75400Y-155700D02*
D03*
X69672Y-167200D02*
D03*
X61600Y-137900D02*
D03*
X61700Y-134200D02*
D03*
X64900Y-159600D02*
D03*
X58675Y-162825D02*
D03*
X65200Y-162900D02*
D03*
X66822Y-166787D02*
D03*
X61900Y-162700D02*
D03*
X60700Y-144300D02*
D03*
X72400Y-162300D02*
D03*
X66700Y-13400D02*
D03*
X57614Y-13226D02*
D03*
X51000Y-13100D02*
D03*
X46200Y-51200D02*
D03*
X48100Y-44800D02*
D03*
X44900Y-32200D02*
D03*
X48025Y-29000D02*
D03*
X45700Y-36500D02*
D03*
X43400Y-46600D02*
D03*
X47900Y-17100D02*
D03*
X36400Y-46100D02*
D03*
X46100Y-59400D02*
D03*
X38500Y-28986D02*
D03*
X41800Y-28900D02*
D03*
X38700Y-13200D02*
D03*
X34400Y-55189D02*
D03*
X30600Y-37700D02*
D03*
X31800Y-46400D02*
D03*
X25200Y-44500D02*
D03*
X27000Y-46700D02*
D03*
X27500Y-26100D02*
D03*
X37600Y-17500D02*
D03*
X33927Y-18499D02*
D03*
X31100Y-20600D02*
D03*
X71021Y-51546D02*
D03*
X77800Y-59200D02*
D03*
X58100Y-59000D02*
D03*
X54100Y-59100D02*
D03*
X54000Y-55200D02*
D03*
X49500Y-37000D02*
D03*
X76500Y-10179D02*
D03*
X74700Y-22400D02*
D03*
X73293Y-13295D02*
D03*
X69800Y-43300D02*
D03*
X72500Y-46200D02*
D03*
X79700Y-37900D02*
D03*
X82600Y-25100D02*
D03*
X78900Y-22700D02*
D03*
X75900Y-24900D02*
D03*
X69872Y-67623D02*
D03*
X62000Y-71200D02*
D03*
X79573Y-13200D02*
D03*
X86100Y-17800D02*
D03*
X84800Y-21700D02*
D03*
X87300Y-13000D02*
D03*
X89000Y-26500D02*
D03*
X54100Y-67015D02*
D03*
X78800Y-41300D02*
D03*
X87700Y-44000D02*
D03*
X85700Y-45800D02*
D03*
X85600Y-41900D02*
D03*
X84100Y-32100D02*
D03*
X107800Y-30500D02*
D03*
X67000Y-29000D02*
D03*
X62000Y-59167D02*
D03*
X61900Y-55100D02*
D03*
X62200Y-17500D02*
D03*
X59000Y-17400D02*
D03*
X55525Y-174425D02*
D03*
X2000Y-139900D02*
D03*
X28900Y-141433D02*
D03*
X10800Y-60400D02*
D03*
X112700Y-36100D02*
D03*
X80800Y-175100D02*
D03*
X66400Y-148500D02*
D03*
X75700Y-162100D02*
D03*
X2700Y-43400D02*
D03*
X5000Y-25600D02*
D03*
X7500Y-25200D02*
D03*
X29100Y-4000D02*
D03*
X109200Y-40900D02*
D03*
X92700Y-3100D02*
D03*
X6800Y-37300D02*
D03*
X11000Y-56200D02*
D03*
X37300Y-5600D02*
D03*
X32500Y-5700D02*
D03*
X90900Y-15800D02*
D03*
X2400Y-86800D02*
D03*
X2000Y-142200D02*
D03*
X7000Y-181400D02*
D03*
X15300Y-170000D02*
D03*
X9500Y-52800D02*
D03*
X8847Y-55100D02*
D03*
X19100Y-50700D02*
D03*
X107900Y-28000D02*
D03*
X29400Y-30500D02*
D03*
X26800Y-30600D02*
D03*
X58000Y-125900D02*
D03*
X73077Y-145050D02*
D03*
X14200Y-188400D02*
D03*
X17300Y-187900D02*
D03*
X34700Y-188200D02*
D03*
X63600Y-170200D02*
D03*
X47500Y-175700D02*
D03*
X69900Y-175000D02*
D03*
X60300Y-170300D02*
D03*
X66000Y-175200D02*
D03*
X61824Y-174376D02*
D03*
X72200Y-180600D02*
D03*
X40800Y-174800D02*
D03*
X44400Y-170300D02*
D03*
X18400Y-144600D02*
D03*
X23600Y-185900D02*
D03*
X30300Y-167800D02*
D03*
X89500Y-82800D02*
D03*
X9700Y-40000D02*
D03*
X10900Y-64700D02*
D03*
X3200Y-179400D02*
D03*
X16400Y-180300D02*
D03*
X102200Y-67000D02*
D03*
X109100Y-80400D02*
D03*
X111153Y-81600D02*
D03*
X89750Y-86900D02*
D03*
X108700Y-110700D02*
D03*
X101200Y-113700D02*
D03*
X34700Y-63100D02*
D03*
X46000Y-63200D02*
D03*
X42600Y-63000D02*
D03*
X42535Y-71197D02*
D03*
X46300Y-98100D02*
D03*
X30400Y-98400D02*
D03*
X39100Y-70900D02*
D03*
X12546Y-77154D02*
D03*
X41900Y-73700D02*
D03*
X46472Y-75134D02*
D03*
X54346D02*
D03*
X50200Y-74900D02*
D03*
X46000Y-70300D02*
D03*
X14300Y-128600D02*
D03*
X14000Y-131900D02*
D03*
X30400Y-122200D02*
D03*
X26500Y-114400D02*
D03*
Y-106500D02*
D03*
X15400Y-94600D02*
D03*
X69800Y-87400D02*
D03*
X34300Y-86500D02*
D03*
X34400Y-90600D02*
D03*
X14368Y-29331D02*
D03*
X10431D02*
D03*
X14368Y-33268D02*
D03*
X10431D02*
D03*
X10469Y-164868D02*
D03*
Y-160932D02*
D03*
X6532Y-164868D02*
D03*
Y-160932D02*
D03*
X108100Y-76700D02*
D03*
X112000Y-73300D02*
D03*
X80850Y-86016D02*
D03*
X108500Y-116100D02*
D03*
X102900Y-159500D02*
D03*
X107783Y-159541D02*
D03*
X115300Y-180200D02*
D03*
X103982Y-184282D02*
D03*
X110800Y-157500D02*
D03*
X24000Y-3700D02*
D03*
X77900Y-3800D02*
D03*
X1900Y-56300D02*
D03*
Y-24000D02*
D03*
X4900Y-62200D02*
D03*
X5200Y-51000D02*
D03*
X49100Y-188200D02*
D03*
X110500Y-159900D02*
D03*
X92300Y-36700D02*
D03*
X112331Y-69169D02*
D03*
X5600Y-31500D02*
D03*
X2196Y-158100D02*
D03*
X107000Y-64600D02*
D03*
X5531Y-155168D02*
D03*
X5000Y-33968D02*
D03*
X4487Y-29316D02*
D03*
X1896Y-32245D02*
D03*
X102931Y-170069D02*
D03*
X107739Y-179014D02*
D03*
X106869Y-166131D02*
D03*
Y-170069D02*
D03*
X102931Y-166131D02*
D03*
X111900Y-180400D02*
D03*
X105800Y-187400D02*
D03*
X3200Y-155637D02*
D03*
X8563Y-154429D02*
D03*
X18308Y-148236D02*
D03*
Y-150598D02*
D03*
X57978Y-67000D02*
D03*
X115800Y-36200D02*
D03*
X50500Y-117400D02*
D03*
X50600Y-114000D02*
D03*
X34400Y-97900D02*
D03*
X14100Y-24900D02*
D03*
X15300Y-23100D02*
D03*
X44900Y-10100D02*
D03*
X41842Y-10100D02*
D03*
X48100Y-6500D02*
D03*
X25400Y-21900D02*
D03*
X102100Y-85100D02*
D03*
X101900Y-90400D02*
D03*
X104600Y-90900D02*
D03*
X110900Y-94900D02*
D03*
X112200Y-84000D02*
D03*
X108600Y-95700D02*
D03*
X108300Y-91100D02*
D03*
X103800Y-139600D02*
D03*
X69529Y-117877D02*
D03*
Y-102129D02*
D03*
X69700Y-114300D02*
D03*
X73800Y-106400D02*
D03*
X69836Y-106728D02*
D03*
X73850Y-117684D02*
D03*
X101400Y-139600D02*
D03*
X106200Y-129647D02*
D03*
X108100Y-127300D02*
D03*
X89300Y-118100D02*
D03*
X85300Y-121800D02*
D03*
X89600Y-121500D02*
D03*
X93043Y-113905D02*
D03*
X81100Y-102400D02*
D03*
X81340Y-106065D02*
D03*
X85000Y-110400D02*
D03*
X89214Y-102129D02*
D03*
X89200Y-130200D02*
D03*
X105800Y-127347D02*
D03*
X105100Y-123000D02*
D03*
X93100Y-122900D02*
D03*
X92800Y-118300D02*
D03*
X85500Y-129900D02*
D03*
X105200Y-119200D02*
D03*
X101700Y-117500D02*
D03*
X89600Y-125800D02*
D03*
X81500Y-126300D02*
D03*
X78100Y-129900D02*
D03*
X81340Y-121814D02*
D03*
X77500Y-117700D02*
D03*
X81300Y-117400D02*
D03*
X89400Y-110500D02*
D03*
X89700Y-113900D02*
D03*
X74300Y-114100D02*
D03*
X77490Y-107250D02*
D03*
X77500Y-110200D02*
D03*
X87271Y-114538D02*
D03*
X104950Y-72900D02*
D03*
X106000Y-69600D02*
D03*
X114300Y-91000D02*
D03*
X104900Y-96700D02*
D03*
X109600Y-98000D02*
D03*
X106900Y-88000D02*
D03*
X105200Y-86400D02*
D03*
X111000Y-91400D02*
D03*
X114100Y-102900D02*
D03*
X111500Y-102800D02*
D03*
X102753Y-123000D02*
D03*
X99000Y-139400D02*
D03*
X99600Y-133900D02*
D03*
X102200Y-130300D02*
D03*
X103800Y-128600D02*
D03*
X104800Y-131500D02*
D03*
X108500Y-131100D02*
D03*
X113400Y-169400D02*
D03*
X114800Y-160200D02*
D03*
X115100Y-157500D02*
D03*
X114200Y-154400D02*
D03*
X116400Y-151900D02*
D03*
X85100Y-117400D02*
D03*
X81400Y-110500D02*
D03*
X81500Y-114100D02*
D03*
D37*
X17459Y-27363D02*
D03*
Y-29331D02*
D03*
Y-31300D02*
D03*
Y-33268D02*
D03*
Y-35237D02*
D03*
X7341Y-27363D02*
D03*
Y-29331D02*
D03*
Y-31300D02*
D03*
Y-33268D02*
D03*
Y-35237D02*
D03*
D38*
X12400Y-31300D02*
D03*
D39*
X4400Y-150753D02*
D03*
Y-144847D02*
D03*
X93000Y-157847D02*
D03*
Y-163753D02*
D03*
X11900Y-150553D02*
D03*
Y-144647D02*
D03*
D40*
X62610Y-64600D02*
D03*
X86210Y-7330D02*
D03*
D41*
X40170Y-64600D02*
D03*
D42*
X33460Y-11220D02*
D03*
D43*
X58650Y-22600D02*
D03*
X62980Y-24167D02*
D03*
X67310Y-22600D02*
D03*
X54320Y-21810D02*
D03*
X49990Y-22600D02*
D03*
X45660Y-21810D02*
D03*
X41330Y-22600D02*
D03*
X37000D02*
D03*
D44*
X28058Y-144954D02*
D03*
X22742D02*
D03*
X28058Y-151646D02*
D03*
X22742D02*
D03*
D45*
X8500Y-162900D02*
D03*
X104900Y-168100D02*
D03*
D46*
X12437Y-167959D02*
D03*
X10469D02*
D03*
X8500D02*
D03*
X6532D02*
D03*
X4563D02*
D03*
X12437Y-157841D02*
D03*
X10469D02*
D03*
X8500D02*
D03*
X6532D02*
D03*
X4563D02*
D03*
X108837Y-173159D02*
D03*
X106869D02*
D03*
X104900D02*
D03*
X102931D02*
D03*
X100963D02*
D03*
X108837Y-163041D02*
D03*
X106869D02*
D03*
X104900D02*
D03*
X102931D02*
D03*
X100963D02*
D03*
D47*
X21398Y-129486D02*
D03*
Y-127517D02*
D03*
Y-125549D02*
D03*
Y-123580D02*
D03*
Y-121612D02*
D03*
Y-119643D02*
D03*
Y-117675D02*
D03*
Y-115706D02*
D03*
Y-113738D02*
D03*
Y-111769D02*
D03*
Y-109801D02*
D03*
Y-107832D02*
D03*
Y-105864D02*
D03*
Y-103895D02*
D03*
Y-101927D02*
D03*
Y-99958D02*
D03*
Y-97990D02*
D03*
Y-96021D02*
D03*
Y-94053D02*
D03*
Y-92084D02*
D03*
Y-90116D02*
D03*
Y-88147D02*
D03*
Y-86179D02*
D03*
Y-84210D02*
D03*
Y-82242D02*
D03*
Y-80273D02*
D03*
Y-78305D02*
D03*
Y-76336D02*
D03*
Y-74368D02*
D03*
Y-72399D02*
D03*
Y-70431D02*
D03*
Y-68462D02*
D03*
Y-66494D02*
D03*
Y-64525D02*
D03*
Y-62557D02*
D03*
Y-60588D02*
D03*
Y-58620D02*
D03*
Y-56651D02*
D03*
Y-54683D02*
D03*
Y-52714D02*
D03*
X96902Y-130086D02*
D03*
Y-128117D02*
D03*
Y-126149D02*
D03*
Y-124180D02*
D03*
Y-122212D02*
D03*
Y-120243D02*
D03*
Y-118275D02*
D03*
Y-116306D02*
D03*
Y-114338D02*
D03*
Y-112369D02*
D03*
Y-110401D02*
D03*
Y-108432D02*
D03*
Y-106464D02*
D03*
Y-104495D02*
D03*
Y-102527D02*
D03*
Y-100558D02*
D03*
Y-98590D02*
D03*
Y-96621D02*
D03*
Y-94653D02*
D03*
Y-92684D02*
D03*
Y-90716D02*
D03*
Y-88747D02*
D03*
Y-86779D02*
D03*
Y-84810D02*
D03*
Y-82842D02*
D03*
Y-80873D02*
D03*
Y-78905D02*
D03*
Y-76936D02*
D03*
Y-74968D02*
D03*
Y-72999D02*
D03*
Y-71031D02*
D03*
Y-69062D02*
D03*
Y-67094D02*
D03*
Y-65125D02*
D03*
Y-63157D02*
D03*
Y-61188D02*
D03*
Y-59220D02*
D03*
Y-57251D02*
D03*
Y-55283D02*
D03*
Y-53314D02*
D03*
D48*
X8602Y-45234D02*
D03*
Y-136966D02*
D03*
X109698Y-45834D02*
D03*
Y-137566D02*
D03*
D49*
X61521Y-194694D02*
Y-183250D01*
X62370Y-182400D01*
X20576Y-187424D02*
X20600Y-187400D01*
X20576Y-194694D02*
Y-187424D01*
X2196Y-158100D02*
X2600Y-157696D01*
X11900Y-150753D02*
Y-150553D01*
X3200Y-155637D02*
X4400Y-154437D01*
Y-151500D02*
Y-150753D01*
X2600Y-157696D02*
Y-155637D01*
X5531Y-155168D02*
X6532Y-156168D01*
X5531Y-155168D02*
X7824D01*
X7946Y-155046D01*
X8563Y-154429D01*
X4400Y-154437D02*
Y-151500D01*
X18307Y-148237D02*
X18308Y-148236D01*
X18307Y-150197D02*
Y-148237D01*
X11900Y-150553D02*
X11945Y-150598D01*
X18308D01*
X4400Y-150753D02*
X11900D01*
X17951Y-150553D02*
X18307Y-150197D01*
X8756Y-173744D02*
X8800Y-173700D01*
X6100Y-172100D02*
X6300Y-172300D01*
X6100Y-172100D02*
Y-170456D01*
X6852Y-169704D01*
Y-169248D01*
X7000Y-169100D01*
X6300Y-173744D02*
Y-173700D01*
Y-172300D01*
Y-173744D02*
X8756D01*
X8500Y-172200D02*
Y-167959D01*
M02*
