G04 Layer_Physical_Order=4*
G04 Layer_Color=36540*
%FSLAX25Y25*%
%MOIN*%
G70*
G01*
G75*
%ADD10C,0.00500*%
%ADD35C,0.01800*%
%ADD36C,0.00500*%
D10*
X109002Y-102567D02*
G03*
X108922Y-102127I-1258J0D01*
G01*
X109002Y-102567D02*
G03*
X109756Y-104389I2577J0D01*
G01*
X111600Y-107400D02*
G03*
X111101Y-105734I-3031J0D01*
G01*
X111000Y-143700D02*
G03*
X111600Y-142252I-1448J1448D01*
G01*
X106354Y-99398D02*
G03*
X104183Y-98500I-2171J-2175D01*
G01*
X108922Y-102127D02*
G03*
X108633Y-101678I-1178J-441D01*
G01*
X106356Y-99400D02*
G03*
X106354Y-99398I-2173J-2173D01*
G01*
X109836Y-144864D02*
G03*
X109200Y-146400I1536J-1536D01*
G01*
X108241Y-148714D02*
G03*
X109200Y-146400I-2314J2314D01*
G01*
X105400Y-150100D02*
G03*
X107885Y-149071I0J3514D01*
G01*
X100700Y-150100D02*
G03*
X99164Y-150736I0J-2173D01*
G01*
X98800Y-151100D02*
G03*
X96200Y-157377I6277J-6277D01*
G01*
X79945Y-180850D02*
G03*
X79824Y-180900I0J-171D01*
G01*
X79824Y-180900D02*
G03*
X79100Y-181200I0J-1024D01*
G01*
X78617Y-181400D02*
G03*
X79100Y-181200I0J683D01*
G01*
X105900Y-100500D02*
G03*
X105898Y-100498I-2173J-2173D01*
G01*
X110222Y-142922D02*
G03*
X110500Y-142252I-671J671D01*
G01*
X109059Y-144086D02*
G03*
X108100Y-146400I2314J-2314D01*
G01*
X107464Y-147936D02*
G03*
X108100Y-146400I-1536J1536D01*
G01*
X105400Y-149000D02*
G03*
X107107Y-148293I0J2414D01*
G01*
X100700Y-149000D02*
G03*
X98386Y-149959I0J-3273D01*
G01*
X98022Y-150322D02*
G03*
X95100Y-157377I7055J-7055D01*
G01*
X77900Y-179100D02*
G03*
X79348Y-179700I1448J1448D01*
G01*
X79800D02*
G03*
X79921Y-179750I121J121D01*
G01*
X102078Y-155478D02*
G03*
X101100Y-157838I2361J-2361D01*
G01*
X47658Y-181458D02*
G03*
X41000Y-178700I-6658J-6658D01*
G01*
X50000Y-185200D02*
G03*
X49010Y-182810I-3380J0D01*
G01*
X96600Y-186500D02*
G03*
X93451Y-187804I0J-4453D01*
G01*
X91900Y-188900D02*
G03*
X92678Y-188578I0J1100D01*
G01*
X115829Y-147271D02*
G03*
X116900Y-144686I-2585J2585D01*
G01*
X104197Y-154600D02*
G03*
X102078Y-155478I0J-2997D01*
G01*
X115200Y-147900D02*
G03*
X114500Y-149590I1690J-1690D01*
G01*
X109686Y-154600D02*
G03*
X112878Y-153278I0J4514D01*
G01*
X101300Y-154700D02*
G03*
X100000Y-157838I3139J-3139D01*
G01*
X48436Y-180680D02*
G03*
X41000Y-177600I-7436J-7436D01*
G01*
X90910Y-187800D02*
G03*
X92600Y-187100I0J2390D01*
G01*
X115051Y-146493D02*
G03*
X115800Y-144686I-1807J1807D01*
G01*
X104197Y-153500D02*
G03*
X101300Y-154700I0J-4097D01*
G01*
X114422Y-147122D02*
G03*
X113400Y-149590I2468J-2468D01*
G01*
X112622Y-151978D02*
G03*
X113400Y-150100I-1878J1878D01*
G01*
X109686Y-153500D02*
G03*
X112100Y-152500I0J3414D01*
G01*
X113400Y-152756D02*
G03*
X114500Y-150100I-2656J2656D01*
G01*
X113864Y-145036D02*
G03*
X114500Y-143500I-1536J1536D01*
G01*
X112507Y-146393D02*
G03*
X111800Y-148100I1707J-1707D01*
G01*
X110378Y-151578D02*
G03*
X111800Y-148144I-3433J3433D01*
G01*
X108634Y-152300D02*
G03*
X110378Y-151578I0J2466D01*
G01*
X102290Y-152300D02*
G03*
X100600Y-153000I0J-2390D01*
G01*
D02*
G03*
X98900Y-157104I4104J-4104D01*
G01*
X113086Y-144258D02*
G03*
X113400Y-143500I-759J758D01*
G01*
X111729Y-145615D02*
G03*
X110700Y-148100I2485J-2485D01*
G01*
X108634Y-151200D02*
G03*
X109600Y-150800I0J1366D01*
G01*
X102290Y-151200D02*
G03*
X99822Y-152222I0J-3490D01*
G01*
D02*
G03*
X97800Y-157104I4882J-4882D01*
G01*
X88786Y-185400D02*
G03*
X91200Y-184400I0J3414D01*
G01*
X109600Y-150800D02*
G03*
X110700Y-148144I-2656J2656D01*
G01*
X60910Y-128594D02*
G03*
X60905Y-128599I7990J-7990D01*
G01*
D02*
G03*
X57900Y-133998I7995J-7985D01*
G01*
X60184Y-23619D02*
G03*
X60083Y-23544I-284J-281D01*
G01*
X62368Y-58799D02*
G03*
X63900Y-55100I-3699J3699D01*
G01*
X60419Y-32319D02*
G03*
X61600Y-29469I-2851J2851D01*
G01*
X62300Y-22800D02*
G03*
X61600Y-24490I1690J-1690D01*
G01*
X62300Y-22800D02*
G03*
X63500Y-19903I-2897J2897D01*
G01*
X58400Y-37686D02*
G03*
X59400Y-40100I3414J0D01*
G01*
X59249Y-31651D02*
G03*
X58400Y-33700I2049J-2049D01*
G01*
X59500Y-31400D02*
G03*
X59501Y-31399I-1931J1931D01*
G01*
X60083Y-23544D02*
G03*
X59900Y-23500I-183J-356D01*
G01*
X61900Y-46136D02*
G03*
X59400Y-40100I-8535J0D01*
G01*
X59501Y-31399D02*
G03*
X60300Y-29469I-1932J1930D01*
G01*
Y-23900D02*
G03*
X60184Y-23619I-400J0D01*
G01*
X56900Y-23100D02*
G03*
X57300Y-23500I400J0D01*
G01*
Y-22100D02*
G03*
X56900Y-22500I0J-400D01*
G01*
X57000Y-20500D02*
G03*
X57400Y-20900I400J0D01*
G01*
X57500Y-19700D02*
G03*
X57000Y-20200I0J-500D01*
G01*
X60200Y-22100D02*
G03*
X60600Y-21700I0J400D01*
G01*
Y-21300D02*
G03*
X60200Y-20900I-400J0D01*
G01*
X60300Y-19700D02*
G03*
X62200Y-17800I0J1900D01*
G01*
X59200Y-134153D02*
G03*
X58900Y-136584I9700J-2431D01*
G01*
X61829Y-129513D02*
G03*
X59200Y-134153I7071J-7071D01*
G01*
X57600Y-150100D02*
G03*
X59762Y-155320I7382J0D01*
G01*
X57900Y-133998D02*
G03*
X57600Y-136584I11000J-2586D01*
G01*
X114500Y-104307D02*
G03*
X114000Y-103100I-1707J0D01*
G01*
X111300Y-91359D02*
G03*
X111301Y-91400I1641J0D01*
G01*
D02*
G03*
X112413Y-92913I1640J41D01*
G01*
D02*
G03*
X112941Y-93000I528J1553D01*
G01*
X111609Y-94191D02*
G03*
X110900Y-94900I0J-709D01*
G01*
X115800Y-96500D02*
G03*
X114207Y-94311I-2300J0D01*
G01*
D02*
G03*
X113500Y-94200I-707J-2189D01*
G01*
X114207Y-94311D02*
G03*
X113539Y-94191I-668J-1788D01*
G01*
X116900Y-95700D02*
G03*
X115005Y-93123I-2700J0D01*
G01*
D02*
G03*
X114200Y-93000I-805J-2577D01*
G01*
X97344Y-186500D02*
G03*
X100778Y-185078I0J4856D01*
G01*
Y-185078D02*
G03*
X101100Y-184300I-778J778D01*
G01*
X71400Y-182900D02*
G03*
X70193Y-182400I-1207J-1207D01*
G01*
X71700Y-183624D02*
G03*
X71400Y-182900I-1024J0D01*
G01*
X71700Y-184034D02*
G03*
X72054Y-184952I1366J0D01*
G01*
D02*
G03*
X72100Y-185000I1012J917D01*
G01*
X72054Y-184952D02*
G03*
X73207Y-185400I1153J1259D01*
G01*
X69200Y-184600D02*
G03*
X73787Y-186500I4587J4587D01*
G01*
X94821Y-182900D02*
G03*
X97004Y-181996I0J3087D01*
G01*
X94821Y-182900D02*
G03*
X91200Y-184400I0J-5121D01*
G01*
X97795Y-180245D02*
G03*
X97800Y-180044I-3750J201D01*
G01*
X97004Y-181996D02*
G03*
X97795Y-180245I-1921J1921D01*
G01*
D02*
G03*
X97800Y-180075I-2712J171D01*
G01*
X97900Y-183200D02*
G03*
X98900Y-180786I-2414J2414D01*
G01*
X95771Y-184082D02*
G03*
X97653Y-183421I0J3011D01*
G01*
D02*
G03*
X97852Y-183247I-1882J2351D01*
G01*
D02*
G03*
X97900Y-183200I-2082J2176D01*
G01*
X89005Y-186500D02*
G03*
X92042Y-185242I0J4295D01*
G01*
X94842Y-184082D02*
G03*
X92042Y-185242I0J-3960D01*
G01*
X94513Y-179059D02*
G03*
X95100Y-177642I-1417J1417D01*
G01*
X92844Y-179750D02*
G03*
X94513Y-179059I0J2360D01*
G01*
X93831Y-180850D02*
G03*
X95343Y-180255I0J2219D01*
G01*
D02*
G03*
X95400Y-180200I-1512J1624D01*
G01*
X95672Y-179928D02*
G03*
X96186Y-178686I-1242J1242D01*
G01*
X96600Y-185400D02*
G03*
X92674Y-187026I0J-5553D01*
G01*
X99331Y-184269D02*
G03*
X100000Y-182654I-1614J1614D01*
G01*
X96600Y-185400D02*
G03*
X99331Y-184269I0J3863D01*
G01*
X60419Y-32319D02*
G03*
X59700Y-34056I1736J-1736D01*
G01*
X62000Y-59167D02*
G03*
X63900Y-54580I-4587J4587D01*
G01*
D02*
G03*
X63490Y-53590I-1400J0D01*
G01*
X63000Y-52407D02*
G03*
X63490Y-53590I1673J0D01*
G01*
X63000Y-44627D02*
G03*
X62972Y-44032I-6422J0D01*
G01*
D02*
G03*
X61119Y-40085I-6395J-595D01*
G01*
X59700Y-37686D02*
G03*
X60392Y-39359I2367J0D01*
G01*
D02*
G03*
X60393Y-39360I1675J1673D01*
G01*
X60493Y-15400D02*
G03*
X59481Y-15819I0J-1431D01*
G01*
D02*
G03*
X59000Y-16980I1161J-1161D01*
G01*
X63200Y-15800D02*
G03*
X62234Y-15400I-966J-966D01*
G01*
X63950Y-17000D02*
G03*
X63632Y-16232I-1086J0D01*
G01*
X63749Y-18951D02*
G03*
X63500Y-19552I600J-600D01*
G01*
X63749Y-18951D02*
G03*
X63950Y-18465I-487J486D01*
G01*
X110500Y-108800D02*
G03*
X109098Y-105414I-4789J0D01*
G01*
X107800Y-103000D02*
G03*
X107377Y-101977I-1448J0D01*
G01*
D02*
G03*
X107376Y-101976I-1025J-1023D01*
G01*
X105898Y-100498D02*
G03*
X103727Y-99600I-2171J-2175D01*
G01*
X107800Y-103249D02*
G03*
X108414Y-104730I2096J0D01*
G01*
X113400Y-106419D02*
G03*
X112750Y-104850I-2219J0D01*
G01*
X111500Y-102700D02*
G03*
X112136Y-104236I2173J0D01*
G01*
X89543Y-97396D02*
G03*
X89214Y-98191I796J-796D01*
G01*
X92559Y-95000D02*
G03*
X91131Y-95808I741J-2976D01*
G01*
X92600Y-95000D02*
G03*
X92559Y-95000I0J-2897D01*
G01*
X93300Y-94909D02*
G03*
X92559Y-95000I0J-3067D01*
G01*
X100200Y-97700D02*
G03*
X100201Y-97701I1931J1931D01*
G01*
D02*
G03*
X102131Y-98500I1930J1932D01*
G01*
X98612Y-96112D02*
G03*
X95708Y-94909I-2904J-2904D01*
G01*
X99422Y-98478D02*
G03*
X102131Y-99600I2709J2709D01*
G01*
X97895Y-96951D02*
G03*
X95600Y-96000I-2295J-2295D01*
G01*
X93923D02*
G03*
X92860Y-96441I0J-1504D01*
G01*
D02*
G03*
X92500Y-97308I868J-868D01*
G01*
X50959Y-187514D02*
G03*
X54304Y-188900I3346J3346D01*
G01*
X50000Y-185200D02*
G03*
X50959Y-187514I3273J0D01*
G01*
X51100Y-185200D02*
G03*
X51736Y-186736I2173J0D01*
G01*
X51881Y-186881D02*
G03*
X54100Y-187800I2219J2219D01*
G01*
X51100Y-185200D02*
G03*
X49788Y-182032I-4480J0D01*
G01*
X72139Y-76400D02*
X74900D01*
X75910D01*
X74100D02*
X74900D01*
X75910D02*
X75960Y-76450D01*
X63700Y-81000D02*
X67538D01*
X68169Y-80369D02*
X72139Y-76400D01*
X67538Y-81000D02*
X68169Y-80369D01*
X109600Y-60100D02*
X110800Y-61300D01*
X92466Y-121200D02*
X97450D01*
X91450Y-122217D02*
X92466Y-121200D01*
X104300Y-59100D02*
Y-58200D01*
Y-59100D02*
X105300Y-60100D01*
X107500Y-69600D02*
X109100Y-68000D01*
X106000Y-69600D02*
X107500D01*
X109100Y-68000D02*
Y-63389D01*
X79600Y-111700D02*
Y-108200D01*
Y-111700D02*
X80100Y-112200D01*
X57400Y-108200D02*
Y-105700D01*
X57900Y-105200D01*
X59200Y-106800D02*
Y-105800D01*
X58600Y-105200D02*
X59200Y-105800D01*
X59800Y-107400D02*
X61300D01*
X61900Y-106800D01*
X59200D02*
X59800Y-107400D01*
X55350Y-104550D02*
X56000Y-105200D01*
X57900D02*
X58600D01*
X50750Y-104550D02*
X55350D01*
X56000Y-106733D02*
Y-105200D01*
X55000Y-108600D02*
Y-107733D01*
X56400Y-109200D02*
X57400Y-108200D01*
X55000Y-107733D02*
X56000Y-106733D01*
X55600Y-109200D02*
X56400D01*
X55000Y-108600D02*
X55600Y-109200D01*
X50200Y-105100D02*
X50750Y-104550D01*
X48500Y-106200D02*
Y-104900D01*
X47950Y-104350D02*
X48500Y-104900D01*
X50200Y-106400D02*
Y-105100D01*
X49984Y-106615D02*
X50200Y-106400D01*
X48915Y-106615D02*
X49984D01*
X39864Y-104350D02*
X47950D01*
X39464Y-104750D02*
X39864Y-104350D01*
X33417Y-104750D02*
X39464D01*
X32450Y-105722D02*
Y-105717D01*
X33417Y-104750D01*
X48500Y-106200D02*
X48915Y-106615D01*
X30486Y-107686D02*
X32450Y-105722D01*
X28400Y-109800D02*
X30500Y-107700D01*
X26500Y-109800D02*
X28400D01*
X45316Y-107715D02*
X51415D01*
X36500Y-106300D02*
X43900D01*
X35750Y-107050D02*
X36500Y-106300D01*
X35750Y-107083D02*
Y-107050D01*
X43900Y-106300D02*
X45316Y-107715D01*
X34783Y-108050D02*
X35750Y-107083D01*
X31706Y-108050D02*
X34783D01*
X28856Y-110900D02*
X29256Y-110500D01*
X28856Y-110900D02*
X31706Y-108050D01*
X14900Y-109700D02*
X18200D01*
X14700Y-109900D02*
X14900Y-109700D01*
X28206Y-111550D02*
X28856Y-110900D01*
X20050Y-111550D02*
X28206D01*
X18200Y-109700D02*
X20050Y-111550D01*
X51415Y-107715D02*
X54000Y-110300D01*
X9300Y-114200D02*
X12100D01*
X93800Y-46150D02*
X100150D01*
X92592Y-45950D02*
X93600D01*
X100150Y-46150D02*
X102350Y-48350D01*
X93600Y-45950D02*
X93800Y-46150D01*
X16500Y-35872D02*
X24200Y-28172D01*
X16500Y-44600D02*
Y-35872D01*
X19086Y-33286D01*
X16400Y-44700D02*
X16500Y-44600D01*
X74700Y-179900D02*
Y-179600D01*
X74050Y-178950D02*
X74700Y-179600D01*
X63264Y-178950D02*
X74050D01*
X21700Y-86300D02*
Y-84800D01*
X22100Y-86700D02*
X28700D01*
X21700Y-86300D02*
X22100Y-86700D01*
X19900Y-86300D02*
Y-84800D01*
X18400Y-86700D02*
X19500D01*
X19900Y-86300D01*
X18000D02*
X18400Y-86700D01*
X16100Y-86200D02*
Y-84700D01*
X21300Y-84400D02*
X21700Y-84800D01*
X20300Y-84400D02*
X21300D01*
X19900Y-84800D02*
X20300Y-84400D01*
X18000Y-86300D02*
Y-84700D01*
X17500Y-84200D02*
X18000Y-84700D01*
X16600Y-84200D02*
X17500D01*
X16100Y-84700D02*
X16600Y-84200D01*
X15600Y-86700D02*
X16100Y-86200D01*
X14500Y-86700D02*
X15600D01*
X14200Y-86400D02*
X14500Y-86700D01*
X14200Y-86400D02*
Y-84900D01*
X20686Y-82600D02*
X22700D01*
X24950Y-84850D01*
X42583Y-75350D02*
X43550Y-74383D01*
X35214Y-78700D02*
X38924D01*
X42274Y-75350D02*
X42583D01*
X38924Y-78700D02*
X42274Y-75350D01*
X33264Y-80650D02*
X35214Y-78700D01*
X31394Y-80650D02*
X33264D01*
X50100Y-70300D02*
Y-69275D01*
X46683Y-71950D02*
X47900Y-70733D01*
Y-69100D01*
X48500Y-68500D01*
X49325D01*
X50100Y-69275D01*
X45767Y-71950D02*
X46683D01*
X43550Y-74167D02*
X45767Y-71950D01*
X43550Y-74383D02*
Y-74167D01*
X31850Y-81750D02*
X35106D01*
X50400Y-66900D02*
X51850Y-68350D01*
Y-71025D02*
Y-68350D01*
X44800Y-74472D02*
X46222Y-73050D01*
X39279Y-79900D02*
X42180Y-77000D01*
X36956Y-79900D02*
X39279D01*
X35106Y-81750D02*
X36956Y-79900D01*
X13500Y-83200D02*
X20086D01*
X11900Y-85200D02*
Y-84800D01*
X50825Y-72050D02*
X51850Y-71025D01*
X48139Y-72050D02*
X50825D01*
X47139Y-73050D02*
X48139Y-72050D01*
X46222Y-73050D02*
X47139D01*
X44800Y-74689D02*
Y-74472D01*
X42489Y-77000D02*
X44800Y-74689D01*
X42180Y-77000D02*
X42489D01*
X20086Y-83200D02*
X20686Y-82600D01*
X11900Y-84800D02*
X13500Y-83200D01*
X98100Y-131500D02*
Y-128200D01*
X96000Y-131500D02*
Y-128100D01*
X97600Y-127700D02*
X98100Y-128200D01*
X96400Y-127700D02*
X97600D01*
X96000Y-128100D02*
X96400Y-127700D01*
X93900Y-131300D02*
X94500Y-131900D01*
X95600D02*
X96000Y-131500D01*
X94500Y-131900D02*
X95600D01*
X89200Y-131119D02*
X90031Y-131950D01*
X106150Y-135150D02*
X108383D01*
X100284Y-135550D02*
X101584Y-134250D01*
X89500Y-121400D02*
X89600D01*
X89700Y-121500D02*
Y-121400D01*
X87300Y-123700D02*
X89500Y-121500D01*
X81250Y-113650D02*
X81600Y-114000D01*
X81100Y-113600D02*
X81200Y-113700D01*
X79700Y-113600D02*
X81100D01*
X79200Y-114100D02*
X79700Y-113600D01*
X79200Y-114800D02*
Y-114100D01*
X84400Y-128000D02*
X86500D01*
X83400Y-127000D02*
X84400Y-128000D01*
X105750Y-126950D02*
X105900Y-127100D01*
X91450Y-123950D02*
Y-122217D01*
X28800Y-71934D02*
Y-69000D01*
X28200Y-68400D02*
X28800Y-69000D01*
X27500Y-68400D02*
X28200D01*
X26900Y-69000D02*
X27500Y-68400D01*
X26900Y-74296D02*
Y-69000D01*
X24400Y-74200D02*
Y-72100D01*
X15100Y-71100D02*
X23400D01*
X24400Y-72100D01*
X28800Y-71934D02*
X29817Y-72950D01*
X24400Y-74200D02*
X25196Y-74996D01*
X26200D01*
X26900Y-74296D01*
X32750Y-72950D02*
X34800Y-70900D01*
X29817Y-72950D02*
X32750D01*
X12900Y-73100D02*
X14650D01*
X38800Y-66000D02*
Y-59200D01*
X14650Y-73100D02*
X17646Y-76096D01*
X32079D01*
X36550Y-71625D01*
Y-68250D01*
X38800Y-66000D01*
X42300Y-59200D02*
X42700Y-59600D01*
X43900D02*
X45000Y-60700D01*
X44300Y-62200D02*
X45000Y-61500D01*
X44300Y-63900D02*
Y-62200D01*
X42700Y-59600D02*
X43900D01*
X45000Y-61500D02*
Y-60700D01*
X12300Y-69500D02*
X13150Y-68650D01*
X21050D01*
X35650Y-59684D02*
Y-57350D01*
X33883Y-61450D02*
X35650Y-59684D01*
X33564Y-61450D02*
X33883D01*
X29583Y-65150D02*
X31383D01*
X24400Y-65300D02*
Y-63519D01*
X26860Y-62426D02*
X29583Y-65150D01*
X25493Y-62426D02*
X26860D01*
X24400Y-63519D02*
X25493Y-62426D01*
X26650Y-66450D02*
X31922D01*
X26600Y-66400D02*
X26650Y-66450D01*
X31383Y-65150D02*
X32500Y-64034D01*
X21050Y-68650D02*
X24400Y-65300D01*
X38000Y-55000D02*
Y-54800D01*
Y-55000D02*
X38100Y-54900D01*
X35650Y-57350D02*
X38000Y-55000D01*
X37450Y-57550D02*
X39483D01*
X36800Y-58200D02*
X37450Y-57550D01*
X36800Y-63333D02*
Y-58200D01*
X35383Y-64750D02*
X36800Y-63333D01*
X61900Y-55100D02*
Y-46136D01*
X58315Y-70600D02*
X61300Y-67615D01*
X102600Y-53300D02*
Y-52900D01*
X77368Y-75169D02*
X77403Y-75134D01*
X77749Y-77084D02*
X79764Y-79100D01*
X76595Y-77084D02*
X77749D01*
X75960Y-76450D02*
X76595Y-77084D01*
X104200Y-55000D02*
Y-54550D01*
X105950Y-55788D02*
Y-51950D01*
X34000Y-59000D02*
X34200D01*
X30600Y-63500D02*
X30700D01*
X32500Y-62514D02*
X33564Y-61450D01*
X32500Y-64034D02*
Y-62514D01*
X38800Y-59200D02*
Y-59100D01*
X42300Y-55000D02*
X42500D01*
X48700Y-47100D02*
Y-47050D01*
X48100Y-46450D02*
X48700Y-47050D01*
X47417Y-46450D02*
X48100D01*
X46450Y-45483D02*
X47417Y-46450D01*
X42000Y-65000D02*
X43200D01*
X40450Y-63450D02*
X42000Y-65000D01*
X40200Y-74933D02*
Y-73100D01*
X46983Y-99750D02*
X48783Y-97950D01*
X39483Y-57550D02*
X40450Y-58517D01*
X46907Y-48993D02*
X47000D01*
Y-49000D02*
X47500D01*
X46400Y-49500D02*
X46907Y-48993D01*
X43800Y-69300D02*
X46200Y-66900D01*
X40450Y-63450D02*
Y-58517D01*
X34200Y-59000D02*
X34350Y-59150D01*
X40250Y-73017D02*
X40885Y-72382D01*
X25167Y-78400D02*
X26017Y-77550D01*
X40250Y-73100D02*
Y-73017D01*
X41202Y-57650D02*
X43436D01*
X44536Y-58750D01*
X45350D01*
X40750Y-55783D02*
X41617Y-56650D01*
X39750Y-56198D02*
X41202Y-57650D01*
X44150Y-56850D02*
X45000Y-57700D01*
X43850Y-56650D02*
X44100Y-56900D01*
X42100Y-54800D02*
X42300Y-55000D01*
X40750Y-55783D02*
Y-48464D01*
X39750Y-56198D02*
Y-49350D01*
X45350Y-58750D02*
X46000Y-59400D01*
X13600Y-98700D02*
X18400D01*
X10528Y-110900D02*
X11700D01*
X11150Y-121225D02*
X12475Y-122550D01*
X11150Y-115850D02*
X12784D01*
X13000Y-107014D02*
Y-105800D01*
X10800Y-107800D02*
Y-104800D01*
X4400Y-114200D02*
X10800Y-107800D01*
X5400Y-114614D02*
X13000Y-107014D01*
Y-98100D02*
X13600Y-98700D01*
X14400Y-102700D02*
X14700Y-103000D01*
X10700Y-116300D02*
X11150Y-115850D01*
Y-121225D02*
Y-119750D01*
X49916Y-108715D02*
X53600Y-112400D01*
X60900Y-108450D02*
X64050D01*
X55000Y-112400D02*
X56000Y-111400D01*
X56056Y-112900D02*
X58100D01*
X55456Y-113500D02*
X56056Y-112900D01*
X53600Y-112400D02*
X55000D01*
X53144Y-113500D02*
X55456D01*
X27083Y-92850D02*
X27683Y-92250D01*
X33767Y-116400D02*
X40128D01*
X32267Y-117900D02*
X33767Y-116400D01*
X7400Y-116100D02*
X9300Y-114200D01*
X11000Y-119600D02*
X11150Y-119750D01*
X11000Y-119500D02*
X11050Y-119550D01*
X6400Y-115028D02*
X10528Y-110900D01*
X68242Y-99017D02*
Y-97992D01*
X66493Y-100766D02*
X68242Y-99017D01*
X65066Y-100766D02*
X66493D01*
X70192Y-98906D02*
Y-98800D01*
X65316Y-109716D02*
X65737D01*
X64050Y-108450D02*
X65316Y-109716D01*
X7400Y-122257D02*
Y-116100D01*
X6400Y-122672D02*
Y-115028D01*
X14900Y-66000D02*
X15858D01*
X61016Y-88650D02*
X62550D01*
X59566Y-90100D02*
X61016Y-88650D01*
X103250Y-79550D02*
Y-78492D01*
Y-79550D02*
X103800Y-80100D01*
X14700Y-90600D02*
X17000D01*
X13400Y-93200D02*
X14350Y-92250D01*
X30500Y-117900D02*
X32267D01*
X74316Y-117684D02*
X74600Y-117400D01*
X75293Y-118093D01*
X73700Y-102239D02*
Y-102200D01*
X85600Y-106200D02*
Y-102687D01*
X102131Y-98500D02*
X104183D01*
X106356Y-99400D02*
X108633Y-101678D01*
X109836Y-144864D02*
X111000Y-143700D01*
X107885Y-149071D02*
X108241Y-148714D01*
X100700Y-150100D02*
X105400D01*
X98800Y-151100D02*
X99164Y-150736D01*
X77900Y-181400D02*
X78617D01*
X102131Y-99600D02*
X103727D01*
X109059Y-144086D02*
X110222Y-142922D01*
X107107Y-148293D02*
X107464Y-147936D01*
X100700Y-149000D02*
X105400D01*
X98022Y-150322D02*
X98386Y-149959D01*
X92500Y-98000D02*
Y-97308D01*
X79348Y-179700D02*
X79800D01*
X109756Y-104389D02*
X111101Y-105734D01*
X112507Y-146393D02*
X113864Y-145036D01*
X37875Y-178700D02*
X41000D01*
X47658Y-181458D02*
X49010Y-182810D01*
X92678Y-188578D02*
X93451Y-187804D01*
X115200Y-147900D02*
X115829Y-147271D01*
X114500Y-150100D02*
Y-149590D01*
X37700Y-177600D02*
X41000D01*
X92600Y-187100D02*
X92674Y-187026D01*
X48436Y-180680D02*
X49788Y-182032D01*
X114422Y-147122D02*
X115051Y-146493D01*
X113400Y-150100D02*
Y-149590D01*
X112100Y-152500D02*
X112622Y-151978D01*
X104197Y-153500D02*
X109686D01*
X37275Y-179300D02*
X37875Y-178700D01*
X37100Y-177000D02*
X37700Y-177600D01*
X112878Y-153278D02*
X113400Y-152756D01*
X111800Y-148144D02*
Y-148100D01*
X110700Y-148144D02*
Y-148100D01*
X104950Y-53800D02*
Y-51583D01*
X104200Y-54550D02*
X104950Y-53800D01*
X106781Y-58119D02*
Y-56619D01*
X105950Y-55788D02*
X106781Y-56619D01*
X109600Y-60100D02*
Y-57300D01*
X102600Y-52900D02*
X103000Y-52500D01*
X104117Y-50750D02*
X104950Y-51583D01*
X102350Y-49783D02*
Y-48350D01*
Y-49783D02*
X103317Y-50750D01*
X104117D01*
X105950Y-51950D02*
X107300Y-50600D01*
X108900Y-54300D02*
Y-53800D01*
X107800Y-53300D02*
X108400D01*
X108900Y-53800D01*
X43450Y-29583D02*
Y-19000D01*
X44400Y-18050D02*
Y-16800D01*
X43450Y-19000D02*
X44400Y-18050D01*
X85500Y-55300D02*
X85600Y-55200D01*
X89300Y-49242D02*
X92592Y-45950D01*
X45258Y-114200D02*
X46200D01*
X41078Y-117350D02*
X43650D01*
X40128Y-116400D02*
X41078Y-117350D01*
X42900Y-126000D02*
X43000Y-125900D01*
X45067D01*
X14400Y-62050D02*
X14500D01*
X14600Y-61900D02*
X17600D01*
X21800Y-44800D02*
X22500Y-44100D01*
X67900Y-60500D02*
Y-46700D01*
X24850Y-131150D02*
Y-128500D01*
X26300Y-127050D01*
X81500Y-54600D02*
Y-29500D01*
X89300Y-50400D02*
Y-49242D01*
X101808Y-77050D02*
X103250Y-78492D01*
X79764Y-79100D02*
X81400D01*
X99700Y-49200D02*
X103000Y-52500D01*
X98500Y-51900D02*
Y-49600D01*
X98100Y-52300D02*
X98500Y-51900D01*
X97300Y-52300D02*
X98100D01*
X96800Y-51800D02*
X97300Y-52300D01*
X96800Y-51800D02*
Y-48900D01*
X95800Y-47900D02*
X96800Y-48900D01*
X93500Y-47900D02*
X95800D01*
X93400D02*
X93500D01*
X95800Y-39000D02*
X96200D01*
X98500Y-49600D02*
X98900Y-49200D01*
X96900Y-35700D02*
X104933D01*
X39441Y-118859D02*
X44626D01*
X45617Y-119850D01*
X38250Y-120050D02*
X39441Y-118859D01*
X45617Y-119850D02*
X50769D01*
X53619Y-117000D01*
X31852Y-116900D02*
X34052Y-114700D01*
X35667D02*
X37517Y-112850D01*
X38800D01*
X34052Y-114700D02*
X35667D01*
X43108Y-116350D02*
X45258Y-114200D01*
X38883Y-112850D02*
X40350Y-114317D01*
Y-115208D02*
Y-114317D01*
Y-115208D02*
X41492Y-116350D01*
X43108D01*
X46900Y-112150D02*
Y-110515D01*
X43885Y-110015D02*
X44616D01*
X43400Y-110500D02*
X43885Y-110015D01*
X45100Y-112100D02*
Y-110500D01*
X44616Y-110015D02*
X45100Y-110500D01*
X44616Y-108715D02*
X49916D01*
X43200Y-107300D02*
X44616Y-108715D01*
X62914Y-105000D02*
X64364Y-106450D01*
X67781D01*
X69153Y-105078D01*
X70860D01*
X59028Y-103200D02*
X60828Y-105000D01*
X62914D01*
X70860Y-105078D02*
X73700Y-102239D01*
X71750Y-101150D02*
X72650Y-100250D01*
X71750Y-102350D02*
Y-101150D01*
X68614Y-103779D02*
X70322D01*
X64902Y-105150D02*
X67243D01*
X63452Y-103700D02*
X64902Y-105150D01*
X61366Y-103700D02*
X63452D01*
X52833Y-101900D02*
X59600D01*
X70322Y-103779D02*
X71750Y-102350D01*
X67243Y-105150D02*
X68614Y-103779D01*
X60250Y-102583D02*
X61366Y-103700D01*
X60250Y-102583D02*
Y-102550D01*
X59600Y-101900D02*
X60250Y-102550D01*
X32050Y-101450D02*
X35089D01*
X64350Y-103183D02*
Y-101950D01*
X62100Y-99700D02*
X64350Y-101950D01*
Y-103183D02*
X65316Y-104150D01*
X51598Y-99250D02*
X53248Y-100900D01*
X39778Y-99150D02*
X41678Y-101050D01*
X37389Y-99150D02*
X39778D01*
X66684Y-104150D02*
X67650Y-103183D01*
X65316Y-104150D02*
X66684D01*
X49402Y-99250D02*
X51598D01*
X35089Y-101450D02*
X37389Y-99150D01*
X52136Y-97950D02*
X53786Y-99600D01*
X62700Y-98400D02*
X65066Y-100766D01*
X67650Y-101447D02*
X70192Y-98906D01*
X67650Y-103183D02*
Y-101447D01*
X53786Y-99600D02*
X55800D01*
X68242Y-97992D02*
X69384Y-96850D01*
X53716Y-95650D02*
X59311D01*
X48900Y-96950D02*
X52416D01*
X53716Y-95650D01*
X66839Y-97400D02*
X68388Y-95850D01*
X61600Y-96100D02*
X66300D01*
X59850Y-94350D02*
X61600Y-96100D01*
X53178Y-94350D02*
X59850D01*
X67250Y-95150D02*
Y-94103D01*
X66300Y-96100D02*
X67250Y-95150D01*
X71600Y-75100D02*
X77300D01*
X33622Y-64750D02*
X35383D01*
X43200Y-65000D02*
X44300Y-63900D01*
X31922Y-66450D02*
X33622Y-64750D01*
X25867Y-60100D02*
X26467Y-60700D01*
X21238Y-60100D02*
X25867D01*
X17600Y-61900D02*
X20700Y-58800D01*
X25400Y-57000D02*
X27433D01*
X23600Y-58800D02*
X25400Y-57000D01*
X20700Y-58800D02*
X23600D01*
X19150Y-62189D02*
X21238Y-60100D01*
X27800Y-60700D02*
X30600Y-63500D01*
X15858Y-66000D02*
X19150Y-62708D01*
X26467Y-60700D02*
X27800D01*
X19150Y-62708D02*
Y-62189D01*
X30488Y-61550D02*
X32050D01*
X28750Y-59812D02*
X30488Y-61550D01*
X28750Y-59812D02*
Y-58316D01*
X27433Y-57000D02*
X28750Y-58316D01*
X32050Y-61550D02*
X34400Y-59200D01*
X27583Y-169650D02*
X32314D01*
X33814Y-171150D01*
X43717Y-171950D02*
X52436D01*
X26093Y-169350D02*
X27283D01*
X27583Y-169650D01*
X33814Y-171150D02*
X42917D01*
X43717Y-171950D01*
X52436D02*
X53186Y-171200D01*
X57314D01*
X59100Y-172986D01*
Y-174786D02*
Y-172986D01*
Y-174786D02*
X63264Y-178950D01*
X53600Y-172200D02*
X56900D01*
X58100Y-175200D02*
X63000Y-180100D01*
X58100Y-175200D02*
Y-173400D01*
X56900Y-172200D02*
X58100Y-173400D01*
X63000Y-180100D02*
X70900D01*
X71400Y-180600D01*
X72200D01*
X52850Y-172950D02*
X53600Y-172200D01*
X43302Y-172950D02*
X52850D01*
X33400Y-172150D02*
X42502D01*
X29602Y-170650D02*
X31900D01*
X24978Y-172650D02*
X27602D01*
X42502Y-172150D02*
X43302Y-172950D01*
X31900Y-170650D02*
X33400Y-172150D01*
X27602Y-172650D02*
X29602Y-170650D01*
X23400Y-171072D02*
X24978Y-172650D01*
X23400Y-171072D02*
Y-168072D01*
X32883Y-173150D02*
X41483D01*
X24564Y-173650D02*
X28017D01*
X31383Y-171650D02*
X32883Y-173150D01*
X30017Y-171650D02*
X31383D01*
X28017Y-173650D02*
X30017Y-171650D01*
X22400Y-171486D02*
X24564Y-173650D01*
X22400Y-171486D02*
Y-168486D01*
X21400Y-171900D02*
Y-168900D01*
Y-171900D02*
X27050Y-177550D01*
Y-179750D02*
Y-177550D01*
X23600Y-183200D02*
X27050Y-179750D01*
X23600Y-185900D02*
Y-183200D01*
X63400Y-165000D02*
X65900D01*
X67000Y-163900D01*
Y-150233D01*
X61650Y-137950D02*
X65250D01*
X61600Y-137800D02*
X61650Y-137850D01*
X65250Y-137950D02*
X67000Y-139700D01*
X61600Y-137900D02*
X61650Y-137950D01*
X61950Y-174250D02*
Y-166450D01*
X67000Y-146767D02*
Y-139700D01*
Y-146767D02*
X68050Y-147817D01*
Y-149183D02*
Y-147817D01*
X67000Y-150233D02*
X68050Y-149183D01*
X61950Y-166450D02*
X63400Y-165000D01*
X79750Y-153850D02*
X81200Y-155300D01*
X79750Y-153850D02*
Y-124550D01*
X85100Y-173600D02*
X86100Y-172600D01*
X81200Y-155300D02*
X85100D01*
X77000Y-123700D02*
X78900D01*
X76000Y-122700D02*
Y-118800D01*
X86100Y-172600D02*
Y-156300D01*
X85100Y-155300D02*
X86100Y-156300D01*
X78900Y-123700D02*
X79750Y-124550D01*
X76000Y-122700D02*
X77000Y-123700D01*
X75293Y-118093D02*
X76000Y-118800D01*
X83600Y-98848D02*
X87550Y-102798D01*
X83600Y-96900D02*
X84400Y-96100D01*
X84953D02*
X86900Y-94153D01*
X91562Y-91700D02*
X92861Y-93000D01*
X98839D01*
X99489Y-92350D02*
X102708D01*
X83750Y-108150D02*
X86408D01*
X87550Y-107008D01*
Y-102798D01*
X83600Y-98848D02*
Y-96900D01*
X84400Y-96100D02*
X84953D01*
X86900Y-94153D02*
Y-92400D01*
X87600Y-91700D01*
X91562D01*
X98839Y-93000D02*
X99489Y-92350D01*
X102708D02*
X104158Y-90900D01*
X91300Y-89900D02*
Y-88700D01*
X91800Y-88200D01*
X92500D01*
X93000Y-91300D02*
Y-88700D01*
X92500Y-88200D02*
X93000Y-88700D01*
X96700Y-91100D02*
Y-88700D01*
X96300Y-88300D02*
X96700Y-88700D01*
X95300Y-88300D02*
X96300D01*
X94800Y-88800D02*
X95300Y-88300D01*
X94800Y-91300D02*
Y-88800D01*
X100800Y-89300D02*
X101800Y-90300D01*
X99400Y-89300D02*
X100800D01*
X98900Y-89800D02*
X99400Y-89300D01*
X98900Y-91100D02*
Y-89800D01*
X98300Y-91700D02*
X98900Y-91100D01*
X97300Y-91700D02*
X98300D01*
X96700Y-91100D02*
X97300Y-91700D01*
X84414Y-94800D02*
X85600Y-93614D01*
X83500Y-94800D02*
X84414D01*
X82300Y-96000D02*
X83500Y-94800D01*
X82300Y-99387D02*
X85600Y-102687D01*
X94400Y-91700D02*
X94800Y-91300D01*
X93400Y-91700D02*
X94400D01*
X93000Y-91300D02*
X93400Y-91700D01*
X90800Y-90400D02*
X91300Y-89900D01*
X86500Y-90400D02*
X90800D01*
X85600Y-91300D02*
X86500Y-90400D01*
X85600Y-93614D02*
Y-91300D01*
X82300Y-99387D02*
Y-96000D01*
X81500Y-90472D02*
X82972Y-89000D01*
X82000Y-91700D02*
X84000D01*
X81500Y-91200D02*
Y-90472D01*
Y-91200D02*
X82000Y-91700D01*
X81600Y-93800D02*
X84000D01*
X81000Y-99501D02*
Y-94400D01*
X81600Y-93800D01*
X84000Y-91700D02*
X84600Y-92300D01*
Y-93200D02*
Y-92300D01*
X84000Y-93800D02*
X84600Y-93200D01*
X81300Y-106200D02*
X83000D01*
X81000Y-99501D02*
X83600Y-102101D01*
X83000Y-106200D02*
X84600Y-104600D01*
Y-103114D01*
X83600Y-102114D02*
X84600Y-103114D01*
X83600Y-102114D02*
Y-102101D01*
X79700Y-100600D02*
Y-90434D01*
Y-100600D02*
X81100Y-102000D01*
X93300Y-47700D02*
X93500Y-47900D01*
X107700Y-53300D02*
X107800D01*
X107400Y-53600D02*
X107700Y-53300D01*
X107400Y-55400D02*
Y-53600D01*
Y-55400D02*
X107800Y-55800D01*
X109100D01*
X109600Y-56300D01*
Y-57300D02*
Y-56300D01*
X98900Y-49200D02*
X99700D01*
X88700Y-40000D02*
X90600Y-41900D01*
X85167Y-40000D02*
X88700D01*
X91866Y-41900D02*
X96800D01*
X91866D02*
X92600D01*
X90600D02*
X91866D01*
X83100Y-42067D02*
X85167Y-40000D01*
X96800Y-35900D02*
Y-35800D01*
X83100Y-52700D02*
X85600Y-55200D01*
X97000Y-35900D02*
X98100Y-37000D01*
Y-40600D02*
Y-37000D01*
X96800Y-41900D02*
X98100Y-40600D01*
X83100Y-52700D02*
Y-42067D01*
X60700Y-9734D02*
X69250Y-18283D01*
X79750Y-27750D02*
X81500Y-29500D01*
X72816Y-27750D02*
X79750D01*
X69250Y-24183D02*
X72816Y-27750D01*
X69250Y-24183D02*
Y-18283D01*
X60700Y-9734D02*
Y-6200D01*
X74150Y-26750D02*
X86917D01*
X95200Y-38400D02*
X95800Y-39000D01*
X95200Y-38400D02*
Y-33433D01*
X92600Y-30833D02*
X95200Y-33433D01*
X92600Y-30833D02*
Y-28800D01*
X91950Y-28150D02*
X92600Y-28800D01*
X88317Y-28150D02*
X91950D01*
X86917Y-26750D02*
X88317Y-28150D01*
X70900Y-23500D02*
X74150Y-26750D01*
X93600Y-29600D02*
X94500Y-30500D01*
X70624Y-16224D02*
X80776D01*
X67800Y-13400D02*
X70624Y-16224D01*
X66700Y-13400D02*
X67800D01*
X93600Y-29600D02*
Y-25900D01*
X91600Y-23900D02*
X93600Y-25900D01*
X84667Y-23900D02*
X91600D01*
X83150Y-22383D02*
X84667Y-23900D01*
X83150Y-22383D02*
Y-18598D01*
X80776Y-16224D02*
X83150Y-18598D01*
X71990Y-15200D02*
X81166D01*
X70000Y-13210D02*
X71990Y-15200D01*
X81166D02*
X88867Y-22900D01*
X92972D02*
X95400Y-25328D01*
X88867Y-22900D02*
X92972D01*
X111750Y-26350D02*
X113500Y-24600D01*
X90565Y-18500D02*
X92250Y-20185D01*
X109617Y-26350D02*
X111750D01*
X108967Y-25700D02*
X109617Y-26350D01*
X97186Y-25700D02*
X108967D01*
X109450Y-31150D02*
X115900Y-24700D01*
X92250Y-20764D02*
X97186Y-25700D01*
X92250Y-20764D02*
Y-20185D01*
X89286Y-18500D02*
X90565D01*
X88000Y-17214D02*
X89286Y-18500D01*
X88000Y-17214D02*
Y-13700D01*
X87300Y-13000D02*
X88000Y-13700D01*
X64100Y-7400D02*
Y-5900D01*
X84834Y-8200D02*
X89000Y-12366D01*
X90979Y-17500D02*
X93250Y-19771D01*
X64100Y-7400D02*
X64900Y-8200D01*
X84834D01*
X89000Y-16800D02*
Y-12366D01*
Y-16800D02*
X89700Y-17500D01*
X90979D01*
X93250Y-20350D02*
Y-19771D01*
Y-20350D02*
X97600Y-24700D01*
X110300D01*
X36400Y-136400D02*
Y-135000D01*
Y-142000D02*
Y-140400D01*
X36000Y-140000D02*
X36400Y-140400D01*
X35300Y-140000D02*
X36000D01*
X34600Y-139300D02*
X35300Y-140000D01*
X34600Y-139300D02*
Y-138200D01*
X36400Y-136400D01*
X32600Y-146700D02*
X33100Y-146200D01*
X32600Y-148000D02*
Y-146700D01*
X33100Y-146200D02*
X36000D01*
X35121Y-151244D02*
Y-149021D01*
X32600Y-148000D02*
X33100Y-148500D01*
X34600D01*
X35121Y-149021D01*
X32650Y-132650D02*
Y-129250D01*
X29250Y-128350D02*
X31750D01*
X32650Y-129250D01*
X33000Y-133000D02*
X34400D01*
X36400Y-135000D01*
X32650Y-132650D02*
X33000Y-133000D01*
X27700Y-129900D02*
X29250Y-128350D01*
X26500Y-129900D02*
X27700D01*
X33500Y-142500D02*
X35900D01*
X33400Y-144300D02*
X35900D01*
Y-142500D02*
X36400Y-142000D01*
X32900Y-143100D02*
X33500Y-142500D01*
X32900Y-143800D02*
Y-143100D01*
Y-143800D02*
X33400Y-144300D01*
X35900D02*
X36400Y-144800D01*
Y-145800D02*
Y-144800D01*
X36000Y-146200D02*
X36400Y-145800D01*
X39150Y-140200D02*
Y-132432D01*
X41986Y-121200D02*
X43900D01*
X41439Y-120100D02*
X43800D01*
X43900Y-121200D02*
X44200Y-120900D01*
Y-120500D01*
X43800Y-120100D02*
X44200Y-120500D01*
X39700Y-123000D02*
X40186D01*
X41986Y-121200D01*
X40789Y-120750D02*
X41439Y-120100D01*
X39650Y-120750D02*
X40789D01*
X38400Y-122100D02*
Y-122000D01*
X39650Y-120750D01*
X39350Y-127800D02*
Y-125350D01*
X37372Y-130654D02*
X39150Y-132432D01*
X38550Y-146664D02*
Y-140800D01*
X38900Y-123800D02*
X39700Y-123000D01*
X38900Y-124900D02*
Y-123800D01*
Y-124900D02*
X39350Y-125350D01*
X38830Y-128320D02*
X39350Y-127800D01*
X38338Y-128320D02*
X38830D01*
X37372Y-129287D02*
X38338Y-128320D01*
X37372Y-130654D02*
Y-129287D01*
X38550Y-140800D02*
X39150Y-140200D01*
X38550Y-146664D02*
X39500Y-147614D01*
Y-149876D02*
Y-147614D01*
X40169Y-152031D02*
Y-150545D01*
X39800Y-152400D02*
X40169Y-152031D01*
X39558Y-152400D02*
X39800D01*
X38450Y-151292D02*
X39558Y-152400D01*
X19600Y-30100D02*
X22900Y-26800D01*
X18400Y-29500D02*
X19000Y-30100D01*
X19600D01*
X18400Y-29500D02*
Y-29000D01*
X22000Y-25400D01*
X22500Y-44100D02*
Y-35500D01*
X22200Y-35200D02*
X22500Y-35500D01*
X20900Y-44000D02*
Y-35700D01*
X21400Y-35200D02*
X22200D01*
X20900Y-35700D02*
X21400Y-35200D01*
X66600Y-13400D02*
X66700D01*
X61300Y-67615D02*
Y-64200D01*
X63400Y-62100D01*
X66300D01*
X52750Y-38674D02*
X53750Y-37674D01*
X52750Y-45899D02*
Y-38674D01*
Y-45899D02*
X52776Y-45924D01*
X53950Y-13512D02*
X54236Y-13226D01*
X52700Y-16733D02*
X54750Y-18783D01*
X55766Y-47100D02*
X58300D01*
X58800Y-46600D01*
X53750Y-42112D02*
X54650Y-43012D01*
Y-45983D02*
X55766Y-47100D01*
X54650Y-45983D02*
Y-43012D01*
X53750Y-39088D02*
X54750Y-38088D01*
Y-18783D01*
X53750Y-42112D02*
Y-39088D01*
X55750Y-38502D02*
Y-19700D01*
X54750Y-39502D02*
X55750Y-38502D01*
X55600Y-17100D02*
X55900Y-16800D01*
X57300Y-16000D02*
X59500Y-13800D01*
X57300Y-18150D02*
Y-16000D01*
X55750Y-19700D02*
X57300Y-18150D01*
X55900Y-56200D02*
Y-54400D01*
X57200Y-53900D02*
X57900Y-54600D01*
X56400Y-53900D02*
X57200D01*
X55900Y-54400D02*
X56400Y-53900D01*
X60100Y-56600D02*
Y-53000D01*
X59600Y-57100D02*
X60100Y-56600D01*
X56800Y-57100D02*
X59600D01*
X55900Y-56200D02*
X56800Y-57100D01*
X60100Y-53000D02*
X60450Y-52650D01*
X57300Y-28800D02*
Y-27600D01*
X57000Y-27300D02*
X57300Y-27600D01*
X57000Y-27300D02*
Y-25000D01*
X57418Y-24582D01*
X58782D01*
X59105Y-24905D01*
Y-30105D02*
Y-24905D01*
X57000Y-32210D02*
X59105Y-30105D01*
X57000Y-38667D02*
Y-32210D01*
X60450Y-52650D02*
Y-44050D01*
X58700Y-42300D02*
X60450Y-44050D01*
X56717Y-42250D02*
X58650D01*
X55750Y-41283D02*
X56717Y-42250D01*
X55750Y-41283D02*
Y-39917D01*
X57000Y-38667D01*
X55700Y-44700D02*
X56300Y-45300D01*
X55700Y-44700D02*
Y-42648D01*
X54750Y-41698D02*
X55700Y-42648D01*
X55600Y-17300D02*
X55750Y-17450D01*
X64400Y-43200D02*
X67900Y-46700D01*
X54750Y-41698D02*
Y-39502D01*
X51200Y-28900D02*
X51275D01*
X63350Y-134883D02*
Y-130550D01*
X61984Y-136250D02*
X63350Y-134883D01*
X59950Y-137217D02*
X60917Y-136250D01*
X59950Y-138583D02*
Y-137217D01*
Y-138583D02*
X60700Y-139333D01*
Y-144100D02*
Y-139333D01*
X71200Y-127800D02*
X75800D01*
X70800Y-135100D02*
Y-128200D01*
X71200Y-127800D01*
X70300Y-135600D02*
X70800Y-135100D01*
X68400Y-135600D02*
X70300D01*
X67900Y-135100D02*
X68400Y-135600D01*
X67900Y-135100D02*
Y-130600D01*
X66650Y-129350D02*
X67900Y-130600D01*
X64550Y-129350D02*
X66650D01*
X63350Y-130550D02*
X64550Y-129350D01*
X75800Y-127800D02*
X77500Y-126100D01*
X64700Y-156200D02*
Y-151300D01*
X64300Y-156600D02*
X64700Y-156200D01*
X62600Y-156600D02*
X64300D01*
X62050Y-156050D02*
Y-154692D01*
X60043Y-151747D02*
X61448Y-153152D01*
X59899Y-150145D02*
X63545D01*
X64700Y-151300D01*
X59942Y-155500D02*
X60100D01*
X60917Y-136250D02*
X61984D01*
X60910Y-128594D02*
X62600Y-126904D01*
X58900Y-149146D02*
X59899Y-150145D01*
X61600Y-123300D02*
X62600Y-124300D01*
X61655Y-121900D02*
Y-121814D01*
X61600Y-123300D02*
Y-121900D01*
X62600Y-126904D02*
Y-124300D01*
X63900Y-127372D02*
X64450Y-126822D01*
X63900Y-127442D02*
Y-127372D01*
X35500Y-164700D02*
X36200Y-165400D01*
Y-166027D02*
Y-165400D01*
X35000Y-167227D02*
X36200Y-166027D01*
X32033Y-164700D02*
X35500D01*
X34900Y-167227D02*
X35000D01*
X22600Y-158714D02*
X24186Y-160300D01*
X21500Y-152328D02*
Y-138100D01*
X22600Y-158714D02*
Y-153428D01*
X21500Y-152328D02*
X22600Y-153428D01*
X21500Y-138100D02*
X23100Y-136500D01*
X27633Y-160300D02*
X32033Y-164700D01*
X24186Y-160300D02*
X27633D01*
X25200Y-156900D02*
X25600D01*
X24800Y-156500D02*
X25200Y-156900D01*
X24800Y-156500D02*
Y-154800D01*
X25600Y-156900D02*
X25950Y-156550D01*
Y-153350D01*
X24500Y-154500D02*
X24800Y-154800D01*
X23900Y-154500D02*
X24500D01*
X23600Y-154800D02*
X23900Y-154500D01*
X23600Y-158300D02*
Y-154800D01*
X22500Y-151914D02*
Y-139800D01*
X25400Y-136900D01*
Y-134600D01*
X24600Y-159300D02*
X28200D01*
X23600Y-158300D02*
X24600Y-159300D01*
X28783Y-159917D02*
X31467Y-162600D01*
X28200Y-159300D02*
X28800Y-159900D01*
X25500Y-152900D02*
X25950Y-153350D01*
X23486Y-152900D02*
X25500D01*
X22500Y-151914D02*
X23486Y-152900D01*
X26552Y-152252D02*
Y-149700D01*
Y-152252D02*
X27600Y-153300D01*
X25200Y-151500D02*
Y-149800D01*
X24800Y-151900D02*
X25200Y-151500D01*
X23900Y-151900D02*
X24800D01*
X23500Y-151500D02*
X23900Y-151900D01*
X23500Y-151500D02*
Y-140648D01*
X26252Y-149400D02*
X26552Y-149700D01*
X25600Y-149400D02*
X26252D01*
X25200Y-149800D02*
X25600Y-149400D01*
X24850Y-131150D02*
X25600Y-131900D01*
X27650Y-135883D02*
Y-132750D01*
X25600Y-131900D02*
X26800D01*
X27650Y-132750D01*
X23500Y-140648D02*
X26550Y-137598D01*
Y-136983D01*
X27100Y-145700D02*
X27552Y-146152D01*
X26500Y-145700D02*
X27100D01*
X26000Y-146200D02*
X26500Y-145700D01*
X26000Y-148000D02*
Y-146200D01*
X24900Y-148400D02*
X25600D01*
X26000Y-148000D01*
X24500Y-141662D02*
X27552Y-138609D01*
X24500Y-148000D02*
X24900Y-148400D01*
X24500Y-148000D02*
Y-141662D01*
X31900Y-160500D02*
X32300Y-160100D01*
X30900Y-160500D02*
X31900D01*
X29717Y-159317D02*
X30900Y-160500D01*
X32300Y-160100D02*
Y-157800D01*
X31600Y-157100D02*
X32300Y-157800D01*
X31600Y-157100D02*
Y-156500D01*
X27552Y-151019D02*
X29717Y-153183D01*
Y-159317D02*
Y-153183D01*
X36450Y-159750D02*
Y-157283D01*
X35900Y-160300D02*
X36450Y-159750D01*
X34100Y-160300D02*
X35900D01*
X35564Y-156398D02*
X36450Y-157283D01*
X33600Y-159800D02*
X34100Y-160300D01*
X33600Y-159800D02*
Y-155228D01*
X28852Y-150481D02*
X33600Y-155228D01*
X27552Y-151019D02*
Y-146152D01*
X27800Y-144300D02*
X28852Y-145352D01*
Y-150481D02*
Y-145352D01*
X26600Y-144300D02*
X27800D01*
X26569Y-144269D02*
X26600D01*
X26100Y-143800D02*
X26569Y-144269D01*
X26100Y-141938D02*
X26119Y-141919D01*
X28852Y-139148D02*
Y-137933D01*
X26100Y-141900D02*
X28852Y-139148D01*
X27552Y-138609D02*
Y-137395D01*
X31650Y-135136D02*
Y-131250D01*
X30400Y-130000D02*
X31650Y-131250D01*
X28852Y-137933D02*
X31650Y-135136D01*
X29200Y-135747D02*
Y-134800D01*
X27552Y-137395D02*
X29200Y-135747D01*
X26100Y-143800D02*
Y-141938D01*
X26550Y-136983D02*
X27650Y-135883D01*
X37450Y-159350D02*
X39700Y-161600D01*
X37450Y-159350D02*
Y-155950D01*
X36000Y-154500D02*
X37450Y-155950D01*
X34286Y-154500D02*
X36000D01*
X29852Y-150067D02*
X34286Y-154500D01*
X29852Y-150067D02*
Y-143100D01*
X41400Y-169300D02*
Y-167300D01*
Y-169300D02*
X41800Y-169700D01*
X42600D01*
X41427Y-164427D02*
Y-161161D01*
X42600Y-169700D02*
X43000Y-169300D01*
Y-166000D01*
X41427Y-164427D02*
X43000Y-166000D01*
X31050Y-149850D02*
X34700Y-153500D01*
X31050Y-149850D02*
Y-143317D01*
X38450Y-158183D02*
X41427Y-161161D01*
X38450Y-158183D02*
Y-155450D01*
X36500Y-153500D02*
X38450Y-155450D01*
X34700Y-153500D02*
X36500D01*
X31050Y-143317D02*
X32400Y-141967D01*
Y-138800D01*
X37300Y-124000D02*
X37700Y-124400D01*
X36600Y-124000D02*
X37300D01*
X36100Y-124500D02*
X36600Y-124000D01*
X37700Y-126100D02*
Y-124400D01*
X36100Y-130814D02*
Y-124500D01*
Y-130814D02*
X37804Y-132519D01*
Y-136912D02*
Y-132519D01*
X37400Y-137316D02*
X37804Y-136912D01*
X37400Y-148900D02*
Y-137316D01*
X36800Y-149500D02*
X37400Y-148900D01*
X36800Y-152100D02*
Y-149500D01*
X39200Y-153600D02*
X40300Y-154700D01*
X40100Y-156600D02*
X40300Y-156400D01*
Y-154700D01*
X40100Y-157500D02*
Y-156600D01*
X38300Y-153600D02*
X39200D01*
X36800Y-152100D02*
X38300Y-153600D01*
X47017Y-152950D02*
X47050D01*
X46050Y-151983D02*
X47017Y-152950D01*
X46050Y-151983D02*
Y-150498D01*
X43550Y-143017D02*
X44300Y-142267D01*
X45298Y-145350D02*
X47150Y-147202D01*
X44474Y-145350D02*
X45298D01*
X43550Y-144426D02*
X44474Y-145350D01*
X43550Y-144426D02*
Y-143017D01*
X44300Y-142267D02*
Y-138800D01*
X44900Y-138200D01*
Y-137200D01*
X43700Y-127700D02*
X45100D01*
X43000Y-128400D02*
X43700Y-127700D01*
X43000Y-131600D02*
Y-128400D01*
X45100Y-127700D02*
X45600Y-127200D01*
Y-126433D01*
X45067Y-125900D02*
X45600Y-126433D01*
X44700Y-158800D02*
X45200Y-159300D01*
X44700Y-158800D02*
Y-158214D01*
X45200Y-159300D02*
X45893D01*
X44700Y-158214D02*
X45214Y-157700D01*
X42150Y-132450D02*
X43000Y-131600D01*
X47100Y-125600D02*
X47150Y-125650D01*
X42317Y-124250D02*
X45650D01*
X47100Y-125700D01*
X41350Y-127886D02*
Y-125217D01*
X42317Y-124250D01*
X41350Y-127886D02*
X41950Y-128486D01*
Y-131169D02*
Y-128486D01*
X45200Y-122200D02*
X45800Y-122800D01*
X48300D02*
X48900Y-122200D01*
X45800Y-122800D02*
X48300D01*
X40950Y-130736D02*
Y-128900D01*
X42400Y-122200D02*
X45200D01*
X40350Y-124250D02*
X42400Y-122200D01*
X40350Y-128300D02*
Y-124250D01*
Y-128300D02*
X40950Y-128900D01*
X45800Y-157700D02*
X46300Y-157200D01*
Y-155062D01*
X43200Y-151962D02*
X46300Y-155062D01*
X45214Y-157700D02*
X45800D01*
X45893Y-159300D02*
X46493Y-159900D01*
Y-160800D02*
Y-159900D01*
X45800Y-161493D02*
X46493Y-160800D01*
X45800Y-162800D02*
Y-161493D01*
X42150Y-141588D02*
Y-132450D01*
X48200Y-149762D02*
Y-145753D01*
X47700Y-151300D02*
Y-150262D01*
X48200Y-149762D01*
X46050Y-150498D02*
X47150Y-149398D01*
X47600Y-145153D02*
X48200Y-145753D01*
X46700Y-165700D02*
X47493Y-164907D01*
X46700Y-166300D02*
Y-165700D01*
Y-166300D02*
X47300Y-166900D01*
X48000D02*
X49000Y-165900D01*
X47300Y-166900D02*
X48000D01*
X47493Y-164907D02*
Y-156200D01*
X45050Y-152398D02*
X47500Y-154848D01*
Y-156200D02*
Y-154848D01*
X43200Y-151962D02*
Y-149333D01*
X45050Y-150083D02*
X46150Y-148983D01*
X45050Y-152398D02*
Y-150083D01*
X46150Y-148983D02*
Y-147617D01*
X49300Y-131400D02*
X50650D01*
X51150Y-131900D01*
Y-133850D02*
Y-131900D01*
X50500Y-134500D02*
X51150Y-133850D01*
X48200Y-130400D02*
Y-128300D01*
X47550Y-138400D02*
Y-131050D01*
X47950Y-130650D02*
X48200Y-130400D01*
X47950Y-130650D02*
Y-130650D01*
X47550Y-131050D02*
X47950Y-130650D01*
X48850Y-131850D02*
X49300Y-131400D01*
X48850Y-137600D02*
Y-131850D01*
X51186Y-153000D02*
X52550Y-154364D01*
Y-156922D02*
Y-154364D01*
X51300Y-158172D02*
X52550Y-156922D01*
X51186Y-153000D02*
Y-144486D01*
X51300Y-161000D02*
Y-158172D01*
X52000Y-162800D02*
Y-161700D01*
X51300Y-161000D02*
X52000Y-161700D01*
X48850Y-137600D02*
X49950Y-138700D01*
Y-143250D02*
X51186Y-144486D01*
X49950Y-143250D02*
Y-138700D01*
X50050Y-126100D02*
X51500Y-127550D01*
Y-129700D02*
Y-127550D01*
X51100Y-130100D02*
X51500Y-129700D01*
X49800D02*
Y-128300D01*
X49300Y-127800D02*
X49800Y-128300D01*
X50200Y-130100D02*
X51100D01*
X49800Y-129700D02*
X50200Y-130100D01*
X51250Y-156383D02*
Y-155017D01*
X50000Y-157633D02*
X51250Y-156383D01*
X49886Y-153653D02*
X51250Y-155017D01*
X50000Y-161100D02*
Y-157633D01*
X49300Y-161800D02*
X50000Y-161100D01*
X49886Y-153653D02*
Y-145175D01*
X49300Y-162800D02*
Y-161800D01*
X48700Y-127800D02*
X49300D01*
X48200Y-128300D02*
X48700Y-127800D01*
X48650Y-143939D02*
Y-139617D01*
Y-143939D02*
X49886Y-145175D01*
X48600Y-139567D02*
X48650Y-139617D01*
X48600Y-139567D02*
Y-139450D01*
X47550Y-138400D02*
X48600Y-139450D01*
X46550Y-138300D02*
Y-136517D01*
X45350Y-139500D02*
X46550Y-138300D01*
X45600Y-135567D02*
X46550Y-136517D01*
X45350Y-141517D02*
Y-139500D01*
X45600Y-135567D02*
Y-134600D01*
X47600Y-145153D02*
Y-143767D01*
X45350Y-141517D02*
X47600Y-143767D01*
X29852Y-143100D02*
X30550Y-142402D01*
X32800Y-135400D02*
X34154D01*
X30550Y-137650D02*
X32800Y-135400D01*
X30550Y-142402D02*
Y-137650D01*
X55486Y-155186D02*
Y-143576D01*
Y-155186D02*
X56100Y-155800D01*
X53900Y-169100D02*
X54800D01*
X53100Y-168300D02*
X53900Y-169100D01*
X53100Y-168300D02*
Y-168000D01*
X55564Y-168336D02*
Y-167858D01*
X54800Y-169100D02*
X55564Y-168336D01*
X53100Y-168000D02*
X53700Y-167400D01*
X55564Y-166491D02*
Y-165964D01*
Y-166900D02*
Y-166491D01*
X53650Y-164050D02*
X55564Y-165964D01*
X53650Y-164050D02*
Y-161350D01*
X52607Y-160307D02*
X53650Y-161350D01*
X54200Y-156714D02*
Y-154600D01*
X52607Y-160307D02*
Y-158307D01*
X54200Y-156714D01*
X52186Y-152586D02*
Y-143814D01*
X53300Y-142700D01*
X52186Y-152586D02*
X54200Y-154600D01*
X53300Y-142700D02*
Y-141000D01*
X51650Y-139350D02*
X53300Y-141000D01*
X51650Y-139350D02*
Y-135917D01*
X52150Y-135417D01*
X53836Y-151426D02*
X54300Y-150962D01*
Y-138700D01*
X42748Y-148881D02*
Y-146452D01*
X53200Y-137600D02*
X53300D01*
X49500Y-165900D02*
X50800Y-167200D01*
X49000Y-165900D02*
X49500D01*
X41169Y-153319D02*
Y-150131D01*
X40150Y-140760D02*
Y-131536D01*
X41169Y-153319D02*
X42900Y-155050D01*
X43150Y-142002D02*
Y-134417D01*
X41550Y-142188D02*
X42150Y-141588D01*
X56500Y-130300D02*
X60500Y-126300D01*
X56500Y-153700D02*
Y-130300D01*
X55500Y-143562D02*
Y-135900D01*
X55486Y-143576D02*
X55500Y-143562D01*
X52150Y-135417D02*
Y-131950D01*
X56500Y-153700D02*
X57750Y-154950D01*
Y-160600D02*
Y-154950D01*
X60500Y-126300D02*
X61100D01*
X60400Y-124500D02*
X60900D01*
X61100Y-126300D02*
X61500Y-125900D01*
Y-125100D01*
X60900Y-124500D02*
X61500Y-125100D01*
X40500Y-149462D02*
X41169Y-150131D01*
X40500Y-149462D02*
Y-147200D01*
X39550Y-146250D02*
X40500Y-147200D01*
X39550Y-146250D02*
Y-141360D01*
X40150Y-140760D01*
Y-131536D02*
X40950Y-130736D01*
X41150Y-141174D02*
Y-131950D01*
X41900Y-131200D01*
X41910Y-131210D02*
X41950Y-131169D01*
X42550Y-142602D02*
X43150Y-142002D01*
Y-134417D02*
X46300Y-131267D01*
Y-129967D01*
X44883Y-146350D02*
X46150Y-147617D01*
X44060Y-146350D02*
X44883D01*
X42550Y-144840D02*
X44060Y-146350D01*
X42200Y-152936D02*
Y-149748D01*
X41500Y-149048D02*
X42200Y-149748D01*
X41500Y-149048D02*
Y-146700D01*
X40550Y-145750D02*
X41500Y-146700D01*
X42200Y-152936D02*
X44600Y-155336D01*
X42748Y-148881D02*
X43200Y-149333D01*
X41550Y-145255D02*
X42748Y-146452D01*
X40550Y-145750D02*
Y-141774D01*
X41550Y-145255D02*
Y-142188D01*
X42550Y-144840D02*
Y-142602D01*
X40550Y-141774D02*
X41150Y-141174D01*
X47150Y-149398D02*
Y-147202D01*
X43100Y-162800D02*
Y-158400D01*
X44600Y-156900D02*
Y-155336D01*
X43100Y-158400D02*
X44600Y-156900D01*
X55300Y-162800D02*
X55550D01*
X57750Y-160600D01*
X54000Y-134400D02*
X54100D01*
X52150Y-131950D02*
X54100Y-130000D01*
X64450Y-126822D02*
Y-126550D01*
X51800Y-27200D02*
X52200Y-26800D01*
X49600Y-27200D02*
Y-21000D01*
X51275Y-28900D02*
X51287Y-28913D01*
X50900Y-26800D02*
Y-21000D01*
Y-26800D02*
X51300Y-27200D01*
X51800D01*
X53300Y-20400D02*
X53750Y-20850D01*
Y-37674D02*
Y-20850D01*
X52200Y-26800D02*
Y-20900D01*
X52700Y-20400D01*
X53300D01*
X49600Y-21000D02*
X49900Y-20700D01*
X50600D01*
X50900Y-21000D01*
X54783Y-52950D02*
X55750Y-51983D01*
X50826Y-46732D02*
X51968Y-47874D01*
X48000Y-29000D02*
X48025D01*
X54474Y-47874D02*
X55750Y-49150D01*
Y-51983D02*
Y-49150D01*
X51968Y-47874D02*
X54474D01*
X50826Y-44500D02*
X51450Y-43876D01*
X50826Y-46732D02*
Y-44500D01*
X51450Y-43876D02*
Y-38135D01*
X52450Y-37135D01*
Y-31450D01*
X52000Y-31000D02*
X52450Y-31450D01*
X51100Y-31000D02*
X52000D01*
X50700Y-31400D02*
X51100Y-31000D01*
X48500Y-29200D02*
X49100Y-29800D01*
X48200Y-29200D02*
X48500D01*
X48100Y-29100D02*
X48200Y-29200D01*
X50300Y-35100D02*
X50700Y-34700D01*
Y-31400D01*
X49100Y-34700D02*
Y-29800D01*
Y-34700D02*
X49500Y-35100D01*
X50300D01*
X52350Y-54517D02*
X53917Y-52950D01*
X52350Y-55884D02*
Y-54517D01*
X53917Y-52950D02*
X54783D01*
X49900Y-55400D02*
X50000Y-55300D01*
X49900Y-56900D02*
Y-55400D01*
Y-56900D02*
X50200Y-57200D01*
X51000D01*
X51700Y-57900D01*
X52600D01*
X53100Y-57400D01*
Y-56634D01*
X52350Y-55884D02*
X53100Y-56634D01*
X49826Y-44086D02*
X50450Y-43461D01*
X51900Y-53500D02*
X54100Y-51300D01*
X49467Y-53500D02*
X51900D01*
X47850Y-55116D02*
X49467Y-53500D01*
X44550Y-55783D02*
X45517Y-56750D01*
X44550Y-55783D02*
Y-54417D01*
X45567Y-53400D01*
X47500D01*
X48500Y-52400D01*
X47900Y-50700D02*
X48300Y-51100D01*
X49826Y-47726D02*
X50300Y-48200D01*
X49826Y-47726D02*
Y-44086D01*
X50300Y-48200D02*
X50879D01*
X51300Y-48621D01*
X50900Y-49700D02*
X51300Y-49300D01*
Y-48621D01*
X47900Y-50700D02*
Y-50100D01*
X48300Y-49700D01*
X50900D01*
X45517Y-56750D02*
X47150D01*
X47850Y-56050D01*
Y-55116D01*
X48500Y-52400D02*
X51500D01*
X48300Y-51100D02*
X51500D01*
X51900Y-51500D01*
X51500Y-52400D02*
X51900Y-52000D01*
Y-51500D01*
X46300Y-29852D02*
Y-27800D01*
Y-29852D02*
X47800Y-31352D01*
Y-38200D02*
X48700Y-39100D01*
X48100Y-43500D02*
X48700Y-42900D01*
X48100Y-44700D02*
Y-43500D01*
X48600Y-19333D02*
X49550Y-18383D01*
X47800Y-38200D02*
Y-31352D01*
X48700Y-42900D02*
Y-39100D01*
X51000Y-13100D02*
X51700Y-12400D01*
Y-8386D01*
X51200Y-6800D02*
X51800D01*
X52193Y-7193D01*
Y-7893D02*
Y-7193D01*
X51700Y-8386D02*
X52193Y-7893D01*
X50300Y-7700D02*
X51200Y-6800D01*
X47000Y-27100D02*
X47900D01*
X48600Y-26400D01*
X46300Y-27800D02*
X47000Y-27100D01*
X48600Y-26400D02*
Y-19333D01*
X41350Y-38483D02*
X41850Y-38983D01*
X46200Y-51352D02*
Y-51200D01*
X44252Y-53300D02*
X46200Y-51352D01*
X43500Y-53300D02*
X44252D01*
X43100Y-52900D02*
X43500Y-53300D01*
X41850Y-42860D02*
Y-38983D01*
X47500Y-49000D02*
X48700Y-47800D01*
X44600Y-49100D02*
X45000Y-49500D01*
X46400D01*
X43100Y-52900D02*
Y-48800D01*
X43500Y-48400D01*
X44200D01*
X44600Y-48800D01*
Y-49100D02*
Y-48800D01*
X42750Y-45950D02*
X43400Y-46600D01*
X42750Y-45950D02*
Y-43760D01*
X41350Y-38483D02*
Y-37117D01*
X41850Y-42860D02*
X42750Y-43760D01*
X44267Y-34200D02*
X45600D01*
X41350Y-37117D02*
X44267Y-34200D01*
X46550Y-33250D02*
Y-31517D01*
X45600Y-34200D02*
X46550Y-33250D01*
X47500Y-17500D02*
X47900Y-17100D01*
X45300Y-27386D02*
X47500Y-25186D01*
X45300Y-30267D02*
Y-27386D01*
Y-30267D02*
X46550Y-31517D01*
X47200Y-19600D02*
X47500Y-19900D01*
Y-25186D02*
Y-19900D01*
X46300Y-19600D02*
X47200D01*
X46100Y-19800D02*
X46300Y-19600D01*
X44700Y-24900D02*
X45000Y-25200D01*
X45700D01*
X46100Y-24800D01*
X44700Y-24900D02*
Y-19400D01*
X46100Y-24800D02*
Y-19800D01*
X42100Y-54800D02*
Y-48400D01*
X41400Y-47700D02*
X42100Y-48400D01*
X40400Y-48114D02*
Y-44938D01*
X41400Y-47700D02*
Y-44524D01*
X40850Y-43974D02*
X41400Y-44524D01*
X48850Y-57750D02*
X50100Y-59000D01*
X40400Y-48114D02*
X40750Y-48464D01*
X39850Y-44388D02*
X40400Y-44938D01*
X39850Y-44388D02*
Y-43314D01*
X39286Y-33600D02*
X39433D01*
X38986Y-42450D02*
X39850Y-43314D01*
X37186Y-42450D02*
X38986D01*
X36250Y-36636D02*
X39286Y-33600D01*
X36250Y-41514D02*
X37186Y-42450D01*
X36250Y-41514D02*
Y-36636D01*
X39000Y-32600D02*
X40900Y-30700D01*
X41700Y-29719D02*
X41800Y-29619D01*
X40910Y-30710D02*
X41800Y-29819D01*
X41700Y-29719D02*
X41800Y-29819D01*
Y-29619D02*
Y-28900D01*
X39433Y-33600D02*
X43450Y-29583D01*
X38872Y-32600D02*
X39000D01*
X35250Y-41928D02*
X36772Y-43450D01*
X38200D02*
X38850Y-44100D01*
Y-44802D02*
Y-44100D01*
Y-44802D02*
X39400Y-45352D01*
Y-49000D02*
Y-45352D01*
Y-49000D02*
X39750Y-49350D01*
X35250Y-36222D02*
X38872Y-32600D01*
X35250Y-41928D02*
Y-36222D01*
X36772Y-43450D02*
X38200D01*
X40150Y-28150D02*
X41900Y-26400D01*
X40150Y-28302D02*
X40150Y-28302D01*
Y-29750D02*
Y-28302D01*
X40150Y-28302D02*
Y-28150D01*
X34250Y-42343D02*
X36357Y-44450D01*
X37083D01*
X34250Y-42343D02*
Y-35650D01*
X40150Y-29750D01*
X37083Y-44450D02*
X38100Y-45467D01*
X42000Y-23000D02*
X42400Y-23400D01*
X41900Y-26400D02*
Y-25300D01*
X42400Y-24800D01*
Y-23400D01*
X40600Y-22500D02*
X41100Y-23000D01*
X42000D01*
X33250Y-42757D02*
Y-35236D01*
X33543Y-34943D01*
X38500Y-28986D02*
Y-28386D01*
X40793Y-26093D01*
Y-24193D01*
X39600Y-23000D02*
X40793Y-24193D01*
X36900Y-22614D02*
Y-20586D01*
X37900Y-23200D02*
X39000Y-24300D01*
Y-25700D02*
Y-24300D01*
X36800Y-27900D02*
X39000Y-25700D01*
X33522Y-34950D02*
X36800Y-31672D01*
Y-27900D01*
X33250Y-42757D02*
X34500Y-44007D01*
X36400Y-48500D02*
Y-46100D01*
X35900Y-49000D02*
X36400Y-48500D01*
X34500D02*
Y-44007D01*
Y-48500D02*
X35000Y-49000D01*
X35900D01*
X36893Y-22621D02*
X36900Y-22614D01*
X36893Y-26393D02*
Y-22621D01*
X35800Y-27486D02*
X36893Y-26393D01*
X35800Y-31257D02*
Y-27486D01*
X32250Y-43171D02*
X33500Y-44421D01*
X32250Y-43171D02*
Y-34807D01*
X35800Y-31257D01*
X34400Y-55200D02*
Y-55189D01*
X39900Y-17600D02*
Y-16300D01*
X41500Y-14700D01*
X38600Y-18900D02*
X39900Y-17600D01*
X36900Y-20586D02*
X38593Y-18893D01*
X27150Y-46650D02*
Y-43264D01*
X29450Y-46350D02*
X30600Y-45200D01*
X29450Y-56500D02*
X30150Y-57200D01*
X32100D01*
X32700Y-56600D01*
X31800Y-52600D02*
Y-46400D01*
Y-52600D02*
X32700Y-53500D01*
X32750Y-56600D02*
Y-53500D01*
X29450Y-47800D02*
X30400Y-48750D01*
Y-49900D02*
Y-48750D01*
X29450Y-47800D02*
Y-46350D01*
Y-50850D02*
X30400Y-49900D01*
X29450Y-51600D02*
X30400Y-52550D01*
Y-53200D02*
Y-52550D01*
X29450Y-51600D02*
Y-50850D01*
Y-56500D02*
Y-54150D01*
X30400Y-53200D01*
X30600Y-39400D02*
Y-37700D01*
X30200Y-39800D02*
X30600Y-39400D01*
X25950Y-42064D02*
X27150Y-43264D01*
X34500Y-31143D02*
Y-21031D01*
X25950Y-36800D02*
X26750Y-36000D01*
X25950Y-42064D02*
Y-36800D01*
X37600Y-14700D02*
X38200Y-15300D01*
Y-16700D02*
Y-15300D01*
X34500Y-21031D02*
X35900Y-19631D01*
Y-15300D01*
X36500Y-14700D01*
X37600D01*
X26750Y-36000D02*
X29643D01*
X34500Y-31143D01*
X24650Y-43950D02*
X25200Y-44500D01*
X24650Y-36261D02*
X26212Y-34700D01*
X29105D01*
X33200Y-30605D01*
X24650Y-43950D02*
Y-36261D01*
X33700Y-18400D02*
X33800Y-18500D01*
X32200Y-14200D02*
X32600Y-13800D01*
X33500D01*
X33900Y-14200D01*
Y-18400D02*
Y-14200D01*
X26152Y-33345D02*
X29045D01*
X23500Y-35997D02*
X26152Y-33345D01*
X32200Y-19300D02*
Y-14200D01*
Y-19300D02*
X33200Y-20300D01*
Y-30605D02*
Y-20300D01*
X23500Y-46300D02*
X26200Y-49000D01*
X27700D01*
X28450Y-49750D01*
X23500Y-46300D02*
Y-35997D01*
X26600Y-51200D02*
Y-51100D01*
Y-51800D02*
Y-51200D01*
Y-51800D02*
X27300Y-52500D01*
X27900D01*
X28450Y-51950D01*
Y-49750D01*
X20500Y-44400D02*
X20900Y-44000D01*
X19200D02*
X19600Y-44400D01*
X20500D01*
X18200Y-46800D02*
Y-35586D01*
X25086Y-28700D01*
X28000D01*
X29450Y-27250D01*
Y-18550D01*
X18200Y-46800D02*
X19400Y-48000D01*
X22600D01*
X24800Y-50200D01*
Y-53400D02*
X26600Y-55200D01*
X24800Y-53400D02*
Y-50200D01*
X22000Y-25400D02*
X26900D01*
X22900Y-26800D02*
X23700D01*
X24200Y-28172D02*
Y-27300D01*
X23700Y-26800D02*
X24200Y-27300D01*
X64400Y-43200D02*
Y-41700D01*
X63650Y-40950D02*
X64400Y-41700D01*
X63650Y-40950D02*
Y-38550D01*
X50450Y-43461D02*
Y-37950D01*
X49500Y-37000D02*
X50450Y-37950D01*
X66300Y-62100D02*
X67900Y-60500D01*
X62200Y-17800D02*
Y-17500D01*
X19200Y-44000D02*
Y-36000D01*
X59000Y-17400D02*
Y-16980D01*
X61600Y-29469D02*
Y-24490D01*
X63500Y-19903D02*
Y-19552D01*
X26900Y-25400D02*
X27600Y-26100D01*
X57900Y-55100D02*
Y-54600D01*
X54000Y-134400D02*
X55500Y-135900D01*
X58400Y-37686D02*
Y-33700D01*
X59249Y-31651D02*
X59500Y-31400D01*
X59501Y-31399D01*
X60300Y-29469D02*
Y-23900D01*
X56900Y-23100D02*
Y-22500D01*
X57000Y-20500D02*
Y-20200D01*
X57300Y-22100D02*
X60200D01*
X57400Y-20900D02*
X60200D01*
X60600Y-21700D02*
Y-21300D01*
X57500Y-19700D02*
X60300D01*
X47050Y-152950D02*
X49700Y-155600D01*
X60600Y-144200D02*
X60700Y-144100D01*
X55564Y-167858D02*
Y-166491D01*
X27000Y-46800D02*
X27150Y-46650D01*
X37200Y-17700D02*
X38200Y-16700D01*
X58900Y-149146D02*
Y-136584D01*
X61829Y-129513D02*
X63900Y-127442D01*
X53200Y-137600D02*
X54300Y-138700D01*
X42900Y-156100D02*
Y-155050D01*
X48900Y-122200D02*
X50200D01*
X25250Y-44450D02*
X25300Y-44500D01*
X57600Y-150100D02*
Y-136584D01*
X59762Y-155320D02*
X59942Y-155500D01*
X31467Y-162600D02*
X33600D01*
X29450Y-18550D02*
X30250Y-17750D01*
X49600Y-27200D02*
X51300Y-28900D01*
X57900Y-122000D02*
X60400Y-124500D01*
X39700Y-162800D02*
Y-161600D01*
X54200Y-13200D02*
X54600Y-12800D01*
X104933Y-35700D02*
X109450Y-31183D01*
Y-31150D01*
X32800Y-49000D02*
X33500Y-48300D01*
Y-44421D01*
X32800Y-51933D02*
Y-49000D01*
Y-51933D02*
X33817Y-52950D01*
X33850D01*
X34300Y-53400D01*
Y-55100D02*
Y-53400D01*
X21950Y-33250D02*
X24250D01*
X25200Y-32300D01*
X27700D01*
X29400Y-30600D01*
X19200Y-36000D02*
X21950Y-33250D01*
X61824Y-174376D02*
X61950Y-174250D01*
X45900Y-174100D02*
X47500Y-175700D01*
X41483Y-173150D02*
X42433Y-174100D01*
X45900D01*
X62050Y-156050D02*
X62100Y-156100D01*
X61448Y-153152D02*
X62050Y-153755D01*
Y-154692D02*
Y-153755D01*
Y-156050D02*
X62600Y-156600D01*
X57538Y-99700D02*
X60109D01*
X61100D01*
X60109D02*
X62100D01*
X56339Y-100900D02*
X57538Y-99700D01*
X56300Y-100900D02*
X56339D01*
X53248D02*
X56339D01*
X39183Y-100150D02*
X41083Y-102050D01*
X48017D01*
X47602Y-101050D02*
X49226Y-99426D01*
X41678Y-101050D02*
X47602D01*
X49402Y-99250D01*
X48783Y-97950D02*
X52136D01*
X115900Y-24700D02*
X116300D01*
X96200Y-64200D02*
Y-60100D01*
X95500Y-59400D02*
X96200Y-60100D01*
X92700Y-59400D02*
X95500D01*
X97300Y-63400D02*
X97800Y-63900D01*
X97300Y-63400D02*
Y-61500D01*
X98200Y-60600D01*
X99800D01*
X101300Y-62100D01*
X101418Y-61982D02*
X101500Y-62064D01*
Y-62500D02*
Y-62064D01*
X99567Y-77050D02*
X101808D01*
X99111Y-78150D02*
X100750D01*
X101300Y-78700D01*
Y-79300D02*
X101400Y-79400D01*
X101300Y-79300D02*
Y-78700D01*
X96200Y-64200D02*
X97000Y-65000D01*
X107800Y-72900D02*
X110200Y-70500D01*
Y-62933D01*
X109150Y-61883D02*
X110200Y-62933D01*
X109150Y-61883D02*
Y-61750D01*
X107500Y-60100D02*
X109150Y-61750D01*
X105300Y-60100D02*
X107500D01*
X104900Y-73000D02*
Y-72900D01*
X102100Y-56700D02*
X102550Y-57150D01*
Y-58925D02*
Y-57150D01*
Y-58925D02*
X104553Y-60928D01*
X104572D01*
X104844Y-61200D01*
X106911D01*
X109100Y-63389D01*
X94900Y-66700D02*
X96200Y-68000D01*
Y-75239D02*
Y-68000D01*
X89700Y-66700D02*
X94900D01*
X96200Y-75239D02*
X99111Y-78150D01*
X97300Y-68200D02*
X98500Y-67000D01*
X97300Y-74783D02*
Y-68200D01*
X98500Y-67000D02*
X102200D01*
X97300Y-74783D02*
X99567Y-77050D01*
X101500Y-74300D02*
Y-74200D01*
X102200Y-73500D01*
Y-69511D02*
X103850Y-67861D01*
Y-65750D01*
X103100Y-65000D02*
X103850Y-65750D01*
X97000Y-65000D02*
X103100D01*
X101000Y-74800D02*
X101500Y-74300D01*
X102200Y-73500D02*
Y-69511D01*
X97800Y-63900D02*
X103556D01*
X104950Y-65294D01*
Y-68317D02*
Y-65294D01*
X103300Y-76200D02*
X103800Y-76700D01*
X103300Y-69967D02*
X104950Y-68317D01*
X103300Y-76200D02*
Y-69967D01*
X82866Y-75134D02*
X84516Y-73484D01*
X90885D01*
X93600Y-76200D01*
Y-79700D02*
Y-76200D01*
Y-79700D02*
X96800Y-82900D01*
X81340Y-75134D02*
X82866D01*
X96800Y-82900D02*
X110100D01*
X111276Y-81724D01*
X94700Y-79244D02*
X97256Y-81800D01*
X108300D02*
X109200Y-80900D01*
Y-80500D01*
X97256Y-81800D02*
X108300D01*
X81400Y-72400D02*
Y-71700D01*
Y-72400D02*
X82400Y-73400D01*
X83044D01*
X84060Y-72385D01*
X91340D02*
X94700Y-75744D01*
Y-79244D02*
Y-75744D01*
X84060Y-72385D02*
X86115D01*
X86700Y-71800D01*
Y-69900D01*
X87100Y-69500D01*
X88200D01*
X88600Y-69900D01*
Y-71800D02*
Y-69900D01*
Y-71800D02*
X89184Y-72385D01*
X91340D01*
X85000Y-87600D02*
X87450Y-85150D01*
X82500Y-87600D02*
X85000D01*
X81800Y-88300D02*
X82500Y-87600D01*
X79700Y-90434D02*
X81817Y-88317D01*
X82972Y-89000D02*
X85156D01*
X87256Y-86900D01*
X89750D01*
X101950Y-85150D02*
X102000Y-85100D01*
X87450Y-85150D02*
X101950D01*
X105500Y-104944D02*
Y-103900D01*
Y-104944D02*
X106941Y-106385D01*
X104400Y-105400D02*
Y-105275D01*
X103100Y-106300D02*
Y-106167D01*
X101333Y-104400D02*
X103100Y-106167D01*
X99900Y-102200D02*
X101325D01*
X104400Y-105275D01*
X99300Y-103800D02*
X99900Y-104400D01*
X99300Y-103800D02*
Y-102800D01*
X99900Y-102200D01*
Y-104400D02*
X101333D01*
X104500Y-114500D02*
X105800Y-113200D01*
Y-106800D01*
X104400Y-105400D02*
X105800Y-106800D01*
X106941Y-114859D02*
Y-106385D01*
X105000Y-116800D02*
X106941Y-114859D01*
X105000Y-116900D02*
X105100D01*
X103350Y-117583D02*
X104967Y-119200D01*
X103350Y-117583D02*
Y-116817D01*
X102383Y-115850D02*
X103350Y-116817D01*
X100250Y-115850D02*
X102383D01*
X102800Y-108300D02*
X103900Y-109400D01*
X99550Y-110350D02*
X101600Y-108300D01*
X99550Y-115150D02*
Y-110350D01*
Y-115150D02*
X100250Y-115850D01*
X101600Y-108300D02*
X102800D01*
X93719Y-118300D02*
X95619Y-116400D01*
X97700D01*
X98450Y-115650D01*
Y-107050D01*
X97300Y-105900D02*
X98450Y-107050D01*
X93000Y-105900D02*
X97300D01*
X96200Y-117400D02*
X101700D01*
X42099Y-69300D02*
X43800D01*
X40885Y-72382D02*
Y-70514D01*
X42099Y-69300D01*
X9450Y-77775D02*
X11821Y-75404D01*
X9450Y-79684D02*
Y-77775D01*
X11821Y-75404D02*
X14493D01*
X9450Y-79684D02*
X11266Y-81500D01*
X13200D01*
X26017Y-77550D02*
X32450D01*
X49617Y-103350D02*
X49817Y-103550D01*
X51183D01*
X51534Y-103200D01*
X59028D01*
X48017Y-102050D02*
X49817Y-100250D01*
X51183D01*
X52833Y-101900D01*
X37200Y-107300D02*
X43200D01*
X33002Y-103750D02*
X39050D01*
X39450Y-103350D01*
X49617D01*
X32464Y-102450D02*
X35517D01*
X37817Y-100150D01*
X39183D01*
X31400Y-98300D02*
X32650Y-99550D01*
X35083D01*
X36783Y-97850D01*
X40317D01*
X42217Y-99750D01*
X46983D01*
X38533Y-76600D02*
X40200Y-74933D01*
X14493Y-75404D02*
X17489Y-78400D01*
X12546Y-77154D02*
X14688D01*
X17489Y-78400D02*
X25167D01*
X17033Y-79500D02*
X24667D01*
X14688Y-77154D02*
X17033Y-79500D01*
X28850Y-79650D02*
X32850D01*
X35900Y-76600D01*
X38533D01*
X26017Y-80850D02*
X27650D01*
X24667Y-79500D02*
X26017Y-80850D01*
X27650D02*
X28850Y-79650D01*
X37700Y-72300D02*
Y-68800D01*
X32450Y-77550D02*
X37700Y-72300D01*
X39100Y-70900D02*
Y-70743D01*
X40500Y-69343D01*
Y-68500D01*
X38750Y-67750D02*
X39750D01*
X37700Y-68800D02*
X38750Y-67750D01*
X39750D02*
X40500Y-68500D01*
X17000Y-90600D02*
X18800Y-88800D01*
X31050Y-125150D02*
X34200Y-122000D01*
X17927Y-128600D02*
X21377Y-125150D01*
X31050D01*
X5400Y-123086D02*
Y-114614D01*
X4400Y-123500D02*
Y-114200D01*
X9350Y-133826D02*
Y-128450D01*
X4400Y-123500D02*
X9350Y-128450D01*
X10350Y-133412D02*
Y-128036D01*
X5400Y-123086D02*
X10350Y-128036D01*
X11350Y-132998D02*
Y-127622D01*
X6400Y-122672D02*
X11350Y-127622D01*
X12350Y-132583D02*
Y-127207D01*
X7400Y-122257D02*
X12350Y-127207D01*
X14300Y-128600D02*
X17927D01*
X10200Y-157700D02*
X21400Y-168900D01*
X11200Y-157286D02*
X22400Y-168486D01*
X12200Y-156872D02*
X23400Y-168072D01*
X13200Y-156457D02*
X26093Y-169350D01*
X30217Y-120050D02*
X38250D01*
X26367Y-123900D02*
X30217Y-120050D01*
X14683Y-122550D02*
X16033Y-123900D01*
X12475Y-122550D02*
X14683D01*
X16033Y-123900D02*
X26367D01*
X55700Y-117000D02*
X55750Y-117050D01*
X62616D02*
X65216Y-119650D01*
X70088D01*
X72650Y-111450D02*
X73900Y-110200D01*
X53619Y-117000D02*
X55700D01*
X55750Y-117050D02*
X62616D01*
X70088Y-119650D02*
X72200Y-117538D01*
Y-115689D01*
X72650Y-115239D01*
Y-111450D01*
X28550Y-119850D02*
X30500Y-117900D01*
X43650Y-117350D02*
X45150Y-115850D01*
X70384Y-115950D02*
X71350Y-114983D01*
X61216Y-115950D02*
X70384D01*
X49700Y-115700D02*
X55928D01*
X45150Y-115850D02*
X46350D01*
X17300Y-122100D02*
X18000Y-122800D01*
X18900D01*
X19400Y-122300D01*
X21450Y-119850D02*
X22000Y-120400D01*
X25050Y-119850D02*
X28550D01*
X24500Y-120400D02*
X25050Y-119850D01*
X13544Y-120200D02*
X13894Y-119850D01*
X16850D02*
X17300Y-120300D01*
X13894Y-119850D02*
X16850D01*
X17300Y-122100D02*
Y-120300D01*
X19400Y-122300D02*
Y-120400D01*
X19950Y-119850D01*
X21450D01*
X13100Y-120200D02*
X13544D01*
X71350Y-114983D02*
Y-110850D01*
X70100Y-109600D02*
X71350Y-110850D01*
X55928Y-115700D02*
X56428Y-115200D01*
X60466D01*
X61216Y-115950D01*
X46350Y-115850D02*
X47100Y-116600D01*
X48800D01*
X49700Y-115700D01*
X23700Y-122500D02*
X24500Y-121700D01*
Y-120400D01*
X22000Y-121700D02*
Y-120400D01*
Y-121700D02*
X22800Y-122500D01*
X23700D01*
X35450Y-109050D02*
X37200Y-107300D01*
X35211Y-113600D02*
X37061Y-111750D01*
X39750D01*
X42500Y-114500D01*
X42500Y-114400D02*
X42500D01*
X12900Y-117500D02*
X14000Y-116400D01*
X31642Y-113600D02*
X35211D01*
X14000Y-116400D02*
X28842D01*
X31642Y-113600D01*
X15300Y-118200D02*
X28600D01*
X29900Y-116900D01*
X31852D01*
X12784Y-115850D02*
X16083Y-112550D01*
X29427Y-114400D02*
X33527Y-110300D01*
X36100D01*
X56000Y-111400D02*
X58000D01*
X60900Y-108500D01*
X32950Y-109050D02*
X35450D01*
X16083Y-112550D02*
X29450D01*
X32950Y-109050D01*
X61550Y-111750D02*
X62400Y-112600D01*
X65327D01*
X67227Y-110700D01*
X68500D01*
X69700Y-111900D01*
X46500Y-112550D02*
X46900Y-112150D01*
X45100Y-112100D02*
X45550Y-112550D01*
X46500D01*
X59250Y-111750D02*
X61550D01*
X58100Y-112900D02*
X59250Y-111750D01*
X46900Y-110515D02*
X47400Y-110015D01*
X43400Y-111900D02*
Y-110500D01*
X37250Y-109150D02*
X38350D01*
X38700Y-109500D01*
Y-110200D02*
Y-109500D01*
Y-110200D02*
X39200Y-110700D01*
X39900D01*
X40300Y-110300D01*
Y-109200D01*
X40800Y-108700D01*
X36100Y-110300D02*
X37250Y-109150D01*
X42300Y-112200D02*
X43100D01*
X42000Y-111900D02*
X42300Y-112200D01*
X42000Y-111900D02*
Y-109000D01*
X41600Y-108600D02*
X42000Y-109000D01*
X40900Y-108600D02*
X41600D01*
X43100Y-112200D02*
X43400Y-111900D01*
X47916Y-110015D02*
X48500Y-110600D01*
Y-111800D02*
Y-110600D01*
X50472Y-111728D02*
X51372D01*
X47400Y-110015D02*
X47916D01*
X47100Y-110300D02*
X47400Y-110000D01*
X51372Y-111728D02*
X53144Y-113500D01*
X49050Y-112350D02*
X49850D01*
X48500Y-111800D02*
X49050Y-112350D01*
X49850D02*
X50472Y-111728D01*
X15300Y-106300D02*
X22100D01*
X23950Y-108150D01*
X26500Y-114400D02*
X29427D01*
X28602Y-108150D02*
X33002Y-103750D01*
X23950Y-108150D02*
X28602D01*
X26500Y-106500D02*
X28400D01*
X29600Y-105300D01*
X29607Y-105307D02*
X32464Y-102450D01*
X74300Y-100250D02*
X75450Y-101400D01*
Y-104950D02*
Y-101400D01*
Y-104950D02*
X76100Y-105600D01*
X77600D01*
X78000Y-105200D01*
Y-102700D01*
X72650Y-100250D02*
X74300D01*
X77700Y-102400D02*
X78000Y-102700D01*
X14700Y-103000D02*
X30500D01*
X32050Y-101450D01*
X30500Y-98300D02*
X31400D01*
X30400Y-98400D02*
X30500Y-98300D01*
X59311Y-95650D02*
X61062Y-97400D01*
X66839D01*
X58000D02*
X59400D01*
X60400Y-98400D01*
X55800Y-99600D02*
X58000Y-97400D01*
X60400Y-98400D02*
X62700D01*
X75350Y-96850D02*
X75900Y-97400D01*
Y-97900D02*
Y-97400D01*
X75200Y-98600D02*
X75900Y-97900D01*
X74100Y-98600D02*
X75200D01*
X69384Y-96850D02*
X75350D01*
X48250Y-96250D02*
X48800Y-96800D01*
X48775Y-96825D02*
X48900Y-96950D01*
X49217Y-95150D02*
X49717Y-95650D01*
X51878D01*
X53178Y-94350D01*
X71950Y-95850D02*
X73400Y-94400D01*
X70200Y-95850D02*
X70284D01*
X71950D01*
X68388Y-95850D02*
X70284D01*
X70284Y-95850D01*
X23350Y-96250D02*
X48250D01*
X11850Y-100250D02*
X19350D01*
X23350Y-96250D01*
X10800Y-99200D02*
X11850Y-100250D01*
X18400Y-98700D02*
X21950Y-95150D01*
X49217D01*
X67250Y-94103D02*
X68803Y-92550D01*
X72400Y-89700D02*
X73400D01*
X73800Y-90100D01*
Y-90200D02*
Y-90100D01*
X71096Y-93363D02*
X71963D01*
X72413Y-92913D01*
Y-91913D01*
X71700Y-91200D02*
Y-90400D01*
X68803Y-92550D02*
X70284D01*
X71096Y-93363D01*
X71700Y-91200D02*
X72413Y-91913D01*
X71700Y-90400D02*
X72400Y-89700D01*
X25017Y-92850D02*
X27083D01*
X39550Y-92250D02*
X41700Y-90100D01*
X39550Y-94150D02*
X41950Y-91750D01*
X15500Y-94600D02*
X16700D01*
X17150Y-94150D01*
X60150Y-91750D02*
X60900Y-92500D01*
X67439D01*
X71369Y-88569D02*
X72231D01*
X73700Y-87100D01*
X52000Y-91750D02*
X53550Y-93300D01*
X56200D01*
X57750Y-91750D02*
X60150D01*
X56200Y-93300D02*
X57750Y-91750D01*
X27850Y-94150D02*
X28600Y-93400D01*
X27683Y-92250D02*
X39550D01*
X33950Y-93400D02*
X36300D01*
X28600D02*
X31100D01*
X33200Y-94150D02*
X33950Y-93400D01*
X31100D02*
X31850Y-94150D01*
X33200D01*
X37050D02*
X39550D01*
X36300Y-93400D02*
X37050Y-94150D01*
X24450Y-92250D02*
X24800Y-92600D01*
X24783Y-92617D02*
X25017Y-92850D01*
X14350Y-92250D02*
X24450D01*
X23950Y-93400D02*
X24700Y-94150D01*
X22000Y-93400D02*
X23950D01*
X21300Y-94100D02*
X22000Y-93400D01*
X17150Y-94150D02*
X21300D01*
X24700D02*
X27850D01*
X41950Y-91750D02*
X44850D01*
X45300Y-91300D01*
X41700Y-90100D02*
X59566D01*
X45300Y-91300D02*
X48600D01*
X49050Y-91750D01*
X52000D01*
X67439Y-92500D02*
X71369Y-88569D01*
X64350Y-90450D02*
X66650D01*
X69700Y-87400D01*
X62550Y-88650D02*
X64350Y-90450D01*
X69700Y-87400D02*
Y-87300D01*
X26400Y-91200D02*
X31467D01*
X66950Y-79750D02*
X71600Y-75100D01*
X11900Y-88700D02*
X12800Y-87800D01*
X52300Y-72700D02*
X54200Y-70800D01*
X39556Y-81000D02*
X39563Y-81007D01*
X38893Y-82107D02*
X38970D01*
X38977Y-82100D01*
X39039D01*
X38377Y-81007D02*
X38514D01*
X38521Y-81000D01*
X39556D01*
X38970Y-82107D02*
X40659D01*
X29366Y-89100D02*
X33617Y-84850D01*
X31467Y-91200D02*
X33817Y-88850D01*
X33202Y-83850D02*
X37150D01*
X38893Y-82107D01*
X33617Y-84850D02*
X42583D01*
X45333Y-82100D01*
X47000D01*
X49000Y-80100D01*
X63550Y-81150D02*
X63700Y-81000D01*
X62506Y-81150D02*
X63550D01*
X61116D02*
X62484D01*
X52922Y-81159D02*
X52930Y-81150D01*
X52556Y-81200D02*
X52597Y-81159D01*
X52922D01*
X49500Y-81200D02*
X52556D01*
X62050Y-80050D02*
X62350Y-79750D01*
X52475Y-80050D02*
X62050D01*
X52466Y-80058D02*
X52475Y-80050D01*
X52141Y-80058D02*
X52466D01*
X52100Y-80100D02*
X52141Y-80058D01*
X62350Y-79750D02*
X66950D01*
X26474Y-89100D02*
X29366D01*
X26174Y-88800D02*
X26474Y-89100D01*
X18800Y-88800D02*
X26174D01*
X34800Y-88850D02*
X35950Y-87700D01*
X33817Y-88850D02*
X34800D01*
X42750Y-86350D02*
X43900Y-85200D01*
X45500D01*
X49500Y-81200D01*
X39200Y-88100D02*
Y-86950D01*
Y-88100D02*
X40100Y-89000D01*
X42000D01*
X42750Y-88250D01*
Y-86350D01*
X35950Y-87700D02*
Y-86950D01*
X36600Y-86300D01*
X38550D01*
X39200Y-86950D01*
X12800Y-87800D02*
X29252D01*
X33202Y-83850D01*
X40659Y-82107D02*
X41667Y-81100D01*
X45533D01*
X49133Y-77500D01*
X52300Y-75275D02*
Y-72700D01*
X49133Y-77500D02*
X50075D01*
X52300Y-75275D01*
X38284Y-81100D02*
X38300D01*
X38284D02*
X38377Y-81007D01*
X36634Y-82750D02*
X38284Y-81100D01*
X39563Y-81007D02*
X39611D01*
X40618Y-80000D01*
X43000D01*
X43700Y-79300D01*
Y-77900D01*
X44500Y-77100D01*
X46839D01*
X48122Y-75818D01*
Y-75078D01*
X48700Y-74500D01*
X49900D01*
X50100Y-74700D01*
Y-74900D02*
Y-74700D01*
X111609Y-94191D02*
X113539D01*
X112941Y-93000D02*
X114200D01*
X96600Y-186500D02*
X97344D01*
X70500Y-191300D02*
X70900Y-191700D01*
X71700D01*
X72200Y-191200D01*
Y-189400D01*
X72700Y-188900D01*
X91900D01*
X70000D02*
X70500Y-189400D01*
Y-191300D02*
Y-189400D01*
X69300Y-182400D02*
X70193D01*
X71700Y-184034D02*
Y-183624D01*
X73787Y-186500D02*
X89005D01*
X94842Y-184082D02*
X95602D01*
X79900Y-182700D02*
X80300Y-182300D01*
X81200D01*
X81700Y-182800D01*
X79500Y-185400D02*
X79900Y-185000D01*
Y-182700D01*
X73207Y-185400D02*
X79500D01*
X81700Y-185100D02*
X82000Y-185400D01*
X81700Y-185100D02*
Y-182800D01*
X82000Y-185400D02*
X88786D01*
X79945Y-180850D02*
X93831D01*
X95400Y-180200D02*
X95672Y-179928D01*
X87900Y-177900D02*
X88300Y-177500D01*
X88900D01*
X89300Y-177900D01*
Y-179400D02*
Y-177900D01*
Y-179400D02*
X89650Y-179750D01*
X92844D01*
X87450D02*
X87900Y-179300D01*
Y-177900D01*
X79921Y-179750D02*
X87450D01*
X38100Y-48214D02*
Y-45467D01*
X36200Y-50114D02*
X38100Y-48214D01*
X36200Y-52500D02*
Y-50114D01*
Y-52500D02*
X36700Y-53000D01*
X37600D01*
X38100Y-52500D01*
Y-51200D01*
X42600Y-56650D02*
X43850D01*
X43950D01*
X41617D02*
X43850D01*
X43950D02*
X44150Y-56850D01*
X45050Y-57750D01*
X45000D02*
X48850D01*
X40400Y-39300D02*
X40850Y-39750D01*
X39700Y-39300D02*
X40400D01*
X39300Y-39700D02*
X39700Y-39300D01*
X39300Y-41050D02*
Y-39700D01*
X38900Y-41450D02*
X39300Y-41050D01*
X40850Y-43974D02*
Y-39750D01*
X43200Y-33500D02*
Y-33200D01*
X42700Y-34000D02*
X43200Y-33500D01*
X41474Y-33374D02*
X42100Y-34000D01*
X41074Y-33374D02*
X41474D01*
X40600Y-33848D02*
X41074Y-33374D01*
X40600Y-34400D02*
Y-33848D01*
X42100Y-34000D02*
X42700D01*
X38050Y-41450D02*
X38900D01*
X37800Y-41200D02*
X38050Y-41450D01*
X37800Y-41200D02*
Y-38700D01*
X38200Y-38300D01*
X39850D01*
X40200Y-37950D02*
Y-37300D01*
X39800Y-36900D02*
X40200Y-37300D01*
X38500Y-36900D02*
X39800D01*
X38200Y-36100D02*
X38600Y-35700D01*
X40600D01*
X41000Y-35300D01*
Y-34800D01*
X39850Y-38300D02*
X40200Y-37950D01*
X38200Y-36600D02*
X38500Y-36900D01*
X38200Y-36600D02*
Y-36100D01*
X40600Y-34400D02*
X41000Y-34800D01*
X42524Y-32524D02*
Y-31924D01*
Y-32524D02*
X43200Y-33200D01*
X44174Y-31374D02*
X44700Y-31900D01*
X43074Y-31374D02*
X44174D01*
X44650Y-31950D02*
X44900Y-32200D01*
X42524Y-31924D02*
X43074Y-31374D01*
X41100Y-21100D02*
X41850D01*
X42450Y-20500D02*
Y-19800D01*
X41900Y-19250D02*
X42450Y-19800D01*
X41900Y-19250D02*
Y-17800D01*
X40600Y-21600D02*
X41100Y-21100D01*
X40600Y-22500D02*
Y-21600D01*
X41850Y-21100D02*
X42450Y-20500D01*
X37900Y-21000D02*
X38300Y-20600D01*
X39300D02*
X39600Y-20900D01*
Y-23000D02*
Y-20900D01*
X37900Y-23200D02*
Y-21000D01*
X38300Y-20600D02*
X39300D01*
X43750Y-44550D02*
X44000Y-44800D01*
X44700D01*
X45000Y-44500D01*
X46543Y-39057D02*
X47243D01*
X47700Y-39514D01*
X46000Y-39600D02*
X46543Y-39057D01*
X48700Y-47800D02*
Y-47100D01*
X45700Y-36500D02*
X46200Y-37000D01*
X48200Y-46600D02*
X48700Y-47100D01*
Y-47300D02*
Y-47100D01*
X43700Y-39600D02*
X44400D01*
X42850Y-40450D02*
X43700Y-39600D01*
X42850Y-42445D02*
Y-40450D01*
Y-42445D02*
X43750Y-43345D01*
Y-44550D02*
Y-43345D01*
X44400Y-39600D02*
X45700Y-38300D01*
Y-36500D01*
X45000Y-44500D02*
Y-42900D01*
X44100Y-42000D02*
X45000Y-42900D01*
X44100Y-42000D02*
Y-41200D01*
X44700Y-40600D01*
X45500D01*
X46000Y-40100D01*
Y-39600D01*
X46100Y-42400D02*
X46450Y-42750D01*
X46100Y-42400D02*
Y-41900D01*
X47700Y-40300D01*
X46450Y-45483D02*
Y-42750D01*
X47700Y-40300D02*
Y-39514D01*
X52700Y-10300D02*
X53193Y-9807D01*
Y-7807D02*
X53700Y-7300D01*
X54400D01*
X54900Y-7800D01*
Y-8900D02*
Y-7800D01*
X54600Y-9200D02*
X54900Y-8900D01*
X53193Y-9807D02*
Y-7807D01*
X52700Y-16733D02*
Y-10300D01*
X54600Y-12800D02*
Y-9200D01*
X48500Y-12300D02*
Y-10100D01*
X49100Y-9500D01*
X49900D01*
X50300Y-9100D01*
X49550Y-18383D02*
Y-13350D01*
X48500Y-12300D02*
X49550Y-13350D01*
X50300Y-9100D02*
Y-7700D01*
X44700Y-19400D02*
X46050Y-18050D01*
Y-15250D01*
X46500Y-14800D01*
X47400D01*
X47900Y-15300D01*
Y-17100D02*
Y-15300D01*
X31100Y-22900D02*
X32200Y-24000D01*
Y-25400D02*
Y-24000D01*
X30500Y-28300D02*
Y-27100D01*
X31900Y-30490D02*
Y-29700D01*
X30500Y-27100D02*
X31100Y-26500D01*
X32200Y-25400D01*
X30500Y-28300D02*
X31100Y-28900D01*
X31900Y-29700D01*
X31100Y-31291D02*
X31900Y-30490D01*
X29045Y-33345D02*
X31100Y-31291D01*
Y-22900D02*
Y-21000D01*
Y-20600D01*
X38700Y-11500D02*
X39183Y-11017D01*
X40117D01*
X41500Y-12400D01*
X38700Y-13200D02*
Y-13100D01*
Y-11500D01*
Y-13100D02*
X38800Y-13200D01*
X41500Y-14700D02*
Y-12400D01*
X27600Y-40400D02*
X28200Y-39800D01*
X27600Y-41600D02*
Y-40400D01*
Y-41600D02*
X28400Y-42400D01*
X28200Y-39800D02*
X30200D01*
X30100Y-42400D02*
X30600Y-42900D01*
X28400Y-42400D02*
X30100D01*
X30600Y-45200D02*
Y-42900D01*
X55900Y-8600D02*
X56600Y-7900D01*
X58800D02*
X59500Y-8600D01*
X55900Y-16800D02*
Y-8600D01*
X56600Y-7900D02*
X58800D01*
X59500Y-8700D02*
Y-8600D01*
Y-13800D02*
Y-8700D01*
X95400Y-27000D02*
Y-25328D01*
X10200Y-157700D02*
Y-155126D01*
X10213Y-155113D01*
X11200Y-157286D02*
Y-155540D01*
X11213Y-155527D01*
X12200Y-156872D02*
Y-155954D01*
X12213Y-155941D01*
X13200Y-156457D02*
Y-156368D01*
X13213Y-156355D01*
Y-133446D01*
X12213Y-155941D02*
Y-133861D01*
X11213Y-155527D02*
Y-134275D01*
X10213Y-155113D02*
Y-134689D01*
X9350Y-133826D02*
X10213Y-134689D01*
X10350Y-133412D02*
X11213Y-134275D01*
X11350Y-132998D02*
X12213Y-133861D01*
X12350Y-132583D02*
X13213Y-133446D01*
X95100Y-177642D02*
Y-157377D01*
X96200Y-178700D02*
Y-157377D01*
X97800Y-180044D02*
Y-157104D01*
X98900Y-180786D02*
Y-157104D01*
X100000Y-182654D02*
Y-157838D01*
X101100Y-184300D02*
Y-157838D01*
X102290Y-152300D02*
X108634D01*
X111729Y-145615D02*
X113086Y-144258D01*
X104197Y-154600D02*
X109686D01*
X102290Y-151200D02*
X108634D01*
X60894Y-81150D02*
X61116D01*
X52930D02*
X60894D01*
X49000Y-80100D02*
X49100D01*
X49800D01*
X49100D02*
X52100D01*
X26700Y-83100D02*
X28944D01*
X31394Y-80650D01*
X24950Y-84850D02*
X28750D01*
X31850Y-81750D01*
X32650Y-82750D02*
X36634D01*
X28700Y-86700D02*
X32650Y-82750D01*
X39500Y-149876D02*
X40169Y-150545D01*
X27600Y-156500D02*
Y-153300D01*
X63900Y-55100D02*
Y-54580D01*
X63000Y-52407D02*
Y-44627D01*
X60392Y-39359D02*
X60393Y-39360D01*
X61119Y-40085D01*
X59700Y-37686D02*
Y-34056D01*
X63950Y-18465D02*
Y-17000D01*
X60493Y-15400D02*
X62234D01*
X63200Y-15800D02*
X63632Y-16232D01*
X105900Y-100500D02*
X107376Y-101976D01*
X107377Y-101977D01*
X107800Y-103249D02*
Y-103000D01*
X108414Y-104730D02*
X109098Y-105414D01*
X112136Y-104236D02*
X112750Y-104850D01*
X89543Y-97396D02*
X91131Y-95808D01*
X98612Y-96112D02*
X100200Y-97700D01*
X100201Y-97701D01*
X93300Y-94909D02*
X95708D01*
X97895Y-96951D02*
X99422Y-98478D01*
X93923Y-96000D02*
X95600D01*
X69200Y-188900D02*
X70000D01*
X68700Y-189400D02*
X69200Y-188900D01*
X68700Y-191200D02*
Y-189400D01*
X68300Y-191600D02*
X68700Y-191200D01*
X67500Y-191600D02*
X68300D01*
X67100Y-191200D02*
X67500Y-191600D01*
X67100Y-191200D02*
Y-189300D01*
X66700Y-188900D02*
X67100Y-189300D01*
X54304Y-188900D02*
X66700D01*
X51736Y-186736D02*
X51881Y-186881D01*
X54100Y-187800D02*
X90910D01*
X58600Y-23500D02*
X59000D01*
X59100D01*
X59900D01*
X57300D02*
X59000D01*
X55600Y-17300D02*
Y-17100D01*
X108383Y-135150D02*
X109350Y-134183D01*
Y-131850D01*
X92450Y-125283D02*
Y-123550D01*
X91300Y-131950D02*
X91900Y-131350D01*
X90031Y-131950D02*
X91300D01*
X93900Y-131300D02*
Y-128200D01*
X93500Y-127800D02*
X93900Y-128200D01*
X91167Y-119750D02*
X91366Y-119950D01*
X101800Y-90400D02*
X101900D01*
X104158Y-90900D02*
X104600D01*
X69700Y-114300D02*
Y-111900D01*
X73850Y-117684D02*
X74316D01*
X92300Y-127800D02*
X93500D01*
X91900Y-128200D02*
X92300Y-127800D01*
X91900Y-131350D02*
Y-128200D01*
X89575Y-133050D02*
X97100D01*
X91366Y-119950D02*
X93650D01*
X96200Y-117400D01*
X88250Y-119750D02*
X91167D01*
X100484Y-132050D02*
X101584Y-133150D01*
X98650Y-132050D02*
X100484D01*
X98100Y-131500D02*
X98650Y-132050D01*
X105250Y-134250D02*
X106150Y-135150D01*
X101584Y-134250D02*
X105250D01*
X106200Y-129647D02*
X106450Y-129897D01*
X116900Y-144686D02*
Y-95700D01*
X115800Y-144686D02*
Y-96500D01*
X114500Y-143500D02*
Y-104307D01*
X113400Y-143500D02*
Y-106419D01*
X87500Y-119000D02*
X88250Y-119750D01*
X81100Y-102400D02*
Y-102000D01*
X79200Y-114800D02*
X80100Y-115700D01*
X87500Y-119000D02*
Y-117467D01*
X92600Y-118300D02*
X92800D01*
X87300Y-127200D02*
Y-123700D01*
X86500Y-128000D02*
X87300Y-127200D01*
X90284Y-127450D02*
X92450Y-125283D01*
X89200Y-131119D02*
Y-130200D01*
X87450Y-130925D02*
X89575Y-133050D01*
X87450Y-130925D02*
Y-128750D01*
X111600Y-142252D02*
Y-107400D01*
X110500Y-142252D02*
Y-108800D01*
X92450Y-123550D02*
X93100Y-122900D01*
X92800Y-118300D02*
X93719D01*
X87450Y-128750D02*
X88750Y-127450D01*
X90284D01*
X104967Y-119200D02*
X105200D01*
X89600Y-125800D02*
X91450Y-123950D01*
X83400Y-127000D02*
Y-117167D01*
X81933Y-115700D02*
X83400Y-117167D01*
X80100Y-115700D02*
X81933D01*
X78650Y-107250D02*
X79600Y-108200D01*
X77490Y-107250D02*
X78650D01*
X83500Y-112200D02*
X85621Y-114321D01*
Y-115588D02*
Y-114321D01*
Y-115588D02*
X87500Y-117467D01*
X104950Y-72900D02*
X107800D01*
X111259Y-91400D02*
X111300Y-91359D01*
X111000Y-91400D02*
X111259D01*
X106450Y-132183D02*
Y-129897D01*
X97100Y-133050D02*
X97950Y-133900D01*
Y-134583D02*
Y-133900D01*
Y-134583D02*
X98917Y-135550D01*
X100284D01*
X97450Y-121200D02*
X103200Y-126950D01*
X105750D01*
X101584Y-133150D02*
X105483D01*
X106450Y-132183D01*
X80100Y-112200D02*
X83500D01*
X81400Y-110500D02*
X83750Y-108150D01*
X108500Y-131000D02*
X109350Y-131850D01*
D35*
X61900Y-106800D02*
D03*
X26500Y-109800D02*
D03*
X54000Y-110400D02*
D03*
X14700Y-109900D02*
D03*
X12100Y-114200D02*
D03*
X74700Y-179900D02*
D03*
X26600Y-66400D02*
D03*
X21700Y-45500D02*
D03*
X63900Y-38100D02*
D03*
X81400Y-71700D02*
D03*
X81340Y-75134D02*
D03*
X58315Y-70600D02*
D03*
X54200Y-70800D02*
D03*
X50100Y-70300D02*
D03*
X92600Y-59400D02*
D03*
X102100Y-56700D02*
D03*
X102600Y-53300D02*
D03*
X77403Y-75134D02*
D03*
X89700Y-66700D02*
D03*
X104200Y-55000D02*
D03*
X101400Y-62500D02*
D03*
X38100Y-54900D02*
D03*
X38800Y-59200D02*
D03*
X34000Y-59000D02*
D03*
X30700Y-63500D02*
D03*
X34800Y-70900D02*
D03*
X42500Y-55000D02*
D03*
X42300Y-59300D02*
D03*
X38100Y-51200D02*
D03*
X50300Y-67000D02*
D03*
X46200D02*
D03*
X26700Y-83100D02*
D03*
X73800Y-87000D02*
D03*
X10757Y-99252D02*
D03*
Y-104790D02*
D03*
X11700Y-110900D02*
D03*
X12900Y-117500D02*
D03*
X13200Y-120800D02*
D03*
X13000Y-105800D02*
D03*
X14375Y-102858D02*
D03*
X15300Y-106300D02*
D03*
X13000Y-98100D02*
D03*
X10700Y-116300D02*
D03*
X11100Y-119600D02*
D03*
X15300Y-118200D02*
D03*
X12900Y-73100D02*
D03*
X26400Y-91200D02*
D03*
X70100Y-109700D02*
D03*
X77800Y-102300D02*
D03*
X70192Y-98800D02*
D03*
X65737Y-109716D02*
D03*
X15100Y-71100D02*
D03*
X13200Y-81400D02*
D03*
X14200Y-84900D02*
D03*
X11900Y-85200D02*
D03*
X12000Y-69400D02*
D03*
X14200Y-66600D02*
D03*
X73900Y-90400D02*
D03*
X11900Y-88700D02*
D03*
X14700Y-90600D02*
D03*
X34200Y-122000D02*
D03*
X42500Y-114483D02*
D03*
X73900Y-110200D02*
D03*
X104500Y-114500D02*
D03*
X73700Y-102200D02*
D03*
X93100Y-106000D02*
D03*
X85600Y-106200D02*
D03*
X105000Y-116900D02*
D03*
X103916Y-80101D02*
D03*
X103900Y-76800D02*
D03*
X104100Y-109600D02*
D03*
X103100Y-106300D02*
D03*
X105500Y-103900D02*
D03*
X89214Y-98191D02*
D03*
X77900Y-181400D02*
D03*
X92600Y-98100D02*
D03*
X77900Y-179100D02*
D03*
X69300Y-184700D02*
D03*
X37100Y-179400D02*
D03*
Y-177000D02*
D03*
X69300Y-182400D02*
D03*
X104300Y-58200D02*
D03*
X106600Y-58300D02*
D03*
X110800Y-61200D02*
D03*
X107300Y-50700D02*
D03*
X108900Y-54300D02*
D03*
X64200Y-5900D02*
D03*
X44400Y-16800D02*
D03*
X85500Y-55300D02*
D03*
X46200Y-114200D02*
D03*
X43000Y-125992D02*
D03*
X27600Y-156500D02*
D03*
X13400Y-93300D02*
D03*
X14400Y-62050D02*
D03*
X30300Y-18400D02*
D03*
X16400Y-44700D02*
D03*
X26500Y-126800D02*
D03*
X81486Y-54324D02*
D03*
X89300Y-50400D02*
D03*
X101300Y-79300D02*
D03*
X81400Y-79100D02*
D03*
X93400Y-47900D02*
D03*
X96200Y-39000D02*
D03*
X96900Y-35700D02*
D03*
X94500Y-30400D02*
D03*
X95300Y-27000D02*
D03*
X74100Y-98600D02*
D03*
X85200Y-173400D02*
D03*
X113500Y-24600D02*
D03*
X116100Y-24800D02*
D03*
X73400Y-94400D02*
D03*
X100900Y-75100D02*
D03*
X110300Y-24700D02*
D03*
X54236Y-13226D02*
D03*
X60700Y-6200D02*
D03*
X58800Y-46600D02*
D03*
X52776Y-45924D02*
D03*
X57933Y-55100D02*
D03*
X57400Y-28874D02*
D03*
X55600Y-17300D02*
D03*
X70900Y-23500D02*
D03*
X70000Y-13210D02*
D03*
X51275Y-28900D02*
D03*
X50033Y-55266D02*
D03*
X26600Y-55200D02*
D03*
Y-51200D02*
D03*
X50100Y-59000D02*
D03*
X41900Y-17800D02*
D03*
X54100Y-51300D02*
D03*
X56300Y-45300D02*
D03*
X60100Y-155500D02*
D03*
X60043Y-151747D02*
D03*
X64600Y-125700D02*
D03*
X77500Y-126100D02*
D03*
X25400Y-134600D02*
D03*
X23200Y-136400D02*
D03*
X35564Y-156398D02*
D03*
X30400Y-130000D02*
D03*
X29300Y-134700D02*
D03*
X31600Y-156500D02*
D03*
X32400Y-138800D02*
D03*
X38450Y-151292D02*
D03*
X37700Y-126100D02*
D03*
X47700Y-151300D02*
D03*
X52000Y-162800D02*
D03*
X50500Y-134500D02*
D03*
X50050Y-126100D02*
D03*
X49300Y-162800D02*
D03*
X45500Y-134500D02*
D03*
X44900Y-137200D02*
D03*
X53700Y-167400D02*
D03*
X49600Y-155700D02*
D03*
X56100Y-155800D02*
D03*
X53300Y-137600D02*
D03*
X47200Y-125700D02*
D03*
X53836Y-151426D02*
D03*
X35121Y-151244D02*
D03*
X40100Y-157500D02*
D03*
X42800Y-156000D02*
D03*
X55300Y-162800D02*
D03*
X34154Y-135400D02*
D03*
X26500Y-129900D02*
D03*
X38400Y-122100D02*
D03*
X43100Y-162800D02*
D03*
X50200Y-122225D02*
D03*
X46300Y-129967D02*
D03*
X45800Y-162800D02*
D03*
X54100Y-134400D02*
D03*
Y-130000D02*
D03*
X58004Y-122100D02*
D03*
X35000Y-167227D02*
D03*
X41400Y-167200D02*
D03*
X50800D02*
D03*
X33478Y-162678D02*
D03*
X39777Y-162723D02*
D03*
X61655Y-121814D02*
D03*
X61600Y-137900D02*
D03*
X60700Y-144300D02*
D03*
X66700Y-13400D02*
D03*
X51000Y-13100D02*
D03*
X46200Y-51200D02*
D03*
X48100Y-44800D02*
D03*
X44900Y-32200D02*
D03*
X48025Y-29000D02*
D03*
X45700Y-36500D02*
D03*
X43400Y-46600D02*
D03*
X47900Y-17100D02*
D03*
X36400Y-46100D02*
D03*
X46100Y-59400D02*
D03*
X38500Y-28986D02*
D03*
X41800Y-28900D02*
D03*
X38700Y-13200D02*
D03*
X34400Y-55189D02*
D03*
X30600Y-37700D02*
D03*
X31800Y-46400D02*
D03*
X25200Y-44500D02*
D03*
X27000Y-46700D02*
D03*
X27500Y-26100D02*
D03*
X37600Y-17500D02*
D03*
X33927Y-18499D02*
D03*
X31100Y-20600D02*
D03*
X49500Y-37000D02*
D03*
X87300Y-13000D02*
D03*
X62000Y-59167D02*
D03*
X61900Y-55100D02*
D03*
X62200Y-17500D02*
D03*
X59000Y-17400D02*
D03*
X29400Y-30500D02*
D03*
X47500Y-175700D02*
D03*
X61824Y-174376D02*
D03*
X72200Y-180600D02*
D03*
X23600Y-185900D02*
D03*
X102200Y-67000D02*
D03*
X109100Y-80400D02*
D03*
X111153Y-81600D02*
D03*
X89750Y-86900D02*
D03*
X30400Y-98400D02*
D03*
X39100Y-70900D02*
D03*
X12546Y-77154D02*
D03*
X50200Y-74900D02*
D03*
X14300Y-128600D02*
D03*
X26500Y-114400D02*
D03*
Y-106500D02*
D03*
X15400Y-94600D02*
D03*
X69800Y-87400D02*
D03*
X102100Y-85100D02*
D03*
X101900Y-90400D02*
D03*
X104600Y-90900D02*
D03*
X110900Y-94900D02*
D03*
X69700Y-114300D02*
D03*
X73850Y-117684D02*
D03*
X106200Y-129647D02*
D03*
X89600Y-121500D02*
D03*
X81100Y-102400D02*
D03*
X81340Y-106065D02*
D03*
X89200Y-130200D02*
D03*
X105800Y-127347D02*
D03*
X93100Y-122900D02*
D03*
X92800Y-118300D02*
D03*
X105200Y-119200D02*
D03*
X101700Y-117500D02*
D03*
X89600Y-125800D02*
D03*
X77490Y-107250D02*
D03*
X104950Y-72900D02*
D03*
X106000Y-69600D02*
D03*
X111000Y-91400D02*
D03*
X114100Y-102900D02*
D03*
X111500Y-102800D02*
D03*
X108500Y-131100D02*
D03*
X81400Y-110500D02*
D03*
X81500Y-114100D02*
D03*
D36*
X63749Y-18951D02*
D03*
M02*
