G04 Layer_Physical_Order=6*
G04 Layer_Color=16440176*
%FSLAX25Y25*%
%MOIN*%
G70*
G01*
G75*
%ADD10C,0.00500*%
%ADD33C,0.02000*%
%ADD35C,0.01800*%
D10*
X88976Y-132677D02*
X89332Y-133033D01*
X76950Y-157350D02*
X76950D01*
X76950D02*
X76950Y-157350D01*
X75540Y-158760D02*
X76950Y-157350D01*
X74174Y-158760D02*
X75540D01*
X74014Y-158600D02*
X74174Y-158760D01*
X73524Y-158600D02*
X74014D01*
X72200Y-157276D02*
X73524Y-158600D01*
X72200Y-157276D02*
Y-155200D01*
X91300Y-164100D02*
X91313D01*
X92421Y-162992D01*
Y-162303D01*
X91929Y-161811D02*
X92421Y-162303D01*
X91189Y-161811D02*
X91929D01*
X88900Y-164100D02*
X91189Y-161811D01*
X90200Y-167000D02*
X90700D01*
X91100Y-158324D02*
Y-153700D01*
X90700Y-167000D02*
X94095Y-163605D01*
X91100Y-158324D02*
X94095Y-161319D01*
Y-163605D02*
Y-161319D01*
X79670Y-160630D02*
X80300Y-160000D01*
X76892Y-163408D02*
X77658Y-162643D01*
Y-161221D01*
X78248Y-160630D01*
X79670D01*
X73575Y-163775D02*
X74050Y-163300D01*
X74300Y-165100D02*
X75828D01*
X73575Y-164375D02*
X74300Y-165100D01*
X73575Y-164375D02*
Y-163775D01*
X76892Y-163900D02*
Y-163408D01*
Y-163900D02*
X77756Y-164764D01*
Y-165354D02*
Y-164764D01*
X77264Y-165847D02*
X77756Y-165354D01*
X76575Y-165847D02*
X77264D01*
X75828Y-165100D02*
X76575Y-165847D01*
X83000Y-137600D02*
Y-132000D01*
X84700Y-135500D02*
Y-131900D01*
X84300Y-131500D02*
X84700Y-131900D01*
X83500Y-131500D02*
X84300D01*
X83000Y-132000D02*
X83500Y-131500D01*
X86100Y-135600D02*
Y-132100D01*
X45079Y-158366D02*
X46050Y-157395D01*
Y-150617D01*
X43504Y-160039D02*
X46371D01*
X43110Y-159646D02*
X43504Y-160039D01*
X43110Y-159646D02*
Y-158858D01*
X43602Y-158366D01*
X45079D01*
X47650Y-166383D02*
Y-161319D01*
X46371Y-160039D02*
X47650Y-161319D01*
Y-166383D02*
X51266Y-170000D01*
X72117Y-168722D02*
X75766D01*
X72900Y-167122D02*
X73290Y-166732D01*
X75787D01*
X76279Y-167224D01*
Y-168209D02*
Y-167224D01*
X75766Y-168722D02*
X76279Y-168209D01*
X85600Y-127567D02*
Y-126000D01*
X89328Y-147000D02*
X91400Y-144928D01*
X88000Y-147000D02*
X89328D01*
X87400Y-147600D02*
X88000Y-147000D01*
X85700Y-151000D02*
X87100D01*
X85400Y-150700D02*
X85700Y-151000D01*
X85400Y-150700D02*
Y-148500D01*
X87400Y-150700D02*
Y-147600D01*
X87100Y-151000D02*
X87400Y-150700D01*
X58393Y-148351D02*
X60794Y-145950D01*
X61383D02*
X62350Y-144983D01*
X60794Y-145950D02*
X61383D01*
X59500Y-153850D02*
X60783D01*
X58393Y-152743D02*
X59500Y-153850D01*
X58393Y-152743D02*
Y-148351D01*
X67400Y-48033D02*
Y-46767D01*
X65850Y-53050D02*
X66350D01*
X64500Y-51700D02*
X65850Y-53050D01*
X64500Y-51700D02*
Y-49700D01*
X65000Y-49200D01*
X66233D01*
X67400Y-48033D01*
X63017Y-35064D02*
X64583D01*
X53584Y-60750D02*
X55350Y-62516D01*
X53417Y-60750D02*
X53584D01*
X52150Y-59483D02*
X53417Y-60750D01*
X52200Y-53400D02*
X54000Y-55200D01*
X49300Y-53400D02*
X52200D01*
X48200Y-54500D02*
X49300Y-53400D01*
X48200Y-56200D02*
Y-54500D01*
X52150Y-59483D02*
Y-57900D01*
X51450Y-57200D02*
X52150Y-57900D01*
X49200Y-57200D02*
X51450D01*
X48200Y-56200D02*
X49200Y-57200D01*
X79573Y-13200D02*
Y-12373D01*
X79100Y-11900D02*
X79573Y-12373D01*
X78400Y-11900D02*
X79100D01*
X78050Y-12250D02*
X78400Y-11900D01*
X78050Y-13883D02*
Y-12250D01*
X76634Y-15300D02*
X78050Y-13883D01*
X73528Y-15300D02*
X76634D01*
X71850Y-18400D02*
Y-16978D01*
Y-18400D02*
X72250Y-18800D01*
X72900D01*
X73850Y-19750D01*
X78284D01*
X79900Y-26300D02*
X80450Y-26850D01*
X82050D01*
X82400Y-27200D01*
Y-39614D02*
Y-27200D01*
X80500Y-51000D02*
Y-50100D01*
Y-51000D02*
X80800Y-51300D01*
X80500Y-45200D02*
Y-43714D01*
Y-45200D02*
X80800Y-45500D01*
X82100D01*
X82500Y-45900D01*
Y-46500D02*
Y-45900D01*
X82200Y-46800D02*
X82500Y-46500D01*
X80700Y-46800D02*
X82200D01*
X80500Y-47000D02*
X80700Y-46800D01*
X80500Y-47800D02*
Y-47000D01*
Y-47800D02*
X80800Y-48100D01*
X82400D01*
X82900Y-48600D01*
Y-49300D02*
Y-48600D01*
X82500Y-49700D02*
X82900Y-49300D01*
X80900Y-49700D02*
X82500D01*
X80500Y-50100D02*
X80900Y-49700D01*
X80800Y-51300D02*
X82000D01*
X82300Y-51600D01*
Y-52300D02*
Y-51600D01*
X81926Y-52674D02*
X82300Y-52300D01*
X80802Y-52674D02*
X81926D01*
X79836Y-53641D02*
X80802Y-52674D01*
X84850Y-38950D02*
X86200Y-40300D01*
X84850Y-37750D02*
X86400Y-36200D01*
X85600Y-41900D02*
X86200Y-41300D01*
Y-40300D01*
X84850Y-38950D02*
Y-37750D01*
X86400Y-36200D02*
Y-35300D01*
X85600Y-34500D02*
X86400Y-35300D01*
X85600Y-34500D02*
Y-33986D01*
X60000Y-71900D02*
X60300Y-72200D01*
X61100D01*
X62000Y-71300D01*
X78700Y-41400D02*
X78800Y-41500D01*
X54200Y-67015D02*
Y-67000D01*
X56300Y-69800D02*
X57450Y-68650D01*
X54100Y-67600D02*
Y-67015D01*
X52000Y-69700D02*
X54100Y-67600D01*
X52000Y-72100D02*
Y-69700D01*
Y-72100D02*
X52700Y-72800D01*
X55500D01*
X56300Y-72000D01*
Y-69800D01*
X95000Y-44400D02*
X95650Y-43750D01*
X41900Y-73600D02*
X45033D01*
X19500Y-136667D02*
Y-127100D01*
X11200Y-122500D02*
X14900D01*
X19500Y-127100D01*
X18500Y-135400D02*
Y-127900D01*
X14800Y-124200D02*
X18500Y-127900D01*
X14000Y-124200D02*
X14800D01*
X19850Y-60878D02*
X23500Y-57228D01*
X19850Y-63050D02*
Y-60878D01*
X14883Y-68250D02*
X15850Y-67283D01*
Y-67050D01*
X19850Y-63050D01*
X13183Y-68250D02*
X14883D01*
X12684Y-67750D02*
X13183Y-68250D01*
X10950Y-67750D02*
X12684D01*
X10600Y-67400D02*
X10950Y-67750D01*
X20850Y-61293D02*
X24500Y-57643D01*
X22050Y-64100D02*
X26200D01*
X20850Y-62900D02*
Y-61293D01*
Y-62900D02*
X22050Y-64100D01*
X23500Y-57228D02*
Y-49872D01*
X20050Y-46422D02*
X23500Y-49872D01*
X18850Y-60464D02*
X22500Y-56814D01*
Y-50286D01*
X19050Y-46836D02*
X22500Y-50286D01*
X21500Y-56400D02*
Y-50700D01*
X18050Y-47250D02*
X21500Y-50700D01*
X52750Y-1550D02*
X54100Y-2900D01*
X81627Y-96545D02*
X88902Y-89269D01*
X82627Y-96959D02*
X89317Y-90269D01*
X24950Y-172650D02*
Y-166983D01*
X17800Y-142200D02*
Y-136100D01*
X18500Y-135400D01*
X21600Y-133600D02*
X22300D01*
X20500Y-134700D02*
X21600Y-133600D01*
X20500Y-136252D02*
Y-134700D01*
Y-136252D02*
X22150Y-137902D01*
Y-144598D02*
Y-137902D01*
X20500Y-146248D02*
X22150Y-144598D01*
X20500Y-152517D02*
X22350Y-154367D01*
Y-159683D02*
Y-154367D01*
X12100Y-47200D02*
X14700Y-44600D01*
X12100Y-55100D02*
Y-47200D01*
X14700Y-44600D02*
Y-43000D01*
X48300Y-62600D02*
X49400D01*
X46950Y-61250D02*
X48300Y-62600D01*
X27050Y-70250D02*
X29900Y-67400D01*
X24617Y-70250D02*
X27050D01*
X29900Y-67400D02*
X34800D01*
X69800Y-54700D02*
X70000Y-54900D01*
X68290Y-59400D02*
X70700D01*
X66590Y-61100D02*
X68290Y-59400D01*
X63200Y-61100D02*
X66590D01*
X60255Y-64046D02*
X63200Y-61100D01*
X68704Y-60400D02*
X72000D01*
X67004Y-62100D02*
X68704Y-60400D01*
X63614Y-62100D02*
X67004D01*
X60669Y-65045D02*
X63614Y-62100D01*
X67418Y-63100D02*
X68845Y-61673D01*
X64211Y-63100D02*
X67418D01*
X65500Y-59300D02*
X65700Y-59100D01*
X74150Y-58250D02*
Y-57284D01*
X72000Y-60400D02*
X74150Y-58250D01*
X77600Y-63500D02*
X80700D01*
X84300Y-59900D01*
X55350Y-63493D02*
Y-62516D01*
X56350Y-63079D02*
X57316Y-64046D01*
X56350Y-63079D02*
Y-61450D01*
X54100Y-59200D02*
X56350Y-61450D01*
X95650Y-43750D02*
X108683D01*
X55350Y-63493D02*
X56902Y-65045D01*
X50083Y-60950D02*
X51950Y-62817D01*
Y-68150D02*
Y-62817D01*
X65700Y-59100D02*
X65900D01*
X89016Y-112250D02*
X90527D01*
X87271Y-113995D02*
X89016Y-112250D01*
X84243Y-59909D02*
X87150Y-57002D01*
X47600Y-38600D02*
Y-30908D01*
X49800Y-49300D02*
X52400Y-51900D01*
X47600Y-38600D02*
X49800Y-40800D01*
Y-49300D02*
Y-40800D01*
X33602Y-64598D02*
X34800Y-65796D01*
Y-67400D02*
Y-65796D01*
X32600Y-63600D02*
Y-61100D01*
Y-63600D02*
X33600Y-64600D01*
X31000Y-57100D02*
X32183Y-58283D01*
Y-60683D02*
Y-58283D01*
X34178Y-57300D02*
X46333D01*
X49717Y-60950D02*
X50083D01*
X48450Y-59684D02*
X49717Y-60950D01*
X48450Y-59684D02*
Y-59417D01*
X30150Y-51916D02*
X32750Y-54517D01*
X49417Y-68650D02*
X51450D01*
X32750Y-55872D02*
Y-54517D01*
X81300Y-125800D02*
X81400D01*
X82100Y-126500D01*
X83850Y-130250D02*
Y-128150D01*
X83600Y-130500D02*
X83850Y-130250D01*
X82700Y-130500D02*
X83600D01*
X82100Y-129900D02*
X82700Y-130500D01*
X82100Y-129900D02*
Y-126500D01*
X46333Y-57300D02*
X48450Y-59417D01*
X32183Y-60683D02*
X32600Y-61100D01*
X51450Y-68650D02*
X51950Y-68150D01*
X32750Y-55872D02*
X34178Y-57300D01*
X29300Y-57100D02*
X31000D01*
X23267Y-71600D02*
X24617Y-70250D01*
X17100Y-71600D02*
X23267D01*
X7800Y-119100D02*
Y-60100D01*
Y-119100D02*
X11200Y-122500D01*
X7800Y-60100D02*
X11000Y-56900D01*
X11450Y-74750D02*
X13950D01*
X17100Y-71600D01*
X10600Y-73900D02*
X11450Y-74750D01*
X24100Y-98600D02*
X26200D01*
X40250Y-112802D02*
Y-105385D01*
X41250Y-113217D02*
Y-104970D01*
X38700Y-103835D02*
X40250Y-105385D01*
X40885Y-104605D02*
Y-99815D01*
Y-104605D02*
X41250Y-104970D01*
X57700Y-114900D02*
X58200Y-114400D01*
X58100D02*
X59100D01*
X57700Y-119100D02*
Y-114900D01*
X65900Y-114300D02*
X66100Y-114500D01*
X66300D01*
X72200Y-119086D02*
Y-116652D01*
Y-116800D02*
Y-116652D01*
X63450Y-111450D02*
X66998D01*
X66500D02*
X66998D01*
X19500Y-136667D02*
X21150Y-138317D01*
Y-144183D02*
Y-138317D01*
X39850Y-118940D02*
X40093Y-119182D01*
X39850Y-118940D02*
Y-113202D01*
X40250Y-112802D01*
X40850Y-113617D02*
X41250Y-113217D01*
X27250Y-174950D02*
X32150D01*
X50533Y-3900D02*
X51300D01*
X49183Y-2550D02*
X50533Y-3900D01*
X87150Y-57002D02*
Y-55850D01*
X87150Y-55850D02*
Y-54616D01*
Y-55984D02*
Y-55850D01*
X87150Y-55850D02*
X87150Y-55850D01*
X84950Y-52416D02*
Y-48250D01*
Y-52416D02*
X87150Y-54616D01*
X86700Y-58867D02*
X87916Y-57650D01*
X77450Y-68650D02*
X86700Y-59400D01*
Y-58867D01*
X87916Y-57650D02*
X88650D01*
X91350Y-54950D01*
Y-41507D01*
X90350Y-45098D02*
Y-41922D01*
X87998Y-47450D02*
X90350Y-45098D01*
X82450Y-44436D02*
X83850Y-45836D01*
X83700Y-45700D02*
X83900Y-45900D01*
X83300Y-51400D02*
X83900Y-50800D01*
Y-45900D01*
X83300Y-55389D02*
Y-51400D01*
X79690Y-60611D02*
Y-59000D01*
X83300Y-55389D01*
X28650Y-56450D02*
X29300Y-57100D01*
X21217Y-127917D02*
X27100Y-133800D01*
X40093Y-127807D02*
Y-119182D01*
Y-127807D02*
X40672Y-128386D01*
Y-151972D02*
Y-128386D01*
X42200Y-154100D02*
Y-128500D01*
X78900Y-167127D02*
Y-166900D01*
X77550Y-168477D02*
X78900Y-167127D01*
X11000Y-56200D02*
X12100Y-55100D01*
X30150Y-51916D02*
Y-45717D01*
X79836Y-56978D02*
Y-53641D01*
X77700Y-59300D02*
Y-59114D01*
X79836Y-56978D01*
X87978Y-123150D02*
X90716D01*
X92866Y-125300D01*
X95243D01*
X85934Y-120100D02*
X86950Y-121117D01*
Y-122136D02*
Y-121117D01*
Y-122136D02*
X87707Y-122893D01*
X95243Y-125300D02*
X97400Y-127457D01*
X79500Y-120100D02*
X85934D01*
X94600Y-141414D02*
X97400Y-138614D01*
Y-127457D01*
X77600Y-118200D02*
X79500Y-120100D01*
X92434Y-126300D02*
X94828D01*
X90284Y-124150D02*
X92434Y-126300D01*
X87564Y-124150D02*
X90284D01*
X64100Y-118000D02*
X65900D01*
X28800Y-141333D02*
X28900Y-141433D01*
X27100Y-139600D02*
X28900Y-141400D01*
X27100Y-139600D02*
Y-133800D01*
X28900Y-141433D02*
Y-141400D01*
X40450Y-155850D02*
X42200Y-154100D01*
X38450Y-158183D02*
X41427Y-161161D01*
X41900Y-164450D02*
X44302D01*
X38850D02*
X41900D01*
X39417Y-155850D02*
X40450D01*
X38450Y-156817D02*
X39417Y-155850D01*
X38450Y-158183D02*
Y-156817D01*
X41427Y-163977D02*
Y-161161D01*
Y-163977D02*
X41900Y-164450D01*
X39002Y-154850D02*
X39736D01*
X37450Y-156402D02*
X39002Y-154850D01*
X37450Y-156845D02*
Y-156402D01*
X33267Y-161028D02*
X37450Y-156845D01*
X32794Y-161028D02*
X33267D01*
X31828Y-161995D02*
X32794Y-161028D01*
X31828Y-163361D02*
Y-161995D01*
Y-163361D02*
X31950Y-163483D01*
Y-168483D02*
Y-163483D01*
X39736Y-154850D02*
X41100Y-153486D01*
Y-152400D01*
X32150Y-174950D02*
X38000Y-169100D01*
Y-165300D01*
X38850Y-164450D01*
X40672Y-151972D02*
X41100Y-152400D01*
X29433Y-171000D02*
X31950Y-168483D01*
X26600Y-171000D02*
X29433D01*
X24950Y-172650D02*
X27250Y-174950D01*
X2000Y-139900D02*
X11000D01*
X22950Y-164983D02*
X24950Y-166983D01*
X22950Y-164983D02*
Y-163950D01*
X20000Y-161000D02*
X22950Y-163950D01*
X19000Y-161000D02*
X20000D01*
X15200Y-157200D02*
X19000Y-161000D01*
X15200Y-157200D02*
Y-144100D01*
X16250Y-156683D02*
Y-143750D01*
Y-156683D02*
X19417Y-159850D01*
X16250Y-143750D02*
X17800Y-142200D01*
X11000Y-139900D02*
X15200Y-144100D01*
X19500Y-145833D02*
X21150Y-144183D01*
X19417Y-159850D02*
X21102D01*
X24600Y-163348D01*
X11200Y-64600D02*
X12100Y-63700D01*
X17733D01*
X18850Y-62584D01*
Y-60464D01*
X17650Y-60250D02*
X21500Y-56400D01*
X10950Y-60250D02*
X17650D01*
X10800Y-60400D02*
X10950Y-60250D01*
X11000Y-56900D02*
Y-56200D01*
X40850Y-118526D02*
X41400Y-119076D01*
X42700Y-98000D02*
X42800D01*
X82316Y-173050D02*
X84316Y-175050D01*
X69900Y-13300D02*
Y-12000D01*
X83850Y-125417D02*
X84816Y-124450D01*
X83850Y-125417D02*
X84183Y-125083D01*
X80750Y-130279D02*
X82000Y-131529D01*
X80750Y-130279D02*
Y-128802D01*
Y-130322D02*
Y-130279D01*
X79750Y-130750D02*
X80100Y-131100D01*
X80114D01*
X80957Y-131943D01*
X80750Y-130322D02*
X80814Y-130386D01*
X79750Y-130750D02*
Y-129217D01*
X76534Y-122800D02*
X79150Y-125417D01*
X76350Y-122650D02*
X77150Y-123450D01*
X79100Y-127152D02*
X80750Y-128802D01*
X76450Y-128250D02*
X78784D01*
X79750Y-129217D01*
X79100Y-127152D02*
Y-126883D01*
X79150Y-126833D01*
Y-125417D01*
X76500Y-122800D02*
X76534D01*
X75850Y-124250D02*
Y-123900D01*
Y-127650D02*
Y-124250D01*
X75350Y-123400D02*
Y-121817D01*
X75850Y-127650D02*
X76450Y-128250D01*
X75350Y-123400D02*
X75850Y-123900D01*
X82000Y-145324D02*
Y-131529D01*
X81000Y-144910D02*
Y-131943D01*
X76064Y-68650D02*
X77450D01*
X75700D02*
X76064D01*
X53950Y-55250D02*
X54000Y-55200D01*
X38700Y-103835D02*
Y-102000D01*
X78100Y-44143D02*
X78150Y-44193D01*
Y-44198D02*
Y-44193D01*
X75100Y-45386D02*
X75150Y-45436D01*
X77100Y-44557D02*
X77150Y-44607D01*
Y-44612D02*
Y-44607D01*
X76100Y-44972D02*
X76150Y-45022D01*
Y-45026D02*
Y-45022D01*
X75150Y-45440D02*
Y-45436D01*
X77150Y-44612D02*
X77500Y-44962D01*
X76150Y-45026D02*
X76500Y-45376D01*
Y-49128D02*
Y-45376D01*
X75150Y-45440D02*
X75500Y-45790D01*
Y-48714D02*
Y-45790D01*
X78150Y-44198D02*
X78500Y-44548D01*
X75836Y-49793D02*
X76500Y-49128D01*
X75836Y-51893D02*
Y-49793D01*
X74836Y-49378D02*
X75500Y-48714D01*
X74836Y-51478D02*
Y-49378D01*
X72200Y-54114D02*
X74836Y-51478D01*
X72200Y-54114D02*
Y-54114D01*
X71550Y-54764D02*
X72200Y-54114D01*
X76100Y-55334D02*
Y-53186D01*
X74150Y-57284D02*
X76100Y-55334D01*
X71550Y-55283D02*
Y-54764D01*
X70483Y-56350D02*
X71550Y-55283D01*
X76150Y-59264D02*
Y-58517D01*
X75150Y-58850D02*
Y-57698D01*
X68573Y-64973D02*
X70441D01*
X67700Y-64100D02*
X68573Y-64973D01*
X64686Y-64100D02*
X67700D01*
X68527Y-65974D02*
X72227D01*
X65000Y-69500D02*
X68527Y-65974D01*
X64400Y-69500D02*
X65000D01*
X64000Y-69100D02*
X64400Y-69500D01*
X64000Y-69100D02*
Y-68300D01*
X66100Y-66200D01*
X65800Y-65100D02*
X66100Y-65400D01*
X63000Y-69867D02*
Y-67200D01*
X66100Y-66200D02*
Y-65400D01*
X65100Y-65100D02*
X65800D01*
X63000Y-67200D02*
X65100Y-65100D01*
X55000Y-34600D02*
Y-33300D01*
X54600Y-32900D02*
X55000Y-33300D01*
X54000Y-32900D02*
X54600D01*
X53600Y-33300D02*
X54000Y-32900D01*
X53600Y-40300D02*
Y-33300D01*
X63550Y-56550D02*
Y-54417D01*
X78700Y-61600D02*
X79690Y-60611D01*
X58200Y-58900D02*
X59650Y-57450D01*
Y-54417D01*
X74050Y-163300D02*
Y-161617D01*
X89600Y-166400D02*
X90200Y-167000D01*
X89600Y-166400D02*
Y-165800D01*
X91300Y-164100D01*
X83384Y-171950D02*
X85850Y-169483D01*
X88900Y-164114D02*
Y-164100D01*
X85850Y-167164D02*
X88900Y-164114D01*
X85850Y-169483D02*
Y-167164D01*
X95600Y-143000D02*
X96900Y-141700D01*
X95600Y-146900D02*
Y-143000D01*
X91700Y-150800D02*
X95600Y-146900D01*
X91700Y-153014D02*
Y-150800D01*
X91100Y-153614D02*
X91700Y-153014D01*
X78517Y-171950D02*
X83384D01*
X77550Y-170983D02*
X78517Y-171950D01*
X77550Y-170983D02*
Y-168477D01*
X87714Y-122886D02*
X87978Y-123150D01*
X88600Y-161100D02*
X89400D01*
X90100Y-160400D01*
Y-153200D01*
X84200Y-167400D02*
X87900Y-163700D01*
Y-161800D02*
X88600Y-161100D01*
X87900Y-163700D02*
Y-161800D01*
X90100Y-153200D02*
X90700Y-152600D01*
Y-149914D01*
X94600Y-146014D02*
Y-141414D01*
X90700Y-149914D02*
X94600Y-146014D01*
X82514Y-165500D02*
X83767D01*
X86600Y-162667D01*
X81757Y-166257D02*
X82514Y-165500D01*
X81757Y-167509D02*
Y-166257D01*
X88400Y-160000D02*
X89100Y-159300D01*
Y-152514D01*
X87100Y-160000D02*
X88400D01*
X86600Y-160500D02*
X87100Y-160000D01*
X86600Y-162667D02*
Y-160500D01*
X89100Y-152514D02*
X89700Y-151914D01*
X79200Y-170300D02*
Y-170067D01*
X93600Y-145600D02*
Y-141000D01*
X89700Y-149500D02*
X93600Y-145600D01*
X89700Y-151914D02*
Y-149500D01*
X93600Y-141000D02*
X96400Y-138200D01*
Y-127872D01*
X94828Y-126300D02*
X96400Y-127872D01*
X87407Y-123993D02*
X87564Y-124150D01*
X80656Y-123464D02*
X83700D01*
X83714Y-123450D02*
X86850D01*
X87400Y-124000D01*
X83700Y-123464D02*
X83714Y-123450D01*
X78000Y-121800D02*
X78992D01*
X88100Y-158600D02*
Y-152100D01*
X87700Y-159000D02*
X88100Y-158600D01*
X86900Y-159000D02*
X87700D01*
X86500Y-158600D02*
X86900Y-159000D01*
X86500Y-158600D02*
Y-154700D01*
X88100Y-152100D02*
X88700Y-151500D01*
X84800Y-153000D02*
X86500Y-154700D01*
X88700Y-151500D02*
Y-149043D01*
X92400Y-145343D01*
X92707Y-140407D02*
X95400Y-137714D01*
X92400Y-140700D02*
X92700Y-140400D01*
X92400Y-145343D02*
Y-140700D01*
X95400Y-137714D02*
Y-128300D01*
X94400Y-127300D02*
X95400Y-128300D01*
X92500Y-127500D02*
X92700Y-127300D01*
X94400D01*
X88200Y-127500D02*
X92500D01*
X87500Y-126800D02*
X88200Y-127500D01*
X87500Y-126800D02*
Y-125767D01*
X86184Y-124450D02*
X87500Y-125767D01*
X84816Y-124450D02*
X86184D01*
X83850Y-128150D02*
Y-125417D01*
X85400Y-160800D02*
Y-159900D01*
X85000Y-159500D02*
X85400Y-159900D01*
X84400Y-159500D02*
X85000D01*
X84900Y-161300D02*
X85400Y-160800D01*
X85100Y-155800D02*
X85500Y-156200D01*
Y-157300D02*
Y-156200D01*
X85100Y-157700D02*
X85500Y-157300D01*
X84000Y-162600D02*
Y-161700D01*
X84400Y-161300D01*
X84900D01*
X84000Y-159100D02*
X84400Y-159500D01*
X84000Y-159100D02*
Y-158100D01*
Y-155400D02*
Y-154533D01*
Y-158100D02*
X84400Y-157700D01*
X85100D01*
X84400Y-155800D02*
X85100D01*
X84000Y-155400D02*
X84400Y-155800D01*
X78800Y-162967D02*
X81950Y-159817D01*
X78800Y-164100D02*
Y-162967D01*
Y-164100D02*
X80100Y-165400D01*
X81200D02*
X84000Y-162600D01*
X80100Y-165400D02*
X81200D01*
X81950Y-159817D02*
Y-156417D01*
X89214Y-145700D02*
X90400Y-144514D01*
X87200Y-145700D02*
X89214D01*
X86050Y-146850D02*
X87200Y-145700D01*
X84716Y-146850D02*
X86050D01*
X83750Y-147817D02*
X84716Y-146850D01*
X83750Y-149636D02*
Y-147817D01*
Y-149636D02*
X84076Y-149962D01*
Y-151390D02*
Y-149962D01*
X83150Y-152317D02*
X84076Y-151390D01*
X83150Y-153683D02*
Y-152317D01*
Y-153683D02*
X84000Y-154533D01*
X80984Y-155450D02*
X81950Y-156417D01*
X78850Y-155450D02*
X80984D01*
X76950Y-157350D02*
X78850Y-155450D01*
X76400Y-153400D02*
Y-152314D01*
X76800Y-153800D02*
X79700D01*
X76400Y-153400D02*
X76800Y-153800D01*
X88800Y-144700D02*
X89200Y-144300D01*
X88300Y-144700D02*
X88800D01*
X87900Y-144300D02*
X88300Y-144700D01*
X87900Y-144300D02*
Y-140700D01*
X87650Y-138550D02*
X87700Y-138500D01*
X87600Y-140400D02*
X87900Y-140700D01*
X86700Y-140400D02*
X87600D01*
X79700Y-153800D02*
X80900Y-152600D01*
X83000Y-161100D02*
Y-155800D01*
X82150Y-154950D02*
Y-151902D01*
X80900Y-152600D02*
Y-151100D01*
X82100Y-149900D01*
X82600D01*
X83076Y-150376D01*
Y-150976D02*
Y-150376D01*
X82150Y-151902D02*
X83076Y-150976D01*
X82150Y-154950D02*
X83000Y-155800D01*
X76400Y-152314D02*
X77814Y-150900D01*
X79252D01*
X84169Y-145983D01*
X82300Y-161800D02*
X83000Y-161100D01*
X84302Y-145850D02*
X85564D01*
X86400Y-145014D01*
X85150Y-144850D02*
X85400Y-144600D01*
X84450Y-144850D02*
X85150D01*
X84200Y-144600D02*
X84450Y-144850D01*
X84169Y-145983D02*
X84302Y-145850D01*
X84169Y-145983D02*
X84169D01*
X84169Y-145983D02*
Y-145983D01*
X84200Y-144600D02*
Y-140500D01*
X83900Y-140200D02*
X84200Y-140500D01*
X83300Y-140200D02*
X83900D01*
X83000Y-140500D02*
X83300Y-140200D01*
X83000Y-145738D02*
Y-140500D01*
X87500Y-131600D02*
X87800Y-131900D01*
X85800Y-135900D02*
X86100Y-135600D01*
X85100Y-135900D02*
X85800D01*
X84700Y-135500D02*
X85100Y-135900D01*
X83000Y-137600D02*
X83700Y-138300D01*
X78838Y-149900D02*
X83000Y-145738D01*
X77400Y-149900D02*
X78838D01*
X75400Y-151900D02*
X77400Y-149900D01*
X75400Y-155700D02*
Y-151900D01*
X60000Y-119800D02*
X61900D01*
X59350Y-119150D02*
X60000Y-119800D01*
X59350Y-119150D02*
Y-116517D01*
X59300Y-109300D02*
X59800Y-109800D01*
X58200Y-109300D02*
X59300D01*
X57700Y-109800D02*
X58200Y-109300D01*
X59800Y-111700D02*
Y-109800D01*
X57700Y-112000D02*
Y-109800D01*
Y-112000D02*
X58300Y-112600D01*
X62700Y-112200D02*
X63450Y-111450D01*
X60300Y-112200D02*
X62700D01*
X57700Y-114800D02*
X58100Y-114400D01*
X59100D02*
X59600Y-113900D01*
Y-113100D01*
X59100Y-112600D02*
X59600Y-113100D01*
X58300Y-112600D02*
X59100D01*
X59800Y-111700D02*
X60300Y-112200D01*
X72200Y-119086D02*
X72857Y-119743D01*
X74691D01*
X76350Y-121402D01*
Y-122650D02*
Y-121402D01*
X78988Y-148336D02*
X82000Y-145324D01*
X76172Y-148336D02*
X78988D01*
X61900Y-119800D02*
X62500Y-119200D01*
X64250Y-116450D02*
Y-113417D01*
X62500Y-119200D02*
Y-118186D01*
X63686Y-117000D01*
X63700D01*
X64250Y-116450D01*
Y-113417D02*
X65216Y-112450D01*
X66584D01*
X71200Y-119500D02*
Y-117067D01*
Y-119500D02*
X72500Y-120800D01*
X74334D01*
X75350Y-121817D01*
X79223Y-146686D02*
X81000Y-144910D01*
X75488Y-146686D02*
X79223D01*
X74522Y-147653D02*
X75488Y-146686D01*
X74522Y-149778D02*
Y-147653D01*
X72900Y-151400D02*
X74522Y-149778D01*
X59350Y-116517D02*
X61567Y-114300D01*
X61900D01*
X79700Y-132100D02*
X80000Y-132400D01*
X78800Y-132100D02*
X79700D01*
X78500Y-132400D02*
X78800Y-132100D01*
X80000Y-144495D02*
Y-132400D01*
X78500Y-144300D02*
Y-132400D01*
X78100Y-144700D02*
X78500Y-144300D01*
X77500Y-144700D02*
X78100D01*
X77100Y-144300D02*
X77500Y-144700D01*
X77100Y-144300D02*
Y-131267D01*
X78809Y-145686D02*
X80000Y-144495D01*
X72700Y-148300D02*
X72800D01*
X71200Y-150600D02*
X72700Y-149100D01*
X71200Y-153200D02*
Y-150600D01*
X70900Y-153500D02*
X71200Y-153200D01*
X69800Y-153500D02*
X70900D01*
X69500Y-153200D02*
X69800Y-153500D01*
X69500Y-153200D02*
Y-150562D01*
X70200Y-149862D01*
X74200Y-128367D02*
X77100Y-131267D01*
X74200Y-128367D02*
Y-126100D01*
X73100Y-131600D02*
X74100D01*
X72650Y-132050D02*
X73100Y-131600D01*
X72650Y-139388D02*
Y-132050D01*
X74600Y-144232D02*
Y-132100D01*
X74100Y-131600D02*
X74600Y-132100D01*
Y-144232D02*
X75054Y-144686D01*
X75714D01*
X73400Y-129900D02*
X73800D01*
X76100Y-132200D01*
Y-144300D02*
Y-132200D01*
X75714Y-144686D02*
X76100Y-144300D01*
X68500Y-154991D02*
Y-150148D01*
X66100Y-146300D02*
X66600D01*
X67033Y-145900D02*
X70950Y-141983D01*
X65700Y-145900D02*
X66100Y-146300D01*
X73600Y-159600D02*
X75700Y-161700D01*
X73100Y-159600D02*
X73600D01*
X73100D02*
Y-159591D01*
X68500Y-154991D02*
X73100Y-159591D01*
X69200Y-146593D02*
X72950Y-142843D01*
Y-139688D01*
X72650Y-139388D02*
X72950Y-139688D01*
X71650Y-128317D02*
X72550Y-127417D01*
Y-125417D01*
X73700Y-124267D01*
Y-122500D01*
X69600Y-126300D02*
X69900Y-126000D01*
X71550Y-127002D02*
Y-125002D01*
X72150Y-124402D02*
Y-123750D01*
X71550Y-125002D02*
X72150Y-124402D01*
X70500Y-122100D02*
X72150Y-123750D01*
X66850Y-166550D02*
X66900Y-166600D01*
X69672Y-167200D02*
Y-163672D01*
X66550Y-160502D02*
X68124Y-162076D01*
X68100Y-162100D02*
X69672Y-163672D01*
X66550Y-160502D02*
Y-158917D01*
X70650Y-127902D02*
X71550Y-127002D01*
X65583Y-157950D02*
X66550Y-158917D01*
X69600Y-138100D02*
Y-126300D01*
X62350Y-143778D02*
X68250Y-137878D01*
X67550Y-159850D02*
Y-158502D01*
X71650Y-139802D02*
X71950Y-140102D01*
X71650Y-139802D02*
Y-128317D01*
X70650Y-140317D02*
X70950Y-140617D01*
Y-141983D02*
Y-140617D01*
X70650Y-140317D02*
Y-127902D01*
X65879Y-161245D02*
X66850Y-162217D01*
Y-166550D02*
Y-162217D01*
X71150Y-172050D02*
X72800Y-170400D01*
X52700Y-170000D02*
X54750Y-172050D01*
X51266Y-170000D02*
X52700D01*
X54750Y-172050D02*
X71150D01*
X46050Y-150617D02*
X48850Y-147817D01*
Y-131250D01*
X54100Y-126000D01*
X52450Y-134883D02*
Y-129317D01*
X51250Y-159717D02*
X53650Y-162117D01*
Y-163483D02*
Y-162117D01*
Y-163483D02*
X54616Y-164450D01*
X57150D01*
X58600Y-163000D01*
X55900Y-134100D02*
X56300Y-134500D01*
X56700D01*
X57000Y-134200D01*
X58300Y-134000D02*
X58600Y-134300D01*
X61500D01*
X61600Y-134200D01*
X55900Y-134100D02*
Y-129300D01*
X54950Y-128350D02*
X55900Y-129300D01*
X52450Y-129317D02*
X53417Y-128350D01*
X54950D01*
X58100Y-129100D02*
X58300Y-129300D01*
Y-134000D02*
Y-129300D01*
X57000Y-134200D02*
Y-129400D01*
X57300Y-129100D01*
X58100D01*
X52250Y-159183D02*
X53816Y-160750D01*
X51250Y-159717D02*
Y-154983D01*
X52250Y-159183D02*
Y-154569D01*
X51664Y-153983D02*
X52250Y-154569D01*
X51631Y-153983D02*
X51664D01*
X51174Y-153526D02*
X51631Y-153983D01*
X49980Y-153746D02*
X51217Y-154983D01*
X49980Y-137354D02*
X52450Y-134883D01*
X49980Y-153746D02*
Y-137354D01*
X51174Y-153526D02*
Y-144760D01*
X55400Y-142300D02*
X55700D01*
X56200Y-141800D01*
Y-137200D01*
X56600Y-136800D01*
X57000D01*
X57400Y-137200D01*
X56200Y-143100D02*
X57400Y-141900D01*
X55100Y-136300D02*
X55783Y-135617D01*
X51174Y-144760D02*
X52833Y-143100D01*
X56200D01*
X53816Y-160750D02*
X59950D01*
X61900Y-162700D01*
X53700Y-139533D02*
X55100Y-138133D01*
X53700Y-141000D02*
Y-139533D01*
Y-141000D02*
X54000Y-141300D01*
X54400D01*
X55100Y-138133D02*
Y-136300D01*
X54400Y-141300D02*
X55400Y-142300D01*
X64000Y-136000D02*
X64300Y-136300D01*
X64400Y-136400D01*
X57400Y-141900D02*
Y-137200D01*
X55783Y-135617D02*
X57217D01*
X61000Y-136000D02*
X64000D01*
X57217Y-135617D02*
X58300Y-136700D01*
X59900Y-137100D02*
X61000Y-136000D01*
X59600Y-140600D02*
X59900Y-140300D01*
Y-137100D01*
X58300Y-140300D02*
Y-136700D01*
Y-140300D02*
X58600Y-140600D01*
X59600D01*
X65900Y-122000D02*
X66250Y-122350D01*
Y-137050D02*
Y-122350D01*
X62064Y-142650D02*
X67250Y-137464D01*
X59114Y-141600D02*
X61700D01*
X56614Y-144100D02*
X59114Y-141600D01*
X53248Y-144100D02*
X56614D01*
X52186Y-145161D02*
X53248Y-144100D01*
X52186Y-152988D02*
Y-145161D01*
X52174Y-153000D02*
X52186Y-152988D01*
X61700Y-141600D02*
X66250Y-137050D01*
X52174Y-153000D02*
X53250Y-154076D01*
Y-156350D02*
Y-154076D01*
Y-156350D02*
X54250Y-157350D01*
X55084D01*
X56200Y-158467D01*
Y-159200D02*
Y-158467D01*
Y-159200D02*
X56500Y-159500D01*
X61033D01*
X64209Y-166491D02*
X65200Y-165500D01*
Y-163000D01*
X60400Y-166500D02*
X60500D01*
X60400Y-164900D02*
X62033D01*
X60391Y-166491D02*
X60400Y-166500D01*
X60391Y-166491D02*
X64209D01*
X60000Y-166100D02*
X60391Y-166491D01*
X60000Y-166100D02*
Y-165300D01*
X60400Y-164900D01*
X61033Y-159500D02*
X63550Y-162017D01*
Y-163383D02*
Y-162017D01*
X62033Y-164900D02*
X63550Y-163383D01*
X67250Y-123050D02*
X67550Y-122750D01*
X67250Y-137464D02*
Y-123050D01*
X64198Y-161250D02*
X65700D01*
Y-161245D02*
X65879D01*
X60017Y-142650D02*
X62064D01*
X57566Y-145100D02*
X60017Y-142650D01*
X53662Y-145100D02*
X57566D01*
X53186Y-145575D02*
X53662Y-145100D01*
X53186Y-149386D02*
Y-145575D01*
Y-149386D02*
X53500Y-149700D01*
X54444D01*
X55486Y-150742D01*
X57750Y-156483D02*
Y-155117D01*
X57117Y-157117D02*
X57750Y-156483D01*
X57117Y-157783D02*
Y-157117D01*
X57100Y-157800D02*
X57117Y-157783D01*
X57100Y-157800D02*
X57600Y-158300D01*
X61248D01*
X64198Y-161250D01*
X56783Y-154150D02*
X57750Y-155117D01*
X63500Y-119300D02*
X64200Y-120000D01*
X66800D01*
X67500Y-120700D01*
X67550Y-122750D02*
Y-120700D01*
X55486Y-153436D02*
X56200Y-154150D01*
X55486Y-153436D02*
Y-150742D01*
X56200Y-154150D02*
X56783D01*
X63500Y-118600D02*
X64100Y-118000D01*
X63500Y-119300D02*
Y-118600D01*
X62350Y-144983D02*
Y-143778D01*
X60783Y-153850D02*
X61750Y-154817D01*
Y-156350D02*
X63350Y-157950D01*
X65583D01*
X61750Y-156350D02*
Y-154817D01*
X63350Y-144350D02*
X69600Y-138100D01*
X63350Y-145398D02*
Y-144350D01*
X62300Y-146448D02*
X63350Y-145398D01*
X62300Y-147700D02*
Y-146448D01*
X62750Y-155900D02*
X63800Y-156950D01*
X65998D01*
X67550Y-158502D01*
Y-159850D02*
X71322Y-163622D01*
Y-167883D02*
Y-163622D01*
X70306Y-168900D02*
X71322Y-167883D01*
X65300Y-169800D02*
X66200Y-168900D01*
X69788Y-171050D02*
X72117Y-168722D01*
X66700Y-168900D02*
X67100Y-169300D01*
X68900D02*
X69300Y-168900D01*
X70306D01*
X66200D02*
X66700D01*
X68500Y-170000D02*
X68900Y-169600D01*
Y-169300D01*
X67100Y-169600D02*
Y-169300D01*
Y-169600D02*
X67500Y-170000D01*
X68500D01*
X65300Y-170600D02*
Y-169800D01*
X65750Y-171050D02*
X69788D01*
X65300Y-170600D02*
X65750Y-171050D01*
X61300Y-150600D02*
Y-150111D01*
Y-150600D02*
X61693Y-150993D01*
Y-153345D02*
Y-150993D01*
Y-153345D02*
X62750Y-154402D01*
Y-155900D02*
Y-154402D01*
X62300Y-147700D02*
X62700Y-148100D01*
Y-149000D02*
Y-148100D01*
X61300Y-150111D02*
X61711Y-149700D01*
X62300D01*
X62700Y-149300D01*
Y-149100D01*
X73084Y-160650D02*
X74050Y-161617D01*
X69550Y-157698D02*
Y-157674D01*
Y-157698D02*
X72502Y-160650D01*
X73084D01*
X67500Y-155624D02*
X69550Y-157674D01*
X68550Y-158450D02*
X72400Y-162300D01*
X68550Y-158450D02*
Y-158088D01*
X66412Y-155950D02*
X68550Y-158088D01*
X65750Y-155950D02*
X66412D01*
X62700Y-152900D02*
X65750Y-155950D01*
X62700Y-152900D02*
Y-151800D01*
X71950Y-142429D02*
Y-140102D01*
X68200Y-146179D02*
X71950Y-142429D01*
X62692Y-151800D02*
Y-151608D01*
X63800Y-150500D01*
Y-146362D01*
X68100Y-143000D02*
Y-142600D01*
X65700Y-145400D02*
X68100Y-143000D01*
X65700Y-145900D02*
Y-145400D01*
X66600Y-146300D02*
X67200Y-145700D01*
X63800Y-146362D02*
X64350Y-145812D01*
Y-144764D01*
X67014Y-142100D01*
X67600D01*
X68100Y-142600D01*
X80300Y-160000D02*
Y-157100D01*
X68200Y-149033D02*
Y-146179D01*
X65133Y-150167D02*
X67067D01*
X64800Y-150500D02*
X65133Y-150167D01*
X64800Y-153586D02*
Y-150500D01*
Y-153586D02*
X65214Y-154000D01*
X65800D01*
X66100Y-153700D01*
Y-151700D01*
X66500Y-151300D01*
X67000D01*
X67500Y-151800D01*
Y-155624D02*
Y-151800D01*
X67067Y-150167D02*
X68200Y-149033D01*
X68500Y-150148D02*
X69200Y-149448D01*
Y-146593D01*
X76614Y-61600D02*
X78700D01*
X50517Y-16050D02*
X54517D01*
X49550Y-17017D02*
X50517Y-16050D01*
X49550Y-25142D02*
Y-17017D01*
X46375Y-28317D02*
X49550Y-25142D01*
X46375Y-29683D02*
Y-28317D01*
X54017Y-53550D02*
X54684D01*
X56283Y-55150D01*
Y-59517D02*
Y-55150D01*
Y-59517D02*
X58000Y-61234D01*
Y-62400D02*
Y-62396D01*
Y-61234D01*
X52383Y-51917D02*
X54017Y-53550D01*
X46375Y-29683D02*
X47600Y-30908D01*
X57316Y-52880D02*
X58113D01*
X56350Y-51913D02*
X57316Y-52880D01*
X56350Y-51913D02*
Y-47683D01*
X54650Y-45983D02*
X56350Y-47683D01*
X58113Y-52880D02*
X59650Y-54417D01*
X54650Y-45983D02*
Y-44198D01*
X65550Y-14550D02*
X66700Y-13400D01*
X65550Y-18350D02*
Y-14550D01*
X64600Y-19300D02*
X65550Y-18350D01*
X67567Y-55200D02*
X68717Y-56350D01*
X57917Y-44583D02*
X59117D01*
X60500Y-45967D01*
Y-47233D02*
Y-45967D01*
X59300Y-48433D02*
X60500Y-47233D01*
X59300Y-50167D02*
Y-48433D01*
X64550Y-55884D02*
X66017Y-57350D01*
X59300Y-50167D02*
X63550Y-54417D01*
X52200Y-40334D02*
Y-31723D01*
X64611Y-19311D01*
X52200Y-40334D02*
X52433Y-40567D01*
X53333D01*
X53600Y-40300D01*
X55000Y-41667D02*
X57917Y-44583D01*
X55000Y-41667D02*
Y-34700D01*
X54100Y-59200D02*
Y-59100D01*
X57316Y-64046D02*
X60255D01*
X57000Y-37600D02*
Y-33100D01*
Y-37600D02*
X59050Y-39650D01*
Y-43102D02*
Y-39650D01*
Y-43102D02*
X61500Y-45552D01*
Y-47648D02*
Y-45552D01*
X60900Y-48248D02*
X61500Y-47648D01*
X60900Y-49600D02*
Y-48248D01*
Y-49600D02*
X64550Y-53250D01*
Y-55884D02*
Y-53250D01*
X57000Y-33100D02*
X59400Y-30700D01*
Y-28500D01*
X60600Y-27300D01*
X62500D01*
X63800Y-28600D01*
Y-32100D02*
Y-28600D01*
X68350Y-17017D02*
X68850Y-17517D01*
Y-18883D02*
Y-17517D01*
X63117Y-33750D02*
X64483D01*
X62150Y-32783D02*
X63117Y-33750D01*
X58000Y-37186D02*
Y-33514D01*
Y-37186D02*
X60050Y-39236D01*
Y-42200D02*
Y-39236D01*
X64483Y-33750D02*
X65500Y-32733D01*
Y-31467D01*
X65100Y-31067D02*
X65500Y-31467D01*
X65100Y-31067D02*
Y-28486D01*
X67434Y-20300D02*
X68850Y-18883D01*
X66200Y-20300D02*
X67434D01*
X63400Y-26786D02*
X65100Y-28486D01*
X63400Y-26786D02*
Y-23100D01*
X66200Y-20300D01*
X61050Y-41786D02*
X64164Y-44900D01*
X61050Y-41786D02*
Y-38822D01*
X59000Y-36772D02*
X61050Y-38822D01*
X59000Y-36772D02*
Y-33928D01*
X59964Y-32964D01*
X60917D01*
X66500Y-33148D02*
Y-31500D01*
X67350Y-30650D01*
X67850D01*
X64164Y-44900D02*
X65534D01*
X67400Y-46767D01*
X69450Y-53050D02*
X70900Y-51600D01*
X70988Y-51512D02*
X71021Y-51546D01*
X66350Y-53050D02*
X69450D01*
X60917Y-32964D02*
X63017Y-35064D01*
X64583D02*
X66500Y-33148D01*
X65600Y-27200D02*
X68000D01*
X64400Y-26000D02*
X65600Y-27200D01*
X64400Y-26000D02*
Y-24200D01*
X66200Y-22400D02*
X69800D01*
X70800Y-23400D01*
X64400Y-24200D02*
X66200Y-22400D01*
X71704Y-53196D02*
X71704D01*
X72671Y-52229D01*
Y-50862D01*
X70337Y-49896D02*
X71704D01*
X69371Y-50862D02*
X70337Y-49896D01*
X67707Y-49707D02*
X68400Y-49014D01*
Y-46352D01*
X65948Y-43900D02*
X68400Y-46352D01*
X64800Y-43900D02*
X65948D01*
X71704Y-49896D02*
X72671Y-50862D01*
X63300Y-42400D02*
Y-41150D01*
X63700Y-40750D01*
X63300Y-42400D02*
X64800Y-43900D01*
X65900Y-36352D02*
X66550Y-37002D01*
X65900Y-36352D02*
Y-35162D01*
X66014Y-26200D02*
X68414D01*
X65400Y-25586D02*
X66014Y-26200D01*
X65400Y-25586D02*
Y-24614D01*
X66614Y-23400D01*
X68750D01*
X69250Y-23900D01*
Y-24350D02*
Y-23900D01*
Y-24350D02*
X70550Y-25650D01*
X71550Y-30726D02*
X71863Y-31039D01*
X70550Y-31650D02*
Y-25650D01*
X71550Y-30726D02*
Y-26598D01*
X69371Y-51679D02*
Y-50862D01*
X69000Y-52050D02*
X69371Y-51679D01*
X67707Y-50200D02*
Y-49707D01*
X67700Y-51650D02*
X68100Y-52050D01*
X67700Y-51650D02*
Y-50200D01*
X68100Y-52050D02*
X69000D01*
X69650Y-30264D02*
Y-27436D01*
X67850Y-30650D02*
X68650Y-29850D01*
Y-27850D01*
X68000Y-27200D02*
X68650Y-27850D01*
X68414Y-26200D02*
X69650Y-27436D01*
X65900Y-35162D02*
X67500Y-33562D01*
Y-32414D01*
X69650Y-30264D01*
X64700Y-40750D02*
X65000Y-41050D01*
Y-42100D02*
Y-41050D01*
Y-42100D02*
X65400Y-42500D01*
X63700Y-40750D02*
X64700D01*
X65400Y-42500D02*
X66200D01*
X66550Y-42150D01*
Y-37002D01*
X71550Y-26598D02*
X72550Y-25598D01*
Y-22817D01*
X51200Y-40748D02*
Y-31308D01*
Y-40748D02*
X54650Y-44198D01*
X63500Y-19008D02*
Y-18986D01*
X51200Y-31308D02*
X63500Y-19008D01*
Y-18986D02*
X63900Y-18586D01*
X76600Y-10100D02*
Y-8500D01*
X75800Y-7700D02*
X76600Y-8500D01*
X63900Y-18586D02*
Y-8700D01*
X64900Y-7700D01*
X75800D01*
X74850Y-11650D02*
X76400Y-13200D01*
X74850Y-11650D02*
Y-9350D01*
X64900Y-10800D02*
Y-9200D01*
X68350Y-17017D02*
Y-12717D01*
X60414Y-31100D02*
X61700D01*
X58000Y-33514D02*
X60414Y-31100D01*
X62150Y-32783D02*
Y-31550D01*
X61700Y-31100D02*
X62150Y-31550D01*
X74200Y-8700D02*
X74850Y-9350D01*
X64900Y-9200D02*
X65400Y-8700D01*
X74200D01*
X62500Y-47500D02*
Y-44650D01*
Y-47500D02*
X63200Y-48200D01*
X64800D01*
X60050Y-42200D02*
X62500Y-44650D01*
X69850Y-19298D02*
Y-15550D01*
X70600Y-14800D01*
X71200D01*
X71600Y-14400D01*
X67383Y-11750D02*
X68350Y-12717D01*
X64900Y-10800D02*
X65850Y-11750D01*
X67383D01*
X68650Y-10750D02*
X69900Y-12000D01*
X66100Y-10000D02*
X66400Y-9700D01*
X66100Y-10400D02*
Y-10000D01*
Y-10400D02*
X66450Y-10750D01*
X68650D01*
X73550Y-11400D02*
X73850Y-11100D01*
X72100Y-11400D02*
X73550D01*
X71600Y-11900D02*
X72100Y-11400D01*
X71600Y-14400D02*
Y-11900D01*
X66400Y-9700D02*
X73500D01*
X73850Y-10050D01*
Y-11100D02*
Y-10050D01*
X68516Y-34650D02*
X70650D01*
X67550Y-35617D02*
X68516Y-34650D01*
X67550Y-37700D02*
X68100Y-38250D01*
X69884D01*
X70850Y-39217D01*
Y-40583D02*
Y-39217D01*
X69884Y-41550D02*
X70850Y-40583D01*
X67550Y-37700D02*
Y-35617D01*
Y-44088D02*
X68462Y-45000D01*
X71134Y-21400D02*
X72550Y-22817D01*
X69100Y-20048D02*
X69850Y-19298D01*
X69100Y-20900D02*
X69600Y-21400D01*
X71134D01*
X69100Y-20900D02*
Y-20048D01*
X67550Y-42100D02*
X68100Y-41550D01*
X69884D01*
X67550Y-44088D02*
Y-42100D01*
X70650Y-34650D02*
X71863Y-33437D01*
Y-31039D01*
X69800Y-44500D02*
Y-43300D01*
X69300Y-45000D02*
X69800Y-44500D01*
X68462Y-45000D02*
X69300D01*
X74000Y-23000D02*
X74600Y-22400D01*
X72550Y-30312D02*
X72862Y-30624D01*
X72550Y-30312D02*
Y-27150D01*
X74000Y-25700D01*
Y-23000D01*
X73550Y-29898D02*
X73900Y-30248D01*
X69400Y-48400D02*
X69896Y-48896D01*
X70974Y-37926D02*
X71850Y-38802D01*
X70974Y-37926D02*
Y-35740D01*
X71814Y-34900D01*
X72400D01*
X72700Y-35200D01*
Y-35600D02*
Y-35200D01*
X72100Y-36200D02*
X72700Y-35600D01*
X72100Y-37400D02*
Y-36200D01*
X73200Y-44400D02*
X73850D01*
X74100Y-44150D01*
Y-34890D01*
X73255Y-34045D02*
X74100Y-34890D01*
X73900Y-33276D02*
Y-30248D01*
X73245Y-34045D02*
X73255D01*
X72900Y-33700D02*
X73245Y-34045D01*
X72862Y-33700D02*
Y-30624D01*
X74150Y-45854D02*
X74500Y-46205D01*
X74150Y-45854D02*
Y-45850D01*
X74000Y-45700D02*
X74150Y-45850D01*
X72900Y-45700D02*
X74000D01*
X72600Y-46000D02*
X72900Y-45700D01*
Y-44100D02*
X73200Y-44400D01*
X72900Y-44100D02*
Y-38200D01*
X72100Y-37400D02*
X72900Y-38200D01*
X71850Y-43864D02*
Y-38802D01*
X69400Y-48400D02*
Y-46314D01*
X71850Y-43864D01*
X73904Y-48896D02*
X74500Y-48300D01*
Y-46205D01*
X69896Y-48896D02*
X73904D01*
X68717Y-56350D02*
X70483D01*
X73550Y-29898D02*
Y-27702D01*
X75900Y-25352D02*
Y-24900D01*
X73550Y-27702D02*
X74552Y-26700D01*
X75100D01*
X75400Y-27000D01*
Y-27300D02*
Y-27000D01*
X74600Y-28100D02*
X75400Y-27300D01*
X74600Y-29300D02*
Y-28100D01*
Y-29300D02*
X74900Y-29600D01*
Y-32600D02*
Y-29600D01*
Y-32600D02*
X76200Y-33900D01*
X76500Y-27700D02*
Y-25500D01*
X75900Y-24900D02*
X76500Y-25500D01*
X76000Y-32200D02*
Y-28200D01*
X76500Y-27700D01*
X76000Y-32200D02*
X77300Y-33500D01*
X76200Y-36200D02*
Y-33900D01*
X77300Y-36200D02*
Y-33500D01*
X76200Y-36200D02*
X76500Y-36500D01*
X77000D01*
X77300Y-36200D01*
X77000Y-31786D02*
X78300Y-33086D01*
X73100Y-14314D02*
Y-13300D01*
X72274Y-21126D02*
X73574D01*
X73950Y-20750D01*
X70850Y-19702D02*
X72274Y-21126D01*
X70850Y-19702D02*
Y-16564D01*
X73100Y-14314D01*
X78300Y-31500D02*
X79300Y-32500D01*
X77550Y-26950D02*
Y-24217D01*
Y-26950D02*
X80400Y-29800D01*
X77000Y-23667D02*
X77550Y-24217D01*
X73950Y-20750D02*
X76450D01*
X77000Y-21300D01*
Y-23667D02*
Y-21300D01*
X79614Y-37814D02*
X79700Y-37900D01*
X78900Y-26886D02*
Y-22700D01*
Y-26886D02*
X81400Y-29386D01*
X78284Y-19750D02*
X80814Y-22281D01*
X71850Y-16978D02*
X73528Y-15300D01*
X72227Y-65974D02*
X72300Y-65900D01*
X72241Y-65974D02*
X76614Y-61600D01*
X84300Y-30200D02*
X85600D01*
X83500Y-29400D02*
X84300Y-30200D01*
X83500Y-29400D02*
Y-26700D01*
X84300Y-25900D01*
X85600Y-30200D02*
X86400Y-31000D01*
Y-33186D02*
Y-31000D01*
X81814Y-24214D02*
X82600Y-25000D01*
X79000Y-17638D02*
X82814Y-21452D01*
X83300Y-20600D02*
Y-16200D01*
Y-20600D02*
X84200Y-21500D01*
X84300Y-25900D02*
Y-24086D01*
X84200Y-21400D02*
X84250Y-21450D01*
X81814Y-24214D02*
Y-21867D01*
X78698Y-18750D02*
X81814Y-21867D01*
X82814Y-22600D02*
X84300Y-24086D01*
X82814Y-22600D02*
Y-21452D01*
X77914Y-16300D02*
X79364Y-14850D01*
X79000Y-17638D02*
Y-17100D01*
X79300Y-16800D01*
X79900D01*
X81500Y-18400D01*
X82000D01*
X82300Y-18100D01*
Y-17600D01*
X82900Y-14300D02*
X84300Y-15700D01*
X79364Y-14850D02*
X80257D01*
X80807Y-14300D01*
X82900D01*
X81211Y-15310D02*
X82410D01*
X83300Y-16200D01*
X80900D02*
X82300Y-17600D01*
X80900Y-16200D02*
Y-15621D01*
X81211Y-15310D01*
X84300Y-18600D02*
Y-15700D01*
Y-18600D02*
X86500Y-20800D01*
X85300Y-24100D02*
X86500Y-22900D01*
Y-20800D01*
X85300Y-28486D02*
Y-24100D01*
Y-28486D02*
X87400Y-30586D01*
X86300Y-28072D02*
Y-24514D01*
X85300Y-16600D02*
X86100Y-17400D01*
X85300Y-16600D02*
Y-15286D01*
X86100Y-17800D02*
Y-17400D01*
X86300Y-24514D02*
X87800Y-23014D01*
Y-15833D01*
X83314Y-13300D02*
X85300Y-15286D01*
X82007Y-13300D02*
X83314D01*
X78600Y-9893D02*
X82007Y-13300D01*
X87300Y-13000D02*
X88800Y-14500D01*
Y-23428D02*
Y-14500D01*
X87300Y-24928D02*
X88800Y-23428D01*
X87300Y-27657D02*
Y-24928D01*
X69900Y-67600D02*
X70950Y-68650D01*
X73900Y-33276D02*
X75100Y-34476D01*
Y-45386D02*
Y-34476D01*
X73700Y-54900D02*
Y-54028D01*
X75836Y-51893D01*
X76100Y-38814D02*
X78300Y-36614D01*
X76100Y-44972D02*
Y-38814D01*
X78300Y-36614D02*
Y-33086D01*
X88283Y-45750D02*
X89350Y-44683D01*
X85984Y-45750D02*
X88283D01*
X84950Y-48250D02*
X85750Y-47450D01*
X87998D01*
X76100Y-53186D02*
X76836Y-52450D01*
Y-50207D01*
X77500Y-49543D01*
Y-44962D01*
X77836Y-50621D02*
X78500Y-49957D01*
Y-44548D01*
X68845Y-61673D02*
X72326D01*
X75150Y-58850D01*
X77100Y-39228D02*
X78528Y-37800D01*
X79500D01*
X77100Y-44557D02*
Y-39228D01*
X79500Y-37814D02*
X79614D01*
X75150Y-57698D02*
X77100Y-55748D01*
Y-53600D01*
X77836Y-52864D01*
Y-50621D01*
X78100Y-43200D02*
X78800Y-42500D01*
Y-41500D01*
X78100Y-44143D02*
Y-43200D01*
Y-56567D02*
Y-54200D01*
X78836Y-53464D01*
Y-51064D01*
X76150Y-58517D02*
X78100Y-56567D01*
X78836Y-51064D02*
X79500Y-50400D01*
Y-43300D01*
X80450Y-42350D01*
Y-40150D01*
X81400Y-39200D01*
Y-29386D01*
X70441Y-64973D02*
X76150Y-59264D01*
X81450Y-40564D02*
X82400Y-39614D01*
X81450Y-42764D02*
Y-40564D01*
X80500Y-43714D02*
X81450Y-42764D01*
X79900Y-24614D02*
X80814Y-23700D01*
X79900Y-26300D02*
Y-24614D01*
X80814Y-23700D02*
Y-22281D01*
X85600Y-33986D02*
X86400Y-33186D01*
X83850Y-33950D02*
X84100Y-33700D01*
Y-32200D01*
X82450Y-44436D02*
Y-40978D01*
X83850Y-39578D01*
Y-33950D01*
X63900Y-72200D02*
Y-70767D01*
Y-72200D02*
X64400Y-72700D01*
X65500Y-71800D02*
X65800Y-71500D01*
X63000Y-69867D02*
X63900Y-70767D01*
X64400Y-72700D02*
X65100D01*
X65500Y-72300D01*
Y-71800D01*
X89000Y-27943D02*
Y-26500D01*
Y-27943D02*
X90400Y-29343D01*
X87300Y-27657D02*
X89400Y-29757D01*
X86300Y-28072D02*
X88400Y-30172D01*
X90400Y-40557D02*
X91350Y-41507D01*
X89400Y-40972D02*
X90350Y-41922D01*
X88400Y-41386D02*
X89350Y-42336D01*
X88400Y-41386D02*
Y-30172D01*
X89350Y-44683D02*
Y-42336D01*
X89400Y-40972D02*
Y-29757D01*
X90400Y-40557D02*
Y-29343D01*
X87400Y-41800D02*
X87700Y-42100D01*
X87400Y-41800D02*
Y-30586D01*
X87700Y-43900D02*
Y-42100D01*
X74350Y-18750D02*
X78698D01*
X73700Y-18100D02*
X74350Y-18750D01*
X73700Y-18100D02*
Y-17000D01*
X74400Y-16300D01*
X77914D01*
X78600Y-9893D02*
Y-9100D01*
X77900Y-8400D02*
X78600Y-9100D01*
X77900Y-8400D02*
Y-7800D01*
X78500Y-7200D01*
X79167D01*
X87800Y-15833D01*
X70700Y-59400D02*
X71400Y-58700D01*
X66017Y-57350D02*
X70750D01*
X71400Y-58000D01*
Y-58700D02*
Y-58000D01*
X77000Y-31786D02*
Y-29400D01*
X77300Y-29100D01*
X78000D01*
X78300Y-29400D01*
Y-31500D02*
Y-29400D01*
X79300Y-35900D02*
Y-32500D01*
X80400Y-35900D02*
Y-29800D01*
X79300Y-35900D02*
X79600Y-36200D01*
X80100D01*
X80400Y-35900D01*
X44302Y-164450D02*
X53875Y-174023D01*
Y-175109D02*
Y-174023D01*
X70200Y-149862D02*
Y-148900D01*
X72400Y-146700D01*
X74000D01*
X75014Y-145686D01*
X78809D01*
X72700Y-149100D02*
Y-148300D01*
X70000Y-54900D02*
X71704Y-53196D01*
X54000Y-59100D02*
X54100Y-59200D01*
X70950Y-68650D02*
X76064D01*
X69700Y-67500D02*
X69850Y-67650D01*
X64800Y-48200D02*
X65700Y-47300D01*
X66200Y-55200D02*
X67567D01*
X63550Y-56550D02*
X66000Y-59000D01*
X40885Y-99815D02*
X42700Y-98000D01*
X65483Y-173050D02*
X82316D01*
X62458Y-176075D02*
X65483Y-173050D01*
X53875Y-175109D02*
X54842Y-176075D01*
X62458D01*
X78992Y-121800D02*
X80656Y-123464D01*
X79200Y-170067D02*
X81283Y-167983D01*
X79200Y-170400D02*
Y-170300D01*
X79300Y-170400D01*
X79200Y-170067D02*
X81757Y-167509D01*
X10800Y-64600D02*
X11200D01*
X90527Y-112250D02*
X91927Y-110850D01*
X101050Y-109850D02*
X102950Y-107950D01*
X106150D01*
X108700Y-110500D01*
X102850Y-114383D02*
Y-113817D01*
X103817Y-112850D01*
X105183D01*
X105983Y-113650D01*
X83627Y-97373D02*
X88400Y-92600D01*
X83627Y-99027D02*
Y-97373D01*
Y-99027D02*
X85000Y-100400D01*
X89300Y-110300D02*
Y-107567D01*
X85000Y-103267D02*
Y-100400D01*
Y-103267D02*
X89300Y-107567D01*
X106250Y-88750D02*
X106800Y-88200D01*
X86800Y-103228D02*
X90600Y-107028D01*
Y-108400D02*
Y-107028D01*
Y-108400D02*
X92050Y-109850D01*
X105772Y-93900D02*
X108300Y-91372D01*
X92050Y-109850D02*
X101050D01*
X86800Y-103228D02*
Y-99400D01*
X87564Y-98636D01*
Y-97508D01*
X88530Y-96542D01*
X89658D01*
X92300Y-93900D01*
X105772D01*
X93100Y-92600D02*
X93700Y-92000D01*
Y-90000D01*
X94100Y-89600D01*
X95100D02*
X95500Y-90000D01*
X88400Y-92600D02*
X93100D01*
X94100Y-89600D02*
X95100D01*
X106250Y-91584D02*
Y-88750D01*
X95500Y-92200D02*
X95800Y-92500D01*
X96900D01*
X97100Y-92300D01*
Y-87300D01*
X97500Y-86900D01*
X98400D01*
X98800Y-87300D01*
Y-92100D02*
Y-87300D01*
Y-92100D02*
X99250Y-92550D01*
X95500Y-92200D02*
Y-90000D01*
X99250Y-92550D02*
X105283D01*
X106250Y-91584D01*
X108450Y-105250D02*
X112000Y-108800D01*
X110750Y-113650D02*
X112000Y-112400D01*
Y-108800D01*
X105983Y-113650D02*
X110750D01*
X107150Y-105789D02*
X110700Y-109338D01*
X110212Y-112350D02*
X110700Y-111862D01*
X109400Y-112350D02*
X110212D01*
X110700Y-111862D02*
Y-109338D01*
X109383Y-112350D02*
X109392Y-112342D01*
X100614Y-111200D02*
X100964Y-111550D01*
X105722D01*
X106522Y-112350D01*
X109383D01*
X91927Y-110850D02*
X94764D01*
X95114Y-111200D01*
X100614D01*
X91845Y-115555D02*
X101678D01*
X102850Y-114383D01*
X108450Y-105250D02*
Y-99150D01*
X107150Y-105789D02*
Y-102150D01*
X106500Y-101500D02*
X107150Y-102150D01*
X106700Y-99400D02*
X107100Y-99000D01*
X106500Y-96900D02*
X107100Y-97500D01*
Y-99000D02*
Y-97500D01*
X105100Y-96900D02*
X106500D01*
X105300Y-101500D02*
X106500D01*
X104600Y-100800D02*
X105300Y-101500D01*
X104600Y-100800D02*
Y-99900D01*
X105100Y-99400D01*
X106700D01*
X94700Y-112200D02*
X100200D01*
X94455Y-111955D02*
X94700Y-112200D01*
X100200D02*
X101700Y-113700D01*
X36700Y-70000D02*
X41600Y-65100D01*
X35700Y-69100D02*
X40600Y-64200D01*
X36700Y-71333D02*
Y-70000D01*
X33150Y-69850D02*
X33900Y-69100D01*
X35700D01*
X33150Y-71250D02*
Y-69850D01*
X35433Y-72600D02*
X36700Y-71333D01*
X33700Y-72600D02*
X35433D01*
X18329Y-74446D02*
X29954D01*
X18300Y-74400D02*
X18329D01*
X29954Y-74446D02*
X33150Y-71250D01*
X25900Y-78300D02*
X26700Y-79100D01*
X24200Y-77000D02*
X24900Y-76300D01*
X24200Y-77700D02*
Y-77000D01*
Y-77700D02*
X24800Y-78300D01*
X25900D01*
X21217Y-127917D02*
Y-101483D01*
X24100Y-98600D01*
X45033Y-73600D02*
X47650Y-70983D01*
Y-70416D01*
X49417Y-68650D01*
X80850Y-86016D02*
X81084D01*
X83627Y-83473D01*
Y-82325D01*
X84593Y-81358D01*
X106983Y-73200D02*
X112100D01*
X30300Y-167800D02*
Y-167633D01*
X22350Y-159683D02*
X29100Y-166433D01*
X30300Y-167633D01*
X57614Y-12386D02*
X58000Y-12000D01*
X57614Y-12386D02*
X64200Y-5800D01*
X54517Y-16050D02*
X57400Y-13167D01*
Y-12600D01*
X57614Y-12386D01*
X19958Y-148919D02*
Y-147552D01*
X19500Y-147094D02*
X19958Y-147552D01*
X19500Y-147094D02*
Y-145833D01*
X20500Y-146680D02*
X20958Y-147138D01*
X20500Y-146680D02*
Y-146248D01*
X19957Y-148920D02*
X19958Y-148919D01*
X19500Y-153900D02*
Y-151739D01*
X19958Y-151281D01*
Y-149915D01*
X19957Y-149914D02*
X19958Y-149915D01*
X19957Y-149914D02*
Y-148920D01*
X20500Y-152517D02*
Y-152154D01*
X20958Y-151696D01*
Y-147138D01*
X82627Y-99441D02*
Y-96959D01*
Y-99441D02*
X84000Y-100814D01*
X83900Y-108617D02*
Y-103348D01*
X84000Y-103248D01*
Y-100814D01*
X81627Y-99855D02*
X83000Y-101228D01*
X81627Y-99855D02*
Y-96545D01*
X83000Y-102833D02*
Y-101228D01*
X89317Y-90269D02*
X92017D01*
X98836Y-83450D01*
X91231Y-89269D02*
X98050Y-82450D01*
X88902Y-89269D02*
X91231D01*
X88350Y-175050D02*
X101300Y-162100D01*
X108300D01*
X110500Y-159900D01*
X84316Y-175050D02*
X88350D01*
X29100Y-76300D02*
X29939D01*
X30000D01*
X30200Y-76100D01*
X30600Y-75700D01*
X30200Y-76100D02*
X33700Y-72600D01*
X24900Y-76300D02*
X29939D01*
X41600Y-65100D02*
X44000D01*
X44100D01*
X46000Y-63200D01*
X40950Y-63850D02*
Y-62317D01*
X40600Y-64200D02*
X40950Y-63850D01*
X42017Y-61250D02*
X42500D01*
X40950Y-62317D02*
X42017Y-61250D01*
X46950D01*
X56902Y-65045D02*
X60669D01*
X57450Y-68650D02*
X58661D01*
X60000Y-71900D02*
Y-68786D01*
X64686Y-64100D01*
X58661Y-68650D02*
X64211Y-63100D01*
X108683Y-43750D02*
X115800Y-36633D01*
Y-36200D01*
X38983Y-1550D02*
X52750D01*
X39217Y-4083D02*
X40750Y-2550D01*
X39217Y-6017D02*
Y-4083D01*
X40750Y-2550D02*
X49183D01*
X40217Y-6564D02*
Y-4498D01*
X41164Y-3550D01*
X47850D01*
X48500Y-4200D01*
X47150Y-7450D02*
X48100Y-6500D01*
X40745Y-7450D02*
X47150D01*
X44450Y-8450D02*
X44900Y-8900D01*
Y-10100D02*
Y-8900D01*
X36850Y-22650D02*
X40250Y-19250D01*
Y-16150D01*
X41842Y-14558D01*
Y-10100D01*
X35850Y-22236D02*
X39250Y-18836D01*
Y-14983D01*
X40350Y-13883D01*
X40192Y-9416D02*
X41159Y-8450D01*
X44450D01*
X28650Y-56450D02*
Y-45750D01*
X40192Y-12359D02*
X40350Y-12517D01*
Y-13883D02*
Y-12517D01*
X40192Y-12359D02*
Y-9416D01*
X23550Y-45183D02*
X24500Y-46133D01*
X23550Y-45183D02*
Y-43817D01*
X24517Y-42850D01*
X29429D01*
X34850Y-21072D02*
X35600Y-20322D01*
Y-12595D01*
X24500Y-57643D02*
Y-46133D01*
X35600Y-12595D02*
X40745Y-7450D01*
X20050Y-44500D02*
X22700Y-41850D01*
X28783D01*
X32277Y-19183D02*
X33850Y-20755D01*
X32277Y-19183D02*
Y-14503D01*
X20050Y-46422D02*
Y-44500D01*
X32277Y-14503D02*
X40217Y-6564D01*
X28650Y-20483D02*
X32100Y-23933D01*
X28650Y-20483D02*
Y-16583D01*
X19050Y-46836D02*
Y-44086D01*
X28650Y-16583D02*
X39217Y-6017D01*
X18050Y-47250D02*
Y-43672D01*
X30200Y-36000D02*
X32100Y-34100D01*
X27136Y-36000D02*
X30200D01*
X32100Y-34100D02*
Y-23933D01*
X19050Y-44086D02*
X27136Y-36000D01*
X18050Y-43672D02*
X26722Y-35000D01*
X29786D01*
X31100Y-33686D01*
Y-24348D01*
X27650Y-20898D02*
X31100Y-24348D01*
X27650Y-20898D02*
Y-16169D01*
X35650Y-8169D01*
Y-4883D01*
X38983Y-1550D01*
X28783Y-41850D02*
X33850Y-36783D01*
Y-20755D01*
X29429Y-42850D02*
X34850Y-37429D01*
Y-21072D01*
X35850Y-38550D02*
Y-22236D01*
X28650Y-45750D02*
X35850Y-38550D01*
X30150Y-45717D02*
X36850Y-39017D01*
Y-22650D01*
X86533Y-128500D02*
X91500D01*
X85600Y-127567D02*
X86533Y-128500D01*
X85400Y-137800D02*
X87800Y-135400D01*
Y-131900D01*
X88976Y-132205D02*
X89332Y-131850D01*
X90788D01*
X86400Y-145014D02*
Y-140700D01*
X86700Y-140400D01*
X85400Y-144600D02*
Y-137800D01*
X91400Y-140000D02*
X94400Y-137000D01*
X91400Y-144928D02*
Y-140000D01*
X89200Y-144300D02*
Y-140100D01*
X87700Y-138600D02*
X89200Y-140100D01*
X90400Y-144514D02*
Y-137600D01*
X89332Y-133033D02*
X91793D01*
X92126Y-133366D01*
Y-133957D02*
Y-133366D01*
X91732Y-134350D02*
X92126Y-133957D01*
X89075Y-134350D02*
X91732D01*
X88800Y-134625D02*
X89075Y-134350D01*
X88800Y-135257D02*
Y-134625D01*
Y-135257D02*
X89173Y-135630D01*
X91634D01*
X92000Y-135996D01*
Y-136600D02*
Y-135996D01*
Y-136600D02*
X92300Y-136900D01*
X92900D01*
X93200Y-136600D01*
X90788Y-131850D02*
X92000Y-130638D01*
Y-129000D01*
X91500Y-128500D02*
X92000Y-129000D01*
X93200Y-136600D02*
Y-128800D01*
X93600Y-128400D01*
X94000D01*
X94400Y-128800D01*
Y-137000D02*
Y-128800D01*
X71200Y-117000D02*
Y-115133D01*
X71350Y-114983D01*
X66584Y-112450D02*
X70183D01*
X66998Y-111450D02*
X70598D01*
X71350Y-114983D02*
Y-113617D01*
X70598Y-111450D02*
X72350Y-113202D01*
X70183Y-112450D02*
X71350Y-113617D01*
X66300Y-114500D02*
X67879Y-116078D01*
Y-118560D02*
Y-116078D01*
Y-118560D02*
X68700Y-119381D01*
Y-124867D02*
Y-119381D01*
X68250Y-125317D02*
X68700Y-124867D01*
X68250Y-137878D02*
Y-125317D01*
X72350Y-116502D02*
Y-113202D01*
X72200Y-116652D02*
X72350Y-116502D01*
X108783Y-125650D02*
X110500Y-127367D01*
X109148Y-124600D02*
X111500Y-126952D01*
X107350Y-125650D02*
X108783D01*
X105900Y-127100D02*
X107350Y-125650D01*
X103767Y-139600D02*
X103800D01*
X86100Y-132100D02*
X86600Y-131600D01*
X87500D01*
X101250Y-137083D02*
X103767Y-139600D01*
X89300Y-118100D02*
X91845Y-115555D01*
X83350Y-109167D02*
X83900Y-108617D01*
X86348Y-119100D02*
X87098Y-119850D01*
X92236Y-111955D02*
X94455D01*
X83350Y-111083D02*
Y-109167D01*
X79500Y-105572D02*
X80656Y-104416D01*
X81418D01*
X83000Y-102833D01*
X90291Y-113900D02*
X92236Y-111955D01*
X103800Y-126800D02*
X106000Y-124600D01*
X109148D01*
X89700Y-113900D02*
X90291D01*
X77403Y-79097D02*
Y-79071D01*
X77500Y-110200D02*
X79500Y-108200D01*
Y-105572D01*
X87271Y-114538D02*
Y-113995D01*
X79650Y-118083D02*
X80667Y-119100D01*
X83350Y-111083D02*
X83900Y-111633D01*
X77403Y-79071D02*
X79674Y-76800D01*
X84593Y-81358D02*
X85742D01*
X103167Y-73450D02*
X104267Y-74550D01*
X105633D01*
X106983Y-73200D01*
X105633Y-71250D02*
X105983Y-71600D01*
X112633D01*
X104700Y-96500D02*
X104900Y-96700D01*
X105100Y-96900D01*
X108450Y-99150D02*
X109600Y-98000D01*
X98050Y-82450D02*
X105098D01*
X98836Y-83450D02*
X104683D01*
X110583Y-89350D02*
X111950D01*
X104683Y-83450D02*
X110583Y-89350D01*
X105098Y-82450D02*
X110998Y-88350D01*
X111950Y-89350D02*
X112650Y-90050D01*
X115950Y-91684D02*
Y-90316D01*
X115100Y-94100D02*
X116950Y-92250D01*
X113800Y-93834D02*
X115950Y-91684D01*
X113800Y-100267D02*
X115750Y-102216D01*
X109600Y-104200D02*
X113000Y-107600D01*
X103800Y-128600D02*
Y-126800D01*
X114800Y-160200D02*
Y-160100D01*
X113450Y-158750D02*
X114800Y-160100D01*
X113450Y-158750D02*
Y-156402D01*
X115100Y-157500D02*
X115850Y-156750D01*
X114150Y-154350D02*
X114200Y-154400D01*
X114150Y-154350D02*
Y-153398D01*
X115850Y-156750D02*
Y-153683D01*
X115000Y-148531D02*
X116400Y-149931D01*
Y-151900D02*
Y-149931D01*
X79674Y-76800D02*
X85944D01*
X86927Y-75818D01*
X85742Y-81358D02*
X93650Y-73450D01*
X103167D01*
X89277Y-71250D02*
X105633D01*
X86927Y-73600D02*
X89277Y-71250D01*
X86927Y-75818D02*
Y-73600D01*
X110998Y-88350D02*
X113983D01*
X115950Y-90316D01*
X114300Y-86900D02*
Y-73267D01*
Y-86900D02*
X116950Y-89550D01*
Y-92250D02*
Y-89550D01*
X112633Y-71600D02*
X114300Y-73267D01*
X115100Y-100152D02*
X116750Y-101802D01*
X115100Y-100152D02*
Y-94100D01*
X113800Y-100267D02*
Y-93834D01*
X109600Y-102200D02*
X112650Y-99150D01*
Y-90050D01*
X109600Y-104200D02*
Y-102200D01*
X115750Y-104850D02*
Y-102216D01*
X114000Y-106600D02*
X115750Y-104850D01*
X116750Y-105264D02*
Y-101802D01*
X115000Y-148531D02*
Y-107014D01*
X116750Y-105264D01*
X114000Y-151833D02*
X115850Y-153683D01*
X114000Y-151833D02*
Y-106600D01*
X110500Y-152914D02*
Y-127367D01*
X111500Y-155867D02*
X112450Y-156817D01*
X112500Y-155452D02*
X113450Y-156402D01*
X111500Y-152500D02*
Y-126952D01*
Y-155867D02*
Y-153914D01*
X110500Y-152914D02*
X111500Y-153914D01*
Y-152500D02*
X112500Y-153500D01*
Y-155452D02*
Y-153500D01*
X113000Y-152248D02*
X114150Y-153398D01*
X113000Y-152248D02*
Y-107600D01*
X34400Y-97900D02*
X38800D01*
X40350Y-96350D01*
X48150D01*
X56500Y-104700D01*
X70700D01*
X72150Y-106150D01*
Y-107083D02*
Y-106150D01*
Y-107083D02*
X73116Y-108050D01*
X80667Y-119100D02*
X86348D01*
X83900Y-116200D02*
X85100Y-117400D01*
X83900Y-116200D02*
Y-111633D01*
X75850Y-110883D02*
X79650Y-114683D01*
Y-118083D02*
Y-114683D01*
X73116Y-108050D02*
X74950D01*
X75850Y-108950D01*
Y-110883D02*
Y-108950D01*
X87098Y-119850D02*
X90284D01*
X91684Y-121250D01*
X97050D02*
X100550Y-124750D01*
Y-130983D02*
Y-124750D01*
Y-130983D02*
X101250Y-131683D01*
X91684Y-121250D02*
X97050D01*
X101250Y-137083D02*
Y-131683D01*
X112450Y-168450D02*
X113400Y-169400D01*
X112450Y-168450D02*
Y-156817D01*
X88976Y-132677D02*
Y-132205D01*
X40850Y-118526D02*
Y-113617D01*
X41350Y-127650D02*
X42200Y-128500D01*
X41350Y-119125D02*
X41400Y-119076D01*
X41350Y-127650D02*
Y-119125D01*
D33*
X98506Y-184400D02*
X102706Y-188600D01*
X83900Y-184400D02*
X98506D01*
X81200Y-187100D02*
X83900Y-184400D01*
X67500Y-187100D02*
X81200D01*
X62600Y-182200D02*
X67500Y-187100D01*
X102706Y-188600D02*
X104800D01*
X105800Y-187600D01*
D35*
X85400Y-148500D02*
D03*
X85500Y-126100D02*
D03*
X26176Y-64076D02*
D03*
X66200Y-54800D02*
D03*
X69800Y-54700D02*
D03*
X65500Y-59300D02*
D03*
X77600Y-63500D02*
D03*
X49400Y-62600D02*
D03*
X77403Y-79071D02*
D03*
X34800Y-67400D02*
D03*
X38500Y-101800D02*
D03*
X26700Y-79200D02*
D03*
X14000Y-124200D02*
D03*
X18329Y-74446D02*
D03*
X10600Y-73900D02*
D03*
X26200Y-98600D02*
D03*
X10600Y-67400D02*
D03*
X22700Y-133700D02*
D03*
X51300Y-3900D02*
D03*
X53900Y-2600D02*
D03*
X64200Y-5900D02*
D03*
X48500Y-4200D02*
D03*
X95100Y-44500D02*
D03*
X78900Y-166900D02*
D03*
X62600Y-182200D02*
D03*
X14700Y-43000D02*
D03*
X66000Y-114300D02*
D03*
X65900Y-118000D02*
D03*
X57700Y-119100D02*
D03*
X72848Y-170438D02*
D03*
X24600Y-164300D02*
D03*
X19200Y-153900D02*
D03*
X26600Y-171000D02*
D03*
X42800Y-98000D02*
D03*
X73700Y-55100D02*
D03*
X58000Y-62396D02*
D03*
X63800Y-32100D02*
D03*
X70213Y-32124D02*
D03*
X70900Y-23500D02*
D03*
X65900Y-71500D02*
D03*
X65700Y-47400D02*
D03*
X76400Y-13200D02*
D03*
X70000Y-13210D02*
D03*
X72200Y-155200D02*
D03*
X87700Y-138500D02*
D03*
X90400Y-137600D02*
D03*
X83700Y-138300D02*
D03*
X76172Y-148336D02*
D03*
X72900Y-151400D02*
D03*
X82300Y-161800D02*
D03*
X84200Y-167400D02*
D03*
X84800Y-153000D02*
D03*
X96900Y-141700D02*
D03*
X72800Y-148300D02*
D03*
X74200Y-126100D02*
D03*
X78000Y-121800D02*
D03*
X64300Y-136300D02*
D03*
X73400Y-129900D02*
D03*
X79200Y-170300D02*
D03*
X80300Y-157100D02*
D03*
X72900Y-167122D02*
D03*
X69900Y-126000D02*
D03*
X70500Y-122100D02*
D03*
X73700Y-122500D02*
D03*
X65900Y-122000D02*
D03*
X54100Y-126000D02*
D03*
X61900Y-114300D02*
D03*
X75400Y-155700D02*
D03*
X69672Y-167200D02*
D03*
X61700Y-134200D02*
D03*
X58675Y-162825D02*
D03*
X65200Y-162900D02*
D03*
X66822Y-166787D02*
D03*
X61900Y-162700D02*
D03*
X72400Y-162300D02*
D03*
X66700Y-13400D02*
D03*
X57614Y-13226D02*
D03*
X71021Y-51546D02*
D03*
X77800Y-59200D02*
D03*
X58100Y-59000D02*
D03*
X54100Y-59100D02*
D03*
X54000Y-55200D02*
D03*
X76500Y-10179D02*
D03*
X74700Y-22400D02*
D03*
X73293Y-13295D02*
D03*
X69800Y-43300D02*
D03*
X72500Y-46200D02*
D03*
X79700Y-37900D02*
D03*
X82600Y-25100D02*
D03*
X78900Y-22700D02*
D03*
X75900Y-24900D02*
D03*
X69872Y-67623D02*
D03*
X62000Y-71200D02*
D03*
X79573Y-13200D02*
D03*
X86100Y-17800D02*
D03*
X84800Y-21700D02*
D03*
X87300Y-13000D02*
D03*
X89000Y-26500D02*
D03*
X54100Y-67015D02*
D03*
X78800Y-41300D02*
D03*
X87700Y-44000D02*
D03*
X85700Y-45800D02*
D03*
X85600Y-41900D02*
D03*
X84100Y-32100D02*
D03*
X2000Y-139900D02*
D03*
X28900Y-141433D02*
D03*
X10800Y-60400D02*
D03*
X75700Y-162100D02*
D03*
X11000Y-56200D02*
D03*
X30300Y-167800D02*
D03*
X10900Y-64700D02*
D03*
X108700Y-110700D02*
D03*
X101200Y-113700D02*
D03*
X46000Y-63200D02*
D03*
X41900Y-73700D02*
D03*
X112000Y-73300D02*
D03*
X80850Y-86016D02*
D03*
X110500Y-159900D02*
D03*
X105800Y-187400D02*
D03*
X115800Y-36200D02*
D03*
X34400Y-97900D02*
D03*
X44900Y-10100D02*
D03*
X41842Y-10100D02*
D03*
X48100Y-6500D02*
D03*
X108300Y-91100D02*
D03*
X103800Y-139600D02*
D03*
X89300Y-118100D02*
D03*
X105800Y-127347D02*
D03*
X81500Y-126300D02*
D03*
X77500Y-117700D02*
D03*
X89400Y-110500D02*
D03*
X89700Y-113900D02*
D03*
X77500Y-110200D02*
D03*
X87271Y-114538D02*
D03*
X104900Y-96700D02*
D03*
X109600Y-98000D02*
D03*
X106900Y-88000D02*
D03*
X103800Y-128600D02*
D03*
X113400Y-169400D02*
D03*
X114800Y-160200D02*
D03*
X115100Y-157500D02*
D03*
X114200Y-154400D02*
D03*
X116400Y-151900D02*
D03*
X85100Y-117400D02*
D03*
M02*
