M48
;Layer_Color=9474304
;FILE_FORMAT=2:5
INCH,LZ
;TYPE=PLATED
T1F00S00C0.01000
T2F00S00C0.10236
%
T01
X00032Y-01794
X0007Y-01814
X00119Y-01858
X00142Y-01884
X00173Y-01879
X00206Y-01874
X00236Y-01859
X00257Y-0188
X00347Y-01882
X00371Y-01794
Y-0177
X00358Y-0175
X00408Y-01748
X00475Y-01757
X005Y-0175
X0055525Y-0174425
X0061824Y-0174376
X0066Y-01752
X00699Y-0175
X00731Y-01765
X00747Y-01799
X00722Y-01806
X00693Y-01824
Y-01847
X00626Y-01822
X00535Y-01826
X00491Y-01882
X00477Y-01703
X00444
X00414Y-01672
X00431Y-01628
X00458
X00493
X0052
X00553
X0058675Y-0162825
X00619Y-01627
X00652Y-01629
X00649Y-01596
X00601Y-01555
X0060043Y-0151747
X0060582Y-0148495
X00607Y-01443
X00616Y-01379
X00617Y-01342
X00643Y-01363
X00693Y-01413
X0073077Y-014505
X00728Y-01483
X00729Y-01514
X00722Y-01552
X00754Y-01557
X0077933Y-01587
X00803Y-01571
X00823Y-01618
X00757Y-01621
X00724Y-01623
X00729Y-0167122
X0069672Y-01672
X0066822Y-0166787
X00636Y-01702
X00603Y-01703
X0057214Y-0167174
X00537Y-01674
X00508Y-01672
X00544Y-0159
X00561Y-01558
X00496Y-01557
X00477Y-01513
X00445Y-01483
X00452Y-01437
X0047Y-01403
X00449Y-01372
X00455Y-01345
X00505
X00541Y-01344
X00533Y-01376
X005163Y-0141663
X0053836Y-0151426
X00664Y-01485
X0076172Y-0148336
X00854Y-01485
X00848Y-0153
X00948Y-01513
X0096364Y-0148564
X00977Y-01466
X01003Y-01468
X00986Y-01438
X00969Y-01417
X0099Y-01394
X01014Y-01396
X01038
X01055Y-01433
X01048Y-01315
X01062Y-0129647
X01058Y-0127347
X01081Y-01273
X01085Y-01311
X01022Y-01303
X01038Y-01286
X0102753Y-0123
X01051Y-0123
X01052Y-01192
X0105Y-01169
X01045Y-01145
X01012Y-01137
X01017Y-01175
X01085Y-01161
X01087Y-01107
X01041Y-01096
X0093043Y-0113905
X00897Y-01139
X0087271Y-0114538
X00851Y-01174
X00813
X00815Y-01141
X00814Y-01105
X0085Y-01104
X00894Y-01105
X00893Y-01181
X00896Y-01215
Y-01258
X00855Y-01261
Y-01299
X00892Y-01302
X00904Y-01376
X00877Y-01385
X00837Y-01383
X00781Y-01299
X00775Y-01261
X00742
X00737Y-01225
X00705Y-01221
X00699Y-0126
X00646Y-01257
X00659Y-0122
Y-0118
X0069529Y-0117877
X00697Y-01143
X0066
X00619
X00617Y-01101
X0065737Y-0109716
X00701Y-01097
X00739Y-01102
X00775
X00743Y-01141
X007385Y-0117684
X00775Y-01177
X0078Y-01218
X008134Y-0121814
X00853Y-01218
X00815Y-01263
X00734Y-01299
X00541Y-013
Y-0126
X0058Y-01259
X0058004Y-01221
X00577Y-01191
X0061655Y-0121814
X00502Y-0122225
X005005Y-01261
X00472Y-01257
X0043Y-0125992
X00377Y-01261
X00341Y-01259
X00342Y-0122
X00341Y-01184
X00377Y-01182
X00382Y-01145
X00425Y-0114483
X00462Y-01142
X00463Y-01182
X00505Y-01174
X00506Y-0114
X0054Y-01104
X00463Y-0129967
X0039022Y-012997
X00344Y-01299
X00304Y-013
X00265Y-01299
Y-01268
X00263Y-01216
X00304Y-01222
X00384Y-01221
X0034154Y-01354
X00324Y-01388
X00289Y-0141433
X00293Y-01347
X00254Y-01346
X00227Y-01337
X00232Y-01364
X00195Y-0139
X00184Y-01446
X0018308Y-0148236
Y-0150598
X00192Y-01539
X00207Y-01572
X00276Y-01565
X00316
X0035564Y-0156398
X0035121Y-0151244
X003845Y-0151292
X00401Y-01575
X00428Y-0156
X0039777Y-0162723
X0036628Y-0162772
X0033478Y-0162678
X0035Y-0167227
X00303Y-01678
X00272Y-01677
X00266Y-0171
X00307Y-01733
X00254Y-0178672
X00231Y-01789
X00208Y-01801
X00164Y-01803
X00153Y-017
X0010469Y-0164868
Y-0160932
X0006532
Y-0164868
X0005531Y-0155168
X00032Y-0155637
X0002196Y-01581
X0008563Y-0154429
X0002Y-01422
Y-01399
X0014Y-01319
X00143Y-01286
X0014Y-01242
X00132Y-01208
X00111Y-01196
X00107Y-01163
X00129Y-01175
X00153Y-01182
X00121Y-01142
X00117Y-01109
X00147Y-01099
X00265Y-01098
Y-01144
X00022Y-01161
X00021Y-01127
X00246Y-01643
X00271Y-01621
X0072848Y-0170438
X00792Y-01703
X00789Y-01669
X00842Y-01674
X00881Y-01673
X00852Y-01734
X00857Y-01768
X00808Y-01751
X00779Y-01791
Y-01814
X00968Y-01884
X01058Y-01874
X0103982Y-0184282
X01049Y-01778
X0103Y-01758
X0102931Y-0170069
X0106869
Y-0166131
X0102931
X01029Y-01595
X0107783Y-0159541
X01105Y-01599
X01108Y-01575
X01151
X01148Y-01602
X01142Y-01544
X01164Y-01519
X01134Y-01694
X01133Y-01719
X01119Y-01804
X01153Y-01802
X0107739Y-0179014
X00996Y-01339
X00931Y-01229
X00928Y-01183
X00931Y-0106
X0093Y-01026
X0089214Y-0102129
Y-0098191
X00926Y-00981
X0089214Y-0094254
X0085277Y-0098191
X00776Y-00987
X00741Y-00986
X00737Y-01022
X00778Y-01023
X00811Y-01024
X008134Y-0106065
X00856Y-01062
X007749Y-010725
X00738Y-01064
X0069836Y-0106728
X0069529Y-0102129
X0066Y-01025
X006581Y-0099116
X0070192Y-00988
X00696Y-00942
X00734Y-00944
X00775
Y-00907
X00739Y-00904
X00738Y-0087
X00698Y-00874
X0065592Y-0086945
X0061655Y-008638
X00618Y-00828
X00619Y-00781
X00618Y-00748
X0062Y-00712
X00659Y-00715
X0065592Y-0075134
X0065956Y-0078
X00665Y-0082672
X0074Y-00827
X007373Y-00781
X0077403Y-0079071
Y-0075134
X008134
X00814Y-00717
X00774Y-00709
X0074Y-00708
X0069872Y-0067623
X0069529Y-0063323
X00655Y-00593
X0062Y-0059167
X00581Y-0059
X0058Y-0062396
X0057978Y-0067
X00541Y-0067015
X00503Y-0067
X00501Y-00703
X0046
X00462Y-0067
X0046Y-00632
X00426Y-0063
X00423Y-00593
X00388Y-00592
X00381Y-00549
Y-00512
X003455Y-0051317
X00344Y-0055189
X00311Y-00552
X00266
X00268Y-00587
X00304Y-00591
X0034Y-0059
X00347Y-00631
X00307Y-00635
X0026176Y-0064076
X00266Y-00664
X00305Y-00713
X00348Y-00709
Y-00674
X00391Y-00709
X0042535Y-0071197
X00419Y-00737
X00381Y-00747
X0046472Y-0075134
X00502Y-00749
X0054346Y-0075134
X0054181Y-00782
X0051783Y-0078408
X0050409Y-0083008
X0054Y-00828
X0054346Y-0086945
X00501Y-00865
X0046472Y-0086945
X0046505Y-00935
X00427Y-00934
X00428Y-0098
X00463Y-00981
X00505Y-01019
Y-0094
X00544Y-00973
X00542Y-01062
X0046472Y-0106065
X00385Y-01018
X00344Y-00979
X00304Y-00984
X00262Y-00986
X00264Y-00912
X00267Y-00831
Y-00792
X00141Y-00789
X00111Y-0079
X0012546Y-0077154
X00129Y-00731
X00106Y-00739
X00108Y-00715
X0012Y-00694
X00106Y-00674
X00109Y-00647
X00096Y-00627
X00108Y-00604
X00133Y-00586
X00144Y-006205
X00142Y-00666
X00151Y-00711
X0018329Y-0074446
X00132Y-00814
X00142Y-00849
X00119Y-00852
Y-00887
X00147Y-00906
X00134Y-00933
X00154Y-00946
X00118Y-00955
X00095Y-009595
X0010757Y-0099252
X0013Y-00981
X0012Y-01028
X0014375Y-0102858
X0013Y-01058
X00153Y-01063
X0010757Y-010479
X00265Y-01065
X00341Y-01064
X00344Y-00906
X00343Y-00865
X00423Y-00828
X00542Y-00708
X0058315Y-00706
X00537Y-00632
X00541Y-00591
X0054Y-00552
X00541Y-00513
X0058Y-005123
X0057933Y-00551
X00619
X00662Y-00548
X00698Y-00547
X00737Y-00551
X0071021Y-0051546
X00725Y-00462
X00698Y-00433
X00692Y-00399
Y-00366
X0070213Y-0032124
X0067Y-0029
X00638Y-00321
X00639Y-00381
X0061367Y-0035966
X00574Y-00406
X00563Y-00453
X00588Y-00466
X0052776Y-0045924
X00481Y-00448
X0046Y-00476
X00434Y-00466
X00462Y-00512
Y-00551
X00425Y-0055
X0050033Y-0055266
X00501Y-0059
X00494Y-00626
X00461Y-00594
X00364Y-00461
X00318Y-00464
X0027Y-00467
X00252Y-00445
X00217Y-00455
X00164Y-00447
X00147Y-0043
X00153Y-0048
X0014Y-00513
X00191Y-00507
X00266Y-00512
X00276Y-00381
X00306Y-00377
X00294Y-00305
X00268Y-00306
X00275Y-00261
X00254Y-00219
X00311Y-00206
X00303Y-00184
X0033927Y-0018499
X00376Y-00175
X00419Y-00178
X00444Y-00168
X00479Y-00171
X00512Y-00177
X00556Y-00173
X0059Y-00174
X00622Y-00175
X00667Y-00134
X007Y-001321
X0073293Y-0013295
X00764Y-00132
X00765Y-0010179
X00753Y-00059
X00779Y-00038
X00807Y-00051
X0079573Y-00132
X00873Y-0013
X00861Y-00178
X00848Y-00217
X00826Y-00251
X00789Y-00227
X00747Y-00224
X00759Y-00249
X00709Y-00235
X00574Y-0028874
X0051275Y-00289
X0048025Y-0029
X00449Y-00322
X00457Y-00365
X00433Y-00375
X00495Y-0037
X00418Y-00289
X00385Y-0028986
X00387Y-00132
X00448Y-00131
X00449Y-00101
X0041842Y-00101
X0043327Y-0005527
X00481Y-00065
X00485Y-00042
X00513Y-00039
X00536Y-00054
X0055925Y-0005425
X00539Y-00026
X00607Y-00062
X00642Y-00059
X00649Y-00036
X00687Y-00044
X0072Y-00043
X00927Y-00031
X00909Y-00158
X00906Y-0020868
X0089Y-00265
X00953Y-0027
X00945Y-00304
X00969Y-00357
X00962Y-0039
X00925Y-00402
X00923Y-00367
X00951Y-00445
X00934Y-00479
X00893Y-00504
X00888Y-0055167
X00855Y-00553
X0081486Y-0054324
X00815Y-00597
X00778Y-00592
X00776Y-00635
X00816Y-00669
X0085277Y-006726
X0085243Y-0064064
X008918Y-0064064
X00897Y-00667
X00886Y-00593
X00926Y-00594
X01014Y-00625
X01022Y-0067
X0106Y-00696
X010495Y-00729
X01039Y-00768
X0103916Y-0080101
X01013Y-00793
X01009Y-00751
X01081Y-00767
X01091Y-00804
X0111153Y-00816
X01122Y-0084
X0111Y-00914
X01083Y-00911
X01046Y-00909
X01019Y-00904
X01021Y-00851
X01052Y-00864
X01069Y-0088
X01086Y-00957
X01109Y-00949
X01096Y-0098
X01049Y-00967
X01055Y-01039
X01031Y-01063
X01115Y-01028
X01141Y-01029
X01143Y-0091
X0112Y-00733
X0112331Y-0069169
X01134Y-00612
X01108
X01066Y-00583
X01043Y-00582
X01042Y-0055
X01026Y-00533
X01021Y-00567
X01089Y-00543
X01098Y-00517
X01073Y-00507
X0104Y-00487
X01034Y-00454
X01092Y-00409
X01127Y-00361
X01158Y-00362
X01161Y-00248
X01135Y-00246
X01103Y-00247
X01079Y-0028
X01078Y-00305
X00841Y-00321
X00797Y-00379
X00788Y-00413
X00856Y-00419
X00857Y-00458
X00877Y-0044
X00657Y-00474
X0057614Y-0013226
X0054236
X0051Y-00131
X00373Y-00056
X00325Y-00057
X00291Y-0004
X0024Y-00037
X00228Y-00134
X00189Y-00249
X00141
X00153Y-00231
X0014368Y-0029331
X0010431
Y-0033268
X0014368
X00132Y-00381
X00097Y-004
X00068Y-00373
X0005Y-0033968
X00056Y-00315
X0004487Y-0029316
X0005Y-00256
X00075Y-00252
X00019Y-0024
X0001896Y-0032245
X00027Y-00434
X00052Y-0051
X00095Y-00528
X0008847Y-00551
X0011Y-00562
X00019Y-00563
X00049Y-00622
X00025Y-00692
X00024Y-00868
X00617Y-00903
X0062257Y-009415
X00656Y-00943
X00619Y-01019
Y-01068
X008085Y-0086016
X0085277Y-0083008
Y-0079071
X00814Y-00791
X0085277Y-0075134
X0089214
X00895Y-00828
X008975Y-00869
X0107Y-00646
T02
X001152Y-0011427
X0106795
M30
