G04 Layer_Color=16777215*
%FSLAX25Y25*%
%MOIN*%
G70*
G01*
G75*
%ADD11C,0.01000*%
%ADD50C,0.00984*%
%ADD51C,0.00394*%
%ADD53C,0.00787*%
D11*
X23500Y-181801D02*
Y-183800D01*
X22500Y-184800D01*
X21501Y-183800D01*
Y-181801D01*
X20501Y-184800D02*
X19501D01*
X20001D01*
Y-181801D01*
X20501Y-182301D01*
X18002Y-184800D02*
Y-184300D01*
X17502D01*
Y-184800D01*
X18002D01*
X15503Y-182301D02*
X15003Y-181801D01*
X14003D01*
X13503Y-182301D01*
Y-184300D01*
X14003Y-184800D01*
X15003D01*
X15503Y-184300D01*
Y-182301D01*
D50*
X21890Y-132242D02*
G03*
X21890Y-132242I-492J0D01*
G01*
X97395Y-50558D02*
G03*
X97395Y-50558I-492J0D01*
G01*
D51*
X20865Y-24607D02*
G03*
X20865Y-24607I-197J0D01*
G01*
X32139Y-154206D02*
G03*
X32139Y-154206I-440J0D01*
G01*
X2004Y-154632D02*
G03*
X2004Y-154632I-197J0D01*
G01*
X111790Y-176368D02*
G03*
X111790Y-176368I-197J0D01*
G01*
X98260Y-24563D02*
G03*
X98260Y-24563I-197J0D01*
G01*
X108860Y-35037D02*
G03*
X108860Y-35037I-197J0D01*
G01*
X98860Y-32763D02*
G03*
X98860Y-32763I-197J0D01*
G01*
X86460Y-153737D02*
G03*
X86460Y-153737I-197J0D01*
G01*
X87260Y-176337D02*
G03*
X87260Y-176337I-197J0D01*
G01*
X28043Y-36278D02*
Y-33522D01*
X20957D02*
X28043D01*
X20957Y-36278D02*
Y-33522D01*
Y-36278D02*
X28043D01*
X102978Y-158343D02*
Y-151257D01*
X100222Y-158343D02*
X102978D01*
X100222D02*
Y-151257D01*
X102978D01*
X25765Y-32624D02*
Y-23176D01*
X21435Y-32624D02*
X25765D01*
X21435D02*
Y-23176D01*
X25765D01*
X17922Y-178343D02*
X20678D01*
Y-171257D01*
X17922D02*
X20678D01*
X17922Y-178343D02*
Y-171257D01*
X32378Y-89843D02*
Y-82757D01*
X29622Y-89843D02*
X32378D01*
X29622D02*
Y-82757D01*
X32378D01*
X29922Y-111243D02*
X32678D01*
Y-104157D01*
X29922D02*
X32678D01*
X29922Y-111243D02*
Y-104157D01*
X42122Y-103557D02*
X44878D01*
X42122Y-110643D02*
Y-103557D01*
Y-110643D02*
X44878D01*
Y-103557D01*
X34857Y-85378D02*
X41943D01*
X34857D02*
Y-82622D01*
X41943D01*
Y-85378D02*
Y-82622D01*
X74343Y-105878D02*
Y-103122D01*
X67257D02*
X74343D01*
X67257Y-105878D02*
Y-103122D01*
Y-105878D02*
X74343D01*
X25657Y-177878D02*
X32743D01*
X25657D02*
Y-175122D01*
X32743D01*
Y-177878D02*
Y-175122D01*
X28157Y-160878D02*
Y-158122D01*
Y-160878D02*
X35243D01*
Y-158122D01*
X28157D02*
X35243D01*
X36957Y-141178D02*
X44043D01*
X36957D02*
Y-138422D01*
X44043D01*
Y-141178D02*
Y-138422D01*
X43122Y-173457D02*
X45878D01*
X43122Y-180543D02*
Y-173457D01*
Y-180543D02*
X45878D01*
Y-173457D01*
X56557Y-176022D02*
X63643D01*
Y-178778D02*
Y-176022D01*
X56557Y-178778D02*
X63643D01*
X56557D02*
Y-176022D01*
X71343Y-179478D02*
Y-176722D01*
X64257D02*
X71343D01*
X64257Y-179478D02*
Y-176722D01*
Y-179478D02*
X71343D01*
X70957Y-142978D02*
X78043D01*
X70957D02*
Y-140222D01*
X78043D01*
Y-142978D02*
Y-140222D01*
X51957Y-145878D02*
Y-143122D01*
Y-145878D02*
X59043D01*
Y-143122D01*
X51957D02*
X59043D01*
X41757Y-160778D02*
X48843D01*
X41757D02*
Y-158022D01*
X48843D01*
Y-160778D02*
Y-158022D01*
X85857Y-107022D02*
X92943D01*
Y-109778D02*
Y-107022D01*
X85857Y-109778D02*
X92943D01*
X85857D02*
Y-107022D01*
X43543Y-136678D02*
Y-133922D01*
X36457D02*
X43543D01*
X36457Y-136678D02*
Y-133922D01*
Y-136678D02*
X43543D01*
X26443Y-40878D02*
Y-38122D01*
X19357D02*
X26443D01*
X19357Y-40878D02*
Y-38122D01*
Y-40878D02*
X26443D01*
X79257Y-181178D02*
Y-178422D01*
Y-181178D02*
X86343D01*
Y-178422D01*
X79257D02*
X86343D01*
X66822Y-152657D02*
X69578D01*
X66822Y-159743D02*
Y-152657D01*
Y-159743D02*
X69578D01*
Y-152657D01*
X43457Y-73978D02*
X50543D01*
X43457D02*
Y-71222D01*
X50543D01*
Y-73978D02*
Y-71222D01*
X52622Y-115657D02*
X55378D01*
X52622Y-122743D02*
Y-115657D01*
Y-122743D02*
X55378D01*
Y-115657D01*
X65557Y-110622D02*
X72643D01*
Y-113378D02*
Y-110622D01*
X65557Y-113378D02*
X72643D01*
X65557D02*
Y-110622D01*
X41657Y-120022D02*
X48743D01*
Y-122778D02*
Y-120022D01*
X41657Y-122778D02*
X48743D01*
X41657D02*
Y-120022D01*
X46943Y-113278D02*
Y-110522D01*
X39857D02*
X46943D01*
X39857Y-113278D02*
Y-110522D01*
Y-113278D02*
X46943D01*
X59478Y-78943D02*
Y-71857D01*
X56722Y-78943D02*
X59478D01*
X56722D02*
Y-71857D01*
X59478D01*
X29422Y-74557D02*
X32178D01*
X29422Y-81643D02*
Y-74557D01*
Y-81643D02*
X32178D01*
Y-74557D01*
X23535Y-20924D02*
Y-11476D01*
X27865D01*
Y-20924D02*
Y-11476D01*
X23535Y-20924D02*
X27865D01*
X91522Y-11757D02*
X94278D01*
X91522Y-18843D02*
Y-11757D01*
Y-18843D02*
X94278D01*
Y-11757D01*
X26757Y-164322D02*
X33843D01*
Y-167078D02*
Y-164322D01*
X26757Y-167078D02*
X33843D01*
X26757D02*
Y-164322D01*
X114678Y-152143D02*
Y-145057D01*
X111922Y-152143D02*
X114678D01*
X111922D02*
Y-145057D01*
X114678D01*
X39943Y-145278D02*
Y-142522D01*
X32857D02*
X39943D01*
X32857Y-145278D02*
Y-142522D01*
Y-145278D02*
X39943D01*
X32657Y-155178D02*
X39743D01*
X32657D02*
Y-152422D01*
X39743D01*
Y-155178D02*
Y-152422D01*
X56822Y-87157D02*
X59578D01*
X56822Y-94243D02*
Y-87157D01*
Y-94243D02*
X59578D01*
Y-87157D01*
X69378Y-98543D02*
Y-91457D01*
X66622Y-98543D02*
X69378D01*
X66622D02*
Y-91457D01*
X69378D01*
X61922Y-102143D02*
X64678D01*
Y-95057D01*
X61922D02*
X64678D01*
X61922Y-102143D02*
Y-95057D01*
X56822Y-86643D02*
Y-79557D01*
X59578D01*
Y-86643D02*
Y-79557D01*
X56822Y-86643D02*
X59578D01*
X53643Y-91578D02*
Y-88822D01*
X46557D02*
X53643D01*
X46557Y-91578D02*
Y-88822D01*
Y-91578D02*
X53643D01*
X65457Y-83722D02*
X72543D01*
Y-86478D02*
Y-83722D01*
X65457Y-86478D02*
X72543D01*
X65457D02*
Y-83722D01*
X55935Y-101876D02*
X60265D01*
X55935Y-111324D02*
Y-101876D01*
Y-111324D02*
X60265D01*
Y-101876D01*
X56922Y-94857D02*
X59678D01*
X56922Y-101943D02*
Y-94857D01*
Y-101943D02*
X59678D01*
Y-94857D01*
X65457Y-91378D02*
Y-88622D01*
Y-91378D02*
X72543D01*
Y-88622D01*
X65457D02*
X72543D01*
X74757Y-89678D02*
X81843D01*
X74757D02*
Y-86922D01*
X81843D01*
Y-89678D02*
Y-86922D01*
X44543Y-77378D02*
Y-74622D01*
X37457D02*
X44543D01*
X37457Y-77378D02*
Y-74622D01*
Y-77378D02*
X44543D01*
X17278Y-178843D02*
Y-171757D01*
X14522Y-178843D02*
X17278D01*
X14522D02*
Y-171757D01*
X17278D01*
X4135Y-181224D02*
Y-171776D01*
X8465D01*
Y-181224D02*
Y-171776D01*
X4135Y-181224D02*
X8465D01*
X9235D02*
X13565D01*
Y-171776D01*
X9235D02*
X13565D01*
X9235Y-181224D02*
Y-171776D01*
X1250Y-153312D02*
Y-142288D01*
Y-153312D02*
X7550D01*
Y-142288D01*
X1250D02*
X7550D01*
X96935Y-185124D02*
Y-175676D01*
X101265D01*
Y-185124D02*
Y-175676D01*
X96935Y-185124D02*
X101265D01*
X113922Y-180043D02*
Y-172957D01*
X116678D01*
Y-180043D02*
Y-172957D01*
X113922Y-180043D02*
X116678D01*
X96622Y-149357D02*
X99378D01*
X96622Y-156443D02*
Y-149357D01*
Y-156443D02*
X99378D01*
Y-149357D01*
X97978Y-173743D02*
Y-166657D01*
X95222Y-173743D02*
X97978D01*
X95222D02*
Y-166657D01*
X97978D01*
X89850Y-155288D02*
X96150D01*
Y-166312D02*
Y-155288D01*
X89850Y-166312D02*
X96150D01*
X89850D02*
Y-155288D01*
X108022Y-148657D02*
X110778D01*
X108022Y-155743D02*
Y-148657D01*
Y-155743D02*
X110778D01*
Y-148657D01*
X8750Y-153112D02*
Y-142088D01*
Y-153112D02*
X15050D01*
Y-142088D01*
X8750D02*
X15050D01*
X58357Y-127522D02*
X65443D01*
Y-130278D02*
Y-127522D01*
X58357Y-130278D02*
X65443D01*
X58357D02*
Y-127522D01*
X76143Y-75578D02*
Y-72822D01*
X69057D02*
X76143D01*
X69057Y-75578D02*
Y-72822D01*
Y-75578D02*
X76143D01*
X71557Y-176178D02*
X78643D01*
X71557D02*
Y-173422D01*
X78643D01*
Y-176178D02*
Y-173422D01*
X66257Y-139378D02*
Y-136622D01*
Y-139378D02*
X73343D01*
Y-136622D01*
X66257D02*
X73343D01*
X77657Y-122722D02*
X84743D01*
Y-125478D02*
Y-122722D01*
X77657Y-125478D02*
X84743D01*
X77657D02*
Y-122722D01*
X91622Y-11143D02*
X94378D01*
Y-4057D01*
X91622D02*
X94378D01*
X91622Y-11143D02*
Y-4057D01*
X50722Y-177257D02*
X53478D01*
X50722Y-184343D02*
Y-177257D01*
Y-184343D02*
X53478D01*
Y-177257D01*
X65543Y-142678D02*
Y-139922D01*
X58457D02*
X65543D01*
X58457Y-142678D02*
Y-139922D01*
Y-142678D02*
X65543D01*
X63143Y-160778D02*
Y-158022D01*
X56057D02*
X63143D01*
X56057Y-160778D02*
Y-158022D01*
Y-160778D02*
X63143D01*
X73457Y-114022D02*
X80543D01*
Y-116778D02*
Y-114022D01*
X73457Y-116778D02*
X80543D01*
X73457D02*
Y-114022D01*
X32922Y-81443D02*
X35678D01*
Y-74357D01*
X32922D02*
X35678D01*
X32922Y-81443D02*
Y-74357D01*
X49243Y-102378D02*
Y-99622D01*
X42157D02*
X49243D01*
X42157Y-102378D02*
Y-99622D01*
Y-102378D02*
X49243D01*
X101222Y-149543D02*
Y-142457D01*
X103978D01*
Y-149543D02*
Y-142457D01*
X101222Y-149543D02*
X103978D01*
X32857Y-148878D02*
Y-146122D01*
Y-148878D02*
X39943D01*
Y-146122D01*
X32857D02*
X39943D01*
X52457Y-115078D02*
Y-112322D01*
Y-115078D02*
X59543D01*
Y-112322D01*
X52457D02*
X59543D01*
X46057Y-107622D02*
X53143D01*
Y-110378D02*
Y-107622D01*
X46057Y-110378D02*
X53143D01*
X46057D02*
Y-107622D01*
X30222Y-120043D02*
X32978D01*
Y-112957D01*
X30222D02*
X32978D01*
X30222Y-120043D02*
Y-112957D01*
X43657Y-81478D02*
X50743D01*
X43657D02*
Y-78722D01*
X50743D01*
Y-81478D02*
Y-78722D01*
X87543Y-185378D02*
Y-182622D01*
X80457D02*
X87543D01*
X80457Y-185378D02*
Y-182622D01*
Y-185378D02*
X87543D01*
X72257D02*
X79343D01*
X72257D02*
Y-182622D01*
X79343D01*
Y-185378D02*
Y-182622D01*
X33057Y-169722D02*
X40143D01*
Y-172478D02*
Y-169722D01*
X33057Y-172478D02*
X40143D01*
X33057D02*
Y-169722D01*
X822Y-171057D02*
X3578D01*
X822Y-178143D02*
Y-171057D01*
Y-178143D02*
X3578D01*
Y-171057D01*
X16457Y-159778D02*
X23543D01*
X16457D02*
Y-157022D01*
X23543D01*
Y-159778D02*
Y-157022D01*
X19478Y-167643D02*
Y-160557D01*
X16722Y-167643D02*
X19478D01*
X16722D02*
Y-160557D01*
X19478D01*
X103922Y-151257D02*
X106678D01*
X103922Y-158343D02*
Y-151257D01*
Y-158343D02*
X106678D01*
Y-151257D01*
X113322Y-168243D02*
Y-161157D01*
X116078D01*
Y-168243D02*
Y-161157D01*
X113322Y-168243D02*
X116078D01*
X30912Y-154599D02*
Y-142001D01*
X19888D02*
X30912D01*
X19888Y-154599D02*
Y-142001D01*
Y-154599D02*
X30912D01*
X97800Y-25000D02*
X98500D01*
X97300Y-25500D02*
X97800Y-25000D01*
X97300Y-32100D02*
Y-25500D01*
Y-32100D02*
X106500D01*
Y-25000D01*
X97800D02*
X106500D01*
X109100Y-35300D02*
Y-26600D01*
X116200D01*
Y-35800D02*
Y-26600D01*
X109600Y-35800D02*
X116200D01*
X109100Y-35300D02*
X109600Y-35800D01*
X109100Y-35300D02*
Y-34600D01*
X98400Y-33200D02*
X107100D01*
Y-40300D02*
Y-33200D01*
X97900Y-40300D02*
X107100D01*
X97900D02*
Y-33700D01*
X98400Y-33200D01*
X99100D01*
X86700Y-154000D02*
Y-145300D01*
X93800D01*
Y-154500D02*
Y-145300D01*
X87200Y-154500D02*
X93800D01*
X86700Y-154000D02*
X87200Y-154500D01*
X86700Y-154000D02*
Y-153300D01*
X87500Y-176600D02*
Y-175900D01*
Y-176600D02*
X88000Y-177100D01*
X94600D01*
Y-167900D01*
X87500D02*
X94600D01*
X87500Y-176600D02*
Y-167900D01*
X81657Y-99022D02*
X88743D01*
Y-101778D02*
Y-99022D01*
X81657Y-101778D02*
X88743D01*
X81657D02*
Y-99022D01*
X81788Y-92578D02*
Y-89822D01*
Y-92578D02*
X88875D01*
Y-89822D01*
X81788D02*
X88875D01*
X78988Y-93922D02*
X86075D01*
Y-96678D02*
Y-93922D01*
X78988Y-96678D02*
X86075D01*
X78988D02*
Y-93922D01*
X86322Y-84243D02*
X89078D01*
Y-77157D01*
X86322D02*
X89078D01*
X86322Y-84243D02*
Y-77157D01*
X81757Y-86022D02*
X88843D01*
Y-88778D02*
Y-86022D01*
X81757Y-88778D02*
X88843D01*
X81757D02*
Y-86022D01*
X82357Y-74178D02*
Y-71422D01*
Y-74178D02*
X89443D01*
Y-71422D01*
X82357D02*
X89443D01*
X75757Y-84378D02*
Y-81622D01*
Y-84378D02*
X82843D01*
Y-81622D01*
X75757D02*
X82843D01*
X106657Y-178778D02*
X113743D01*
X106657D02*
Y-176022D01*
X113743D01*
Y-178778D02*
Y-176022D01*
X86776Y-177635D02*
X96224D01*
Y-181965D02*
Y-177635D01*
X86776Y-181965D02*
X96224D01*
X86776D02*
Y-177635D01*
X20422Y-160557D02*
X23178D01*
X20422Y-167643D02*
Y-160557D01*
Y-167643D02*
X23178D01*
Y-160557D01*
X21722Y-171257D02*
X24478D01*
X21722Y-178343D02*
Y-171257D01*
Y-178343D02*
X24478D01*
Y-171257D01*
D53*
X19093Y-25099D02*
Y-24607D01*
Y-37993D02*
Y-37501D01*
X5707Y-25099D02*
Y-24607D01*
Y-37993D02*
Y-37501D01*
X16770Y-24607D02*
X19093D01*
X5707D02*
X8030D01*
X16770Y-37993D02*
X19093D01*
X5707D02*
X8030D01*
X33063Y-28506D02*
X82276D01*
Y-946D02*
X90150D01*
X82276Y-28506D02*
Y-946D01*
X90150Y-12757D02*
Y-946D01*
Y-69844D02*
Y-12757D01*
X33063Y-28506D02*
Y-16694D01*
X37000D01*
Y-4883D01*
X29126D02*
X37000D01*
X29126Y-69844D02*
Y-4883D01*
Y-69844D02*
X90150D01*
X15193Y-169593D02*
Y-167270D01*
Y-158530D02*
Y-156207D01*
X1807Y-169593D02*
Y-167270D01*
Y-158530D02*
Y-156207D01*
X14701Y-169593D02*
X15193D01*
X1807D02*
X2299D01*
X14701Y-156207D02*
X15193D01*
X1807D02*
X2299D01*
X111101Y-174793D02*
X111593D01*
X98207D02*
X98699D01*
X111101Y-161407D02*
X111593D01*
X98207D02*
X98699D01*
X111593Y-174793D02*
Y-172470D01*
Y-163730D02*
Y-161407D01*
X98207Y-174793D02*
Y-172470D01*
Y-163730D02*
Y-161407D01*
X18839Y-136572D02*
Y-131651D01*
X14508Y-45628D02*
X18839D01*
X14508Y-136572D02*
X18839D01*
Y-50549D02*
Y-45628D01*
X99461Y-137172D02*
Y-132251D01*
Y-46228D02*
X103792D01*
X99461Y-137172D02*
X103792D01*
X99461Y-51149D02*
Y-46228D01*
M02*
